<svg width="31" height="31" fill="none" xmlns="http://www.w3.org/2000/svg"><path fill-rule="evenodd" clip-rule="evenodd" d="M15.196.25h.108c2.895 0 5.14 0 6.916.192 1.803.196 3.227.598 4.433 1.474a8.725 8.725 0 0 1 1.93 1.93c.877 1.207 1.28 2.63 1.475 4.434.192 1.776.192 4.02.192 6.916v.108c0 2.895 0 5.14-.192 6.916-.196 1.803-.598 3.227-1.474 4.433a8.724 8.724 0 0 1-1.93 1.93c-1.207.877-2.63 1.28-4.434 1.475-1.776.192-4.02.192-6.916.192h-.108c-2.895 0-5.14 0-6.916-.192-1.803-.196-3.227-.598-4.433-1.474a8.725 8.725 0 0 1-1.93-1.93C1.04 25.446.636 24.023.441 22.22.25 20.444.25 18.2.25 15.304v-.108c0-2.895 0-5.14.192-6.916.196-1.803.598-3.227 1.474-4.433a8.726 8.726 0 0 1 1.93-1.93C5.054 1.04 6.477.636 8.28.441 10.056.25 12.3.25 15.196.25ZM8.47 2.197c-1.653.179-2.73.526-3.586 1.147a6.96 6.96 0 0 0-1.54 1.54c-.621.855-.968 1.933-1.147 3.586-.181 1.67-.182 3.82-.182 6.78 0 2.96 0 5.11.182 6.78.179 1.653.526 2.73 1.147 3.586.43.59.95 1.11 1.54 1.54.855.621 1.933.968 3.586 1.147 1.67.181 3.82.182 6.78.182 2.96 0 5.11 0 6.78-.182 1.653-.179 2.73-.526 3.586-1.147a6.96 6.96 0 0 0 1.54-1.54c.621-.855.968-1.933 1.147-3.586.181-1.67.182-3.82.182-6.78 0-2.96 0-5.11-.182-6.78-.179-1.653-.526-2.73-1.147-3.586a6.96 6.96 0 0 0-1.54-1.54c-.855-.621-1.933-.968-3.586-1.147-1.67-.181-3.82-.182-6.78-.182-2.96 0-5.11 0-6.78.182Zm2.829 9.482a.883.883 0 0 1 1.247 0l2.704 2.704 2.704-2.704a.883.883 0 0 1 1.247 1.248l-2.703 2.704 2.703 2.703a.882.882 0 1 1-1.247 1.248l-2.704-2.704-2.704 2.704a.882.882 0 0 1-1.247-1.248l2.703-2.703-2.704-2.704a.882.882 0 0 1 0-1.248Z" fill="#FB726A"/></svg>