<svg width="480" height="260" viewBox="0 0 480 260" fill="none" xmlns="http://www.w3.org/2000/svg">
<mask id="mask0_219_21383" style="mask-type:alpha" maskUnits="userSpaceOnUse" x="0" y="0" width="480" height="260">
<rect width="480" height="260" fill="#D9D9D9"/>
</mask>
<g mask="url(#mask0_219_21383)">
<rect x="0.5" y="0.5" width="479" height="421" rx="39.5" fill="white"/>
<rect x="0.5" y="0.5" width="479" height="421" rx="39.5" stroke="#DFDFDF"/>
<circle cx="54" cy="30" r="6" fill="#DFDFDF"/>
<circle cx="74" cy="30" r="6" fill="#DFDFDF"/>
<circle cx="94" cy="30" r="6" fill="#DFDFDF"/>
<path d="M49.68 82V64.72H56.664C56.832 64.72 57.04 64.728 57.288 64.744C57.536 64.752 57.772 64.776 57.996 64.816C58.956 64.968 59.756 65.296 60.396 65.8C61.044 66.304 61.528 66.94 61.848 67.708C62.168 68.476 62.328 69.324 62.328 70.252C62.328 71.188 62.168 72.04 61.848 72.808C61.528 73.576 61.044 74.212 60.396 74.716C59.756 75.22 58.956 75.548 57.996 75.7C57.772 75.732 57.532 75.756 57.276 75.772C57.028 75.788 56.824 75.796 56.664 75.796H52.188V82H49.68ZM52.188 73.42H56.568C56.728 73.42 56.904 73.412 57.096 73.396C57.296 73.38 57.484 73.352 57.66 73.312C58.172 73.192 58.584 72.972 58.896 72.652C59.208 72.324 59.432 71.948 59.568 71.524C59.704 71.1 59.772 70.676 59.772 70.252C59.772 69.828 59.704 69.408 59.568 68.992C59.432 68.568 59.208 68.196 58.896 67.876C58.584 67.548 58.172 67.324 57.66 67.204C57.484 67.156 57.296 67.124 57.096 67.108C56.904 67.092 56.728 67.084 56.568 67.084H52.188V73.42ZM69.1309 82.348C68.2349 82.348 67.4829 82.204 66.8749 81.916C66.2669 81.628 65.7709 81.252 65.3869 80.788C65.0109 80.316 64.7229 79.804 64.5229 79.252C64.3229 78.7 64.1869 78.16 64.1149 77.632C64.0429 77.104 64.0069 76.64 64.0069 76.24V69.04H66.5509V75.412C66.5509 75.916 66.5909 76.436 66.6709 76.972C66.7589 77.5 66.9189 77.992 67.1509 78.448C67.3909 78.904 67.7229 79.272 68.1469 79.552C68.5789 79.832 69.1389 79.972 69.8269 79.972C70.2749 79.972 70.6989 79.9 71.0989 79.756C71.4989 79.604 71.8469 79.364 72.1429 79.036C72.4469 78.708 72.6829 78.276 72.8509 77.74C73.0269 77.204 73.1149 76.552 73.1149 75.784L74.6749 76.372C74.6749 77.548 74.4549 78.588 74.0149 79.492C73.5749 80.388 72.9429 81.088 72.1189 81.592C71.2949 82.096 70.2989 82.348 69.1309 82.348ZM73.4149 82V78.256H73.1149V69.04H75.6469V82H73.4149ZM78.5325 82V69.04H80.7645V72.184L80.4525 71.776C80.6125 71.36 80.8205 70.98 81.0765 70.636C81.3325 70.284 81.6285 69.996 81.9645 69.772C82.2925 69.532 82.6565 69.348 83.0565 69.22C83.4645 69.084 83.8805 69.004 84.3045 68.98C84.7285 68.948 85.1365 68.968 85.5285 69.04V71.392C85.1045 71.28 84.6325 71.248 84.1125 71.296C83.6005 71.344 83.1285 71.508 82.6965 71.788C82.2885 72.052 81.9645 72.372 81.7245 72.748C81.4925 73.124 81.3245 73.544 81.2205 74.008C81.1165 74.464 81.0645 74.948 81.0645 75.46V82H78.5325ZM92.6434 82.36C91.3154 82.36 90.1874 82.064 89.2594 81.472C88.3314 80.88 87.6194 80.068 87.1234 79.036C86.6354 78.004 86.3874 76.832 86.3794 75.52C86.3874 74.184 86.6434 73.004 87.1474 71.98C87.6514 70.948 88.3714 70.14 89.3074 69.556C90.2434 68.972 91.3674 68.68 92.6794 68.68C94.0954 68.68 95.3034 69.032 96.3034 69.736C97.3114 70.44 97.9754 71.404 98.2954 72.628L95.7994 73.348C95.5514 72.62 95.1434 72.056 94.5754 71.656C94.0154 71.248 93.3714 71.044 92.6434 71.044C91.8194 71.044 91.1434 71.24 90.6154 71.632C90.0874 72.016 89.6954 72.544 89.4394 73.216C89.1834 73.888 89.0514 74.656 89.0434 75.52C89.0514 76.856 89.3554 77.936 89.9554 78.76C90.5634 79.584 91.4594 79.996 92.6434 79.996C93.4514 79.996 94.1034 79.812 94.5994 79.444C95.1034 79.068 95.4874 78.532 95.7514 77.836L98.2954 78.436C97.8714 79.7 97.1714 80.672 96.1954 81.352C95.2194 82.024 94.0354 82.36 92.6434 82.36ZM109.356 82V75.628C109.356 75.124 109.312 74.608 109.224 74.08C109.144 73.544 108.984 73.048 108.744 72.592C108.512 72.136 108.18 71.768 107.748 71.488C107.324 71.208 106.768 71.068 106.08 71.068C105.632 71.068 105.208 71.144 104.808 71.296C104.408 71.44 104.056 71.676 103.752 72.004C103.456 72.332 103.22 72.764 103.044 73.3C102.876 73.836 102.792 74.488 102.792 75.256L101.232 74.668C101.232 73.492 101.452 72.456 101.892 71.56C102.332 70.656 102.964 69.952 103.788 69.448C104.612 68.944 105.608 68.692 106.776 68.692C107.672 68.692 108.424 68.836 109.032 69.124C109.64 69.412 110.132 69.792 110.508 70.264C110.892 70.728 111.184 71.236 111.384 71.788C111.584 72.34 111.72 72.88 111.792 73.408C111.864 73.936 111.9 74.4 111.9 74.8V82H109.356ZM100.248 82V64.72H102.492V74.044H102.792V82H100.248ZM118.206 82.36C117.246 82.36 116.442 82.184 115.794 81.832C115.146 81.472 114.654 81 114.318 80.416C113.99 79.824 113.826 79.176 113.826 78.472C113.826 77.816 113.942 77.24 114.174 76.744C114.406 76.248 114.75 75.828 115.206 75.484C115.662 75.132 116.222 74.848 116.886 74.632C117.462 74.464 118.114 74.316 118.842 74.188C119.57 74.06 120.334 73.94 121.134 73.828C121.942 73.716 122.742 73.604 123.534 73.492L122.622 73.996C122.638 72.98 122.422 72.228 121.974 71.74C121.534 71.244 120.774 70.996 119.694 70.996C119.014 70.996 118.39 71.156 117.822 71.476C117.254 71.788 116.858 72.308 116.634 73.036L114.294 72.316C114.614 71.204 115.222 70.32 116.118 69.664C117.022 69.008 118.222 68.68 119.718 68.68C120.878 68.68 121.886 68.88 122.742 69.28C123.606 69.672 124.238 70.296 124.638 71.152C124.846 71.576 124.974 72.024 125.022 72.496C125.07 72.968 125.094 73.476 125.094 74.02V82H122.874V79.036L123.306 79.42C122.77 80.412 122.086 81.152 121.254 81.64C120.43 82.12 119.414 82.36 118.206 82.36ZM118.65 80.308C119.362 80.308 119.974 80.184 120.486 79.936C120.998 79.68 121.41 79.356 121.722 78.964C122.034 78.572 122.238 78.164 122.334 77.74C122.47 77.356 122.546 76.924 122.562 76.444C122.586 75.964 122.598 75.58 122.598 75.292L123.414 75.592C122.622 75.712 121.902 75.82 121.254 75.916C120.606 76.012 120.018 76.108 119.49 76.204C118.97 76.292 118.506 76.4 118.098 76.528C117.754 76.648 117.446 76.792 117.174 76.96C116.91 77.128 116.698 77.332 116.538 77.572C116.386 77.812 116.31 78.104 116.31 78.448C116.31 78.784 116.394 79.096 116.562 79.384C116.73 79.664 116.986 79.888 117.33 80.056C117.674 80.224 118.114 80.308 118.65 80.308ZM132.686 82.348C131.11 82.348 129.826 82 128.834 81.304C127.842 80.608 127.234 79.628 127.01 78.364L129.578 77.968C129.738 78.64 130.106 79.172 130.682 79.564C131.266 79.948 131.99 80.14 132.854 80.14C133.638 80.14 134.25 79.98 134.69 79.66C135.138 79.34 135.362 78.9 135.362 78.34C135.362 78.012 135.282 77.748 135.122 77.548C134.97 77.34 134.646 77.144 134.15 76.96C133.654 76.776 132.898 76.548 131.882 76.276C130.77 75.988 129.886 75.68 129.23 75.352C128.582 75.016 128.118 74.628 127.838 74.188C127.566 73.74 127.43 73.2 127.43 72.568C127.43 71.784 127.638 71.1 128.054 70.516C128.47 69.932 129.054 69.48 129.806 69.16C130.566 68.84 131.454 68.68 132.47 68.68C133.462 68.68 134.346 68.836 135.122 69.148C135.898 69.46 136.526 69.904 137.006 70.48C137.486 71.048 137.774 71.716 137.87 72.484L135.302 72.952C135.214 72.328 134.922 71.836 134.426 71.476C133.93 71.116 133.286 70.92 132.494 70.888C131.734 70.856 131.118 70.984 130.646 71.272C130.174 71.552 129.938 71.94 129.938 72.436C129.938 72.724 130.026 72.968 130.202 73.168C130.386 73.368 130.738 73.56 131.258 73.744C131.778 73.928 132.546 74.148 133.562 74.404C134.65 74.684 135.514 74.996 136.154 75.34C136.794 75.676 137.25 76.08 137.522 76.552C137.802 77.016 137.942 77.58 137.942 78.244C137.942 79.524 137.474 80.528 136.538 81.256C135.61 81.984 134.326 82.348 132.686 82.348ZM145.865 82.36C144.577 82.36 143.445 82.08 142.469 81.52C141.501 80.952 140.745 80.164 140.201 79.156C139.665 78.14 139.397 76.964 139.397 75.628C139.397 74.212 139.661 72.984 140.189 71.944C140.725 70.904 141.469 70.1 142.421 69.532C143.373 68.964 144.481 68.68 145.745 68.68C147.065 68.68 148.189 68.988 149.117 69.604C150.045 70.212 150.737 71.08 151.193 72.208C151.657 73.336 151.841 74.676 151.745 76.228H149.237V75.316C149.221 73.812 148.933 72.7 148.373 71.98C147.821 71.26 146.977 70.9 145.841 70.9C144.585 70.9 143.641 71.296 143.009 72.088C142.377 72.88 142.061 74.024 142.061 75.52C142.061 76.944 142.377 78.048 143.009 78.832C143.641 79.608 144.553 79.996 145.745 79.996C146.529 79.996 147.205 79.82 147.773 79.468C148.349 79.108 148.797 78.596 149.117 77.932L151.577 78.712C151.073 79.872 150.309 80.772 149.285 81.412C148.261 82.044 147.121 82.36 145.865 82.36ZM141.245 76.228V74.272H150.497V76.228H141.245ZM158.282 82V64.72H160.79V72.172H169.43V64.72H171.95V82H169.43V74.536H160.79V82H158.282ZM175.081 66.916V64.48H177.589V66.916H175.081ZM175.081 82V69.04H177.589V82H175.081ZM185.669 82.348C184.093 82.348 182.809 82 181.817 81.304C180.825 80.608 180.217 79.628 179.993 78.364L182.561 77.968C182.721 78.64 183.089 79.172 183.665 79.564C184.249 79.948 184.973 80.14 185.837 80.14C186.621 80.14 187.233 79.98 187.673 79.66C188.121 79.34 188.345 78.9 188.345 78.34C188.345 78.012 188.265 77.748 188.105 77.548C187.953 77.34 187.629 77.144 187.133 76.96C186.637 76.776 185.881 76.548 184.865 76.276C183.753 75.988 182.869 75.68 182.213 75.352C181.565 75.016 181.101 74.628 180.821 74.188C180.549 73.74 180.413 73.2 180.413 72.568C180.413 71.784 180.621 71.1 181.037 70.516C181.453 69.932 182.037 69.48 182.789 69.16C183.549 68.84 184.437 68.68 185.453 68.68C186.445 68.68 187.329 68.836 188.105 69.148C188.881 69.46 189.509 69.904 189.989 70.48C190.469 71.048 190.757 71.716 190.853 72.484L188.285 72.952C188.197 72.328 187.905 71.836 187.409 71.476C186.913 71.116 186.269 70.92 185.477 70.888C184.717 70.856 184.101 70.984 183.629 71.272C183.157 71.552 182.921 71.94 182.921 72.436C182.921 72.724 183.009 72.968 183.185 73.168C183.369 73.368 183.721 73.56 184.241 73.744C184.761 73.928 185.529 74.148 186.545 74.404C187.633 74.684 188.497 74.996 189.137 75.34C189.777 75.676 190.233 76.08 190.505 76.552C190.785 77.016 190.925 77.58 190.925 78.244C190.925 79.524 190.457 80.528 189.521 81.256C188.593 81.984 187.309 82.348 185.669 82.348ZM200.516 82C199.7 82.16 198.9 82.228 198.116 82.204C197.332 82.18 196.632 82.028 196.016 81.748C195.4 81.468 194.936 81.028 194.624 80.428C194.344 79.892 194.192 79.348 194.168 78.796C194.152 78.236 194.144 77.604 194.144 76.9V65.44H196.664V76.78C196.664 77.3 196.668 77.752 196.676 78.136C196.692 78.52 196.776 78.844 196.928 79.108C197.216 79.604 197.672 79.888 198.296 79.96C198.928 80.024 199.668 79.996 200.516 79.876V82ZM191.66 71.056V69.04H200.516V71.056H191.66ZM207.81 82.36C206.514 82.36 205.39 82.068 204.438 81.484C203.486 80.9 202.75 80.096 202.23 79.072C201.718 78.04 201.462 76.852 201.462 75.508C201.462 74.156 201.726 72.968 202.254 71.944C202.782 70.912 203.522 70.112 204.474 69.544C205.426 68.968 206.538 68.68 207.81 68.68C209.106 68.68 210.23 68.972 211.182 69.556C212.134 70.14 212.87 70.944 213.39 71.968C213.91 72.992 214.17 74.172 214.17 75.508C214.17 76.86 213.906 78.052 213.378 79.084C212.858 80.108 212.122 80.912 211.17 81.496C210.218 82.072 209.098 82.36 207.81 82.36ZM207.81 79.996C209.05 79.996 209.974 79.58 210.582 78.748C211.198 77.908 211.506 76.828 211.506 75.508C211.506 74.156 211.194 73.076 210.57 72.268C209.954 71.452 209.034 71.044 207.81 71.044C206.97 71.044 206.278 71.236 205.734 71.62C205.19 71.996 204.786 72.52 204.522 73.192C204.258 73.856 204.126 74.628 204.126 75.508C204.126 76.868 204.438 77.956 205.062 78.772C205.686 79.588 206.602 79.996 207.81 79.996ZM216.327 82V69.04H218.559V72.184L218.247 71.776C218.407 71.36 218.615 70.98 218.871 70.636C219.127 70.284 219.423 69.996 219.759 69.772C220.087 69.532 220.451 69.348 220.851 69.22C221.259 69.084 221.675 69.004 222.099 68.98C222.523 68.948 222.931 68.968 223.323 69.04V71.392C222.899 71.28 222.427 71.248 221.907 71.296C221.395 71.344 220.923 71.508 220.491 71.788C220.083 72.052 219.759 72.372 219.519 72.748C219.287 73.124 219.119 73.544 219.015 74.008C218.911 74.464 218.859 74.948 218.859 75.46V82H216.327ZM226.552 87.76L229.06 80.932L229.096 82.948L223.444 69.04H226.06L230.284 79.78H229.516L233.548 69.04H236.092L228.94 87.76H226.552Z" fill="#3022BB"/>
<path d="M48 110H432" stroke="#DFDFDF"/>
<path d="M60.575 131.5V132.681H56.9583V142H55.7771V132.681H52.1458V131.5H60.575ZM64.268 133.906C64.6472 133.906 65.0118 133.95 65.3618 134.067V135.19C65.0264 135.073 64.618 135 64.1805 135.029C63.568 135.044 63.0285 135.248 62.6639 135.612C61.9639 136.269 61.9347 137.129 61.9347 138.194V142H60.7389V134.125H61.8035V135.292C61.9639 135.015 62.1826 134.767 62.4743 134.533C62.9847 134.11 63.641 133.921 64.268 133.906ZM67.1654 136.108L66.0716 135.598C66.13 135.496 66.2175 135.35 66.305 135.248C66.9904 134.329 68.0112 133.921 69.1925 133.921C70.6362 133.921 71.8175 134.446 72.3862 135.671C72.605 136.123 72.6925 136.619 72.6925 137.071V142H71.6425V140.44C71.3508 141.008 70.7966 141.49 70.2571 141.752C69.6154 142.073 68.93 142.233 68.23 142.19C67.4425 142.16 66.6258 141.752 66.2029 141.14C65.8966 140.673 65.7362 140.25 65.7362 139.696C65.7362 138.865 66.1737 138.135 66.8883 137.698C67.7487 137.231 68.6091 137.158 69.8341 136.969L71.4675 136.75C71.3946 136.254 71.1758 135.817 70.7966 135.525C70.3737 135.175 69.7758 135.044 69.1779 135.044C68.4487 135.044 67.7633 135.292 67.355 135.846C67.2821 135.933 67.2237 136.021 67.1654 136.108ZM71.5112 137.756C70.9279 137.844 70.4029 137.931 69.6008 138.062C68.3321 138.252 66.9466 138.485 66.9321 139.637C66.9175 140.367 67.5591 141.023 68.3904 141.096C69.4258 141.198 70.7383 140.6 71.205 139.565C71.5112 138.923 71.5112 138.412 71.5112 137.756ZM79.8873 134.592C80.9665 135.423 81.1561 136.677 81.1415 138.121V142H79.9457V138.121C79.9457 136.998 79.829 136.065 79.0707 135.496C78.6769 135.204 78.1665 135.058 77.5832 135.087C77.1019 135.102 76.6353 135.262 76.2853 135.569C75.9207 135.89 75.6873 136.356 75.5853 136.881C75.5123 137.202 75.4978 137.581 75.4978 137.96V142H74.3019V134.125H75.3665V135.015C75.4394 134.927 75.5269 134.84 75.6144 134.752C76.1978 134.227 76.9707 133.965 77.6853 133.935C78.4582 133.892 79.2603 134.125 79.8873 134.592ZM88.7757 136.196L87.609 136.473C87.434 135.992 87.0695 135.54 86.6174 135.306C86.282 135.131 85.8736 135.044 85.4507 135.044C85.0278 135.029 84.6195 135.102 84.284 135.262C83.934 135.452 83.7007 135.758 83.7007 136.079C83.7007 136.312 83.7736 136.502 83.9486 136.677C84.1382 136.867 84.4153 136.998 84.9403 137.144C85.334 137.26 85.8299 137.392 86.4424 137.552C87.0257 137.712 87.507 137.887 87.9736 138.281C88.5715 138.762 88.8486 139.346 88.7903 140.046C88.732 140.717 88.3528 141.329 87.784 141.694C87.1715 142.088 86.3695 142.204 85.582 142.204C84.5465 142.204 83.6132 141.912 82.9424 141.198C82.4903 140.687 82.2132 139.958 82.1111 139.419L83.2632 139.142C83.3215 139.579 83.4965 140.075 83.8028 140.425C84.2549 140.921 84.9257 141.081 85.5674 141.081C86.107 141.081 86.7632 140.965 87.1278 140.717C87.4049 140.512 87.5361 140.25 87.5799 139.944C87.609 139.637 87.4924 139.36 87.2445 139.156C86.9965 138.923 86.6903 138.806 86.107 138.631C85.7132 138.515 85.2757 138.398 84.7361 138.252C84.1382 138.092 83.6424 137.931 83.1903 137.567C82.6945 137.187 82.4757 136.619 82.4757 136.094C82.4757 135.262 83.059 134.548 83.7882 134.212C84.357 133.965 84.9257 133.892 85.4799 133.906C86.0195 133.906 86.6174 134.023 87.1424 134.285C87.8861 134.679 88.5424 135.423 88.7757 136.196ZM91.0441 136.108L89.9504 135.598C90.0087 135.496 90.0962 135.35 90.1837 135.248C90.8691 134.329 91.89 133.921 93.0712 133.921C94.515 133.921 95.6962 134.446 96.265 135.671C96.4837 136.123 96.5712 136.619 96.5712 137.071V142H95.5212V140.44C95.2296 141.008 94.6754 141.49 94.1358 141.752C93.4941 142.073 92.8087 142.233 92.1087 142.19C91.3212 142.16 90.5046 141.752 90.0816 141.14C89.7754 140.673 89.615 140.25 89.615 139.696C89.615 138.865 90.0525 138.135 90.7671 137.698C91.6275 137.231 92.4879 137.158 93.7129 136.969L95.3462 136.75C95.2733 136.254 95.0546 135.817 94.6754 135.525C94.2525 135.175 93.6546 135.044 93.0566 135.044C92.3275 135.044 91.6421 135.292 91.2337 135.846C91.1608 135.933 91.1025 136.021 91.0441 136.108ZM95.39 137.756C94.8066 137.844 94.2816 137.931 93.4796 138.062C92.2108 138.252 90.8254 138.485 90.8108 139.637C90.7962 140.367 91.4379 141.023 92.2691 141.096C93.3046 141.198 94.6171 140.6 95.0837 139.565C95.39 138.923 95.39 138.412 95.39 137.756ZM104.787 135.875L103.679 136.356C103.606 136.196 103.504 136.05 103.416 135.919C102.979 135.321 102.264 135.029 101.491 135.029C100.747 135.029 100.018 135.321 99.5953 135.919C99.1432 136.502 99.0119 137.29 98.9973 138.062C99.0119 138.835 99.1432 139.623 99.5953 140.206C100.018 140.79 100.747 141.081 101.491 141.081C102.264 141.081 102.979 140.79 103.416 140.206C103.504 140.075 103.591 139.929 103.664 139.783L104.787 140.279C104.656 140.498 104.524 140.717 104.364 140.921C103.679 141.781 102.629 142.219 101.491 142.219C100.368 142.219 99.3182 141.796 98.6328 140.921C97.9765 140.104 97.7578 139.069 97.7432 138.062C97.7578 137.042 97.9765 136.021 98.6328 135.19C99.3473 134.3 100.368 133.906 101.491 133.906C102.629 133.906 103.664 134.329 104.364 135.19C104.524 135.408 104.67 135.627 104.787 135.875ZM108.106 135.117V139.025C108.106 139.681 108.092 140.075 108.281 140.41C108.442 140.76 108.806 140.965 109.2 140.994C109.608 141.037 110.09 141.023 110.498 140.95V142C109.973 142.131 109.244 142.16 108.733 142.058C108.033 141.927 107.494 141.606 107.202 141.008C106.925 140.454 106.925 139.842 106.925 139.083V135.117H105.16V134.125H106.925V131.937H108.106V134.125H110.498V135.117H108.106ZM112.108 131.5H113.29V132.769H112.108V131.5ZM112.108 134.125H113.29V142H112.108V134.125ZM118.521 142.219C117.384 142.219 116.334 141.796 115.648 140.935C114.992 140.104 114.759 139.083 114.759 138.048C114.759 137.027 115.007 135.992 115.648 135.19C116.319 134.358 117.384 133.906 118.521 133.906C119.644 133.906 120.709 134.329 121.379 135.19C122.065 136.021 122.284 137.042 122.284 138.048C122.284 139.112 122.05 140.09 121.379 140.935C120.694 141.81 119.673 142.219 118.521 142.219ZM120.446 140.206C120.884 139.623 121.029 138.835 121.029 138.048C121.029 137.29 120.884 136.487 120.446 135.904C120.009 135.321 119.279 135.029 118.521 135.029C117.763 135.029 117.034 135.321 116.611 135.904C116.159 136.487 116.013 137.29 116.013 138.048C116.013 138.835 116.159 139.623 116.611 140.206C117.034 140.79 117.763 141.096 118.521 141.096C119.279 141.096 120.009 140.79 120.446 140.206ZM129.197 134.592C130.276 135.423 130.466 136.677 130.451 138.121V142H129.255V138.121C129.255 136.998 129.139 136.065 128.38 135.496C127.986 135.204 127.476 135.058 126.893 135.087C126.411 135.102 125.945 135.262 125.595 135.569C125.23 135.89 124.997 136.356 124.895 136.881C124.822 137.202 124.807 137.581 124.807 137.96V142H123.611V134.125H124.676V135.015C124.749 134.927 124.836 134.84 124.924 134.752C125.507 134.227 126.28 133.965 126.995 133.935C127.768 133.892 128.57 134.125 129.197 134.592Z" fill="black"/>
<rect x="52" y="168" width="106.667" height="45" rx="12" fill="#EBEBEB"/>
<rect x="68" y="186.5" width="74.6667" height="8" rx="4" fill="#DFDFDF"/>
<rect x="52" y="222" width="106.667" height="45" rx="12" fill="#DCE6FF"/>
<rect x="68" y="240.5" width="74.6667" height="8" rx="4" fill="#4343C2" fill-opacity="0.2"/>
<path d="M187.646 142V131.92H188.591L192.553 140.397L196.494 131.92H197.453V141.993H196.473V134.216L192.882 142H192.217L188.633 134.216V142H187.646ZM202.337 142.21C201.599 142.21 200.96 142.047 200.419 141.72C199.882 141.393 199.464 140.934 199.166 140.341C198.867 139.748 198.718 139.053 198.718 138.255C198.718 137.429 198.865 136.715 199.159 136.113C199.453 135.511 199.866 135.047 200.398 134.72C200.934 134.393 201.567 134.23 202.295 134.23C203.041 134.23 203.678 134.403 204.206 134.748C204.733 135.089 205.132 135.579 205.403 136.218C205.673 136.857 205.797 137.62 205.774 138.507H204.724V138.143C204.705 137.163 204.493 136.423 204.087 135.924C203.685 135.425 203.097 135.175 202.323 135.175C201.511 135.175 200.888 135.439 200.454 135.966C200.024 136.493 199.81 137.245 199.81 138.22C199.81 139.172 200.024 139.912 200.454 140.439C200.888 140.962 201.501 141.223 202.295 141.223C202.836 141.223 203.307 141.099 203.709 140.852C204.115 140.6 204.434 140.238 204.668 139.767L205.627 140.138C205.328 140.796 204.887 141.307 204.304 141.671C203.725 142.03 203.069 142.21 202.337 142.21ZM199.446 138.507V137.646H205.221V138.507H199.446ZM207.047 142V134.44H207.971V136.26L207.789 136.022C207.873 135.798 207.983 135.593 208.118 135.406C208.253 135.215 208.4 135.058 208.559 134.937C208.755 134.764 208.984 134.634 209.245 134.545C209.506 134.452 209.77 134.398 210.036 134.384C210.302 134.365 210.545 134.384 210.764 134.44V135.406C210.489 135.336 210.188 135.32 209.861 135.357C209.534 135.394 209.233 135.525 208.958 135.749C208.706 135.945 208.517 136.181 208.391 136.456C208.265 136.727 208.181 137.016 208.139 137.324C208.097 137.627 208.076 137.928 208.076 138.227V142H207.047ZM214.811 142.21C214.05 142.21 213.406 142.04 212.879 141.699C212.352 141.358 211.95 140.889 211.675 140.292C211.404 139.69 211.264 138.999 211.255 138.22C211.264 137.427 211.409 136.731 211.689 136.134C211.969 135.532 212.373 135.065 212.9 134.734C213.427 134.398 214.067 134.23 214.818 134.23C215.583 134.23 216.248 134.417 216.813 134.79C217.382 135.163 217.772 135.674 217.982 136.323L216.974 136.645C216.797 136.192 216.514 135.842 216.127 135.595C215.744 135.343 215.306 135.217 214.811 135.217C214.256 135.217 213.796 135.345 213.432 135.602C213.068 135.854 212.797 136.206 212.62 136.659C212.443 137.112 212.352 137.632 212.347 138.22C212.356 139.125 212.566 139.853 212.977 140.404C213.388 140.95 213.999 141.223 214.811 141.223C215.324 141.223 215.761 141.106 216.12 140.873C216.484 140.635 216.759 140.29 216.946 139.837L217.982 140.145C217.702 140.817 217.291 141.33 216.75 141.685C216.209 142.035 215.562 142.21 214.811 142.21ZM224.607 142V138.143C224.607 137.723 224.567 137.338 224.488 136.988C224.409 136.633 224.28 136.325 224.103 136.064C223.93 135.798 223.704 135.593 223.424 135.448C223.149 135.303 222.813 135.231 222.416 135.231C222.052 135.231 221.73 135.294 221.45 135.42C221.175 135.546 220.941 135.728 220.75 135.966C220.563 136.199 220.421 136.484 220.323 136.82C220.225 137.156 220.176 137.539 220.176 137.968L219.448 137.807C219.448 137.032 219.583 136.381 219.854 135.854C220.125 135.327 220.498 134.928 220.974 134.657C221.45 134.386 221.996 134.251 222.612 134.251C223.065 134.251 223.459 134.321 223.795 134.461C224.136 134.601 224.423 134.79 224.656 135.028C224.894 135.266 225.085 135.539 225.23 135.847C225.375 136.15 225.48 136.475 225.545 136.82C225.61 137.161 225.643 137.501 225.643 137.842V142H224.607ZM219.14 142V131.92H220.071V137.611H220.176V142H219.14ZM229.343 142.21C228.773 142.21 228.295 142.107 227.908 141.902C227.525 141.697 227.238 141.424 227.047 141.083C226.855 140.742 226.76 140.371 226.76 139.97C226.76 139.559 226.841 139.209 227.005 138.92C227.173 138.626 227.399 138.386 227.684 138.199C227.973 138.012 228.307 137.87 228.685 137.772C229.067 137.679 229.49 137.597 229.952 137.527C230.418 137.452 230.873 137.389 231.317 137.338C231.765 137.282 232.157 137.228 232.493 137.177L232.129 137.401C232.143 136.654 231.998 136.101 231.695 135.742C231.391 135.383 230.864 135.203 230.113 135.203C229.595 135.203 229.156 135.32 228.797 135.553C228.442 135.786 228.192 136.155 228.048 136.659L227.047 136.365C227.219 135.688 227.567 135.163 228.09 134.79C228.612 134.417 229.291 134.23 230.127 134.23C230.817 134.23 231.403 134.361 231.884 134.622C232.369 134.879 232.712 135.252 232.913 135.742C233.006 135.961 233.067 136.206 233.095 136.477C233.123 136.748 233.137 137.023 233.137 137.303V142H232.22V140.103L232.486 140.215C232.229 140.864 231.83 141.358 231.289 141.699C230.747 142.04 230.099 142.21 229.343 142.21ZM229.462 141.321C229.942 141.321 230.362 141.235 230.722 141.062C231.081 140.889 231.37 140.654 231.59 140.355C231.809 140.052 231.951 139.711 232.017 139.333C232.073 139.09 232.103 138.824 232.108 138.535C232.112 138.241 232.115 138.022 232.115 137.877L232.507 138.08C232.157 138.127 231.776 138.173 231.366 138.22C230.96 138.267 230.558 138.32 230.162 138.381C229.77 138.442 229.415 138.514 229.098 138.598C228.883 138.659 228.675 138.745 228.475 138.857C228.274 138.964 228.108 139.109 227.978 139.291C227.852 139.473 227.789 139.699 227.789 139.97C227.789 140.189 227.842 140.402 227.95 140.607C228.062 140.812 228.239 140.983 228.482 141.118C228.729 141.253 229.056 141.321 229.462 141.321ZM240.139 142V138.143C240.139 137.723 240.099 137.338 240.02 136.988C239.941 136.633 239.812 136.325 239.635 136.064C239.462 135.798 239.236 135.593 238.956 135.448C238.681 135.303 238.345 135.231 237.948 135.231C237.584 135.231 237.262 135.294 236.982 135.42C236.707 135.546 236.473 135.728 236.282 135.966C236.095 136.199 235.953 136.484 235.855 136.82C235.757 137.156 235.708 137.539 235.708 137.968L234.98 137.807C234.98 137.032 235.115 136.381 235.386 135.854C235.657 135.327 236.03 134.928 236.506 134.657C236.982 134.386 237.528 134.251 238.144 134.251C238.597 134.251 238.991 134.321 239.327 134.461C239.668 134.601 239.955 134.79 240.188 135.028C240.426 135.266 240.617 135.539 240.762 135.847C240.907 136.15 241.012 136.475 241.077 136.82C241.142 137.161 241.175 137.501 241.175 137.842V142H240.139ZM234.672 142V134.44H235.603V136.302H235.708V142H234.672ZM246.827 142C246.403 142.089 245.983 142.124 245.567 142.105C245.157 142.086 244.788 141.998 244.461 141.839C244.139 141.68 243.894 141.433 243.726 141.097C243.591 140.817 243.516 140.535 243.502 140.25C243.493 139.961 243.488 139.632 243.488 139.263V132.34H244.51V139.221C244.51 139.538 244.513 139.804 244.517 140.019C244.527 140.229 244.576 140.416 244.664 140.579C244.832 140.892 245.098 141.078 245.462 141.139C245.831 141.2 246.286 141.186 246.827 141.097V142ZM241.871 135.322V134.44H246.827V135.322H241.871Z" fill="black"/>
<rect x="186.666" y="168" width="106.667" height="45" rx="12" fill="#EBEBEB"/>
<rect x="202.666" y="186.5" width="74.6667" height="8" rx="4" fill="#DFDFDF"/>
<rect x="186.666" y="222" width="106.667" height="45" rx="12" fill="#DCE6FF"/>
<rect x="202.666" y="240.5" width="74.6667" height="8" rx="4" fill="#4343C2" fill-opacity="0.2"/>
<path d="M322.355 131.5H323.536V142H322.355V131.5ZM330.887 134.592C331.966 135.423 332.156 136.677 332.141 138.121V142H330.945V138.121C330.945 136.998 330.828 136.065 330.07 135.496C329.676 135.204 329.166 135.058 328.583 135.087C328.101 135.102 327.635 135.262 327.285 135.569C326.92 135.89 326.687 136.356 326.585 136.881C326.512 137.202 326.497 137.581 326.497 137.96V142H325.301V134.125H326.366V135.015C326.439 134.927 326.526 134.84 326.614 134.752C327.197 134.227 327.97 133.965 328.685 133.935C329.458 133.892 330.26 134.125 330.887 134.592ZM335.692 135.117V139.025C335.692 139.681 335.677 140.075 335.867 140.41C336.027 140.76 336.392 140.965 336.786 140.994C337.194 141.037 337.675 141.023 338.083 140.95V142C337.558 142.131 336.829 142.16 336.319 142.058C335.619 141.927 335.079 141.606 334.788 141.008C334.511 140.454 334.511 139.842 334.511 139.083V135.117H332.746V134.125H334.511V131.937H335.692V134.125H338.083V135.117H335.692ZM340.394 138.383C340.423 139.054 340.583 139.71 340.963 140.206C341.386 140.79 342.115 141.096 342.873 141.096C343.631 141.096 344.346 140.79 344.783 140.206C344.886 140.06 344.958 139.929 345.031 139.783L346.198 140.294C346.081 140.512 345.936 140.746 345.761 140.95C345.075 141.796 343.981 142.248 342.873 142.219C341.75 142.19 340.686 141.781 340 140.935C339.344 140.104 339.111 139.069 339.111 138.062C339.125 137.027 339.344 136.021 340 135.19C340.7 134.329 341.736 133.906 342.873 133.906C344.011 133.906 345.046 134.329 345.731 135.19C346.388 136.021 346.621 137.042 346.621 138.062C346.621 138.165 346.621 138.281 346.606 138.383H340.394ZM342.873 135.029C342.115 135.029 341.386 135.335 340.963 135.919C340.656 136.327 340.481 136.852 340.423 137.392H345.323C345.265 136.852 345.09 136.327 344.783 135.919C344.346 135.335 343.631 135.029 342.873 135.029ZM351.479 133.906C351.858 133.906 352.223 133.95 352.573 134.067V135.19C352.237 135.073 351.829 135 351.391 135.029C350.779 135.044 350.239 135.248 349.875 135.612C349.175 136.269 349.145 137.129 349.145 138.194V142H347.95V134.125H349.014V135.292C349.175 135.015 349.393 134.767 349.685 134.533C350.195 134.11 350.852 133.921 351.479 133.906ZM354.299 138.383C354.328 139.054 354.488 139.71 354.867 140.206C355.29 140.79 356.02 141.096 356.778 141.096C357.536 141.096 358.251 140.79 358.688 140.206C358.79 140.06 358.863 139.929 358.936 139.783L360.103 140.294C359.986 140.512 359.84 140.746 359.665 140.95C358.98 141.796 357.886 142.248 356.778 142.219C355.655 142.19 354.59 141.781 353.905 140.935C353.249 140.104 353.015 139.069 353.015 138.062C353.03 137.027 353.249 136.021 353.905 135.19C354.605 134.329 355.64 133.906 356.778 133.906C357.915 133.906 358.951 134.329 359.636 135.19C360.292 136.021 360.526 137.042 360.526 138.062C360.526 138.165 360.526 138.281 360.511 138.383H354.299ZM356.778 135.029C356.02 135.029 355.29 135.335 354.867 135.919C354.561 136.327 354.386 136.852 354.328 137.392H359.228C359.17 136.852 358.995 136.327 358.688 135.919C358.251 135.335 357.536 135.029 356.778 135.029ZM367.804 136.196L366.637 136.473C366.462 135.992 366.097 135.54 365.645 135.306C365.31 135.131 364.902 135.044 364.479 135.044C364.056 135.029 363.647 135.102 363.312 135.262C362.962 135.452 362.729 135.758 362.729 136.079C362.729 136.312 362.802 136.502 362.977 136.677C363.166 136.867 363.443 136.998 363.968 137.144C364.362 137.26 364.858 137.392 365.47 137.552C366.054 137.712 366.535 137.887 367.002 138.281C367.599 138.762 367.877 139.346 367.818 140.046C367.76 140.717 367.381 141.329 366.812 141.694C366.199 142.088 365.397 142.204 364.61 142.204C363.574 142.204 362.641 141.912 361.97 141.198C361.518 140.687 361.241 139.958 361.139 139.419L362.291 139.142C362.349 139.579 362.524 140.075 362.831 140.425C363.283 140.921 363.954 141.081 364.595 141.081C365.135 141.081 365.791 140.965 366.156 140.717C366.433 140.512 366.564 140.25 366.608 139.944C366.637 139.637 366.52 139.36 366.272 139.156C366.024 138.923 365.718 138.806 365.135 138.631C364.741 138.515 364.304 138.398 363.764 138.252C363.166 138.092 362.67 137.931 362.218 137.567C361.722 137.187 361.504 136.619 361.504 136.094C361.504 135.262 362.087 134.548 362.816 134.212C363.385 133.965 363.954 133.892 364.508 133.906C365.047 133.906 365.645 134.023 366.17 134.285C366.914 134.679 367.57 135.423 367.804 136.196ZM371.151 135.117V139.025C371.151 139.681 371.137 140.075 371.326 140.41C371.487 140.76 371.851 140.965 372.245 140.994C372.653 141.037 373.135 141.023 373.543 140.95V142C373.018 142.131 372.289 142.16 371.778 142.058C371.078 141.927 370.539 141.606 370.247 141.008C369.97 140.454 369.97 139.842 369.97 139.083V135.117H368.205V134.125H369.97V131.937H371.151V134.125H373.543V135.117H371.151Z" fill="black"/>
<rect x="321.334" y="168" width="106.667" height="45" rx="12" fill="#EBEBEB"/>
<rect x="337.334" y="186.5" width="74.6667" height="8" rx="4" fill="#DFDFDF"/>
<rect x="321.334" y="222" width="106.667" height="45" rx="12" fill="#DCE6FF"/>
<rect x="337.334" y="240.5" width="74.6667" height="8" rx="4" fill="#4343C2" fill-opacity="0.2"/>
</g>
</svg>
