<svg width="480" height="260" viewBox="0 0 480 260" fill="none" xmlns="http://www.w3.org/2000/svg">
<mask id="mask0_219_21384" style="mask-type:alpha" maskUnits="userSpaceOnUse" x="0" y="0" width="480" height="260">
<rect width="480" height="260" fill="#D9D9D9"/>
</mask>
<g mask="url(#mask0_219_21384)">
<g clip-path="url(#clip0_219_21384)">
<rect width="480" height="660" rx="40" fill="white"/>
<mask id="path-4-outside-1_219_21384" maskUnits="userSpaceOnUse" x="56" y="206" width="376" height="60" fill="black">
<rect fill="white" x="56" y="206" width="376" height="60"/>
<path d="M57 207H432V265H57V207Z"/>
</mask>
<path d="M57 207H432V265H57V207Z" fill="white"/>
<path d="M57 207V206H56V207H57ZM57 265H56V266H57V265ZM57 208H432V206H57V208ZM432 264H57V266H432V264ZM58 265V207H56V265H58Z" fill="#EBEBEB" mask="url(#path-4-outside-1_219_21384)"/>
<rect x="75" y="229" width="80" height="14" rx="3" fill="#EBEBEB"/>
<rect x="215" y="229" width="80" height="14" rx="3" fill="#EBEBEB"/>
<rect x="350" y="229" width="80" height="14" rx="3" fill="#EBEBEB"/>
<rect width="460" height="60" transform="translate(0 90)" fill="white"/>
<rect x="48" y="113" width="80" height="14" rx="3" fill="#EBEBEB"/>
<rect x="195" y="113" width="80" height="14" rx="3" fill="#EBEBEB"/>
<rect x="342" y="113" width="80" height="14" rx="3" fill="#EBEBEB"/>
<rect width="480" height="58" transform="translate(0 149)" fill="#DCE6FF"/>
<rect x="48" y="171" width="80" height="14" rx="3" fill="white"/>
<rect x="195" y="171" width="80" height="14" rx="3" fill="white"/>
<rect x="342" y="171" width="80" height="14" rx="3" fill="white"/>
<path d="M20.5 209V237H56.5" stroke="#EBEBEB"/>
<path d="M20.5 231V294H56.5" stroke="#EBEBEB"/>
<path d="M50.91 70V60.64H52.08L56.9615 67.9525V60.64H58.1315V70H56.9615L52.08 62.681V70H50.91ZM61.9446 70.195C61.4202 70.195 60.9804 70.0997 60.6251 69.909C60.2741 69.714 60.0076 69.4583 59.8256 69.142C59.6479 68.8257 59.5591 68.479 59.5591 68.102C59.5591 67.7337 59.6284 67.4152 59.7671 67.1465C59.9101 66.8735 60.1094 66.6482 60.3651 66.4705C60.6207 66.2885 60.9262 66.1455 61.2816 66.0415C61.6152 65.9505 61.9879 65.8725 62.3996 65.8075C62.8156 65.7382 63.2359 65.6753 63.6606 65.619C64.0852 65.5627 64.4817 65.5085 64.8501 65.4565L64.4341 65.697C64.4471 65.073 64.3214 64.6115 64.0571 64.3125C63.7971 64.0135 63.3464 63.864 62.7051 63.864C62.2804 63.864 61.9077 63.9615 61.5871 64.1565C61.2707 64.3472 61.0476 64.6592 60.9176 65.0925L59.8191 64.761C59.9881 64.1457 60.3152 63.6625 60.8006 63.3115C61.2859 62.9605 61.9251 62.785 62.7181 62.785C63.3551 62.785 63.9011 62.8998 64.3561 63.1295C64.8154 63.3548 65.1447 63.6972 65.3441 64.1565C65.4437 64.3732 65.5066 64.6093 65.5326 64.865C65.5586 65.1163 65.5716 65.3807 65.5716 65.658V70H64.5446V68.3165L64.7851 68.4725C64.5207 69.0402 64.1502 69.4692 63.6736 69.7595C63.2012 70.0498 62.6249 70.195 61.9446 70.195ZM62.1201 69.2265C62.5361 69.2265 62.8957 69.1528 63.1991 69.0055C63.5067 68.8538 63.7537 68.6567 63.9401 68.414C64.1264 68.167 64.2477 67.8983 64.3041 67.608C64.3691 67.3913 64.4037 67.1508 64.4081 66.8865C64.4167 66.6178 64.4211 66.412 64.4211 66.269L64.8241 66.4445C64.4471 66.4965 64.0766 66.5463 63.7126 66.594C63.3486 66.6417 63.0041 66.6937 62.6791 66.75C62.3541 66.802 62.0616 66.8648 61.8016 66.9385C61.6109 66.9992 61.4311 67.0772 61.2621 67.1725C61.0974 67.2678 60.9631 67.3913 60.8591 67.543C60.7594 67.6903 60.7096 67.8745 60.7096 68.0955C60.7096 68.2862 60.7572 68.4682 60.8526 68.6415C60.9522 68.8148 61.1039 68.9557 61.3076 69.064C61.5156 69.1723 61.7864 69.2265 62.1201 69.2265ZM75.6531 70L75.6596 65.5085C75.6596 64.9842 75.5187 64.5747 75.2371 64.28C74.9597 63.981 74.5979 63.8315 74.1516 63.8315C73.8916 63.8315 73.6446 63.8922 73.4106 64.0135C73.1766 64.1305 72.9859 64.3168 72.8386 64.5725C72.6912 64.8238 72.6176 65.1467 72.6176 65.541L72.0066 65.294C71.9979 64.7957 72.0997 64.3602 72.3121 63.9875C72.5287 63.6105 72.8234 63.318 73.1961 63.11C73.5687 62.902 73.9891 62.798 74.4571 62.798C75.1894 62.798 75.7657 63.0212 76.1861 63.4675C76.6064 63.9095 76.8166 64.5053 76.8166 65.255L76.8101 70H75.6531ZM67.2551 70V62.98H68.2886V64.8585H68.4186V70H67.2551ZM71.4606 70L71.4671 65.554C71.4671 65.0167 71.3284 64.5963 71.0511 64.293C70.7737 63.9853 70.4054 63.8315 69.9461 63.8315C69.4911 63.8315 69.1227 63.9875 68.8411 64.2995C68.5594 64.6115 68.4186 65.0253 68.4186 65.541L67.8076 65.177C67.8076 64.722 67.9159 64.3147 68.1326 63.955C68.3492 63.5953 68.6439 63.3137 69.0166 63.11C69.3892 62.902 69.8117 62.798 70.2841 62.798C70.7564 62.798 71.1681 62.8977 71.5191 63.097C71.8701 63.2963 72.1409 63.5823 72.3316 63.955C72.5222 64.3233 72.6176 64.7632 72.6176 65.2745L72.6111 70H71.4606ZM81.4881 70.195C80.7991 70.195 80.1968 70.0433 79.6811 69.74C79.1698 69.4323 78.7711 69.0055 78.4851 68.4595C78.1991 67.9092 78.0561 67.2678 78.0561 66.5355C78.0561 65.7685 78.197 65.1055 78.4786 64.5465C78.7603 63.9832 79.1525 63.5498 79.6551 63.2465C80.1621 62.9388 80.7558 62.785 81.4361 62.785C82.1425 62.785 82.7426 62.9475 83.2366 63.2725C83.735 63.5975 84.1076 64.0612 84.3546 64.6635C84.606 65.2658 84.7143 65.983 84.6796 66.815H83.5096V66.399C83.4966 65.5367 83.3211 64.8932 82.9831 64.4685C82.6451 64.0395 82.1425 63.825 81.4751 63.825C80.7601 63.825 80.2163 64.0547 79.8436 64.514C79.471 64.9733 79.2846 65.632 79.2846 66.49C79.2846 67.3177 79.471 67.959 79.8436 68.414C80.2163 68.869 80.7471 69.0965 81.4361 69.0965C81.8998 69.0965 82.3028 68.9903 82.6451 68.778C82.9875 68.5657 83.2561 68.2602 83.4511 67.8615L84.5626 68.245C84.2896 68.8647 83.878 69.3457 83.3276 69.688C82.7816 70.026 82.1685 70.195 81.4881 70.195ZM78.8946 66.815V65.8855H84.0816V66.815H78.8946Z" fill="#0F1419"/>
<path d="M198.322 70V61.7385H195.13V60.64H202.67V61.7385H199.479V70H198.322ZM203.835 61.7385V60.5425H204.992V61.7385H203.835ZM203.835 70V62.98H204.992V70H203.835ZM210.862 70C210.446 70.0823 210.034 70.1148 209.627 70.0975C209.224 70.0845 208.864 70.0043 208.548 69.857C208.231 69.7053 207.991 69.4713 207.826 69.155C207.688 68.8777 207.612 68.5982 207.599 68.3165C207.59 68.0305 207.586 67.7077 207.586 67.348V61.03H208.743V67.296C208.743 67.582 208.745 67.8268 208.749 68.0305C208.758 68.2342 208.803 68.4097 208.886 68.557C209.042 68.8343 209.289 68.9968 209.627 69.0445C209.969 69.0922 210.381 69.0792 210.862 69.0055V70ZM206.162 63.9355V62.98H210.862V63.9355H206.162ZM212.417 70V60.445H213.574V70H212.417ZM218.566 70.195C217.877 70.195 217.275 70.0433 216.759 69.74C216.248 69.4323 215.849 69.0055 215.563 68.4595C215.277 67.9092 215.134 67.2678 215.134 66.5355C215.134 65.7685 215.275 65.1055 215.557 64.5465C215.838 63.9832 216.231 63.5498 216.733 63.2465C217.24 62.9388 217.834 62.785 218.514 62.785C219.221 62.785 219.821 62.9475 220.315 63.2725C220.813 63.5975 221.186 64.0612 221.433 64.6635C221.684 65.2658 221.792 65.983 221.758 66.815H220.588V66.399C220.575 65.5367 220.399 64.8932 220.061 64.4685C219.723 64.0395 219.221 63.825 218.553 63.825C217.838 63.825 217.294 64.0547 216.922 64.514C216.549 64.9733 216.363 65.632 216.363 66.49C216.363 67.3177 216.549 67.959 216.922 68.414C217.294 68.869 217.825 69.0965 218.514 69.0965C218.978 69.0965 219.381 68.9903 219.723 68.778C220.066 68.5657 220.334 68.2602 220.529 67.8615L221.641 68.245C221.368 68.8647 220.956 69.3457 220.406 69.688C219.86 70.026 219.247 70.195 218.566 70.195ZM215.973 66.815V65.8855H221.16V66.815H215.973Z" fill="#0F1419"/>
<path d="M368.26 70L371.393 60.64H373.005L376.138 70H374.936L372.004 61.316H372.368L369.463 70H368.26ZM369.768 67.8095V66.724H374.63V67.8095H369.768ZM380.142 73.315C379.774 73.315 379.414 73.2587 379.063 73.146C378.712 73.0333 378.389 72.8622 378.095 72.6325C377.804 72.4072 377.562 72.1212 377.367 71.7745L378.426 71.2155C378.599 71.5578 378.844 71.807 379.161 71.963C379.481 72.119 379.811 72.197 380.149 72.197C380.595 72.197 380.965 72.1147 381.26 71.95C381.555 71.7897 381.771 71.5492 381.91 71.2285C382.053 70.9078 382.122 70.5092 382.118 70.0325V68.115H382.255V62.98H383.282V70.0455C383.282 70.2362 383.275 70.4203 383.262 70.598C383.253 70.7757 383.232 70.9512 383.197 71.1245C383.106 71.6228 382.926 72.0323 382.658 72.353C382.389 72.678 382.042 72.9185 381.618 73.0745C381.193 73.2348 380.701 73.315 380.142 73.315ZM380.058 70.195C379.403 70.195 378.842 70.0325 378.374 69.7075C377.906 69.3782 377.544 68.934 377.289 68.375C377.037 67.816 376.912 67.1855 376.912 66.4835C376.912 65.7815 377.037 65.151 377.289 64.592C377.544 64.033 377.906 63.5932 378.374 63.2725C378.842 62.9475 379.401 62.785 380.051 62.785C380.714 62.785 381.271 62.9453 381.722 63.266C382.172 63.5867 382.512 64.0265 382.742 64.5855C382.976 65.1445 383.093 65.7772 383.093 66.4835C383.093 67.1812 382.976 67.8117 382.742 68.375C382.512 68.934 382.172 69.3782 381.722 69.7075C381.271 70.0325 380.716 70.195 380.058 70.195ZM380.201 69.1355C380.673 69.1355 381.061 69.0228 381.364 68.7975C381.667 68.5678 381.891 68.2537 382.034 67.855C382.181 67.452 382.255 66.9948 382.255 66.4835C382.255 65.9635 382.181 65.5063 382.034 65.112C381.891 64.7133 381.67 64.4035 381.371 64.1825C381.072 63.9572 380.692 63.8445 380.233 63.8445C379.756 63.8445 379.362 63.9615 379.05 64.1955C378.742 64.4295 378.513 64.7458 378.361 65.1445C378.214 65.5432 378.14 65.9895 378.14 66.4835C378.14 66.9818 378.216 67.4325 378.368 67.8355C378.519 68.2342 378.747 68.5505 379.05 68.7845C379.358 69.0185 379.741 69.1355 380.201 69.1355ZM388.139 70.195C387.45 70.195 386.847 70.0433 386.332 69.74C385.82 69.4323 385.422 69.0055 385.136 68.4595C384.85 67.9092 384.707 67.2678 384.707 66.5355C384.707 65.7685 384.847 65.1055 385.129 64.5465C385.411 63.9832 385.803 63.5498 386.306 63.2465C386.813 62.9388 387.406 62.785 388.087 62.785C388.793 62.785 389.393 62.9475 389.887 63.2725C390.385 63.5975 390.758 64.0612 391.005 64.6635C391.256 65.2658 391.365 65.983 391.33 66.815H390.16V66.399C390.147 65.5367 389.972 64.8932 389.634 64.4685C389.296 64.0395 388.793 63.825 388.126 63.825C387.411 63.825 386.867 64.0547 386.494 64.514C386.121 64.9733 385.935 65.632 385.935 66.49C385.935 67.3177 386.121 67.959 386.494 68.414C386.867 68.869 387.398 69.0965 388.087 69.0965C388.55 69.0965 388.953 68.9903 389.296 68.778C389.638 68.5657 389.907 68.2602 390.102 67.8615L391.213 68.245C390.94 68.8647 390.528 69.3457 389.978 69.688C389.432 70.026 388.819 70.195 388.139 70.195ZM385.545 66.815V65.8855H390.732V66.815H385.545ZM397.585 70V66.4835C397.585 66.1498 397.555 65.8292 397.494 65.5215C397.438 65.2138 397.336 64.9387 397.189 64.696C397.046 64.449 396.851 64.254 396.604 64.111C396.361 63.968 396.053 63.8965 395.681 63.8965C395.39 63.8965 395.126 63.9463 394.888 64.046C394.654 64.1413 394.452 64.2887 394.283 64.488C394.114 64.6873 393.982 64.9387 393.887 65.242C393.796 65.541 393.75 65.8942 393.75 66.3015L392.99 66.0675C392.99 65.3872 393.111 64.8043 393.354 64.319C393.601 63.8293 393.945 63.4545 394.387 63.1945C394.834 62.9302 395.358 62.798 395.96 62.798C396.415 62.798 396.803 62.8695 397.124 63.0125C397.444 63.1555 397.711 63.3462 397.923 63.5845C398.136 63.8185 398.302 64.0828 398.424 64.3775C398.545 64.6678 398.63 64.9647 398.677 65.268C398.729 65.567 398.755 65.8508 398.755 66.1195V70H397.585ZM392.58 70V62.98H393.62V64.8585H393.75V70H392.58ZM404.365 70C403.949 70.0823 403.537 70.1148 403.13 70.0975C402.727 70.0845 402.367 70.0043 402.051 69.857C401.734 69.7053 401.494 69.4713 401.329 69.155C401.19 68.8777 401.115 68.5982 401.102 68.3165C401.093 68.0305 401.089 67.7077 401.089 67.348V61.03H402.246V67.296C402.246 67.582 402.248 67.8268 402.252 68.0305C402.261 68.2342 402.306 68.4097 402.389 68.557C402.545 68.8343 402.792 68.9968 403.13 69.0445C403.472 69.0922 403.884 69.0792 404.365 69.0055V70ZM399.665 63.9355V62.98H404.365V63.9355H399.665Z" fill="#0F1419"/>
<circle cx="54" cy="30" r="6" fill="#DFDFDF"/>
<circle cx="74" cy="30" r="6" fill="#DFDFDF"/>
<circle cx="94" cy="30" r="6" fill="#DFDFDF"/>
<path d="M48 90H432" stroke="#DFDFDF"/>
<path d="M21 179L21 411" stroke="#3022BB"/>
<circle cx="21" cy="179" r="6" fill="#3022BB"/>
<circle cx="21" cy="237" r="2" fill="#3022BB"/>
</g>
<rect x="0.5" y="0.5" width="479" height="659" rx="39.5" stroke="#DFDFDF"/>
</g>
<defs>
<clipPath id="clip0_219_21384">
<rect width="480" height="660" rx="40" fill="white"/>
</clipPath>
</defs>
</svg>
