<svg width="480" height="260" viewBox="0 0 480 260" fill="none" xmlns="http://www.w3.org/2000/svg">
<mask id="mask0_219_21455" style="mask-type:alpha" maskUnits="userSpaceOnUse" x="0" y="0" width="480" height="260">
<rect width="480" height="260" fill="#D9D9D9"/>
</mask>
<g mask="url(#mask0_219_21455)">
<rect x="10.5" y="0.5" width="459" height="599" rx="39.5" fill="white"/>
<rect x="10.5" y="0.5" width="459" height="599" rx="39.5" stroke="#DFDFDF"/>
<circle cx="64" cy="30" r="6" fill="#DFDFDF"/>
<circle cx="84" cy="30" r="6" fill="#DFDFDF"/>
<circle cx="104" cy="30" r="6" fill="#DFDFDF"/>
<path d="M59.68 82V64.72H62.224L70.732 77.56V64.72H73.276V82H70.732L62.224 69.148V82H59.68ZM81.8933 82.36C80.6053 82.36 79.4733 82.08 78.4973 81.52C77.5293 80.952 76.7733 80.164 76.2293 79.156C75.6933 78.14 75.4253 76.964 75.4253 75.628C75.4253 74.212 75.6893 72.984 76.2173 71.944C76.7533 70.904 77.4973 70.1 78.4493 69.532C79.4013 68.964 80.5093 68.68 81.7733 68.68C83.0933 68.68 84.2173 68.988 85.1453 69.604C86.0733 70.212 86.7653 71.08 87.2213 72.208C87.6853 73.336 87.8693 74.676 87.7733 76.228H85.2653V75.316C85.2493 73.812 84.9613 72.7 84.4013 71.98C83.8493 71.26 83.0053 70.9 81.8693 70.9C80.6133 70.9 79.6693 71.296 79.0373 72.088C78.4053 72.88 78.0893 74.024 78.0893 75.52C78.0893 76.944 78.4053 78.048 79.0373 78.832C79.6693 79.608 80.5813 79.996 81.7733 79.996C82.5573 79.996 83.2333 79.82 83.8013 79.468C84.3773 79.108 84.8253 78.596 85.1453 77.932L87.6053 78.712C87.1013 79.872 86.3373 80.772 85.3133 81.412C84.2893 82.044 83.1493 82.36 81.8933 82.36ZM77.2733 76.228V74.272H86.5253V76.228H77.2733ZM92.2769 82L88.3169 69.028L90.8009 69.04L93.5129 77.932L96.2489 69.04H98.4089L101.145 77.932L103.857 69.04H106.329L102.369 82H100.353L97.3289 72.616L94.2929 82H92.2769ZM111.123 82L116.739 64.72H120.351L125.967 82H123.363L118.191 66.232H118.839L113.727 82H111.123ZM114.039 78.1V75.748H123.063V78.1H114.039ZM132.523 82.348C131.627 82.348 130.875 82.204 130.267 81.916C129.659 81.628 129.163 81.252 128.779 80.788C128.403 80.316 128.115 79.804 127.915 79.252C127.715 78.7 127.579 78.16 127.507 77.632C127.435 77.104 127.399 76.64 127.399 76.24V69.04H129.943V75.412C129.943 75.916 129.983 76.436 130.063 76.972C130.151 77.5 130.311 77.992 130.543 78.448C130.783 78.904 131.115 79.272 131.539 79.552C131.971 79.832 132.531 79.972 133.219 79.972C133.667 79.972 134.091 79.9 134.491 79.756C134.891 79.604 135.239 79.364 135.535 79.036C135.839 78.708 136.075 78.276 136.243 77.74C136.419 77.204 136.507 76.552 136.507 75.784L138.067 76.372C138.067 77.548 137.847 78.588 137.407 79.492C136.967 80.388 136.335 81.088 135.511 81.592C134.687 82.096 133.691 82.348 132.523 82.348ZM136.807 82V78.256H136.507V69.04H139.039V82H136.807ZM149.341 82C148.525 82.16 147.725 82.228 146.941 82.204C146.157 82.18 145.457 82.028 144.841 81.748C144.225 81.468 143.761 81.028 143.449 80.428C143.169 79.892 143.017 79.348 142.993 78.796C142.977 78.236 142.969 77.604 142.969 76.9V65.44H145.489V76.78C145.489 77.3 145.493 77.752 145.501 78.136C145.517 78.52 145.601 78.844 145.753 79.108C146.041 79.604 146.497 79.888 147.121 79.96C147.753 80.024 148.493 79.996 149.341 79.876V82ZM140.485 71.056V69.04H149.341V71.056H140.485ZM156.635 82.36C155.339 82.36 154.215 82.068 153.263 81.484C152.311 80.9 151.575 80.096 151.055 79.072C150.543 78.04 150.287 76.852 150.287 75.508C150.287 74.156 150.551 72.968 151.079 71.944C151.607 70.912 152.347 70.112 153.299 69.544C154.251 68.968 155.363 68.68 156.635 68.68C157.931 68.68 159.055 68.972 160.007 69.556C160.96 70.14 161.695 70.944 162.215 71.968C162.735 72.992 162.996 74.172 162.996 75.508C162.996 76.86 162.732 78.052 162.204 79.084C161.683 80.108 160.947 80.912 159.996 81.496C159.043 82.072 157.923 82.36 156.635 82.36ZM156.635 79.996C157.875 79.996 158.799 79.58 159.407 78.748C160.023 77.908 160.332 76.828 160.332 75.508C160.332 74.156 160.02 73.076 159.395 72.268C158.779 71.452 157.859 71.044 156.635 71.044C155.795 71.044 155.103 71.236 154.559 71.62C154.015 71.996 153.611 72.52 153.347 73.192C153.083 73.856 152.951 74.628 152.951 75.508C152.951 76.868 153.263 77.956 153.887 78.772C154.511 79.588 155.427 79.996 156.635 79.996ZM180.681 82L180.693 73.924C180.693 72.988 180.453 72.26 179.973 71.74C179.493 71.212 178.861 70.948 178.077 70.948C177.597 70.948 177.157 71.06 176.757 71.284C176.365 71.5 176.045 71.828 175.797 72.268C175.557 72.7 175.437 73.244 175.437 73.9L174.225 73.288C174.209 72.376 174.401 71.576 174.801 70.888C175.209 70.2 175.761 69.668 176.457 69.292C177.153 68.908 177.933 68.716 178.797 68.716C180.197 68.716 181.281 69.136 182.049 69.976C182.817 70.816 183.201 71.932 183.201 73.324L183.189 82H180.681ZM165.141 82V69.04H167.373V72.784H167.661V82H165.141ZM172.917 82L172.929 73.972C172.929 73.028 172.689 72.288 172.209 71.752C171.737 71.216 171.101 70.948 170.301 70.948C169.509 70.948 168.869 71.22 168.381 71.764C167.901 72.308 167.661 73.02 167.661 73.9L166.461 73.132C166.461 72.284 166.665 71.528 167.073 70.864C167.481 70.2 168.033 69.676 168.729 69.292C169.425 68.908 170.213 68.716 171.093 68.716C172.013 68.716 172.797 68.912 173.445 69.304C174.093 69.688 174.585 70.228 174.921 70.924C175.265 71.62 175.437 72.428 175.437 73.348L175.425 82H172.917ZM189.497 82.36C188.537 82.36 187.733 82.184 187.085 81.832C186.437 81.472 185.945 81 185.609 80.416C185.281 79.824 185.117 79.176 185.117 78.472C185.117 77.816 185.233 77.24 185.465 76.744C185.697 76.248 186.041 75.828 186.497 75.484C186.953 75.132 187.513 74.848 188.177 74.632C188.753 74.464 189.405 74.316 190.133 74.188C190.861 74.06 191.625 73.94 192.425 73.828C193.233 73.716 194.033 73.604 194.825 73.492L193.913 73.996C193.929 72.98 193.713 72.228 193.265 71.74C192.825 71.244 192.065 70.996 190.985 70.996C190.305 70.996 189.681 71.156 189.113 71.476C188.545 71.788 188.149 72.308 187.925 73.036L185.585 72.316C185.905 71.204 186.513 70.32 187.409 69.664C188.313 69.008 189.513 68.68 191.009 68.68C192.169 68.68 193.177 68.88 194.033 69.28C194.897 69.672 195.529 70.296 195.929 71.152C196.137 71.576 196.265 72.024 196.313 72.496C196.361 72.968 196.385 73.476 196.385 74.02V82H194.165V79.036L194.597 79.42C194.061 80.412 193.377 81.152 192.545 81.64C191.721 82.12 190.705 82.36 189.497 82.36ZM189.941 80.308C190.653 80.308 191.265 80.184 191.777 79.936C192.289 79.68 192.701 79.356 193.013 78.964C193.325 78.572 193.529 78.164 193.625 77.74C193.761 77.356 193.837 76.924 193.853 76.444C193.877 75.964 193.889 75.58 193.889 75.292L194.705 75.592C193.913 75.712 193.193 75.82 192.545 75.916C191.897 76.012 191.309 76.108 190.781 76.204C190.261 76.292 189.797 76.4 189.389 76.528C189.045 76.648 188.737 76.792 188.465 76.96C188.201 77.128 187.989 77.332 187.829 77.572C187.677 77.812 187.601 78.104 187.601 78.448C187.601 78.784 187.685 79.096 187.853 79.384C188.021 79.664 188.277 79.888 188.621 80.056C188.965 80.224 189.405 80.308 189.941 80.308ZM206.437 82C205.621 82.16 204.821 82.228 204.037 82.204C203.253 82.18 202.553 82.028 201.937 81.748C201.321 81.468 200.857 81.028 200.545 80.428C200.265 79.892 200.113 79.348 200.089 78.796C200.073 78.236 200.065 77.604 200.065 76.9V65.44H202.585V76.78C202.585 77.3 202.589 77.752 202.597 78.136C202.613 78.52 202.697 78.844 202.849 79.108C203.137 79.604 203.593 79.888 204.217 79.96C204.849 80.024 205.589 79.996 206.437 79.876V82ZM197.581 71.056V69.04H206.437V71.056H197.581ZM208.929 66.916V64.48H211.437V66.916H208.929ZM208.929 82V69.04H211.437V82H208.929ZM220.189 82.36C218.893 82.36 217.769 82.068 216.817 81.484C215.865 80.9 215.129 80.096 214.609 79.072C214.097 78.04 213.841 76.852 213.841 75.508C213.841 74.156 214.105 72.968 214.633 71.944C215.161 70.912 215.901 70.112 216.853 69.544C217.805 68.968 218.917 68.68 220.189 68.68C221.485 68.68 222.609 68.972 223.561 69.556C224.513 70.14 225.249 70.944 225.769 71.968C226.289 72.992 226.549 74.172 226.549 75.508C226.549 76.86 226.285 78.052 225.757 79.084C225.237 80.108 224.501 80.912 223.549 81.496C222.597 82.072 221.477 82.36 220.189 82.36ZM220.189 79.996C221.429 79.996 222.353 79.58 222.961 78.748C223.577 77.908 223.885 76.828 223.885 75.508C223.885 74.156 223.573 73.076 222.949 72.268C222.333 71.452 221.413 71.044 220.189 71.044C219.349 71.044 218.657 71.236 218.113 71.62C217.569 71.996 217.165 72.52 216.901 73.192C216.637 73.856 216.505 74.628 216.505 75.508C216.505 76.868 216.817 77.956 217.441 78.772C218.065 79.588 218.981 79.996 220.189 79.996ZM237.802 82V75.628C237.802 75.124 237.758 74.608 237.67 74.08C237.59 73.544 237.43 73.048 237.19 72.592C236.958 72.136 236.626 71.768 236.194 71.488C235.77 71.208 235.214 71.068 234.526 71.068C234.078 71.068 233.654 71.144 233.254 71.296C232.854 71.44 232.502 71.676 232.198 72.004C231.902 72.332 231.666 72.764 231.49 73.3C231.322 73.836 231.238 74.488 231.238 75.256L229.678 74.668C229.678 73.492 229.898 72.456 230.338 71.56C230.778 70.656 231.41 69.952 232.234 69.448C233.058 68.944 234.054 68.692 235.222 68.692C236.118 68.692 236.87 68.836 237.478 69.124C238.086 69.412 238.578 69.792 238.954 70.264C239.338 70.728 239.63 71.236 239.83 71.788C240.03 72.34 240.166 72.88 240.238 73.408C240.31 73.936 240.346 74.4 240.346 74.8V82H237.802ZM228.694 82V69.04H230.938V72.784H231.238V82H228.694Z" fill="#3022BB"/>
<path d="M58 110H422" stroke="#DFDFDF"/>
<line x1="102" y1="324.111" x2="102" y2="147.111" stroke="#EDEDED" stroke-width="2"/>
<path d="M61.4167 137H63.125V152H61.4167V138.875L58.5833 140.583V138.687L61.4167 137ZM66.7732 150.083H68.6898V152H66.7732V150.083Z" fill="#171768"/>
<path d="M59.1458 210.229C59.125 208.917 59.7083 207.687 60.625 206.854C61.4792 206.062 62.6667 205.687 63.8333 205.687C65.1042 205.687 66.2917 206.146 67.125 207.042C67.9375 207.875 68.4167 209.042 68.4167 210.25C68.4167 211.854 67.7083 212.958 66.3542 214.333L61.6042 219.375H68.375V221H59.0417V219.375L65.3542 212.937C66.2917 211.979 66.7083 211.104 66.7083 210.25C66.7083 209.458 66.3958 208.729 65.8542 208.187C65.3125 207.625 64.5833 207.312 63.7708 207.312C63.0208 207.312 62.3125 207.604 61.7917 208.083C61.2292 208.646 60.8542 209.396 60.875 210.229H59.1458ZM70.8943 219.083H72.8109V221H70.8943V219.083Z" fill="#171768"/>
<rect x="134" y="129" width="88" height="13" rx="3" fill="#EDEDED"/>
<rect x="134" y="150.111" width="254" height="13" rx="3" fill="#EDEDED"/>
<circle cx="103" cy="146" r="17" fill="#4343C2"/>
<g clip-path="url(#clip0_219_21455)">
<path d="M99.7827 156.816L102.214 147.591C102.237 147.5 102.167 147.408 102.07 147.408H97.1475C97.0222 147.408 96.9526 147.266 97.0315 147.165L106.951 135.055C107.053 134.931 107.252 135.032 107.211 135.183L104.78 144.408C104.756 144.5 104.826 144.591 104.923 144.591H109.851C109.976 144.591 110.045 144.734 109.967 144.834L100.047 156.945C99.9451 157.068 99.7456 156.967 99.7874 156.816H99.7827Z" fill="white"/>
</g>
<rect x="134" y="198.111" width="124" height="13" rx="3" fill="#EDEDED"/>
<rect x="134" y="219.111" width="254" height="13" rx="3" fill="#EDEDED"/>
<circle cx="103" cy="215" r="17" fill="#4343C2"/>
<g clip-path="url(#clip1_219_21455)">
<path d="M110.956 207.249L104.471 216.054V222.853C104.471 222.938 104.409 223 104.323 223H101.678C101.601 223 101.539 222.938 101.539 222.853V216.063L95.0453 207.249C94.9512 207.16 95.014 207 95.1395 207H110.857C110.987 207 111.05 207.16 110.951 207.249H110.956Z" fill="white"/>
</g>
</g>
<defs>
<clipPath id="clip0_219_21455">
<rect width="13" height="22" fill="white" transform="translate(97 135)"/>
</clipPath>
<clipPath id="clip1_219_21455">
<rect width="16" height="16" fill="white" transform="translate(95 207)"/>
</clipPath>
</defs>
</svg>
