<svg width="480" height="260" viewBox="0 0 480 260" fill="none" xmlns="http://www.w3.org/2000/svg">
<mask id="mask0_219_21598" style="mask-type:alpha" maskUnits="userSpaceOnUse" x="0" y="0" width="480" height="260">
<rect width="480" height="260" fill="#D9D9D9"/>
</mask>
<g mask="url(#mask0_219_21598)">
<rect x="2.5" y="0.5" width="459" height="599" rx="39.5" fill="white"/>
<rect x="2.5" y="0.5" width="459" height="599" rx="39.5" stroke="#DFDFDF"/>
<circle cx="56" cy="30" r="6" fill="#DFDFDF"/>
<circle cx="76" cy="30" r="6" fill="#DFDFDF"/>
<circle cx="96" cy="30" r="6" fill="#DFDFDF"/>
<path d="M51.68 82V64.72H58.664C58.832 64.72 59.04 64.728 59.288 64.744C59.536 64.752 59.772 64.776 59.996 64.816C60.956 64.968 61.756 65.296 62.396 65.8C63.044 66.304 63.528 66.94 63.848 67.708C64.168 68.476 64.328 69.324 64.328 70.252C64.328 71.188 64.168 72.04 63.848 72.808C63.528 73.576 63.044 74.212 62.396 74.716C61.756 75.22 60.956 75.548 59.996 75.7C59.772 75.732 59.532 75.756 59.276 75.772C59.028 75.788 58.824 75.796 58.664 75.796H54.188V82H51.68ZM54.188 73.42H58.568C58.728 73.42 58.904 73.412 59.096 73.396C59.296 73.38 59.484 73.352 59.66 73.312C60.172 73.192 60.584 72.972 60.896 72.652C61.208 72.324 61.432 71.948 61.568 71.524C61.704 71.1 61.772 70.676 61.772 70.252C61.772 69.828 61.704 69.408 61.568 68.992C61.432 68.568 61.208 68.196 60.896 67.876C60.584 67.548 60.172 67.324 59.66 67.204C59.484 67.156 59.296 67.124 59.096 67.108C58.904 67.092 58.728 67.084 58.568 67.084H54.188V73.42ZM71.8308 82.36C70.5428 82.36 69.4108 82.08 68.4348 81.52C67.4668 80.952 66.7108 80.164 66.1668 79.156C65.6308 78.14 65.3628 76.964 65.3628 75.628C65.3628 74.212 65.6268 72.984 66.1548 71.944C66.6908 70.904 67.4348 70.1 68.3868 69.532C69.3388 68.964 70.4468 68.68 71.7108 68.68C73.0308 68.68 74.1548 68.988 75.0828 69.604C76.0108 70.212 76.7028 71.08 77.1588 72.208C77.6228 73.336 77.8068 74.676 77.7108 76.228H75.2028V75.316C75.1868 73.812 74.8988 72.7 74.3388 71.98C73.7868 71.26 72.9428 70.9 71.8068 70.9C70.5508 70.9 69.6068 71.296 68.9748 72.088C68.3428 72.88 68.0268 74.024 68.0268 75.52C68.0268 76.944 68.3428 78.048 68.9748 78.832C69.6068 79.608 70.5188 79.996 71.7108 79.996C72.4948 79.996 73.1708 79.82 73.7388 79.468C74.3148 79.108 74.7628 78.596 75.0828 77.932L77.5428 78.712C77.0388 79.872 76.2748 80.772 75.2508 81.412C74.2268 82.044 73.0868 82.36 71.8308 82.36ZM67.2108 76.228V74.272H76.4628V76.228H67.2108ZM79.9231 82V69.04H82.1551V72.184L81.8431 71.776C82.0031 71.36 82.2111 70.98 82.4671 70.636C82.7231 70.284 83.0191 69.996 83.3551 69.772C83.6831 69.532 84.0471 69.348 84.4471 69.22C84.8551 69.084 85.2711 69.004 85.6951 68.98C86.1191 68.948 86.5271 68.968 86.9191 69.04V71.392C86.4951 71.28 86.0231 71.248 85.5031 71.296C84.9911 71.344 84.5191 71.508 84.0871 71.788C83.6791 72.052 83.3551 72.372 83.1151 72.748C82.8831 73.124 82.7151 73.544 82.6111 74.008C82.5071 74.464 82.4551 74.948 82.4551 75.46V82H79.9231ZM93.2116 82.348C91.6356 82.348 90.3516 82 89.3596 81.304C88.3676 80.608 87.7596 79.628 87.5356 78.364L90.1036 77.968C90.2636 78.64 90.6316 79.172 91.2076 79.564C91.7916 79.948 92.5156 80.14 93.3796 80.14C94.1636 80.14 94.7756 79.98 95.2156 79.66C95.6636 79.34 95.8876 78.9 95.8876 78.34C95.8876 78.012 95.8076 77.748 95.6476 77.548C95.4956 77.34 95.1716 77.144 94.6756 76.96C94.1796 76.776 93.4236 76.548 92.4076 76.276C91.2956 75.988 90.4116 75.68 89.7556 75.352C89.1076 75.016 88.6436 74.628 88.3636 74.188C88.0916 73.74 87.9556 73.2 87.9556 72.568C87.9556 71.784 88.1636 71.1 88.5796 70.516C88.9956 69.932 89.5796 69.48 90.3316 69.16C91.0916 68.84 91.9796 68.68 92.9956 68.68C93.9876 68.68 94.8716 68.836 95.6476 69.148C96.4236 69.46 97.0516 69.904 97.5316 70.48C98.0116 71.048 98.2996 71.716 98.3956 72.484L95.8276 72.952C95.7396 72.328 95.4476 71.836 94.9516 71.476C94.4556 71.116 93.8116 70.92 93.0196 70.888C92.2596 70.856 91.6436 70.984 91.1716 71.272C90.6996 71.552 90.4636 71.94 90.4636 72.436C90.4636 72.724 90.5516 72.968 90.7276 73.168C90.9116 73.368 91.2636 73.56 91.7836 73.744C92.3036 73.928 93.0716 74.148 94.0876 74.404C95.1756 74.684 96.0396 74.996 96.6796 75.34C97.3196 75.676 97.7756 76.08 98.0476 76.552C98.3276 77.016 98.4676 77.58 98.4676 78.244C98.4676 79.524 97.9996 80.528 97.0636 81.256C96.1356 81.984 94.8516 82.348 93.2116 82.348ZM106.271 82.36C104.975 82.36 103.851 82.068 102.899 81.484C101.947 80.9 101.211 80.096 100.691 79.072C100.179 78.04 99.9228 76.852 99.9228 75.508C99.9228 74.156 100.187 72.968 100.715 71.944C101.243 70.912 101.983 70.112 102.935 69.544C103.887 68.968 104.999 68.68 106.271 68.68C107.567 68.68 108.691 68.972 109.643 69.556C110.595 70.14 111.331 70.944 111.851 71.968C112.371 72.992 112.631 74.172 112.631 75.508C112.631 76.86 112.367 78.052 111.839 79.084C111.319 80.108 110.583 80.912 109.631 81.496C108.679 82.072 107.559 82.36 106.271 82.36ZM106.271 79.996C107.511 79.996 108.435 79.58 109.043 78.748C109.659 77.908 109.967 76.828 109.967 75.508C109.967 74.156 109.655 73.076 109.031 72.268C108.415 71.452 107.495 71.044 106.271 71.044C105.431 71.044 104.739 71.236 104.195 71.62C103.651 71.996 103.247 72.52 102.983 73.192C102.719 73.856 102.587 74.628 102.587 75.508C102.587 76.868 102.899 77.956 103.523 78.772C104.147 79.588 105.063 79.996 106.271 79.996ZM123.884 82V75.628C123.884 75.124 123.84 74.608 123.752 74.08C123.672 73.544 123.512 73.048 123.272 72.592C123.04 72.136 122.708 71.768 122.276 71.488C121.852 71.208 121.296 71.068 120.608 71.068C120.16 71.068 119.736 71.144 119.336 71.296C118.936 71.44 118.584 71.676 118.28 72.004C117.984 72.332 117.748 72.764 117.572 73.3C117.404 73.836 117.32 74.488 117.32 75.256L115.76 74.668C115.76 73.492 115.98 72.456 116.42 71.56C116.86 70.656 117.492 69.952 118.316 69.448C119.14 68.944 120.136 68.692 121.304 68.692C122.2 68.692 122.952 68.836 123.56 69.124C124.168 69.412 124.66 69.792 125.036 70.264C125.42 70.728 125.712 71.236 125.912 71.788C126.112 72.34 126.248 72.88 126.32 73.408C126.392 73.936 126.428 74.4 126.428 74.8V82H123.884ZM114.776 82V69.04H117.02V72.784H117.32V82H114.776ZM132.733 82.36C131.773 82.36 130.969 82.184 130.321 81.832C129.673 81.472 129.181 81 128.845 80.416C128.517 79.824 128.353 79.176 128.353 78.472C128.353 77.816 128.469 77.24 128.701 76.744C128.933 76.248 129.277 75.828 129.733 75.484C130.189 75.132 130.749 74.848 131.413 74.632C131.989 74.464 132.641 74.316 133.369 74.188C134.097 74.06 134.861 73.94 135.661 73.828C136.469 73.716 137.269 73.604 138.061 73.492L137.149 73.996C137.165 72.98 136.949 72.228 136.501 71.74C136.061 71.244 135.301 70.996 134.221 70.996C133.541 70.996 132.917 71.156 132.349 71.476C131.781 71.788 131.385 72.308 131.161 73.036L128.821 72.316C129.141 71.204 129.749 70.32 130.645 69.664C131.549 69.008 132.749 68.68 134.245 68.68C135.405 68.68 136.413 68.88 137.269 69.28C138.133 69.672 138.765 70.296 139.165 71.152C139.373 71.576 139.501 72.024 139.549 72.496C139.597 72.968 139.621 73.476 139.621 74.02V82H137.401V79.036L137.833 79.42C137.297 80.412 136.613 81.152 135.781 81.64C134.957 82.12 133.941 82.36 132.733 82.36ZM133.177 80.308C133.889 80.308 134.501 80.184 135.013 79.936C135.525 79.68 135.937 79.356 136.249 78.964C136.561 78.572 136.765 78.164 136.861 77.74C136.997 77.356 137.073 76.924 137.089 76.444C137.113 75.964 137.125 75.58 137.125 75.292L137.941 75.592C137.149 75.712 136.429 75.82 135.781 75.916C135.133 76.012 134.545 76.108 134.017 76.204C133.497 76.292 133.033 76.4 132.625 76.528C132.281 76.648 131.973 76.792 131.701 76.96C131.437 77.128 131.225 77.332 131.065 77.572C130.913 77.812 130.837 78.104 130.837 78.448C130.837 78.784 130.921 79.096 131.089 79.384C131.257 79.664 131.513 79.888 131.857 80.056C132.201 80.224 132.641 80.308 133.177 80.308ZM142.497 82V64.36H145.005V82H142.497ZM152.454 82V64.72H159.438C159.606 64.72 159.814 64.728 160.062 64.744C160.31 64.752 160.546 64.776 160.77 64.816C161.73 64.968 162.53 65.296 163.17 65.8C163.818 66.304 164.302 66.94 164.622 67.708C164.942 68.476 165.102 69.324 165.102 70.252C165.102 71.188 164.942 72.04 164.622 72.808C164.302 73.576 163.818 74.212 163.17 74.716C162.53 75.22 161.73 75.548 160.77 75.7C160.546 75.732 160.306 75.756 160.05 75.772C159.802 75.788 159.598 75.796 159.438 75.796H154.962V82H152.454ZM154.962 73.42H159.342C159.502 73.42 159.678 73.412 159.87 73.396C160.07 73.38 160.258 73.352 160.434 73.312C160.946 73.192 161.358 72.972 161.67 72.652C161.982 72.324 162.206 71.948 162.342 71.524C162.478 71.1 162.546 70.676 162.546 70.252C162.546 69.828 162.478 69.408 162.342 68.992C162.206 68.568 161.982 68.196 161.67 67.876C161.358 67.548 160.946 67.324 160.434 67.204C160.258 67.156 160.07 67.124 159.87 67.108C159.678 67.092 159.502 67.084 159.342 67.084H154.962V73.42ZM167.021 82V69.04H169.253V72.184L168.941 71.776C169.101 71.36 169.309 70.98 169.565 70.636C169.821 70.284 170.117 69.996 170.453 69.772C170.781 69.532 171.145 69.348 171.545 69.22C171.953 69.084 172.369 69.004 172.793 68.98C173.217 68.948 173.625 68.968 174.017 69.04V71.392C173.593 71.28 173.121 71.248 172.601 71.296C172.089 71.344 171.617 71.508 171.185 71.788C170.777 72.052 170.453 72.372 170.213 72.748C169.981 73.124 169.813 73.544 169.709 74.008C169.605 74.464 169.553 74.948 169.553 75.46V82H167.021ZM181.216 82.36C179.92 82.36 178.796 82.068 177.844 81.484C176.892 80.9 176.156 80.096 175.636 79.072C175.124 78.04 174.868 76.852 174.868 75.508C174.868 74.156 175.132 72.968 175.66 71.944C176.188 70.912 176.928 70.112 177.88 69.544C178.832 68.968 179.944 68.68 181.216 68.68C182.512 68.68 183.636 68.972 184.588 69.556C185.54 70.14 186.276 70.944 186.796 71.968C187.316 72.992 187.576 74.172 187.576 75.508C187.576 76.86 187.312 78.052 186.784 79.084C186.264 80.108 185.528 80.912 184.576 81.496C183.624 82.072 182.504 82.36 181.216 82.36ZM181.216 79.996C182.456 79.996 183.38 79.58 183.988 78.748C184.604 77.908 184.912 76.828 184.912 75.508C184.912 74.156 184.6 73.076 183.976 72.268C183.36 71.452 182.44 71.044 181.216 71.044C180.376 71.044 179.684 71.236 179.14 71.62C178.596 71.996 178.192 72.52 177.928 73.192C177.664 73.856 177.532 74.628 177.532 75.508C177.532 76.868 177.844 77.956 178.468 78.772C179.092 79.588 180.008 79.996 181.216 79.996ZM190.921 82V68.584C190.921 68.256 190.933 67.908 190.957 67.54C190.981 67.164 191.049 66.796 191.161 66.436C191.281 66.068 191.477 65.732 191.749 65.428C192.077 65.068 192.437 64.812 192.829 64.66C193.221 64.508 193.609 64.42 193.993 64.396C194.385 64.372 194.745 64.36 195.073 64.36H196.705V66.424H195.193C194.601 66.424 194.157 66.572 193.861 66.868C193.573 67.156 193.429 67.568 193.429 68.104V82H190.921ZM188.773 71.056V69.04H196.705V71.056H188.773ZM199.225 66.916V64.48H201.733V66.916H199.225ZM199.225 82V69.04H201.733V82H199.225ZM205.102 82V64.36H207.61V82H205.102ZM216.481 82.36C215.193 82.36 214.061 82.08 213.085 81.52C212.117 80.952 211.361 80.164 210.817 79.156C210.281 78.14 210.013 76.964 210.013 75.628C210.013 74.212 210.277 72.984 210.805 71.944C211.341 70.904 212.085 70.1 213.037 69.532C213.989 68.964 215.097 68.68 216.361 68.68C217.681 68.68 218.805 68.988 219.733 69.604C220.661 70.212 221.353 71.08 221.809 72.208C222.273 73.336 222.457 74.676 222.361 76.228H219.853V75.316C219.837 73.812 219.549 72.7 218.989 71.98C218.437 71.26 217.593 70.9 216.457 70.9C215.201 70.9 214.257 71.296 213.625 72.088C212.993 72.88 212.677 74.024 212.677 75.52C212.677 76.944 212.993 78.048 213.625 78.832C214.257 79.608 215.169 79.996 216.361 79.996C217.145 79.996 217.821 79.82 218.389 79.468C218.965 79.108 219.413 78.596 219.733 77.932L222.193 78.712C221.689 79.872 220.925 80.772 219.901 81.412C218.877 82.044 217.737 82.36 216.481 82.36ZM211.861 76.228V74.272H221.113V76.228H211.861Z" fill="#3022BB"/>
<path d="M50 110H414" stroke="#DFDFDF"/>
<path d="M55.784 153.24C54.6373 153.24 53.6693 152.987 52.88 152.48C52.0907 151.968 51.4933 151.261 51.088 150.36C50.6827 149.459 50.48 148.419 50.48 147.24C50.48 146.061 50.6827 145.021 51.088 144.12C51.4933 143.219 52.0907 142.515 52.88 142.008C53.6693 141.496 54.6373 141.24 55.784 141.24C57.1227 141.24 58.216 141.584 59.064 142.272C59.912 142.955 60.4933 143.872 60.808 145.024L59.608 145.336C59.3627 144.424 58.9227 143.701 58.288 143.168C57.6533 142.635 56.8187 142.368 55.784 142.368C54.8827 142.368 54.1333 142.573 53.536 142.984C52.9387 143.395 52.488 143.968 52.184 144.704C51.8853 145.435 51.7307 146.28 51.72 147.24C51.7147 148.2 51.8613 149.045 52.16 149.776C52.464 150.507 52.9173 151.08 53.52 151.496C54.128 151.907 54.8827 152.112 55.784 152.112C56.8187 152.112 57.6533 151.845 58.288 151.312C58.9227 150.773 59.3627 150.051 59.608 149.144L60.808 149.456C60.4933 150.608 59.912 151.528 59.064 152.216C58.216 152.899 57.1227 153.24 55.784 153.24ZM65.8771 153.216C65.3598 153.216 64.9065 153.136 64.5171 152.976C64.1331 152.816 63.8051 152.6 63.5331 152.328C63.2665 152.056 63.0505 151.747 62.8851 151.4C62.7198 151.048 62.5998 150.677 62.5251 150.288C62.4505 149.893 62.4131 149.501 62.4131 149.112V144.36H63.5971V148.768C63.5971 149.243 63.6425 149.683 63.7331 150.088C63.8238 150.493 63.9678 150.848 64.1651 151.152C64.3678 151.451 64.6265 151.683 64.9411 151.848C65.2611 152.013 65.6478 152.096 66.1011 152.096C66.5171 152.096 66.8825 152.024 67.1971 151.88C67.5171 151.736 67.7838 151.531 67.9971 151.264C68.2158 150.992 68.3811 150.664 68.4931 150.28C68.6051 149.891 68.6611 149.453 68.6611 148.968L69.4931 149.152C69.4931 150.037 69.3385 150.781 69.0291 151.384C68.7198 151.987 68.2931 152.443 67.7491 152.752C67.2051 153.061 66.5811 153.216 65.8771 153.216ZM68.7811 153V150.872H68.6611V144.36H69.8371V153H68.7811ZM75.2971 153.232C74.2838 153.232 73.4491 153.013 72.7931 152.576C72.1425 152.139 71.7425 151.531 71.5931 150.752L72.7931 150.552C72.9211 151.043 73.2118 151.435 73.6651 151.728C74.1238 152.016 74.6891 152.16 75.3611 152.16C76.0171 152.16 76.5345 152.024 76.9131 151.752C77.2918 151.475 77.4811 151.099 77.4811 150.624C77.4811 150.357 77.4198 150.141 77.2971 149.976C77.1798 149.805 76.9371 149.648 76.5691 149.504C76.2011 149.36 75.6518 149.189 74.9211 148.992C74.1371 148.779 73.5238 148.565 73.0811 148.352C72.6385 148.139 72.3238 147.893 72.1371 147.616C71.9505 147.333 71.8571 146.989 71.8571 146.584C71.8571 146.093 71.9958 145.664 72.2731 145.296C72.5505 144.923 72.9345 144.635 73.4251 144.432C73.9158 144.224 74.4865 144.12 75.1371 144.12C75.7878 144.12 76.3691 144.227 76.8811 144.44C77.3985 144.648 77.8145 144.941 78.1291 145.32C78.4438 145.699 78.6305 146.139 78.6891 146.64L77.4891 146.856C77.4091 146.349 77.1558 145.949 76.7291 145.656C76.3078 145.357 75.7718 145.203 75.1211 145.192C74.5078 145.176 74.0091 145.293 73.6251 145.544C73.2411 145.789 73.0491 146.117 73.0491 146.528C73.0491 146.757 73.1185 146.955 73.2571 147.12C73.3958 147.28 73.6465 147.432 74.0091 147.576C74.3771 147.72 74.8998 147.877 75.5771 148.048C76.3718 148.251 76.9958 148.464 77.4491 148.688C77.9025 148.912 78.2251 149.176 78.4171 149.48C78.6091 149.784 78.7051 150.16 78.7051 150.608C78.7051 151.424 78.4011 152.067 77.7931 152.536C77.1905 153 76.3585 153.232 75.2971 153.232ZM85.1834 153C84.698 153.101 84.218 153.141 83.7434 153.12C83.274 153.099 82.8527 152.997 82.4794 152.816C82.1114 152.635 81.8314 152.352 81.6394 151.968C81.4847 151.648 81.3994 151.325 81.3834 151C81.3727 150.669 81.3674 150.293 81.3674 149.872V141.96H82.5354V149.824C82.5354 150.187 82.538 150.491 82.5434 150.736C82.554 150.976 82.61 151.189 82.7114 151.376C82.9034 151.733 83.2074 151.947 83.6234 152.016C84.0447 152.085 84.5647 152.069 85.1834 151.968V153ZM79.5194 145.368V144.36H85.1834V145.368H79.5194ZM90.1811 153.24C89.3225 153.24 88.5891 153.045 87.9811 152.656C87.3731 152.267 86.9065 151.728 86.5811 151.04C86.2558 150.352 86.0931 149.563 86.0931 148.672C86.0931 147.765 86.2585 146.971 86.5891 146.288C86.9198 145.605 87.3891 145.075 87.9971 144.696C88.6105 144.312 89.3385 144.12 90.1811 144.12C91.0451 144.12 91.7811 144.315 92.3891 144.704C93.0025 145.088 93.4691 145.624 93.7891 146.312C94.1145 146.995 94.2771 147.781 94.2771 148.672C94.2771 149.579 94.1145 150.376 93.7891 151.064C93.4638 151.747 92.9945 152.28 92.3811 152.664C91.7678 153.048 91.0345 153.24 90.1811 153.24ZM90.1811 152.112C91.1411 152.112 91.8558 151.795 92.3251 151.16C92.7945 150.52 93.0291 149.691 93.0291 148.672C93.0291 147.627 92.7918 146.795 92.3171 146.176C91.8478 145.557 91.1358 145.248 90.1811 145.248C89.5358 145.248 89.0025 145.395 88.5811 145.688C88.1651 145.976 87.8531 146.379 87.6451 146.896C87.4425 147.408 87.3411 148 87.3411 148.672C87.3411 149.712 87.5811 150.547 88.0611 151.176C88.5411 151.8 89.2478 152.112 90.1811 152.112ZM106.346 153L106.354 147.328C106.354 146.661 106.167 146.139 105.794 145.76C105.426 145.376 104.957 145.184 104.386 145.184C104.061 145.184 103.743 145.259 103.434 145.408C103.125 145.557 102.869 145.797 102.666 146.128C102.469 146.459 102.37 146.891 102.37 147.424L101.674 147.224C101.658 146.605 101.778 146.064 102.034 145.6C102.295 145.136 102.653 144.776 103.106 144.52C103.565 144.259 104.082 144.128 104.658 144.128C105.527 144.128 106.223 144.397 106.746 144.936C107.269 145.469 107.53 146.192 107.53 147.104L107.522 153H106.346ZM96.0339 153V144.36H97.0899V146.488H97.2179V153H96.0339ZM101.202 153L101.21 147.408C101.21 146.72 101.026 146.179 100.658 145.784C100.295 145.384 99.8152 145.184 99.2179 145.184C98.6205 145.184 98.1379 145.389 97.7699 145.8C97.4019 146.205 97.2179 146.747 97.2179 147.424L96.5139 147.04C96.5139 146.485 96.6445 145.989 96.9059 145.552C97.1672 145.109 97.5245 144.763 97.9779 144.512C98.4312 144.256 98.9459 144.128 99.5219 144.128C100.071 144.128 100.559 144.245 100.986 144.48C101.418 144.715 101.757 145.056 102.002 145.504C102.247 145.952 102.37 146.496 102.37 147.136L102.362 153H101.202ZM113.214 153.24C112.371 153.24 111.64 153.053 111.022 152.68C110.408 152.307 109.931 151.781 109.59 151.104C109.248 150.427 109.078 149.632 109.078 148.72C109.078 147.776 109.246 146.96 109.582 146.272C109.918 145.584 110.39 145.053 110.998 144.68C111.611 144.307 112.334 144.12 113.166 144.12C114.019 144.12 114.747 144.317 115.35 144.712C115.952 145.101 116.408 145.661 116.718 146.392C117.027 147.123 117.168 147.995 117.142 149.008H115.942V148.592C115.92 147.472 115.678 146.627 115.214 146.056C114.755 145.485 114.083 145.2 113.198 145.2C112.27 145.2 111.558 145.501 111.062 146.104C110.571 146.707 110.326 147.565 110.326 148.68C110.326 149.768 110.571 150.613 111.062 151.216C111.558 151.813 112.259 152.112 113.166 152.112C113.784 152.112 114.323 151.971 114.782 151.688C115.246 151.4 115.611 150.987 115.878 150.448L116.974 150.872C116.632 151.624 116.128 152.208 115.462 152.624C114.8 153.035 114.051 153.24 113.214 153.24ZM109.91 149.008V148.024H116.51V149.008H109.91ZM118.917 153V144.36H119.973V146.44L119.765 146.168C119.861 145.912 119.986 145.677 120.141 145.464C120.296 145.245 120.464 145.067 120.645 144.928C120.869 144.731 121.13 144.581 121.429 144.48C121.728 144.373 122.029 144.312 122.333 144.296C122.637 144.275 122.914 144.296 123.165 144.36V145.464C122.85 145.384 122.506 145.365 122.133 145.408C121.76 145.451 121.416 145.6 121.101 145.856C120.813 146.08 120.597 146.349 120.453 146.664C120.309 146.973 120.213 147.304 120.165 147.656C120.117 148.003 120.093 148.347 120.093 148.688V153H118.917ZM130.95 153V142.608H126.926V141.48H136.15V142.608H132.126V153H130.95ZM137.539 156.84L139.212 152.304L139.236 153.648L135.451 144.36H136.7L139.804 152.128H139.292L142.156 144.36H143.356L138.716 156.84H137.539ZM148.625 153.24C147.83 153.24 147.158 153.04 146.609 152.64C146.06 152.235 145.644 151.688 145.361 151C145.078 150.307 144.937 149.531 144.937 148.672C144.937 147.797 145.078 147.019 145.361 146.336C145.649 145.648 146.07 145.107 146.625 144.712C147.18 144.317 147.862 144.12 148.673 144.12C149.462 144.12 150.14 144.32 150.705 144.72C151.27 145.12 151.702 145.664 152.001 146.352C152.305 147.04 152.457 147.813 152.457 148.672C152.457 149.536 152.305 150.312 152.001 151C151.697 151.688 151.26 152.235 150.689 152.64C150.118 153.04 149.43 153.24 148.625 153.24ZM144.737 156.84V144.36H145.793V150.864H145.921V156.84H144.737ZM148.505 152.144C149.108 152.144 149.609 151.992 150.009 151.688C150.409 151.384 150.708 150.971 150.905 150.448C151.108 149.92 151.209 149.328 151.209 148.672C151.209 148.021 151.11 147.435 150.913 146.912C150.716 146.389 150.414 145.976 150.009 145.672C149.609 145.368 149.1 145.216 148.481 145.216C147.878 145.216 147.377 145.363 146.977 145.656C146.582 145.949 146.286 146.357 146.089 146.88C145.892 147.397 145.793 147.995 145.793 148.672C145.793 149.339 145.892 149.936 146.089 150.464C146.286 150.987 146.585 151.397 146.985 151.696C147.385 151.995 147.892 152.144 148.505 152.144ZM157.87 153.24C157.027 153.24 156.296 153.053 155.678 152.68C155.064 152.307 154.587 151.781 154.246 151.104C153.904 150.427 153.734 149.632 153.734 148.72C153.734 147.776 153.902 146.96 154.238 146.272C154.574 145.584 155.046 145.053 155.654 144.68C156.267 144.307 156.99 144.12 157.822 144.12C158.675 144.12 159.403 144.317 160.006 144.712C160.608 145.101 161.064 145.661 161.374 146.392C161.683 147.123 161.824 147.995 161.798 149.008H160.598V148.592C160.576 147.472 160.334 146.627 159.87 146.056C159.411 145.485 158.739 145.2 157.854 145.2C156.926 145.2 156.214 145.501 155.718 146.104C155.227 146.707 154.982 147.565 154.982 148.68C154.982 149.768 155.227 150.613 155.718 151.216C156.214 151.813 156.915 152.112 157.822 152.112C158.44 152.112 158.979 151.971 159.438 151.688C159.902 151.4 160.267 150.987 160.534 150.448L161.63 150.872C161.288 151.624 160.784 152.208 160.118 152.624C159.456 153.035 158.707 153.24 157.87 153.24ZM154.566 149.008V148.024H161.166V149.008H154.566Z" fill="black"/>
<rect x="50" y="170" width="155" height="18" rx="4" fill="#EDEDF2"/>
<path d="M50.32 242L54.288 230.48H55.848L59.816 242H58.592L54.824 231.136H55.288L51.544 242H50.32ZM52.088 239.208V238.104H58.04V239.208H52.088ZM64.6126 242.24C63.8073 242.24 63.1193 242.04 62.5486 241.64C61.978 241.235 61.5406 240.688 61.2366 240C60.9326 239.312 60.7806 238.536 60.7806 237.672C60.7806 236.813 60.93 236.04 61.2286 235.352C61.5326 234.664 61.9673 234.12 62.5326 233.72C63.098 233.32 63.7753 233.12 64.5646 233.12C65.3753 233.12 66.058 233.317 66.6126 233.712C67.1673 234.107 67.586 234.648 67.8686 235.336C68.1566 236.019 68.3006 236.797 68.3006 237.672C68.3006 238.531 68.1593 239.307 67.8766 240C67.594 240.688 67.178 241.235 66.6286 241.64C66.0793 242.04 65.4073 242.24 64.6126 242.24ZM64.7326 241.144C65.346 241.144 65.8526 240.995 66.2526 240.696C66.6526 240.397 66.9513 239.987 67.1486 239.464C67.346 238.936 67.4446 238.339 67.4446 237.672C67.4446 236.995 67.346 236.397 67.1486 235.88C66.9513 235.357 66.6526 234.949 66.2526 234.656C65.858 234.363 65.3593 234.216 64.7566 234.216C64.138 234.216 63.626 234.368 63.2206 234.672C62.8153 234.976 62.514 235.389 62.3166 235.912C62.1246 236.435 62.0286 237.021 62.0286 237.672C62.0286 238.328 62.1273 238.92 62.3246 239.448C62.5273 239.971 62.8286 240.384 63.2286 240.688C63.6286 240.992 64.13 241.144 64.7326 241.144ZM67.4446 242V235.496H67.3166V230.48H68.5006V242H67.4446ZM74.097 242.24C73.2917 242.24 72.6037 242.04 72.033 241.64C71.4623 241.235 71.025 240.688 70.721 240C70.417 239.312 70.265 238.536 70.265 237.672C70.265 236.813 70.4143 236.04 70.713 235.352C71.017 234.664 71.4517 234.12 72.017 233.72C72.5823 233.32 73.2597 233.12 74.049 233.12C74.8597 233.12 75.5423 233.317 76.097 233.712C76.6517 234.107 77.0703 234.648 77.353 235.336C77.641 236.019 77.785 236.797 77.785 237.672C77.785 238.531 77.6437 239.307 77.361 240C77.0783 240.688 76.6623 241.235 76.113 241.64C75.5637 242.04 74.8917 242.24 74.097 242.24ZM74.217 241.144C74.8303 241.144 75.337 240.995 75.737 240.696C76.137 240.397 76.4357 239.987 76.633 239.464C76.8303 238.936 76.929 238.339 76.929 237.672C76.929 236.995 76.8303 236.397 76.633 235.88C76.4357 235.357 76.137 234.949 75.737 234.656C75.3423 234.363 74.8437 234.216 74.241 234.216C73.6223 234.216 73.1103 234.368 72.705 234.672C72.2997 234.976 71.9983 235.389 71.801 235.912C71.609 236.435 71.513 237.021 71.513 237.672C71.513 238.328 71.6117 238.92 71.809 239.448C72.0117 239.971 72.313 240.384 72.713 240.688C73.113 240.992 73.6143 241.144 74.217 241.144ZM76.929 242V235.496H76.801V230.48H77.985V242H76.929ZM80.2294 242V233.36H81.2854V235.44L81.0774 235.168C81.1734 234.912 81.2987 234.677 81.4534 234.464C81.608 234.245 81.776 234.067 81.9574 233.928C82.1814 233.731 82.4427 233.581 82.7414 233.48C83.04 233.373 83.3414 233.312 83.6454 233.296C83.9494 233.275 84.2267 233.296 84.4774 233.36V234.464C84.1627 234.384 83.8187 234.365 83.4454 234.408C83.072 234.451 82.728 234.6 82.4134 234.856C82.1254 235.08 81.9094 235.349 81.7654 235.664C81.6214 235.973 81.5254 236.304 81.4774 236.656C81.4294 237.003 81.4054 237.347 81.4054 237.688V242H80.2294ZM89.4948 242.24C88.6521 242.24 87.9214 242.053 87.3028 241.68C86.6894 241.307 86.2121 240.781 85.8708 240.104C85.5294 239.427 85.3588 238.632 85.3588 237.72C85.3588 236.776 85.5268 235.96 85.8628 235.272C86.1988 234.584 86.6708 234.053 87.2788 233.68C87.8921 233.307 88.6148 233.12 89.4468 233.12C90.3001 233.12 91.0281 233.317 91.6308 233.712C92.2334 234.101 92.6894 234.661 92.9988 235.392C93.3081 236.123 93.4494 236.995 93.4228 238.008H92.2228V237.592C92.2014 236.472 91.9588 235.627 91.4948 235.056C91.0361 234.485 90.3641 234.2 89.4788 234.2C88.5508 234.2 87.8388 234.501 87.3428 235.104C86.8521 235.707 86.6068 236.565 86.6068 237.68C86.6068 238.768 86.8521 239.613 87.3428 240.216C87.8388 240.813 88.5401 241.112 89.4468 241.112C90.0654 241.112 90.6041 240.971 91.0628 240.688C91.5268 240.4 91.8921 239.987 92.1588 239.448L93.2548 239.872C92.9134 240.624 92.4094 241.208 91.7428 241.624C91.0814 242.035 90.3321 242.24 89.4948 242.24ZM86.1908 238.008V237.024H92.7908V238.008H86.1908ZM98.4221 242.232C97.4088 242.232 96.5741 242.013 95.9181 241.576C95.2675 241.139 94.8675 240.531 94.7181 239.752L95.9181 239.552C96.0461 240.043 96.3368 240.435 96.7901 240.728C97.2488 241.016 97.8141 241.16 98.4861 241.16C99.1421 241.16 99.6595 241.024 100.038 240.752C100.417 240.475 100.606 240.099 100.606 239.624C100.606 239.357 100.545 239.141 100.422 238.976C100.305 238.805 100.062 238.648 99.6941 238.504C99.3261 238.36 98.7768 238.189 98.0461 237.992C97.2621 237.779 96.6488 237.565 96.2061 237.352C95.7635 237.139 95.4488 236.893 95.2621 236.616C95.0755 236.333 94.9821 235.989 94.9821 235.584C94.9821 235.093 95.1208 234.664 95.3981 234.296C95.6755 233.923 96.0595 233.635 96.5501 233.432C97.0408 233.224 97.6115 233.12 98.2621 233.12C98.9128 233.12 99.4941 233.227 100.006 233.44C100.523 233.648 100.939 233.941 101.254 234.32C101.569 234.699 101.755 235.139 101.814 235.64L100.614 235.856C100.534 235.349 100.281 234.949 99.8541 234.656C99.4328 234.357 98.8968 234.203 98.2461 234.192C97.6328 234.176 97.1341 234.293 96.7501 234.544C96.3661 234.789 96.1741 235.117 96.1741 235.528C96.1741 235.757 96.2435 235.955 96.3821 236.12C96.5208 236.28 96.7715 236.432 97.1341 236.576C97.5021 236.72 98.0248 236.877 98.7021 237.048C99.4968 237.251 100.121 237.464 100.574 237.688C101.027 237.912 101.35 238.176 101.542 238.48C101.734 238.784 101.83 239.16 101.83 239.608C101.83 240.424 101.526 241.067 100.918 241.536C100.315 242 99.4835 242.232 98.4221 242.232ZM106.828 242.232C105.815 242.232 104.98 242.013 104.324 241.576C103.674 241.139 103.274 240.531 103.124 239.752L104.324 239.552C104.452 240.043 104.743 240.435 105.196 240.728C105.655 241.016 106.22 241.16 106.892 241.16C107.548 241.16 108.066 241.024 108.444 240.752C108.823 240.475 109.012 240.099 109.012 239.624C109.012 239.357 108.951 239.141 108.828 238.976C108.711 238.805 108.468 238.648 108.1 238.504C107.732 238.36 107.183 238.189 106.452 237.992C105.668 237.779 105.055 237.565 104.612 237.352C104.17 237.139 103.855 236.893 103.668 236.616C103.482 236.333 103.388 235.989 103.388 235.584C103.388 235.093 103.527 234.664 103.804 234.296C104.082 233.923 104.466 233.635 104.956 233.432C105.447 233.224 106.018 233.12 106.668 233.12C107.319 233.12 107.9 233.227 108.412 233.44C108.93 233.648 109.346 233.941 109.66 234.32C109.975 234.699 110.162 235.139 110.22 235.64L109.02 235.856C108.94 235.349 108.687 234.949 108.26 234.656C107.839 234.357 107.303 234.203 106.652 234.192C106.039 234.176 105.54 234.293 105.156 234.544C104.772 234.789 104.58 235.117 104.58 235.528C104.58 235.757 104.65 235.955 104.788 236.12C104.927 236.28 105.178 236.432 105.54 236.576C105.908 236.72 106.431 236.877 107.108 237.048C107.903 237.251 108.527 237.464 108.98 237.688C109.434 237.912 109.756 238.176 109.948 238.48C110.14 238.784 110.236 239.16 110.236 239.608C110.236 240.424 109.932 241.067 109.324 241.536C108.722 242 107.89 242.232 106.828 242.232Z" fill="black"/>
<rect x="50" y="259" width="209" height="18" rx="4" fill="#EDEDF2"/>
<rect x="293" y="76" width="185" height="253" rx="24" fill="#DCE6FF"/>
<g clip-path="url(#clip0_219_21598)">
<path fill-rule="evenodd" clip-rule="evenodd" d="M332 153.5C332 123.953 355.953 100 385.5 100C415.047 100 439 123.953 439 153.5C439 168.671 432.68 182.373 422.539 192.105C412.93 201.327 399.874 207 385.5 207C371.126 207 358.07 201.327 348.461 192.105C338.32 182.373 332 168.671 332 153.5ZM415.774 188.181C413.629 181.764 407.566 177.14 400.43 177.14H370.57C363.434 177.14 357.371 181.764 355.226 188.181C363.321 195.254 373.907 199.535 385.5 199.535C397.093 199.535 407.679 195.254 415.774 188.181ZM385.5 114.93C372.444 114.93 361.86 125.514 361.86 138.57C361.86 151.626 372.444 162.209 385.5 162.209C398.556 162.209 409.14 151.626 409.14 138.57C409.14 125.514 398.556 114.93 385.5 114.93Z" fill="#FAFAFA"/>
<path d="M361.86 138.57C361.86 125.514 372.444 114.93 385.5 114.93C398.556 114.93 409.14 125.514 409.14 138.57C409.14 151.626 398.556 162.209 385.5 162.209C372.444 162.209 361.86 151.626 361.86 138.57Z" fill="#3022BB"/>
<path d="M400.43 177.14C407.566 177.14 413.629 181.764 415.774 188.181C407.679 195.254 397.093 199.535 385.5 199.535C373.907 199.535 363.321 195.254 355.226 188.181C357.371 181.764 363.434 177.14 370.57 177.14H400.43Z" fill="#3022BB"/>
</g>
<path d="M348.36 250.29C347.4 250.29 346.577 250.023 345.89 249.49C345.203 248.957 344.74 248.243 344.5 247.35L345.97 247C346.09 247.527 346.367 247.973 346.8 248.34C347.24 248.7 347.757 248.88 348.35 248.88C348.723 248.88 349.1 248.79 349.48 248.61C349.867 248.43 350.17 248.133 350.39 247.72C350.537 247.433 350.62 247.123 350.64 246.79C350.667 246.45 350.68 246.043 350.68 245.57V235.6H352.16V245.57C352.16 245.97 352.157 246.333 352.15 246.66C352.143 246.98 352.107 247.29 352.04 247.59C351.98 247.883 351.863 248.18 351.69 248.48C351.343 249.087 350.877 249.54 350.29 249.84C349.71 250.14 349.067 250.29 348.36 250.29ZM357.867 250.3C357.054 250.3 356.371 250.153 355.817 249.86C355.271 249.567 354.861 249.177 354.587 248.69C354.314 248.203 354.177 247.673 354.177 247.1C354.177 246.513 354.294 246.013 354.527 245.6C354.767 245.18 355.091 244.837 355.497 244.57C355.911 244.303 356.387 244.1 356.927 243.96C357.474 243.827 358.077 243.71 358.737 243.61C359.404 243.503 360.054 243.413 360.687 243.34C361.327 243.26 361.887 243.183 362.367 243.11L361.847 243.43C361.867 242.363 361.661 241.573 361.227 241.06C360.794 240.547 360.041 240.29 358.967 240.29C358.227 240.29 357.601 240.457 357.087 240.79C356.581 241.123 356.224 241.65 356.017 242.37L354.587 241.95C354.834 240.983 355.331 240.233 356.077 239.7C356.824 239.167 357.794 238.9 358.987 238.9C359.974 238.9 360.811 239.087 361.497 239.46C362.191 239.827 362.681 240.36 362.967 241.06C363.101 241.373 363.187 241.723 363.227 242.11C363.267 242.497 363.287 242.89 363.287 243.29V250H361.977V247.29L362.357 247.45C361.991 248.377 361.421 249.083 360.647 249.57C359.874 250.057 358.947 250.3 357.867 250.3ZM358.037 249.03C358.724 249.03 359.324 248.907 359.837 248.66C360.351 248.413 360.764 248.077 361.077 247.65C361.391 247.217 361.594 246.73 361.687 246.19C361.767 245.843 361.811 245.463 361.817 245.05C361.824 244.63 361.827 244.317 361.827 244.11L362.387 244.4C361.887 244.467 361.344 244.533 360.757 244.6C360.177 244.667 359.604 244.743 359.037 244.83C358.477 244.917 357.971 245.02 357.517 245.14C357.211 245.227 356.914 245.35 356.627 245.51C356.341 245.663 356.104 245.87 355.917 246.13C355.737 246.39 355.647 246.713 355.647 247.1C355.647 247.413 355.724 247.717 355.877 248.01C356.037 248.303 356.291 248.547 356.637 248.74C356.991 248.933 357.457 249.03 358.037 249.03ZM373.291 250V244.49C373.291 243.89 373.234 243.34 373.121 242.84C373.007 242.333 372.824 241.893 372.571 241.52C372.324 241.14 372.001 240.847 371.601 240.64C371.207 240.433 370.727 240.33 370.161 240.33C369.641 240.33 369.181 240.42 368.781 240.6C368.387 240.78 368.054 241.04 367.781 241.38C367.514 241.713 367.311 242.12 367.171 242.6C367.031 243.08 366.961 243.627 366.961 244.24L365.921 244.01C365.921 242.903 366.114 241.973 366.501 241.22C366.887 240.467 367.421 239.897 368.101 239.51C368.781 239.123 369.561 238.93 370.441 238.93C371.087 238.93 371.651 239.03 372.131 239.23C372.617 239.43 373.027 239.7 373.361 240.04C373.701 240.38 373.974 240.77 374.181 241.21C374.387 241.643 374.537 242.107 374.631 242.6C374.724 243.087 374.771 243.573 374.771 244.06V250H373.291ZM365.481 250V239.2H366.811V241.86H366.961V250H365.481ZM381.477 250.3C380.424 250.3 379.51 250.067 378.737 249.6C377.97 249.133 377.374 248.477 376.947 247.63C376.52 246.783 376.307 245.79 376.307 244.65C376.307 243.47 376.517 242.45 376.937 241.59C377.357 240.73 377.947 240.067 378.707 239.6C379.474 239.133 380.377 238.9 381.417 238.9C382.484 238.9 383.394 239.147 384.147 239.64C384.9 240.127 385.47 240.827 385.857 241.74C386.244 242.653 386.42 243.743 386.387 245.01H384.887V244.49C384.86 243.09 384.557 242.033 383.977 241.32C383.404 240.607 382.564 240.25 381.457 240.25C380.297 240.25 379.407 240.627 378.787 241.38C378.174 242.133 377.867 243.207 377.867 244.6C377.867 245.96 378.174 247.017 378.787 247.77C379.407 248.517 380.284 248.89 381.417 248.89C382.19 248.89 382.864 248.713 383.437 248.36C384.017 248 384.474 247.483 384.807 246.81L386.177 247.34C385.75 248.28 385.12 249.01 384.287 249.53C383.46 250.043 382.524 250.3 381.477 250.3ZM377.347 245.01V243.78H385.597V245.01H377.347ZM391.41 250V249.69L399.28 237.01H391.61V235.6H401.69V235.94L393.86 248.6H401.62V250H391.41ZM411.495 250V244.49C411.495 243.89 411.439 243.34 411.325 242.84C411.212 242.333 411.029 241.893 410.775 241.52C410.529 241.14 410.205 240.847 409.805 240.64C409.412 240.433 408.932 240.33 408.365 240.33C407.845 240.33 407.385 240.42 406.985 240.6C406.592 240.78 406.259 241.04 405.985 241.38C405.719 241.713 405.515 242.12 405.375 242.6C405.235 243.08 405.165 243.627 405.165 244.24L404.125 244.01C404.125 242.903 404.319 241.973 404.705 241.22C405.092 240.467 405.625 239.897 406.305 239.51C406.985 239.123 407.765 238.93 408.645 238.93C409.292 238.93 409.855 239.03 410.335 239.23C410.822 239.43 411.232 239.7 411.565 240.04C411.905 240.38 412.179 240.77 412.385 241.21C412.592 241.643 412.742 242.107 412.835 242.6C412.929 243.087 412.975 243.573 412.975 244.06V250H411.495ZM403.685 250V235.6H405.015V243.73H405.165V250H403.685ZM419.3 250.27C418.654 250.27 418.087 250.17 417.6 249.97C417.12 249.77 416.71 249.5 416.37 249.16C416.037 248.82 415.767 248.433 415.56 248C415.354 247.56 415.204 247.097 415.11 246.61C415.017 246.117 414.97 245.627 414.97 245.14V239.2H416.45V244.71C416.45 245.303 416.507 245.853 416.62 246.36C416.734 246.867 416.914 247.31 417.16 247.69C417.414 248.063 417.737 248.353 418.13 248.56C418.53 248.767 419.014 248.87 419.58 248.87C420.1 248.87 420.557 248.78 420.95 248.6C421.35 248.42 421.684 248.163 421.95 247.83C422.224 247.49 422.43 247.08 422.57 246.6C422.71 246.113 422.78 245.567 422.78 244.96L423.82 245.19C423.82 246.297 423.627 247.227 423.24 247.98C422.854 248.733 422.32 249.303 421.64 249.69C420.96 250.077 420.18 250.27 419.3 250.27ZM422.93 250V247.34H422.78V239.2H424.25V250H422.93Z" fill="black"/>
</g>
<defs>
<clipPath id="clip0_219_21598">
<rect width="107" height="107" fill="white" transform="translate(332 100)"/>
</clipPath>
</defs>
</svg>
