<svg width="480" height="260" viewBox="0 0 480 260" fill="none" xmlns="http://www.w3.org/2000/svg">
<mask id="mask0_219_21994" style="mask-type:alpha" maskUnits="userSpaceOnUse" x="0" y="0" width="480" height="260">
<rect width="480" height="260" fill="#D9D9D9"/>
</mask>
<g mask="url(#mask0_219_21994)">
<rect x="2.5" y="0.5" width="459" height="391" rx="39.5" fill="white"/>
<rect x="2.5" y="0.5" width="459" height="391" rx="39.5" stroke="#DFDFDF"/>
<circle cx="56" cy="30" r="6" fill="#DFDFDF"/>
<circle cx="76" cy="30" r="6" fill="#DFDFDF"/>
<circle cx="96" cy="30" r="6" fill="#DFDFDF"/>
<path d="M51.68 82.333V65.053H58.664C58.832 65.053 59.04 65.061 59.288 65.077C59.536 65.085 59.772 65.109 59.996 65.149C60.956 65.301 61.756 65.629 62.396 66.133C63.044 66.637 63.528 67.273 63.848 68.041C64.168 68.809 64.328 69.657 64.328 70.585C64.328 71.521 64.168 72.373 63.848 73.141C63.528 73.909 63.044 74.545 62.396 75.049C61.756 75.553 60.956 75.881 59.996 76.033C59.772 76.065 59.532 76.089 59.276 76.105C59.028 76.121 58.824 76.129 58.664 76.129H54.188V82.333H51.68ZM54.188 73.753H58.568C58.728 73.753 58.904 73.745 59.096 73.729C59.296 73.713 59.484 73.685 59.66 73.645C60.172 73.525 60.584 73.305 60.896 72.985C61.208 72.657 61.432 72.281 61.568 71.857C61.704 71.433 61.772 71.009 61.772 70.585C61.772 70.161 61.704 69.741 61.568 69.325C61.432 68.901 61.208 68.529 60.896 68.209C60.584 67.881 60.172 67.657 59.66 67.537C59.484 67.489 59.296 67.457 59.096 67.441C58.904 67.425 58.728 67.417 58.568 67.417H54.188V73.753ZM71.1309 82.681C70.2349 82.681 69.4829 82.537 68.8749 82.249C68.2669 81.961 67.7709 81.585 67.3869 81.121C67.0109 80.649 66.7229 80.137 66.5229 79.585C66.3229 79.033 66.1869 78.493 66.1149 77.965C66.0429 77.437 66.0069 76.973 66.0069 76.573V69.373H68.5509V75.745C68.5509 76.249 68.5909 76.769 68.6709 77.305C68.7589 77.833 68.9189 78.325 69.1509 78.781C69.3909 79.237 69.7229 79.605 70.1469 79.885C70.5789 80.165 71.1389 80.305 71.8269 80.305C72.2749 80.305 72.6989 80.233 73.0989 80.089C73.4989 79.937 73.8469 79.697 74.1429 79.369C74.4469 79.041 74.6829 78.609 74.8509 78.073C75.0269 77.537 75.1149 76.885 75.1149 76.117L76.6749 76.705C76.6749 77.881 76.4549 78.921 76.0149 79.825C75.5749 80.721 74.9429 81.421 74.1189 81.925C73.2949 82.429 72.2989 82.681 71.1309 82.681ZM75.4149 82.333V78.589H75.1149V69.373H77.6469V82.333H75.4149ZM80.5325 82.333V69.373H82.7645V72.517L82.4525 72.109C82.6125 71.693 82.8205 71.313 83.0765 70.969C83.3325 70.617 83.6285 70.329 83.9645 70.105C84.2925 69.865 84.6565 69.681 85.0565 69.553C85.4645 69.417 85.8805 69.337 86.3045 69.313C86.7285 69.281 87.1365 69.301 87.5285 69.373V71.725C87.1045 71.613 86.6325 71.581 86.1125 71.629C85.6005 71.677 85.1285 71.841 84.6965 72.121C84.2885 72.385 83.9645 72.705 83.7245 73.081C83.4925 73.457 83.3245 73.877 83.2205 74.341C83.1165 74.797 83.0645 75.281 83.0645 75.793V82.333H80.5325ZM94.6434 82.693C93.3154 82.693 92.1874 82.397 91.2594 81.805C90.3314 81.213 89.6194 80.401 89.1234 79.369C88.6354 78.337 88.3874 77.165 88.3794 75.853C88.3874 74.517 88.6434 73.337 89.1474 72.313C89.6514 71.281 90.3714 70.473 91.3074 69.889C92.2434 69.305 93.3674 69.013 94.6794 69.013C96.0954 69.013 97.3034 69.365 98.3034 70.069C99.3114 70.773 99.9754 71.737 100.295 72.961L97.7994 73.681C97.5514 72.953 97.1434 72.389 96.5754 71.989C96.0154 71.581 95.3714 71.377 94.6434 71.377C93.8194 71.377 93.1434 71.573 92.6154 71.965C92.0874 72.349 91.6954 72.877 91.4394 73.549C91.1834 74.221 91.0514 74.989 91.0434 75.853C91.0514 77.189 91.3554 78.269 91.9554 79.093C92.5634 79.917 93.4594 80.329 94.6434 80.329C95.4514 80.329 96.1034 80.145 96.5994 79.777C97.1034 79.401 97.4874 78.865 97.7514 78.169L100.295 78.769C99.8714 80.033 99.1714 81.005 98.1954 81.685C97.2194 82.357 96.0354 82.693 94.6434 82.693ZM111.356 82.333V75.961C111.356 75.457 111.312 74.941 111.224 74.413C111.144 73.877 110.984 73.381 110.744 72.925C110.512 72.469 110.18 72.101 109.748 71.821C109.324 71.541 108.768 71.401 108.08 71.401C107.632 71.401 107.208 71.477 106.808 71.629C106.408 71.773 106.056 72.009 105.752 72.337C105.456 72.665 105.22 73.097 105.044 73.633C104.876 74.169 104.792 74.821 104.792 75.589L103.232 75.001C103.232 73.825 103.452 72.789 103.892 71.893C104.332 70.989 104.964 70.285 105.788 69.781C106.612 69.277 107.608 69.025 108.776 69.025C109.672 69.025 110.424 69.169 111.032 69.457C111.64 69.745 112.132 70.125 112.508 70.597C112.892 71.061 113.184 71.569 113.384 72.121C113.584 72.673 113.72 73.213 113.792 73.741C113.864 74.269 113.9 74.733 113.9 75.133V82.333H111.356ZM102.248 82.333V65.053H104.492V74.377H104.792V82.333H102.248ZM120.206 82.693C119.246 82.693 118.442 82.517 117.794 82.165C117.146 81.805 116.654 81.333 116.318 80.749C115.99 80.157 115.826 79.509 115.826 78.805C115.826 78.149 115.942 77.573 116.174 77.077C116.406 76.581 116.75 76.161 117.206 75.817C117.662 75.465 118.222 75.181 118.886 74.965C119.462 74.797 120.114 74.649 120.842 74.521C121.57 74.393 122.334 74.273 123.134 74.161C123.942 74.049 124.742 73.937 125.534 73.825L124.622 74.329C124.638 73.313 124.422 72.561 123.974 72.073C123.534 71.577 122.774 71.329 121.694 71.329C121.014 71.329 120.39 71.489 119.822 71.809C119.254 72.121 118.858 72.641 118.634 73.369L116.294 72.649C116.614 71.537 117.222 70.653 118.118 69.997C119.022 69.341 120.222 69.013 121.718 69.013C122.878 69.013 123.886 69.213 124.742 69.613C125.606 70.005 126.238 70.629 126.638 71.485C126.846 71.909 126.974 72.357 127.022 72.829C127.07 73.301 127.094 73.809 127.094 74.353V82.333H124.874V79.369L125.306 79.753C124.77 80.745 124.086 81.485 123.254 81.973C122.43 82.453 121.414 82.693 120.206 82.693ZM120.65 80.641C121.362 80.641 121.974 80.517 122.486 80.269C122.998 80.013 123.41 79.689 123.722 79.297C124.034 78.905 124.238 78.497 124.334 78.073C124.47 77.689 124.546 77.257 124.562 76.777C124.586 76.297 124.598 75.913 124.598 75.625L125.414 75.925C124.622 76.045 123.902 76.153 123.254 76.249C122.606 76.345 122.018 76.441 121.49 76.537C120.97 76.625 120.506 76.733 120.098 76.861C119.754 76.981 119.446 77.125 119.174 77.293C118.91 77.461 118.698 77.665 118.538 77.905C118.386 78.145 118.31 78.437 118.31 78.781C118.31 79.117 118.394 79.429 118.562 79.717C118.73 79.997 118.986 80.221 119.33 80.389C119.674 80.557 120.114 80.641 120.65 80.641ZM134.686 82.681C133.11 82.681 131.826 82.333 130.834 81.637C129.842 80.941 129.234 79.961 129.01 78.697L131.578 78.301C131.738 78.973 132.106 79.505 132.682 79.897C133.266 80.281 133.99 80.473 134.854 80.473C135.638 80.473 136.25 80.313 136.69 79.993C137.138 79.673 137.362 79.233 137.362 78.673C137.362 78.345 137.282 78.081 137.122 77.881C136.97 77.673 136.646 77.477 136.15 77.293C135.654 77.109 134.898 76.881 133.882 76.609C132.77 76.321 131.886 76.013 131.23 75.685C130.582 75.349 130.118 74.961 129.838 74.521C129.566 74.073 129.43 73.533 129.43 72.901C129.43 72.117 129.638 71.433 130.054 70.849C130.47 70.265 131.054 69.813 131.806 69.493C132.566 69.173 133.454 69.013 134.47 69.013C135.462 69.013 136.346 69.169 137.122 69.481C137.898 69.793 138.526 70.237 139.006 70.813C139.486 71.381 139.774 72.049 139.87 72.817L137.302 73.285C137.214 72.661 136.922 72.169 136.426 71.809C135.93 71.449 135.286 71.253 134.494 71.221C133.734 71.189 133.118 71.317 132.646 71.605C132.174 71.885 131.938 72.273 131.938 72.769C131.938 73.057 132.026 73.301 132.202 73.501C132.386 73.701 132.738 73.893 133.258 74.077C133.778 74.261 134.546 74.481 135.562 74.737C136.65 75.017 137.514 75.329 138.154 75.673C138.794 76.009 139.25 76.413 139.522 76.885C139.802 77.349 139.942 77.913 139.942 78.577C139.942 79.857 139.474 80.861 138.538 81.589C137.61 82.317 136.326 82.681 134.686 82.681ZM147.865 82.693C146.577 82.693 145.445 82.413 144.469 81.853C143.501 81.285 142.745 80.497 142.201 79.489C141.665 78.473 141.397 77.297 141.397 75.961C141.397 74.545 141.661 73.317 142.189 72.277C142.725 71.237 143.469 70.433 144.421 69.865C145.373 69.297 146.481 69.013 147.745 69.013C149.065 69.013 150.189 69.321 151.117 69.937C152.045 70.545 152.737 71.413 153.193 72.541C153.657 73.669 153.841 75.009 153.745 76.561H151.237V75.649C151.221 74.145 150.933 73.033 150.373 72.313C149.821 71.593 148.977 71.233 147.841 71.233C146.585 71.233 145.641 71.629 145.009 72.421C144.377 73.213 144.061 74.357 144.061 75.853C144.061 77.277 144.377 78.381 145.009 79.165C145.641 79.941 146.553 80.329 147.745 80.329C148.529 80.329 149.205 80.153 149.773 79.801C150.349 79.441 150.797 78.929 151.117 78.265L153.577 79.045C153.073 80.205 152.309 81.105 151.285 81.745C150.261 82.377 149.121 82.693 147.865 82.693ZM143.245 76.561V74.605H152.497V76.561H143.245ZM160.282 82.333V65.053H165.694C165.854 65.053 166.15 65.057 166.582 65.065C167.022 65.073 167.442 65.105 167.842 65.161C169.194 65.329 170.33 65.813 171.25 66.613C172.178 67.413 172.878 68.429 173.35 69.661C173.822 70.885 174.058 72.229 174.058 73.693C174.058 75.165 173.822 76.517 173.35 77.749C172.878 78.973 172.178 79.985 171.25 80.785C170.33 81.577 169.194 82.057 167.842 82.225C167.442 82.281 167.022 82.313 166.582 82.321C166.15 82.329 165.854 82.333 165.694 82.333H160.282ZM162.85 79.945H165.694C165.966 79.945 166.29 79.937 166.666 79.921C167.042 79.905 167.374 79.873 167.662 79.825C168.542 79.657 169.254 79.277 169.798 78.685C170.35 78.085 170.754 77.349 171.01 76.477C171.266 75.605 171.394 74.677 171.394 73.693C171.394 72.677 171.262 71.737 170.998 70.873C170.734 70.001 170.326 69.273 169.774 68.689C169.23 68.097 168.526 67.721 167.662 67.561C167.374 67.505 167.038 67.473 166.654 67.465C166.278 67.449 165.958 67.441 165.694 67.441H162.85V79.945ZM182.12 82.693C180.832 82.693 179.7 82.413 178.724 81.853C177.756 81.285 177 80.497 176.456 79.489C175.92 78.473 175.652 77.297 175.652 75.961C175.652 74.545 175.916 73.317 176.444 72.277C176.98 71.237 177.724 70.433 178.676 69.865C179.628 69.297 180.736 69.013 182 69.013C183.32 69.013 184.444 69.321 185.372 69.937C186.3 70.545 186.992 71.413 187.448 72.541C187.912 73.669 188.096 75.009 188 76.561H185.492V75.649C185.476 74.145 185.188 73.033 184.628 72.313C184.076 71.593 183.232 71.233 182.096 71.233C180.84 71.233 179.896 71.629 179.264 72.421C178.632 73.213 178.316 74.357 178.316 75.853C178.316 77.277 178.632 78.381 179.264 79.165C179.896 79.941 180.808 80.329 182 80.329C182.784 80.329 183.46 80.153 184.028 79.801C184.604 79.441 185.052 78.929 185.372 78.265L187.832 79.045C187.328 80.205 186.564 81.105 185.54 81.745C184.516 82.377 183.376 82.693 182.12 82.693ZM177.5 76.561V74.605H186.752V76.561H177.5ZM197.629 82.333C196.813 82.493 196.013 82.561 195.229 82.537C194.445 82.513 193.745 82.361 193.129 82.081C192.513 81.801 192.049 81.361 191.737 80.761C191.457 80.225 191.305 79.681 191.281 79.129C191.265 78.569 191.257 77.937 191.257 77.233V65.773H193.777V77.113C193.777 77.633 193.781 78.085 193.789 78.469C193.805 78.853 193.889 79.177 194.041 79.441C194.329 79.937 194.785 80.221 195.409 80.293C196.041 80.357 196.781 80.329 197.629 80.209V82.333ZM188.773 71.389V69.373H197.629V71.389H188.773ZM203.541 82.693C202.581 82.693 201.777 82.517 201.129 82.165C200.481 81.805 199.989 81.333 199.653 80.749C199.325 80.157 199.161 79.509 199.161 78.805C199.161 78.149 199.277 77.573 199.509 77.077C199.741 76.581 200.085 76.161 200.541 75.817C200.997 75.465 201.557 75.181 202.221 74.965C202.797 74.797 203.449 74.649 204.177 74.521C204.905 74.393 205.669 74.273 206.469 74.161C207.277 74.049 208.077 73.937 208.869 73.825L207.957 74.329C207.973 73.313 207.757 72.561 207.309 72.073C206.869 71.577 206.109 71.329 205.029 71.329C204.349 71.329 203.725 71.489 203.157 71.809C202.589 72.121 202.193 72.641 201.969 73.369L199.629 72.649C199.949 71.537 200.557 70.653 201.453 69.997C202.357 69.341 203.557 69.013 205.053 69.013C206.213 69.013 207.221 69.213 208.077 69.613C208.941 70.005 209.573 70.629 209.973 71.485C210.181 71.909 210.309 72.357 210.357 72.829C210.405 73.301 210.429 73.809 210.429 74.353V82.333H208.209V79.369L208.641 79.753C208.105 80.745 207.421 81.485 206.589 81.973C205.765 82.453 204.749 82.693 203.541 82.693ZM203.985 80.641C204.697 80.641 205.309 80.517 205.821 80.269C206.333 80.013 206.745 79.689 207.057 79.297C207.369 78.905 207.573 78.497 207.669 78.073C207.805 77.689 207.881 77.257 207.897 76.777C207.921 76.297 207.933 75.913 207.933 75.625L208.749 75.925C207.957 76.045 207.237 76.153 206.589 76.249C205.941 76.345 205.353 76.441 204.825 76.537C204.305 76.625 203.841 76.733 203.433 76.861C203.089 76.981 202.781 77.125 202.509 77.293C202.245 77.461 202.033 77.665 201.873 77.905C201.721 78.145 201.645 78.437 201.645 78.781C201.645 79.117 201.729 79.429 201.897 79.717C202.065 79.997 202.321 80.221 202.665 80.389C203.009 80.557 203.449 80.641 203.985 80.641ZM213.305 67.249V64.813H215.813V67.249H213.305ZM213.305 82.333V69.373H215.813V82.333H213.305ZM219.177 82.333V64.693H221.685V82.333H219.177ZM229.764 82.681C228.188 82.681 226.904 82.333 225.912 81.637C224.92 80.941 224.312 79.961 224.088 78.697L226.656 78.301C226.816 78.973 227.184 79.505 227.76 79.897C228.344 80.281 229.068 80.473 229.932 80.473C230.716 80.473 231.328 80.313 231.768 79.993C232.216 79.673 232.44 79.233 232.44 78.673C232.44 78.345 232.36 78.081 232.2 77.881C232.048 77.673 231.724 77.477 231.228 77.293C230.732 77.109 229.976 76.881 228.96 76.609C227.848 76.321 226.964 76.013 226.308 75.685C225.66 75.349 225.196 74.961 224.916 74.521C224.644 74.073 224.508 73.533 224.508 72.901C224.508 72.117 224.716 71.433 225.132 70.849C225.548 70.265 226.132 69.813 226.884 69.493C227.644 69.173 228.532 69.013 229.548 69.013C230.54 69.013 231.424 69.169 232.2 69.481C232.976 69.793 233.604 70.237 234.084 70.813C234.564 71.381 234.852 72.049 234.948 72.817L232.38 73.285C232.292 72.661 232 72.169 231.504 71.809C231.008 71.449 230.364 71.253 229.572 71.221C228.812 71.189 228.196 71.317 227.724 71.605C227.252 71.885 227.016 72.273 227.016 72.769C227.016 73.057 227.104 73.301 227.28 73.501C227.464 73.701 227.816 73.893 228.336 74.077C228.856 74.261 229.624 74.481 230.64 74.737C231.728 75.017 232.592 75.329 233.232 75.673C233.872 76.009 234.328 76.413 234.6 76.885C234.88 77.349 235.02 77.913 235.02 78.577C235.02 79.857 234.552 80.861 233.616 81.589C232.688 82.317 231.404 82.681 229.764 82.681Z" fill="#3022BB"/>
<path d="M50 110.667H414" stroke="#DDE3EE"/>
<path d="M51.28 150V138.48H52.456V150H51.28ZM59.2384 150C58.753 150.101 58.273 150.141 57.7984 150.12C57.329 150.099 56.9077 149.997 56.5344 149.816C56.1664 149.635 55.8864 149.352 55.6944 148.968C55.5397 148.648 55.4544 148.325 55.4384 148C55.4277 147.669 55.4224 147.293 55.4224 146.872V138.96H56.5904V146.824C56.5904 147.187 56.593 147.491 56.5984 147.736C56.609 147.976 56.665 148.189 56.7664 148.376C56.9584 148.733 57.2624 148.947 57.6784 149.016C58.0997 149.085 58.6197 149.069 59.2384 148.968V150ZM53.5744 142.368V141.36H59.2384V142.368H53.5744ZM63.9641 150.24C63.1215 150.24 62.3908 150.053 61.7721 149.68C61.1588 149.307 60.6815 148.781 60.3401 148.104C59.9988 147.427 59.8281 146.632 59.8281 145.72C59.8281 144.776 59.9961 143.96 60.3321 143.272C60.6681 142.584 61.1401 142.053 61.7481 141.68C62.3615 141.307 63.0841 141.12 63.9161 141.12C64.7695 141.12 65.4975 141.317 66.1001 141.712C66.7028 142.101 67.1588 142.661 67.4681 143.392C67.7775 144.123 67.9188 144.995 67.8921 146.008H66.6921V145.592C66.6708 144.472 66.4281 143.627 65.9641 143.056C65.5055 142.485 64.8335 142.2 63.9481 142.2C63.0201 142.2 62.3081 142.501 61.8121 143.104C61.3215 143.707 61.0761 144.565 61.0761 145.68C61.0761 146.768 61.3215 147.613 61.8121 148.216C62.3081 148.813 63.0095 149.112 63.9161 149.112C64.5348 149.112 65.0735 148.971 65.5321 148.688C65.9961 148.4 66.3615 147.987 66.6281 147.448L67.7241 147.872C67.3828 148.624 66.8788 149.208 66.2121 149.624C65.5508 150.035 64.8015 150.24 63.9641 150.24ZM60.6601 146.008V145.024H67.2601V146.008H60.6601ZM79.4171 150L79.4251 144.328C79.4251 143.661 79.2385 143.139 78.8651 142.76C78.4971 142.376 78.0278 142.184 77.4571 142.184C77.1318 142.184 76.8145 142.259 76.5051 142.408C76.1958 142.557 75.9398 142.797 75.7371 143.128C75.5398 143.459 75.4411 143.891 75.4411 144.424L74.7451 144.224C74.7291 143.605 74.8491 143.064 75.1051 142.6C75.3665 142.136 75.7238 141.776 76.1771 141.52C76.6358 141.259 77.1531 141.128 77.7291 141.128C78.5985 141.128 79.2945 141.397 79.8171 141.936C80.3398 142.469 80.6011 143.192 80.6011 144.104L80.5931 150H79.4171ZM69.1051 150V141.36H70.1611V143.488H70.2891V150H69.1051ZM74.2731 150L74.2811 144.408C74.2811 143.72 74.0971 143.179 73.7291 142.784C73.3665 142.384 72.8865 142.184 72.2891 142.184C71.6918 142.184 71.2091 142.389 70.8411 142.8C70.4731 143.205 70.2891 143.747 70.2891 144.424L69.5851 144.04C69.5851 143.485 69.7158 142.989 69.9771 142.552C70.2385 142.109 70.5958 141.763 71.0491 141.512C71.5025 141.256 72.0171 141.128 72.5931 141.128C73.1425 141.128 73.6305 141.245 74.0571 141.48C74.4891 141.715 74.8278 142.056 75.0731 142.504C75.3185 142.952 75.4411 143.496 75.4411 144.136L75.4331 150H74.2731Z" fill="black"/>
<path d="M107.12 150V138.48H108.2L112.728 148.168L117.232 138.48H118.328V149.992H117.208V141.104L113.104 150H112.344L108.248 141.104V150H107.12ZM123.909 150.24C123.066 150.24 122.336 150.053 121.717 149.68C121.104 149.307 120.626 148.781 120.285 148.104C119.944 147.427 119.773 146.632 119.773 145.72C119.773 144.776 119.941 143.96 120.277 143.272C120.613 142.584 121.085 142.053 121.693 141.68C122.306 141.307 123.029 141.12 123.861 141.12C124.714 141.12 125.442 141.317 126.045 141.712C126.648 142.101 127.104 142.661 127.413 143.392C127.722 144.123 127.864 144.995 127.837 146.008H126.637V145.592C126.616 144.472 126.373 143.627 125.909 143.056C125.45 142.485 124.778 142.2 123.893 142.2C122.965 142.2 122.253 142.501 121.757 143.104C121.266 143.707 121.021 144.565 121.021 145.68C121.021 146.768 121.266 147.613 121.757 148.216C122.253 148.813 122.954 149.112 123.861 149.112C124.48 149.112 125.018 148.971 125.477 148.688C125.941 148.4 126.306 147.987 126.573 147.448L127.669 147.872C127.328 148.624 126.824 149.208 126.157 149.624C125.496 150.035 124.746 150.24 123.909 150.24ZM120.605 146.008V145.024H127.205V146.008H120.605ZM129.293 150V141.36H130.349V143.44L130.141 143.168C130.237 142.912 130.362 142.677 130.517 142.464C130.671 142.245 130.839 142.067 131.021 141.928C131.245 141.731 131.506 141.581 131.805 141.48C132.103 141.373 132.405 141.312 132.709 141.296C133.013 141.275 133.29 141.296 133.541 141.36V142.464C133.226 142.384 132.882 142.365 132.509 142.408C132.135 142.451 131.791 142.6 131.477 142.856C131.189 143.08 130.973 143.349 130.829 143.664C130.685 143.973 130.589 144.304 130.541 144.656C130.493 145.003 130.469 145.347 130.469 145.688V150H129.293ZM138.166 150.24C137.297 150.24 136.561 150.045 135.958 149.656C135.355 149.267 134.897 148.731 134.582 148.048C134.273 147.36 134.113 146.571 134.102 145.68C134.113 144.773 134.278 143.979 134.598 143.296C134.918 142.608 135.379 142.075 135.982 141.696C136.585 141.312 137.315 141.12 138.174 141.12C139.049 141.12 139.809 141.333 140.454 141.76C141.105 142.187 141.55 142.771 141.79 143.512L140.638 143.88C140.435 143.363 140.113 142.963 139.67 142.68C139.233 142.392 138.731 142.248 138.166 142.248C137.531 142.248 137.006 142.395 136.59 142.688C136.174 142.976 135.865 143.379 135.662 143.896C135.459 144.413 135.355 145.008 135.35 145.68C135.361 146.715 135.601 147.547 136.07 148.176C136.539 148.8 137.238 149.112 138.166 149.112C138.753 149.112 139.251 148.979 139.662 148.712C140.078 148.44 140.393 148.045 140.606 147.528L141.79 147.88C141.47 148.648 141.001 149.235 140.382 149.64C139.763 150.04 139.025 150.24 138.166 150.24ZM149.361 150V145.592C149.361 145.112 149.316 144.672 149.225 144.272C149.135 143.867 148.988 143.515 148.785 143.216C148.588 142.912 148.329 142.677 148.009 142.512C147.695 142.347 147.311 142.264 146.857 142.264C146.441 142.264 146.073 142.336 145.753 142.48C145.439 142.624 145.172 142.832 144.953 143.104C144.74 143.371 144.577 143.696 144.465 144.08C144.353 144.464 144.297 144.901 144.297 145.392L143.465 145.208C143.465 144.323 143.62 143.579 143.929 142.976C144.239 142.373 144.665 141.917 145.209 141.608C145.753 141.299 146.377 141.144 147.081 141.144C147.599 141.144 148.049 141.224 148.433 141.384C148.823 141.544 149.151 141.76 149.417 142.032C149.689 142.304 149.908 142.616 150.073 142.968C150.239 143.315 150.359 143.685 150.433 144.08C150.508 144.469 150.545 144.859 150.545 145.248V150H149.361ZM143.113 150V138.48H144.177V144.984H144.297V150H143.113ZM154.773 150.24C154.123 150.24 153.576 150.123 153.133 149.888C152.696 149.653 152.368 149.341 152.149 148.952C151.931 148.563 151.821 148.139 151.821 147.68C151.821 147.211 151.915 146.811 152.101 146.48C152.293 146.144 152.552 145.869 152.877 145.656C153.208 145.443 153.589 145.28 154.021 145.168C154.459 145.061 154.941 144.968 155.469 144.888C156.003 144.803 156.523 144.731 157.029 144.672C157.541 144.608 157.989 144.547 158.373 144.488L157.957 144.744C157.973 143.891 157.808 143.259 157.461 142.848C157.115 142.437 156.512 142.232 155.653 142.232C155.061 142.232 154.56 142.365 154.149 142.632C153.744 142.899 153.459 143.32 153.293 143.896L152.149 143.56C152.347 142.787 152.744 142.187 153.341 141.76C153.939 141.333 154.715 141.12 155.669 141.12C156.459 141.12 157.128 141.269 157.677 141.568C158.232 141.861 158.624 142.288 158.853 142.848C158.96 143.099 159.029 143.379 159.061 143.688C159.093 143.997 159.109 144.312 159.109 144.632V150H158.061V147.832L158.365 147.96C158.072 148.701 157.616 149.267 156.997 149.656C156.379 150.045 155.637 150.24 154.773 150.24ZM154.909 149.224C155.459 149.224 155.939 149.125 156.349 148.928C156.76 148.731 157.091 148.461 157.341 148.12C157.592 147.773 157.755 147.384 157.829 146.952C157.893 146.675 157.928 146.371 157.933 146.04C157.939 145.704 157.941 145.453 157.941 145.288L158.389 145.52C157.989 145.573 157.555 145.627 157.085 145.68C156.621 145.733 156.163 145.795 155.709 145.864C155.261 145.933 154.856 146.016 154.493 146.112C154.248 146.181 154.011 146.28 153.781 146.408C153.552 146.531 153.363 146.696 153.213 146.904C153.069 147.112 152.997 147.371 152.997 147.68C152.997 147.931 153.059 148.173 153.181 148.408C153.309 148.643 153.512 148.837 153.789 148.992C154.072 149.147 154.445 149.224 154.909 149.224ZM167.112 150V145.592C167.112 145.112 167.067 144.672 166.976 144.272C166.885 143.867 166.739 143.515 166.536 143.216C166.339 142.912 166.08 142.677 165.76 142.512C165.445 142.347 165.061 142.264 164.608 142.264C164.192 142.264 163.824 142.336 163.504 142.48C163.189 142.624 162.923 142.832 162.704 143.104C162.491 143.371 162.328 143.696 162.216 144.08C162.104 144.464 162.048 144.901 162.048 145.392L161.216 145.208C161.216 144.323 161.371 143.579 161.68 142.976C161.989 142.373 162.416 141.917 162.96 141.608C163.504 141.299 164.128 141.144 164.832 141.144C165.349 141.144 165.8 141.224 166.184 141.384C166.573 141.544 166.901 141.76 167.168 142.032C167.44 142.304 167.659 142.616 167.824 142.968C167.989 143.315 168.109 143.685 168.184 144.08C168.259 144.469 168.296 144.859 168.296 145.248V150H167.112ZM160.864 150V141.36H161.928V143.488H162.048V150H160.864ZM174.756 150C174.271 150.101 173.791 150.141 173.316 150.12C172.847 150.099 172.425 149.997 172.052 149.816C171.684 149.635 171.404 149.352 171.212 148.968C171.057 148.648 170.972 148.325 170.956 148C170.945 147.669 170.94 147.293 170.94 146.872V138.96H172.108V146.824C172.108 147.187 172.111 147.491 172.116 147.736C172.127 147.976 172.183 148.189 172.284 148.376C172.476 148.733 172.78 148.947 173.196 149.016C173.617 149.085 174.137 149.069 174.756 148.968V150ZM169.092 142.368V141.36H174.756V142.368H169.092Z" fill="black"/>
<path d="M204.184 150V139.608H200.16V138.48H209.384V139.608H205.36V150H204.184ZM211.694 150.24C211.043 150.24 210.497 150.123 210.054 149.888C209.617 149.653 209.289 149.341 209.07 148.952C208.851 148.563 208.742 148.139 208.742 147.68C208.742 147.211 208.835 146.811 209.022 146.48C209.214 146.144 209.473 145.869 209.798 145.656C210.129 145.443 210.51 145.28 210.942 145.168C211.379 145.061 211.862 144.968 212.39 144.888C212.923 144.803 213.443 144.731 213.95 144.672C214.462 144.608 214.91 144.547 215.294 144.488L214.878 144.744C214.894 143.891 214.729 143.259 214.382 142.848C214.035 142.437 213.433 142.232 212.574 142.232C211.982 142.232 211.481 142.365 211.07 142.632C210.665 142.899 210.379 143.32 210.214 143.896L209.07 143.56C209.267 142.787 209.665 142.187 210.262 141.76C210.859 141.333 211.635 141.12 212.59 141.12C213.379 141.12 214.049 141.269 214.598 141.568C215.153 141.861 215.545 142.288 215.774 142.848C215.881 143.099 215.95 143.379 215.982 143.688C216.014 143.997 216.03 144.312 216.03 144.632V150H214.982V147.832L215.286 147.96C214.993 148.701 214.537 149.267 213.918 149.656C213.299 150.045 212.558 150.24 211.694 150.24ZM211.83 149.224C212.379 149.224 212.859 149.125 213.27 148.928C213.681 148.731 214.011 148.461 214.262 148.12C214.513 147.773 214.675 147.384 214.75 146.952C214.814 146.675 214.849 146.371 214.854 146.04C214.859 145.704 214.862 145.453 214.862 145.288L215.31 145.52C214.91 145.573 214.475 145.627 214.006 145.68C213.542 145.733 213.083 145.795 212.63 145.864C212.182 145.933 211.777 146.016 211.414 146.112C211.169 146.181 210.931 146.28 210.702 146.408C210.473 146.531 210.283 146.696 210.134 146.904C209.99 147.112 209.918 147.371 209.918 147.68C209.918 147.931 209.979 148.173 210.102 148.408C210.23 148.643 210.433 148.837 210.71 148.992C210.993 149.147 211.366 149.224 211.83 149.224ZM216.833 150L220.209 145.632L216.905 141.36H218.313L220.897 144.728L223.457 141.36H224.865L221.561 145.632L224.945 150H223.529L220.897 146.536L218.249 150H216.833Z" fill="black"/>
<rect x="50" y="177" width="340" height="45" rx="12" fill="#F2F2F2"/>
<rect x="66" y="195.5" width="103" height="8" rx="4" fill="#E3E3E3"/>
<rect x="341" y="195.5" width="33" height="8" rx="4" fill="#E3E3E3"/>
<rect x="50" y="238" width="340" height="45" rx="12" fill="#F2F2F2"/>
<rect x="66" y="256.5" width="103" height="8" rx="4" fill="#E3E3E3"/>
<rect x="341" y="256.5" width="33" height="8" rx="4" fill="#E3E3E3"/>
<rect x="258" y="75" width="220" height="130" rx="24" fill="#DCE6FF"/>
<path d="M283.12 114V102.48H287.568C287.68 102.48 287.805 102.485 287.944 102.496C288.088 102.501 288.232 102.517 288.376 102.544C288.979 102.635 289.488 102.845 289.904 103.176C290.325 103.501 290.643 103.912 290.856 104.408C291.075 104.904 291.184 105.453 291.184 106.056C291.184 106.653 291.075 107.2 290.856 107.696C290.637 108.192 290.317 108.605 289.896 108.936C289.48 109.261 288.973 109.469 288.376 109.56C288.232 109.581 288.088 109.597 287.944 109.608C287.805 109.619 287.68 109.624 287.568 109.624H284.296V114H283.12ZM284.296 108.504H287.536C287.632 108.504 287.744 108.499 287.872 108.488C288 108.477 288.125 108.459 288.248 108.432C288.643 108.347 288.965 108.184 289.216 107.944C289.472 107.704 289.661 107.419 289.784 107.088C289.912 106.757 289.976 106.413 289.976 106.056C289.976 105.699 289.912 105.355 289.784 105.024C289.661 104.688 289.472 104.4 289.216 104.16C288.965 103.92 288.643 103.757 288.248 103.672C288.125 103.645 288 103.629 287.872 103.624C287.744 103.613 287.632 103.608 287.536 103.608H284.296V108.504ZM294.553 114.24C293.903 114.24 293.356 114.123 292.913 113.888C292.476 113.653 292.148 113.341 291.929 112.952C291.711 112.563 291.601 112.139 291.601 111.68C291.601 111.211 291.695 110.811 291.881 110.48C292.073 110.144 292.332 109.869 292.657 109.656C292.988 109.443 293.369 109.28 293.801 109.168C294.239 109.061 294.721 108.968 295.249 108.888C295.783 108.803 296.303 108.731 296.809 108.672C297.321 108.608 297.769 108.547 298.153 108.488L297.737 108.744C297.753 107.891 297.588 107.259 297.241 106.848C296.895 106.437 296.292 106.232 295.433 106.232C294.841 106.232 294.34 106.365 293.929 106.632C293.524 106.899 293.239 107.32 293.073 107.896L291.929 107.56C292.127 106.787 292.524 106.187 293.121 105.76C293.719 105.333 294.495 105.12 295.449 105.12C296.239 105.12 296.908 105.269 297.457 105.568C298.012 105.861 298.404 106.288 298.633 106.848C298.74 107.099 298.809 107.379 298.841 107.688C298.873 107.997 298.889 108.312 298.889 108.632V114H297.841V111.832L298.145 111.96C297.852 112.701 297.396 113.267 296.777 113.656C296.159 114.045 295.417 114.24 294.553 114.24ZM294.689 113.224C295.239 113.224 295.719 113.125 296.129 112.928C296.54 112.731 296.871 112.461 297.121 112.12C297.372 111.773 297.535 111.384 297.609 110.952C297.673 110.675 297.708 110.371 297.713 110.04C297.719 109.704 297.721 109.453 297.721 109.288L298.169 109.52C297.769 109.573 297.335 109.627 296.865 109.68C296.401 109.733 295.943 109.795 295.489 109.864C295.041 109.933 294.636 110.016 294.273 110.112C294.028 110.181 293.791 110.28 293.561 110.408C293.332 110.531 293.143 110.696 292.993 110.904C292.849 111.112 292.777 111.371 292.777 111.68C292.777 111.931 292.839 112.173 292.961 112.408C293.089 112.643 293.292 112.837 293.569 112.992C293.852 113.147 294.225 113.224 294.689 113.224ZM301.4 117.84L303.072 113.304L303.096 114.648L299.312 105.36H300.56L303.664 113.128H303.152L306.016 105.36H307.216L302.576 117.84H301.4ZM318.589 114L318.597 108.328C318.597 107.661 318.41 107.139 318.037 106.76C317.669 106.376 317.2 106.184 316.629 106.184C316.304 106.184 315.986 106.259 315.677 106.408C315.368 106.557 315.112 106.797 314.909 107.128C314.712 107.459 314.613 107.891 314.613 108.424L313.917 108.224C313.901 107.605 314.021 107.064 314.277 106.6C314.538 106.136 314.896 105.776 315.349 105.52C315.808 105.259 316.325 105.128 316.901 105.128C317.77 105.128 318.466 105.397 318.989 105.936C319.512 106.469 319.773 107.192 319.773 108.104L319.765 114H318.589ZM308.277 114V105.36H309.333V107.488H309.461V114H308.277ZM313.445 114L313.453 108.408C313.453 107.72 313.269 107.179 312.901 106.784C312.538 106.384 312.058 106.184 311.461 106.184C310.864 106.184 310.381 106.389 310.013 106.8C309.645 107.205 309.461 107.747 309.461 108.424L308.757 108.04C308.757 107.485 308.888 106.989 309.149 106.552C309.41 106.109 309.768 105.763 310.221 105.512C310.674 105.256 311.189 105.128 311.765 105.128C312.314 105.128 312.802 105.245 313.229 105.48C313.661 105.715 314 106.056 314.245 106.504C314.49 106.952 314.613 107.496 314.613 108.136L314.605 114H313.445ZM325.137 114.24C324.294 114.24 323.563 114.053 322.945 113.68C322.331 113.307 321.854 112.781 321.513 112.104C321.171 111.427 321.001 110.632 321.001 109.72C321.001 108.776 321.169 107.96 321.505 107.272C321.841 106.584 322.313 106.053 322.921 105.68C323.534 105.307 324.257 105.12 325.089 105.12C325.942 105.12 326.67 105.317 327.273 105.712C327.875 106.101 328.331 106.661 328.641 107.392C328.95 108.123 329.091 108.995 329.065 110.008H327.865V109.592C327.843 108.472 327.601 107.627 327.137 107.056C326.678 106.485 326.006 106.2 325.121 106.2C324.193 106.2 323.481 106.501 322.985 107.104C322.494 107.707 322.249 108.565 322.249 109.68C322.249 110.768 322.494 111.613 322.985 112.216C323.481 112.813 324.182 113.112 325.089 113.112C325.707 113.112 326.246 112.971 326.705 112.688C327.169 112.4 327.534 111.987 327.801 111.448L328.897 111.872C328.555 112.624 328.051 113.208 327.385 113.624C326.723 114.035 325.974 114.24 325.137 114.24ZM321.833 110.008V109.024H328.433V110.008H321.833ZM336.526 114V109.592C336.526 109.112 336.48 108.672 336.39 108.272C336.299 107.867 336.152 107.515 335.95 107.216C335.752 106.912 335.494 106.677 335.174 106.512C334.859 106.347 334.475 106.264 334.022 106.264C333.606 106.264 333.238 106.336 332.918 106.48C332.603 106.624 332.336 106.832 332.118 107.104C331.904 107.371 331.742 107.696 331.63 108.08C331.518 108.464 331.462 108.901 331.462 109.392L330.63 109.208C330.63 108.323 330.784 107.579 331.094 106.976C331.403 106.373 331.83 105.917 332.374 105.608C332.918 105.299 333.542 105.144 334.246 105.144C334.763 105.144 335.214 105.224 335.598 105.384C335.987 105.544 336.315 105.76 336.582 106.032C336.854 106.304 337.072 106.616 337.238 106.968C337.403 107.315 337.523 107.685 337.598 108.08C337.672 108.469 337.71 108.859 337.71 109.248V114H336.526ZM330.278 114V105.36H331.342V107.488H331.462V114H330.278ZM344.17 114C343.684 114.101 343.204 114.141 342.73 114.12C342.26 114.099 341.839 113.997 341.466 113.816C341.098 113.635 340.818 113.352 340.626 112.968C340.471 112.648 340.386 112.325 340.37 112C340.359 111.669 340.354 111.293 340.354 110.872V102.96H341.522V110.824C341.522 111.187 341.524 111.491 341.53 111.736C341.54 111.976 341.596 112.189 341.698 112.376C341.89 112.733 342.194 112.947 342.61 113.016C343.031 113.085 343.551 113.069 344.17 112.968V114ZM338.506 106.368V105.36H344.17V106.368H338.506ZM348.435 114V102.48H349.515L354.043 112.168L358.547 102.48H359.643V113.992H358.523V105.104L354.419 114H353.659L349.563 105.104V114H348.435ZM365.224 114.24C364.381 114.24 363.651 114.053 363.032 113.68C362.419 113.307 361.941 112.781 361.6 112.104C361.259 111.427 361.088 110.632 361.088 109.72C361.088 108.776 361.256 107.96 361.592 107.272C361.928 106.584 362.4 106.053 363.008 105.68C363.621 105.307 364.344 105.12 365.176 105.12C366.029 105.12 366.757 105.317 367.36 105.712C367.963 106.101 368.419 106.661 368.728 107.392C369.037 108.123 369.179 108.995 369.152 110.008H367.952V109.592C367.931 108.472 367.688 107.627 367.224 107.056C366.765 106.485 366.093 106.2 365.208 106.2C364.28 106.2 363.568 106.501 363.072 107.104C362.581 107.707 362.336 108.565 362.336 109.68C362.336 110.768 362.581 111.613 363.072 112.216C363.568 112.813 364.269 113.112 365.176 113.112C365.795 113.112 366.333 112.971 366.792 112.688C367.256 112.4 367.621 111.987 367.888 111.448L368.984 111.872C368.643 112.624 368.139 113.208 367.472 113.624C366.811 114.035 366.061 114.24 365.224 114.24ZM361.92 110.008V109.024H368.52V110.008H361.92ZM375.312 114C374.826 114.101 374.346 114.141 373.872 114.12C373.402 114.099 372.981 113.997 372.608 113.816C372.24 113.635 371.96 113.352 371.768 112.968C371.613 112.648 371.528 112.325 371.512 112C371.501 111.669 371.496 111.293 371.496 110.872V102.96H372.664V110.824C372.664 111.187 372.666 111.491 372.672 111.736C372.682 111.976 372.738 112.189 372.84 112.376C373.032 112.733 373.336 112.947 373.752 113.016C374.173 113.085 374.693 113.069 375.312 112.968V114ZM369.648 106.368V105.36H375.312V106.368H369.648ZM382.934 114V109.592C382.934 109.112 382.888 108.672 382.798 108.272C382.707 107.867 382.56 107.515 382.358 107.216C382.16 106.912 381.902 106.677 381.582 106.512C381.267 106.347 380.883 106.264 380.43 106.264C380.014 106.264 379.646 106.336 379.326 106.48C379.011 106.624 378.744 106.832 378.526 107.104C378.312 107.371 378.15 107.696 378.038 108.08C377.926 108.464 377.87 108.901 377.87 109.392L377.038 109.208C377.038 108.323 377.192 107.579 377.502 106.976C377.811 106.373 378.238 105.917 378.782 105.608C379.326 105.299 379.95 105.144 380.654 105.144C381.171 105.144 381.622 105.224 382.006 105.384C382.395 105.544 382.723 105.76 382.99 106.032C383.262 106.304 383.48 106.616 383.646 106.968C383.811 107.315 383.931 107.685 384.006 108.08C384.08 108.469 384.118 108.859 384.118 109.248V114H382.934ZM376.686 114V102.48H377.75V108.984H377.87V114H376.686ZM389.482 114.24C388.623 114.24 387.89 114.045 387.282 113.656C386.674 113.267 386.207 112.728 385.882 112.04C385.556 111.352 385.394 110.563 385.394 109.672C385.394 108.765 385.559 107.971 385.89 107.288C386.22 106.605 386.69 106.075 387.298 105.696C387.911 105.312 388.639 105.12 389.482 105.12C390.346 105.12 391.082 105.315 391.69 105.704C392.303 106.088 392.77 106.624 393.09 107.312C393.415 107.995 393.578 108.781 393.578 109.672C393.578 110.579 393.415 111.376 393.09 112.064C392.764 112.747 392.295 113.28 391.682 113.664C391.068 114.048 390.335 114.24 389.482 114.24ZM389.482 113.112C390.442 113.112 391.156 112.795 391.626 112.16C392.095 111.52 392.33 110.691 392.33 109.672C392.33 108.627 392.092 107.795 391.618 107.176C391.148 106.557 390.436 106.248 389.482 106.248C388.836 106.248 388.303 106.395 387.882 106.688C387.466 106.976 387.154 107.379 386.946 107.896C386.743 108.408 386.642 109 386.642 109.672C386.642 110.712 386.882 111.547 387.362 112.176C387.842 112.8 388.548 113.112 389.482 113.112ZM398.374 114.24C397.569 114.24 396.881 114.04 396.31 113.64C395.74 113.235 395.302 112.688 394.998 112C394.694 111.312 394.542 110.536 394.542 109.672C394.542 108.813 394.692 108.04 394.99 107.352C395.294 106.664 395.729 106.12 396.294 105.72C396.86 105.32 397.537 105.12 398.326 105.12C399.137 105.12 399.82 105.317 400.374 105.712C400.929 106.107 401.348 106.648 401.63 107.336C401.918 108.019 402.062 108.797 402.062 109.672C402.062 110.531 401.921 111.307 401.638 112C401.356 112.688 400.94 113.235 400.39 113.64C399.841 114.04 399.169 114.24 398.374 114.24ZM398.494 113.144C399.108 113.144 399.614 112.995 400.014 112.696C400.414 112.397 400.713 111.987 400.91 111.464C401.108 110.936 401.206 110.339 401.206 109.672C401.206 108.995 401.108 108.397 400.91 107.88C400.713 107.357 400.414 106.949 400.014 106.656C399.62 106.363 399.121 106.216 398.518 106.216C397.9 106.216 397.388 106.368 396.982 106.672C396.577 106.976 396.276 107.389 396.078 107.912C395.886 108.435 395.79 109.021 395.79 109.672C395.79 110.328 395.889 110.92 396.086 111.448C396.289 111.971 396.59 112.384 396.99 112.688C397.39 112.992 397.892 113.144 398.494 113.144ZM401.206 114V107.496H401.078V102.48H402.262V114H401.206Z" fill="black"/>
<rect x="282" y="141" width="82" height="40" rx="20" fill="white"/>
<rect x="297" y="157" width="52" height="8" rx="4" fill="#DFDFDF"/>
<rect x="372" y="141" width="82" height="40" rx="20" fill="#3022BB"/>
<rect x="387" y="157" width="52" height="8" rx="4" fill="#DCE6FF"/>
</g>
</svg>
