<svg xmlns="http://www.w3.org/2000/svg" width="620" height="620" fill="none"><g clip-path="url(#a)"><path fill="#4343C2" d="M0 0h620v620H0z"/><rect width="460" height="600" x="70" y="347" fill="#fff" rx="40"/><circle cx="124" cy="377" r="6" fill="#DFDFDF"/><circle cx="144" cy="377" r="6" fill="#DFDFDF"/><circle cx="164" cy="377" r="6" fill="#DFDFDF"/><path fill="#4343C2" d="m133.228 429.348-4.824-4.8 1.608-1.608 4.8 4.8-1.584 1.608Zm-6.336.012c-1.728 0-3.2-.376-4.416-1.128-1.216-.76-2.148-1.816-2.796-3.168-.64-1.352-.96-2.92-.96-4.704 0-1.784.32-3.352.96-4.704.648-1.352 1.58-2.404 2.796-3.156 1.216-.76 2.688-1.14 4.416-1.14 1.72 0 3.188.38 4.404 1.14 1.224.752 2.156 1.804 2.796 3.156.64 1.352.96 2.92.96 4.704 0 1.784-.32 3.352-.96 4.704-.64 1.352-1.572 2.408-2.796 3.168-1.216.752-2.684 1.128-4.404 1.128Zm0-2.388c1.224.016 2.24-.252 3.048-.804.816-.56 1.428-1.336 1.836-2.328.408-1 .612-2.16.612-3.48 0-1.32-.204-2.472-.612-3.456-.408-.992-1.02-1.764-1.836-2.316-.808-.552-1.824-.832-3.048-.84-1.224-.016-2.244.252-3.06.804-.808.552-1.416 1.328-1.824 2.328-.408 1-.616 2.16-.624 3.48-.008 1.32.192 2.476.6 3.468.408.984 1.02 1.752 1.836 2.304.824.552 1.848.832 3.072.84Zm14.958 2.376c-.896 0-1.648-.144-2.256-.432a4.265 4.265 0 0 1-1.488-1.128 5.41 5.41 0 0 1-.864-1.536 7.884 7.884 0 0 1-.408-1.62 10.458 10.458 0 0 1-.108-1.392v-7.2h2.544v6.372c0 .504.04 1.024.12 1.56.088.528.248 1.02.48 1.476.24.456.572.824.996 1.104.432.28.992.42 1.68.42.448 0 .872-.072 1.272-.216.4-.152.748-.392 1.044-.72.304-.328.54-.76.708-1.296.176-.536.264-1.188.264-1.956l1.56.588c0 1.176-.22 2.216-.66 3.12a4.974 4.974 0 0 1-1.896 2.1c-.824.504-1.82.756-2.988.756Zm4.284-.348v-3.744h-.3v-9.216h2.532V429h-2.232Zm5.357-15.084v-2.436h2.508v2.436h-2.508Zm0 15.084v-12.96h2.508V429h-2.508Zm11.176.36c-1.328 0-2.456-.296-3.384-.888-.928-.592-1.64-1.404-2.136-2.436-.488-1.032-.736-2.204-.744-3.516.008-1.336.264-2.516.768-3.54.504-1.032 1.224-1.84 2.16-2.424.936-.584 2.06-.876 3.372-.876 1.416 0 2.624.352 3.624 1.056 1.008.704 1.672 1.668 1.992 2.892l-2.496.72c-.248-.728-.656-1.292-1.224-1.692a3.196 3.196 0 0 0-1.932-.612c-.824 0-1.5.196-2.028.588-.528.384-.92.912-1.176 1.584-.256.672-.388 1.44-.396 2.304.008 1.336.312 2.416.912 3.24.608.824 1.504 1.236 2.688 1.236.808 0 1.46-.184 1.956-.552.504-.376.888-.912 1.152-1.608l2.544.6c-.424 1.264-1.124 2.236-2.1 2.916-.976.672-2.16 1.008-3.552 1.008Zm7.604-.36.012-17.28h2.544v10.56l5.088-6.24h3.192l-5.376 6.48 5.928 6.48h-3.408l-5.424-6.24V429h-2.556Zm20.103.36c-.96 0-1.764-.176-2.412-.528-.648-.36-1.14-.832-1.476-1.416a3.944 3.944 0 0 1-.492-1.944c0-.656.116-1.232.348-1.728a3.33 3.33 0 0 1 1.032-1.26c.456-.352 1.016-.636 1.68-.852a18.421 18.421 0 0 1 1.956-.444 66.481 66.481 0 0 1 2.292-.36c.808-.112 1.608-.224 2.4-.336l-.912.504c.016-1.016-.2-1.768-.648-2.256-.44-.496-1.2-.744-2.28-.744-.68 0-1.304.16-1.872.48-.568.312-.964.832-1.188 1.56l-2.34-.72c.32-1.112.928-1.996 1.824-2.652.904-.656 2.104-.984 3.6-.984 1.16 0 2.168.2 3.024.6a3.73 3.73 0 0 1 1.896 1.872c.208.424.336.872.384 1.344.048.472.072.98.072 1.524V429h-2.22v-2.964l.432.384c-.536.992-1.22 1.732-2.052 2.22-.824.48-1.84.72-3.048.72Zm.444-2.052c.712 0 1.324-.124 1.836-.372.512-.256.924-.58 1.236-.972.312-.392.516-.8.612-1.224a4.3 4.3 0 0 0 .228-1.296c.024-.48.036-.864.036-1.152l.816.3c-.792.12-1.512.228-2.16.324a54.94 54.94 0 0 0-1.764.288c-.52.088-.984.196-1.392.324-.344.12-.652.264-.924.432a2.117 2.117 0 0 0-.636.612c-.152.24-.228.532-.228.876 0 .336.084.648.252.936.168.28.424.504.768.672.344.168.784.252 1.32.252Zm14.624 2.052c-1.328 0-2.456-.296-3.384-.888-.928-.592-1.64-1.404-2.136-2.436-.488-1.032-.736-2.204-.744-3.516.008-1.336.264-2.516.768-3.54.504-1.032 1.224-1.84 2.16-2.424.936-.584 2.06-.876 3.372-.876 1.416 0 2.624.352 3.624 1.056 1.008.704 1.672 1.668 1.992 2.892l-2.496.72c-.248-.728-.656-1.292-1.224-1.692a3.196 3.196 0 0 0-1.932-.612c-.824 0-1.5.196-2.028.588-.528.384-.92.912-1.176 1.584-.256.672-.388 1.44-.396 2.304.008 1.336.312 2.416.912 3.24.608.824 1.504 1.236 2.688 1.236.808 0 1.46-.184 1.956-.552.504-.376.888-.912 1.152-1.608l2.544.6c-.424 1.264-1.124 2.236-2.1 2.916-.976.672-2.16 1.008-3.552 1.008Zm15.033-.36c-.816.16-1.616.228-2.4.204-.784-.024-1.484-.176-2.1-.456a2.862 2.862 0 0 1-1.392-1.32 3.86 3.86 0 0 1-.456-1.632 67.035 67.035 0 0 1-.024-1.896v-11.46h2.52v11.34c0 .52.004.972.012 1.356.016.384.1.708.252.972.288.496.744.78 1.368.852.632.064 1.372.036 2.22-.084V429Zm-8.856-10.944v-2.016h8.856v2.016h-8.856Zm11.348-4.14v-2.436h2.508v2.436h-2.508Zm0 15.084v-12.96h2.508V429h-2.508Zm11.26.36c-1.296 0-2.42-.292-3.372-.876a5.904 5.904 0 0 1-2.208-2.412c-.512-1.032-.768-2.22-.768-3.564 0-1.352.264-2.54.792-3.564.528-1.032 1.268-1.832 2.22-2.4.952-.576 2.064-.864 3.336-.864 1.296 0 2.42.292 3.372.876a5.904 5.904 0 0 1 2.208 2.412c.52 1.024.78 2.204.78 3.54 0 1.352-.264 2.544-.792 3.576a5.904 5.904 0 0 1-2.208 2.412c-.952.576-2.072.864-3.36.864Zm0-2.364c1.24 0 2.164-.416 2.772-1.248.616-.84.924-1.92.924-3.24 0-1.352-.312-2.432-.936-3.24-.616-.816-1.536-1.224-2.76-1.224-.84 0-1.532.192-2.076.576-.544.376-.948.9-1.212 1.572-.264.664-.396 1.436-.396 2.316 0 1.36.312 2.448.936 3.264.624.816 1.54 1.224 2.748 1.224ZM251.84 429v-6.372c0-.504-.044-1.02-.132-1.548a4.64 4.64 0 0 0-.48-1.488 2.816 2.816 0 0 0-.996-1.104c-.424-.28-.98-.42-1.668-.42a3.55 3.55 0 0 0-1.272.228c-.4.144-.752.38-1.056.708-.296.328-.532.76-.708 1.296-.168.536-.252 1.188-.252 1.956l-1.56-.588c0-1.176.22-2.212.66-3.108a4.959 4.959 0 0 1 1.896-2.112c.824-.504 1.82-.756 2.988-.756.896 0 1.648.144 2.256.432.608.288 1.1.668 1.476 1.14.384.464.676.972.876 1.524.2.552.336 1.092.408 1.62.072.528.108.992.108 1.392v7.2h-2.544Zm-9.108 0v-12.96h2.244v3.744h.3V429h-2.544Zm22.282.36c-.96 0-1.764-.176-2.412-.528-.648-.36-1.14-.832-1.476-1.416a3.944 3.944 0 0 1-.492-1.944c0-.656.116-1.232.348-1.728a3.33 3.33 0 0 1 1.032-1.26c.456-.352 1.016-.636 1.68-.852a18.421 18.421 0 0 1 1.956-.444 66.481 66.481 0 0 1 2.292-.36c.808-.112 1.608-.224 2.4-.336l-.912.504c.016-1.016-.2-1.768-.648-2.256-.44-.496-1.2-.744-2.28-.744-.68 0-1.304.16-1.872.48-.568.312-.964.832-1.188 1.56l-2.34-.72c.32-1.112.928-1.996 1.824-2.652.904-.656 2.104-.984 3.6-.984 1.16 0 2.168.2 3.024.6a3.73 3.73 0 0 1 1.896 1.872c.208.424.336.872.384 1.344.048.472.072.98.072 1.524V429h-2.22v-2.964l.432.384c-.536.992-1.22 1.732-2.052 2.22-.824.48-1.84.72-3.048.72Zm.444-2.052c.712 0 1.324-.124 1.836-.372.512-.256.924-.58 1.236-.972.312-.392.516-.8.612-1.224a4.3 4.3 0 0 0 .228-1.296c.024-.48.036-.864.036-1.152l.816.3c-.792.12-1.512.228-2.16.324a54.94 54.94 0 0 0-1.764.288c-.52.088-.984.196-1.392.324-.344.12-.652.264-.924.432a2.117 2.117 0 0 0-.636.612c-.152.24-.228.532-.228.876 0 .336.084.648.252.936.168.28.424.504.768.672.344.168.784.252 1.32.252Zm14.42 7.812a6.443 6.443 0 0 1-2.028-.324 5.795 5.795 0 0 1-1.776-.96 5.2 5.2 0 0 1-1.332-1.548l2.316-1.176c.28.552.68.956 1.2 1.212.52.256 1.068.384 1.644.384.712 0 1.32-.128 1.824-.384a2.472 2.472 0 0 0 1.14-1.128c.264-.504.392-1.128.384-1.872V425.7h.3v-9.66h2.22v13.308c0 .344-.012.672-.036.984a7.527 7.527 0 0 1-.132.936c-.184.872-.536 1.592-1.056 2.16-.512.568-1.168.992-1.968 1.272-.792.28-1.692.42-2.7.42Zm-.192-5.76c-1.208 0-2.252-.3-3.132-.9-.872-.6-1.548-1.416-2.028-2.448-.472-1.04-.708-2.208-.708-3.504 0-1.304.24-2.468.72-3.492.48-1.032 1.16-1.844 2.04-2.436.888-.6 1.94-.9 3.156-.9 1.224 0 2.252.3 3.084.9.84.592 1.472 1.404 1.896 2.436.432 1.032.648 2.196.648 3.492 0 1.296-.216 2.46-.648 3.492-.432 1.032-1.068 1.852-1.908 2.46-.84.6-1.88.9-3.12.9Zm.348-2.268c.824 0 1.496-.196 2.016-.588.52-.392.9-.932 1.14-1.62.24-.688.36-1.48.36-2.376 0-.896-.124-1.688-.372-2.376-.24-.688-.616-1.224-1.128-1.608-.504-.384-1.148-.576-1.932-.576-.832 0-1.516.204-2.052.612-.536.408-.936.956-1.2 1.644-.256.688-.384 1.456-.384 2.304 0 .856.128 1.632.384 2.328.264.688.656 1.236 1.176 1.644.528.408 1.192.612 1.992.612Zm14.374 2.268c-1.288 0-2.42-.28-3.396-.84a5.973 5.973 0 0 1-2.268-2.364c-.536-1.016-.804-2.192-.804-3.528 0-1.416.264-2.644.792-3.684.536-1.04 1.28-1.844 2.232-2.412.952-.568 2.06-.852 3.324-.852 1.32 0 2.444.308 3.372.924.928.608 1.62 1.476 2.076 2.604.464 1.128.648 2.468.552 4.02h-2.508v-.912c-.016-1.504-.304-2.616-.864-3.336-.552-.72-1.396-1.08-2.532-1.08-1.256 0-2.2.396-2.832 1.188-.632.792-.948 1.936-.948 3.432 0 1.424.316 2.528.948 3.312.632.776 1.544 1.164 2.736 1.164.784 0 1.46-.176 2.028-.528.576-.36 1.024-.872 1.344-1.536l2.46.78c-.504 1.16-1.268 2.06-2.292 2.7-1.024.632-2.164.948-3.42.948Zm-4.62-6.132v-1.956h9.252v1.956h-9.252ZM311.244 429v-6.372c0-.504-.044-1.02-.132-1.548a4.64 4.64 0 0 0-.48-1.488 2.816 2.816 0 0 0-.996-1.104c-.424-.28-.98-.42-1.668-.42a3.55 3.55 0 0 0-1.272.228c-.4.144-.752.38-1.056.708-.296.328-.532.76-.708 1.296-.168.536-.252 1.188-.252 1.956l-1.56-.588c0-1.176.22-2.212.66-3.108a4.959 4.959 0 0 1 1.896-2.112c.824-.504 1.82-.756 2.988-.756.896 0 1.648.144 2.256.432.608.288 1.1.668 1.476 1.14.384.464.676.972.876 1.524.2.552.336 1.092.408 1.62.072.528.108.992.108 1.392v7.2h-2.544Zm-9.108 0v-12.96h2.244v3.744h.3V429h-2.544Zm21.714 0c-.816.16-1.616.228-2.4.204-.784-.024-1.484-.176-2.1-.456a2.862 2.862 0 0 1-1.392-1.32 3.86 3.86 0 0 1-.456-1.632 67.035 67.035 0 0 1-.024-1.896v-11.46h2.52v11.34c0 .52.004.972.012 1.356.016.384.1.708.252.972.288.496.744.78 1.368.852.632.064 1.372.036 2.22-.084V429Zm-8.856-10.944v-2.016h8.856v2.016h-8.856Z"/><path stroke="#DFDFDF" d="M118 457h364"/><path stroke="#4343C2" d="M124 507v376" opacity=".1"/><path stroke="#4343C2" d="M124 507v140"/><circle cx="124" cy="507" r="6" fill="#4343C2"/><rect width="388" height="247" x="158" y="473" fill="#DCE6FF" rx="24"/><path fill="#000" d="M187.784 512.24c-1.147 0-2.115-.253-2.904-.76-.789-.512-1.387-1.219-1.792-2.12s-.608-1.941-.608-3.12.203-2.219.608-3.12c.405-.901 1.003-1.605 1.792-2.112.789-.512 1.757-.768 2.904-.768 1.339 0 2.432.344 3.28 1.032.848.683 1.429 1.6 1.744 2.752l-1.2.312c-.245-.912-.685-1.635-1.32-2.168-.635-.533-1.469-.8-2.504-.8-.901 0-1.651.205-2.248.616-.597.411-1.048.984-1.352 1.72-.299.731-.453 1.576-.464 2.536-.005.96.141 1.805.44 2.536.304.731.757 1.304 1.36 1.72.608.411 1.363.616 2.264.616 1.035 0 1.869-.267 2.504-.8.635-.539 1.075-1.261 1.32-2.168l1.2.312c-.315 1.152-.896 2.072-1.744 2.76-.848.683-1.941 1.024-3.28 1.024Zm10.077 0c-.859 0-1.592-.195-2.2-.584a3.796 3.796 0 0 1-1.4-1.616c-.325-.688-.488-1.477-.488-2.368 0-.907.165-1.701.496-2.384.331-.683.8-1.213 1.408-1.592.613-.384 1.341-.576 2.184-.576.864 0 1.6.195 2.208.584a3.68 3.68 0 0 1 1.4 1.608c.325.683.488 1.469.488 2.36 0 .907-.163 1.704-.488 2.392a3.737 3.737 0 0 1-1.408 1.6c-.613.384-1.347.576-2.2.576Zm0-1.128c.96 0 1.675-.317 2.144-.952.469-.64.704-1.469.704-2.488 0-1.045-.237-1.877-.712-2.496-.469-.619-1.181-.928-2.136-.928-.645 0-1.179.147-1.6.44-.416.288-.728.691-.936 1.208-.203.512-.304 1.104-.304 1.776 0 1.04.24 1.875.72 2.504.48.624 1.187.936 2.12.936Zm11.781.888v-4.408c0-.48-.045-.92-.136-1.32a3.05 3.05 0 0 0-.44-1.056 2.006 2.006 0 0 0-.776-.704c-.315-.165-.699-.248-1.152-.248-.416 0-.784.072-1.104.216a2.175 2.175 0 0 0-.8.624 2.804 2.804 0 0 0-.488.976 4.688 4.688 0 0 0-.168 1.312l-.832-.184c0-.885.155-1.629.464-2.232.309-.603.736-1.059 1.28-1.368.544-.309 1.168-.464 1.872-.464.517 0 .968.08 1.352.24.389.16.717.376.984.648.272.272.491.584.656.936.165.347.285.717.36 1.112.075.389.112.779.112 1.168V512h-1.184Zm-6.248 0v-8.64h1.064v2.128h.12V512h-1.184Zm10.044 0v-9.28c0-.224.011-.445.032-.664.027-.219.077-.427.152-.624.075-.203.192-.389.352-.56.176-.192.368-.331.576-.416.208-.091.424-.149.648-.176.229-.027.453-.04.672-.04h1.104v.992h-1.024c-.448 0-.784.109-1.008.328-.219.219-.328.563-.328 1.032V512h-1.176Zm-1.496-7.632v-1.008h5.032v1.008h-5.032Zm6.712-2.648v-1.32h1.176v1.32h-1.176Zm0 10.28v-8.64h1.176V512h-1.176Zm3.249 0v-8.64h1.056v2.08l-.208-.272a2.95 2.95 0 0 1 .376-.704 2.41 2.41 0 0 1 .504-.536c.224-.197.485-.347.784-.448.298-.107.6-.168.904-.184.304-.021.581 0 .832.064v1.104a2.846 2.846 0 0 0-1.032-.056 1.964 1.964 0 0 0-1.032.448 2.144 2.144 0 0 0-.648.808c-.144.309-.24.64-.288.992a7.524 7.524 0 0 0-.072 1.032V512h-1.176Zm15.749 0 .008-5.672c0-.667-.187-1.189-.56-1.568-.368-.384-.837-.576-1.408-.576-.325 0-.643.075-.952.224a1.836 1.836 0 0 0-.768.72c-.197.331-.296.763-.296 1.296l-.696-.2c-.016-.619.104-1.16.36-1.624a2.782 2.782 0 0 1 1.072-1.08 3.083 3.083 0 0 1 1.552-.392c.869 0 1.565.269 2.088.808.523.533.784 1.256.784 2.168l-.008 5.896h-1.176Zm-10.312 0v-8.64h1.056v2.128h.128V512h-1.184Zm5.168 0 .008-5.592c0-.688-.184-1.229-.552-1.624-.363-.4-.843-.6-1.44-.6s-1.08.205-1.448.616c-.368.405-.552.947-.552 1.624l-.704-.384c0-.555.131-1.051.392-1.488a2.79 2.79 0 0 1 1.072-1.04 3.084 3.084 0 0 1 1.544-.384c.549 0 1.037.117 1.464.352.432.235.771.576 1.016 1.024.245.448.368.992.368 1.632l-.008 5.864h-1.16Zm14.622.24c-.843 0-1.574-.187-2.192-.56a3.794 3.794 0 0 1-1.432-1.576c-.342-.677-.512-1.472-.512-2.384 0-.944.168-1.76.504-2.448.336-.688.808-1.219 1.416-1.592.613-.373 1.336-.56 2.168-.56.853 0 1.581.197 2.184.592.602.389 1.058.949 1.368 1.68.309.731.45 1.603.424 2.616h-1.2v-.416c-.022-1.12-.264-1.965-.728-2.536-.459-.571-1.131-.856-2.016-.856-.928 0-1.64.301-2.136.904-.491.603-.736 1.461-.736 2.576 0 1.088.245 1.933.736 2.536.496.597 1.197.896 2.104.896.618 0 1.157-.141 1.616-.424.464-.288.829-.701 1.096-1.24l1.096.424c-.342.752-.846 1.336-1.512 1.752-.662.411-1.411.616-2.248.616Zm-3.304-4.232v-.984h6.6v.984h-6.6Zm7.415 3.992 3.376-4.368-3.304-4.272h1.408l2.584 3.368 2.56-3.368h1.408l-3.304 4.272 3.384 4.368h-1.416l-2.632-3.464-2.648 3.464h-1.416Zm12.421.24c-.843 0-1.574-.187-2.192-.56a3.794 3.794 0 0 1-1.432-1.576c-.342-.677-.512-1.472-.512-2.384 0-.944.168-1.76.504-2.448.336-.688.808-1.219 1.416-1.592.613-.373 1.336-.56 2.168-.56.853 0 1.581.197 2.184.592.602.389 1.058.949 1.368 1.68.309.731.45 1.603.424 2.616h-1.2v-.416c-.022-1.12-.264-1.965-.728-2.536-.459-.571-1.131-.856-2.016-.856-.928 0-1.64.301-2.136.904-.491.603-.736 1.461-.736 2.576 0 1.088.245 1.933.736 2.536.496.597 1.197.896 2.104.896.618 0 1.157-.141 1.616-.424.464-.288.829-.701 1.096-1.24l1.096.424c-.342.752-.846 1.336-1.512 1.752-.662.411-1.411.616-2.248.616Zm-3.304-4.232v-.984h6.6v.984h-6.6Zm12.271 4.232c-.869 0-1.605-.195-2.208-.584a3.718 3.718 0 0 1-1.376-1.608c-.309-.688-.469-1.477-.48-2.368.011-.907.176-1.701.496-2.384.32-.688.781-1.221 1.384-1.6.603-.384 1.333-.576 2.192-.576.875 0 1.635.213 2.28.64a3.225 3.225 0 0 1 1.336 1.752l-1.152.368a2.436 2.436 0 0 0-.968-1.2 2.672 2.672 0 0 0-1.504-.432c-.635 0-1.16.147-1.576.44-.416.288-.725.691-.928 1.208-.203.517-.307 1.112-.312 1.784.011 1.035.251 1.867.72 2.496.469.624 1.168.936 2.096.936.587 0 1.085-.133 1.496-.4.416-.272.731-.667.944-1.184l1.184.352c-.32.768-.789 1.355-1.408 1.76-.619.4-1.357.6-2.216.6Zm8.259-.024c-.517 0-.97-.08-1.36-.24a3.01 3.01 0 0 1-.984-.648 3.442 3.442 0 0 1-.648-.928 4.712 4.712 0 0 1-.36-1.112 6.377 6.377 0 0 1-.112-1.176v-4.752h1.184v4.408c0 .475.046.915.136 1.32.091.405.235.76.432 1.064.203.299.462.531.776.696.32.165.707.248 1.16.248.416 0 .782-.072 1.096-.216.32-.144.587-.349.8-.616.219-.272.384-.6.496-.984.112-.389.168-.827.168-1.312l.832.184c0 .885-.154 1.629-.464 2.232-.309.603-.736 1.059-1.28 1.368-.544.309-1.168.464-1.872.464Zm2.904-.216v-2.128h-.12v-6.512h1.176V512h-1.056Zm7.676 0a5.786 5.786 0 0 1-1.44.12 3.2 3.2 0 0 1-1.264-.304 1.823 1.823 0 0 1-.84-.848 2.505 2.505 0 0 1-.256-.968 37.49 37.49 0 0 1-.016-1.128v-7.912h1.168v7.864c0 .363.003.667.008.912.011.24.067.453.168.64.192.357.496.571.912.64.422.069.942.053 1.56-.048V512Zm-5.664-7.632v-1.008h5.664v1.008h-5.664Zm7.207-2.648v-1.32h1.176v1.32h-1.176Zm0 10.28v-8.64h1.176V512h-1.176Zm6.862.24c-.859 0-1.592-.195-2.2-.584a3.796 3.796 0 0 1-1.4-1.616c-.325-.688-.488-1.477-.488-2.368 0-.907.165-1.701.496-2.384.331-.683.8-1.213 1.408-1.592.613-.384 1.341-.576 2.184-.576.864 0 1.6.195 2.208.584a3.68 3.68 0 0 1 1.4 1.608c.325.683.488 1.469.488 2.36 0 .907-.163 1.704-.488 2.392a3.737 3.737 0 0 1-1.408 1.6c-.613.384-1.347.576-2.2.576Zm0-1.128c.96 0 1.675-.317 2.144-.952.469-.64.704-1.469.704-2.488 0-1.045-.237-1.877-.712-2.496-.469-.619-1.181-.928-2.136-.928-.645 0-1.179.147-1.6.44-.416.288-.728.691-.936 1.208-.203.512-.304 1.104-.304 1.776 0 1.04.24 1.875.72 2.504.48.624 1.187.936 2.12.936Zm11.781.888v-4.408c0-.48-.046-.92-.136-1.32a3.069 3.069 0 0 0-.44-1.056 2.014 2.014 0 0 0-.776-.704c-.315-.165-.699-.248-1.152-.248-.416 0-.784.072-1.104.216a2.167 2.167 0 0 0-.8.624 2.787 2.787 0 0 0-.488.976 4.688 4.688 0 0 0-.168 1.312l-.832-.184c0-.885.154-1.629.464-2.232.309-.603.736-1.059 1.28-1.368.544-.309 1.168-.464 1.872-.464.517 0 .968.08 1.352.24.389.16.717.376.984.648.272.272.49.584.656.936.165.347.285.717.36 1.112.074.389.112.779.112 1.168V512h-1.184Zm-6.248 0v-8.64h1.064v2.128h.12V512h-1.184Z"/><rect width="340" height="45" x="182" y="539" fill="#4343C2" rx="12"/><rect width="96" height="8" x="198" y="557.5" fill="#F5F8FF" rx="4"/><circle cx="497" cy="561.5" r="9" fill="#F5F8FF"/><rect width="340" height="45" x="182" y="591" fill="#fff" rx="12"/><rect width="96" height="8" x="198" y="609.5" fill="#DCE6FF" rx="4"/><circle cx="497" cy="613.5" r="9" fill="#DCE6FF"/></g><defs><clipPath id="a"><path fill="#fff" d="M0 0h620v620H0z"/></clipPath></defs></svg>