<svg xmlns="http://www.w3.org/2000/svg" width="620" height="840" fill="none"><g clip-path="url(#a)"><path fill="#fff" d="M0 0h620v840H0z"/><rect width="459" height="599" x="70.5" y="347.5" fill="#fff" rx="39.5"/><rect width="459" height="599" x="70.5" y="347.5" stroke="#DFDFDF" rx="39.5"/><circle cx="124" cy="377" r="6" fill="#DFDFDF"/><circle cx="144" cy="377" r="6" fill="#DFDFDF"/><circle cx="164" cy="377" r="6" fill="#DFDFDF"/><path fill="#3022BB" d="M119.68 429v-17.28h6.984c.168 0 .376.008.624.024.248.008.484.032.708.072.96.152 1.76.48 2.4.984a4.632 4.632 0 0 1 1.452 1.908c.32.768.48 1.616.48 2.544 0 .936-.16 1.788-.48 2.556a4.632 4.632 0 0 1-1.452 1.908c-.64.504-1.44.832-2.4.984a9.13 9.13 0 0 1-.72.072 9.857 9.857 0 0 1-.612.024h-4.476V429h-2.508Zm2.508-8.58h4.38c.16 0 .336-.008.528-.024.2-.016.388-.044.564-.084.512-.12.924-.34 1.236-.66.312-.328.536-.704.672-1.128a4.032 4.032 0 0 0 0-2.532 2.806 2.806 0 0 0-.672-1.116c-.312-.328-.724-.552-1.236-.672a3.072 3.072 0 0 0-.564-.096 6.398 6.398 0 0 0-.528-.024h-4.38v6.336Zm17.643 8.94c-1.288 0-2.42-.28-3.396-.84a5.973 5.973 0 0 1-2.268-2.364c-.536-1.016-.804-2.192-.804-3.528 0-1.416.264-2.644.792-3.684.536-1.04 1.28-1.844 2.232-2.412.952-.568 2.06-.852 3.324-.852 1.32 0 2.444.308 3.372.924.928.608 1.62 1.476 2.076 2.604.464 1.128.648 2.468.552 4.02h-2.508v-.912c-.016-1.504-.304-2.616-.864-3.336-.552-.72-1.396-1.08-2.532-1.08-1.256 0-2.2.396-2.832 1.188-.632.792-.948 1.936-.948 3.432 0 1.424.316 2.528.948 3.312.632.776 1.544 1.164 2.736 1.164.784 0 1.46-.176 2.028-.528.576-.36 1.024-.872 1.344-1.536l2.46.78c-.504 1.16-1.268 2.06-2.292 2.7-1.024.632-2.164.948-3.42.948Zm-4.62-6.132v-1.956h9.252v1.956h-9.252ZM147.923 429v-12.96h2.232v3.144l-.312-.408c.16-.416.368-.796.624-1.14.256-.352.552-.64.888-.864.328-.24.692-.424 1.092-.552a4.785 4.785 0 0 1 1.248-.24 4.766 4.766 0 0 1 1.224.06v2.352a4.065 4.065 0 0 0-1.416-.096 3.098 3.098 0 0 0-1.416.492 3.182 3.182 0 0 0-.972.96c-.232.376-.4.796-.504 1.26-.104.456-.156.94-.156 1.452V429h-2.532Zm13.289.348c-1.576 0-2.86-.348-3.852-1.044-.992-.696-1.6-1.676-1.824-2.94l2.568-.396c.16.672.528 1.204 1.104 1.596.584.384 1.308.576 2.172.576.784 0 1.396-.16 1.836-.48.448-.32.672-.76.672-1.32 0-.328-.08-.592-.24-.792-.152-.208-.476-.404-.972-.588-.496-.184-1.252-.412-2.268-.684-1.112-.288-1.996-.596-2.652-.924-.648-.336-1.112-.724-1.392-1.164-.272-.448-.408-.988-.408-1.62 0-.784.208-1.468.624-2.052.416-.584 1-1.036 1.752-1.356.76-.32 1.648-.48 2.664-.48.992 0 1.876.156 2.652.468.776.312 1.404.756 1.884 1.332.48.568.768 1.236.864 2.004l-2.568.468c-.088-.624-.38-1.116-.876-1.476-.496-.36-1.14-.556-1.932-.588-.76-.032-1.376.096-1.848.384-.472.28-.708.668-.708 1.164 0 .288.088.532.264.732.184.2.536.392 1.056.576.52.184 1.288.404 2.304.66 1.088.28 1.952.592 2.592.936.64.336 1.096.74 1.368 1.212.28.464.42 1.028.42 1.692 0 1.28-.468 2.284-1.404 3.012-.928.728-2.212 1.092-3.852 1.092Zm13.059.012c-1.296 0-2.42-.292-3.372-.876a5.904 5.904 0 0 1-2.208-2.412c-.512-1.032-.768-2.22-.768-3.564 0-1.352.264-2.54.792-3.564.528-1.032 1.268-1.832 2.22-2.4.952-.576 2.064-.864 3.336-.864 1.296 0 2.42.292 3.372.876a5.904 5.904 0 0 1 2.208 2.412c.52 1.024.78 2.204.78 3.54 0 1.352-.264 2.544-.792 3.576a5.904 5.904 0 0 1-2.208 2.412c-.952.576-2.072.864-3.36.864Zm0-2.364c1.24 0 2.164-.416 2.772-1.248.616-.84.924-1.92.924-3.24 0-1.352-.312-2.432-.936-3.24-.616-.816-1.536-1.224-2.76-1.224-.84 0-1.532.192-2.076.576-.544.376-.948.9-1.212 1.572-.264.664-.396 1.436-.396 2.316 0 1.36.312 2.448.936 3.264.624.816 1.54 1.224 2.748 1.224ZM191.884 429v-6.372c0-.504-.044-1.02-.132-1.548a4.64 4.64 0 0 0-.48-1.488 2.816 2.816 0 0 0-.996-1.104c-.424-.28-.98-.42-1.668-.42a3.55 3.55 0 0 0-1.272.228c-.4.144-.752.38-1.056.708-.296.328-.532.76-.708 1.296-.168.536-.252 1.188-.252 1.956l-1.56-.588c0-1.176.22-2.212.66-3.108a4.959 4.959 0 0 1 1.896-2.112c.824-.504 1.82-.756 2.988-.756.896 0 1.648.144 2.256.432.608.288 1.1.668 1.476 1.14.384.464.676.972.876 1.524.2.552.336 1.092.408 1.62.072.528.108.992.108 1.392v7.2h-2.544Zm-9.108 0v-12.96h2.244v3.744h.3V429h-2.544Zm17.957.36c-.96 0-1.764-.176-2.412-.528-.648-.36-1.14-.832-1.476-1.416a3.944 3.944 0 0 1-.492-1.944c0-.656.116-1.232.348-1.728a3.33 3.33 0 0 1 1.032-1.26c.456-.352 1.016-.636 1.68-.852a18.421 18.421 0 0 1 1.956-.444 66.481 66.481 0 0 1 2.292-.36c.808-.112 1.608-.224 2.4-.336l-.912.504c.016-1.016-.2-1.768-.648-2.256-.44-.496-1.2-.744-2.28-.744-.68 0-1.304.16-1.872.48-.568.312-.964.832-1.188 1.56l-2.34-.72c.32-1.112.928-1.996 1.824-2.652.904-.656 2.104-.984 3.6-.984 1.16 0 2.168.2 3.024.6a3.73 3.73 0 0 1 1.896 1.872c.208.424.336.872.384 1.344.048.472.072.98.072 1.524V429h-2.22v-2.964l.432.384c-.536.992-1.22 1.732-2.052 2.22-.824.48-1.84.72-3.048.72Zm.444-2.052c.712 0 1.324-.124 1.836-.372.512-.256.924-.58 1.236-.972.312-.392.516-.8.612-1.224a4.3 4.3 0 0 0 .228-1.296c.024-.48.036-.864.036-1.152l.816.3c-.792.12-1.512.228-2.16.324a54.94 54.94 0 0 0-1.764.288c-.52.088-.984.196-1.392.324-.344.12-.652.264-.924.432a2.117 2.117 0 0 0-.636.612c-.152.24-.228.532-.228.876 0 .336.084.648.252.936.168.28.424.504.768.672.344.168.784.252 1.32.252Zm9.32 1.692v-17.64h2.508V429h-2.508Zm16.041.36c-1.24 0-2.28-.3-3.12-.9-.84-.608-1.476-1.428-1.908-2.46-.432-1.032-.648-2.196-.648-3.492 0-1.296.212-2.46.636-3.492.432-1.032 1.064-1.844 1.896-2.436.84-.6 1.872-.9 3.096-.9 1.216 0 2.264.3 3.144.9.888.592 1.572 1.404 2.052 2.436.48 1.024.72 2.188.72 3.492 0 1.296-.24 2.464-.72 3.504-.472 1.032-1.148 1.848-2.028 2.448-.872.6-1.912.9-3.12.9Zm-6.096 5.4v-18.72h2.232v9.324h.288v9.396h-2.52Zm5.748-7.668c.8 0 1.46-.204 1.98-.612.528-.408.92-.956 1.176-1.644.264-.696.396-1.472.396-2.328 0-.848-.132-1.616-.396-2.304-.256-.688-.652-1.236-1.188-1.644-.536-.408-1.22-.612-2.052-.612-.784 0-1.432.192-1.944.576-.504.384-.88.92-1.128 1.608-.24.688-.36 1.48-.36 2.376 0 .896.12 1.688.36 2.376s.62 1.228 1.14 1.62c.52.392 1.192.588 2.016.588Zm8.385 1.908v-12.96h2.232v3.144l-.312-.408c.16-.416.368-.796.624-1.14.256-.352.552-.64.888-.864.328-.24.692-.424 1.092-.552a4.785 4.785 0 0 1 1.248-.24 4.766 4.766 0 0 1 1.224.06v2.352a4.065 4.065 0 0 0-1.416-.096 3.098 3.098 0 0 0-1.416.492 3.182 3.182 0 0 0-.972.96c-.232.376-.4.796-.504 1.26-.104.456-.156.94-.156 1.452V429h-2.532Zm14.195.36c-1.296 0-2.42-.292-3.372-.876a5.904 5.904 0 0 1-2.208-2.412c-.512-1.032-.768-2.22-.768-3.564 0-1.352.264-2.54.792-3.564.528-1.032 1.268-1.832 2.22-2.4.952-.576 2.064-.864 3.336-.864 1.296 0 2.42.292 3.372.876a5.904 5.904 0 0 1 2.208 2.412c.52 1.024.78 2.204.78 3.54 0 1.352-.264 2.544-.792 3.576a5.904 5.904 0 0 1-2.208 2.412c-.952.576-2.072.864-3.36.864Zm0-2.364c1.24 0 2.164-.416 2.772-1.248.616-.84.924-1.92.924-3.24 0-1.352-.312-2.432-.936-3.24-.616-.816-1.536-1.224-2.76-1.224-.84 0-1.532.192-2.076.576-.544.376-.948.9-1.212 1.572-.264.664-.396 1.436-.396 2.316 0 1.36.312 2.448.936 3.264.624.816 1.54 1.224 2.748 1.224Zm9.705 2.004v-13.416c0-.328.012-.676.036-1.044.024-.376.092-.744.204-1.104.12-.368.316-.704.588-1.008.328-.36.688-.616 1.08-.768a3.88 3.88 0 0 1 1.164-.264c.392-.024.752-.036 1.08-.036h1.632v2.064h-1.512c-.592 0-1.036.148-1.332.444-.288.288-.432.7-.432 1.236V429h-2.508Zm-2.148-10.944v-2.016h7.932v2.016h-7.932Zm10.452-4.14v-2.436h2.508v2.436h-2.508Zm0 15.084v-12.96h2.508V429h-2.508Zm5.878 0v-17.64h2.508V429h-2.508Zm11.379.36c-1.288 0-2.42-.28-3.396-.84a5.973 5.973 0 0 1-2.268-2.364c-.536-1.016-.804-2.192-.804-3.528 0-1.416.264-2.644.792-3.684.536-1.04 1.28-1.844 2.232-2.412.952-.568 2.06-.852 3.324-.852 1.32 0 2.444.308 3.372.924.928.608 1.62 1.476 2.076 2.604.464 1.128.648 2.468.552 4.02h-2.508v-.912c-.016-1.504-.304-2.616-.864-3.336-.552-.72-1.396-1.08-2.532-1.08-1.256 0-2.2.396-2.832 1.188-.632.792-.948 1.936-.948 3.432 0 1.424.316 2.528.948 3.312.632.776 1.544 1.164 2.736 1.164.784 0 1.46-.176 2.028-.528.576-.36 1.024-.872 1.344-1.536l2.46.78c-.504 1.16-1.268 2.06-2.292 2.7-1.024.632-2.164.948-3.42.948Zm-4.62-6.132v-1.956h9.252v1.956h-9.252Z"/><path stroke="#DFDFDF" d="M118 457h364"/><path fill="#000" d="M123.784 500.24c-1.147 0-2.115-.253-2.904-.76-.789-.512-1.387-1.219-1.792-2.12s-.608-1.941-.608-3.12.203-2.219.608-3.12c.405-.901 1.003-1.605 1.792-2.112.789-.512 1.757-.768 2.904-.768 1.339 0 2.432.344 3.28 1.032.848.683 1.429 1.6 1.744 2.752l-1.2.312c-.245-.912-.685-1.635-1.32-2.168-.635-.533-1.469-.8-2.504-.8-.901 0-1.651.205-2.248.616-.597.411-1.048.984-1.352 1.72-.299.731-.453 1.576-.464 2.536-.005.96.141 1.805.44 2.536.304.731.757 1.304 1.36 1.72.608.411 1.363.616 2.264.616 1.035 0 1.869-.267 2.504-.8.635-.539 1.075-1.261 1.32-2.168l1.2.312c-.315 1.152-.896 2.072-1.744 2.76-.848.683-1.941 1.024-3.28 1.024Zm10.093-.024c-.517 0-.971-.08-1.36-.24a3.01 3.01 0 0 1-.984-.648 3.398 3.398 0 0 1-.648-.928 4.712 4.712 0 0 1-.36-1.112 6.292 6.292 0 0 1-.112-1.176v-4.752h1.184v4.408c0 .475.045.915.136 1.32.091.405.235.76.432 1.064.203.299.461.531.776.696.32.165.707.248 1.16.248.416 0 .781-.072 1.096-.216.32-.144.587-.349.8-.616.219-.272.384-.6.496-.984.112-.389.168-.827.168-1.312l.832.184c0 .885-.155 1.629-.464 2.232-.309.603-.736 1.059-1.28 1.368-.544.309-1.168.464-1.872.464Zm2.904-.216v-2.128h-.12v-6.512h1.176V500h-1.056Zm6.516.232c-1.013 0-1.848-.219-2.504-.656a2.73 2.73 0 0 1-1.2-1.824l1.2-.2c.128.491.419.883.872 1.176.459.288 1.024.432 1.696.432.656 0 1.173-.136 1.552-.408.379-.277.568-.653.568-1.128 0-.267-.061-.483-.184-.648-.117-.171-.36-.328-.728-.472-.368-.144-.917-.315-1.648-.512-.784-.213-1.397-.427-1.84-.64-.443-.213-.757-.459-.944-.736-.187-.283-.28-.627-.28-1.032 0-.491.139-.92.416-1.288.277-.373.661-.661 1.152-.864.491-.208 1.061-.312 1.712-.312s1.232.107 1.744.32c.517.208.933.501 1.248.88.315.379.501.819.56 1.32l-1.2.216a1.726 1.726 0 0 0-.76-1.2c-.421-.299-.957-.453-1.608-.464-.613-.016-1.112.101-1.496.352-.384.245-.576.573-.576.984a.89.89 0 0 0 .208.592c.139.16.389.312.752.456.368.144.891.301 1.568.472.795.203 1.419.416 1.872.64.453.224.776.488.968.792.192.304.288.68.288 1.128 0 .816-.304 1.459-.912 1.928-.603.464-1.435.696-2.496.696Zm9.886-.232a5.786 5.786 0 0 1-1.44.12 3.2 3.2 0 0 1-1.264-.304 1.823 1.823 0 0 1-.84-.848 2.505 2.505 0 0 1-.256-.968 37.49 37.49 0 0 1-.016-1.128v-7.912h1.168v7.864c0 .363.003.667.008.912.011.24.067.453.168.64.192.357.496.571.912.64.422.069.942.053 1.56-.048V500Zm-5.664-7.632v-1.008h5.664v1.008h-5.664Zm10.662 7.872c-.859 0-1.592-.195-2.2-.584a3.796 3.796 0 0 1-1.4-1.616c-.325-.688-.488-1.477-.488-2.368 0-.907.165-1.701.496-2.384.331-.683.8-1.213 1.408-1.592.613-.384 1.341-.576 2.184-.576.864 0 1.6.195 2.208.584a3.68 3.68 0 0 1 1.4 1.608c.325.683.488 1.469.488 2.36 0 .907-.163 1.704-.488 2.392a3.737 3.737 0 0 1-1.408 1.6c-.613.384-1.347.576-2.2.576Zm0-1.128c.96 0 1.675-.317 2.144-.952.469-.64.704-1.469.704-2.488 0-1.045-.237-1.877-.712-2.496-.469-.619-1.181-.928-2.136-.928-.645 0-1.179.147-1.6.44-.416.288-.728.691-.936 1.208-.203.512-.304 1.104-.304 1.776 0 1.04.24 1.875.72 2.504.48.624 1.187.936 2.12.936Zm16.165.888.008-5.672c0-.667-.187-1.189-.56-1.568-.368-.384-.837-.576-1.408-.576-.325 0-.643.075-.952.224a1.836 1.836 0 0 0-.768.72c-.197.331-.296.763-.296 1.296l-.696-.2c-.016-.619.104-1.16.36-1.624a2.782 2.782 0 0 1 1.072-1.08 3.083 3.083 0 0 1 1.552-.392c.869 0 1.565.269 2.088.808.523.533.784 1.256.784 2.168l-.008 5.896h-1.176Zm-10.312 0v-8.64h1.056v2.128h.128V500h-1.184Zm5.168 0 .008-5.592c0-.688-.184-1.229-.552-1.624-.363-.4-.843-.6-1.44-.6s-1.08.205-1.448.616c-.368.405-.552.947-.552 1.624l-.704-.384c0-.555.131-1.051.392-1.488a2.79 2.79 0 0 1 1.072-1.04 3.084 3.084 0 0 1 1.544-.384c.549 0 1.037.117 1.464.352.432.235.771.576 1.016 1.024.245.448.368.992.368 1.632l-.008 5.864h-1.16Zm12.012.24c-.843 0-1.574-.187-2.192-.56a3.794 3.794 0 0 1-1.432-1.576c-.342-.677-.512-1.472-.512-2.384 0-.944.168-1.76.504-2.448.336-.688.808-1.219 1.416-1.592.613-.373 1.336-.56 2.168-.56.853 0 1.581.197 2.184.592.602.389 1.058.949 1.368 1.68.309.731.45 1.603.424 2.616h-1.2v-.416c-.022-1.12-.264-1.965-.728-2.536-.459-.571-1.131-.856-2.016-.856-.928 0-1.64.301-2.136.904-.491.603-.736 1.461-.736 2.576 0 1.088.245 1.933.736 2.536.496.597 1.197.896 2.104.896.618 0 1.157-.141 1.616-.424.464-.288.829-.701 1.096-1.24l1.096.424c-.342.752-.846 1.336-1.512 1.752-.662.411-1.411.616-2.248.616Zm-3.304-4.232v-.984h6.6v.984h-6.6Zm9.007 3.992v-8.64h1.056v2.08l-.208-.272a2.95 2.95 0 0 1 .376-.704c.155-.219.323-.397.504-.536.224-.197.485-.347.784-.448.299-.107.6-.168.904-.184.304-.021.581 0 .832.064v1.104a2.846 2.846 0 0 0-1.032-.056 1.971 1.971 0 0 0-1.032.448 2.144 2.144 0 0 0-.648.808c-.144.309-.24.64-.288.992a7.524 7.524 0 0 0-.072 1.032V500h-1.176Zm13.673 0a5.794 5.794 0 0 1-1.44.12 3.19 3.19 0 0 1-1.264-.304 1.823 1.823 0 0 1-.84-.848 2.488 2.488 0 0 1-.256-.968 34.437 34.437 0 0 1-.016-1.128v-7.912h1.168v7.864c0 .363.002.667.008.912.01.24.066.453.168.64.192.357.496.571.912.64.421.069.941.053 1.56-.048V500Zm-5.664-7.632v-1.008h5.664v1.008h-5.664Zm8.363 11.472 1.673-4.536.024 1.344-3.785-9.288h1.249l3.104 7.768h-.512l2.864-7.768h1.2l-4.64 12.48h-1.177Zm11.086-3.6c-.795 0-1.467-.2-2.016-.6-.549-.405-.965-.952-1.248-1.64-.283-.693-.424-1.469-.424-2.328 0-.875.141-1.653.424-2.336.288-.688.709-1.229 1.264-1.624s1.237-.592 2.048-.592c.789 0 1.467.2 2.032.6.565.4.997.944 1.296 1.632.304.688.456 1.461.456 2.32 0 .864-.152 1.64-.456 2.328-.304.688-.741 1.235-1.312 1.64-.571.4-1.259.6-2.064.6Zm-3.888 3.6v-12.48h1.056v6.504h.128v5.976h-1.184Zm3.768-4.696c.603 0 1.104-.152 1.504-.456.4-.304.699-.717.896-1.24.203-.528.304-1.12.304-1.776a4.96 4.96 0 0 0-.296-1.76c-.197-.523-.499-.936-.904-1.24-.4-.304-.909-.456-1.528-.456-.603 0-1.104.147-1.504.44-.395.293-.691.701-.888 1.224-.197.517-.296 1.115-.296 1.792 0 .667.099 1.264.296 1.792.197.523.496.933.896 1.232.4.299.907.448 1.52.448Zm9.365 1.096c-.843 0-1.574-.187-2.192-.56a3.794 3.794 0 0 1-1.432-1.576c-.342-.677-.512-1.472-.512-2.384 0-.944.168-1.76.504-2.448.336-.688.808-1.219 1.416-1.592.613-.373 1.336-.56 2.168-.56.853 0 1.581.197 2.184.592.602.389 1.058.949 1.368 1.68.309.731.45 1.603.424 2.616h-1.2v-.416c-.022-1.12-.264-1.965-.728-2.536-.459-.571-1.131-.856-2.016-.856-.928 0-1.64.301-2.136.904-.491.603-.736 1.461-.736 2.576 0 1.088.245 1.933.736 2.536.496.597 1.197.896 2.104.896.618 0 1.157-.141 1.616-.424.464-.288.829-.701 1.096-1.24l1.096.424c-.342.752-.846 1.336-1.512 1.752-.662.411-1.411.616-2.248.616Zm-3.304-4.232v-.984h6.6v.984h-6.6Z"/><rect width="155" height="18" x="118" y="517" fill="#EDEDF2" rx="4"/><path fill="#000" d="m118.32 589 3.968-11.52h1.56l3.968 11.52h-1.224l-3.768-10.864h.464L119.544 589h-1.224Zm1.768-2.792v-1.104h5.952v1.104h-5.952Zm12.525 3.032c-.806 0-1.494-.2-2.064-.6-.571-.405-1.008-.952-1.312-1.64-.304-.688-.456-1.464-.456-2.328 0-.859.149-1.632.448-2.32.304-.688.738-1.232 1.304-1.632.565-.4 1.242-.6 2.032-.6.81 0 1.493.197 2.048.592.554.395.973.936 1.256 1.624.288.683.432 1.461.432 2.336 0 .859-.142 1.635-.424 2.328-.283.688-.699 1.235-1.248 1.64-.55.4-1.222.6-2.016.6Zm.12-1.096c.613 0 1.12-.149 1.52-.448.4-.299.698-.709.896-1.232.197-.528.296-1.125.296-1.792 0-.677-.099-1.275-.296-1.792-.198-.523-.496-.931-.896-1.224-.395-.293-.894-.44-1.496-.44-.619 0-1.131.152-1.536.456-.406.304-.707.717-.904 1.24a5.076 5.076 0 0 0-.288 1.76c0 .656.098 1.248.296 1.776.202.523.504.936.904 1.24.4.304.901.456 1.504.456Zm2.712.856v-6.504h-.128v-5.016h1.184V589h-1.056Zm6.652.24c-.805 0-1.493-.2-2.064-.6-.571-.405-1.008-.952-1.312-1.64-.304-.688-.456-1.464-.456-2.328 0-.859.149-1.632.448-2.32.304-.688.739-1.232 1.304-1.632.565-.4 1.243-.6 2.032-.6.811 0 1.493.197 2.048.592.555.395.973.936 1.256 1.624.288.683.432 1.461.432 2.336 0 .859-.141 1.635-.424 2.328-.283.688-.699 1.235-1.248 1.64-.549.4-1.221.6-2.016.6Zm.12-1.096c.613 0 1.12-.149 1.52-.448.4-.299.699-.709.896-1.232.197-.528.296-1.125.296-1.792 0-.677-.099-1.275-.296-1.792-.197-.523-.496-.931-.896-1.224-.395-.293-.893-.44-1.496-.44-.619 0-1.131.152-1.536.456-.405.304-.707.717-.904 1.24a5.076 5.076 0 0 0-.288 1.76c0 .656.099 1.248.296 1.776.203.523.504.936.904 1.24.4.304.901.456 1.504.456Zm2.712.856v-6.504h-.128v-5.016h1.184V589h-1.056Zm3.3 0v-8.64h1.056v2.08l-.208-.272c.096-.256.222-.491.376-.704.155-.219.323-.397.504-.536.224-.197.486-.347.784-.448.299-.107.6-.168.904-.184.304-.021.582 0 .832.064v1.104a2.844 2.844 0 0 0-1.032-.056 1.971 1.971 0 0 0-1.032.448 2.144 2.144 0 0 0-.648.808c-.144.309-.24.64-.288.992a7.524 7.524 0 0 0-.072 1.032V589h-1.176Zm9.266.24c-.843 0-1.574-.187-2.192-.56a3.794 3.794 0 0 1-1.432-1.576c-.342-.677-.512-1.472-.512-2.384 0-.944.168-1.76.504-2.448.336-.688.808-1.219 1.416-1.592.613-.373 1.336-.56 2.168-.56.853 0 1.581.197 2.184.592.602.389 1.058.949 1.368 1.68.309.731.45 1.603.424 2.616h-1.2v-.416c-.022-1.12-.264-1.965-.728-2.536-.459-.571-1.131-.856-2.016-.856-.928 0-1.64.301-2.136.904-.491.603-.736 1.461-.736 2.576 0 1.088.245 1.933.736 2.536.496.597 1.197.896 2.104.896.618 0 1.157-.141 1.616-.424.464-.288.829-.701 1.096-1.24l1.096.424c-.342.752-.846 1.336-1.512 1.752-.662.411-1.411.616-2.248.616Zm-3.304-4.232v-.984h6.6v.984h-6.6Zm12.231 4.224c-1.013 0-1.848-.219-2.504-.656a2.73 2.73 0 0 1-1.2-1.824l1.2-.2c.128.491.419.883.872 1.176.459.288 1.024.432 1.696.432.656 0 1.173-.136 1.552-.408.379-.277.568-.653.568-1.128 0-.267-.061-.483-.184-.648-.117-.171-.36-.328-.728-.472-.368-.144-.917-.315-1.648-.512-.784-.213-1.397-.427-1.84-.64-.443-.213-.757-.459-.944-.736-.187-.283-.28-.627-.28-1.032 0-.491.139-.92.416-1.288.277-.373.661-.661 1.152-.864.491-.208 1.061-.312 1.712-.312s1.232.107 1.744.32c.517.208.933.501 1.248.88.315.379.501.819.56 1.32l-1.2.216a1.726 1.726 0 0 0-.76-1.2c-.421-.299-.957-.453-1.608-.464-.613-.016-1.112.101-1.496.352-.384.245-.576.573-.576.984a.89.89 0 0 0 .208.592c.139.16.389.312.752.456.368.144.891.301 1.568.472.795.203 1.419.416 1.872.64.453.224.776.488.968.792.192.304.288.68.288 1.128 0 .816-.304 1.459-.912 1.928-.603.464-1.435.696-2.496.696Zm8.406 0c-1.013 0-1.848-.219-2.504-.656a2.737 2.737 0 0 1-1.2-1.824l1.2-.2c.128.491.419.883.872 1.176.459.288 1.024.432 1.696.432.656 0 1.174-.136 1.552-.408.379-.277.568-.653.568-1.128 0-.267-.061-.483-.184-.648-.117-.171-.36-.328-.728-.472-.368-.144-.917-.315-1.648-.512-.784-.213-1.397-.427-1.84-.64-.442-.213-.757-.459-.944-.736-.186-.283-.28-.627-.28-1.032 0-.491.139-.92.416-1.288.278-.373.662-.661 1.152-.864.491-.208 1.062-.312 1.712-.312.651 0 1.232.107 1.744.32.518.208.934.501 1.248.88.315.379.502.819.56 1.32l-1.2.216a1.726 1.726 0 0 0-.76-1.2c-.421-.299-.957-.453-1.608-.464-.613-.016-1.112.101-1.496.352-.384.245-.576.573-.576.984 0 .229.07.427.208.592.139.16.39.312.752.456.368.144.891.301 1.568.472.795.203 1.419.416 1.872.64.454.224.776.488.968.792.192.304.288.68.288 1.128 0 .816-.304 1.459-.912 1.928-.602.464-1.434.696-2.496.696Z"/><rect width="209" height="18" x="118" y="606" fill="#EDEDF2" rx="4"/><path fill="#000" d="M119.12 678v-11.52h7.2v1.128h-6.024v3.984h5.064v1.128h-5.064v4.152h6.024V678h-7.2Zm19.429 0 .008-5.672c0-.667-.187-1.189-.56-1.568-.368-.384-.837-.576-1.408-.576-.325 0-.643.075-.952.224a1.836 1.836 0 0 0-.768.72c-.197.331-.296.763-.296 1.296l-.696-.2c-.016-.619.104-1.16.36-1.624a2.782 2.782 0 0 1 1.072-1.08 3.083 3.083 0 0 1 1.552-.392c.869 0 1.565.269 2.088.808.523.533.784 1.256.784 2.168l-.008 5.896h-1.176Zm-10.312 0v-8.64h1.056v2.128h.128V678h-1.184Zm5.168 0 .008-5.592c0-.688-.184-1.229-.552-1.624-.363-.4-.843-.6-1.44-.6s-1.08.205-1.448.616c-.368.405-.552.947-.552 1.624l-.704-.384c0-.555.131-1.051.392-1.488a2.79 2.79 0 0 1 1.072-1.04 3.084 3.084 0 0 1 1.544-.384c.549 0 1.037.117 1.464.352.432.235.771.576 1.016 1.024.245.448.368.992.368 1.632l-.008 5.864h-1.16Zm10.875.24c-.651 0-1.198-.117-1.64-.352-.438-.235-.766-.547-.984-.936a2.549 2.549 0 0 1-.328-1.272c0-.469.093-.869.28-1.2.192-.336.45-.611.776-.824a3.9 3.9 0 0 1 1.144-.488c.437-.107.92-.2 1.448-.28a37.258 37.258 0 0 1 1.56-.216c.512-.064.96-.125 1.344-.184l-.416.256c.016-.853-.15-1.485-.496-1.896-.347-.411-.95-.616-1.808-.616-.592 0-1.094.133-1.504.4-.406.267-.691.688-.857 1.264l-1.143-.336c.197-.773.594-1.373 1.192-1.8.597-.427 1.373-.64 2.328-.64.789 0 1.458.149 2.008.448.554.293.946.72 1.176 1.28.106.251.176.531.208.84.032.309.048.624.048.944V678h-1.048v-2.168l.304.128c-.294.741-.75 1.307-1.368 1.696-.619.389-1.36.584-2.224.584Zm.136-1.016c.549 0 1.029-.099 1.44-.296.41-.197.741-.467.992-.808.25-.347.413-.736.488-1.168.064-.277.098-.581.104-.912.005-.336.008-.587.008-.752l.448.232c-.4.053-.835.107-1.304.16a37.1 37.1 0 0 0-1.376.184c-.448.069-.854.152-1.216.248a3.26 3.26 0 0 0-.712.296c-.23.123-.419.288-.568.496-.144.208-.216.467-.216.776 0 .251.061.493.184.728.128.235.33.429.608.584.282.155.656.232 1.12.232Zm6.442-9.504v-1.32h1.176v1.32h-1.176Zm0 10.28v-8.64h1.176V678h-1.176Zm3.735 0v-11.76h1.176V678h-1.176Z"/><rect width="209" height="18" x="118" y="695" fill="#EDEDF2" rx="4"/><path fill="#000" d="M123.784 767.24c-1.147 0-2.115-.253-2.904-.76-.789-.512-1.387-1.219-1.792-2.12s-.608-1.941-.608-3.12.203-2.219.608-3.12c.405-.901 1.003-1.605 1.792-2.112.789-.512 1.757-.768 2.904-.768 1.339 0 2.432.344 3.28 1.032.848.683 1.429 1.6 1.744 2.752l-1.2.312c-.245-.912-.685-1.635-1.32-2.168-.635-.533-1.469-.8-2.504-.8-.901 0-1.651.205-2.248.616-.597.411-1.048.984-1.352 1.72-.299.731-.453 1.576-.464 2.536-.005.96.141 1.805.44 2.536.304.731.757 1.304 1.36 1.72.608.411 1.363.616 2.264.616 1.035 0 1.869-.267 2.504-.8.635-.539 1.075-1.261 1.32-2.168l1.2.312c-.315 1.152-.896 2.072-1.744 2.76-.848.683-1.941 1.024-3.28 1.024Zm6.789-.24v-8.64h1.056v2.08l-.208-.272a2.95 2.95 0 0 1 .376-.704c.155-.219.323-.397.504-.536.224-.197.485-.347.784-.448.299-.107.6-.168.904-.184.304-.021.581 0 .832.064v1.104a2.846 2.846 0 0 0-1.032-.056 1.971 1.971 0 0 0-1.032.448 2.144 2.144 0 0 0-.648.808c-.144.309-.24.64-.288.992a7.524 7.524 0 0 0-.072 1.032V767h-1.176Zm9.266.24c-.843 0-1.574-.187-2.192-.56a3.794 3.794 0 0 1-1.432-1.576c-.342-.677-.512-1.472-.512-2.384 0-.944.168-1.76.504-2.448.336-.688.808-1.219 1.416-1.592.613-.373 1.336-.56 2.168-.56.853 0 1.581.197 2.184.592.602.389 1.058.949 1.368 1.68.309.731.45 1.603.424 2.616h-1.2v-.416c-.022-1.12-.264-1.965-.728-2.536-.459-.571-1.131-.856-2.016-.856-.928 0-1.64.301-2.136.904-.491.603-.736 1.461-.736 2.576 0 1.088.245 1.933.736 2.536.496.597 1.197.896 2.104.896.618 0 1.157-.141 1.616-.424.464-.288.829-.701 1.096-1.24l1.096.424c-.342.752-.846 1.336-1.512 1.752-.662.411-1.411.616-2.248.616Zm-3.304-4.232v-.984h6.6v.984h-6.6Zm12.359 4.232c-.805 0-1.493-.2-2.064-.6-.571-.405-1.008-.952-1.312-1.64-.304-.688-.456-1.464-.456-2.328 0-.859.149-1.632.448-2.32.304-.688.739-1.232 1.304-1.632.565-.4 1.243-.6 2.032-.6.811 0 1.493.197 2.048.592.555.395.973.936 1.256 1.624.288.683.432 1.461.432 2.336 0 .859-.141 1.635-.424 2.328-.283.688-.699 1.235-1.248 1.64-.549.4-1.221.6-2.016.6Zm.12-1.096c.613 0 1.12-.149 1.52-.448.4-.299.699-.709.896-1.232.197-.528.296-1.125.296-1.792 0-.677-.099-1.275-.296-1.792-.197-.523-.496-.931-.896-1.224-.395-.293-.893-.44-1.496-.44-.619 0-1.131.152-1.536.456-.405.304-.707.717-.904 1.24a5.076 5.076 0 0 0-.288 1.76c0 .656.099 1.248.296 1.776.203.523.504.936.904 1.24.4.304.901.456 1.504.456Zm2.712.856v-6.504h-.128v-5.016h1.184V767h-1.056Zm3.46-10.28v-1.32h1.176v1.32h-1.176Zm0 10.28v-8.64h1.176V767h-1.176Zm8.279 0a5.794 5.794 0 0 1-1.44.12 3.19 3.19 0 0 1-1.264-.304 1.823 1.823 0 0 1-.84-.848 2.488 2.488 0 0 1-.256-.968 34.437 34.437 0 0 1-.016-1.128v-7.912h1.168v7.864c0 .363.002.667.008.912.01.24.066.453.168.64.192.357.496.571.912.64.421.069.941.053 1.56-.048V767Zm-5.664-7.632v-1.008h5.664v1.008h-5.664Zm13.793 7.864c-1.013 0-1.848-.219-2.504-.656a2.73 2.73 0 0 1-1.2-1.824l1.2-.2c.128.491.419.883.872 1.176.459.288 1.024.432 1.696.432.656 0 1.173-.136 1.552-.408.379-.277.568-.653.568-1.128 0-.267-.061-.483-.184-.648-.117-.171-.36-.328-.728-.472-.368-.144-.917-.315-1.648-.512-.784-.213-1.397-.427-1.84-.64-.443-.213-.757-.459-.944-.736-.187-.283-.28-.627-.28-1.032 0-.491.139-.92.416-1.288.277-.373.661-.661 1.152-.864.491-.208 1.061-.312 1.712-.312s1.232.107 1.744.32c.517.208.933.501 1.248.88.315.379.501.819.56 1.32l-1.2.216a1.726 1.726 0 0 0-.76-1.2c-.421-.299-.957-.453-1.608-.464-.613-.016-1.112.101-1.496.352-.384.245-.576.573-.576.984a.89.89 0 0 0 .208.592c.139.16.389.312.752.456.368.144.891.301 1.568.472.795.203 1.419.416 1.872.64.453.224.776.488.968.792.192.304.288.68.288 1.128 0 .816-.304 1.459-.912 1.928-.603.464-1.435.696-2.496.696Zm8.766.008c-.869 0-1.605-.195-2.208-.584a3.725 3.725 0 0 1-1.376-1.608c-.309-.688-.469-1.477-.48-2.368.011-.907.176-1.701.496-2.384.32-.688.782-1.221 1.384-1.6.603-.384 1.334-.576 2.192-.576.875 0 1.635.213 2.28.64a3.225 3.225 0 0 1 1.336 1.752l-1.152.368a2.431 2.431 0 0 0-.968-1.2 2.67 2.67 0 0 0-1.504-.432c-.634 0-1.16.147-1.576.44-.416.288-.725.691-.928 1.208-.202.517-.306 1.112-.312 1.784.011 1.035.251 1.867.72 2.496.47.624 1.168.936 2.096.936.587 0 1.086-.133 1.496-.4.416-.272.731-.667.944-1.184l1.184.352c-.32.768-.789 1.355-1.408 1.76-.618.4-1.357.6-2.216.6Zm8.649 0c-.858 0-1.592-.195-2.2-.584a3.802 3.802 0 0 1-1.4-1.616c-.325-.688-.488-1.477-.488-2.368 0-.907.166-1.701.496-2.384.331-.683.8-1.213 1.408-1.592.614-.384 1.342-.576 2.184-.576.864 0 1.6.195 2.208.584.614.384 1.08.92 1.4 1.608.326.683.488 1.469.488 2.36 0 .907-.162 1.704-.488 2.392a3.73 3.73 0 0 1-1.408 1.6c-.613.384-1.346.576-2.2.576Zm0-1.128c.96 0 1.675-.317 2.144-.952.47-.64.704-1.469.704-2.488 0-1.045-.237-1.877-.712-2.496-.469-.619-1.181-.928-2.136-.928-.645 0-1.178.147-1.6.44-.416.288-.728.691-.936 1.208-.202.512-.304 1.104-.304 1.776 0 1.04.24 1.875.72 2.504.48.624 1.187.936 2.12.936Zm5.861.888v-8.64h1.056v2.08l-.208-.272a2.95 2.95 0 0 1 .376-.704c.155-.219.323-.397.504-.536.224-.197.485-.347.784-.448.299-.107.6-.168.904-.184.304-.021.581 0 .832.064v1.104a2.846 2.846 0 0 0-1.032-.056 1.971 1.971 0 0 0-1.032.448 2.144 2.144 0 0 0-.648.808c-.144.309-.24.64-.288.992a7.524 7.524 0 0 0-.072 1.032V767h-1.176Zm9.265.24c-.842 0-1.573-.187-2.192-.56a3.807 3.807 0 0 1-1.432-1.576c-.341-.677-.512-1.472-.512-2.384 0-.944.168-1.76.504-2.448.336-.688.808-1.219 1.416-1.592.614-.373 1.336-.56 2.168-.56.854 0 1.582.197 2.184.592.603.389 1.059.949 1.368 1.68.31.731.451 1.603.424 2.616h-1.2v-.416c-.021-1.12-.264-1.965-.728-2.536-.458-.571-1.13-.856-2.016-.856-.928 0-1.64.301-2.136.904-.49.603-.736 1.461-.736 2.576 0 1.088.246 1.933.736 2.536.496.597 1.198.896 2.104.896.619 0 1.158-.141 1.616-.424.464-.288.83-.701 1.096-1.24l1.096.424a3.915 3.915 0 0 1-1.512 1.752c-.661.411-1.41.616-2.248.616Zm-3.304-4.232v-.984h6.6v.984h-6.6Z"/><rect width="209" height="18" x="118" y="784" fill="#EDEDF2" rx="4"/><rect width="185" height="253" x="361" y="423" fill="#DCE6FF" rx="24"/><g clip-path="url(#b)"><path fill="#FAFAFA" fill-rule="evenodd" d="M400 500.5c0-29.547 23.953-53.5 53.5-53.5s53.5 23.953 53.5 53.5c0 15.171-6.32 28.873-16.461 38.605C480.93 548.327 467.874 554 453.5 554c-14.374 0-27.43-5.673-37.039-14.895C406.32 529.373 400 515.671 400 500.5Zm83.774 34.681c-2.145-6.417-8.208-11.041-15.344-11.041h-29.86c-7.136 0-13.199 4.624-15.344 11.041 8.095 7.073 18.681 11.354 30.274 11.354s22.179-4.281 30.274-11.354ZM453.5 461.93c-13.056 0-23.64 10.584-23.64 23.64 0 13.056 10.584 23.639 23.64 23.639 13.056 0 23.64-10.583 23.64-23.639s-10.584-23.64-23.64-23.64Z" clip-rule="evenodd"/><path fill="#3022BB" d="M429.86 485.57c0-13.056 10.584-23.64 23.64-23.64 13.056 0 23.64 10.584 23.64 23.64 0 13.056-10.584 23.639-23.64 23.639-13.056 0-23.64-10.583-23.64-23.639ZM468.43 524.14c7.136 0 13.199 4.624 15.344 11.041-8.095 7.073-18.681 11.354-30.274 11.354s-22.179-4.281-30.274-11.354c2.145-6.417 8.208-11.041 15.344-11.041h29.86Z"/></g><path fill="#000" d="M416.36 597.29c-.96 0-1.783-.267-2.47-.8-.687-.533-1.15-1.247-1.39-2.14l1.47-.35c.12.527.397.973.83 1.34.44.36.957.54 1.55.54.373 0 .75-.09 1.13-.27.387-.18.69-.477.91-.89.147-.287.23-.597.25-.93.027-.34.04-.747.04-1.22v-9.97h1.48v9.97c0 .4-.003.763-.01 1.09-.007.32-.043.63-.11.93-.06.293-.177.59-.35.89a3.35 3.35 0 0 1-1.4 1.36c-.58.3-1.223.45-1.93.45Zm9.507.01c-.813 0-1.496-.147-2.05-.44-.546-.293-.956-.683-1.23-1.17a3.198 3.198 0 0 1-.41-1.59c0-.587.117-1.087.35-1.5.24-.42.564-.763.97-1.03.414-.267.89-.47 1.43-.61.547-.133 1.15-.25 1.81-.35a44.517 44.517 0 0 1 1.95-.27c.64-.08 1.2-.157 1.68-.23l-.52.32c.02-1.067-.186-1.857-.62-2.37-.433-.513-1.186-.77-2.26-.77-.74 0-1.366.167-1.88.5-.506.333-.863.86-1.07 1.58l-1.43-.42c.247-.967.744-1.717 1.49-2.25.747-.533 1.717-.8 2.91-.8.987 0 1.824.187 2.51.56.694.367 1.184.9 1.47 1.6.134.313.22.663.26 1.05.04.387.06.78.06 1.18V597h-1.31v-2.71l.38.16c-.366.927-.936 1.633-1.71 2.12-.773.487-1.7.73-2.78.73Zm.17-1.27c.687 0 1.287-.123 1.8-.37a3.248 3.248 0 0 0 1.24-1.01 3.45 3.45 0 0 0 .61-1.46c.08-.347.124-.727.13-1.14.007-.42.01-.733.01-.94l.56.29c-.5.067-1.043.133-1.63.2-.58.067-1.153.143-1.72.23-.56.087-1.066.19-1.52.31a4.16 4.16 0 0 0-.89.37 2.06 2.06 0 0 0-.71.62c-.18.26-.27.583-.27.97 0 .313.077.617.23.91.16.293.414.537.76.73.354.193.82.29 1.4.29Zm15.254.97v-5.51c0-.6-.057-1.15-.17-1.65a3.819 3.819 0 0 0-.55-1.32 2.52 2.52 0 0 0-.97-.88c-.394-.207-.874-.31-1.44-.31-.52 0-.98.09-1.38.27a2.71 2.71 0 0 0-1 .78c-.267.333-.47.74-.61 1.22s-.21 1.027-.21 1.64l-1.04-.23c0-1.107.193-2.037.58-2.79.386-.753.92-1.323 1.6-1.71s1.46-.58 2.34-.58c.646 0 1.21.1 1.69.3.486.2.896.47 1.23.81.34.34.613.73.82 1.17.206.433.356.897.45 1.39.093.487.14.973.14 1.46V597h-1.48Zm-7.81 0v-10.8h1.33v2.66h.15V597h-1.48Zm15.996.3c-1.053 0-1.967-.233-2.74-.7-.767-.467-1.363-1.123-1.79-1.97-.427-.847-.64-1.84-.64-2.98 0-1.18.21-2.2.63-3.06.42-.86 1.01-1.523 1.77-1.99.767-.467 1.67-.7 2.71-.7 1.067 0 1.977.247 2.73.74.753.487 1.323 1.187 1.71 2.1s.563 2.003.53 3.27h-1.5v-.52c-.027-1.4-.33-2.457-.91-3.17-.573-.713-1.413-1.07-2.52-1.07-1.16 0-2.05.377-2.67 1.13-.613.753-.92 1.827-.92 3.22 0 1.36.307 2.417.92 3.17.62.747 1.497 1.12 2.63 1.12.773 0 1.447-.177 2.02-.53.58-.36 1.037-.877 1.37-1.55l1.37.53c-.427.94-1.057 1.67-1.89 2.19-.827.513-1.763.77-2.81.77Zm-4.13-5.29v-1.23h8.25v1.23h-8.25ZM459.41 597v-.31l7.87-12.68h-7.67v-1.41h10.08v.34l-7.83 12.66h7.76v1.4h-10.21Zm20.085 0v-5.51c0-.6-.056-1.15-.17-1.65a3.78 3.78 0 0 0-.55-1.32 2.512 2.512 0 0 0-.97-.88c-.393-.207-.873-.31-1.44-.31-.52 0-.98.09-1.38.27-.393.18-.726.44-1 .78-.266.333-.47.74-.61 1.22s-.21 1.027-.21 1.64l-1.04-.23c0-1.107.194-2.037.58-2.79.387-.753.92-1.323 1.6-1.71s1.46-.58 2.34-.58c.647 0 1.21.1 1.69.3.487.2.897.47 1.23.81.34.34.614.73.82 1.17.207.433.357.897.45 1.39.094.487.14.973.14 1.46V597h-1.48Zm-7.81 0v-14.4h1.33v8.13h.15V597h-1.48Zm15.615.27c-.646 0-1.213-.1-1.7-.3-.48-.2-.89-.47-1.23-.81a4.291 4.291 0 0 1-.81-1.16 5.901 5.901 0 0 1-.45-1.39 7.916 7.916 0 0 1-.14-1.47v-5.94h1.48v5.51c0 .593.057 1.143.17 1.65.114.507.294.95.54 1.33.254.373.577.663.97.87.4.207.884.31 1.45.31.52 0 .977-.09 1.37-.27.4-.18.734-.437 1-.77.274-.34.48-.75.62-1.23a5.93 5.93 0 0 0 .21-1.64l1.04.23c0 1.107-.193 2.037-.58 2.79-.386.753-.92 1.323-1.6 1.71s-1.46.58-2.34.58Zm3.63-.27v-2.66h-.15v-8.14h1.47V597h-1.32Z"/><rect width="129" height="8" x="389" y="624" fill="#fff" rx="4"/><rect width="95" height="8" x="406" y="644" fill="#fff" rx="4"/></g><defs><clipPath id="a"><path fill="#fff" d="M0 0h620v840H0z"/></clipPath><clipPath id="b"><path fill="#fff" d="M400 447h107v107H400z"/></clipPath></defs></svg>