<svg xmlns="http://www.w3.org/2000/svg" width="620" height="620" fill="none"><g clip-path="url(#a)"><path fill="#09090A" d="M0 0h620v620H0z"/><rect width="460" height="600" x="70" y="273.889" fill="#fff" rx="40"/><circle cx="124" cy="303.889" r="6" fill="#DFDFDF"/><circle cx="144" cy="303.889" r="6" fill="#DFDFDF"/><circle cx="164" cy="303.889" r="6" fill="#DFDFDF"/><path fill="#3022BB" d="m118.48 355.889 5.616-17.28h3.612l5.616 17.28h-2.604l-5.172-15.768h.648l-5.112 15.768h-2.604Zm2.916-3.9v-2.352h9.024v2.352h-9.024Zm19.145 4.26c-1.328 0-2.456-.296-3.384-.888-.928-.592-1.64-1.404-2.136-2.436-.488-1.032-.736-2.204-.744-3.516.008-1.336.264-2.516.768-3.54.504-1.032 1.224-1.84 2.16-2.424.936-.584 2.06-.876 3.372-.876 1.416 0 2.624.352 3.624 1.056 1.008.704 1.672 1.668 1.992 2.892l-2.496.72c-.248-.728-.656-1.292-1.224-1.692a3.196 3.196 0 0 0-1.932-.612c-.824 0-1.5.196-2.028.588-.528.384-.92.912-1.176 1.584-.256.672-.388 1.44-.396 2.304.008 1.336.312 2.416.912 3.24.608.824 1.504 1.236 2.688 1.236.808 0 1.46-.184 1.956-.552.504-.376.888-.912 1.152-1.608l2.544.6c-.424 1.264-1.124 2.236-2.1 2.916-.976.672-2.16 1.008-3.552 1.008Zm12.809 0c-1.328 0-2.456-.296-3.384-.888-.928-.592-1.64-1.404-2.136-2.436-.488-1.032-.736-2.204-.744-3.516.008-1.336.264-2.516.768-3.54.504-1.032 1.224-1.84 2.16-2.424.936-.584 2.06-.876 3.372-.876 1.416 0 2.624.352 3.624 1.056 1.008.704 1.672 1.668 1.992 2.892l-2.496.72c-.248-.728-.656-1.292-1.224-1.692a3.196 3.196 0 0 0-1.932-.612c-.824 0-1.5.196-2.028.588-.528.384-.92.912-1.176 1.584-.256.672-.388 1.44-.396 2.304.008 1.336.312 2.416.912 3.24.608.824 1.504 1.236 2.688 1.236.808 0 1.46-.184 1.956-.552.504-.376.888-.912 1.152-1.608l2.544.6c-.424 1.264-1.124 2.236-2.1 2.916-.976.672-2.16 1.008-3.552 1.008Zm12.893 0c-1.296 0-2.42-.292-3.372-.876a5.904 5.904 0 0 1-2.208-2.412c-.512-1.032-.768-2.22-.768-3.564 0-1.352.264-2.54.792-3.564.528-1.032 1.268-1.832 2.22-2.4.952-.576 2.064-.864 3.336-.864 1.296 0 2.42.292 3.372.876a5.904 5.904 0 0 1 2.208 2.412c.52 1.024.78 2.204.78 3.54 0 1.352-.264 2.544-.792 3.576a5.904 5.904 0 0 1-2.208 2.412c-.952.576-2.072.864-3.36.864Zm0-2.364c1.24 0 2.164-.416 2.772-1.248.616-.84.924-1.92.924-3.24 0-1.352-.312-2.432-.936-3.24-.616-.816-1.536-1.224-2.76-1.224-.84 0-1.532.192-2.076.576-.544.376-.948.9-1.212 1.572-.264.664-.396 1.436-.396 2.316 0 1.36.312 2.448.936 3.264.624.816 1.54 1.224 2.748 1.224Zm13.401 2.352c-.896 0-1.648-.144-2.256-.432a4.265 4.265 0 0 1-1.488-1.128 5.41 5.41 0 0 1-.864-1.536 7.884 7.884 0 0 1-.408-1.62 10.458 10.458 0 0 1-.108-1.392v-7.2h2.544v6.372c0 .504.04 1.024.12 1.56.088.528.248 1.02.48 1.476.24.456.572.824.996 1.104.432.28.992.42 1.68.42.448 0 .872-.072 1.272-.216.4-.152.748-.392 1.044-.72.304-.328.54-.76.708-1.296.176-.536.264-1.188.264-1.956l1.56.588c0 1.176-.22 2.216-.66 3.12a4.974 4.974 0 0 1-1.896 2.1c-.824.504-1.82.756-2.988.756Zm4.284-.348v-3.744h-.3v-9.216h2.532v12.96h-2.232Zm14.214 0v-6.372c0-.504-.044-1.02-.132-1.548a4.64 4.64 0 0 0-.48-1.488 2.816 2.816 0 0 0-.996-1.104c-.424-.28-.98-.42-1.668-.42a3.55 3.55 0 0 0-1.272.228c-.4.144-.752.38-1.056.708-.296.328-.532.76-.708 1.296-.168.536-.252 1.188-.252 1.956l-1.56-.588c0-1.176.22-2.212.66-3.108a4.959 4.959 0 0 1 1.896-2.112c.824-.504 1.82-.756 2.988-.756.896 0 1.648.144 2.256.432.608.288 1.1.668 1.476 1.14.384.464.676.972.876 1.524.2.552.336 1.092.408 1.62.072.528.108.992.108 1.392v7.2h-2.544Zm-9.108 0v-12.96h2.244v3.744h.3v9.216h-2.544Zm21.713 0c-.816.16-1.616.228-2.4.204-.784-.024-1.484-.176-2.1-.456a2.862 2.862 0 0 1-1.392-1.32 3.86 3.86 0 0 1-.456-1.632 67.035 67.035 0 0 1-.024-1.896v-11.46h2.52v11.34c0 .52.004.972.012 1.356.016.384.1.708.252.972.288.496.744.78 1.368.852.632.064 1.372.036 2.22-.084v2.124Zm-8.856-10.944v-2.016h8.856v2.016h-8.856Zm15.433 10.944v-17.28h2.268l6.264 12.996 6.228-12.996h2.292v17.268H232v-11.82l-5.58 11.832h-1.14l-5.592-11.832v11.832h-2.364Zm23.594.36c-.96 0-1.764-.176-2.412-.528-.648-.36-1.14-.832-1.476-1.416a3.944 3.944 0 0 1-.492-1.944c0-.656.116-1.232.348-1.728a3.33 3.33 0 0 1 1.032-1.26c.456-.352 1.016-.636 1.68-.852a18.421 18.421 0 0 1 1.956-.444 66.481 66.481 0 0 1 2.292-.36c.808-.112 1.608-.224 2.4-.336l-.912.504c.016-1.016-.2-1.768-.648-2.256-.44-.496-1.2-.744-2.28-.744-.68 0-1.304.16-1.872.48-.568.312-.964.832-1.188 1.56l-2.34-.72c.32-1.112.928-1.996 1.824-2.652.904-.656 2.104-.984 3.6-.984 1.16 0 2.168.2 3.024.6a3.73 3.73 0 0 1 1.896 1.872c.208.424.336.872.384 1.344.048.472.072.98.072 1.524v7.98h-2.22v-2.964l.432.384c-.536.992-1.22 1.732-2.052 2.22-.824.48-1.84.72-3.048.72Zm.444-2.052c.712 0 1.324-.124 1.836-.372.512-.256.924-.58 1.236-.972.312-.392.516-.8.612-1.224a4.3 4.3 0 0 0 .228-1.296c.024-.48.036-.864.036-1.152l.816.3c-.792.12-1.512.228-2.16.324a54.94 54.94 0 0 0-1.764.288c-.52.088-.984.196-1.392.324-.344.12-.652.264-.924.432a2.117 2.117 0 0 0-.636.612c-.152.24-.228.532-.228.876 0 .336.084.648.252.936.168.28.424.504.768.672.344.168.784.252 1.32.252Zm18.176 1.692v-6.372c0-.504-.044-1.02-.132-1.548a4.64 4.64 0 0 0-.48-1.488 2.816 2.816 0 0 0-.996-1.104c-.424-.28-.98-.42-1.668-.42a3.55 3.55 0 0 0-1.272.228c-.4.144-.752.38-1.056.708-.296.328-.532.76-.708 1.296-.168.536-.252 1.188-.252 1.956l-1.56-.588c0-1.176.22-2.212.66-3.108a4.959 4.959 0 0 1 1.896-2.112c.824-.504 1.82-.756 2.988-.756.896 0 1.648.144 2.256.432.608.288 1.1.668 1.476 1.14.384.464.676.972.876 1.524.2.552.336 1.092.408 1.62.072.528.108.992.108 1.392v7.2h-2.544Zm-9.108 0v-12.96h2.244v3.744h.3v9.216h-2.544Zm17.958.36c-.96 0-1.764-.176-2.412-.528-.648-.36-1.14-.832-1.476-1.416a3.944 3.944 0 0 1-.492-1.944c0-.656.116-1.232.348-1.728a3.33 3.33 0 0 1 1.032-1.26c.456-.352 1.016-.636 1.68-.852a18.421 18.421 0 0 1 1.956-.444 66.481 66.481 0 0 1 2.292-.36c.808-.112 1.608-.224 2.4-.336l-.912.504c.016-1.016-.2-1.768-.648-2.256-.44-.496-1.2-.744-2.28-.744-.68 0-1.304.16-1.872.48-.568.312-.964.832-1.188 1.56l-2.34-.72c.32-1.112.928-1.996 1.824-2.652.904-.656 2.104-.984 3.6-.984 1.16 0 2.168.2 3.024.6a3.73 3.73 0 0 1 1.896 1.872c.208.424.336.872.384 1.344.048.472.072.98.072 1.524v7.98h-2.22v-2.964l.432.384c-.536.992-1.22 1.732-2.052 2.22-.824.48-1.84.72-3.048.72Zm.444-2.052c.712 0 1.324-.124 1.836-.372.512-.256.924-.58 1.236-.972.312-.392.516-.8.612-1.224a4.3 4.3 0 0 0 .228-1.296c.024-.48.036-.864.036-1.152l.816.3c-.792.12-1.512.228-2.16.324a54.94 54.94 0 0 0-1.764.288c-.52.088-.984.196-1.392.324-.344.12-.652.264-.924.432a2.117 2.117 0 0 0-.636.612c-.152.24-.228.532-.228.876 0 .336.084.648.252.936.168.28.424.504.768.672.344.168.784.252 1.32.252Zm14.42 7.812a6.443 6.443 0 0 1-2.028-.324 5.795 5.795 0 0 1-1.776-.96 5.2 5.2 0 0 1-1.332-1.548l2.316-1.176c.28.552.68.956 1.2 1.212.52.256 1.068.384 1.644.384.712 0 1.32-.128 1.824-.384a2.472 2.472 0 0 0 1.14-1.128c.264-.504.392-1.128.384-1.872v-3.624h.3v-9.66h2.22v13.308c0 .344-.012.672-.036.984a7.527 7.527 0 0 1-.132.936c-.184.872-.536 1.592-1.056 2.16-.512.568-1.168.992-1.968 1.272-.792.28-1.692.42-2.7.42Zm-.192-5.76c-1.208 0-2.252-.3-3.132-.9-.872-.6-1.548-1.416-2.028-2.448-.472-1.04-.708-2.208-.708-3.504 0-1.304.24-2.468.72-3.492.48-1.032 1.16-1.844 2.04-2.436.888-.6 1.94-.9 3.156-.9 1.224 0 2.252.3 3.084.9.84.592 1.472 1.404 1.896 2.436.432 1.032.648 2.196.648 3.492 0 1.296-.216 2.46-.648 3.492-.432 1.032-1.068 1.852-1.908 2.46-.84.6-1.88.9-3.12.9Zm.348-2.268c.824 0 1.496-.196 2.016-.588.52-.392.9-.932 1.14-1.62.24-.688.36-1.48.36-2.376 0-.896-.124-1.688-.372-2.376-.24-.688-.616-1.224-1.128-1.608-.504-.384-1.148-.576-1.932-.576-.832 0-1.516.204-2.052.612-.536.408-.936.956-1.2 1.644-.256.688-.384 1.456-.384 2.304 0 .856.128 1.632.384 2.328.264.688.656 1.236 1.176 1.644.528.408 1.192.612 1.992.612Zm14.374 2.268c-1.288 0-2.42-.28-3.396-.84a5.973 5.973 0 0 1-2.268-2.364c-.536-1.016-.804-2.192-.804-3.528 0-1.416.264-2.644.792-3.684.536-1.04 1.28-1.844 2.232-2.412.952-.568 2.06-.852 3.324-.852 1.32 0 2.444.308 3.372.924.928.608 1.62 1.476 2.076 2.604.464 1.128.648 2.468.552 4.02h-2.508v-.912c-.016-1.504-.304-2.616-.864-3.336-.552-.72-1.396-1.08-2.532-1.08-1.256 0-2.2.396-2.832 1.188-.632.792-.948 1.936-.948 3.432 0 1.424.316 2.528.948 3.312.632.776 1.544 1.164 2.736 1.164.784 0 1.46-.176 2.028-.528.576-.36 1.024-.872 1.344-1.536l2.46.78c-.504 1.16-1.268 2.06-2.292 2.7-1.024.632-2.164.948-3.42.948Zm-4.62-6.132v-1.956h9.252v1.956h-9.252Zm12.712 5.772v-12.96h2.232v3.144l-.312-.408c.16-.416.368-.796.624-1.14.256-.352.552-.64.888-.864.328-.24.692-.424 1.092-.552a4.785 4.785 0 0 1 1.248-.24 4.766 4.766 0 0 1 1.224.06v2.352a4.065 4.065 0 0 0-1.416-.096 3.098 3.098 0 0 0-1.416.492 3.182 3.182 0 0 0-.972.96c-.232.376-.4.796-.504 1.26-.104.456-.156.94-.156 1.452v6.54h-2.532Z"/><path stroke="#DFDFDF" d="M118 383.889h364"/><path fill="#A9A9A9" d="M123.005 419.099c-1.003 0-1.846-.222-2.527-.665-.681-.448-1.195-1.067-1.54-1.855-.345-.789-.518-1.699-.518-2.73 0-1.032.173-1.942.518-2.73.345-.789.859-1.405 1.54-1.848.681-.448 1.524-.672 2.527-.672 1.171 0 2.121.303 2.849.91.733.606 1.23 1.418 1.491 2.436l-.833.203c-.215-.845-.616-1.515-1.204-2.009-.583-.5-1.351-.749-2.303-.749-.826 0-1.514.189-2.065.567-.546.378-.959.903-1.239 1.575-.275.672-.415 1.444-.42 2.317-.009.872.124 1.645.399 2.317.28.667.698 1.192 1.253 1.575.555.378 1.246.567 2.072.567.952 0 1.72-.25 2.303-.749.588-.5.989-1.169 1.204-2.009l.833.203c-.261 1.017-.758 1.829-1.491 2.436-.728.606-1.678.91-2.849.91Zm5.873-.21v-7.56h.735v1.813l-.182-.238c.084-.215.189-.413.315-.595a2.45 2.45 0 0 1 .399-.455c.201-.187.437-.327.707-.42a2.82 2.82 0 0 1 .819-.168c.276-.019.525.002.749.063v.763a2.685 2.685 0 0 0-.952-.042 1.797 1.797 0 0 0-.945.434 2.003 2.003 0 0 0-.56.784 3.473 3.473 0 0 0-.224.931 9.561 9.561 0 0 0-.049.945v3.745h-.812Zm7.846.21c-.723 0-1.349-.161-1.876-.483a3.27 3.27 0 0 1-1.225-1.379c-.289-.598-.434-1.302-.434-2.114 0-.826.142-1.538.427-2.135.289-.602.695-1.064 1.218-1.386.527-.322 1.153-.483 1.876-.483.733 0 1.358.168 1.876.504.523.331.919.812 1.19 1.442.275.63.406 1.388.392 2.275h-.84v-.28c-.023-1.036-.257-1.825-.7-2.366-.443-.542-1.078-.812-1.904-.812-.854 0-1.514.282-1.981.847-.462.56-.693 1.353-.693 2.38 0 1.017.231 1.806.693 2.366.467.56 1.122.84 1.967.84.583 0 1.092-.136 1.526-.406a2.892 2.892 0 0 0 1.043-1.176l.728.322c-.303.653-.742 1.157-1.316 1.512-.574.354-1.23.532-1.967.532Zm-2.982-3.759v-.728h5.971v.728h-5.971Zm10.879 3.759c-.714 0-1.318-.175-1.813-.525-.49-.355-.865-.833-1.127-1.435-.256-.607-.385-1.288-.385-2.044 0-.747.129-1.421.385-2.023.257-.602.626-1.078 1.106-1.428.486-.35 1.071-.525 1.757-.525.705 0 1.3.172 1.785.518.486.345.852.819 1.099 1.421.248.597.371 1.276.371 2.037 0 .756-.123 1.435-.371 2.037-.247.602-.606 1.08-1.078 1.435-.471.354-1.047.532-1.729.532Zm.049-.77c.565 0 1.034-.14 1.407-.42.378-.285.658-.67.84-1.155.187-.49.28-1.043.28-1.659 0-.621-.093-1.174-.28-1.659-.186-.486-.466-.864-.84-1.134-.373-.276-.837-.413-1.393-.413-.574 0-1.047.142-1.421.427-.373.28-.651.662-.833 1.148-.182.48-.273 1.024-.273 1.631 0 .611.094 1.162.28 1.652.192.485.472.87.84 1.155.374.284.838.427 1.393.427Zm2.527.56v-5.824h-.07v-4.256h.805v10.08h-.735Zm2.835-9.086v-1.029h.805v1.029h-.805Zm0 9.086v-7.56h.805v7.56h-.805Zm6.92 0a4.345 4.345 0 0 1-1.19.098 2.604 2.604 0 0 1-1.05-.259 1.537 1.537 0 0 1-.686-.728 2.129 2.129 0 0 1-.21-.805 18.25 18.25 0 0 1-.021-.931v-7.035h.812v7.021c0 .317.002.581.007.791.009.205.058.394.147.567.168.322.434.518.798.588.364.065.828.053 1.393-.035v.728Zm-4.851-6.825v-.735h4.851v.735h-4.851Zm13.123 7.035c-1.004 0-1.846-.222-2.527-.665-.682-.448-1.195-1.067-1.54-1.855-.346-.789-.518-1.699-.518-2.73 0-1.032.172-1.942.518-2.73.345-.789.858-1.405 1.54-1.848.681-.448 1.523-.672 2.527-.672 1.171 0 2.121.303 2.849.91.732.606 1.229 1.418 1.491 2.436l-.833.203c-.215-.845-.616-1.515-1.204-2.009-.584-.5-1.351-.749-2.303-.749-.826 0-1.515.189-2.065.567-.546.378-.959.903-1.239 1.575-.276.672-.416 1.444-.42 2.317-.01.872.123 1.645.399 2.317.28.667.697 1.192 1.253 1.575.555.378 1.246.567 2.072.567.952 0 1.719-.25 2.303-.749.588-.5.989-1.169 1.204-2.009l.833.203c-.262 1.017-.759 1.829-1.491 2.436-.728.606-1.678.91-2.849.91Zm8.057 0c-.583 0-1.068-.103-1.456-.308a2.116 2.116 0 0 1-.861-.812 2.228 2.228 0 0 1-.287-1.106c0-.43.089-.789.266-1.078a2.11 2.11 0 0 1 .721-.7 3.677 3.677 0 0 1 1.001-.399c.416-.094.864-.173 1.344-.238.481-.07.938-.131 1.372-.182.439-.052.796-.096 1.071-.133l-.294.175c.019-.817-.135-1.424-.462-1.82-.322-.402-.891-.602-1.708-.602-.574 0-1.047.13-1.421.392-.368.256-.627.655-.777 1.197l-.826-.231c.173-.686.521-1.214 1.043-1.582.523-.369 1.193-.553 2.009-.553.696 0 1.279.135 1.75.406.476.27.808.651.994 1.141.08.2.133.436.161.707.028.266.042.534.042.805v4.711h-.735v-1.988l.273.07c-.228.681-.627 1.206-1.197 1.575-.569.368-1.243.553-2.023.553Zm.042-.742c.514 0 .964-.091 1.351-.273.388-.187.7-.446.938-.777.243-.336.397-.731.462-1.183.047-.252.073-.525.077-.819.005-.294.007-.511.007-.651l.35.224a48.44 48.44 0 0 1-1.092.119c-.42.042-.849.093-1.288.154-.438.06-.835.137-1.19.231-.219.06-.441.149-.665.266a1.579 1.579 0 0 0-.553.469c-.144.2-.217.455-.217.763 0 .228.056.457.168.686.117.228.308.417.574.567.266.149.626.224 1.078.224Zm5.458.532v-7.56h.735v1.813l-.182-.238c.084-.215.189-.413.315-.595a2.38 2.38 0 0 1 .399-.455c.2-.187.436-.327.707-.42.27-.098.543-.154.819-.168.275-.019.525.002.749.063v.763a2.686 2.686 0 0 0-.952-.042 1.797 1.797 0 0 0-.945.434 1.983 1.983 0 0 0-.56.784 3.4 3.4 0 0 0-.224.931 9.265 9.265 0 0 0-.049.945v3.745h-.812Zm7.635.21c-.714 0-1.318-.175-1.813-.525-.49-.355-.865-.833-1.127-1.435-.256-.607-.385-1.288-.385-2.044 0-.747.129-1.421.385-2.023.257-.602.626-1.078 1.106-1.428.486-.35 1.071-.525 1.757-.525.705 0 1.3.172 1.785.518.486.345.852.819 1.099 1.421.248.597.371 1.276.371 2.037 0 .756-.123 1.435-.371 2.037-.247.602-.606 1.08-1.078 1.435-.471.354-1.047.532-1.729.532Zm.049-.77c.565 0 1.034-.14 1.407-.42.378-.285.658-.67.84-1.155.187-.49.28-1.043.28-1.659 0-.621-.093-1.174-.28-1.659-.186-.486-.466-.864-.84-1.134-.373-.276-.837-.413-1.393-.413-.574 0-1.047.142-1.421.427-.373.28-.651.662-.833 1.148-.182.48-.273 1.024-.273 1.631 0 .611.094 1.162.28 1.652.192.485.472.87.84 1.155.374.284.838.427 1.393.427Zm2.527.56v-5.824h-.07v-4.256h.805v10.08h-.735Zm5.778 0v-10.08h.805v10.08h-.805Zm5.145 0 3.57-10.08h1.001l3.57 10.08h-.854l-3.43-9.66h.406l-3.409 9.66h-.854Zm1.477-2.534v-.763h5.18v.763h-5.18Zm11.005 2.744c-.756 0-1.393-.168-1.911-.504a3.25 3.25 0 0 1-1.183-1.407c-.266-.602-.404-1.295-.413-2.079.009-.798.149-1.496.42-2.093.275-.602.672-1.069 1.19-1.4.518-.332 1.153-.497 1.904-.497.733 0 1.377.177 1.932.532.56.35.947.833 1.162 1.449l-.784.287a2.236 2.236 0 0 0-.903-1.092 2.572 2.572 0 0 0-1.414-.392c-.597 0-1.09.137-1.477.413-.387.27-.677.646-.868 1.127-.191.48-.292 1.036-.301 1.666.014.966.24 1.743.679 2.331.443.583 1.099.875 1.967.875.537 0 1.001-.124 1.393-.371.397-.248.7-.607.91-1.078l.798.273c-.294.639-.705 1.127-1.232 1.463-.527.331-1.15.497-1.869.497Zm7.451 0c-.756 0-1.393-.168-1.911-.504a3.25 3.25 0 0 1-1.183-1.407c-.266-.602-.403-1.295-.413-2.079.01-.798.15-1.496.42-2.093.276-.602.672-1.069 1.19-1.4.518-.332 1.153-.497 1.904-.497.733 0 1.377.177 1.932.532.56.35.948.833 1.162 1.449l-.784.287a2.236 2.236 0 0 0-.903-1.092 2.57 2.57 0 0 0-1.414-.392c-.597 0-1.089.137-1.477.413-.387.27-.676.646-.868 1.127-.191.48-.291 1.036-.301 1.666.014.966.241 1.743.679 2.331.444.583 1.099.875 1.967.875.537 0 1.001-.124 1.393-.371.397-.248.7-.607.91-1.078l.798.273c-.294.639-.704 1.127-1.232 1.463-.527.331-1.15.497-1.869.497Zm7.465 0c-.751 0-1.388-.171-1.911-.511a3.276 3.276 0 0 1-1.197-1.414c-.275-.602-.413-1.295-.413-2.079 0-.789.14-1.482.42-2.079a3.222 3.222 0 0 1 1.204-1.4c.528-.332 1.16-.497 1.897-.497.752 0 1.389.17 1.911.511.528.336.927.802 1.197 1.4.276.597.413 1.285.413 2.065 0 .798-.137 1.498-.413 2.1a3.207 3.207 0 0 1-1.204 1.4c-.527.336-1.162.504-1.904.504Zm0-.784c.892 0 1.557-.299 1.995-.896.444-.598.665-1.372.665-2.324 0-.971-.221-1.746-.665-2.324-.443-.579-1.108-.868-1.995-.868-.602 0-1.099.137-1.491.413-.392.27-.686.646-.882 1.127-.191.476-.287 1.026-.287 1.652 0 .97.224 1.75.672 2.338.453.588 1.116.882 1.988.882Zm7.967.749c-.416 0-.789-.061-1.12-.182a2.625 2.625 0 0 1-.854-.511 2.916 2.916 0 0 1-.602-.784 3.977 3.977 0 0 1-.357-.994 5.509 5.509 0 0 1-.112-1.127v-4.137h.812v3.934c0 .476.046.9.14 1.274.098.373.242.69.434.952.196.261.438.459.728.595.294.135.639.203 1.036.203.41 0 .765-.07 1.064-.21.303-.145.55-.346.742-.602.196-.257.34-.56.434-.91.098-.355.147-.74.147-1.155l.637.077c0 .816-.14 1.491-.42 2.023-.276.527-.649.919-1.12 1.176a3.318 3.318 0 0 1-1.589.378Zm2.569-.175v-1.701h-.077v-5.859h.812v7.56h-.735Zm8.225 0v-3.934c0-.476-.049-.901-.147-1.274a2.634 2.634 0 0 0-.434-.952 1.84 1.84 0 0 0-.728-.595c-.29-.136-.633-.203-1.029-.203-.411 0-.768.072-1.071.217-.299.14-.546.338-.742.595a2.715 2.715 0 0 0-.434.917c-.094.35-.14.732-.14 1.148l-.637-.077c0-.817.137-1.489.413-2.016.28-.532.655-.924 1.127-1.176a3.263 3.263 0 0 1 1.589-.385c.415 0 .786.06 1.113.182.331.121.618.294.861.518.242.219.443.48.602.784.158.298.275.627.35.987.079.359.119.735.119 1.127v4.137h-.812Zm-5.537 0v-7.56h.735v1.701h.077v5.859h-.812Zm12.173 0a4.348 4.348 0 0 1-1.19.098 2.604 2.604 0 0 1-1.05-.259 1.533 1.533 0 0 1-.686-.728 2.129 2.129 0 0 1-.21-.805 18.25 18.25 0 0 1-.021-.931v-7.035h.812v7.021c0 .317.002.581.007.791.009.205.058.394.147.567.168.322.434.518.798.588.364.065.828.053 1.393-.035v.728Zm-4.851-6.825v-.735h4.851v.735h-4.851Zm10.862 6.825v-9.163l-1.904 1.141v-.924l1.904-1.134h.812v10.08h-.812Zm6.811-10.29c.625 0 1.192.154 1.701.462.513.303.922.714 1.225 1.232.308.518.462 1.094.462 1.729v3.633a3.403 3.403 0 0 1-1.687 2.989 3.376 3.376 0 0 1-1.736.455 3.346 3.346 0 0 1-2.856-1.561l.651-.469c.224.368.532.669.924.903.392.228.819.343 1.281.343.499 0 .945-.122 1.337-.364.392-.243.7-.563.924-.959.229-.397.343-.826.343-1.288v-2.373l.245.28a3.562 3.562 0 0 1-1.197 1.232 3.081 3.081 0 0 1-1.666.469c-.621 0-1.183-.15-1.687-.448a3.388 3.388 0 0 1-1.204-1.204 3.283 3.283 0 0 1-.448-1.694c0-.621.154-1.186.462-1.694a3.51 3.51 0 0 1 1.225-1.218 3.274 3.274 0 0 1 1.701-.455Zm0 .798c-.476 0-.91.114-1.302.343a2.612 2.612 0 0 0-.931.931 2.495 2.495 0 0 0-.343 1.295c0 .476.114.91.343 1.302.233.387.544.697.931.931.392.228.826.343 1.302.343.476 0 .908-.115 1.295-.343.392-.234.702-.544.931-.931.229-.392.343-.826.343-1.302 0-.476-.114-.908-.343-1.295a2.542 2.542 0 0 0-.931-.931 2.495 2.495 0 0 0-1.295-.343Zm8.318 9.702a3.349 3.349 0 0 1-1.463-.322 3.34 3.34 0 0 1-1.134-.889 3.5 3.5 0 0 1-.658-1.302l.77-.21c.102.392.28.732.532 1.022.252.284.548.506.889.665.34.154.697.231 1.071.231.49 0 .928-.117 1.316-.35a2.64 2.64 0 0 0 .917-.938c.228-.392.343-.819.343-1.281 0-.486-.119-.922-.357-1.309a2.664 2.664 0 0 0-.945-.924 2.459 2.459 0 0 0-1.274-.343c-.5 0-.938.116-1.316.35a2.696 2.696 0 0 0-.903.896l-.77-.378.308-5.208h5.348v.784h-5.047l.476-.441-.294 4.732-.238-.336c.294-.36.658-.644 1.092-.854.434-.21.898-.315 1.393-.315a3.23 3.23 0 0 1 1.68.448 3.36 3.36 0 0 1 1.204 1.211 3.21 3.21 0 0 1 .455 1.687 3.22 3.22 0 0 1-.462 1.687 3.545 3.545 0 0 1-1.239 1.225 3.233 3.233 0 0 1-1.694.462ZM119.12 450.889v-10.08h.805v10.08h-.805Zm8.446 0v-3.934c0-.476-.049-.901-.147-1.274a2.634 2.634 0 0 0-.434-.952 1.84 1.84 0 0 0-.728-.595c-.29-.136-.633-.203-1.029-.203-.411 0-.768.072-1.071.217-.299.14-.546.338-.742.595a2.715 2.715 0 0 0-.434.917c-.094.35-.14.732-.14 1.148l-.637-.077c0-.817.137-1.489.413-2.016.28-.532.655-.924 1.127-1.176a3.263 3.263 0 0 1 1.589-.385c.415 0 .786.06 1.113.182.331.121.618.294.861.518.242.219.443.48.602.784.158.298.275.627.35.987.079.359.119.735.119 1.127v4.137h-.812Zm-5.537 0v-7.56h.735v1.701h.077v5.859h-.812Zm10.955.196c-.873 0-1.594-.185-2.163-.553a2.332 2.332 0 0 1-1.05-1.54l.826-.14c.117.448.392.805.826 1.071.434.266.966.399 1.596.399.625 0 1.122-.133 1.491-.399s.553-.63.553-1.092c0-.252-.058-.458-.175-.616-.112-.164-.336-.313-.672-.448-.336-.136-.835-.294-1.498-.476-.7-.187-1.248-.374-1.645-.56-.392-.187-.67-.399-.833-.637-.159-.238-.238-.53-.238-.875 0-.416.119-.78.357-1.092.238-.318.569-.565.994-.742.429-.178.924-.266 1.484-.266.56 0 1.064.093 1.512.28.448.182.81.438 1.085.77.275.326.434.707.476 1.141l-.826.154a1.659 1.659 0 0 0-.735-1.148c-.411-.285-.924-.43-1.54-.434-.583-.01-1.059.107-1.428.35-.369.238-.553.553-.553.945 0 .224.063.415.189.574.131.154.359.296.686.427.327.13.789.27 1.386.42.728.186 1.295.378 1.701.574.411.196.7.427.868.693.168.261.252.585.252.973 0 .7-.261 1.25-.784 1.652-.518.396-1.232.595-2.142.595Zm8.491-.196a4.345 4.345 0 0 1-1.19.098 2.604 2.604 0 0 1-1.05-.259 1.537 1.537 0 0 1-.686-.728 2.129 2.129 0 0 1-.21-.805 18.25 18.25 0 0 1-.021-.931v-7.035h.812v7.021c0 .317.003.581.007.791.01.205.059.394.147.567.168.322.434.518.798.588.364.065.829.053 1.393-.035v.728Zm-4.851-6.825v-.735h4.851v.735h-4.851Zm8.479 7.035c-.583 0-1.068-.103-1.456-.308a2.116 2.116 0 0 1-.861-.812 2.228 2.228 0 0 1-.287-1.106c0-.43.089-.789.266-1.078a2.11 2.11 0 0 1 .721-.7 3.677 3.677 0 0 1 1.001-.399c.416-.094.864-.173 1.344-.238.481-.07.938-.131 1.372-.182.439-.052.796-.096 1.071-.133l-.294.175c.019-.817-.135-1.424-.462-1.82-.322-.402-.891-.602-1.708-.602-.574 0-1.047.13-1.421.392-.368.256-.627.655-.777 1.197l-.826-.231c.173-.686.521-1.214 1.043-1.582.523-.369 1.193-.553 2.009-.553.696 0 1.279.135 1.75.406.476.27.808.651.994 1.141.08.2.133.436.161.707.028.266.042.534.042.805v4.711h-.735v-1.988l.273.07c-.228.681-.627 1.206-1.197 1.575-.569.368-1.243.553-2.023.553Zm.042-.742c.514 0 .964-.091 1.351-.273.388-.187.7-.446.938-.777.243-.336.397-.731.462-1.183.047-.252.073-.525.077-.819.005-.294.007-.511.007-.651l.35.224a48.44 48.44 0 0 1-1.092.119c-.42.042-.849.093-1.288.154-.438.06-.835.137-1.19.231-.219.06-.441.149-.665.266a1.579 1.579 0 0 0-.553.469c-.144.2-.217.455-.217.763 0 .228.056.457.168.686.117.228.308.417.574.567.266.149.626.224 1.078.224Zm5.598.532v-10.29h.805v10.29h-.805Zm3.049 0v-10.29h.805v10.29h-.805Zm11.904 0 .014-5.082c0-.612-.175-1.09-.525-1.435-.346-.35-.777-.525-1.295-.525-.294 0-.586.067-.875.203a1.705 1.705 0 0 0-.714.658c-.192.303-.287.714-.287 1.232l-.567-.091c-.019-.551.081-1.029.301-1.435.224-.411.532-.728.924-.952a2.697 2.697 0 0 1 1.351-.336c.742 0 1.341.228 1.799.686.462.457.693 1.082.693 1.876l-.014 5.201h-.805Zm-8.995 0v-7.56h.735v1.701h.07v5.859h-.805Zm4.501 0 .014-5.005c0-.626-.171-1.12-.511-1.484-.341-.369-.784-.553-1.33-.553-.556 0-1.006.191-1.351.574-.346.378-.518.884-.518 1.519l-.56-.28c0-.49.112-.924.336-1.302.224-.383.529-.684.917-.903.392-.22.84-.329 1.344-.329.452 0 .865.095 1.239.287.373.191.672.48.896.868.224.382.336.863.336 1.442l-.014 5.166h-.798Zm10.221.21c-.723 0-1.349-.161-1.876-.483a3.27 3.27 0 0 1-1.225-1.379c-.289-.598-.434-1.302-.434-2.114 0-.826.142-1.538.427-2.135.289-.602.695-1.064 1.218-1.386.527-.322 1.153-.483 1.876-.483.733 0 1.358.168 1.876.504.523.331.919.812 1.19 1.442.275.63.406 1.388.392 2.275h-.84v-.28c-.023-1.036-.257-1.825-.7-2.366-.443-.542-1.078-.812-1.904-.812-.854 0-1.514.282-1.981.847-.462.56-.693 1.353-.693 2.38 0 1.017.231 1.806.693 2.366.467.56 1.122.84 1.967.84.583 0 1.092-.136 1.526-.406a2.892 2.892 0 0 0 1.043-1.176l.728.322c-.303.653-.742 1.157-1.316 1.512-.574.354-1.23.532-1.967.532Zm-2.982-3.759v-.728h5.971v.728h-5.971Zm13.306 3.549v-3.934c0-.476-.049-.901-.147-1.274a2.617 2.617 0 0 0-.434-.952 1.833 1.833 0 0 0-.728-.595c-.289-.136-.632-.203-1.029-.203-.41 0-.767.072-1.071.217-.298.14-.546.338-.742.595a2.734 2.734 0 0 0-.434.917c-.093.35-.14.732-.14 1.148l-.637-.077c0-.817.138-1.489.413-2.016.28-.532.656-.924 1.127-1.176a3.266 3.266 0 0 1 1.589-.385c.416 0 .787.06 1.113.182.332.121.619.294.861.518.243.219.444.48.602.784.159.298.276.627.35.987.08.359.119.735.119 1.127v4.137h-.812Zm-5.537 0v-7.56h.735v1.701h.077v5.859h-.812Zm12.174 0a4.348 4.348 0 0 1-1.19.098 2.604 2.604 0 0 1-1.05-.259 1.533 1.533 0 0 1-.686-.728 2.129 2.129 0 0 1-.21-.805 18.25 18.25 0 0 1-.021-.931v-7.035h.812v7.021c0 .317.002.581.007.791.009.205.058.394.147.567.168.322.434.518.798.588.364.065.828.053 1.393-.035v.728Zm-4.851-6.825v-.735h4.851v.735h-4.851Zm9.237 6.825v-10.08h.805v9.296h4.9v.784h-5.705Zm10.002.21c-.751 0-1.388-.171-1.911-.511a3.276 3.276 0 0 1-1.197-1.414c-.275-.602-.413-1.295-.413-2.079 0-.789.14-1.482.42-2.079a3.222 3.222 0 0 1 1.204-1.4c.528-.332 1.16-.497 1.897-.497.752 0 1.389.17 1.911.511.528.336.927.802 1.197 1.4.276.597.413 1.285.413 2.065 0 .798-.137 1.498-.413 2.1a3.207 3.207 0 0 1-1.204 1.4c-.527.336-1.162.504-1.904.504Zm0-.784c.892 0 1.557-.299 1.995-.896.444-.598.665-1.372.665-2.324 0-.971-.221-1.746-.665-2.324-.443-.579-1.108-.868-1.995-.868-.602 0-1.099.137-1.491.413-.392.27-.686.646-.882 1.127-.191.476-.287 1.026-.287 1.652 0 .97.224 1.75.672 2.338.453.588 1.116.882 1.988.882Zm7.246.784c-.584 0-1.069-.103-1.456-.308a2.103 2.103 0 0 1-.861-.812 2.217 2.217 0 0 1-.287-1.106c0-.43.088-.789.266-1.078.182-.29.422-.523.721-.7a3.664 3.664 0 0 1 1.001-.399 15.49 15.49 0 0 1 1.344-.238c.48-.07.938-.131 1.372-.182.438-.052.795-.096 1.071-.133l-.294.175c.018-.817-.136-1.424-.462-1.82-.322-.402-.892-.602-1.708-.602-.574 0-1.048.13-1.421.392-.369.256-.628.655-.777 1.197l-.826-.231c.172-.686.52-1.214 1.043-1.582.522-.369 1.192-.553 2.009-.553.695 0 1.278.135 1.75.406.476.27.807.651.994 1.141.079.2.133.436.161.707.028.266.042.534.042.805v4.711h-.735v-1.988l.273.07c-.229.681-.628 1.206-1.197 1.575-.57.368-1.244.553-2.023.553Zm.042-.742c.513 0 .963-.091 1.351-.273.387-.187.7-.446.938-.777.242-.336.396-.731.462-1.183.046-.252.072-.525.077-.819.004-.294.007-.511.007-.651l.35.224c-.304.037-.668.077-1.092.119-.42.042-.85.093-1.288.154-.439.06-.836.137-1.19.231-.22.06-.441.149-.665.266-.22.112-.404.268-.553.469-.145.2-.217.455-.217.763 0 .228.056.457.168.686.116.228.308.417.574.567.266.149.625.224 1.078.224Zm10.994.532v-3.934c0-.476-.049-.901-.147-1.274a2.617 2.617 0 0 0-.434-.952 1.833 1.833 0 0 0-.728-.595c-.289-.136-.632-.203-1.029-.203-.411 0-.768.072-1.071.217-.299.14-.546.338-.742.595a2.734 2.734 0 0 0-.434.917c-.093.35-.14.732-.14 1.148l-.637-.077c0-.817.138-1.489.413-2.016.28-.532.656-.924 1.127-1.176a3.263 3.263 0 0 1 1.589-.385c.415 0 .786.06 1.113.182.331.121.618.294.861.518.243.219.443.48.602.784.159.298.275.627.35.987.079.359.119.735.119 1.127v4.137h-.812Zm-5.537 0v-7.56h.735v1.701h.077v5.859h-.812Zm11.245 0v-10.08h.805v10.08h-.805Zm5.145 0 3.57-10.08h1.001l3.57 10.08h-.854l-3.43-9.66h.406l-3.409 9.66h-.854Zm1.477-2.534v-.763h5.18v.763h-5.18Zm11.005 2.744c-.756 0-1.393-.168-1.911-.504a3.25 3.25 0 0 1-1.183-1.407c-.266-.602-.403-1.295-.413-2.079.01-.798.15-1.496.42-2.093.276-.602.672-1.069 1.19-1.4.518-.332 1.153-.497 1.904-.497.733 0 1.377.177 1.932.532.56.35.948.833 1.162 1.449l-.784.287a2.236 2.236 0 0 0-.903-1.092 2.57 2.57 0 0 0-1.414-.392c-.597 0-1.089.137-1.477.413-.387.27-.676.646-.868 1.127-.191.48-.291 1.036-.301 1.666.014.966.241 1.743.679 2.331.444.583 1.099.875 1.967.875.537 0 1.001-.124 1.393-.371.397-.248.7-.607.91-1.078l.798.273c-.294.639-.704 1.127-1.232 1.463-.527.331-1.15.497-1.869.497Zm7.451 0c-.756 0-1.393-.168-1.911-.504a3.25 3.25 0 0 1-1.183-1.407c-.266-.602-.403-1.295-.413-2.079.01-.798.15-1.496.42-2.093.276-.602.672-1.069 1.19-1.4.518-.332 1.153-.497 1.904-.497.733 0 1.377.177 1.932.532.56.35.948.833 1.162 1.449l-.784.287a2.236 2.236 0 0 0-.903-1.092 2.57 2.57 0 0 0-1.414-.392c-.597 0-1.089.137-1.477.413-.387.27-.676.646-.868 1.127-.191.48-.291 1.036-.301 1.666.014.966.241 1.743.679 2.331.444.583 1.099.875 1.967.875.537 0 1.001-.124 1.393-.371.397-.248.7-.607.91-1.078l.798.273c-.294.639-.704 1.127-1.232 1.463-.527.331-1.15.497-1.869.497Zm7.466 0c-.752 0-1.389-.171-1.911-.511a3.263 3.263 0 0 1-1.197-1.414c-.276-.602-.413-1.295-.413-2.079 0-.789.14-1.482.42-2.079.28-.602.681-1.069 1.204-1.4.527-.332 1.159-.497 1.897-.497.751 0 1.388.17 1.911.511.527.336.926.802 1.197 1.4.275.597.413 1.285.413 2.065 0 .798-.138 1.498-.413 2.1a3.22 3.22 0 0 1-1.204 1.4c-.528.336-1.162.504-1.904.504Zm0-.784c.891 0 1.556-.299 1.995-.896.443-.598.665-1.372.665-2.324 0-.971-.222-1.746-.665-2.324-.444-.579-1.109-.868-1.995-.868-.602 0-1.099.137-1.491.413-.392.27-.686.646-.882 1.127-.192.476-.287 1.026-.287 1.652 0 .97.224 1.75.672 2.338.452.588 1.115.882 1.988.882Zm7.966.749c-.416 0-.789-.061-1.12-.182a2.625 2.625 0 0 1-.854-.511 2.916 2.916 0 0 1-.602-.784 3.977 3.977 0 0 1-.357-.994 5.509 5.509 0 0 1-.112-1.127v-4.137h.812v3.934c0 .476.046.9.14 1.274.098.373.242.69.434.952.196.261.438.459.728.595.294.135.639.203 1.036.203.41 0 .765-.07 1.064-.21.303-.145.55-.346.742-.602.196-.257.34-.56.434-.91.098-.355.147-.74.147-1.155l.637.077c0 .816-.14 1.491-.42 2.023-.276.527-.649.919-1.12 1.176a3.318 3.318 0 0 1-1.589.378Zm2.569-.175v-1.701h-.077v-5.859h.812v7.56h-.735Zm8.225 0v-3.934c0-.476-.049-.901-.147-1.274a2.634 2.634 0 0 0-.434-.952 1.84 1.84 0 0 0-.728-.595c-.29-.136-.633-.203-1.029-.203-.411 0-.768.072-1.071.217-.299.14-.546.338-.742.595a2.715 2.715 0 0 0-.434.917c-.094.35-.14.732-.14 1.148l-.637-.077c0-.817.137-1.489.413-2.016.28-.532.655-.924 1.127-1.176a3.263 3.263 0 0 1 1.589-.385c.415 0 .786.06 1.113.182.331.121.618.294.861.518.242.219.443.48.602.784.158.298.275.627.35.987.079.359.119.735.119 1.127v4.137h-.812Zm-5.537 0v-7.56h.735v1.701h.077v5.859h-.812Zm12.173 0a4.345 4.345 0 0 1-1.19.098 2.604 2.604 0 0 1-1.05-.259 1.537 1.537 0 0 1-.686-.728 2.129 2.129 0 0 1-.21-.805 18.25 18.25 0 0 1-.021-.931v-7.035h.812v7.021c0 .317.002.581.007.791.009.205.058.394.147.567.168.322.434.518.798.588.364.065.828.053 1.393-.035v.728Zm-4.851-6.825v-.735h4.851v.735h-4.851Zm10.862 6.825v-9.163l-1.904 1.141v-.924l1.904-1.134h.812v10.08h-.812Zm6.811-10.29c.625 0 1.192.154 1.701.462.513.303.922.714 1.225 1.232.308.518.462 1.094.462 1.729v3.633a3.403 3.403 0 0 1-1.687 2.989 3.376 3.376 0 0 1-1.736.455 3.346 3.346 0 0 1-2.856-1.561l.651-.469c.224.368.532.669.924.903.392.228.819.343 1.281.343.499 0 .945-.122 1.337-.364.392-.243.7-.563.924-.959.229-.397.343-.826.343-1.288v-2.373l.245.28a3.562 3.562 0 0 1-1.197 1.232 3.081 3.081 0 0 1-1.666.469c-.621 0-1.183-.15-1.687-.448a3.388 3.388 0 0 1-1.204-1.204 3.283 3.283 0 0 1-.448-1.694c0-.621.154-1.186.462-1.694a3.51 3.51 0 0 1 1.225-1.218 3.274 3.274 0 0 1 1.701-.455Zm0 .798c-.476 0-.91.114-1.302.343a2.612 2.612 0 0 0-.931.931 2.495 2.495 0 0 0-.343 1.295c0 .476.114.91.343 1.302.233.387.544.697.931.931.392.228.826.343 1.302.343.476 0 .908-.115 1.295-.343.392-.234.702-.544.931-.931.229-.392.343-.826.343-1.302 0-.476-.114-.908-.343-1.295a2.542 2.542 0 0 0-.931-.931 2.495 2.495 0 0 0-1.295-.343Zm8.731 9.702a3.295 3.295 0 0 1-1.708-.455 3.475 3.475 0 0 1-1.225-1.232 3.353 3.353 0 0 1-.455-1.729v-3.64c0-.644.151-1.225.455-1.743a3.378 3.378 0 0 1 2.968-1.701c.597 0 1.145.142 1.645.427.504.28.905.658 1.204 1.134l-.644.469a2.578 2.578 0 0 0-.924-.896 2.474 2.474 0 0 0-1.281-.343c-.5 0-.945.121-1.337.364a2.681 2.681 0 0 0-.931.959 2.494 2.494 0 0 0-.343 1.281v2.373l-.238-.28c.294-.504.69-.913 1.19-1.225a3.07 3.07 0 0 1 1.673-.476 3.19 3.19 0 0 1 1.68.455c.508.298.91.702 1.204 1.211a3.24 3.24 0 0 1 .448 1.68 3.21 3.21 0 0 1-.462 1.694 3.461 3.461 0 0 1-1.225 1.218 3.274 3.274 0 0 1-1.694.455Zm0-.791c.476 0 .907-.115 1.295-.343a2.543 2.543 0 0 0 1.274-2.233c0-.476-.115-.908-.343-1.295a2.542 2.542 0 0 0-.931-.931 2.498 2.498 0 0 0-1.295-.343c-.476 0-.91.114-1.302.343a2.604 2.604 0 0 0-.931.931 2.495 2.495 0 0 0-.343 1.295c0 .476.114.91.343 1.302.233.387.543.697.931.931.392.228.826.343 1.302.343Z"/><rect width="402" height="224" x="99" y="477" fill="#DCE6FF" rx="24"/><path fill="#4343C2" d="m123.32 520 3.632-11.52h2.824l3.632 11.52h-1.984l-3.296-10.336h.432L125.304 520h-1.984Zm2.024-2.496v-1.8h6.048v1.8h-6.048Zm12.75 2.744c-.64 0-1.168-.107-1.584-.32a2.796 2.796 0 0 1-.992-.816 3.584 3.584 0 0 1-.544-1.056 5.721 5.721 0 0 1-.232-1.056 8.993 8.993 0 0 1-.048-.816v-4.824h1.952v4.16c0 .267.019.568.056.904.038.331.123.651.256.96.139.304.342.555.608.752.272.197.638.296 1.096.296.246 0 .488-.04.728-.12.24-.08.456-.216.648-.408.198-.197.355-.467.472-.808.118-.341.176-.773.176-1.296l1.144.488c0 .736-.144 1.403-.432 2a3.395 3.395 0 0 1-1.256 1.432c-.554.352-1.237.528-2.048.528Zm2.824-.248v-2.68h-.232v-5.96h1.936V520h-1.704Zm9.016 0a7.859 7.859 0 0 1-1.68.136 3.85 3.85 0 0 1-1.464-.296 2.027 2.027 0 0 1-.984-.904 2.585 2.585 0 0 1-.312-1.144 47.319 47.319 0 0 1-.016-1.32v-7.512h1.92v7.4c0 .347.003.651.008.912.011.261.067.475.168.64.192.32.499.499.92.536.421.037.901.016 1.44-.064V520Zm-6.024-7.128v-1.512h6.024v1.512h-6.024Zm11.26 7.368c-.864 0-1.618-.195-2.264-.584a4.014 4.014 0 0 1-1.504-1.608c-.352-.688-.528-1.477-.528-2.368 0-.907.182-1.701.544-2.384a4.014 4.014 0 0 1 1.512-1.6c.646-.384 1.392-.576 2.24-.576.87 0 1.627.195 2.272.584a3.99 3.99 0 0 1 1.504 1.616c.358.683.536 1.469.536 2.36 0 .896-.181 1.688-.544 2.376a4 4 0 0 1-1.504 1.608c-.645.384-1.4.576-2.264.576Zm0-1.808c.768 0 1.339-.256 1.712-.768.374-.512.56-1.173.56-1.984 0-.837-.189-1.504-.568-2-.378-.501-.946-.752-1.704-.752-.517 0-.944.117-1.28.352-.33.229-.576.552-.736.968-.16.411-.24.888-.24 1.432 0 .837.19 1.507.568 2.008.384.496.947.744 1.688.744Zm9.438 1.568v-11.52h1.928v9.712h5.088V520h-7.016Zm12.187.24c-.864 0-1.618-.195-2.264-.584a4.014 4.014 0 0 1-1.504-1.608c-.352-.688-.528-1.477-.528-2.368 0-.907.182-1.701.544-2.384a4.014 4.014 0 0 1 1.512-1.6c.646-.384 1.392-.576 2.24-.576.87 0 1.627.195 2.272.584a3.99 3.99 0 0 1 1.504 1.616c.358.683.536 1.469.536 2.36 0 .896-.181 1.688-.544 2.376a4 4 0 0 1-1.504 1.608c-.645.384-1.4.576-2.264.576Zm0-1.808c.768 0 1.339-.256 1.712-.768.374-.512.56-1.173.56-1.984 0-.837-.189-1.504-.568-2-.378-.501-.946-.752-1.704-.752-.517 0-.944.117-1.28.352-.33.229-.576.552-.736.968-.16.411-.24.888-.24 1.432 0 .837.19 1.507.568 2.008.384.496.947.744 1.688.744Zm8.491 1.808c-.624 0-1.152-.117-1.584-.352a2.487 2.487 0 0 1-.984-.952 2.642 2.642 0 0 1-.328-1.304c0-.416.069-.789.208-1.12.139-.336.352-.624.64-.864.288-.245.661-.445 1.12-.6.347-.112.752-.213 1.216-.304.469-.091.976-.173 1.52-.248.549-.08 1.123-.165 1.72-.256l-.688.392c.005-.597-.128-1.037-.4-1.32-.272-.283-.731-.424-1.376-.424-.389 0-.765.091-1.128.272-.363.181-.616.493-.76.936l-1.76-.552a3.27 3.27 0 0 1 1.216-1.76c.603-.443 1.413-.664 2.432-.664.768 0 1.443.125 2.024.376a2.513 2.513 0 0 1 1.304 1.232c.155.304.248.616.28.936.032.315.048.659.048 1.032V520h-1.688v-1.872l.28.304c-.389.624-.845 1.083-1.368 1.376-.517.288-1.165.432-1.944.432Zm.384-1.536c.437 0 .811-.077 1.12-.232a2.19 2.19 0 0 0 .736-.568c.187-.224.312-.435.376-.632.101-.245.157-.525.168-.84.016-.32.024-.579.024-.776l.592.176c-.581.091-1.08.171-1.496.24-.416.069-.773.136-1.072.2a6.795 6.795 0 0 0-.792.2c-.224.08-.413.173-.568.28a1.232 1.232 0 0 0-.36.368.96.96 0 0 0-.12.488c0 .213.053.403.16.568.107.16.261.288.464.384.208.096.464.144.768.144ZM198.065 520v-4.16c0-.272-.019-.573-.056-.904a3.16 3.16 0 0 0-.264-.952 1.81 1.81 0 0 0-.608-.76c-.267-.197-.63-.296-1.088-.296-.246 0-.488.04-.728.12-.24.08-.459.219-.656.416-.192.192-.347.459-.464.8-.118.336-.176.768-.176 1.296l-1.144-.488c0-.736.141-1.403.424-2a3.403 3.403 0 0 1 1.264-1.424c.554-.357 1.237-.536 2.048-.536.64 0 1.168.107 1.584.32.416.213.746.485.992.816.245.331.426.683.544 1.056.117.373.192.728.224 1.064.037.331.056.6.056.808V520h-1.952Zm-5.992 0v-8.64h1.72v2.68h.232V520h-1.952Z"/><path fill="#000" d="M208.831 520v-11.52h1.176V520h-1.176Zm9.348 0 3.968-11.52h1.56l3.968 11.52h-1.224l-3.768-10.864h.464L219.403 520h-1.224Zm1.768-2.792v-1.104h5.952v1.104h-5.952Zm12.757 3.032c-.869 0-1.605-.195-2.208-.584a3.718 3.718 0 0 1-1.376-1.608c-.309-.688-.469-1.477-.48-2.368.011-.907.176-1.701.496-2.384.32-.688.781-1.221 1.384-1.6.603-.384 1.333-.576 2.192-.576.875 0 1.635.213 2.28.64a3.225 3.225 0 0 1 1.336 1.752l-1.152.368a2.436 2.436 0 0 0-.968-1.2 2.672 2.672 0 0 0-1.504-.432c-.635 0-1.16.147-1.576.44-.416.288-.725.691-.928 1.208-.203.517-.307 1.112-.312 1.784.011 1.035.251 1.867.72 2.496.469.624 1.168.936 2.096.936.587 0 1.085-.133 1.496-.4.416-.272.731-.667.944-1.184l1.184.352c-.32.768-.789 1.355-1.408 1.76-.619.4-1.357.6-2.216.6Zm8.625 0c-.869 0-1.605-.195-2.208-.584a3.718 3.718 0 0 1-1.376-1.608c-.309-.688-.469-1.477-.48-2.368.011-.907.176-1.701.496-2.384.32-.688.781-1.221 1.384-1.6.603-.384 1.333-.576 2.192-.576.875 0 1.635.213 2.28.64a3.225 3.225 0 0 1 1.336 1.752l-1.152.368a2.436 2.436 0 0 0-.968-1.2 2.672 2.672 0 0 0-1.504-.432c-.635 0-1.16.147-1.576.44-.416.288-.725.691-.928 1.208-.203.517-.307 1.112-.312 1.784.011 1.035.251 1.867.72 2.496.469.624 1.168.936 2.096.936.587 0 1.085-.133 1.496-.4.416-.272.731-.667.944-1.184l1.184.352c-.32.768-.789 1.355-1.408 1.76-.619.4-1.357.6-2.216.6Zm8.649 0c-.859 0-1.592-.195-2.2-.584a3.796 3.796 0 0 1-1.4-1.616c-.325-.688-.488-1.477-.488-2.368 0-.907.165-1.701.496-2.384.331-.683.8-1.213 1.408-1.592.613-.384 1.341-.576 2.184-.576.864 0 1.6.195 2.208.584a3.68 3.68 0 0 1 1.4 1.608c.325.683.488 1.469.488 2.36 0 .907-.163 1.704-.488 2.392a3.737 3.737 0 0 1-1.408 1.6c-.613.384-1.347.576-2.2.576Zm0-1.128c.96 0 1.675-.317 2.144-.952.469-.64.704-1.469.704-2.488 0-1.045-.237-1.877-.712-2.496-.469-.619-1.181-.928-2.136-.928-.645 0-1.179.147-1.6.44-.416.288-.728.691-.936 1.208-.203.512-.304 1.104-.304 1.776 0 1.04.24 1.875.72 2.504.48.624 1.187.936 2.12.936Zm9.165 1.104c-.518 0-.971-.08-1.36-.24a3.01 3.01 0 0 1-.984-.648 3.398 3.398 0 0 1-.648-.928 4.622 4.622 0 0 1-.36-1.112 6.292 6.292 0 0 1-.112-1.176v-4.752h1.184v4.408c0 .475.045.915.136 1.32.09.405.234.76.432 1.064a2.1 2.1 0 0 0 .776.696c.32.165.706.248 1.16.248.416 0 .781-.072 1.096-.216.32-.144.586-.349.8-.616.218-.272.384-.6.496-.984.112-.389.168-.827.168-1.312l.832.184c0 .885-.155 1.629-.464 2.232-.31.603-.736 1.059-1.28 1.368-.544.309-1.168.464-1.872.464Zm2.904-.216v-2.128h-.12v-6.512h1.176V520h-1.056Zm9.532 0v-4.408c0-.48-.046-.92-.136-1.32a3.069 3.069 0 0 0-.44-1.056 2.014 2.014 0 0 0-.776-.704c-.315-.165-.699-.248-1.152-.248-.416 0-.784.072-1.104.216a2.167 2.167 0 0 0-.8.624 2.787 2.787 0 0 0-.488.976 4.688 4.688 0 0 0-.168 1.312l-.832-.184c0-.885.154-1.629.464-2.232.309-.603.736-1.059 1.28-1.368.544-.309 1.168-.464 1.872-.464.517 0 .968.08 1.352.24.389.16.717.376.984.648.272.272.49.584.656.936.165.347.285.717.36 1.112.074.389.112.779.112 1.168V520h-1.184Zm-6.248 0v-8.64h1.064v2.128h.12V520h-1.184Zm14.212 0a5.794 5.794 0 0 1-1.44.12 3.19 3.19 0 0 1-1.264-.304 1.823 1.823 0 0 1-.84-.848 2.488 2.488 0 0 1-.256-.968 34.437 34.437 0 0 1-.016-1.128v-7.912h1.168v7.864c0 .363.002.667.008.912.01.24.066.453.168.64.192.357.496.571.912.64.421.069.941.053 1.56-.048V520Zm-5.664-7.632v-1.008h5.664v1.008h-5.664ZM286.456 520v-10.208l-2.168 1.304v-1.32l2.168-1.296h1.192V520h-1.192Zm8.019-11.752c.725 0 1.381.176 1.968.528a3.84 3.84 0 0 1 1.408 1.424c.346.597.52 1.269.52 2.016v4c0 .768-.174 1.456-.52 2.064a3.851 3.851 0 0 1-1.424 1.44c-.598.347-1.278.52-2.04.52a3.93 3.93 0 0 1-1.824-.432 3.883 3.883 0 0 1-1.376-1.208l.896-.744a2.75 2.75 0 0 0 2.304 1.256c.544 0 1.024-.128 1.44-.384.421-.261.752-.603.992-1.024.245-.427.368-.888.368-1.384v-2.512l.288.336a3.844 3.844 0 0 1-1.32 1.28 3.431 3.431 0 0 1-1.792.488c-.71 0-1.352-.171-1.928-.512a3.817 3.817 0 0 1-1.36-1.376 3.8 3.8 0 0 1-.496-1.928c0-.709.176-1.355.528-1.936a3.888 3.888 0 0 1 1.416-1.392 3.788 3.788 0 0 1 1.952-.52Zm0 1.136c-.502 0-.958.123-1.368.368a2.663 2.663 0 0 0-1.344 2.344c0 .501.12.957.36 1.368a2.658 2.658 0 0 0 2.344 1.344c.501 0 .957-.12 1.368-.36.416-.245.744-.573.984-.984.245-.411.368-.867.368-1.368 0-.496-.123-.949-.368-1.36a2.74 2.74 0 0 0-.976-.984 2.622 2.622 0 0 0-1.368-.368ZM301.017 520l4.24-10.376h-5.336v-1.144h6.592v1.144L302.281 520h-1.264Z"/><path fill="#171768" d="M124.12 570v-11.52h4.448c.112 0 .237.005.376.016.144.005.288.021.432.048.603.091 1.112.301 1.528.632.421.325.739.736.952 1.232.219.496.328 1.045.328 1.648 0 .597-.109 1.144-.328 1.64a3.193 3.193 0 0 1-.96 1.24c-.416.325-.923.533-1.52.624a6.338 6.338 0 0 1-.808.064h-3.272V570h-1.176Zm1.176-5.496h3.24c.096 0 .208-.005.336-.016.128-.011.253-.029.376-.056.395-.085.717-.248.968-.488.256-.24.445-.525.568-.856.128-.331.192-.675.192-1.032s-.064-.701-.192-1.032a2.205 2.205 0 0 0-.568-.864c-.251-.24-.573-.403-.968-.488a2.137 2.137 0 0 0-.376-.048 3.966 3.966 0 0 0-.336-.016h-3.24v4.896Zm10.577 5.736c-.65 0-1.197-.117-1.64-.352a2.395 2.395 0 0 1-.984-.936 2.56 2.56 0 0 1-.328-1.272c0-.469.094-.869.28-1.2.192-.336.451-.611.776-.824a3.912 3.912 0 0 1 1.144-.488c.438-.107.92-.2 1.448-.28a37.723 37.723 0 0 1 1.56-.216c.512-.064.96-.125 1.344-.184l-.416.256c.016-.853-.149-1.485-.496-1.896-.346-.411-.949-.616-1.808-.616-.592 0-1.093.133-1.504.4-.405.267-.69.688-.856 1.264l-1.144-.336c.198-.773.595-1.373 1.192-1.8.598-.427 1.374-.64 2.328-.64.79 0 1.459.149 2.008.448.555.293.947.72 1.176 1.28.107.251.176.531.208.84.032.309.048.624.048.944V570h-1.048v-2.168l.304.128c-.293.741-.749 1.307-1.368 1.696-.618.389-1.36.584-2.224.584Zm.136-1.016c.55 0 1.03-.099 1.44-.296.411-.197.742-.467.992-.808a2.76 2.76 0 0 0 .488-1.168c.064-.277.099-.581.104-.912.006-.336.008-.587.008-.752l.448.232c-.4.053-.834.107-1.304.16-.464.053-.922.115-1.376.184a11.8 11.8 0 0 0-1.216.248 3.301 3.301 0 0 0-.712.296 1.656 1.656 0 0 0-.568.496c-.144.208-.216.467-.216.776 0 .251.062.493.184.728a1.5 1.5 0 0 0 .608.584c.283.155.656.232 1.12.232Zm7.03 4.616 1.673-4.536.024 1.344-3.785-9.288h1.249l3.104 7.768h-.512l2.864-7.768h1.2l-4.64 12.48h-1.177Zm17.51-3.84.008-5.672c0-.667-.187-1.189-.56-1.568-.368-.384-.837-.576-1.408-.576-.325 0-.643.075-.952.224a1.836 1.836 0 0 0-.768.72c-.197.331-.296.763-.296 1.296l-.696-.2c-.016-.619.104-1.16.36-1.624a2.782 2.782 0 0 1 1.072-1.08 3.083 3.083 0 0 1 1.552-.392c.869 0 1.565.269 2.088.808.523.533.784 1.256.784 2.168l-.008 5.896h-1.176Zm-10.312 0v-8.64h1.056v2.128h.128V570h-1.184Zm5.168 0 .008-5.592c0-.688-.184-1.229-.552-1.624-.363-.4-.843-.6-1.44-.6s-1.08.205-1.448.616c-.368.405-.552.947-.552 1.624l-.704-.384c0-.555.131-1.051.392-1.488a2.79 2.79 0 0 1 1.072-1.04 3.084 3.084 0 0 1 1.544-.384c.549 0 1.037.117 1.464.352.432.235.771.576 1.016 1.024.245.448.368.992.368 1.632l-.008 5.864h-1.16Zm12.012.24c-.843 0-1.574-.187-2.192-.56a3.794 3.794 0 0 1-1.432-1.576c-.342-.677-.512-1.472-.512-2.384 0-.944.168-1.76.504-2.448.336-.688.808-1.219 1.416-1.592.613-.373 1.336-.56 2.168-.56.853 0 1.581.197 2.184.592.602.389 1.058.949 1.368 1.68.309.731.45 1.603.424 2.616h-1.2v-.416c-.022-1.12-.264-1.965-.728-2.536-.459-.571-1.131-.856-2.016-.856-.928 0-1.64.301-2.136.904-.491.603-.736 1.461-.736 2.576 0 1.088.245 1.933.736 2.536.496.597 1.197.896 2.104.896.618 0 1.157-.141 1.616-.424.464-.288.829-.701 1.096-1.24l1.096.424c-.342.752-.846 1.336-1.512 1.752-.662.411-1.411.616-2.248.616Zm-3.304-4.232v-.984h6.6v.984h-6.6ZM179.126 570v-4.408c0-.48-.046-.92-.136-1.32a3.069 3.069 0 0 0-.44-1.056 2.014 2.014 0 0 0-.776-.704c-.315-.165-.699-.248-1.152-.248-.416 0-.784.072-1.104.216a2.167 2.167 0 0 0-.8.624 2.787 2.787 0 0 0-.488.976 4.688 4.688 0 0 0-.168 1.312l-.832-.184c0-.885.154-1.629.464-2.232.309-.603.736-1.059 1.28-1.368.544-.309 1.168-.464 1.872-.464.517 0 .968.08 1.352.24.389.16.717.376.984.648.272.272.49.584.656.936.165.347.285.717.36 1.112.074.389.112.779.112 1.168V570h-1.184Zm-6.248 0v-8.64h1.064v2.128h.12V570h-1.184Zm14.212 0a5.794 5.794 0 0 1-1.44.12 3.19 3.19 0 0 1-1.264-.304 1.823 1.823 0 0 1-.84-.848 2.488 2.488 0 0 1-.256-.968 34.437 34.437 0 0 1-.016-1.128v-7.912h1.168v7.864c0 .363.002.667.008.912.01.24.066.453.168.64.192.357.496.571.912.64.421.069.941.053 1.56-.048V570Zm-5.664-7.632v-1.008h5.664v1.008h-5.664Zm13.041 7.872c-.651 0-1.197-.117-1.64-.352a2.395 2.395 0 0 1-.984-.936 2.549 2.549 0 0 1-.328-1.272c0-.469.093-.869.28-1.2.192-.336.451-.611.776-.824a3.912 3.912 0 0 1 1.144-.488c.437-.107.92-.2 1.448-.28a37.258 37.258 0 0 1 1.56-.216c.512-.064.96-.125 1.344-.184l-.416.256c.016-.853-.149-1.485-.496-1.896-.347-.411-.949-.616-1.808-.616-.592 0-1.093.133-1.504.4-.405.267-.691.688-.856 1.264l-1.144-.336c.197-.773.595-1.373 1.192-1.8.597-.427 1.373-.64 2.328-.64.789 0 1.459.149 2.008.448.555.293.947.72 1.176 1.28.107.251.176.531.208.84.032.309.048.624.048.944V570h-1.048v-2.168l.304.128c-.293.741-.749 1.307-1.368 1.696-.619.389-1.36.584-2.224.584Zm.136-1.016c.549 0 1.029-.099 1.44-.296.411-.197.741-.467.992-.808.251-.347.413-.736.488-1.168.064-.277.099-.581.104-.912.005-.336.008-.587.008-.752l.448.232c-.4.053-.835.107-1.304.16a37.1 37.1 0 0 0-1.376.184 11.8 11.8 0 0 0-1.216.248 3.28 3.28 0 0 0-.712.296 1.647 1.647 0 0 0-.568.496c-.144.208-.216.467-.216.776 0 .251.061.493.184.728a1.5 1.5 0 0 0 .608.584c.283.155.656.232 1.12.232Zm16.587.776.008-5.672c0-.667-.187-1.189-.56-1.568-.368-.384-.838-.576-1.408-.576-.326 0-.643.075-.952.224-.31.149-.566.389-.768.72-.198.331-.296.763-.296 1.296l-.696-.2c-.016-.619.104-1.16.36-1.624a2.776 2.776 0 0 1 1.072-1.08 3.08 3.08 0 0 1 1.552-.392c.869 0 1.565.269 2.088.808.522.533.784 1.256.784 2.168l-.008 5.896h-1.176Zm-10.312 0v-8.64h1.056v2.128h.128V570h-1.184Zm5.168 0 .008-5.592c0-.688-.184-1.229-.552-1.624-.363-.4-.843-.6-1.44-.6-.598 0-1.08.205-1.448.616-.368.405-.552.947-.552 1.624l-.704-.384c0-.555.13-1.051.392-1.488a2.783 2.783 0 0 1 1.072-1.04 3.084 3.084 0 0 1 1.544-.384c.549 0 1.037.117 1.464.352.432.235.77.576 1.016 1.024.245.448.368.992.368 1.632l-.008 5.864h-1.16Zm11.963.24c-.858 0-1.592-.195-2.2-.584a3.802 3.802 0 0 1-1.4-1.616c-.325-.688-.488-1.477-.488-2.368 0-.907.166-1.701.496-2.384.331-.683.8-1.213 1.408-1.592.614-.384 1.342-.576 2.184-.576.864 0 1.6.195 2.208.584.614.384 1.08.92 1.4 1.608.326.683.488 1.469.488 2.36 0 .907-.162 1.704-.488 2.392a3.73 3.73 0 0 1-1.408 1.6c-.613.384-1.346.576-2.2.576Zm0-1.128c.96 0 1.675-.317 2.144-.952.47-.64.704-1.469.704-2.488 0-1.045-.237-1.877-.712-2.496-.469-.619-1.181-.928-2.136-.928-.645 0-1.178.147-1.6.44-.416.288-.728.691-.936 1.208-.202.512-.304 1.104-.304 1.776 0 1.04.24 1.875.72 2.504.48.624 1.187.936 2.12.936Zm9.165 1.104c-.517 0-.971-.08-1.36-.24a3.01 3.01 0 0 1-.984-.648 3.398 3.398 0 0 1-.648-.928 4.712 4.712 0 0 1-.36-1.112 6.292 6.292 0 0 1-.112-1.176v-4.752h1.184v4.408c0 .475.045.915.136 1.32.091.405.235.76.432 1.064.203.299.461.531.776.696.32.165.707.248 1.16.248.416 0 .781-.072 1.096-.216.32-.144.587-.349.8-.616.219-.272.384-.6.496-.984.112-.389.168-.827.168-1.312l.832.184c0 .885-.155 1.629-.464 2.232-.309.603-.736 1.059-1.28 1.368-.544.309-1.168.464-1.872.464Zm2.904-.216v-2.128h-.12v-6.512h1.176V570h-1.056Zm9.532 0v-4.408c0-.48-.045-.92-.136-1.32a3.05 3.05 0 0 0-.44-1.056 2.006 2.006 0 0 0-.776-.704c-.315-.165-.699-.248-1.152-.248-.416 0-.784.072-1.104.216a2.175 2.175 0 0 0-.8.624 2.804 2.804 0 0 0-.488.976 4.688 4.688 0 0 0-.168 1.312l-.832-.184c0-.885.155-1.629.464-2.232.309-.603.736-1.059 1.28-1.368.544-.309 1.168-.464 1.872-.464.517 0 .968.08 1.352.24.389.16.717.376.984.648.272.272.491.584.656.936.165.347.285.717.36 1.112.075.389.112.779.112 1.168V570h-1.184Zm-6.248 0v-8.64h1.064v2.128h.12V570h-1.184Zm14.212 0a5.786 5.786 0 0 1-1.44.12 3.195 3.195 0 0 1-1.264-.304 1.823 1.823 0 0 1-.84-.848 2.488 2.488 0 0 1-.256-.968 34.437 34.437 0 0 1-.016-1.128v-7.912h1.168v7.864c0 .363.003.667.008.912.011.24.067.453.168.64.192.357.496.571.912.64.421.069.941.053 1.56-.048V570Zm-5.664-7.632v-1.008h5.664v1.008h-5.664Z"/><rect width="189" height="18" x="264" y="555" fill="#fff" rx="4"/><path fill="#171768" d="M124.12 620v-11.52h1.184l6.344 9.44v-9.44h1.184V620h-1.184l-6.344-9.448V620h-1.184Zm14.609.24c-.843 0-1.573-.187-2.192-.56a3.8 3.8 0 0 1-1.432-1.576c-.341-.677-.512-1.472-.512-2.384 0-.944.168-1.76.504-2.448.336-.688.808-1.219 1.416-1.592.613-.373 1.336-.56 2.168-.56.853 0 1.581.197 2.184.592.603.389 1.059.949 1.368 1.68.309.731.451 1.603.424 2.616h-1.2v-.416c-.021-1.12-.264-1.965-.728-2.536-.459-.571-1.131-.856-2.016-.856-.928 0-1.64.301-2.136.904-.491.603-.736 1.461-.736 2.576 0 1.088.245 1.933.736 2.536.496.597 1.197.896 2.104.896.619 0 1.157-.141 1.616-.424.464-.288.829-.701 1.096-1.24l1.096.424a3.915 3.915 0 0 1-1.512 1.752c-.661.411-1.411.616-2.248.616Zm-3.304-4.232v-.984h6.6v.984h-6.6ZM143.16 620l3.376-4.368-3.304-4.272h1.408l2.584 3.368 2.56-3.368h1.408l-3.304 4.272 3.384 4.368h-1.416l-2.632-3.464-2.648 3.464h-1.416Zm14.102 0a5.794 5.794 0 0 1-1.44.12 3.19 3.19 0 0 1-1.264-.304 1.823 1.823 0 0 1-.84-.848 2.488 2.488 0 0 1-.256-.968 34.437 34.437 0 0 1-.016-1.128v-7.912h1.168v7.864c0 .363.002.667.008.912.01.24.066.453.168.64.192.357.496.571.912.64.421.069.941.053 1.56-.048V620Zm-5.664-7.632v-1.008h5.664v1.008h-5.664Zm13.921 7.872c-.805 0-1.493-.2-2.064-.6-.571-.405-1.008-.952-1.312-1.64-.304-.688-.456-1.464-.456-2.328 0-.859.149-1.632.448-2.32.304-.688.739-1.232 1.304-1.632.565-.4 1.243-.6 2.032-.6.811 0 1.493.197 2.048.592.555.395.973.936 1.256 1.624.288.683.432 1.461.432 2.336 0 .859-.141 1.635-.424 2.328-.283.688-.699 1.235-1.248 1.64-.549.4-1.221.6-2.016.6Zm.12-1.096c.613 0 1.12-.149 1.52-.448.4-.299.699-.709.896-1.232.197-.528.296-1.125.296-1.792 0-.677-.099-1.275-.296-1.792-.197-.523-.496-.931-.896-1.224-.395-.293-.893-.44-1.496-.44-.619 0-1.131.152-1.536.456-.405.304-.707.717-.904 1.24a5.076 5.076 0 0 0-.288 1.76c0 .656.099 1.248.296 1.776.203.523.504.936.904 1.24.4.304.901.456 1.504.456Zm2.712.856v-6.504h-.128v-5.016h1.184V620h-1.056Zm6.604.216c-.517 0-.97-.08-1.36-.24a3.01 3.01 0 0 1-.984-.648 3.442 3.442 0 0 1-.648-.928 4.712 4.712 0 0 1-.36-1.112 6.377 6.377 0 0 1-.112-1.176v-4.752h1.184v4.408c0 .475.046.915.136 1.32.091.405.235.76.432 1.064.203.299.462.531.776.696.32.165.707.248 1.16.248.416 0 .782-.072 1.096-.216.32-.144.587-.349.8-.616.219-.272.384-.6.496-.984.112-.389.168-.827.168-1.312l.832.184c0 .885-.154 1.629-.464 2.232-.309.603-.736 1.059-1.28 1.368-.544.309-1.168.464-1.872.464Zm2.904-.216v-2.128h-.12v-6.512h1.176V620h-1.056Zm6.948.24c-.842 0-1.573-.187-2.192-.56a3.807 3.807 0 0 1-1.432-1.576c-.341-.677-.512-1.472-.512-2.384 0-.944.168-1.76.504-2.448.336-.688.808-1.219 1.416-1.592.614-.373 1.336-.56 2.168-.56.854 0 1.582.197 2.184.592.603.389 1.059.949 1.368 1.68.31.731.451 1.603.424 2.616h-1.2v-.416c-.021-1.12-.264-1.965-.728-2.536-.458-.571-1.13-.856-2.016-.856-.928 0-1.64.301-2.136.904-.49.603-.736 1.461-.736 2.576 0 1.088.246 1.933.736 2.536.496.597 1.198.896 2.104.896.619 0 1.158-.141 1.616-.424.464-.288.83-.701 1.096-1.24l1.096.424a3.915 3.915 0 0 1-1.512 1.752c-.661.411-1.41.616-2.248.616Zm-3.304-4.232v-.984h6.6v.984h-6.6Zm15.563 4.232c-.806 0-1.494-.2-2.064-.6-.571-.405-1.008-.952-1.312-1.64-.304-.688-.456-1.464-.456-2.328 0-.859.149-1.632.448-2.32.304-.688.738-1.232 1.304-1.632.565-.4 1.242-.6 2.032-.6.81 0 1.493.197 2.048.592.554.395.973.936 1.256 1.624.288.683.432 1.461.432 2.336 0 .859-.142 1.635-.424 2.328-.283.688-.699 1.235-1.248 1.64-.55.4-1.222.6-2.016.6Zm.12-1.096c.613 0 1.12-.149 1.52-.448.4-.299.698-.709.896-1.232.197-.528.296-1.125.296-1.792 0-.677-.099-1.275-.296-1.792-.198-.523-.496-.931-.896-1.224-.395-.293-.894-.44-1.496-.44-.619 0-1.131.152-1.536.456-.406.304-.707.717-.904 1.24a5.076 5.076 0 0 0-.288 1.76c0 .656.098 1.248.296 1.776.202.523.504.936.904 1.24.4.304.901.456 1.504.456Zm2.712.856v-6.504h-.128v-5.016h1.184V620h-1.056Zm5.772.24c-.651 0-1.197-.117-1.64-.352a2.395 2.395 0 0 1-.984-.936 2.549 2.549 0 0 1-.328-1.272c0-.469.093-.869.28-1.2.192-.336.451-.611.776-.824a3.912 3.912 0 0 1 1.144-.488c.437-.107.92-.2 1.448-.28a37.258 37.258 0 0 1 1.56-.216c.512-.064.96-.125 1.344-.184l-.416.256c.016-.853-.149-1.485-.496-1.896-.347-.411-.949-.616-1.808-.616-.592 0-1.093.133-1.504.4-.405.267-.691.688-.856 1.264l-1.144-.336c.197-.773.595-1.373 1.192-1.8.597-.427 1.373-.64 2.328-.64.789 0 1.459.149 2.008.448.555.293.947.72 1.176 1.28.107.251.176.531.208.84.032.309.048.624.048.944V620h-1.048v-2.168l.304.128c-.293.741-.749 1.307-1.368 1.696-.619.389-1.36.584-2.224.584Zm.136-1.016c.549 0 1.029-.099 1.44-.296.411-.197.741-.467.992-.808.251-.347.413-.736.488-1.168.064-.277.099-.581.104-.912.005-.336.008-.587.008-.752l.448.232c-.4.053-.835.107-1.304.16a37.1 37.1 0 0 0-1.376.184 11.8 11.8 0 0 0-1.216.248 3.28 3.28 0 0 0-.712.296 1.647 1.647 0 0 0-.568.496c-.144.208-.216.467-.216.776 0 .251.061.493.184.728a1.5 1.5 0 0 0 .608.584c.283.155.656.232 1.12.232Zm10.987.776a5.794 5.794 0 0 1-1.44.12 3.19 3.19 0 0 1-1.264-.304 1.823 1.823 0 0 1-.84-.848 2.488 2.488 0 0 1-.256-.968 34.437 34.437 0 0 1-.016-1.128v-7.912h1.168v7.864c0 .363.002.667.008.912.01.24.066.453.168.64.192.357.496.571.912.64.421.069.941.053 1.56-.048V620Zm-5.664-7.632v-1.008h5.664v1.008h-5.664Zm10.71 7.872c-.843 0-1.574-.187-2.192-.56a3.794 3.794 0 0 1-1.432-1.576c-.342-.677-.512-1.472-.512-2.384 0-.944.168-1.76.504-2.448.336-.688.808-1.219 1.416-1.592.613-.373 1.336-.56 2.168-.56.853 0 1.581.197 2.184.592.602.389 1.058.949 1.368 1.68.309.731.45 1.603.424 2.616h-1.2v-.416c-.022-1.12-.264-1.965-.728-2.536-.459-.571-1.131-.856-2.016-.856-.928 0-1.64.301-2.136.904-.491.603-.736 1.461-.736 2.576 0 1.088.245 1.933.736 2.536.496.597 1.197.896 2.104.896.618 0 1.157-.141 1.616-.424.464-.288.829-.701 1.096-1.24l1.096.424c-.342.752-.846 1.336-1.512 1.752-.662.411-1.411.616-2.248.616Zm-3.304-4.232v-.984h6.6v.984h-6.6Z"/><rect width="211" height="18" x="242" y="605" fill="#fff" rx="4"/></g><defs><clipPath id="a"><path fill="#fff" d="M0 0h620v620H0z"/></clipPath></defs></svg>