<svg xmlns="http://www.w3.org/2000/svg" width="439" height="492" fill="none"><g clip-path="url(#a)"><path fill="#4343C2" d="M.5 0h438v492H.5z"/><rect width="353.698" height="461.345" x="36.5" y="305.728" fill="#fff" rx="30.756"/><circle cx="78.021" cy="328.795" r="4.613" fill="#EDEDED"/><circle cx="93.399" cy="328.795" r="4.613" fill="#EDEDED"/><circle cx="108.777" cy="328.795" r="4.613" fill="#EDEDED"/><path fill="#4343C2" d="m85.117 369.13-3.71-3.691 1.237-1.236 3.69 3.69-1.218 1.237Zm-4.872.009c-1.329 0-2.46-.289-3.396-.867-.935-.585-1.651-1.397-2.15-2.436-.492-1.04-.738-2.245-.738-3.617 0-1.372.246-2.577.738-3.617.499-1.04 1.215-1.848 2.15-2.427.935-.584 2.067-.876 3.396-.876 1.322 0 2.451.292 3.386.876.941.579 1.658 1.387 2.15 2.427s.738 2.245.738 3.617c0 1.372-.246 2.577-.738 3.617-.492 1.039-1.209 1.851-2.15 2.436-.935.578-2.064.867-3.386.867Zm0-1.836c.94.012 1.722-.194 2.343-.618.628-.431 1.098-1.028 1.412-1.79.314-.769.47-1.661.47-2.676 0-1.015-.156-1.901-.47-2.657-.314-.763-.784-1.357-1.412-1.781-.62-.425-1.402-.64-2.343-.646-.941-.012-1.726.194-2.353.618-.621.425-1.089 1.021-1.403 1.79-.313.769-.473 1.661-.48 2.676-.006 1.015.148 1.904.462 2.667.314.756.784 1.347 1.412 1.771.633.425 1.42.64 2.362.646Zm11.5 1.827c-.688 0-1.266-.111-1.734-.332a3.284 3.284 0 0 1-1.144-.868 4.154 4.154 0 0 1-.664-1.181 6.057 6.057 0 0 1-.314-1.245 8.055 8.055 0 0 1-.083-1.071v-5.536h1.956v4.9c0 .387.03.787.092 1.199.068.406.19.785.37 1.135.184.351.44.634.765.849.332.215.763.323 1.292.323.344 0 .67-.055.978-.166.308-.117.575-.302.803-.554.234-.252.415-.584.544-.996.135-.412.203-.914.203-1.504l1.2.452c0 .904-.17 1.704-.508 2.399a3.828 3.828 0 0 1-1.458 1.615c-.633.387-1.4.581-2.297.581Zm3.295-.268v-2.878h-.23v-7.087h1.946v9.965H95.04Zm4.12-11.598v-1.873h1.928v1.873h-1.929Zm0 11.598v-9.965h1.928v9.965h-1.929Zm8.592.277c-1.021 0-1.888-.227-2.602-.683a4.46 4.46 0 0 1-1.642-1.873c-.375-.793-.566-1.694-.572-2.703.006-1.027.203-1.935.59-2.722a4.448 4.448 0 0 1 1.661-1.864c.72-.449 1.584-.674 2.593-.674 1.089 0 2.018.271 2.786.812.776.542 1.286 1.283 1.532 2.224l-1.919.554c-.191-.56-.504-.994-.941-1.301a2.457 2.457 0 0 0-1.486-.471c-.633 0-1.153.151-1.559.452-.406.296-.707.702-.904 1.218-.197.517-.299 1.107-.305 1.772.006 1.027.24 1.857.701 2.491.468.634 1.157.95 2.067.95.622 0 1.123-.141 1.504-.424.388-.289.683-.701.886-1.236l1.956.461c-.326.972-.864 1.719-1.615 2.242-.75.517-1.66.775-2.731.775Zm5.848-.277.009-13.286h1.956v8.119l3.912-4.798h2.454l-4.133 4.983 4.558 4.982h-2.621l-4.17-4.798v4.798H113.6Zm15.457.277c-.739 0-1.357-.135-1.855-.406-.498-.277-.877-.64-1.135-1.089a3.032 3.032 0 0 1-.378-1.494c0-.505.089-.948.267-1.329.179-.381.443-.704.794-.969a4.234 4.234 0 0 1 1.292-.655c.443-.129.944-.243 1.504-.341a49.213 49.213 0 0 1 1.762-.277c.621-.086 1.236-.172 1.845-.259l-.701.388c.012-.781-.154-1.359-.498-1.735-.338-.381-.923-.572-1.753-.572-.523 0-1.003.123-1.44.369-.436.24-.741.64-.913 1.2l-1.799-.554c.246-.855.713-1.535 1.402-2.039.695-.504 1.618-.757 2.768-.757.892 0 1.667.154 2.325.462a2.862 2.862 0 0 1 1.458 1.439c.16.326.259.671.295 1.034.037.363.056.753.056 1.171v6.136h-1.707v-2.279l.332.296c-.412.762-.938 1.331-1.578 1.706-.633.37-1.415.554-2.343.554Zm.341-1.578c.547 0 1.018-.095 1.412-.286a2.79 2.79 0 0 0 .95-.747c.24-.302.397-.615.471-.941.104-.296.163-.628.175-.997.018-.369.028-.664.028-.886l.627.231-1.661.249c-.498.074-.95.148-1.356.222-.4.067-.757.15-1.07.249a3.594 3.594 0 0 0-.711.332 1.62 1.62 0 0 0-.489.471 1.23 1.23 0 0 0-.175.673c0 .258.064.498.194.72.129.215.326.387.59.517.265.129.603.193 1.015.193Zm11.245 1.578c-1.022 0-1.889-.227-2.602-.683a4.462 4.462 0 0 1-1.643-1.873c-.375-.793-.566-1.694-.572-2.703.006-1.027.203-1.935.591-2.722a4.44 4.44 0 0 1 1.66-1.864c.72-.449 1.584-.674 2.593-.674 1.089 0 2.018.271 2.787.812.775.542 1.285 1.283 1.531 2.224l-1.919.554c-.19-.56-.504-.994-.941-1.301a2.454 2.454 0 0 0-1.485-.471c-.634 0-1.154.151-1.56.452-.406.296-.707.702-.904 1.218-.197.517-.298 1.107-.304 1.772.006 1.027.239 1.857.701 2.491.467.634 1.156.95 2.067.95.621 0 1.122-.141 1.504-.424.387-.289.682-.701.885-1.236l1.956.461c-.326.972-.864 1.719-1.614 2.242-.751.517-1.661.775-2.731.775Zm11.558-.277a8.22 8.22 0 0 1-1.845.157 4.176 4.176 0 0 1-1.615-.35 2.208 2.208 0 0 1-1.07-1.015 2.987 2.987 0 0 1-.351-1.255 52.891 52.891 0 0 1-.018-1.458v-8.812h1.937v8.72c0 .399.004.747.01 1.042.012.296.077.545.193.748.222.381.573.599 1.052.655.486.049 1.055.027 1.707-.065v1.633Zm-6.809-8.415v-1.55h6.809v1.55h-6.809Zm8.726-3.183v-1.873h1.928v1.873h-1.928Zm0 11.598v-9.965h1.928v9.965h-1.928Zm8.657.277c-.996 0-1.86-.224-2.592-.673a4.544 4.544 0 0 1-1.698-1.855c-.394-.794-.591-1.707-.591-2.74 0-1.04.203-1.953.609-2.741a4.467 4.467 0 0 1 1.707-1.845c.732-.443 1.587-.665 2.565-.665.997 0 1.861.225 2.593.674a4.538 4.538 0 0 1 1.698 1.855c.4.787.6 1.694.6 2.722 0 1.039-.203 1.956-.609 2.749a4.538 4.538 0 0 1-1.698 1.855c-.732.443-1.593.664-2.584.664Zm0-1.818c.954 0 1.664-.319 2.132-.959.473-.646.71-1.476.71-2.491 0-1.04-.24-1.87-.72-2.492-.473-.627-1.181-.941-2.122-.941-.646 0-1.178.148-1.596.443-.418.289-.729.692-.932 1.209-.203.51-.304 1.104-.304 1.781 0 1.045.24 1.882.719 2.509.48.628 1.184.941 2.113.941Zm13.543 1.541v-4.899c0-.388-.034-.784-.101-1.19a3.594 3.594 0 0 0-.369-1.145 2.172 2.172 0 0 0-.766-.848c-.326-.216-.754-.323-1.283-.323-.344 0-.67.058-.978.175a2.047 2.047 0 0 0-.812.544c-.227.252-.409.585-.544.997-.129.412-.194.913-.194 1.504l-1.2-.452c0-.905.17-1.701.508-2.39a3.806 3.806 0 0 1 1.458-1.624c.633-.388 1.399-.581 2.297-.581.689 0 1.267.11 1.735.332.467.221.846.513 1.135.876.295.357.52.748.673 1.172.154.425.259.84.314 1.246.056.406.083.763.083 1.07v5.536h-1.956Zm-7.003 0v-9.965h1.725v2.879h.231v7.086h-1.956Zm17.133.277c-.738 0-1.356-.135-1.855-.406a2.9 2.9 0 0 1-1.135-1.089 3.032 3.032 0 0 1-.378-1.494c0-.505.089-.948.268-1.329.178-.381.443-.704.793-.969a4.234 4.234 0 0 1 1.292-.655c.443-.129.944-.243 1.504-.341.56-.099 1.147-.191 1.762-.277.622-.086 1.237-.172 1.846-.259l-.702.388c.013-.781-.153-1.359-.498-1.735-.338-.381-.923-.572-1.753-.572-.523 0-1.003.123-1.439.369-.437.24-.742.64-.914 1.2l-1.799-.554c.246-.855.714-1.535 1.402-2.039.696-.504 1.618-.757 2.769-.757.891 0 1.667.154 2.325.462a2.87 2.87 0 0 1 1.458 1.439c.159.326.258.671.295 1.034.037.363.055.753.055 1.171v6.136h-1.707v-2.279l.332.296c-.412.762-.938 1.331-1.577 1.706-.634.37-1.415.554-2.344.554Zm.341-1.578c.548 0 1.018-.095 1.412-.286.394-.197.711-.446.95-.747.24-.302.397-.615.471-.941.105-.296.163-.628.175-.997.019-.369.028-.664.028-.886l.627.231-1.66.249c-.499.074-.951.148-1.357.222-.4.067-.756.15-1.07.249a3.62 3.62 0 0 0-.711.332 1.62 1.62 0 0 0-.489.471 1.24 1.24 0 0 0-.175.673c0 .258.065.498.194.72.129.215.326.387.59.517.265.129.603.193 1.015.193Zm11.088 6.007a4.953 4.953 0 0 1-1.559-.249 4.446 4.446 0 0 1-1.366-.738 4.005 4.005 0 0 1-1.024-1.191l1.781-.904c.215.425.523.735.922.932.4.197.822.295 1.264.295.548 0 1.015-.098 1.403-.295.388-.191.68-.48.877-.867.203-.388.301-.868.295-1.44v-2.786h.23v-7.428h1.707v10.233c0 .264-.009.517-.027.756a5.94 5.94 0 0 1-.102.72c-.141.671-.412 1.224-.812 1.661-.393.437-.898.763-1.513.978-.609.215-1.301.323-2.076.323Zm-.148-4.429c-.928 0-1.731-.231-2.408-.692-.67-.461-1.19-1.089-1.559-1.882-.363-.8-.545-1.698-.545-2.694 0-1.003.185-1.898.554-2.685.369-.794.892-1.418 1.569-1.874.682-.461 1.491-.692 2.426-.692.941 0 1.732.231 2.372.692.646.456 1.131 1.08 1.457 1.874.333.793.499 1.688.499 2.685 0 .996-.166 1.891-.499 2.685-.332.793-.821 1.424-1.467 1.891-.645.461-1.445.692-2.399.692Zm.268-1.744c.634 0 1.15-.15 1.55-.452.4-.301.692-.717.877-1.246.184-.529.276-1.138.276-1.826 0-.689-.095-1.298-.286-1.827-.184-.529-.473-.942-.867-1.237-.387-.295-.883-.443-1.485-.443-.64 0-1.166.157-1.578.471-.412.314-.72.735-.923 1.264a5.048 5.048 0 0 0-.295 1.772c0 .658.098 1.254.295 1.79.203.529.504.95.904 1.264.406.313.917.47 1.532.47Zm11.052 1.744c-.99 0-1.861-.215-2.611-.646a4.587 4.587 0 0 1-1.744-1.817c-.412-.782-.618-1.686-.618-2.713 0-1.089.203-2.033.609-2.833.412-.8.984-1.418 1.716-1.854.732-.437 1.584-.656 2.556-.656 1.015 0 1.879.237 2.592.711.714.467 1.246 1.135 1.597 2.002.356.867.498 1.898.424 3.091h-1.928v-.701c-.013-1.157-.234-2.012-.665-2.565-.424-.554-1.073-.831-1.947-.831-.965 0-1.691.305-2.177.914s-.729 1.488-.729 2.639c0 1.095.243 1.944.729 2.546.486.597 1.187.895 2.104.895.602 0 1.122-.135 1.559-.406.443-.276.787-.67 1.033-1.181l1.892.6c-.388.892-.975 1.584-1.762 2.076a4.909 4.909 0 0 1-2.63.729Zm-3.552-4.715v-1.504h7.114v1.504h-7.114Zm16.498 4.438v-4.899c0-.388-.034-.784-.102-1.19a3.545 3.545 0 0 0-.369-1.145 2.157 2.157 0 0 0-.766-.848c-.326-.216-.753-.323-1.282-.323-.345 0-.671.058-.978.175a2.04 2.04 0 0 0-.812.544c-.228.252-.409.585-.545.997-.129.412-.193.913-.193 1.504l-1.2-.452c0-.905.169-1.701.508-2.39a3.806 3.806 0 0 1 1.458-1.624c.633-.388 1.399-.581 2.297-.581.689 0 1.267.11 1.735.332.467.221.846.513 1.135.876.295.357.519.748.673 1.172.154.425.259.84.314 1.246.055.406.083.763.083 1.07v5.536h-1.956Zm-7.003 0v-9.965h1.725v2.879h.231v7.086h-1.956Zm16.695 0a8.22 8.22 0 0 1-1.845.157 4.176 4.176 0 0 1-1.615-.35 2.208 2.208 0 0 1-1.07-1.015 2.987 2.987 0 0 1-.351-1.255 52.891 52.891 0 0 1-.018-1.458v-8.812h1.938v8.72c0 .399.003.747.009 1.042.012.296.077.545.194.748.221.381.572.599 1.051.655.486.049 1.055.027 1.707-.065v1.633Zm-6.809-8.415v-1.55h6.809v1.55h-6.809Z"/><path stroke="#EDEDED" stroke-width=".769" d="M73.408 390.315H353.29"/><path stroke="#4343C2" stroke-width=".769" d="M78.022 428.753v289.109" opacity=".1"/><path stroke="#4343C2" stroke-width=".769" d="M78.022 428.753V536.4"/><circle cx="78.022" cy="428.753" r="4.613" fill="#4343C2"/><rect width="298.336" height="189.92" x="104.163" y="402.611" fill="#DCE6FF" rx="18.454"/><path fill="#000" d="M127.064 433.25c-.882 0-1.626-.195-2.233-.584a3.708 3.708 0 0 1-1.378-1.63c-.311-.694-.467-1.493-.467-2.399 0-.907.156-1.706.467-2.399a3.66 3.66 0 0 1 1.378-1.624c.607-.394 1.351-.591 2.233-.591 1.029 0 1.87.265 2.522.794.652.524 1.099 1.23 1.341 2.116l-.923.24c-.188-.702-.527-1.257-1.015-1.667-.488-.411-1.129-.616-1.925-.616-.693 0-1.269.158-1.728.474-.46.316-.806.757-1.04 1.323-.23.561-.349 1.211-.357 1.95-.004.738.109 1.388.339 1.949a2.928 2.928 0 0 0 1.045 1.323c.468.316 1.048.474 1.741.474.796 0 1.437-.205 1.925-.615.488-.415.827-.97 1.015-1.667l.923.239c-.242.886-.689 1.594-1.341 2.123-.652.525-1.493.787-2.522.787Zm7.748 0c-.66 0-1.224-.15-1.691-.449a2.924 2.924 0 0 1-1.077-1.243c-.25-.529-.375-1.136-.375-1.82 0-.698.127-1.309.382-1.833a2.895 2.895 0 0 1 1.082-1.225c.472-.295 1.032-.442 1.679-.442.665 0 1.231.149 1.698.449.472.295.831.707 1.077 1.236.25.525.375 1.13.375 1.815 0 .697-.125 1.31-.375 1.839a2.87 2.87 0 0 1-1.083 1.23c-.472.295-1.035.443-1.692.443Zm0-.867c.739 0 1.288-.244 1.649-.732.361-.492.541-1.13.541-1.913 0-.804-.182-1.444-.547-1.92-.361-.475-.908-.713-1.643-.713-.496 0-.906.113-1.23.338-.32.222-.56.531-.72.929-.155.394-.233.849-.233 1.366 0 .799.184 1.441.553 1.925.369.48.913.72 1.63.72Zm9.059.682v-3.389a4.58 4.58 0 0 0-.105-1.015 2.343 2.343 0 0 0-.338-.812 1.546 1.546 0 0 0-.597-.541c-.242-.127-.537-.191-.886-.191a2.06 2.06 0 0 0-.848.166 1.687 1.687 0 0 0-.616.48 2.148 2.148 0 0 0-.375.75 3.617 3.617 0 0 0-.129 1.009l-.64-.141c0-.681.119-1.253.357-1.716.238-.464.566-.814.984-1.052.419-.238.898-.357 1.44-.357.397 0 .744.061 1.039.185.3.123.552.289.757.498.209.209.377.449.504.719.127.267.22.552.277.855.057.3.086.599.086.899v3.653h-.91Zm-4.804 0v-6.643h.818v1.636h.092v5.007h-.91Zm7.723 0v-7.135c0-.172.008-.342.024-.511.021-.168.06-.328.117-.479.057-.156.148-.3.271-.431a1.24 1.24 0 0 1 .443-.32c.16-.07.326-.115.498-.135.176-.021.348-.031.517-.031h.848v.763h-.787c-.344 0-.603.084-.775.252-.168.168-.252.433-.252.794v7.233h-.904Zm-1.151-5.868v-.775h3.869v.775h-3.869Zm5.161-2.036v-1.015h.904v1.015h-.904Zm0 7.904v-6.643h.904v6.643h-.904Zm2.498 0v-6.643h.812v1.599l-.16-.209a2.28 2.28 0 0 1 .289-.541c.119-.168.248-.306.388-.412.172-.152.373-.267.603-.345.229-.082.461-.129.695-.141.233-.017.447 0 .639.049v.849a2.176 2.176 0 0 0-.793-.043 1.521 1.521 0 0 0-.794.344c-.221.173-.387.38-.498.622a2.629 2.629 0 0 0-.221.762 5.773 5.773 0 0 0-.056.794v3.315h-.904Zm12.11 0 .006-4.361c0-.512-.143-.914-.43-1.205-.283-.296-.644-.443-1.083-.443-.25 0-.494.057-.732.172a1.414 1.414 0 0 0-.591.553c-.151.255-.227.587-.227.997l-.535-.154c-.013-.475.08-.892.277-1.248.2-.357.475-.634.824-.831.352-.201.75-.301 1.193-.301.669 0 1.204.207 1.606.621.402.41.602.966.602 1.667l-.006 4.533h-.904Zm-7.929 0v-6.643h.812v1.636h.098v5.007h-.91Zm3.974 0 .006-4.299c0-.529-.142-.946-.424-1.249-.279-.308-.648-.461-1.108-.461-.459 0-.83.158-1.113.473-.283.312-.425.728-.425 1.249l-.541-.295a2.184 2.184 0 0 1 1.126-1.944 2.368 2.368 0 0 1 1.187-.295c.422 0 .798.09 1.126.27.332.181.592.443.781.788.189.344.283.762.283 1.255l-.006 4.508h-.892Zm11.243.185c-.648 0-1.21-.144-1.686-.431a2.919 2.919 0 0 1-1.101-1.211c-.262-.521-.394-1.132-.394-1.833 0-.726.129-1.354.388-1.883a2.874 2.874 0 0 1 1.089-1.224c.471-.287 1.027-.43 1.667-.43.656 0 1.216.151 1.679.455.463.299.814.73 1.052 1.291.238.562.346 1.233.326 2.012h-.923v-.32c-.016-.861-.203-1.511-.56-1.95-.352-.439-.869-.658-1.55-.658-.713 0-1.261.232-1.642.695-.377.463-.566 1.124-.566 1.981 0 .836.189 1.486.566 1.95.381.459.92.689 1.618.689.475 0 .889-.109 1.242-.326.357-.222.638-.54.843-.954l.843.326a3.017 3.017 0 0 1-1.163 1.347 3.206 3.206 0 0 1-1.728.474Zm-2.541-3.254v-.757h5.075v.757h-5.075Zm5.701 3.069 2.596-3.358-2.54-3.285h1.082l1.987 2.59 1.969-2.59h1.082l-2.54 3.285 2.602 3.358h-1.089l-2.024-2.663-2.036 2.663h-1.089Zm9.551.185c-.648 0-1.21-.144-1.685-.431a2.928 2.928 0 0 1-1.102-1.211c-.262-.521-.393-1.132-.393-1.833 0-.726.129-1.354.387-1.883a2.887 2.887 0 0 1 1.089-1.224c.472-.287 1.027-.43 1.667-.43.656 0 1.216.151 1.679.455.464.299.814.73 1.052 1.291.238.562.347 1.233.326 2.012h-.922v-.32c-.017-.861-.203-1.511-.56-1.95-.353-.439-.87-.658-1.55-.658-.714 0-1.261.232-1.643.695-.377.463-.566 1.124-.566 1.981 0 .836.189 1.486.566 1.95.382.459.921.689 1.618.689.476 0 .89-.109 1.243-.326a2.29 2.29 0 0 0 .842-.954l.843.326a3.015 3.015 0 0 1-1.162 1.347 3.21 3.21 0 0 1-1.729.474Zm-2.54-3.254v-.757h5.074v.757h-5.074Zm9.435 3.254c-.668 0-1.234-.15-1.698-.449a2.867 2.867 0 0 1-1.058-1.236c-.238-.529-.361-1.136-.369-1.821.008-.697.136-1.308.382-1.833.246-.529.6-.939 1.064-1.231.463-.295 1.025-.442 1.685-.442.673 0 1.257.164 1.753.492a2.48 2.48 0 0 1 1.028 1.347l-.886.283a1.872 1.872 0 0 0-.744-.923 2.061 2.061 0 0 0-1.157-.332c-.488 0-.892.113-1.212.338a1.97 1.97 0 0 0-.713.929 3.822 3.822 0 0 0-.24 1.372c.008.795.193 1.435.553 1.919.361.48.899.72 1.612.72.451 0 .835-.103 1.15-.308.32-.209.562-.513.726-.91l.911.27c-.246.591-.607 1.042-1.083 1.354-.476.307-1.044.461-1.704.461Zm6.351-.018c-.398 0-.747-.062-1.046-.185a2.33 2.33 0 0 1-.757-.498 2.618 2.618 0 0 1-.498-.714 3.61 3.61 0 0 1-.277-.855 4.887 4.887 0 0 1-.086-.904v-3.654h.911v3.389c0 .365.035.704.104 1.015.07.312.181.585.332.818.156.23.355.409.597.536.246.127.543.19.892.19.32 0 .601-.055.843-.166.246-.11.451-.268.615-.473.168-.21.295-.462.381-.757.086-.299.129-.636.129-1.009l.64.142c0 .68-.119 1.252-.357 1.716a2.472 2.472 0 0 1-.984 1.052c-.418.238-.898.357-1.439.357Zm2.233-.167v-1.636h-.093v-5.007h.905v6.643h-.812Zm5.902 0a4.44 4.44 0 0 1-1.107.093 2.474 2.474 0 0 1-.972-.234 1.399 1.399 0 0 1-.646-.652 1.909 1.909 0 0 1-.197-.744 27.959 27.959 0 0 1-.012-.868v-6.083h.898v6.046c0 .279.002.513.006.702.008.184.051.348.129.492a.926.926 0 0 0 .701.492c.324.053.724.041 1.2-.037v.793Zm-4.355-5.868v-.775h4.355v.775h-4.355Zm5.541-2.036v-1.015h.904v1.015h-.904Zm0 7.904v-6.643h.904v6.643h-.904Zm5.276.185c-.66 0-1.224-.15-1.691-.449a2.918 2.918 0 0 1-1.077-1.243c-.25-.529-.375-1.136-.375-1.82 0-.698.127-1.309.381-1.833a2.897 2.897 0 0 1 1.083-1.225c.472-.295 1.031-.442 1.679-.442.665 0 1.23.149 1.698.449.472.295.83.707 1.076 1.236.251.525.376 1.13.376 1.815 0 .697-.125 1.31-.376 1.839-.25.525-.611.935-1.082 1.23-.472.295-1.036.443-1.692.443Zm0-.867c.738 0 1.288-.244 1.649-.732.361-.492.541-1.13.541-1.913 0-.804-.182-1.444-.547-1.92-.361-.475-.909-.713-1.643-.713-.496 0-.906.113-1.23.338-.32.222-.56.531-.72.929-.156.394-.233.849-.233 1.366 0 .799.184 1.441.553 1.925.369.48.913.72 1.63.72Zm9.059.682v-3.389a4.58 4.58 0 0 0-.105-1.015 2.362 2.362 0 0 0-.338-.812 1.546 1.546 0 0 0-.597-.541c-.242-.127-.537-.191-.886-.191-.32 0-.603.056-.849.166a1.675 1.675 0 0 0-.615.48 2.148 2.148 0 0 0-.375.75 3.617 3.617 0 0 0-.129 1.009l-.64-.141c0-.681.119-1.253.357-1.716.238-.464.566-.814.984-1.052.418-.238.898-.357 1.439-.357.398 0 .745.061 1.04.185.299.123.552.289.757.498.209.209.377.449.504.719.127.267.219.552.277.855.057.3.086.599.086.899v3.653h-.91Zm-4.805 0v-6.643h.819v1.636h.092v5.007h-.911Z"/><rect width="261.429" height="34.601" x="122.617" y="453.519" fill="#4343C2" rx="9.227"/><rect width="73.815" height="6.151" x="134.919" y="467.743" fill="#F5F8FF" rx="3.076"/><circle cx="364.823" cy="470.819" r="6.92" fill="#F5F8FF"/></g><defs><clipPath id="a"><path fill="#fff" d="M.5 0h438v492H.5z"/></clipPath></defs></svg>