<svg xmlns="http://www.w3.org/2000/svg" width="439" height="492" fill="none"><g clip-path="url(#a)"><path fill="#151515" d="M.5 0h438v492H.5z"/><rect width="365.343" height="476.534" x="36.5" y="230.267" fill="#fff" rx="31.769"/><circle cx="79.388" cy="254.093" r="4.765" fill="#DFDFDF"/><circle cx="95.272" cy="254.093" r="4.765" fill="#DFDFDF"/><circle cx="111.157" cy="254.093" r="4.765" fill="#DFDFDF"/><path fill="#3022BB" d="m75.004 295.92 4.46-13.724h2.869l4.46 13.724h-2.068l-4.108-12.523h.515l-4.06 12.523h-2.068Zm2.316-3.098v-1.868h7.167v1.868H77.32Zm15.205 3.384c-1.055 0-1.95-.235-2.688-.705a4.62 4.62 0 0 1-1.696-1.935c-.388-.82-.585-1.751-.591-2.793.006-1.061.21-1.998.61-2.811.4-.82.972-1.462 1.715-1.925.744-.464 1.636-.696 2.678-.696 1.125 0 2.085.279 2.879.839.8.559 1.328 1.324 1.582 2.296l-1.983.572c-.197-.578-.52-1.026-.972-1.344a2.538 2.538 0 0 0-1.534-.486c-.654 0-1.191.156-1.61.467-.42.305-.731.725-.935 1.258-.203.534-.308 1.144-.314 1.83.006 1.061.248 1.919.724 2.574.483.654 1.195.981 2.135.981.642 0 1.16-.146 1.553-.438.4-.299.706-.724.915-1.277l2.02.476c-.336 1.004-.892 1.776-1.667 2.316-.775.534-1.716.801-2.821.801Zm10.173 0c-1.055 0-1.95-.235-2.687-.705a4.617 4.617 0 0 1-1.697-1.935c-.387-.82-.584-1.751-.59-2.793.005-1.061.209-1.998.61-2.811a4.58 4.58 0 0 1 1.715-1.925c.743-.464 1.636-.696 2.678-.696 1.124 0 2.084.279 2.878.839.801.559 1.328 1.324 1.582 2.296l-1.982.572c-.197-.578-.521-1.026-.972-1.344a2.54 2.54 0 0 0-1.535-.486c-.654 0-1.191.156-1.611.467-.419.305-.73.725-.934 1.258-.203.534-.308 1.144-.314 1.83.006 1.061.248 1.919.724 2.574.483.654 1.195.981 2.135.981.642 0 1.16-.146 1.554-.438.4-.299.705-.724.915-1.277l2.02.476c-.337 1.004-.893 1.776-1.668 2.316-.775.534-1.715.801-2.821.801Zm10.24 0c-1.029 0-1.922-.232-2.678-.696a4.688 4.688 0 0 1-1.754-1.916c-.406-.819-.61-1.763-.61-2.83 0-1.074.21-2.018.629-2.831a4.62 4.62 0 0 1 1.764-1.906c.756-.457 1.639-.686 2.649-.686 1.029 0 1.922.232 2.678.696a4.685 4.685 0 0 1 1.754 1.915c.413.814.619 1.751.619 2.812 0 1.074-.209 2.02-.629 2.84a4.692 4.692 0 0 1-1.753 1.916c-.756.457-1.646.686-2.669.686Zm0-1.878c.985 0 1.719-.33 2.202-.991.489-.667.734-1.525.734-2.573 0-1.074-.248-1.932-.744-2.573-.489-.649-1.22-.973-2.192-.973-.667 0-1.217.153-1.649.458-.432.299-.753.715-.962 1.248-.21.528-.315 1.141-.315 1.84 0 1.08.248 1.944.744 2.592.495.648 1.223.972 2.182.972Zm10.644 1.868c-.712 0-1.309-.114-1.792-.343a3.385 3.385 0 0 1-1.182-.896 4.285 4.285 0 0 1-.686-1.22 6.233 6.233 0 0 1-.324-1.286 8.351 8.351 0 0 1-.086-1.106v-5.718h2.02v5.061c0 .4.032.813.096 1.239.07.419.197.81.381 1.172.191.362.454.654.791.877.343.222.788.333 1.334.333.356 0 .693-.057 1.011-.171a2.13 2.13 0 0 0 .829-.572c.241-.261.429-.604.562-1.029.14-.426.21-.944.21-1.554l1.239.467c0 .934-.175 1.76-.524 2.478a3.954 3.954 0 0 1-1.506 1.668c-.655.4-1.446.6-2.373.6Zm3.402-.276v-2.974h-.238v-7.319h2.011v10.293h-1.773Zm11.289 0v-5.061c0-.4-.035-.81-.105-1.229a3.71 3.71 0 0 0-.381-1.182 2.242 2.242 0 0 0-.791-.877c-.337-.222-.779-.334-1.325-.334a2.81 2.81 0 0 0-1.01.182 2.09 2.09 0 0 0-.839.562c-.235.26-.423.603-.562 1.029-.134.426-.201.944-.201 1.554l-1.238-.467c0-.934.174-1.757.524-2.469a3.93 3.93 0 0 1 1.506-1.677c.654-.4 1.445-.601 2.373-.601.711 0 1.309.115 1.791.344.483.228.874.53 1.173.905.305.368.537.772.695 1.21.159.439.267.868.324 1.287.058.419.086.788.086 1.106v5.718h-2.02Zm-7.234 0v-10.293h1.782v2.973h.238v7.32h-2.02Zm17.245 0a8.533 8.533 0 0 1-1.906.162c-.622-.019-1.178-.14-1.668-.362a2.276 2.276 0 0 1-1.105-1.049 3.064 3.064 0 0 1-.362-1.296 52.16 52.16 0 0 1-.019-1.506v-9.101h2.001v9.006c0 .413.003.772.01 1.077.012.305.079.562.2.772.229.394.591.62 1.086.677.502.051 1.09.028 1.763-.067v1.687Zm-7.033-8.692v-1.601h7.033v1.601h-7.033Zm12.257 8.692v-13.724h1.801l4.975 10.321 4.947-10.321h1.82v13.714h-1.887v-9.387l-4.432 9.397h-.905l-4.441-9.397v9.397h-1.878Zm18.739.286c-.762 0-1.401-.14-1.916-.42a2.983 2.983 0 0 1-1.172-1.124 3.138 3.138 0 0 1-.391-1.544c0-.521.093-.979.277-1.373.184-.393.457-.727.819-1 .363-.28.807-.505 1.335-.677a14.79 14.79 0 0 1 1.553-.353 51.895 51.895 0 0 1 1.821-.285l1.906-.267-.725.4c.013-.807-.158-1.404-.514-1.792-.35-.394-.953-.591-1.811-.591a2.97 2.97 0 0 0-1.487.382c-.451.247-.766.66-.943 1.239l-1.859-.572c.254-.884.737-1.586 1.449-2.107.718-.521 1.671-.781 2.859-.781.921 0 1.722.159 2.402.476a2.967 2.967 0 0 1 1.506 1.487c.165.337.266.693.305 1.068.038.374.057.778.057 1.21v6.338h-1.763v-2.354l.343.305c-.426.788-.969 1.375-1.63 1.763-.655.381-1.461.572-2.421.572Zm.353-1.63c.565 0 1.051-.098 1.458-.295.407-.204.734-.461.982-.772.247-.312.409-.636.486-.972a3.43 3.43 0 0 0 .181-1.03c.019-.381.028-.686.028-.915l.648.239c-.629.095-1.2.181-1.715.257a40.68 40.68 0 0 0-1.401.229 8.207 8.207 0 0 0-1.106.257 3.77 3.77 0 0 0-.734.343 1.678 1.678 0 0 0-.505.486c-.12.191-.181.423-.181.696 0 .267.067.514.2.743.134.223.337.401.61.534.274.133.623.2 1.049.2Zm14.436 1.344v-5.061c0-.4-.035-.81-.105-1.229a3.71 3.71 0 0 0-.381-1.182 2.237 2.237 0 0 0-.792-.877c-.336-.222-.778-.334-1.324-.334-.356 0-.693.061-1.011.182a2.094 2.094 0 0 0-.838.562c-.235.26-.423.603-.563 1.029-.133.426-.2.944-.2 1.554l-1.239-.467c0-.934.175-1.757.525-2.469a3.934 3.934 0 0 1 1.505-1.677c.655-.4 1.446-.601 2.373-.601.712 0 1.309.115 1.792.344.483.228.874.53 1.173.905.305.368.536.772.695 1.21.159.439.267.868.324 1.287.058.419.086.788.086 1.106v5.718h-2.02Zm-7.234 0v-10.293h1.782v2.973h.238v7.32h-2.02Zm14.262.286c-.762 0-1.401-.14-1.915-.42a2.98 2.98 0 0 1-1.173-1.124 3.138 3.138 0 0 1-.391-1.544c0-.521.093-.979.277-1.373.184-.393.457-.727.82-1 .362-.28.806-.505 1.334-.677a14.79 14.79 0 0 1 1.553-.353 51.895 51.895 0 0 1 1.821-.285l1.906-.267-.725.4c.013-.807-.158-1.404-.514-1.792-.35-.394-.953-.591-1.811-.591a2.97 2.97 0 0 0-1.487.382c-.451.247-.765.66-.943 1.239l-1.859-.572c.254-.884.737-1.586 1.449-2.107.718-.521 1.671-.781 2.859-.781.921 0 1.722.159 2.402.476a2.967 2.967 0 0 1 1.506 1.487c.165.337.266.693.305 1.068.038.374.057.778.057 1.21v6.338h-1.763v-2.354l.343.305c-.426.788-.969 1.375-1.63 1.763-.654.381-1.461.572-2.421.572Zm.353-1.63c.565 0 1.051-.098 1.458-.295.407-.204.734-.461.982-.772.247-.312.409-.636.486-.972a3.43 3.43 0 0 0 .181-1.03c.019-.381.028-.686.028-.915l.648.239c-.629.095-1.2.181-1.715.257a40.68 40.68 0 0 0-1.401.229 8.207 8.207 0 0 0-1.106.257c-.273.095-.517.21-.733.343a1.67 1.67 0 0 0-.506.486c-.12.191-.181.423-.181.696 0 .267.067.514.2.743.134.223.337.401.61.534.274.133.623.2 1.049.2Zm11.453 6.205c-.553 0-1.09-.086-1.611-.258a4.586 4.586 0 0 1-1.411-.762 4.147 4.147 0 0 1-1.058-1.23l1.84-.934c.222.439.54.76.953.963.413.203.848.305 1.306.305.565 0 1.048-.102 1.448-.305.401-.197.702-.496.906-.896.209-.4.311-.896.305-1.487v-2.878h.238v-7.672h1.763v10.569c0 .274-.009.534-.028.782a6.12 6.12 0 0 1-.105.743c-.146.693-.426 1.265-.839 1.716-.407.451-.928.788-1.563 1.01-.629.222-1.344.334-2.144.334Zm-.153-4.575c-.959 0-1.789-.238-2.487-.715-.693-.476-1.23-1.125-1.611-1.944-.375-.826-.562-1.754-.562-2.783 0-1.036.19-1.96.571-2.774.382-.819.922-1.464 1.621-1.934.705-.477 1.54-.715 2.506-.715.972 0 1.789.238 2.45.715.667.47 1.169 1.115 1.505 1.934.344.82.515 1.745.515 2.774s-.171 1.954-.515 2.773c-.343.82-.848 1.471-1.515 1.954-.667.477-1.493.715-2.478.715Zm.276-1.801c.655 0 1.189-.156 1.602-.467.413-.312.714-.741.905-1.287.191-.547.286-1.176.286-1.887 0-.712-.099-1.341-.296-1.887-.19-.547-.489-.972-.895-1.277-.401-.305-.912-.458-1.535-.458-.661 0-1.204.162-1.63.486-.425.324-.743.76-.953 1.306a5.22 5.22 0 0 0-.305 1.83c0 .68.102 1.296.305 1.849.21.546.521.981.934 1.305.42.325.947.487 1.582.487Zm11.416 1.801c-1.023 0-1.922-.223-2.697-.667a4.74 4.74 0 0 1-1.801-1.878c-.426-.807-.639-1.741-.639-2.802 0-1.124.21-2.1.629-2.926.426-.826 1.017-1.464 1.773-1.915.756-.452 1.636-.677 2.64-.677 1.048 0 1.941.244 2.678.734.737.483 1.287 1.172 1.649 2.068.368.896.515 1.96.438 3.193h-1.992v-.725c-.012-1.194-.241-2.077-.686-2.649-.438-.572-1.109-.858-2.011-.858-.997 0-1.747.315-2.249.944s-.753 1.537-.753 2.725c0 1.131.251 2.008.753 2.631.502.616 1.226.924 2.173.924.623 0 1.16-.139 1.611-.419a2.868 2.868 0 0 0 1.067-1.22l1.954.62c-.4.921-1.007 1.636-1.82 2.144a5.071 5.071 0 0 1-2.717.753Zm-3.669-4.87v-1.554h7.348v1.554h-7.348Zm10.096 4.584v-10.293h1.773v2.497l-.248-.324c.127-.331.293-.632.496-.906.203-.279.438-.508.705-.686.261-.19.55-.337.867-.438.324-.108.655-.172.992-.191.336-.025.66-.009.972.048v1.868a3.21 3.21 0 0 0-1.125-.076 2.458 2.458 0 0 0-1.124.39 2.51 2.51 0 0 0-.772.763 3.227 3.227 0 0 0-.401 1 5.22 5.22 0 0 0-.124 1.154v5.194h-2.011Z"/><path stroke="#DFDFDF" stroke-width=".794" d="M74.622 317.631H363.72"/><path fill="#A9A9A9" d="M78.597 345.888c-.796 0-1.465-.176-2.006-.528a3.305 3.305 0 0 1-1.224-1.473c-.274-.626-.411-1.349-.411-2.168 0-.819.137-1.542.411-2.168a3.265 3.265 0 0 1 1.224-1.468c.54-.356 1.21-.534 2.007-.534.93 0 1.684.241 2.262.723.582.482.977 1.127 1.184 1.935l-.661.161c-.17-.671-.49-1.203-.956-1.596-.464-.396-1.073-.595-1.83-.595-.655 0-1.202.15-1.64.451-.433.3-.761.717-.984 1.251-.218.533-.33 1.147-.333 1.84-.008.693.098 1.306.317 1.84.222.53.554.947.995 1.251.441.3.99.45 1.645.45.757 0 1.366-.198 1.83-.595.467-.396.785-.928.956-1.595l.662.161c-.208.808-.603 1.453-1.185 1.935-.578.482-1.332.722-2.263.722Zm4.665-.166v-6.005h.584v1.44l-.145-.189a2.3 2.3 0 0 1 .25-.472c.105-.149.21-.269.318-.362.159-.148.346-.259.561-.333.215-.078.432-.123.65-.134.22-.015.418.002.596.05v.606a2.156 2.156 0 0 0-.757-.033 1.425 1.425 0 0 0-.75.345 1.585 1.585 0 0 0-.445.622c-.093.234-.152.48-.178.74a7.422 7.422 0 0 0-.039.75v2.975h-.645Zm6.231.166c-.574 0-1.07-.127-1.49-.383a2.6 2.6 0 0 1-.972-1.095c-.23-.475-.345-1.034-.345-1.679 0-.656.113-1.222.339-1.696.23-.478.552-.845.967-1.101.42-.256.916-.383 1.49-.383.582 0 1.079.133 1.49.4.415.263.73.645.945 1.145.219.5.323 1.103.312 1.807h-.667v-.222c-.019-.823-.204-1.45-.556-1.88-.353-.429-.857-.644-1.513-.644-.678 0-1.202.224-1.573.672-.367.445-.55 1.075-.55 1.891 0 .808.183 1.434.55 1.879.37.444.891.667 1.562.667.464 0 .868-.108 1.212-.323.349-.218.625-.53.829-.934l.578.256c-.241.519-.59.919-1.045 1.201-.456.282-.977.422-1.563.422Zm-2.368-2.985v-.578h4.742v.578h-4.742Zm8.64 2.985c-.566 0-1.046-.139-1.44-.417a2.693 2.693 0 0 1-.894-1.139 4.13 4.13 0 0 1-.306-1.624c0-.593.102-1.128.306-1.606.204-.478.496-.856.878-1.134.386-.278.85-.417 1.396-.417.56 0 1.032.137 1.417.411.386.274.677.65.873 1.129.197.474.295 1.013.295 1.617 0 .601-.099 1.14-.295 1.618a2.653 2.653 0 0 1-.856 1.14c-.374.282-.832.422-1.373.422Zm.04-.611c.448 0 .82-.111 1.117-.334.3-.226.523-.532.667-.917.148-.389.223-.828.223-1.318 0-.493-.075-.932-.223-1.317a1.936 1.936 0 0 0-.667-.901c-.296-.219-.665-.328-1.106-.328-.456 0-.832.113-1.129.339a1.978 1.978 0 0 0-.661.912 3.639 3.639 0 0 0-.217 1.295c0 .486.074.923.222 1.312.152.386.374.692.667.918.297.226.666.339 1.107.339Zm2.007.445v-4.626h-.056v-3.38h.64v8.006h-.584Zm2.251-7.217v-.817h.639v.817h-.639Zm0 7.217v-6.005h.639v6.005h-.639Zm5.496 0c-.319.07-.634.096-.945.078a2.075 2.075 0 0 1-.834-.206 1.216 1.216 0 0 1-.545-.578 1.694 1.694 0 0 1-.167-.64 14.676 14.676 0 0 1-.016-.739v-5.588h.645v5.577c0 .252.001.461.005.628.007.163.046.313.117.45a.86.86 0 0 0 .634.467c.289.052.657.043 1.106-.028v.579Zm-3.853-5.421v-.584h3.853v.584h-3.853Zm10.423 5.587c-.797 0-1.466-.176-2.007-.528a3.297 3.297 0 0 1-1.223-1.473c-.275-.626-.412-1.349-.412-2.168 0-.819.137-1.542.412-2.168a3.257 3.257 0 0 1 1.223-1.468c.541-.356 1.21-.534 2.007-.534.93 0 1.684.241 2.262.723.582.482.977 1.127 1.185 1.935l-.662.161c-.171-.671-.489-1.203-.956-1.596-.464-.396-1.073-.595-1.829-.595-.656 0-1.203.15-1.64.451-.434.3-.762.717-.984 1.251-.219.533-.33 1.147-.334 1.84-.007.693.098 1.306.317 1.84.222.53.554.947.995 1.251.441.3.99.45 1.646.45.756 0 1.365-.198 1.829-.595.467-.396.785-.928.956-1.595l.662.161c-.208.808-.603 1.453-1.185 1.935-.578.482-1.332.722-2.262.722Zm6.399 0c-.463 0-.849-.081-1.156-.244a1.67 1.67 0 0 1-.684-.645 1.764 1.764 0 0 1-.228-.878c0-.341.07-.627.211-.857.145-.229.336-.415.573-.556.241-.14.506-.246.795-.316.33-.075.685-.138 1.067-.19.382-.055.745-.103 1.09-.144.348-.041.632-.076.851-.106l-.234.139c.015-.648-.107-1.13-.367-1.445-.256-.319-.708-.478-1.356-.478-.456 0-.833.103-1.129.311-.293.204-.499.521-.617.951l-.656-.184c.137-.545.413-.963.828-1.256.415-.293.947-.439 1.596-.439.552 0 1.015.107 1.39.322.378.215.641.517.789.906.063.16.106.347.128.562.022.211.033.424.033.639v3.742h-.583v-1.579l.216.055a2.316 2.316 0 0 1-.95 1.251c-.452.293-.988.439-1.607.439Zm.033-.589c.408 0 .766-.072 1.073-.217.308-.148.556-.354.745-.617.193-.267.315-.58.367-.939.037-.2.058-.417.061-.651.004-.233.006-.406.006-.517l.278.178c-.241.03-.53.061-.867.095-.334.033-.675.074-1.023.122a8.02 8.02 0 0 0-.945.183 2.73 2.73 0 0 0-.529.212c-.174.089-.32.213-.439.372-.115.159-.172.361-.172.606 0 .182.044.363.133.545.093.182.245.332.456.45.211.119.497.178.856.178Zm4.335.423v-6.005h.584v1.44l-.145-.189c.067-.17.15-.328.25-.472.104-.149.21-.269.317-.362.16-.148.347-.259.562-.333.215-.078.432-.123.65-.134.219-.015.417.002.595.05v.606a2.155 2.155 0 0 0-.756-.033 1.427 1.427 0 0 0-.751.345 1.585 1.585 0 0 0-.444.622c-.093.234-.152.48-.178.74a7.422 7.422 0 0 0-.039.75v2.975h-.645Zm6.064.166c-.567 0-1.047-.139-1.44-.417a2.697 2.697 0 0 1-.895-1.139 4.128 4.128 0 0 1-.306-1.624c0-.593.102-1.128.306-1.606.204-.478.497-.856.879-1.134.385-.278.85-.417 1.395-.417.56 0 1.032.137 1.418.411.385.274.676.65.873 1.129.196.474.294 1.013.294 1.617 0 .601-.098 1.14-.294 1.618a2.654 2.654 0 0 1-.857 1.14c-.374.282-.832.422-1.373.422Zm.039-.611c.449 0 .821-.111 1.118-.334.3-.226.522-.532.667-.917.148-.389.222-.828.222-1.318 0-.493-.074-.932-.222-1.317a1.944 1.944 0 0 0-.667-.901c-.297-.219-.666-.328-1.107-.328-.456 0-.832.113-1.128.339a1.98 1.98 0 0 0-.662.912 3.652 3.652 0 0 0-.217 1.295c0 .486.074.923.223 1.312a2.1 2.1 0 0 0 .667.918c.296.226.665.339 1.106.339Zm2.007.445v-4.626h-.055v-3.38h.639v8.006h-.584Zm4.589 0v-8.006h.639v8.006h-.639Zm4.086 0 2.835-8.006h.795l2.836 8.006h-.678l-2.725-7.673h.323l-2.708 7.673h-.678Zm1.173-2.013v-.606h4.114v.606h-4.114Zm8.741 2.179c-.601 0-1.107-.133-1.518-.4a2.578 2.578 0 0 1-.94-1.117c-.211-.478-.32-1.029-.328-1.651.008-.634.119-1.188.334-1.663.219-.478.534-.849.945-1.112.412-.263.916-.394 1.512-.394.582 0 1.094.14 1.535.422.445.278.752.662.923 1.151l-.623.228a1.781 1.781 0 0 0-.717-.867 2.044 2.044 0 0 0-1.123-.312c-.475 0-.866.11-1.173.328a1.934 1.934 0 0 0-.69.895c-.152.382-.231.823-.239 1.324.011.767.191 1.384.54 1.851.352.463.872.695 1.562.695.426 0 .795-.098 1.106-.295.315-.196.556-.482.723-.856l.634.217c-.234.508-.56.895-.979 1.162-.419.263-.913.394-1.484.394Zm5.918 0c-.601 0-1.107-.133-1.518-.4a2.578 2.578 0 0 1-.94-1.117c-.211-.478-.32-1.029-.328-1.651.008-.634.119-1.188.334-1.663.219-.478.534-.849.945-1.112.411-.263.916-.394 1.512-.394.582 0 1.094.14 1.535.422.444.278.752.662.923 1.151l-.623.228a1.781 1.781 0 0 0-.717-.867 2.044 2.044 0 0 0-1.123-.312c-.475 0-.866.11-1.173.328a1.934 1.934 0 0 0-.69.895c-.152.382-.231.823-.239 1.324.011.767.191 1.384.539 1.851.353.463.873.695 1.563.695.426 0 .795-.098 1.106-.295.315-.196.556-.482.723-.856l.634.217c-.234.508-.56.895-.979 1.162-.419.263-.914.394-1.484.394Zm5.929 0c-.597 0-1.103-.135-1.518-.405a2.6 2.6 0 0 1-.951-1.123c-.218-.479-.328-1.029-.328-1.652 0-.626.111-1.176.334-1.651.222-.478.541-.849.956-1.112.419-.263.921-.394 1.507-.394.596 0 1.102.135 1.517.405.419.267.736.638.951 1.112.219.475.328 1.021.328 1.64 0 .634-.109 1.19-.328 1.668a2.549 2.549 0 0 1-.956 1.112c-.419.267-.923.4-1.512.4Zm0-.622c.708 0 1.236-.237 1.584-.712.352-.474.528-1.09.528-1.846 0-.771-.176-1.386-.528-1.845-.352-.46-.88-.69-1.584-.69-.478 0-.873.11-1.184.328a1.955 1.955 0 0 0-.701.895c-.152.378-.228.816-.228 1.312 0 .771.178 1.39.534 1.857.359.467.886.701 1.579.701Zm6.327.595c-.33 0-.627-.049-.89-.145a2.073 2.073 0 0 1-.678-.406 2.32 2.32 0 0 1-.478-.622 3.166 3.166 0 0 1-.284-.79 4.41 4.41 0 0 1-.089-.895v-3.286h.645v3.125c0 .378.037.715.111 1.012.078.296.193.548.345.756.156.207.348.365.578.472.234.108.508.162.823.162.326 0 .608-.056.845-.167.241-.115.437-.275.589-.478.156-.204.271-.445.345-.723.078-.282.117-.588.117-.917l.506.061c0 .648-.112 1.184-.334 1.606-.219.419-.515.731-.889.934a2.626 2.626 0 0 1-1.262.301Zm2.04-.139v-1.351h-.061v-4.654h.645v6.005h-.584Zm6.532 0v-3.125c0-.378-.038-.715-.116-1.012a2.089 2.089 0 0 0-.345-.756 1.467 1.467 0 0 0-.578-.472 1.905 1.905 0 0 0-.817-.162c-.327 0-.61.058-.851.173a1.566 1.566 0 0 0-.589.472 2.179 2.179 0 0 0-.345.729 3.537 3.537 0 0 0-.111.911l-.506-.061c0-.648.109-1.182.328-1.601.222-.422.521-.734.895-.934a2.593 2.593 0 0 1 1.262-.306c.33 0 .625.049.884.145.263.096.491.233.684.411.193.175.352.382.478.623.126.237.219.498.278.784.063.285.094.584.094.895v3.286h-.645Zm-4.397 0v-6.005h.584v1.351h.061v4.654h-.645Zm9.668 0c-.319.07-.634.096-.945.078a2.075 2.075 0 0 1-.834-.206 1.216 1.216 0 0 1-.545-.578 1.694 1.694 0 0 1-.167-.64 14.676 14.676 0 0 1-.016-.739v-5.588h.645v5.577c0 .252.001.461.005.628.008.163.046.313.117.45a.86.86 0 0 0 .634.467c.289.052.658.043 1.106-.028v.579Zm-3.853-5.421v-.584h3.853v.584h-3.853Zm8.627 5.421v-7.278l-1.512.906v-.733l1.512-.901h.645v8.006h-.645Zm5.41-8.173c.496 0 .947.122 1.351.367.407.241.732.567.973.979.244.411.367.869.367 1.373v2.885a2.698 2.698 0 0 1-1.34 2.374 2.678 2.678 0 0 1-1.379.361c-.475 0-.912-.111-1.312-.333a2.63 2.63 0 0 1-.956-.906l.517-.373c.178.293.422.532.733.717.312.182.651.273 1.018.273.396 0 .75-.097 1.062-.289.311-.193.556-.447.734-.762.181-.315.272-.656.272-1.023v-1.885l.195.223c-.234.4-.551.726-.951.978a2.44 2.44 0 0 1-1.323.373 2.58 2.58 0 0 1-1.34-.356 2.686 2.686 0 0 1-.956-.956 2.602 2.602 0 0 1-.356-1.346c0-.493.122-.941.367-1.345.244-.404.569-.727.973-.968.407-.24.858-.361 1.351-.361Zm0 .634a2.02 2.02 0 0 0-1.774 1.012c-.181.307-.272.65-.272 1.028s.091.723.272 1.034c.186.308.432.554.74.74a2.02 2.02 0 0 0 1.034.272c.378 0 .721-.091 1.028-.272a2.02 2.02 0 0 0 1.012-1.774 2.02 2.02 0 0 0-2.04-2.04Zm6.606 7.705a2.66 2.66 0 0 1-1.162-.255 2.667 2.667 0 0 1-.901-.706 2.785 2.785 0 0 1-.522-1.034l.611-.167c.082.311.222.582.423.811a2.044 2.044 0 0 0 1.556.712c.389 0 .738-.093 1.045-.278.308-.189.551-.437.729-.745.181-.311.272-.65.272-1.017 0-.386-.094-.732-.283-1.04a2.129 2.129 0 0 0-.751-.734 1.958 1.958 0 0 0-1.012-.272c-.396 0-.745.092-1.045.278a2.166 2.166 0 0 0-.717.711l-.612-.3.245-4.136h4.247v.623h-4.008l.378-.351-.233 3.759-.189-.267c.233-.286.522-.512.867-.679.345-.166.713-.25 1.106-.25.489 0 .934.119 1.335.356.4.237.719.558.956.962.241.4.361.847.361 1.34 0 .485-.122.932-.367 1.34a2.804 2.804 0 0 1-.984.973 2.57 2.57 0 0 1-1.345.366ZM75.512 371.664v-8.006h.64v8.006h-.64Zm6.708 0v-3.124c0-.378-.04-.716-.117-1.012a2.08 2.08 0 0 0-.345-.756 1.466 1.466 0 0 0-.578-.473 1.921 1.921 0 0 0-.817-.161c-.326 0-.61.057-.85.172a1.564 1.564 0 0 0-.59.473 2.173 2.173 0 0 0-.345.728 3.535 3.535 0 0 0-.11.912l-.507-.061c0-.649.11-1.183.328-1.601.223-.423.521-.734.895-.934a2.594 2.594 0 0 1 1.262-.306c.33 0 .625.048.884.144.264.097.491.234.684.412.193.174.352.381.478.622.126.238.219.499.278.784.063.286.095.584.095.895v3.286h-.645Zm-4.398 0v-6.004h.584v1.351h.061v4.653h-.645Zm8.701.156c-.693 0-1.266-.147-1.718-.439a1.855 1.855 0 0 1-.834-1.224l.656-.111c.093.356.312.64.656.851.345.211.767.317 1.268.317.496 0 .891-.106 1.184-.317.293-.211.44-.501.44-.867a.806.806 0 0 0-.14-.49c-.089-.129-.267-.248-.534-.356a11.973 11.973 0 0 0-1.19-.378c-.555-.148-.99-.296-1.306-.444-.311-.149-.532-.317-.661-.506a1.226 1.226 0 0 1-.19-.695c0-.33.095-.619.284-.867.19-.253.452-.449.79-.59a3.065 3.065 0 0 1 1.178-.211 3.1 3.1 0 0 1 1.201.222c.356.145.643.349.862.612.219.259.345.561.378.906l-.656.122a1.319 1.319 0 0 0-.584-.911c-.326-.226-.734-.341-1.223-.345-.463-.007-.841.085-1.134.278-.293.189-.44.439-.44.75 0 .178.05.33.15.456.105.123.286.236.546.339.26.104.626.215 1.1.334.579.148 1.029.3 1.351.456.327.156.556.339.69.55.133.208.2.465.2.773 0 .556-.208.993-.623 1.312-.411.315-.978.473-1.701.473Zm6.744-.156c-.319.07-.634.096-.945.078a2.056 2.056 0 0 1-.834-.206 1.217 1.217 0 0 1-.545-.578 1.688 1.688 0 0 1-.167-.639 14.542 14.542 0 0 1-.016-.74v-5.587h.645v5.576c0 .252.001.462.005.628.008.163.047.314.117.451a.865.865 0 0 0 .634.467c.289.052.658.042 1.106-.028v.578Zm-3.853-5.421v-.583h3.853v.583h-3.853Zm6.735 5.588c-.464 0-.85-.082-1.157-.245a1.67 1.67 0 0 1-.684-.645 1.76 1.76 0 0 1-.228-.878c0-.341.07-.626.212-.856.144-.23.335-.415.572-.556.241-.141.506-.247.795-.317.33-.074.686-.137 1.068-.189.382-.056.745-.104 1.09-.145.348-.04.631-.076.85-.105l-.233.139c.014-.649-.108-1.131-.367-1.446-.256-.319-.708-.478-1.357-.478-.456 0-.832.104-1.128.311-.293.204-.499.521-.618.951l-.656-.183c.137-.545.414-.964.829-1.257.415-.293.947-.439 1.595-.439.553 0 1.016.107 1.39.322.378.215.641.517.79.907.063.159.105.346.128.561.022.211.033.425.033.639v3.742h-.584v-1.579l.217.056a2.32 2.32 0 0 1-.95 1.251c-.453.292-.988.439-1.607.439Zm.033-.589c.408 0 .765-.073 1.073-.217a1.94 1.94 0 0 0 .745-.617c.193-.267.315-.58.367-.94.037-.2.057-.417.061-.65.004-.234.006-.406.006-.517l.278.177c-.241.03-.53.062-.868.095a26.92 26.92 0 0 0-1.023.122c-.348.048-.663.11-.945.184-.174.048-.35.118-.528.211-.174.089-.32.213-.44.372-.114.16-.171.362-.171.606 0 .182.044.364.133.545.093.182.245.332.456.451.211.118.497.178.856.178Zm4.446.422v-8.172h.639v8.172h-.639Zm2.421 0v-8.172h.64v8.172h-.64Zm9.454 0 .012-4.036c0-.486-.139-.866-.417-1.14a1.387 1.387 0 0 0-1.029-.417c-.233 0-.465.054-.695.161a1.367 1.367 0 0 0-.567.523c-.152.241-.228.567-.228.978l-.45-.072c-.015-.437.065-.817.239-1.14.178-.326.422-.578.734-.756a2.14 2.14 0 0 1 1.073-.266c.589 0 1.065.181 1.429.544.366.364.55.86.55 1.49l-.011 4.131h-.64Zm-7.144 0v-6.004h.584v1.351h.056v4.653h-.64Zm3.575 0 .011-3.975c0-.497-.135-.89-.405-1.179-.271-.292-.623-.439-1.057-.439-.441 0-.799.152-1.073.456-.274.3-.411.702-.411 1.206l-.445-.222c0-.389.089-.734.267-1.034.178-.304.421-.543.728-.717a2.153 2.153 0 0 1 1.068-.261c.359 0 .687.075.984.227.296.152.533.382.711.69.178.304.267.686.267 1.145l-.011 4.103h-.634Zm8.118.167c-.574 0-1.071-.128-1.49-.384a2.594 2.594 0 0 1-.973-1.095c-.229-.474-.344-1.034-.344-1.679 0-.656.113-1.221.339-1.696a2.55 2.55 0 0 1 .967-1.1c.419-.256.916-.384 1.49-.384.582 0 1.079.133 1.49.4.415.263.73.645.945 1.146.219.5.323 1.102.312 1.806h-.668v-.222c-.018-.823-.203-1.449-.555-1.879-.353-.43-.857-.645-1.513-.645-.678 0-1.202.224-1.573.673-.367.444-.55 1.074-.55 1.89 0 .808.183 1.434.55 1.879.371.445.891.667 1.562.667.463 0 .867-.107 1.212-.322a2.29 2.29 0 0 0 .829-.934l.578.255c-.241.519-.59.92-1.045 1.201a2.91 2.91 0 0 1-1.563.423Zm-2.368-2.986v-.578h4.742v.578h-4.742Zm10.568 2.819v-3.124c0-.378-.039-.716-.117-1.012a2.089 2.089 0 0 0-.344-.756 1.469 1.469 0 0 0-.578-.473 1.925 1.925 0 0 0-.818-.161c-.326 0-.609.057-.85.172a1.562 1.562 0 0 0-.59.473 2.153 2.153 0 0 0-.344.728 3.538 3.538 0 0 0-.112.912l-.505-.061c0-.649.109-1.183.328-1.601.222-.423.52-.734.895-.934a2.593 2.593 0 0 1 1.262-.306c.33 0 .624.048.884.144.263.097.491.234.683.412.193.174.353.381.479.622.126.238.218.499.278.784.063.286.094.584.094.895v3.286h-.645Zm-4.397 0v-6.004h.583v1.351h.061v4.653h-.644Zm9.668 0c-.319.07-.634.096-.945.078a2.05 2.05 0 0 1-.834-.206 1.216 1.216 0 0 1-.545-.578 1.685 1.685 0 0 1-.167-.639 14.62 14.62 0 0 1-.017-.74v-5.587h.645v5.576c0 .252.002.462.006.628.007.163.046.314.117.451a.863.863 0 0 0 .633.467c.289.052.658.042 1.107-.028v.578Zm-3.853-5.421v-.583h3.853v.583h-3.853Zm7.337 5.421v-8.006h.639v7.383h3.892v.623h-4.531Zm7.944.167c-.597 0-1.103-.135-1.518-.406a2.6 2.6 0 0 1-.951-1.123c-.218-.478-.328-1.029-.328-1.651 0-.627.111-1.177.334-1.651a2.55 2.55 0 0 1 .956-1.112c.419-.263.921-.395 1.507-.395.596 0 1.102.135 1.517.406.419.267.736.637.951 1.112.219.474.328 1.021.328 1.64 0 .634-.109 1.19-.328 1.668a2.554 2.554 0 0 1-.956 1.112c-.419.266-.923.4-1.512.4Zm0-.623c.708 0 1.236-.237 1.584-.711.352-.475.528-1.09.528-1.846 0-.771-.176-1.386-.528-1.846-.352-.46-.88-.689-1.584-.689-.478 0-.873.109-1.185.328a1.954 1.954 0 0 0-.7.895c-.152.378-.228.815-.228 1.312 0 .771.178 1.39.534 1.857.359.467.886.7 1.579.7Zm5.754.623c-.463 0-.849-.082-1.157-.245a1.673 1.673 0 0 1-.683-.645 1.761 1.761 0 0 1-.228-.878c0-.341.07-.626.211-.856.145-.23.335-.415.573-.556.241-.141.506-.247.795-.317.33-.074.685-.137 1.067-.189.382-.056.745-.104 1.09-.145.348-.04.632-.076.85-.105l-.233.139c.015-.649-.108-1.131-.367-1.446-.256-.319-.708-.478-1.357-.478-.455 0-.832.104-1.128.311-.293.204-.499.521-.617.951l-.656-.183c.137-.545.413-.964.828-1.257.415-.293.947-.439 1.596-.439.552 0 1.015.107 1.39.322.378.215.641.517.789.907.063.159.106.346.128.561.022.211.033.425.033.639v3.742h-.584v-1.579l.217.056a2.316 2.316 0 0 1-.95 1.251c-.453.292-.988.439-1.607.439Zm.033-.589c.408 0 .766-.073 1.073-.217.308-.149.556-.354.745-.617.193-.267.315-.58.367-.94.037-.2.058-.417.061-.65.004-.234.006-.406.006-.517l.278.177c-.241.03-.53.062-.867.095-.334.033-.675.074-1.023.122a8.07 8.07 0 0 0-.946.184 2.68 2.68 0 0 0-.528.211c-.174.089-.32.213-.439.372-.115.16-.172.362-.172.606 0 .182.044.364.133.545.093.182.245.332.456.451.211.118.497.178.856.178Zm8.732.422v-3.124c0-.378-.039-.716-.116-1.012a2.073 2.073 0 0 0-.345-.756 1.469 1.469 0 0 0-.578-.473 1.92 1.92 0 0 0-.817-.161c-.327 0-.61.057-.851.172a1.559 1.559 0 0 0-.589.473 2.173 2.173 0 0 0-.345.728 3.54 3.54 0 0 0-.111.912l-.506-.061c0-.649.109-1.183.328-1.601.222-.423.521-.734.895-.934a2.593 2.593 0 0 1 1.262-.306c.33 0 .624.048.884.144.263.097.491.234.684.412.192.174.352.381.478.622.126.238.218.499.278.784.063.286.094.584.094.895v3.286h-.645Zm-4.397 0v-6.004h.584v1.351h.061v4.653h-.645Zm8.931 0v-8.006h.639v8.006h-.639Zm4.086 0 2.835-8.006h.795l2.836 8.006h-.679l-2.724-7.672h.323l-2.708 7.672h-.678Zm1.173-2.012v-.606h4.114v.606h-4.114Zm8.741 2.179c-.601 0-1.107-.134-1.518-.4a2.58 2.58 0 0 1-.94-1.118c-.211-.478-.32-1.028-.328-1.651.008-.634.119-1.188.334-1.662.219-.479.534-.849.945-1.112.411-.263.916-.395 1.512-.395.582 0 1.094.141 1.535.422.444.278.752.662.923 1.151l-.623.228a1.786 1.786 0 0 0-.717-.867 2.043 2.043 0 0 0-1.123-.311c-.475 0-.866.109-1.173.328a1.929 1.929 0 0 0-.69.895c-.152.381-.231.823-.239 1.323.011.767.191 1.384.539 1.851.353.464.873.695 1.563.695.426 0 .795-.098 1.106-.294a1.88 1.88 0 0 0 .723-.857l.634.217c-.234.508-.56.895-.979 1.162-.419.263-.913.395-1.484.395Zm5.918 0c-.601 0-1.107-.134-1.518-.4a2.574 2.574 0 0 1-.94-1.118c-.211-.478-.32-1.028-.328-1.651.008-.634.119-1.188.334-1.662.219-.479.534-.849.945-1.112.411-.263.915-.395 1.512-.395.582 0 1.094.141 1.535.422.444.278.752.662.922 1.151l-.622.228a1.786 1.786 0 0 0-.717-.867 2.046 2.046 0 0 0-1.123-.311c-.475 0-.866.109-1.173.328a1.929 1.929 0 0 0-.69.895c-.152.381-.231.823-.239 1.323.011.767.191 1.384.539 1.851.352.464.873.695 1.563.695.426 0 .795-.098 1.106-.294a1.88 1.88 0 0 0 .723-.857l.633.217c-.233.508-.559.895-.978 1.162-.419.263-.914.395-1.484.395Zm5.929 0c-.597 0-1.103-.135-1.518-.406a2.6 2.6 0 0 1-.951-1.123c-.218-.478-.328-1.029-.328-1.651 0-.627.111-1.177.334-1.651a2.55 2.55 0 0 1 .956-1.112c.419-.263.921-.395 1.507-.395.596 0 1.102.135 1.517.406.419.267.736.637.951 1.112.219.474.328 1.021.328 1.64 0 .634-.109 1.19-.328 1.668a2.554 2.554 0 0 1-.956 1.112c-.419.266-.923.4-1.512.4Zm0-.623c.708 0 1.236-.237 1.584-.711.352-.475.528-1.09.528-1.846 0-.771-.176-1.386-.528-1.846-.352-.46-.88-.689-1.584-.689-.478 0-.873.109-1.185.328a1.954 1.954 0 0 0-.7.895c-.152.378-.228.815-.228 1.312 0 .771.178 1.39.534 1.857.359.467.886.7 1.579.7Zm6.326.595c-.329 0-.626-.048-.889-.144a2.09 2.09 0 0 1-.678-.406 2.324 2.324 0 0 1-.478-.623 3.173 3.173 0 0 1-.284-.789 4.42 4.42 0 0 1-.089-.896v-3.285h.645v3.124c0 .378.037.716.111 1.012.078.297.193.549.345.756.156.208.348.365.578.473.234.107.508.161.823.161.326 0 .608-.056.845-.167.241-.115.437-.274.589-.478.156-.204.271-.445.345-.723a3.42 3.42 0 0 0 .117-.917l.506.061c0 .649-.112 1.184-.334 1.607-.219.419-.515.73-.889.934-.375.2-.796.3-1.263.3Zm2.041-.139v-1.351h-.061v-4.653h.645v6.004h-.584Zm6.532 0v-3.124c0-.378-.038-.716-.116-1.012a2.073 2.073 0 0 0-.345-.756 1.469 1.469 0 0 0-.578-.473 1.92 1.92 0 0 0-.817-.161c-.327 0-.61.057-.851.172a1.559 1.559 0 0 0-.589.473 2.173 2.173 0 0 0-.345.728 3.54 3.54 0 0 0-.111.912l-.506-.061c0-.649.109-1.183.328-1.601.222-.423.521-.734.895-.934a2.593 2.593 0 0 1 1.262-.306c.33 0 .624.048.884.144.263.097.491.234.684.412.192.174.352.381.478.622.126.238.219.499.278.784.063.286.094.584.094.895v3.286h-.645Zm-4.397 0v-6.004h.584v1.351h.061v4.653h-.645Zm9.668 0c-.319.07-.634.096-.945.078a2.059 2.059 0 0 1-.834-.206 1.216 1.216 0 0 1-.545-.578 1.685 1.685 0 0 1-.167-.639 14.718 14.718 0 0 1-.016-.74v-5.587h.645v5.576c0 .252.001.462.005.628.007.163.046.314.117.451a.865.865 0 0 0 .634.467c.289.052.658.042 1.106-.028v.578Zm-3.853-5.421v-.583h3.853v.583h-3.853Zm8.627 5.421v-7.277l-1.512.906v-.734l1.512-.901h.645v8.006h-.645Zm5.41-8.172c.496 0 .947.122 1.351.366.407.241.732.568.973.979.244.411.366.869.366 1.373v2.886c0 .515-.12.978-.361 1.389a2.68 2.68 0 0 1-2.357 1.346 2.648 2.648 0 0 1-2.268-1.24l.517-.372a2.1 2.1 0 0 0 .733.717c.312.181.651.272 1.018.272.396 0 .75-.096 1.062-.289.311-.193.556-.447.734-.762.181-.315.272-.656.272-1.023v-1.884l.195.222c-.234.4-.551.727-.951.979a2.447 2.447 0 0 1-1.323.372 2.57 2.57 0 0 1-1.34-.356 2.686 2.686 0 0 1-.956-.956 2.599 2.599 0 0 1-.356-1.345c0-.493.122-.942.367-1.346a2.79 2.79 0 0 1 .973-.967 2.603 2.603 0 0 1 1.351-.361Zm0 .633a2.01 2.01 0 0 0-1.034.273 2.071 2.071 0 0 0-.74.739 1.993 1.993 0 0 0-.272 1.029c0 .378.091.722.272 1.034.185.307.432.554.74.739a2.01 2.01 0 0 0 1.034.273c.378 0 .721-.091 1.028-.273a2.022 2.022 0 0 0 1.012-1.773 2.025 2.025 0 0 0-1.012-1.768 1.979 1.979 0 0 0-1.028-.273Zm6.934 7.706c-.497 0-.949-.121-1.357-.362a2.754 2.754 0 0 1-.973-.978 2.664 2.664 0 0 1-.361-1.373v-2.891c0-.512.12-.973.361-1.385.241-.415.565-.743.973-.984a2.664 2.664 0 0 1 1.384-.366c.475 0 .91.113 1.307.339.4.222.719.522.956.9l-.511.373a2.046 2.046 0 0 0-.734-.712 1.972 1.972 0 0 0-1.018-.272c-.396 0-.75.096-1.061.289a2.14 2.14 0 0 0-.74.761 1.993 1.993 0 0 0-.272 1.018v1.885l-.189-.223c.233-.4.548-.724.945-.973.4-.252.843-.378 1.329-.378.489 0 .934.121 1.334.362.404.237.723.557.956.961.237.401.356.845.356 1.335 0 .493-.122.941-.367 1.345a2.724 2.724 0 0 1-.973.967 2.596 2.596 0 0 1-1.345.362Zm0-.628c.378 0 .721-.091 1.028-.273a2.022 2.022 0 0 0 1.012-1.773 2.017 2.017 0 0 0-1.012-1.768 1.979 1.979 0 0 0-1.028-.273 2.01 2.01 0 0 0-1.034.273 2.08 2.08 0 0 0-.74.739 1.993 1.993 0 0 0-.272 1.029c0 .378.091.722.272 1.034.186.307.432.554.74.739a2.01 2.01 0 0 0 1.034.273Z"/><rect width="319.278" height="175.307" x="59.533" y="391.582" fill="#DCE6FF" rx="19.061"/><path fill="#4343C2" d="m78.848 425.644 2.885-9.15h2.243l2.884 9.15h-1.575l-2.618-8.21h.343l-2.586 8.21h-1.576Zm1.608-1.983v-1.429h4.803v1.429h-4.803Zm10.126 2.18c-.508 0-.927-.085-1.258-.255a2.213 2.213 0 0 1-.787-.648 2.818 2.818 0 0 1-.433-.838 4.497 4.497 0 0 1-.184-.839 7.152 7.152 0 0 1-.038-.648v-3.832h1.55v3.304c0 .212.015.452.045.718.03.263.097.517.203.763.11.241.271.44.483.597.216.157.506.235.87.235.195 0 .388-.032.579-.095.19-.064.362-.172.514-.324.157-.157.282-.371.375-.642.093-.271.14-.614.14-1.029l.909.387c0 .585-.115 1.114-.343 1.589a2.705 2.705 0 0 1-.998 1.137c-.44.28-.983.42-1.627.42Zm2.243-.197v-2.129h-.184v-4.734h1.538v6.863h-1.354Zm7.16 0a6.35 6.35 0 0 1-1.334.108 3.054 3.054 0 0 1-1.162-.236 1.608 1.608 0 0 1-.782-.717c-.157-.297-.24-.6-.248-.909a38.545 38.545 0 0 1-.012-1.048v-5.967h1.525v5.878c0 .275.002.516.006.724.008.207.053.377.133.508.153.254.396.396.731.426.335.03.716.013 1.144-.051v1.284Zm-4.784-5.662v-1.201h4.785v1.201H95.2Zm8.944 5.852c-.687 0-1.286-.154-1.799-.464a3.19 3.19 0 0 1-1.194-1.277c-.28-.546-.419-1.173-.419-1.88 0-.721.144-1.352.432-1.894a3.185 3.185 0 0 1 1.201-1.271c.512-.305 1.105-.457 1.779-.457.69 0 1.292.154 1.804.464.513.309.911.737 1.195 1.283.283.542.425 1.167.425 1.875 0 .711-.144 1.34-.432 1.887a3.196 3.196 0 0 1-1.194 1.277c-.513.305-1.112.457-1.798.457Zm0-1.436c.61 0 1.063-.203 1.359-.61.297-.406.445-.932.445-1.575 0-.666-.15-1.195-.451-1.589-.301-.398-.752-.597-1.353-.597-.411 0-.75.093-1.017.279a1.614 1.614 0 0 0-.585.769c-.127.326-.19.705-.19 1.138 0 .665.15 1.196.451 1.594.305.394.752.591 1.341.591Zm7.495 1.246v-9.15h1.532v7.714h4.041v1.436h-5.573Zm9.68.19c-.687 0-1.286-.154-1.798-.464a3.185 3.185 0 0 1-1.195-1.277c-.28-.546-.419-1.173-.419-1.88 0-.721.144-1.352.432-1.894a3.185 3.185 0 0 1 1.201-1.271c.512-.305 1.105-.457 1.779-.457.69 0 1.292.154 1.804.464.513.309.911.737 1.195 1.283.283.542.425 1.167.425 1.875 0 .711-.144 1.34-.432 1.887a3.196 3.196 0 0 1-1.194 1.277c-.513.305-1.112.457-1.798.457Zm0-1.436c.61 0 1.063-.203 1.359-.61.297-.406.445-.932.445-1.575 0-.666-.15-1.195-.451-1.589-.301-.398-.752-.597-1.353-.597-.411 0-.75.093-1.017.279a1.612 1.612 0 0 0-.584.769 3.101 3.101 0 0 0-.191 1.138c0 .665.15 1.196.451 1.594.305.394.752.591 1.341.591Zm6.743 1.436c-.495 0-.915-.093-1.258-.279a1.976 1.976 0 0 1-.781-.756 2.1 2.1 0 0 1-.261-1.036c0-.331.055-.627.165-.89.11-.267.28-.495.509-.686a2.65 2.65 0 0 1 .889-.476c.275-.089.597-.17.966-.242a22.3 22.3 0 0 1 1.207-.197c.436-.063.892-.131 1.366-.203l-.546.311c.004-.474-.102-.824-.318-1.048-.216-.225-.58-.337-1.093-.337-.309 0-.608.072-.896.216-.288.144-.489.392-.603.743l-1.398-.438c.169-.58.491-1.046.966-1.398.478-.351 1.122-.527 1.931-.527.61 0 1.146.099 1.608.298.466.2.811.526 1.035.979.123.241.197.489.223.743.025.25.038.523.038.82v4.213h-1.341v-1.487l.223.241c-.31.496-.672.86-1.087 1.093-.411.229-.925.343-1.544.343Zm.305-1.22c.347 0 .644-.061.89-.184a1.74 1.74 0 0 0 .584-.451 1.57 1.57 0 0 0 .299-.502c.08-.195.125-.417.133-.667.013-.254.019-.46.019-.617l.47.14c-.461.072-.857.136-1.188.191-.33.055-.614.108-.851.159a5.174 5.174 0 0 0-.629.159 1.915 1.915 0 0 0-.451.222.99.99 0 0 0-.286.292.76.76 0 0 0-.095.388c0 .169.042.32.127.451a.877.877 0 0 0 .368.305c.165.076.369.114.61.114Zm9.844 1.03v-3.304a6.59 6.59 0 0 0-.044-.718c-.03-.263-.1-.515-.21-.756a1.436 1.436 0 0 0-.483-.604c-.212-.157-.5-.235-.864-.235-.195 0-.387.032-.578.095a1.33 1.33 0 0 0-.521.331c-.153.152-.275.364-.369.635-.093.267-.139.61-.139 1.029l-.909-.387c0-.585.112-1.114.337-1.589a2.707 2.707 0 0 1 1.004-1.131c.44-.284.982-.426 1.626-.426.509 0 .928.085 1.258.255.331.169.593.385.788.648.195.262.339.542.432.838.093.297.153.579.178.845.03.263.045.477.045.642v3.832h-1.551Zm-4.759 0v-6.863h1.366v2.129h.185v4.734h-1.551Z"/><path fill="#000" d="M146.763 425.644v-9.15h.934v9.15h-.934Zm7.425 0 3.151-9.15h1.239l3.152 9.15h-.972l-2.993-8.629h.368l-2.973 8.629h-.972Zm1.404-2.218v-.877h4.727v.877h-4.727Zm10.132 2.408c-.691 0-1.275-.154-1.754-.464a2.954 2.954 0 0 1-1.093-1.277c-.246-.546-.373-1.173-.381-1.88.008-.721.14-1.352.394-1.894a2.91 2.91 0 0 1 1.099-1.271c.479-.305 1.059-.457 1.741-.457.695 0 1.298.169 1.811.508.517.339.87.803 1.061 1.392l-.915.292a1.928 1.928 0 0 0-.769-.953 2.118 2.118 0 0 0-1.194-.343c-.504 0-.922.116-1.252.349a2.032 2.032 0 0 0-.737.96c-.161.41-.244.883-.248 1.417.009.821.199 1.482.572 1.982.373.495.928.743 1.665.743.466 0 .862-.106 1.188-.317.33-.216.58-.53.749-.941l.941.28c-.254.61-.627 1.076-1.118 1.398-.492.317-1.078.476-1.76.476Zm6.85 0c-.691 0-1.275-.154-1.754-.464a2.954 2.954 0 0 1-1.093-1.277c-.245-.546-.372-1.173-.381-1.88.009-.721.14-1.352.394-1.894.254-.546.621-.97 1.099-1.271.479-.305 1.059-.457 1.741-.457.695 0 1.298.169 1.811.508.517.339.87.803 1.061 1.392l-.915.292a1.928 1.928 0 0 0-.769-.953 2.118 2.118 0 0 0-1.194-.343c-.504 0-.922.116-1.252.349-.33.229-.576.549-.737.96-.161.41-.244.883-.248 1.417.009.821.199 1.482.572 1.982.373.495.928.743 1.665.743.466 0 .862-.106 1.188-.317.33-.216.58-.53.75-.941l.94.28c-.254.61-.627 1.076-1.118 1.398-.492.317-1.078.476-1.76.476Zm6.869 0c-.682 0-1.264-.154-1.747-.464a3.015 3.015 0 0 1-1.112-1.283c-.259-.547-.388-1.173-.388-1.881 0-.72.132-1.351.394-1.893a2.995 2.995 0 0 1 1.118-1.265c.488-.305 1.066-.457 1.735-.457.686 0 1.271.154 1.754.464.487.305.857.73 1.112 1.277.258.542.387 1.167.387 1.874 0 .72-.129 1.354-.387 1.9a2.978 2.978 0 0 1-1.119 1.271c-.487.305-1.069.457-1.747.457Zm0-.896c.762 0 1.33-.252 1.703-.756.373-.508.559-1.167.559-1.976 0-.83-.189-1.491-.566-1.982-.372-.492-.938-.737-1.696-.737-.513 0-.936.116-1.271.349-.33.229-.578.549-.743.96-.161.406-.242.876-.242 1.41 0 .826.191 1.489.572 1.989.381.495.943.743 1.684.743Zm7.279.877c-.411 0-.771-.063-1.08-.191a2.39 2.39 0 0 1-.782-.514 2.705 2.705 0 0 1-.514-.737 3.678 3.678 0 0 1-.286-.883 4.963 4.963 0 0 1-.089-.934v-3.775h.94v3.501c0 .377.036.727.108 1.049.072.322.186.603.343.845.161.237.367.421.616.553.255.131.562.197.922.197.33 0 .62-.058.87-.172.254-.114.466-.277.636-.489a2.24 2.24 0 0 0 .394-.782 3.8 3.8 0 0 0 .133-1.042l.661.146c0 .704-.123 1.294-.369 1.773a2.55 2.55 0 0 1-1.016 1.087c-.432.245-.928.368-1.487.368Zm2.306-.171v-1.691h-.095v-5.172h.934v6.863h-.839Zm7.571 0v-3.501c0-.382-.036-.731-.108-1.049a2.411 2.411 0 0 0-.35-.838 1.596 1.596 0 0 0-.616-.56c-.25-.131-.555-.197-.915-.197-.33 0-.623.058-.877.172-.25.114-.461.28-.635.496-.17.211-.299.47-.388.775a3.722 3.722 0 0 0-.133 1.042l-.661-.146c0-.704.123-1.294.369-1.773a2.55 2.55 0 0 1 1.016-1.087c.432-.245.928-.368 1.487-.368.411 0 .769.063 1.074.191.309.127.569.298.781.514.216.216.39.464.521.744.132.275.227.569.286.883.06.309.089.618.089.927v3.775h-.94Zm-4.962 0v-6.863h.845v1.691h.095v5.172h-.94Zm11.287 0c-.385.08-.767.112-1.144.095a2.545 2.545 0 0 1-1.004-.242 1.45 1.45 0 0 1-.667-.673 1.983 1.983 0 0 1-.203-.769 26.556 26.556 0 0 1-.013-.896v-6.284h.928v6.246c0 .288.002.53.006.724.009.191.053.36.134.509a.954.954 0 0 0 .724.508c.335.055.748.042 1.239-.038v.82Zm-4.498-6.062v-.801h4.498v.801h-4.498Zm9.989 6.062v-8.108l-1.722 1.036v-1.049l1.722-1.029h.946v9.15h-.946Zm6.368-9.334c.576 0 1.097.14 1.563.419.47.276.843.653 1.118 1.131.276.475.413 1.008.413 1.601v3.177c0 .61-.137 1.157-.413 1.639a3.044 3.044 0 0 1-1.131 1.144c-.474.276-1.014.413-1.62.413a3.113 3.113 0 0 1-1.448-.343 3.095 3.095 0 0 1-1.093-.959l.711-.591c.195.3.454.542.776.724.326.182.677.273 1.054.273.432 0 .814-.101 1.144-.305a2.256 2.256 0 0 0 1.08-1.912v-1.995l.229.267a3.048 3.048 0 0 1-1.049 1.016 2.715 2.715 0 0 1-1.423.388 2.947 2.947 0 0 1-1.531-.407 3.033 3.033 0 0 1-1.08-1.093 3.015 3.015 0 0 1-.394-1.531c0-.563.14-1.076.419-1.538.28-.466.655-.834 1.125-1.105.47-.275.987-.413 1.55-.413Zm0 .902c-.398 0-.76.098-1.086.292a2.118 2.118 0 0 0-1.068 1.862c0 .398.096.76.286 1.087a2.112 2.112 0 0 0 1.862 1.067c.398 0 .76-.095 1.086-.286a2.16 2.16 0 0 0 1.074-1.868c0-.394-.097-.754-.292-1.08a2.183 2.183 0 0 0-.775-.782 2.09 2.09 0 0 0-1.087-.292Zm5.197 8.432 3.367-8.241h-4.238v-.909h5.236v.909l-3.362 8.241h-1.003Z"/><path fill="#171768" d="M79.484 464.705v-9.149h3.532c.09 0 .189.004.299.012.114.005.229.017.343.038.479.072.883.24 1.214.502.334.259.586.585.756.979.173.394.26.83.26 1.309 0 .474-.087.908-.26 1.302a2.525 2.525 0 0 1-.763.985c-.33.259-.733.424-1.207.496a5.004 5.004 0 0 1-.642.051h-2.598v3.475h-.934Zm.934-4.365h2.573a3.055 3.055 0 0 0 .565-.057 1.56 1.56 0 0 0 .77-.388 1.75 1.75 0 0 0 .45-.68c.102-.262.153-.535.153-.819 0-.284-.051-.557-.153-.82a1.75 1.75 0 0 0-.45-.686 1.56 1.56 0 0 0-.77-.388 1.738 1.738 0 0 0-.298-.038 3.456 3.456 0 0 0-.267-.012h-2.573v3.888Zm8.4 4.556c-.516 0-.95-.093-1.302-.28a1.894 1.894 0 0 1-.782-.743 2.028 2.028 0 0 1-.26-1.011c0-.372.074-.69.222-.953.153-.266.358-.485.617-.654a3.11 3.11 0 0 1 .908-.388c.347-.084.73-.158 1.15-.222.424-.068.837-.125 1.24-.172.406-.05.762-.099 1.067-.146l-.33.204c.012-.678-.12-1.18-.395-1.506-.275-.326-.754-.489-1.436-.489-.47 0-.868.105-1.194.317-.322.212-.549.547-.68 1.004l-.909-.267c.157-.614.473-1.09.947-1.429.474-.339 1.09-.509 1.849-.509.627 0 1.159.119 1.595.356.44.233.752.572.934 1.017.085.199.14.421.165.667.025.246.038.496.038.75v4.263h-.832v-1.722l.241.102c-.233.589-.595 1.038-1.086 1.347-.492.309-1.08.464-1.767.464Zm.108-.807c.437 0 .818-.079 1.144-.235.326-.157.589-.371.788-.642.199-.275.328-.585.388-.928.05-.22.078-.461.082-.724.004-.267.007-.466.007-.597l.355.184c-.317.042-.663.085-1.035.127-.369.042-.733.091-1.093.146a9.473 9.473 0 0 0-.966.197 2.647 2.647 0 0 0-.566.235 1.313 1.313 0 0 0-.45.394 1.057 1.057 0 0 0-.172.616c0 .2.049.392.146.579.102.186.263.341.483.464.224.122.52.184.89.184Zm5.584 3.666 1.328-3.603.019 1.068-3.005-7.377h.99l2.466 6.17h-.407l2.275-6.17h.953l-3.685 9.912h-.934Zm13.906-3.05.007-4.505c0-.529-.148-.944-.445-1.245-.292-.305-.665-.458-1.118-.458-.259 0-.511.06-.756.178-.246.119-.449.31-.61.572-.157.263-.235.606-.235 1.029l-.553-.158c-.013-.492.082-.922.286-1.29a2.2 2.2 0 0 1 .851-.858 2.45 2.45 0 0 1 1.233-.311c.69 0 1.243.214 1.658.641.415.424.623.998.623 1.722l-.007 4.683h-.934Zm-8.19 0v-6.862h.839v1.69h.102v5.172h-.941Zm4.105 0 .006-4.441c0-.547-.146-.977-.438-1.29-.288-.318-.669-.477-1.144-.477-.474 0-.858.164-1.15.49-.292.322-.438.752-.438 1.289l-.559-.304a2.253 2.253 0 0 1 1.162-2.008c.36-.204.769-.305 1.227-.305.436 0 .824.093 1.162.279.343.187.612.458.807.814.195.355.293.787.293 1.296l-.007 4.657h-.921Zm9.54.191c-.669 0-1.25-.149-1.741-.445a3.021 3.021 0 0 1-1.137-1.252c-.272-.538-.407-1.169-.407-1.893 0-.75.133-1.398.4-1.944a2.977 2.977 0 0 1 1.125-1.265c.487-.296 1.061-.445 1.722-.445.677 0 1.256.157 1.734.471.479.309.841.754 1.087 1.334.245.58.358 1.273.337 2.078h-.954v-.331c-.016-.889-.209-1.561-.578-2.014-.364-.453-.898-.68-1.601-.68-.737 0-1.302.239-1.696.718-.39.479-.585 1.161-.585 2.046 0 .864.195 1.536.585 2.014.394.475.951.712 1.671.712.491 0 .919-.112 1.283-.337.369-.229.659-.557.871-.985l.87.337a3.107 3.107 0 0 1-1.201 1.391c-.525.327-1.12.49-1.785.49Zm-2.624-3.361v-.782h5.242v.782h-5.242Zm11.923 3.17v-3.501a4.74 4.74 0 0 0-.108-1.048 2.416 2.416 0 0 0-.349-.839 1.6 1.6 0 0 0-.616-.559c-.25-.131-.555-.197-.915-.197-.331 0-.623.057-.877.172-.25.114-.462.279-.636.495-.169.212-.298.47-.387.775a3.726 3.726 0 0 0-.134 1.042l-.66-.146c0-.703.122-1.294.368-1.773.246-.478.585-.84 1.017-1.086.432-.246.927-.369 1.487-.369.41 0 .768.064 1.073.191.31.127.57.299.782.515.216.216.39.464.521.743.131.275.226.57.286.883.059.309.089.619.089.928v3.774h-.941Zm-4.962 0v-6.862h.845v1.69h.095v5.172h-.94Zm11.288 0a4.55 4.55 0 0 1-1.144.095 2.54 2.54 0 0 1-1.004-.241 1.448 1.448 0 0 1-.667-.674 1.96 1.96 0 0 1-.203-.768 26.597 26.597 0 0 1-.013-.896v-6.284h.927v6.246c0 .288.003.529.007.724.008.191.053.36.133.508a.96.96 0 0 0 .725.509c.334.055.747.042 1.239-.039v.82Zm-4.499-6.061v-.801h4.499v.801h-4.499Zm10.358 6.252c-.517 0-.951-.093-1.303-.28a1.89 1.89 0 0 1-.781-.743 2.026 2.026 0 0 1-.261-1.011c0-.372.074-.69.223-.953a1.9 1.9 0 0 1 .616-.654c.263-.169.566-.299.909-.388.347-.084.73-.158 1.15-.222.423-.068.836-.125 1.239-.172.406-.05.762-.099 1.067-.146l-.33.204c.012-.678-.119-1.18-.394-1.506-.276-.326-.754-.489-1.436-.489-.47 0-.869.105-1.195.317-.322.212-.548.547-.68 1.004l-.908-.267c.157-.614.472-1.09.947-1.429.474-.339 1.09-.509 1.848-.509.627 0 1.159.119 1.595.356.441.233.752.572.934 1.017.085.199.14.421.165.667.026.246.039.496.039.75v4.263h-.833v-1.722l.242.102c-.233.589-.595 1.038-1.087 1.347-.491.309-1.08.464-1.766.464Zm.108-.807c.436 0 .817-.079 1.144-.235a2.07 2.07 0 0 0 .787-.642c.2-.275.329-.585.388-.928.051-.22.078-.461.083-.724.004-.267.006-.466.006-.597l.356.184c-.318.042-.663.085-1.036.127-.368.042-.733.091-1.093.146a9.525 9.525 0 0 0-.966.197 2.66 2.66 0 0 0-.565.235 1.309 1.309 0 0 0-.451.394 1.06 1.06 0 0 0-.172.616c0 .2.049.392.146.579.102.186.263.341.483.464.225.122.521.184.89.184Zm13.173.616.007-4.505c0-.529-.149-.944-.445-1.245-.292-.305-.665-.458-1.118-.458-.259 0-.511.06-.756.178-.246.119-.449.31-.61.572-.157.263-.235.606-.235 1.029l-.553-.158c-.013-.492.082-.922.286-1.29a2.2 2.2 0 0 1 .851-.858 2.45 2.45 0 0 1 1.233-.311c.69 0 1.243.214 1.658.641.415.424.623.998.623 1.722l-.007 4.683h-.934Zm-8.19 0v-6.862h.839v1.69h.102v5.172h-.941Zm4.105 0 .006-4.441c0-.547-.146-.977-.438-1.29-.288-.318-.669-.477-1.144-.477-.474 0-.858.164-1.15.49-.292.322-.438.752-.438 1.289l-.559-.304a2.253 2.253 0 0 1 1.162-2.008c.36-.204.769-.305 1.227-.305.436 0 .823.093 1.162.279.343.187.612.458.807.814.195.355.293.787.293 1.296l-.007 4.657h-.921Zm9.502.191c-.682 0-1.265-.155-1.748-.464a3.018 3.018 0 0 1-1.112-1.284c-.258-.546-.387-1.173-.387-1.88 0-.72.131-1.352.394-1.894a2.98 2.98 0 0 1 1.118-1.264c.487-.305 1.065-.458 1.735-.458.686 0 1.27.155 1.753.464.487.305.858.731 1.112 1.277.259.543.388 1.167.388 1.875 0 .72-.129 1.353-.388 1.899a2.963 2.963 0 0 1-1.118 1.271c-.487.305-1.07.458-1.747.458Zm0-.896c.762 0 1.33-.252 1.702-.756.373-.509.56-1.167.56-1.976 0-.831-.189-1.491-.566-1.983-.373-.491-.938-.737-1.696-.737-.513 0-.936.117-1.271.35-.33.228-.578.548-.743.959-.161.407-.242.877-.242 1.411 0 .826.191 1.489.572 1.988.381.496.942.744 1.684.744Zm7.279.877c-.411 0-.771-.064-1.081-.191a2.388 2.388 0 0 1-.781-.515 2.715 2.715 0 0 1-.515-.737 3.754 3.754 0 0 1-.286-.883 5.039 5.039 0 0 1-.089-.934v-3.774h.941v3.501c0 .377.036.726.108 1.048.072.322.186.604.343.845.161.238.366.422.616.553.254.131.561.197.921.197.331 0 .621-.057.871-.171a1.69 1.69 0 0 0 .635-.49c.174-.216.305-.476.394-.781.089-.309.134-.657.134-1.042l.66.146c0 .703-.122 1.294-.368 1.773-.246.478-.585.84-1.017 1.086-.432.246-.927.369-1.486.369Zm2.306-.172v-1.69h-.095v-5.172h.934v6.862h-.839Zm7.57 0v-3.501a4.74 4.74 0 0 0-.108-1.048 2.416 2.416 0 0 0-.349-.839 1.6 1.6 0 0 0-.616-.559c-.25-.131-.555-.197-.915-.197-.331 0-.623.057-.877.172-.25.114-.462.279-.635.495-.17.212-.299.47-.388.775a3.727 3.727 0 0 0-.133 1.042l-.661-.146c0-.703.123-1.294.368-1.773.246-.478.585-.84 1.017-1.086.432-.246.928-.369 1.487-.369.411 0 .768.064 1.073.191.31.127.57.299.782.515.216.216.39.464.521.743.131.275.227.57.286.883.059.309.089.619.089.928v3.774h-.941Zm-4.962 0v-6.862h.845v1.69h.096v5.172h-.941Zm11.288 0a4.55 4.55 0 0 1-1.144.095 2.54 2.54 0 0 1-1.004-.241 1.448 1.448 0 0 1-.667-.674 1.96 1.96 0 0 1-.203-.768 26.597 26.597 0 0 1-.013-.896v-6.284h.928v6.246c0 .288.002.529.006.724.008.191.053.36.133.508a.96.96 0 0 0 .725.509c.334.055.747.042 1.239-.039v.82Zm-4.499-6.061v-.801h4.499v.801h-4.499Z"/><rect width="150.18" height="14.296" x="190.507" y="452.557" fill="#fff" rx="3.177"/><rect width="167.18" height="14.296" x="173.507" y="491.618" fill="#fff" rx="3.177"/></g><defs><clipPath id="a"><path fill="#fff" d="M.5 0h438v492H.5z"/></clipPath></defs></svg>