<svg xmlns="http://www.w3.org/2000/svg" width="439" height="492" fill="none"><g clip-path="url(#a)"><path fill="#fff" d="M.5 0h438v492H.5z"/><rect width="352.929" height="460.576" x="36.885" y="273.985" fill="#fff" rx="30.372"/><rect width="352.929" height="460.576" x="36.885" y="273.985" stroke="#EDEDED" stroke-width=".769" rx="30.372"/><circle cx="78.021" cy="296.668" r="4.613" fill="#EDEDED"/><circle cx="93.399" cy="296.668" r="4.613" fill="#EDEDED"/><circle cx="108.777" cy="296.668" r="4.613" fill="#EDEDED"/><path fill="#4343C2" d="M74.7 336.735v-13.286h5.37c.129 0 .289.006.48.018.19.006.371.025.544.055.738.117 1.353.37 1.845.757.498.388.87.877 1.116 1.467a5.04 5.04 0 0 1 .37 1.956c0 .72-.123 1.375-.37 1.966a3.567 3.567 0 0 1-1.116 1.467c-.492.387-1.107.639-1.845.756a7.771 7.771 0 0 1-1.024.074h-3.442v4.77h-1.929Zm1.928-6.597h3.368c.123 0 .258-.006.406-.018a3.12 3.12 0 0 0 .433-.065c.394-.092.71-.261.95-.507.24-.253.413-.542.517-.868a3.101 3.101 0 0 0 0-1.947 2.157 2.157 0 0 0-.516-.858c-.24-.252-.557-.424-.95-.516a2.328 2.328 0 0 0-.434-.074 4.646 4.646 0 0 0-.406-.019h-3.368v4.872Zm13.566 6.874c-.99 0-1.861-.215-2.612-.646a4.587 4.587 0 0 1-1.744-1.817c-.412-.782-.618-1.686-.618-2.713 0-1.089.203-2.033.61-2.833.411-.799.983-1.418 1.715-1.854.732-.437 1.584-.655 2.556-.655 1.015 0 1.88.236 2.593.71.713.467 1.246 1.135 1.596 2.002.357.868.498 1.898.425 3.091h-1.929v-.701c-.012-1.156-.234-2.011-.664-2.565-.424-.554-1.073-.831-1.947-.831-.966 0-1.692.305-2.177.914-.487.609-.73 1.489-.73 2.639 0 1.095.243 1.944.73 2.546.485.597 1.187.895 2.103.895.603 0 1.123-.135 1.56-.406.442-.276.787-.67 1.033-1.181l1.891.6c-.387.892-.974 1.584-1.762 2.076a4.906 4.906 0 0 1-2.63.729Zm-3.553-4.715v-1.504h7.114v1.504h-7.114Zm9.775 4.438v-9.965h1.716v2.418l-.24-.314c.123-.32.283-.612.48-.877.197-.27.424-.492.683-.664.252-.184.532-.326.84-.424.313-.105.633-.166.959-.185.326-.024.64-.009.941.046v1.809a3.127 3.127 0 0 0-1.089-.074 2.389 2.389 0 0 0-1.089.378 2.447 2.447 0 0 0-.747.738c-.178.29-.308.612-.388.969a5.02 5.02 0 0 0-.12 1.117v5.028h-1.946Zm10.217.268c-1.211 0-2.199-.268-2.961-.803-.763-.535-1.231-1.288-1.403-2.26l1.975-.305c.123.517.406.926.848 1.227.449.296 1.006.443 1.671.443.602 0 1.073-.123 1.411-.369.345-.246.517-.584.517-1.015 0-.252-.062-.455-.185-.609-.116-.16-.366-.31-.747-.452a21.353 21.353 0 0 0-1.744-.526c-.855-.221-1.535-.458-2.039-.71-.498-.259-.855-.557-1.07-.895-.209-.345-.314-.76-.314-1.246 0-.603.16-1.129.48-1.578.32-.449.769-.796 1.347-1.042.584-.246 1.267-.369 2.048-.369.763 0 1.443.119 2.039.359.597.24 1.08.582 1.449 1.025.369.436.591.95.664 1.54l-1.974.36a1.625 1.625 0 0 0-.674-1.135c-.381-.276-.876-.427-1.485-.452-.585-.024-1.058.074-1.421.296-.363.215-.545.513-.545.895a.82.82 0 0 0 .203.562c.142.154.413.302.812.443.4.142.991.311 1.772.508.836.215 1.501.455 1.993.719.492.259.843.569 1.052.932.215.357.323.791.323 1.301 0 .985-.36 1.757-1.08 2.316-.713.56-1.701.84-2.962.84Zm10.042.009c-.997 0-1.861-.224-2.593-.673a4.544 4.544 0 0 1-1.698-1.855c-.394-.794-.59-1.707-.59-2.74 0-1.04.203-1.953.609-2.741a4.467 4.467 0 0 1 1.707-1.845c.732-.443 1.587-.664 2.565-.664.996 0 1.86.224 2.592.673a4.538 4.538 0 0 1 1.698 1.855c.4.787.6 1.694.6 2.722 0 1.039-.203 1.956-.609 2.749a4.538 4.538 0 0 1-1.698 1.855c-.732.443-1.593.664-2.583.664Zm0-1.818c.953 0 1.664-.319 2.131-.959.474-.646.711-1.476.711-2.491 0-1.04-.24-1.87-.72-2.492-.474-.627-1.181-.941-2.122-.941-.646 0-1.178.148-1.597.443-.418.289-.729.692-.932 1.209-.203.51-.304 1.104-.304 1.781 0 1.045.24 1.882.72 2.509.479.628 1.184.941 2.113.941Zm13.542 1.541v-4.899c0-.388-.033-.784-.101-1.19a3.594 3.594 0 0 0-.369-1.145 2.172 2.172 0 0 0-.766-.848c-.326-.216-.754-.323-1.283-.323-.344 0-.67.058-.978.175a2.047 2.047 0 0 0-.812.544c-.227.253-.409.585-.544.997-.129.412-.194.913-.194 1.504l-1.199-.452c0-.905.169-1.701.507-2.39a3.825 3.825 0 0 1 1.458-1.624c.634-.388 1.4-.581 2.298-.581.689 0 1.267.11 1.734.332a3.14 3.14 0 0 1 1.135.876c.295.357.52.748.674 1.172.154.425.258.84.313 1.246.056.406.084.763.084 1.07v5.536h-1.957Zm-7.003 0v-9.965h1.726v2.879h.23v7.086h-1.956Zm13.808.277c-.738 0-1.356-.135-1.855-.406a2.9 2.9 0 0 1-1.135-1.089 3.032 3.032 0 0 1-.378-1.494c0-.505.089-.948.268-1.329.178-.381.443-.704.793-.969a4.234 4.234 0 0 1 1.292-.655c.443-.129.944-.243 1.504-.341.56-.099 1.147-.191 1.762-.277.622-.086 1.237-.172 1.846-.259l-.702.388c.013-.781-.153-1.359-.498-1.735-.338-.381-.922-.572-1.753-.572-.523 0-1.003.123-1.439.369-.437.24-.742.64-.914 1.2l-1.799-.554c.246-.855.714-1.534 1.402-2.039.696-.504 1.618-.756 2.769-.756.891 0 1.667.153 2.325.461a2.87 2.87 0 0 1 1.458 1.439c.16.326.258.671.295 1.034.037.363.055.753.055 1.171v6.136h-1.707v-2.279l.332.296c-.412.762-.938 1.331-1.577 1.707-.634.369-1.415.553-2.344.553Zm.341-1.578c.548 0 1.018-.095 1.412-.286.394-.197.711-.446.95-.747a2.34 2.34 0 0 0 .471-.941c.105-.295.163-.628.175-.997.019-.369.028-.664.028-.885l.627.23c-.609.092-1.162.176-1.66.249-.499.074-.951.148-1.357.222-.4.067-.756.15-1.07.249a3.62 3.62 0 0 0-.711.332 1.62 1.62 0 0 0-.489.471 1.24 1.24 0 0 0-.175.673c0 .259.065.498.194.72.129.215.326.387.59.517.265.129.603.193 1.015.193Zm7.167 1.301v-13.563h1.928v13.563h-1.928Zm12.333.277c-.953 0-1.753-.231-2.399-.692-.646-.467-1.135-1.098-1.467-1.891-.332-.794-.498-1.689-.498-2.685 0-.997.163-1.892.489-2.685.332-.794.818-1.418 1.458-1.873.646-.462 1.439-.692 2.38-.692.935 0 1.741.23 2.418.692.682.455 1.208 1.079 1.577 1.873.37.787.554 1.682.554 2.685 0 .996-.184 1.894-.554 2.694-.362.793-.882 1.421-1.559 1.882-.67.461-1.47.692-2.399.692Zm-4.687 4.152V326.77h1.716v7.17h.221v7.224h-1.937Zm4.42-5.896c.615 0 1.122-.157 1.522-.47.406-.314.707-.735.904-1.264a5.017 5.017 0 0 0 .305-1.79c0-.652-.102-1.243-.305-1.772a2.755 2.755 0 0 0-.913-1.264c-.412-.314-.938-.471-1.578-.471-.603 0-1.101.148-1.495.443-.387.296-.676.708-.867 1.237-.185.529-.277 1.138-.277 1.827 0 .689.092 1.298.277 1.827.184.529.477.944.876 1.245.4.302.917.452 1.551.452Zm6.447 1.467v-9.965h1.716v2.418l-.239-.314c.123-.32.282-.612.479-.877.197-.27.425-.492.683-.664.252-.184.532-.326.84-.424.313-.105.633-.166.959-.185.326-.024.64-.009.942.046v1.809a3.129 3.129 0 0 0-1.089-.074 2.385 2.385 0 0 0-1.089.378 2.437 2.437 0 0 0-.747.738 3.13 3.13 0 0 0-.388.969c-.08.351-.12.723-.12 1.117v5.028h-1.947Zm10.915.277c-.997 0-1.861-.224-2.593-.673a4.544 4.544 0 0 1-1.698-1.855c-.393-.794-.59-1.707-.59-2.74 0-1.04.203-1.953.609-2.741a4.467 4.467 0 0 1 1.707-1.845c.732-.443 1.587-.664 2.565-.664.996 0 1.861.224 2.593.673a4.536 4.536 0 0 1 1.697 1.855c.4.787.6 1.694.6 2.722 0 1.039-.203 1.956-.609 2.749a4.538 4.538 0 0 1-1.698 1.855c-.732.443-1.593.664-2.583.664Zm0-1.818c.953 0 1.664-.319 2.131-.959.474-.646.711-1.476.711-2.491 0-1.04-.24-1.87-.72-2.492-.474-.627-1.181-.941-2.122-.941-.646 0-1.178.148-1.596.443-.419.289-.729.692-.932 1.209-.203.51-.305 1.104-.305 1.781 0 1.045.24 1.882.72 2.509.48.628 1.184.941 2.113.941Zm7.462 1.541V326.42c0-.253.009-.52.028-.803.018-.289.07-.572.157-.849.092-.283.243-.541.452-.775.252-.277.529-.474.83-.591a3 3 0 0 1 .895-.202c.302-.019.578-.028.831-.028h1.254v1.587h-1.162c-.455 0-.797.114-1.024.341-.222.222-.333.538-.333.951v10.684h-1.928Zm-1.652-8.415v-1.55h6.099v1.55h-6.099Zm8.037-3.183v-1.873h1.928v1.873h-1.928Zm0 11.598v-9.965h1.928v9.965h-1.928Zm4.519 0v-13.563h1.929v13.563h-1.929Zm8.75.277c-.99 0-1.861-.215-2.611-.646a4.587 4.587 0 0 1-1.744-1.817c-.412-.782-.618-1.686-.618-2.713 0-1.089.203-2.033.609-2.833.412-.799.984-1.418 1.716-1.854.732-.437 1.584-.655 2.556-.655 1.015 0 1.879.236 2.593.71.713.467 1.245 1.135 1.596 2.002.357.868.498 1.898.424 3.091h-1.928v-.701c-.013-1.156-.234-2.011-.665-2.565-.424-.554-1.073-.831-1.946-.831-.966 0-1.692.305-2.178.914s-.729 1.489-.729 2.639c0 1.095.243 1.944.729 2.546.486.597 1.187.895 2.104.895.603 0 1.122-.135 1.559-.406.443-.276.787-.67 1.034-1.181l1.891.6c-.387.892-.975 1.584-1.762 2.076a4.909 4.909 0 0 1-2.63.729Zm-3.552-4.715v-1.504h7.114v1.504h-7.114Z"/><path stroke="#EDEDED" stroke-width=".769" d="M73.408 358.189H353.29"/><path fill="#000" d="M77.855 391.827c-.882 0-1.626-.195-2.233-.584a3.706 3.706 0 0 1-1.378-1.63c-.311-.693-.467-1.493-.467-2.399 0-.907.156-1.706.467-2.399a3.662 3.662 0 0 1 1.378-1.624c.607-.394 1.351-.591 2.233-.591 1.03 0 1.87.265 2.522.794.652.525 1.099 1.23 1.34 2.116l-.922.24c-.188-.702-.527-1.257-1.015-1.667-.488-.41-1.13-.615-1.925-.615-.693 0-1.27.157-1.729.473-.459.316-.805.757-1.04 1.323-.229.562-.348 1.212-.356 1.95-.004.738.109 1.388.338 1.95a2.935 2.935 0 0 0 1.046 1.322c.468.316 1.048.474 1.741.474.795 0 1.437-.205 1.925-.615.488-.415.827-.97 1.015-1.667l.923.24c-.242.885-.689 1.593-1.341 2.122-.652.525-1.493.787-2.522.787Zm7.76-.018c-.397 0-.746-.062-1.045-.185a2.317 2.317 0 0 1-.757-.498 2.621 2.621 0 0 1-.498-.714 3.573 3.573 0 0 1-.277-.855 4.845 4.845 0 0 1-.086-.904v-3.654h.91v3.39c0 .365.035.703.105 1.015.07.311.18.584.332.818.156.229.355.408.597.535.246.127.543.19.892.19.32 0 .6-.055.843-.166.246-.11.45-.268.615-.473.168-.209.295-.462.381-.757.086-.299.13-.635.13-1.009l.639.142c0 .681-.119 1.253-.357 1.716a2.475 2.475 0 0 1-.984 1.052c-.418.238-.898.357-1.44.357Zm2.234-.166v-1.637h-.093v-5.007h.904v6.644h-.811Zm5.01.178c-.78 0-1.421-.168-1.926-.504a2.104 2.104 0 0 1-.922-1.403l.922-.154c.099.378.322.679.67.905.354.221.788.332 1.305.332.504 0 .902-.105 1.193-.314.291-.213.437-.502.437-.867a.82.82 0 0 0-.141-.499c-.09-.131-.277-.252-.56-.363-.283-.11-.706-.241-1.267-.393-.603-.164-1.075-.328-1.415-.492-.34-.164-.582-.353-.726-.566a1.41 1.41 0 0 1-.215-.794 1.6 1.6 0 0 1 .32-.99c.213-.287.508-.509.885-.664.378-.16.816-.24 1.317-.24.5 0 .947.082 1.34.246.399.16.718.385.96.676.242.292.386.63.43 1.015l-.922.166a1.328 1.328 0 0 0-.584-.922c-.324-.23-.736-.349-1.237-.357-.471-.012-.855.078-1.15.271-.295.188-.443.44-.443.756 0 .177.054.328.16.455.107.123.3.24.578.351.283.111.685.232 1.206.363.611.156 1.09.32 1.44.492.348.172.596.375.744.609.147.234.221.523.221.867 0 .628-.234 1.122-.701 1.483-.464.357-1.103.535-1.92.535Zm7.601-.178a4.486 4.486 0 0 1-1.107.092 2.458 2.458 0 0 1-.972-.234 1.402 1.402 0 0 1-.646-.652 1.915 1.915 0 0 1-.197-.744 27.232 27.232 0 0 1-.012-.868v-6.083h.898v6.047c0 .278.002.512.006.701.009.184.052.348.13.492a.924.924 0 0 0 .7.492c.325.053.725.041 1.2-.037v.794Zm-4.355-5.869v-.775h4.355v.775h-4.355Zm8.198 6.053c-.66 0-1.224-.15-1.691-.449a2.915 2.915 0 0 1-1.077-1.242c-.25-.529-.375-1.136-.375-1.821 0-.697.127-1.308.381-1.833a2.889 2.889 0 0 1 1.083-1.224c.471-.296 1.031-.443 1.679-.443.665 0 1.23.149 1.698.449.472.295.83.707 1.076 1.236.251.525.376 1.13.376 1.815 0 .697-.125 1.31-.376 1.839-.25.525-.611.935-1.082 1.23-.472.295-1.036.443-1.692.443Zm0-.867c.738 0 1.288-.244 1.649-.732.361-.492.541-1.13.541-1.913 0-.804-.182-1.444-.547-1.919-.361-.476-.909-.714-1.643-.714-.496 0-.906.113-1.23.338-.32.222-.56.531-.72.929-.156.394-.234.849-.234 1.366 0 .799.185 1.441.554 1.925.369.48.913.72 1.63.72Zm12.429.683.007-4.362c0-.512-.144-.914-.431-1.205-.283-.296-.644-.443-1.083-.443-.25 0-.494.057-.732.172a1.408 1.408 0 0 0-.59.554c-.152.254-.228.586-.228.996l-.535-.154c-.012-.475.08-.892.277-1.248.201-.357.476-.634.824-.831a2.368 2.368 0 0 1 1.193-.301c.669 0 1.204.207 1.606.621.402.41.603.966.603 1.667l-.006 4.534h-.905Zm-7.929 0v-6.644h.812v1.636h.099v5.008h-.911Zm3.974 0 .006-4.3c0-.529-.141-.945-.424-1.249-.279-.307-.648-.461-1.107-.461-.46 0-.831.158-1.114.473-.283.312-.424.728-.424 1.249l-.542-.295a2.184 2.184 0 0 1 1.126-1.944 2.37 2.37 0 0 1 1.187-.295c.423 0 .798.09 1.126.27.332.181.593.443.781.788.189.344.283.763.283 1.255l-.006 4.509h-.892Zm9.236.184c-.648 0-1.21-.143-1.686-.43a2.935 2.935 0 0 1-1.101-1.212c-.262-.521-.393-1.132-.393-1.833 0-.726.129-1.354.387-1.883a2.887 2.887 0 0 1 1.089-1.224c.472-.287 1.027-.43 1.667-.43.656 0 1.216.151 1.679.455.464.299.814.73 1.052 1.292.238.561.347 1.232.326 2.011h-.922v-.32c-.017-.861-.203-1.511-.56-1.95-.353-.439-.87-.658-1.55-.658-.714 0-1.261.232-1.643.695-.377.464-.566 1.124-.566 1.981 0 .836.189 1.486.566 1.95.382.459.921.689 1.618.689.476 0 .89-.109 1.243-.326.356-.222.637-.539.842-.954l.843.326a3 3 0 0 1-1.163 1.347 3.204 3.204 0 0 1-1.728.474Zm-2.541-3.254v-.757h5.075v.757h-5.075Zm6.926 3.07v-6.644h.812v1.6l-.16-.21c.074-.196.171-.377.289-.541.119-.168.249-.305.388-.412.172-.152.373-.267.603-.345.229-.082.461-.129.695-.141.234-.016.447 0 .64.049v.849a2.204 2.204 0 0 0-.794-.043 1.512 1.512 0 0 0-.793.345 1.647 1.647 0 0 0-.499.621c-.11.238-.184.492-.221.763a5.756 5.756 0 0 0-.055.793v3.316h-.905Zm10.513 0a4.487 4.487 0 0 1-1.107.092 2.457 2.457 0 0 1-.972-.234 1.403 1.403 0 0 1-.646-.652 1.907 1.907 0 0 1-.196-.744 24.912 24.912 0 0 1-.013-.868v-6.083h.898v6.047c0 .278.002.512.006.701.009.184.052.348.13.492a.922.922 0 0 0 .701.492c.324.053.724.041 1.199-.037v.794Zm-4.355-5.869v-.775h4.355v.775h-4.355Zm6.431 8.821 1.286-3.488.018 1.034-2.909-7.142h.959l2.387 5.973h-.394l2.203-5.973h.922l-3.567 9.596h-.905Zm8.524-2.768c-.611 0-1.128-.154-1.55-.461a2.904 2.904 0 0 1-.96-1.261 4.71 4.71 0 0 1-.326-1.79c0-.673.109-1.272.326-1.796.222-.529.546-.946.972-1.249.427-.304.952-.455 1.575-.455.607 0 1.128.153 1.562.461.435.308.767.726.997 1.255.234.529.351 1.124.351 1.784 0 .664-.117 1.261-.351 1.79-.234.529-.57.949-1.009 1.261-.439.307-.968.461-1.587.461Zm-2.989 2.768v-9.596h.812V390h.098v4.595h-.91Zm2.897-3.611c.463 0 .849-.116 1.156-.35.308-.234.537-.552.689-.954a3.78 3.78 0 0 0 .234-1.365c0-.501-.076-.952-.228-1.354a2.071 2.071 0 0 0-.695-.953c-.307-.234-.699-.351-1.175-.351-.463 0-.849.113-1.156.339-.304.225-.531.539-.683.941-.152.398-.227.857-.227 1.378 0 .512.075.972.227 1.378.152.402.381.717.689.947.308.23.697.344 1.169.344Zm7.2.843c-.648 0-1.209-.143-1.685-.43a2.921 2.921 0 0 1-1.101-1.212c-.263-.521-.394-1.132-.394-1.833 0-.726.129-1.354.388-1.883a2.874 2.874 0 0 1 1.089-1.224c.471-.287 1.027-.43 1.667-.43.656 0 1.215.151 1.679.455.463.299.814.73 1.052 1.292.238.561.346 1.232.326 2.011h-.923v-.32c-.016-.861-.203-1.511-.56-1.95-.352-.439-.869-.658-1.55-.658-.713 0-1.261.232-1.642.695-.378.464-.566 1.124-.566 1.981 0 .836.188 1.486.566 1.95.381.459.92.689 1.618.689.475 0 .889-.109 1.242-.326a2.28 2.28 0 0 0 .843-.954l.843.326a3.006 3.006 0 0 1-1.163 1.347 3.21 3.21 0 0 1-1.729.474Zm-2.54-3.254v-.757h5.075v.757h-5.075Z"/><rect width="119.181" height="13.84" x="73.408" y="404.332" fill="#EDEDED" rx="3.076"/><path fill="#000" d="m73.654 460.084 3.05-8.858h1.2l3.051 8.858h-.941l-2.897-8.353h.357l-2.88 8.353h-.94Zm1.36-2.147v-.849h4.576v.849h-4.577Zm9.63 2.332c-.62 0-1.149-.154-1.588-.462a2.989 2.989 0 0 1-1.008-1.261c-.234-.529-.351-1.126-.351-1.79 0-.66.115-1.255.344-1.784a2.97 2.97 0 0 1 1.003-1.255c.435-.307.956-.461 1.562-.461.624 0 1.149.152 1.575.455.427.304.749.72.966 1.249.221.525.332 1.124.332 1.796 0 .66-.109 1.257-.326 1.79a2.89 2.89 0 0 1-.96 1.261c-.422.308-.939.462-1.55.462Zm.092-.843c.471 0 .86-.115 1.168-.345.308-.229.538-.545.69-.947.151-.406.227-.865.227-1.378 0-.521-.076-.98-.228-1.378a2.015 2.015 0 0 0-.689-.941c-.303-.225-.686-.338-1.15-.338-.476 0-.87.117-1.181.35a2.078 2.078 0 0 0-.695.954 3.904 3.904 0 0 0-.222 1.353c0 .505.076.96.228 1.366.156.402.388.719.695.953.308.234.693.351 1.157.351Zm2.085.658v-5.001h-.099v-3.857h.91v8.858h-.811Zm5.115.185c-.62 0-1.148-.154-1.587-.462a2.989 2.989 0 0 1-1.009-1.261c-.234-.529-.35-1.126-.35-1.79 0-.66.114-1.255.344-1.784a2.97 2.97 0 0 1 1.003-1.255c.434-.307.955-.461 1.562-.461.623 0 1.148.152 1.575.455.426.304.748.72.965 1.249.222.525.333 1.124.333 1.796 0 .66-.109 1.257-.326 1.79a2.89 2.89 0 0 1-.96 1.261c-.422.308-.939.462-1.55.462Zm.092-.843c.472 0 .861-.115 1.169-.345.307-.229.537-.545.689-.947.152-.406.228-.865.228-1.378 0-.521-.076-.98-.228-1.378a2.015 2.015 0 0 0-.689-.941c-.303-.225-.687-.338-1.15-.338-.476 0-.87.117-1.181.35a2.078 2.078 0 0 0-.695.954 3.904 3.904 0 0 0-.222 1.353c0 .505.076.96.228 1.366.155.402.387.719.695.953.307.234.693.351 1.156.351Zm2.085.658v-5.001h-.098v-3.857h.91v8.858h-.811Zm2.538 0v-6.643h.812v1.599l-.16-.209c.074-.197.17-.377.29-.542.118-.168.247-.305.387-.412.172-.151.373-.266.603-.344.23-.082.461-.129.695-.142.233-.016.447 0 .64.05v.848a2.223 2.223 0 0 0-.794-.043 1.513 1.513 0 0 0-.793.345 1.648 1.648 0 0 0-.499.621c-.11.238-.184.492-.221.763a5.773 5.773 0 0 0-.056.793v3.316h-.904Zm7.124.185c-.648 0-1.209-.144-1.685-.431a2.915 2.915 0 0 1-1.101-1.212c-.263-.521-.394-1.132-.394-1.833 0-.726.129-1.353.388-1.882a2.874 2.874 0 0 1 1.089-1.224c.471-.287 1.027-.431 1.666-.431.657 0 1.216.152 1.68.455.463.3.814.73 1.052 1.292.238.562.346 1.232.326 2.012h-.923v-.32c-.016-.862-.203-1.512-.56-1.95-.352-.439-.869-.658-1.55-.658-.713 0-1.261.231-1.642.695-.378.463-.566 1.123-.566 1.98 0 .837.188 1.487.566 1.95.381.46.92.689 1.617.689.476 0 .89-.108 1.243-.326.357-.221.638-.539.843-.953l.842.326a3.009 3.009 0 0 1-1.162 1.347 3.21 3.21 0 0 1-1.729.474Zm-2.54-3.254v-.757h5.075v.757h-5.075Zm9.405 3.247c-.779 0-1.421-.168-1.926-.504a2.103 2.103 0 0 1-.922-1.403l.922-.153c.099.377.322.678.671.904.353.221.787.332 1.304.332.504 0 .902-.104 1.193-.314.291-.213.437-.502.437-.867a.817.817 0 0 0-.141-.498c-.091-.131-.277-.252-.56-.363a13.197 13.197 0 0 0-1.267-.394c-.603-.164-1.075-.328-1.415-.492-.341-.164-.582-.353-.726-.566-.144-.217-.215-.482-.215-.793 0-.378.106-.708.32-.991.213-.287.508-.508.885-.664.378-.16.816-.24 1.317-.24.5 0 .947.082 1.341.246.397.16.717.386.959.677.242.291.386.629.431 1.015l-.923.166a1.328 1.328 0 0 0-.584-.923c-.324-.23-.736-.348-1.237-.357-.471-.012-.855.078-1.15.271-.295.189-.443.441-.443.757 0 .176.054.328.16.455.107.123.3.24.578.35.283.111.685.232 1.206.363.611.156 1.091.32 1.439.492.349.173.597.376.745.609.147.234.221.523.221.868 0 .627-.234 1.121-.701 1.482-.463.357-1.103.535-1.919.535Zm6.463 0c-.779 0-1.421-.168-1.925-.504a2.104 2.104 0 0 1-.923-1.403l.923-.153c.098.377.322.678.671.904.352.221.787.332 1.304.332.504 0 .902-.104 1.193-.314.291-.213.437-.502.437-.867a.817.817 0 0 0-.142-.498c-.09-.131-.277-.252-.56-.363a13.105 13.105 0 0 0-1.267-.394c-.603-.164-1.074-.328-1.415-.492-.34-.164-.582-.353-.725-.566a1.404 1.404 0 0 1-.216-.793c0-.378.107-.708.32-.991.213-.287.509-.508.886-.664.377-.16.816-.24 1.316-.24.501 0 .948.082 1.341.246.398.16.718.386.96.677.242.291.385.629.43 1.015l-.922.166a1.33 1.33 0 0 0-.585-.923c-.324-.23-.736-.348-1.236-.357-.472-.012-.855.078-1.15.271-.296.189-.443.441-.443.757 0 .176.053.328.16.455.106.123.299.24.578.35.283.111.685.232 1.206.363.611.156 1.09.32 1.439.492.349.173.597.376.744.609.148.234.222.523.222.868 0 .627-.234 1.121-.701 1.482-.464.357-1.104.535-1.92.535Z"/><rect width="160.702" height="13.84" x="73.408" y="472.773" fill="#EDEDED" rx="3.076"/><rect width="142.248" height="194.534" x="260.252" y="332.037" fill="#DCE6FF" rx="18.454"/><g clip-path="url(#b)"><path fill="#FAFAFA" fill-rule="evenodd" d="M290.24 391.629c0-22.719 18.418-41.137 41.137-41.137s41.137 18.418 41.137 41.137c0 11.665-4.86 22.201-12.657 29.683-7.389 7.091-17.428 11.453-28.48 11.453s-21.091-4.362-28.48-11.453c-7.797-7.482-12.657-18.018-12.657-29.683Zm64.415 26.666c-1.649-4.934-6.311-8.49-11.798-8.49h-22.96c-5.487 0-10.149 3.556-11.798 8.49a35.25 35.25 0 0 0 23.278 8.73 35.25 35.25 0 0 0 23.278-8.73Zm-23.278-56.323c-10.039 0-18.177 8.138-18.177 18.177 0 10.038 8.138 18.176 18.177 18.176s18.177-8.138 18.177-18.176c0-10.039-8.138-18.177-18.177-18.177Z" clip-rule="evenodd"/><path fill="#4343C2" d="M313.2 380.149c0-10.039 8.138-18.177 18.177-18.177s18.177 8.138 18.177 18.177c0 10.038-8.138 18.176-18.177 18.176s-18.177-8.138-18.177-18.176ZM342.857 409.805c5.487 0 10.149 3.556 11.798 8.49a35.25 35.25 0 0 1-23.278 8.73 35.25 35.25 0 0 1-23.278-8.73c1.649-4.934 6.311-8.49 11.798-8.49h22.96Z"/></g><path fill="#000" d="M302.844 465.441c-.738 0-1.371-.205-1.899-.615-.528-.41-.884-.959-1.069-1.646l1.13-.269c.093.405.305.748.638 1.03.339.277.736.416 1.192.416.287 0 .577-.07.869-.208.297-.138.531-.367.7-.684a1.78 1.78 0 0 0 .192-.715c.021-.262.031-.575.031-.938v-7.666h1.138v7.666c0 .307-.003.586-.008.838a3.65 3.65 0 0 1-.084.715 2.301 2.301 0 0 1-.27.684 2.573 2.573 0 0 1-1.076 1.046 3.19 3.19 0 0 1-1.484.346Zm7.31.007c-.625 0-1.151-.112-1.576-.338a2.292 2.292 0 0 1-.946-.899 2.46 2.46 0 0 1-.315-1.223c0-.451.09-.836.269-1.153a2.3 2.3 0 0 1 .746-.792 3.732 3.732 0 0 1 1.099-.469c.421-.103.885-.193 1.392-.27a34.422 34.422 0 0 1 1.5-.207c.492-.062.922-.121 1.291-.177l-.399.246c.015-.82-.144-1.428-.477-1.822-.333-.395-.913-.592-1.738-.592-.569 0-1.051.128-1.445.384-.39.256-.664.661-.823 1.215l-1.1-.323c.19-.743.572-1.32 1.146-1.73.574-.41 1.32-.615 2.237-.615.759 0 1.402.143 1.93.43.534.282.91.693 1.131 1.231.102.241.169.51.2.807.03.297.046.6.046.907v5.16h-1.008v-2.084l.293.123c-.282.713-.721 1.256-1.315 1.63-.595.374-1.307.561-2.138.561Zm.131-.976c.528 0 .989-.095 1.384-.285.395-.189.713-.448.953-.776.241-.333.398-.708.469-1.123.062-.266.095-.559.1-.876.006-.323.008-.564.008-.723l.431.223c-.385.051-.803.102-1.254.154-.446.051-.886.11-1.322.177-.431.066-.82.146-1.169.238a3.171 3.171 0 0 0-.684.284 1.57 1.57 0 0 0-.546.477c-.139.2-.208.449-.208.746 0 .241.059.474.177.7.123.225.318.412.585.561.271.149.63.223 1.076.223Zm11.728.746v-4.237c0-.461-.043-.884-.13-1.269a2.943 2.943 0 0 0-.423-1.015 1.94 1.94 0 0 0-.746-.676c-.303-.159-.672-.239-1.107-.239-.4 0-.754.07-1.061.208a2.075 2.075 0 0 0-.769.6 2.674 2.674 0 0 0-.469.938 4.491 4.491 0 0 0-.162 1.261l-.8-.177c0-.851.149-1.566.446-2.145.298-.579.708-1.018 1.231-1.315.523-.297 1.122-.446 1.799-.446.497 0 .93.077 1.299.231.375.153.69.361.946.622.262.262.472.562.631.9.159.333.274.69.346 1.069.071.374.107.748.107 1.122v4.568h-1.138Zm-6.005 0v-8.304h1.023v2.045h.115v6.259h-1.138Zm12.3.23c-.81 0-1.512-.179-2.107-.538a3.657 3.657 0 0 1-1.376-1.515c-.328-.651-.492-1.414-.492-2.291 0-.907.161-1.691.484-2.353.323-.661.777-1.171 1.361-1.53.59-.359 1.284-.538 2.084-.538.82 0 1.52.19 2.099.569.579.374 1.017.912 1.315 1.615.297.702.433 1.54.407 2.514h-1.153v-.4c-.021-1.076-.254-1.889-.7-2.437-.441-.549-1.087-.823-1.937-.823-.892 0-1.577.29-2.053.869-.472.579-.708 1.404-.708 2.476 0 1.045.236 1.858.708 2.437.476.574 1.15.861 2.022.861.594 0 1.112-.136 1.553-.407.446-.277.797-.674 1.053-1.192l1.054.407a3.765 3.765 0 0 1-1.453 1.684c-.636.395-1.356.592-2.161.592Zm-3.176-4.067v-.946h6.344v.946h-6.344Zm10.814 3.837v-.239l6.051-9.749h-5.898v-1.084h7.751v.261l-6.021 9.734h5.967v1.077h-7.85Zm15.443 0v-4.237a5.7 5.7 0 0 0-.131-1.269 2.942 2.942 0 0 0-.422-1.015 1.94 1.94 0 0 0-.746-.676c-.303-.159-.672-.239-1.107-.239-.4 0-.754.07-1.062.208a2.08 2.08 0 0 0-.768.6 2.676 2.676 0 0 0-.47.938 4.53 4.53 0 0 0-.161 1.261l-.8-.177c0-.851.149-1.566.446-2.145.298-.579.708-1.018 1.231-1.315.522-.297 1.122-.446 1.799-.446.497 0 .93.077 1.299.231.374.153.69.361.946.622.261.262.472.562.631.9.158.333.274.69.346 1.069.071.374.107.748.107 1.122v4.568h-1.138Zm-6.005 0v-11.072h1.023v6.251h.115v4.821h-1.138Zm12.007.207c-.498 0-.933-.077-1.308-.23a2.897 2.897 0 0 1-.945-.623 3.284 3.284 0 0 1-.623-.892 4.501 4.501 0 0 1-.346-1.069 6.046 6.046 0 0 1-.108-1.13v-4.567h1.138v4.236c0 .456.044.879.131 1.269.087.39.225.73.415 1.023.195.287.443.51.746.669.307.158.679.238 1.115.238.4 0 .751-.069 1.053-.208.308-.138.564-.335.769-.592.21-.261.369-.576.477-.946.108-.374.161-.794.161-1.261l.8.177c0 .851-.149 1.566-.446 2.146-.297.579-.707 1.017-1.23 1.314-.523.298-1.123.446-1.799.446Zm2.791-.207v-2.046h-.116v-6.258h1.131v8.304h-1.015Z"/><rect width="99.189" height="6.151" x="281.781" y="486.672" fill="#fff" rx="3.076"/></g><defs><clipPath id="a"><path fill="#fff" d="M.5 0h438v492H.5z"/></clipPath><clipPath id="b"><path fill="#fff" d="M290.239 350.491h82.273v82.273h-82.273z"/></clipPath></defs></svg>