<svg width="26" height="20" viewBox="0 0 26 20" fill="none" xmlns="http://www.w3.org/2000/svg">
<g id="Vector" filter="url(#filter0_b_704_4138)">
<path d="M10.5328 19.8681C9.76857 19.869 9.0309 19.5938 8.46122 19.0952L1.05337 12.6501C0.745964 12.3842 0.495187 12.0615 0.315403 11.7005C0.135618 11.3395 0.0303606 10.9473 0.00565852 10.5465C-0.0190436 10.1456 0.0372959 9.7439 0.171449 9.36438C0.305603 8.98486 0.514934 8.63498 0.78745 8.33479C1.05997 8.0346 1.39031 7.78999 1.75956 7.61498C2.12881 7.43997 2.5297 7.338 2.93927 7.31491C3.34885 7.29182 3.75905 7.34806 4.14638 7.48041C4.53371 7.61277 4.89056 7.81864 5.19648 8.08622L10.3347 12.5557L20.6062 1.83109C21.1724 1.24152 21.9542 0.895783 22.7804 0.869694C23.6066 0.843605 24.4096 1.13929 25.0134 1.69192C25.6169 2.24603 25.9712 3.01198 25.9983 3.82156C26.0254 4.63115 25.7232 5.41818 25.1581 6.00982L12.81 18.9039C12.5186 19.2094 12.166 19.4527 11.7742 19.6186C11.3823 19.7845 10.9597 19.8695 10.5328 19.8681Z" fill="url(#paint0_radial_704_4138)"/>
<path d="M10.5344 19.3681L10.5321 19.3681C9.88803 19.3689 9.26795 19.1368 8.79052 18.719L8.78941 18.718L1.38156 12.2729L1.3805 12.272C1.1227 12.049 0.913028 11.7789 0.762966 11.4776C0.612917 11.1763 0.525277 10.8495 0.504712 10.5157C0.484147 10.182 0.531026 9.84741 0.642864 9.53102C0.754711 9.21461 0.929468 8.92223 1.15766 8.67087C1.38587 8.41948 1.66307 8.21403 1.9737 8.0668C2.28436 7.91956 2.62206 7.83359 2.96742 7.81412L2.93927 7.31491L2.96742 7.81412C3.31278 7.79465 3.65851 7.84209 3.9847 7.95355C4.31088 8.06501 4.61074 8.23816 4.8673 8.46257L4.86833 8.46347L10.0066 12.9329L10.3662 13.2457L10.6958 12.9015L20.9669 2.17741C20.967 2.17731 20.9671 2.17721 20.9671 2.17711C21.4416 1.68314 22.0991 1.39146 22.7962 1.36944C23.4932 1.34743 24.1689 1.59701 24.6754 2.06036C25.1813 2.52488 25.476 3.16464 25.4986 3.83831C25.5212 4.51183 25.27 5.1686 24.7969 5.66408C24.7967 5.6642 24.7966 5.66432 24.7965 5.66444L12.4488 18.558L12.4481 18.5588C12.2043 18.8144 11.9086 19.0187 11.5792 19.1582C11.2497 19.2977 10.894 19.3693 10.5344 19.3681Z" stroke="url(#paint1_linear_704_4138)" stroke-opacity="0.3"/>
</g>
<defs>
<filter id="filter0_b_704_4138" x="-16" y="-15.1319" width="58" height="51" filterUnits="userSpaceOnUse" color-interpolation-filters="sRGB">
<feFlood flood-opacity="0" result="BackgroundImageFix"/>
<feGaussianBlur in="BackgroundImageFix" stdDeviation="8"/>
<feComposite in2="SourceAlpha" operator="in" result="effect1_backgroundBlur_704_4138"/>
<feBlend mode="normal" in="SourceGraphic" in2="effect1_backgroundBlur_704_4138" result="shape"/>
</filter>
<radialGradient id="paint0_radial_704_4138" cx="0" cy="0" r="1" gradientUnits="userSpaceOnUse" gradientTransform="translate(11.4805 13.9716) rotate(-144.703) scale(7.65373 17.9667)">
<stop stop-color="white" stop-opacity="0.5"/>
<stop offset="1" stop-color="#63B3FF" stop-opacity="0.5"/>
</radialGradient>
<linearGradient id="paint1_linear_704_4138" x1="13" y1="0.868103" x2="13" y2="19.8681" gradientUnits="userSpaceOnUse">
<stop stop-color="white"/>
<stop offset="1" stop-color="white" stop-opacity="0"/>
</linearGradient>
</defs>
</svg>
