<svg width="26" height="20" viewBox="0 0 26 20" fill="none" xmlns="http://www.w3.org/2000/svg">
<g id="Vector" filter="url(#filter0_b_702_3680)">
<path d="M10.5328 19.5C9.76857 19.5009 9.0309 19.2257 8.46122 18.7271L1.05337 12.282C0.745964 12.0161 0.495187 11.6934 0.315403 11.3324C0.135618 10.9714 0.0303606 10.5792 0.00565852 10.1784C-0.0190436 9.7775 0.0372959 9.3758 0.171449 8.99628C0.305603 8.61676 0.514934 8.26688 0.78745 7.96669C1.05997 7.66649 1.39031 7.42189 1.75956 7.24688C2.12881 7.07187 2.5297 6.9699 2.93927 6.94681C3.34885 6.92371 3.75905 6.97996 4.14638 7.11231C4.53371 7.24467 4.89056 7.45053 5.19648 7.71811L10.3347 12.1876L20.6062 1.46299C21.1724 0.873416 21.9542 0.52768 22.7804 0.501591C23.6066 0.475501 24.4096 0.771189 25.0134 1.32382C25.6169 1.87793 25.9712 2.64388 25.9983 3.45346C26.0254 4.26305 25.7232 5.05007 25.1581 5.64172L12.81 18.5357C12.5186 18.8413 12.166 19.0846 11.7742 19.2505C11.3823 19.4164 10.9597 19.5014 10.5328 19.5Z" fill="url(#paint0_radial_702_3680)"/>
<path d="M10.5344 19L10.5321 19C9.88803 19.0008 9.26795 18.7687 8.79052 18.3509L8.78941 18.3499L1.38156 11.9048L1.3805 11.9039C1.1227 11.6809 0.913028 11.4108 0.762966 11.1095C0.612917 10.8082 0.525277 10.4814 0.504712 10.1476C0.484147 9.81389 0.531026 9.47931 0.642864 9.16292C0.754711 8.8465 0.929468 8.55413 1.15766 8.30276C1.38587 8.05137 1.66307 7.84593 1.9737 7.6987C2.28436 7.55146 2.62206 7.46548 2.96742 7.44601L2.93927 6.94681L2.96742 7.44601C3.31278 7.42654 3.65851 7.47399 3.9847 7.58545C4.31088 7.69691 4.61074 7.87005 4.8673 8.09446L4.86833 8.09537L10.0066 12.5648L10.3662 12.8776L10.6958 12.5334L20.9669 1.8093C20.967 1.8092 20.9671 1.8091 20.9671 1.809C21.4416 1.31503 22.0991 1.02335 22.7962 1.00134C23.4932 0.97933 24.1689 1.2289 24.6754 1.69226C25.1813 2.15678 25.476 2.79654 25.4986 3.47021C25.5212 4.14373 25.27 4.80049 24.7969 5.29598C24.7967 5.2961 24.7966 5.29622 24.7965 5.29634L12.4488 18.1899L12.4481 18.1907C12.2043 18.4463 11.9086 18.6506 11.5792 18.7901C11.2497 18.9296 10.894 19.0011 10.5344 19Z" stroke="url(#paint1_linear_702_3680)" stroke-opacity="0.3"/>
</g>
<defs>
<filter id="filter0_b_702_3680" x="-16" y="-15.5" width="58" height="51" filterUnits="userSpaceOnUse" color-interpolation-filters="sRGB">
<feFlood flood-opacity="0" result="BackgroundImageFix"/>
<feGaussianBlur in="BackgroundImageFix" stdDeviation="8"/>
<feComposite in2="SourceAlpha" operator="in" result="effect1_backgroundBlur_702_3680"/>
<feBlend mode="normal" in="SourceGraphic" in2="effect1_backgroundBlur_702_3680" result="shape"/>
</filter>
<radialGradient id="paint0_radial_702_3680" cx="0" cy="0" r="1" gradientUnits="userSpaceOnUse" gradientTransform="translate(13 10) rotate(90) scale(9.5 13)">
<stop stop-color="#3022BB" stop-opacity="0.76"/>
<stop offset="1" stop-color="#3022BB"/>
</radialGradient>
<linearGradient id="paint1_linear_702_3680" x1="13" y1="0.5" x2="13" y2="19.5" gradientUnits="userSpaceOnUse">
<stop stop-color="white"/>
<stop offset="1" stop-color="white" stop-opacity="0"/>
</linearGradient>
</defs>
</svg>
