<svg xmlns="http://www.w3.org/2000/svg" fill="none" viewBox="0 0 50 50"><path fill="#4343C2" d="M18.75 26.083a1 1 0 1 0 0 2v-2Zm12.5 2a1 1 0 0 0 0-2v2ZM24 33.333a1 1 0 0 0 2 0h-2Zm2-12.5a1 1 0 1 0-2 0h2Zm-15.456 23.01.588-.808-.588.809ZM8.239 41.54l.81-.587-.81.587Zm33.522 0-.81-.587.81.587Zm-2.305 2.305-.588-.81.588.81Zm0-33.521-.588.809.588-.81Zm2.305 2.304-.81.588.81-.588Zm-31.217-2.304.588.809-.588-.81Zm-2.305 2.304.81.588-.81-.588ZM32.386 2.593l-.31.951.31-.95Zm6.688 6.688-.951.309.95-.309Zm-21.46-6.688.31.951-.31-.95Zm-6.687 6.688.95.309-.95-.309Zm7.823 18.802h12.5v-2h-12.5v2Zm7.25 5.25v-12.5h-2v12.5h2Zm-1 11.5c-3.928 0-6.794-.001-9.023-.243-2.21-.24-3.675-.705-4.845-1.555l-1.176 1.618c1.568 1.14 3.425 1.668 5.806 1.926 2.361.256 5.354.254 9.238.254v-2ZM5.25 27.083c0 3.884-.001 6.877.254 9.239.258 2.38.787 4.237 1.926 5.805l1.618-1.175c-.85-1.17-1.316-2.636-1.555-4.846-.242-2.229-.243-5.095-.243-9.023h-2Zm5.882 15.952a9.417 9.417 0 0 1-2.084-2.083L7.43 42.127c.705.97 1.557 1.822 2.526 2.526l1.176-1.618ZM42.75 27.083c0 3.929-.001 6.794-.243 9.023-.24 2.21-.705 3.675-1.555 4.846l1.618 1.175c1.139-1.568 1.668-3.425 1.925-5.805.256-2.362.255-5.355.255-9.239h-2ZM25 46.833c3.884 0 6.877.002 9.238-.254 2.38-.258 4.238-.787 5.806-1.926l-1.176-1.618c-1.17.85-2.635 1.316-4.845 1.555-2.229.242-5.095.243-9.023.243v2Zm15.952-5.881a9.417 9.417 0 0 1-2.084 2.083l1.176 1.618a11.419 11.419 0 0 0 2.526-2.526l-1.618-1.175Zm3.798-13.869c0-3.883.001-6.877-.255-9.238-.257-2.38-.786-4.238-1.925-5.806l-1.618 1.176c.85 1.17 1.316 2.635 1.555 4.845.242 2.23.243 5.095.243 9.023h2Zm-5.882-15.951c.8.58 1.503 1.284 2.084 2.083l1.618-1.176a11.417 11.417 0 0 0-2.526-2.525l-1.176 1.618ZM7.25 27.083c0-3.928.001-6.794.243-9.023.24-2.21.705-3.675 1.555-4.845L7.43 12.039c-1.139 1.568-1.668 3.425-1.926 5.806-.255 2.361-.254 5.355-.254 9.238h2Zm2.706-17.57A11.417 11.417 0 0 0 7.43 12.04l1.618 1.176a9.417 9.417 0 0 1 2.084-2.083L9.956 9.514ZM25 3.084c3.956 0 5.696.013 7.077.461l.618-1.902C30.937 1.071 28.8 1.083 25 1.083v2Zm7.077.461a9.417 9.417 0 0 1 6.046 6.046l1.902-.618a11.417 11.417 0 0 0-7.33-7.33l-.618 1.902ZM25 1.084c-3.8 0-5.937-.013-7.695.558l.619 1.902c1.38-.448 3.12-.46 7.076-.46v-2Zm-7.695.558a11.417 11.417 0 0 0-7.33 7.33l1.903.618a9.416 9.416 0 0 1 6.046-6.046l-.619-1.902Zm-5.634 8.765c.057-.296.125-.565.207-.817l-1.902-.618c-.111.34-.2.691-.27 1.061l1.965.374ZM25 7.333c-3.816 0-6.772-.001-9.113.241-2.355.244-4.205.744-5.766 1.823l1.136 1.646c1.17-.808 2.639-1.252 4.836-1.48 2.214-.229 5.048-.23 8.907-.23v-2ZM10.12 9.397c-.055.038-.11.077-.164.117l1.176 1.618.125-.09-1.136-1.645Zm30.174.636a8.637 8.637 0 0 0-.27-1.061l-1.901.618c.082.252.15.52.206.817l1.965-.374ZM25 9.333c3.859 0 6.693.002 8.907.23 2.198.228 3.667.672 4.836 1.48l1.137-1.646c-1.562-1.079-3.411-1.579-5.767-1.823-2.34-.242-5.296-.24-9.113-.24v2Zm13.743 1.71a6.2 6.2 0 0 1 .125.089l1.176-1.618a8.322 8.322 0 0 0-.164-.117l-1.137 1.646Z"/></svg>