<svg xmlns="http://www.w3.org/2000/svg" fill="none" viewBox="0 0 50 50"><path stroke="#4343C2" stroke-width="2" d="M45.835 20.833c0-5.834 0-8.75-1.136-10.979a10.416 10.416 0 0 0-4.552-4.552c-2.228-1.135-5.145-1.135-10.979-1.135h-8.333c-5.834 0-8.751 0-10.98 1.135a10.417 10.417 0 0 0-4.552 4.552C4.168 12.082 4.168 15 4.168 20.834v8.808a7.858 7.858 0 0 0 7.858 7.858h1.253a2.294 2.294 0 0 1 2.13 3.146c-.85 2.128 1.6 4.051 3.464 2.72l5.44-3.886c.055-.04.082-.06.11-.078a10.417 10.417 0 0 1 5.933-1.902h1.279c3.52 0 5.279 0 6.714-.421a10.417 10.417 0 0 0 7.065-7.065c.42-1.435.42-3.195.42-6.714v-2.467Z"/><path fill="#4343C2" d="M18.753 20.833a2.083 2.083 0 1 1-4.167 0 2.083 2.083 0 0 1 4.167 0ZM27.086 20.833a2.083 2.083 0 1 1-4.167 0 2.083 2.083 0 0 1 4.167 0ZM35.42 20.833a2.083 2.083 0 1 1-4.168 0 2.083 2.083 0 0 1 4.167 0Z"/></svg>