<svg xmlns="http://www.w3.org/2000/svg" fill="none" viewBox="0 0 50 50"><path fill="#4343C2" d="M19.056 15.972a1 1 0 0 0-2 0h2Zm-1 18.055h1-1Zm-4.772-4.788a1 1 0 0 0-1.568 1.243l1.568-1.242Zm1.157 3.07.784-.621-.784.621Zm7.229 0 .783.622-.783-.622Zm2.725-1.827a1 1 0 1 0-1.567-1.242l1.567 1.242Zm-6.688 4.907-.157.987.157-.987Zm.697 0-.158-.988.158.988Zm12.54-1.361a1 1 0 1 0 2 0h-2Zm-5.338-14.51a1 1 0 0 0 1.567 1.242l-1.567-1.242Zm2.724-1.828-.783-.621.784.621Zm7.229 0 .783-.621-.783.621Zm1.158 3.07a1 1 0 0 0 1.567-1.242l-1.567 1.242Zm-5.12-6.149-.158-.988.157.988Zm.696 0 .157-.988-.157.988Zm-21.75 27.15.589-.81-.588.81ZM8.24 39.456l.81-.588-.81.588Zm33.522 0-.81-.588.81.588Zm-2.305 2.305-.588-.81.588.81Zm0-33.522-.588.81.588-.81Zm2.305 2.305-.81.588.81-.588ZM10.544 8.239l.588.81-.588-.81Zm-2.305 2.305.81.588-.81-.588Zm8.817 5.428v18.055h2V15.972h-2Zm-5.34 14.51 1.942 2.449 1.567-1.243-1.941-2.448-1.568 1.242Zm10.737 2.449 1.942-2.449-1.567-1.242-1.942 2.448 1.567 1.243Zm-8.795 0c.759.957 1.38 1.743 1.935 2.3.559.56 1.174 1.02 1.957 1.145l.315-1.975c-.16-.025-.404-.13-.855-.582-.456-.457-.996-1.136-1.785-2.131l-1.567 1.243Zm7.228-1.243c-.79.996-1.33 1.674-1.785 2.131-.45.453-.694.557-.855.582l.315 1.975c.783-.124 1.398-.584 1.957-1.145.555-.557 1.176-1.343 1.935-2.3l-1.567-1.243Zm12.059 2.34V15.972h-2v18.056h2ZM27.173 20.76l1.941-2.448-1.567-1.243-1.942 2.449 1.568 1.242Zm7.602-2.448 1.942 2.448 1.567-1.242-1.942-2.449-1.567 1.243Zm-5.66 0c.788-.996 1.328-1.674 1.784-2.132.45-.452.694-.556.855-.582l-.315-1.975c-.783.125-1.398.585-1.957 1.146-.555.557-1.176 1.343-1.935 2.3l1.567 1.243Zm7.227-1.243c-.759-.957-1.38-1.743-1.935-2.3-.559-.561-1.174-1.02-1.957-1.146l-.315 1.976c.16.025.404.129.855.581.456.458.996 1.136 1.785 2.132l1.567-1.243ZM25 42.75c-3.928 0-6.794-.001-9.023-.243-2.21-.24-3.675-.705-4.845-1.555L9.956 42.57c1.568 1.139 3.425 1.668 5.806 1.925 2.361.256 5.354.255 9.238.255v-2ZM5.25 25c0 3.884-.001 6.877.254 9.238.258 2.38.787 4.238 1.926 5.806l1.618-1.176c-.85-1.17-1.316-2.635-1.555-4.845C7.25 31.794 7.25 28.928 7.25 25h-2Zm5.882 15.952a9.418 9.418 0 0 1-2.084-2.084L7.43 40.044c.705.97 1.557 1.821 2.526 2.526l1.176-1.618ZM42.75 25c0 3.928-.001 6.794-.243 9.023-.24 2.21-.705 3.675-1.555 4.845l1.618 1.176c1.139-1.568 1.668-3.425 1.925-5.806.256-2.361.255-5.354.255-9.238h-2ZM25 44.75c3.884 0 6.877.001 9.238-.255 2.38-.257 4.238-.786 5.806-1.925l-1.176-1.618c-1.17.85-2.635 1.316-4.845 1.555-2.229.242-5.095.243-9.023.243v2Zm15.952-5.882a9.417 9.417 0 0 1-2.084 2.084l1.176 1.618a11.418 11.418 0 0 0 2.526-2.526l-1.618-1.176ZM25 7.25c3.928 0 6.794.001 9.023.243 2.21.24 3.675.705 4.845 1.555l1.176-1.618c-1.568-1.139-3.425-1.668-5.806-1.926C31.877 5.25 28.884 5.25 25 5.25v2ZM44.75 25c0-3.884.001-6.877-.255-9.238-.257-2.38-.786-4.238-1.925-5.806l-1.618 1.176c.85 1.17 1.316 2.635 1.555 4.845.242 2.229.243 5.095.243 9.023h2ZM38.868 9.048c.8.581 1.503 1.284 2.084 2.084l1.618-1.176a11.417 11.417 0 0 0-2.526-2.526l-1.176 1.618ZM25 5.25c-3.884 0-6.877-.001-9.238.254-2.38.258-4.238.787-5.806 1.926l1.176 1.618c1.17-.85 2.635-1.316 4.845-1.555C18.206 7.25 21.072 7.25 25 7.25v-2ZM7.25 25c0-3.928.001-6.794.243-9.023.24-2.21.705-3.675 1.555-4.845L7.43 9.956c-1.139 1.568-1.668 3.425-1.926 5.806C5.25 18.123 5.25 21.116 5.25 25h2ZM9.956 7.43A11.416 11.416 0 0 0 7.43 9.956l1.618 1.176a9.418 9.418 0 0 1 2.084-2.084L9.956 7.43Zm21.798 8.168c.064-.01.127-.015.19-.015v-2c-.168 0-.337.014-.505.04l.315 1.976Zm.19-.015c.064 0 .128.005.191.015l.315-1.975a3.208 3.208 0 0 0-.505-.04v2Zm1 .39v-1.39h-2v1.39h2ZM17.55 36.375c.168.027.336.04.506.04v-2a1.22 1.22 0 0 1-.191-.015l-.315 1.975Zm.506.04c.169 0 .338-.013.505-.04l-.315-1.975c-.063.01-.127.015-.19.015v2Zm-1-2.389v1.39h2v-1.39h-2Z"/></svg>