<svg xmlns="http://www.w3.org/2000/svg" width="50" height="50" viewBox="0 0 50 50" fill="none">
  <path d="M14.58 12.4997C14.58 6.74671 19.2438 2.08301 24.9967 2.08301C30.7497 2.08301 35.4134 6.74671 35.4134 12.4997V12.524M14.58 12.4997C15.888 12.4748 17.3566 12.4997 19.0808 12.4997H30.9127C32.6259 12.4997 34.1114 12.4997 35.4134 12.524M14.58 12.4997C10.9991 12.5677 8.7847 12.8468 7.06334 13.7971C5.06104 14.9025 3.47998 16.6352 2.5614 18.7255M2.5614 18.7255L10.0125 26.1767C16.957 33.1211 20.4292 36.5933 24.7439 36.5933C29.0587 36.5933 32.5309 33.1211 39.4753 26.1767L47.0434 18.6085C47.1176 18.5343 47.1995 18.4682 47.2877 18.4113V18.4113M2.5614 18.7255C2.53311 18.7899 2.50545 18.8546 2.47842 18.9197C1.44845 21.3987 1.80431 24.6014 2.51603 31.0069C3.09857 36.2497 3.38984 38.8711 4.5992 40.8494C5.66453 42.5921 7.21868 43.9831 9.06834 44.8495C11.1681 45.833 13.8056 45.833 19.0808 45.833H30.9127C36.1878 45.833 38.8253 45.833 40.9251 44.8495C42.7748 43.9831 44.3289 42.5921 45.3942 40.8494C46.6036 38.8711 46.8949 36.2497 47.4774 31.0069C48.1891 24.6014 48.545 21.3987 47.515 18.9197C47.4436 18.7479 47.3678 18.5784 47.2877 18.4113M35.4134 12.524C39.0092 12.5914 41.2047 12.8446 42.9301 13.7971C44.8312 14.8466 46.3526 16.4616 47.2877 18.4113" stroke="#4343C2" stroke-width="2"/>
</svg>