<svg viewBox="0 0 26 26" fill="currentColor" xmlns="http://www.w3.org/2000/svg"><path fill-rule="evenodd" clip-rule="evenodd" d="M9.2 3.004c1.092-3.824 6.512-3.824 7.603 0a2.453 2.453 0 0 0 2.955 1.706c3.858-.967 6.568 3.727 3.802 6.584a2.453 2.453 0 0 0 0 3.413c2.766 2.857.056 7.55-3.802 6.584a2.453 2.453 0 0 0-2.955 1.706c-1.091 3.824-6.511 3.824-7.602 0a2.453 2.453 0 0 0-2.956-1.706c-3.857.967-6.567-3.727-3.801-6.584.92-.951.92-2.462 0-3.413-2.766-2.857-.056-7.55 3.801-6.584a2.453 2.453 0 0 0 2.956-1.706zm6.16.412c-.677-2.374-4.04-2.374-4.717 0a3.953 3.953 0 0 1-4.763 2.75c-2.393-.6-4.075 2.312-2.358 4.085a3.953 3.953 0 0 1 0 5.5c-1.717 1.772-.035 4.685 2.358 4.085a3.953 3.953 0 0 1 4.763 2.75c.677 2.373 4.04 2.373 4.718 0a3.953 3.953 0 0 1 4.762-2.75c2.394.6 4.075-2.313 2.359-4.086a3.953 3.953 0 0 1 0-5.5c1.716-1.772.035-4.685-2.359-4.085a3.953 3.953 0 0 1-4.762-2.75zm2.455 5.758a.75.75 0 0 1 .096 1.057l-3.785 4.541c-.357.43-.675.812-.972 1.08-.32.289-.716.54-1.236.54-.518 0-.915-.251-1.235-.54-.297-.268-.615-.65-.973-1.08l-1.618-1.941a.75.75 0 0 1 1.153-.96l1.585 1.902c.4.48.65.778.858.965a.882.882 0 0 0 .191.142c.025.012.034.012.039.012h.001c.005 0 .014 0 .038-.012a.887.887 0 0 0 .192-.142c.207-.187.457-.484.858-.965l3.752-4.503a.75.75 0 0 1 1.056-.096z"/></svg>