<svg viewBox="0 0 26 26" fill="currentColor" xmlns="http://www.w3.org/2000/svg"><path fill-rule="evenodd" clip-rule="evenodd" d="M10.8 2.5h4.402c1.488 0 2.65 0 3.585.076.95.078 1.728.238 2.43.596a6.167 6.167 0 0 1 2.696 2.695c.357.703.518 1.481.595 2.43.077.935.077 2.098.077 3.586V13.35c0 1.686 0 2.7-.25 3.552a6.167 6.167 0 0 1-4.182 4.182c-.85.25-1.865.25-3.552.25h-.81a4.667 4.667 0 0 0-2.659.851l-.053.038-2.828 2.02c-1.58 1.129-3.655-.5-2.934-2.302a.443.443 0 0 0-.411-.608h-.652a4.836 4.836 0 0 1-4.836-4.836v-4.614c0-1.488 0-2.651.076-3.585.078-.95.238-1.728.596-2.43a6.167 6.167 0 0 1 2.695-2.696c.703-.358 1.481-.518 2.43-.596C8.15 2.5 9.314 2.5 10.802 2.5zM7.339 4.071c-.857.07-1.416.205-1.872.438a4.667 4.667 0 0 0-2.04 2.039c-.232.456-.367 1.015-.437 1.872-.07.866-.071 1.967-.071 3.497v4.58a3.336 3.336 0 0 0 3.336 3.336h.652a1.943 1.943 0 0 1 1.804 2.665c-.164.41.309.782.669.525l2.828-2.02.061-.044a6.166 6.166 0 0 1 3.513-1.125H16.451c1.883 0 2.663-.008 3.28-.19a4.667 4.667 0 0 0 3.165-3.164c.181-.617.189-1.398.189-3.28v-1.283c0-1.53-.001-2.631-.072-3.497-.07-.857-.205-1.416-.437-1.872a4.667 4.667 0 0 0-2.04-2.04c-.455-.232-1.015-.367-1.871-.437-.866-.07-1.968-.071-3.497-.071h-4.333c-1.53 0-2.631 0-3.497.071zm4.913 5.679a.75.75 0 0 1 .75-.75h4.334a.75.75 0 0 1 0 1.5H13a.75.75 0 0 1-.75-.75zm-4.333 4.333a.75.75 0 0 1 .75-.75h8.667a.75.75 0 0 1 0 1.5H8.668a.75.75 0 0 1-.75-.75z"/></svg>