<svg viewBox="0 0 26 26" fill="currentColor" xmlns="http://www.w3.org/2000/svg"><path fill-rule="evenodd" clip-rule="evenodd" d="M6.876 5.77a6.168 6.168 0 0 1 12.25.011c1.502.056 2.623.218 3.562.737a6.166 6.166 0 0 1 2.714 3.032c.326.784.414 1.643.387 2.684-.026 1.026-.168 2.301-.35 3.937l-.007.067c-.148 1.336-.265 2.383-.424 3.221-.163.855-.38 1.551-.761 2.174A6.167 6.167 0 0 1 21.6 24c-.66.31-1.377.448-2.244.516-.851.066-1.904.066-3.249.066H9.892c-1.345 0-2.397 0-3.249-.066C5.776 24.449 5.06 24.31 4.4 24a6.167 6.167 0 0 1-2.645-2.368c-.38-.623-.598-1.319-.761-2.174-.16-.838-.276-1.885-.425-3.221l-.007-.067c-.182-1.636-.324-2.91-.35-3.937-.027-1.04.061-1.9.387-2.684a6.177 6.177 0 0 1 2.714-3.032c.936-.517 2.061-.69 3.564-.749zm1.518-.026.654.003c.281.001.573.003.876.003h6.158c.549 0 1.056 0 1.525.003a4.668 4.668 0 0 0-9.213-.009zm.62 1.503c-.52-.003-.982-.006-1.416.003-1.866.035-2.845.186-3.56.58a4.667 4.667 0 0 0-1.79 1.76l3.49 3.491c1.821 1.82 3.134 3.132 4.268 3.997 1.117.852 1.97 1.2 2.863 1.2.892 0 1.746-.348 2.862-1.2 1.134-.865 2.447-2.176 4.268-3.997l3.655-3.655a4.666 4.666 0 0 0-1.691-1.595c-.716-.395-1.68-.534-3.56-.569-.669-.012-1.434-.012-2.326-.012H9.924c-.324 0-.625-.002-.91-.003zm15.223 3.717-3.218 3.219c-1.771 1.77-3.155 3.154-4.378 4.087-1.25.954-2.42 1.508-3.772 1.508-1.352 0-2.523-.554-3.773-1.508-1.223-.933-2.606-2.316-4.377-4.087L1.736 11.2a8.435 8.435 0 0 0-.025.996c.024.954.158 2.166.345 3.845.152 1.374.263 2.363.41 3.138.146.766.319 1.265.567 1.671a4.667 4.667 0 0 0 2.003 1.792c.43.202.946.319 1.724.38.786.06 1.78.061 3.164.061h6.152c1.384 0 2.378 0 3.165-.062.777-.06 1.293-.177 1.724-.379a4.667 4.667 0 0 0 2.002-1.792c.248-.406.421-.905.567-1.671.148-.775.258-1.764.41-3.138.187-1.679.321-2.89.346-3.845a7.518 7.518 0 0 0-.053-1.232z"/></svg>