<svg viewBox="0 0 34 34" fill="currentColor" xmlns="http://www.w3.org/2000/svg"><g><path d="M7.16985 29.8137L7.61069 29.2069L7.16985 29.8137ZM5.6028 28.2466L6.20956 27.8058L5.6028 28.2466ZM28.3972 28.2466L27.7904 27.8058L28.3972 28.2466ZM26.8301 29.8137L26.3893 29.2069L26.8301 29.8137ZM26.8301 7.0193L26.3893 7.62606L26.8301 7.0193ZM28.3972 8.58636L27.7904 9.0272L28.3972 8.58636ZM7.16985 7.0193L7.61069 7.62606L7.61069 7.62606L7.16985 7.0193ZM5.6028 8.58636L6.20956 9.0272L5.6028 8.58636ZM22.0223 1.76319L21.7905 2.47648L21.7905 2.47648L22.0223 1.76319ZM26.5701 6.31097L25.8568 6.54273L25.8568 6.54273L26.5701 6.31097ZM11.9779 1.76319L12.2096 2.47648L12.2096 2.47648L11.9779 1.76319ZM7.43009 6.31097L8.14338 6.54273L8.14338 6.54273L7.43009 6.31097ZM11.3333 21.9165C10.9191 21.9165 10.5833 22.2523 10.5833 22.6665C10.5833 23.0807 10.9191 23.4165 11.3333 23.4165V21.9165ZM22.6667 23.4165C23.0809 23.4165 23.4167 23.0807 23.4167 22.6665C23.4167 22.2523 23.0809 21.9165 22.6667 21.9165V23.4165ZM17 30.4165C14.3272 30.4165 12.3829 30.4155 10.8719 30.2518C9.37494 30.0896 8.39252 29.775 7.61069 29.2069L6.72902 30.4205C7.80916 31.2052 9.08575 31.567 10.7103 31.743C12.3209 31.9175 14.3606 31.9165 17 31.9165V30.4165ZM3.5 18.4165C3.5 21.0559 3.49897 23.0956 3.67346 24.7062C3.84948 26.3308 4.21126 27.6073 4.99603 28.6875L6.20956 27.8058C5.64153 27.024 5.32692 26.0416 5.16474 24.5446C5.00103 23.0336 5 21.0893 5 18.4165H3.5ZM7.61069 29.2069C7.07303 28.8163 6.6002 28.3435 6.20956 27.8058L4.99603 28.6875C5.47919 29.3525 6.06401 29.9373 6.72902 30.4205L7.61069 29.2069ZM29 18.4165C29 21.0893 28.999 23.0336 28.8353 24.5446C28.6731 26.0416 28.3585 27.024 27.7904 27.8058L29.004 28.6875C29.7887 27.6073 30.1505 26.3308 30.3265 24.7062C30.501 23.0956 30.5 21.0559 30.5 18.4165H29ZM17 31.9165C19.6394 31.9165 21.6791 31.9175 23.2897 31.743C24.9143 31.567 26.1908 31.2052 27.271 30.4205L26.3893 29.2069C25.6075 29.775 24.6251 30.0896 23.1281 30.2518C21.6171 30.4155 19.6728 30.4165 17 30.4165V31.9165ZM27.7904 27.8058C27.3998 28.3435 26.927 28.8163 26.3893 29.2069L27.271 30.4205C27.936 29.9373 28.5208 29.3525 29.004 28.6875L27.7904 27.8058ZM30.5 18.4165C30.5 15.7771 30.501 13.7374 30.3265 12.1268C30.1505 10.5022 29.7887 9.22566 29.004 8.14552L27.7904 9.0272C28.3585 9.80902 28.6731 10.7914 28.8353 12.2884C28.999 13.7994 29 15.7437 29 18.4165H30.5ZM26.3893 7.62606C26.927 8.0167 27.3998 8.48953 27.7904 9.0272L29.004 8.14552C28.5208 7.48051 27.936 6.89569 27.271 6.41254L26.3893 7.62606ZM5 18.4165C5 15.7437 5.00103 13.7994 5.16474 12.2884C5.32692 10.7914 5.64153 9.80902 6.20956 9.0272L4.99603 8.14552C4.21126 9.22566 3.84948 10.5022 3.67346 12.1268C3.49897 13.7374 3.5 15.7771 3.5 18.4165H5ZM6.72902 6.41254C6.06401 6.89569 5.47919 7.48051 4.99603 8.14552L6.20956 9.0272C6.6002 8.48953 7.07303 8.0167 7.61069 7.62606L6.72902 6.41254ZM17.0001 2.1665C19.6953 2.1665 20.865 2.17576 21.7905 2.47648L22.254 1.04989C21.0456 0.657251 19.5785 0.666504 17.0001 0.666504V2.1665ZM21.7905 2.47648C23.7186 3.10296 25.2303 4.61462 25.8568 6.54273L27.2834 6.0792C26.5085 3.69444 24.6388 1.82475 22.254 1.04989L21.7905 2.47648ZM17.0001 0.666504C14.4216 0.666504 12.9545 0.657251 11.7461 1.04989L12.2096 2.47648C13.1352 2.17576 14.3049 2.1665 17.0001 2.1665V0.666504ZM11.7461 1.04989C9.36134 1.82475 7.49166 3.69444 6.7168 6.0792L8.14338 6.54273C8.76986 4.61462 10.2815 3.10296 12.2096 2.47648L11.7461 1.04989ZM8.00526 7.08951C8.04306 6.89068 8.08867 6.71114 8.14338 6.54273L6.7168 6.0792C6.6406 6.31373 6.58 6.55505 6.53165 6.80936L8.00526 7.08951ZM17 4.9165C14.4063 4.9165 12.3922 4.91557 10.7963 5.08086C9.18873 5.24736 7.91805 5.58918 6.84219 6.33235L7.69473 7.56652C8.47611 7.02676 9.46167 6.72711 10.9508 6.57288C12.4516 6.41744 14.3746 6.4165 17 6.4165V4.9165ZM6.84219 6.33235C6.80417 6.35862 6.76644 6.38534 6.72902 6.41254L7.61069 7.62606C7.63851 7.60586 7.66651 7.58601 7.69473 7.56652L6.84219 6.33235ZM27.4685 6.8095C27.4202 6.55513 27.3596 6.31377 27.2834 6.0792L25.8568 6.54273C25.9115 6.71117 25.9571 6.89074 25.9949 7.08962L27.4685 6.8095ZM17 6.4165C19.6254 6.4165 21.5485 6.41744 23.0493 6.57289C24.5385 6.72714 25.524 7.02682 26.3054 7.56663L27.158 6.33249C26.0821 5.58924 24.8114 5.24739 23.2039 5.08088C21.6079 4.91557 19.5938 4.9165 17 4.9165V6.4165ZM26.3054 7.56663C26.3336 7.58608 26.3615 7.60589 26.3893 7.62606L27.271 6.41254C27.2336 6.38539 27.196 6.35871 27.158 6.33249L26.3054 7.56663ZM11.3333 23.4165H22.6667V21.9165H11.3333V23.4165Z"/></g></svg>
