<svg viewBox="0 0 34 34" fill="currentColor" xmlns="http://www.w3.org/2000/svg"><g><path d="M27.2253 12.6628L27.1079 13.4036L27.1079 13.4036L27.2253 12.6628ZM21.3372 6.77474L20.5964 6.89207L20.5964 6.89207L21.3372 6.77474ZM7.16985 28.3972L7.61069 27.7904L7.16985 28.3972ZM5.6028 26.8301L6.20956 26.3893L5.6028 26.8301ZM28.3972 26.8301L27.7904 26.3893L28.3972 26.8301ZM26.8301 28.3972L26.3893 27.7904L26.8301 28.3972ZM26.8301 5.6028L27.271 4.99603L26.8301 5.6028ZM28.3972 7.16985L29.004 6.72902L28.3972 7.16985ZM7.16985 5.6028L7.61069 6.20956L7.16985 5.6028ZM5.6028 7.16985L6.20956 7.61069L5.6028 7.16985ZM21.25 4.29098L21.2757 3.54142L21.25 4.29098ZM29.709 12.75L30.4586 12.7243L29.709 12.75ZM11.3333 21.9167C10.9191 21.9167 10.5833 22.2525 10.5833 22.6667C10.5833 23.0809 10.9191 23.4167 11.3333 23.4167V21.9167ZM15.5833 23.4167C15.9975 23.4167 16.3333 23.0809 16.3333 22.6667C16.3333 22.2525 15.9975 21.9167 15.5833 21.9167V23.4167ZM11.3333 16.25C10.9191 16.25 10.5833 16.5858 10.5833 17C10.5833 17.4142 10.9191 17.75 11.3333 17.75V16.25ZM22.6667 17.75C23.0809 17.75 23.4167 17.4142 23.4167 17C23.4167 16.5858 23.0809 16.25 22.6667 16.25V17.75ZM11.3333 10.5833C10.9191 10.5833 10.5833 10.9191 10.5833 11.3333C10.5833 11.7475 10.9191 12.0833 11.3333 12.0833V10.5833ZM15.5833 12.0833C15.9975 12.0833 16.3333 11.7475 16.3333 11.3333C16.3333 10.9191 15.9975 10.5833 15.5833 10.5833V12.0833ZM27.3426 11.922C24.6326 11.4928 22.5072 9.3674 22.078 6.65742L20.5964 6.89207C21.1273 10.2439 23.7561 12.8727 27.1079 13.4036L27.3426 11.922ZM17 29C14.3272 29 12.3829 28.999 10.8719 28.8353C9.37494 28.6731 8.39252 28.3585 7.61069 27.7904L6.72902 29.004C7.80916 29.7887 9.08575 30.1505 10.7103 30.3265C12.3209 30.501 14.3606 30.5 17 30.5V29ZM3.5 17C3.5 19.6394 3.49897 21.6791 3.67346 23.2897C3.84948 24.9143 4.21126 26.1908 4.99603 27.271L6.20956 26.3893C5.64153 25.6075 5.32692 24.6251 5.16474 23.1281C5.00103 21.6171 5 19.6728 5 17H3.5ZM7.61069 27.7904C7.07303 27.3998 6.6002 26.927 6.20956 26.3893L4.99603 27.271C5.47919 27.936 6.06401 28.5208 6.72902 29.004L7.61069 27.7904ZM29 17C29 19.6728 28.999 21.6171 28.8353 23.1281C28.6731 24.6251 28.3585 25.6075 27.7904 26.3893L29.004 27.271C29.7887 26.1908 30.1505 24.9143 30.3265 23.2897C30.501 21.6791 30.5 19.6394 30.5 17H29ZM17 30.5C19.6394 30.5 21.6791 30.501 23.2897 30.3265C24.9143 30.1505 26.1908 29.7887 27.271 29.004L26.3893 27.7904C25.6075 28.3585 24.6251 28.6731 23.1281 28.8353C21.6171 28.999 19.6728 29 17 29V30.5ZM27.7904 26.3893C27.3998 26.927 26.927 27.3998 26.3893 27.7904L27.271 29.004C27.936 28.5208 28.5208 27.936 29.004 27.271L27.7904 26.3893ZM26.3893 6.20956C26.927 6.6002 27.3998 7.07303 27.7904 7.61069L29.004 6.72902C28.5208 6.06401 27.936 5.47919 27.271 4.99603L26.3893 6.20956ZM17 3.5C14.3606 3.5 12.3209 3.49897 10.7103 3.67346C9.08575 3.84948 7.80916 4.21126 6.72902 4.99603L7.61069 6.20956C8.39252 5.64153 9.37494 5.32692 10.8719 5.16474C12.3829 5.00103 14.3272 5 17 5V3.5ZM5 17C5 14.3272 5.00103 12.3829 5.16474 10.8719C5.32692 9.37494 5.64153 8.39252 6.20956 7.61069L4.99603 6.72902C4.21126 7.80916 3.84948 9.08575 3.67346 10.7103C3.49897 12.3209 3.5 14.3606 3.5 17H5ZM6.72902 4.99603C6.06401 5.47919 5.47919 6.06401 4.99603 6.72902L6.20956 7.61069C6.6002 7.07303 7.07303 6.6002 7.61069 6.20956L6.72902 4.99603ZM17 5C18.6601 5 20.0437 5.00009 21.2243 5.04054L21.2757 3.54142C20.0639 3.49991 18.6518 3.5 17 3.5V5ZM21.2243 5.04054C23.856 5.13071 25.3068 5.4231 26.3893 6.20956L27.271 4.99603C25.7904 3.92033 23.9259 3.63222 21.2757 3.54142L21.2243 5.04054ZM20.5 4.29099C20.5 5.55233 20.4986 6.27446 20.5964 6.89207L22.078 6.65742C22.0032 6.1853 22 5.6073 22 4.29098L20.5 4.29099ZM30.5 17C30.5 15.3482 30.5001 13.9361 30.4586 12.7243L28.9595 12.7757C28.9999 13.9563 29 15.3399 29 17H30.5ZM30.4586 12.7243C30.3678 10.0741 30.0797 8.20959 29.004 6.72902L27.7904 7.61069C28.5769 8.69316 28.8693 10.144 28.9595 12.7757L30.4586 12.7243ZM29.709 12C28.3927 12 27.8147 11.9968 27.3426 11.922L27.1079 13.4036C27.7255 13.5014 28.4477 13.5 29.709 13.5L29.709 12ZM11.3333 23.4167H15.5833V21.9167H11.3333V23.4167ZM11.3333 17.75H22.6667V16.25H11.3333V17.75ZM11.3333 12.0833H15.5833V10.5833H11.3333V12.0833Z"/></g></svg>
