<svg width="26" height="26" fill="none" stroke="currentColor" xmlns="http://www.w3.org/2000/svg"><path d="M18.417 18.417h-4.334m8.655-7.583c.012.625.012 1.34.012 2.167 0 3.033 0 4.55-.59 5.709a5.416 5.416 0 0 1-2.368 2.367c-1.158.59-2.675.59-5.709.59h-2.166c-3.034 0-4.55 0-5.71-.59A5.417 5.417 0 0 1 3.84 18.71c-.59-1.159-.59-2.676-.59-5.71 0-.826 0-1.54.012-2.166m19.476 0c-.032-1.668-.149-2.7-.578-3.542a5.416 5.416 0 0 0-2.368-2.368c-1.158-.59-2.675-.59-5.709-.59h-2.166c-3.034 0-4.55 0-5.71.59A5.417 5.417 0 0 0 3.84 7.292c-.429.842-.546 1.874-.578 3.542m19.476 0H3.262" stroke-width="1.5" stroke-linecap="round"/></svg>
