<svg width="50" height="50" fill="none" xmlns="http://www.w3.org/2000/svg"><path d="M14.58 12.5c0-5.753 4.664-10.417 10.417-10.417S35.413 6.747 35.413 12.5v.024M14.58 12.5c1.308-.025 2.777 0 4.5 0h11.833c1.713 0 3.198 0 4.5.024M14.58 12.5c-3.58.068-5.795.347-7.517 1.297a10.417 10.417 0 0 0-4.502 4.928m0 0 7.451 7.452c6.945 6.944 10.417 10.416 14.732 10.416 4.315 0 7.787-3.472 14.731-10.416l7.568-7.569a1.48 1.48 0 0 1 .245-.197m-44.727.314-.083.195c-1.03 2.479-.674 5.681.038 12.087.583 5.243.874 7.864 2.083 9.842a10.417 10.417 0 0 0 4.47 4c2.1.984 4.737.984 10.012.984h11.832c5.275 0 7.912 0 10.012-.983a10.416 10.416 0 0 0 4.47-4c1.209-1.979 1.5-4.6 2.082-9.843.712-6.406 1.068-9.608.038-12.087a10.486 10.486 0 0 0-.227-.509m-11.875-5.887c3.596.067 5.792.32 7.517 1.273a10.416 10.416 0 0 1 4.358 4.614" stroke="#4343C2" stroke-width="2"/></svg>