<svg width="50" height="50" fill="none" xmlns="http://www.w3.org/2000/svg"><path d="M14.585 29.167C15.973 31.846 20 35.417 25 35.417s9.028-3.571 10.417-6.25M45.835 25c0 11.506-9.328 20.834-20.834 20.834S4.168 36.506 4.168 25 13.495 4.167 25.001 4.167c11.506 0 20.834 9.327 20.834 20.833Z" stroke="#4343C2" stroke-width="2" stroke-linecap="round"/><path d="M20.835 16.667a2.083 2.083 0 1 1-4.167 0 2.083 2.083 0 0 1 4.167 0ZM33.335 16.667a2.083 2.083 0 1 1-4.167 0 2.083 2.083 0 0 1 4.167 0Z" fill="#4343C2"/></svg>