<svg width="50" height="50" fill="none" xmlns="http://www.w3.org/2000/svg"><path d="M25.999 16.666a1 1 0 0 0-2 0h2Zm-2 16.667a1 1 0 1 0 2 0h-2Zm8.25-14.583a1 1 0 0 0-2 0h2Zm-2 12.5a1 1 0 1 0 2 0h-2Zm8.25-8.334a1 1 0 0 0-2 0h2Zm-2 4.167a1 1 0 1 0 2 0h-2Zm-16.75-8.333a1 1 0 0 0-2 0h2Zm-2 12.5a1 1 0 1 0 2 0h-2Zm-4.25-8.334a1 1 0 0 0-2 0h2Zm-2 4.167a1 1 0 1 0 2 0h-2Zm32.198 8.115-.89-.456.89.456Zm-.517.895.84.542-.84-.542Zm0-22.187.84-.542-.84.542Zm.517.895-.89.456.89-.456ZM24.482 3.707l-.05-.999.05 1Zm1.033 0-.05.999.05-.999ZM6.301 14.801l.89.456-.89-.456Zm.516-.895-.84-.542.84.542Zm0 22.187-.84.542.84-.542Zm-.516-.895.89-.456-.89.456Zm18.181 11.094.05-.999-.05.999Zm1.033 0 .05.999-.05-1ZM24 16.666v16.667h2V16.666h-2Zm6.25 2.084v12.5h2v-12.5h-2Zm6.25 4.166v4.167h2v-4.167h-2Zm-18.75-4.166v12.5h2v-12.5h-2Zm-6.25 4.166v4.167h2v-4.167h-2ZM43.845 25c0 2.67 0 4.609-.14 6.16-.136 1.533-.403 2.617-.898 3.582l1.78.913c.653-1.274.96-2.636 1.11-4.316.15-1.662.148-3.704.148-6.34h-2Zm-8.423 18.053c2.283-1.318 4.052-2.338 5.416-3.297 1.38-.97 2.406-1.918 3.182-3.12l-1.68-1.085c-.588.91-1.393 1.684-2.652 2.569-1.275.896-2.953 1.866-5.266 3.201l1 1.732Zm7.385-8.311a9.436 9.436 0 0 1-.467.809l1.68 1.084c.205-.317.394-.644.566-.98l-1.779-.913ZM34.422 8.678c2.313 1.335 3.991 2.305 5.266 3.201 1.259.885 2.064 1.659 2.652 2.57l1.68-1.085c-.776-1.203-1.802-2.15-3.182-3.12-1.364-.96-3.133-1.98-5.416-3.298l-1 1.732ZM45.845 25c0-2.636.001-4.678-.147-6.34-.15-1.68-.458-3.042-1.111-4.316l-1.78.913c.495.965.762 2.049.899 3.582.138 1.551.14 3.49.14 6.16h2ZM42.34 14.448c.169.262.325.532.467.81l1.78-.914a11.403 11.403 0 0 0-.567-.98l-1.68 1.084Zm-26.764-5.77c2.313-1.335 3.992-2.304 5.405-2.96 1.396-.647 2.468-.958 3.55-1.012l-.098-1.998c-1.43.071-2.764.486-4.294 1.196-1.513.702-3.28 1.724-5.563 3.042l1 1.732Zm19.846-1.732c-2.283-1.318-4.05-2.34-5.563-3.042-1.53-.71-2.864-1.125-4.294-1.196l-.1 1.998c1.084.054 2.156.365 3.552 1.012 1.413.656 3.092 1.625 5.405 2.96l1-1.732Zm-10.89-2.24c.31-.016.623-.016.934 0l.099-1.998a11.416 11.416 0 0 0-1.132 0l.099 1.998ZM6.152 25c0-2.671.001-4.61.14-6.162.137-1.532.404-2.616.899-3.58l-1.78-.914C4.757 15.618 4.45 16.98 4.3 18.66c-.149 1.662-.148 3.704-.148 6.34h2Zm8.424-18.054c-2.283 1.318-4.052 2.338-5.416 3.297-1.38.97-2.406 1.918-3.183 3.12l1.68 1.085c.588-.91 1.394-1.684 2.653-2.569 1.274-.896 2.952-1.865 5.266-3.2l-1-1.733ZM7.19 15.257c.143-.277.299-.547.467-.809l-1.68-1.084c-.205.317-.394.644-.566.98l1.78.913Zm8.386 26.064c-2.314-1.335-3.992-2.305-5.266-3.201-1.26-.885-2.065-1.658-2.653-2.57l-1.68 1.085c.777 1.203 1.802 2.15 3.183 3.12 1.364.96 3.133 1.98 5.416 3.298l1-1.732ZM4.152 25c0 2.635 0 4.677.148 6.339.15 1.68.457 3.042 1.111 4.316l1.78-.913c-.495-.965-.762-2.049-.9-3.581-.138-1.552-.139-3.49-.139-6.162h-2Zm3.505 10.55a9.42 9.42 0 0 1-.466-.808l-1.78.913c.172.336.361.663.566.98l1.68-1.084Zm6.919 7.503c2.282 1.318 4.05 2.34 5.563 3.042 1.53.71 2.864 1.125 4.294 1.196l.099-1.998c-1.083-.054-2.155-.365-3.551-1.012-1.413-.656-3.092-1.624-5.405-2.96l-1 1.732Zm19.846-1.732c-2.313 1.336-3.992 2.304-5.405 2.96-1.396.647-2.468.958-3.551 1.012l.099 1.998c1.43-.071 2.763-.486 4.293-1.196 1.513-.702 3.281-1.724 5.564-3.042l-1-1.732Zm-9.99 5.97c.378.018.756.018 1.133 0l-.1-1.998a9.445 9.445 0 0 1-.933 0l-.1 1.998Z" fill="#4343C2"/></svg>