<svg width="50" height="50" fill="none" xmlns="http://www.w3.org/2000/svg"><path d="M29.167 16.43c.673 1.984 2.6 3.328 4.776 3.328m-23.322-5.144a7.56 7.56 0 0 0 7.19-5.224c2.263-6.965 12.116-6.965 14.38 0a7.56 7.56 0 0 0 7.19 5.224c7.322 0 10.367 9.371 4.443 13.675a7.56 7.56 0 0 0-2.747 8.453c2.263 6.964-5.708 12.756-11.633 8.452a7.56 7.56 0 0 0-8.887 0c-5.925 4.304-13.896-1.488-11.633-8.452a7.56 7.56 0 0 0-2.746-8.452c-5.925-4.305-2.88-13.676 4.443-13.676Z" stroke="#4343C2" stroke-width="2" stroke-linecap="round"/></svg>