<svg width="50" height="50" fill="none" xmlns="http://www.w3.org/2000/svg"><path d="M29.165 13.584a1 1 0 1 0 0 2v-2Zm12.5 2a1 1 0 0 0 0-2v2Zm-7.25 5.25a1 1 0 1 0 2 0h-2Zm2-12.5a1 1 0 0 0-2 0h2Zm-21.833 11.5c-.984 0-1.673-.001-2.212-.038-.53-.036-.842-.104-1.083-.204l-.766 1.848c.525.218 1.081.308 1.713.351.623.043 1.391.043 2.348.043v-2Zm-7.25-5.25c0 .957 0 1.724.042 2.347.043.632.134 1.188.351 1.713l1.848-.765c-.1-.241-.167-.554-.204-1.084-.036-.539-.037-1.227-.037-2.212h-2Zm3.955 5.008a3.166 3.166 0 0 1-1.714-1.713l-1.848.765a5.167 5.167 0 0 0 2.796 2.796l.766-1.848Zm8.545-5.008c0 .984 0 1.672-.037 2.211-.037.53-.104.843-.204 1.084l1.848.765c.217-.525.308-1.08.351-1.713.043-.623.042-1.39.042-2.348h-2Zm-5.25 7.25c.957 0 1.725 0 2.348-.043.632-.043 1.188-.133 1.713-.35l-.766-1.849c-.24.1-.553.168-1.083.204-.54.037-1.228.038-2.212.038v2Zm5.009-3.955a3.166 3.166 0 0 1-1.714 1.713l.766 1.848a5.167 5.167 0 0 0 2.796-2.796l-1.848-.765Zm-5.009-8.546c.984 0 1.673.001 2.212.038.53.036.843.104 1.083.204l.766-1.848c-.526-.218-1.081-.308-1.713-.352-.623-.042-1.39-.042-2.348-.042v2Zm7.25 5.25c0-.957 0-1.724-.042-2.347-.043-.632-.134-1.188-.351-1.713l-1.848.765c.1.241.168.554.204 1.084.036.539.037 1.227.037 2.212h2Zm-3.955-5.008a3.167 3.167 0 0 1 1.714 1.713l1.848-.765a5.166 5.166 0 0 0-2.796-2.796l-.766 1.848Zm-3.295-2.241c-.957 0-1.725-.001-2.348.041-.632.044-1.188.134-1.713.352l.766 1.848c.24-.1.553-.168 1.083-.204.54-.037 1.228-.037 2.212-.037v-2Zm-5.25 7.25c0-.985 0-1.673.037-2.212.037-.53.104-.843.204-1.084l-1.848-.765c-.217.525-.308 1.08-.351 1.713-.043.623-.042 1.39-.042 2.348h2Zm1.19-6.857a5.167 5.167 0 0 0-2.797 2.796l1.848.765a3.167 3.167 0 0 1 1.714-1.713l-.766-1.848Zm18.643 7.857h12.5v-2h-12.5v2Zm7.25 5.25v-12.5h-2v12.5h2ZM14.582 40.666c-.984 0-1.673 0-2.212-.038-.53-.036-.842-.103-1.083-.203l-.766 1.847c.525.218 1.081.309 1.713.352.623.042 1.391.042 2.348.042v-2Zm-7.25-5.25c0 .957 0 1.725.042 2.348.043.632.134 1.187.351 1.712l1.848-.765c-.1-.24-.167-.553-.204-1.083-.036-.54-.037-1.228-.037-2.212h-2Zm3.955 5.009a3.167 3.167 0 0 1-1.714-1.714l-1.848.765a5.167 5.167 0 0 0 2.796 2.797l.766-1.848Zm8.545-5.01c0 .985 0 1.673-.037 2.213-.037.53-.104.842-.204 1.083l1.848.765c.217-.525.308-1.08.351-1.712.043-.623.042-1.391.042-2.348h-2Zm-5.25 7.25c.957 0 1.725.001 2.348-.041.632-.043 1.188-.134 1.713-.352l-.766-1.847c-.24.1-.553.167-1.083.203-.54.037-1.228.038-2.212.038v2Zm5.009-3.954a3.167 3.167 0 0 1-1.714 1.714l.766 1.847a5.166 5.166 0 0 0 2.796-2.796l-1.848-.765Zm-5.009-8.545c.984 0 1.673 0 2.212.037.53.036.843.104 1.083.204l.766-1.848c-.526-.217-1.081-.308-1.713-.351-.623-.043-1.39-.042-2.348-.042v2Zm7.25 5.25c0-.957 0-1.725-.042-2.348-.043-.632-.134-1.188-.351-1.713l-1.848.766c.1.24.168.553.204 1.083.036.54.037 1.227.037 2.212h2Zm-3.955-5.01a3.167 3.167 0 0 1 1.714 1.715l1.848-.766a5.167 5.167 0 0 0-2.796-2.796l-.766 1.848Zm-3.295-2.24c-.957 0-1.725 0-2.348.042-.632.043-1.188.134-1.713.351l.766 1.848c.24-.1.553-.168 1.083-.204.54-.037 1.228-.037 2.212-.037v-2Zm-5.25 7.25c0-.985 0-1.673.037-2.212.037-.53.104-.843.204-1.083l-1.848-.766c-.217.525-.308 1.081-.351 1.713-.043.623-.042 1.39-.042 2.348h2Zm1.19-6.857a5.167 5.167 0 0 0-2.797 2.796l1.848.766a3.166 3.166 0 0 1 1.714-1.714l-.766-1.848Zm24.893 12.107c-.984 0-1.672 0-2.211-.038-.53-.036-.843-.103-1.084-.203l-.765 1.847c.525.218 1.08.309 1.713.352.623.042 1.39.042 2.347.042v-2Zm-7.25-5.25c0 .957 0 1.725.042 2.348.043.632.134 1.187.352 1.712l1.847-.765c-.1-.24-.167-.553-.203-1.083-.037-.54-.038-1.228-.038-2.212h-2Zm3.955 5.009a3.167 3.167 0 0 1-1.714-1.714l-1.847.765a5.166 5.166 0 0 0 2.796 2.797l.765-1.848Zm8.545-5.01c0 .985 0 1.673-.037 2.213-.036.53-.104.842-.204 1.083l1.848.765c.218-.525.308-1.08.351-1.712.043-.623.042-1.391.042-2.348h-2Zm-5.25 7.25c.957 0 1.725.001 2.348-.041.632-.043 1.188-.134 1.713-.352l-.765-1.847c-.241.1-.554.167-1.084.203-.539.037-1.227.038-2.212.038v2Zm5.01-3.954a3.167 3.167 0 0 1-1.714 1.714l.765 1.847a5.167 5.167 0 0 0 2.796-2.796l-1.848-.765Zm-5.01-8.545c.985 0 1.673 0 2.212.037.53.036.843.104 1.084.204l.765-1.848c-.525-.217-1.08-.308-1.713-.351-.623-.043-1.39-.042-2.348-.042v2Zm7.25 5.25c0-.957 0-1.725-.042-2.348-.043-.632-.133-1.188-.35-1.713l-1.849.766c.1.24.168.553.204 1.083.037.54.037 1.227.037 2.212h2Zm-3.954-5.01a3.167 3.167 0 0 1 1.713 1.715l1.848-.766a5.167 5.167 0 0 0-2.796-2.796l-.765 1.848Zm-3.296-2.24c-.957 0-1.724 0-2.347.042-.633.043-1.188.134-1.713.351l.765 1.848c.24-.1.553-.168 1.084-.204.539-.037 1.227-.037 2.211-.037v-2Zm-5.25 7.25c0-.985 0-1.673.038-2.212.036-.53.104-.843.203-1.083l-1.847-.766c-.218.525-.309 1.081-.352 1.713-.042.623-.042 1.39-.042 2.348h2Zm1.19-6.857a5.167 5.167 0 0 0-2.796 2.796l1.847.766a3.167 3.167 0 0 1 1.714-1.714l-.765-1.848Z" fill="#4343C2"/></svg>