<svg width="50" height="50" fill="none" xmlns="http://www.w3.org/2000/svg"><path d="M6.25 25c0-7.812 0-11.718 1.99-14.456a10.416 10.416 0 0 1 2.304-2.305C13.282 6.25 17.188 6.25 25 6.25c7.812 0 11.718 0 14.456 1.99.884.642 1.662 1.42 2.305 2.304C43.75 13.282 43.75 17.188 43.75 25c0 7.812 0 11.718-1.99 14.456a10.418 10.418 0 0 1-2.304 2.305C36.718 43.75 32.812 43.75 25 43.75c-7.812 0-11.718 0-14.456-1.99a10.417 10.417 0 0 1-2.305-2.304C6.25 36.718 6.25 32.812 6.25 25Z" stroke="#4343C2" stroke-width="2"/></svg>