<svg width="50" height="50" fill="none" xmlns="http://www.w3.org/2000/svg"><path d="m22.27 12.465-.954-.3.954.3Zm-4.416 7.41.6-.8-.6.8Zm1.042 3.314.954.3-.954-.3Zm4.416 3.314-.6-.8.6.8Zm3.373 0 .6-.8-.6.8Zm4.416-3.314-.954.3.954-.3Zm1.043-3.314-.6-.8.6.8Zm-4.416-7.41.954-.3-.954.3Zm3.875 32.627-.64.768.64-.768Zm-1.956-1.63.64-.768-.64.768Zm-9.297 0-.64-.768.64.768Zm-1.956 1.63.64.768-.64-.768Zm19.104-15.274-1-.018v.02l1-.003Zm0-.044-.749-.662.75.662Zm-24.998 0 .75-.66-.75.66Zm7.04-14.261c1.698 0 3.174-1.128 3.684-2.748l-1.908-.6c-.259.822-.987 1.348-1.776 1.348v2Zm-1.086 3.562c-1.538-1.154-.66-3.562 1.086-3.562v-2c-3.812 0-5.246 4.941-2.287 7.162l1.201-1.6Zm1.396 4.414c.508-1.616-.043-3.398-1.396-4.414l-1.2 1.6c.658.494.948 1.387.688 2.214l1.908.6Zm2.862 2.215c-.729.546-1.556.463-2.173 0-.622-.467-.98-1.289-.689-2.215l-1.908-.6a3.962 3.962 0 0 0 1.396 4.414c1.244.934 3.054 1.142 4.574 0l-1.2-1.6Zm4.574 0a3.796 3.796 0 0 0-4.574 0l1.2 1.6a1.796 1.796 0 0 1 2.173 0l1.2-1.6Zm2.861-2.215c.292.926-.067 1.748-.688 2.215-.617.463-1.445.546-2.173 0l-1.2 1.6c1.52 1.14 3.33.933 4.573 0a3.962 3.962 0 0 0 1.396-4.415l-1.908.6Zm1.396-4.414c-1.353 1.016-1.904 2.799-1.396 4.414l1.908-.6c-.26-.826.03-1.72.689-2.214l-1.2-1.6Zm-1.086-3.562c1.747 0 2.625 2.408 1.086 3.562l1.2 1.6c2.96-2.221 1.527-7.162-2.286-7.162v2Zm-3.683-2.748c.51 1.62 1.985 2.748 3.683 2.748v-2c-.789 0-1.517-.527-1.775-1.348l-1.908.6Zm1.908-.6c-1.153-3.665-6.214-3.665-7.366 0l1.908.6a1.843 1.843 0 0 1 3.55 0l1.908-.6ZM9.332 18.75c0-8.653 7.014-15.667 15.667-15.667v-2c-9.757 0-17.667 7.91-17.667 17.667h2ZM24.999 3.083c8.652 0 15.666 7.014 15.666 15.667h2c0-9.757-7.91-17.667-17.666-17.667v2Zm11.5 27.822v11.55h2v-11.55h-2Zm-23 11.55v-11.55h-2v11.55h2Zm18.744 1.869-1.956-1.63-1.28 1.536 1.956 1.63 1.28-1.536Zm-12.533-1.63-1.956 1.63 1.28 1.536 1.957-1.63-1.281-1.536Zm10.578 0c-1.09-.908-1.977-1.65-2.761-2.154-.808-.519-1.605-.851-2.528-.851v2c.398 0 .816.129 1.447.534.655.421 1.432 1.066 2.56 2.007l1.282-1.536ZM20.99 44.23c1.128-.94 1.905-1.586 2.56-2.007.631-.405 1.05-.534 1.448-.534v-2c-.924 0-1.72.332-2.529.852-.784.503-1.67 1.245-2.76 2.153l1.28 1.536Zm-9.492-1.775c0 1.595-.003 2.907.14 3.872.142.952.48 1.942 1.491 2.394l.816-1.825c-.027-.013-.21-.07-.328-.864-.117-.781-.12-1.912-.12-3.577h-2Zm6.255 1.869c-1.298 1.082-2.187 1.82-2.877 2.245-.704.434-.89.345-.93.326l-.817 1.826c.999.447 1.97.06 2.797-.45.842-.519 1.861-1.372 3.108-2.41l-1.28-1.537ZM36.5 42.455c0 1.665-.003 2.796-.12 3.577-.117.794-.3.851-.328.864l.816 1.825c1.012-.452 1.35-1.442 1.49-2.394.144-.965.142-2.277.142-3.872h-2Zm-5.536 3.405c1.246 1.04 2.266 1.892 3.108 2.411.827.51 1.797.897 2.796.45l-.816-1.825c-.04.018-.226.107-.931-.327-.69-.426-1.579-1.163-2.877-2.245l-1.28 1.536Zm7.536-14.955-.001-1.09-2 .005v1.085h2Zm2.166-12.155c0 3.974-1.478 7.6-3.916 10.362l1.5 1.324a17.603 17.603 0 0 0 4.416-11.686h-2ZM36.75 29.112a15.626 15.626 0 0 1-11.75 5.304v2a17.626 17.626 0 0 0 13.25-5.98l-1.5-1.324Zm1.749.722v-.043l-2-.034v.043l2 .034Zm-25 1.071c0-.401 0-.776.002-1.128l-2-.005-.001 1.133h2Zm11.5 3.511c-4.678 0-8.877-2.05-11.749-5.303l-1.5 1.324A17.627 17.627 0 0 0 25 36.417v-2ZM13.25 29.113A15.604 15.604 0 0 1 9.332 18.75h-2c0 4.48 1.67 8.573 4.418 11.687l1.5-1.324Z" fill="#4343C2"/></svg>