<svg width="140" height="140" viewBox="0 0 140 140" fill="none" xmlns="http://www.w3.org/2000/svg">
<path d="M45.1052 63.5747C38.9074 63.5747 33.819 68.6103 33.819 74.7552C33.819 80.9002 38.8898 85.9358 45.1052 85.9358C51.3205 85.9358 56.3914 80.9002 56.3914 74.7552C56.3914 68.6103 51.3029 63.5747 45.1052 63.5747ZM50.5986 74.5968C50.5986 77.678 48.2041 80.1783 45.246 80.1783C42.288 80.1783 39.8935 77.6604 39.8935 74.5968C39.8935 71.5331 42.288 69.0153 45.246 69.0153C48.2041 69.0153 50.5986 71.5331 50.5986 74.5968ZM84.5806 63.9796C84.4397 63.8388 84.2989 63.8388 84.158 63.8388H79.6506C79.3689 63.8388 79.0871 64.1205 79.0871 64.4022V84.6505C79.0871 84.7914 79.0871 84.9322 79.228 85.0731C79.3689 85.2139 79.5097 85.2139 79.6506 85.2139H84.158C84.4397 85.2139 84.7214 84.9322 84.7214 84.6505V64.4022C84.7214 64.2613 84.7215 64.1205 84.5806 63.9796ZM81.9043 61.1977C83.5946 61.1977 85.0032 59.8067 85.0032 58.1164C85.144 56.4437 83.5946 55.0352 81.9043 55.0352C80.214 55.0352 78.8054 56.4261 78.8054 58.1164C78.7878 59.93 80.1964 61.1977 81.9043 61.1977ZM75.8298 55.4577H59.3318C59.0501 55.4577 58.7684 55.7394 58.7684 56.0212V84.6681C58.7684 84.809 58.7684 84.9498 58.9093 85.0907C59.0501 85.2315 59.191 85.2316 59.3318 85.2316H63.8569C64.1386 85.2316 64.4203 84.9498 64.4203 84.6681V73.065H74.5621C74.7029 73.065 74.8438 73.065 74.9847 72.9241C75.1255 72.7832 75.1255 72.6424 75.1255 72.5015V68.311C75.1255 68.0293 74.8438 67.7476 74.5621 67.7476H64.4203V60.7751H75.8298C75.9707 60.7751 76.1115 60.7751 76.2524 60.6343C76.3932 60.4934 76.3932 60.3525 76.3932 60.2117V56.0212C76.3932 55.7394 76.1115 55.4577 75.8298 55.4577ZM23.2546 67.906C18.7472 65.9516 17.3386 65.1065 17.3386 63.4338C17.3386 61.1977 19.4515 60.4934 21.4235 60.4934C23.5363 60.4934 25.7901 61.6027 25.7901 64.6839C25.7901 64.9656 25.9309 65.1065 26.2126 65.1065H31.1427C31.2835 64.9656 31.4244 64.8248 31.4244 64.6839C31.4244 59.1024 27.3395 55.0528 21.4235 55.0528C15.5074 55.0528 11.7043 58.3981 11.7043 63.4338C11.7043 69.4379 16.2117 71.2514 20.5783 72.9417L20.86 73.0826C24.9449 74.6144 26.3535 75.3187 26.3535 77.2731C26.3535 79.9318 23.5363 80.3543 21.9869 80.3543C19.0289 80.3543 16.7752 78.2591 16.7752 75.4595V75.1778C16.7752 74.8961 16.6343 74.7552 16.3526 74.7552H11.4226C11.2817 74.7552 11 74.8961 11 75.1778V75.6004C11 81.7453 15.5074 85.9358 21.846 85.9358C27.9029 85.9358 31.9878 82.4496 31.9878 77.4139C32.1287 72.2374 29.4524 70.4063 23.2546 67.906ZM128 84.3864C128 85.2315 127.437 85.7774 126.591 85.7774C125.746 85.7774 125.183 85.2139 125.183 84.3864C125.183 83.5589 125.746 82.9954 126.591 82.9954C127.437 82.9954 128 83.5412 128 84.3864ZM125.465 84.3864C125.465 85.0907 125.887 85.4957 126.591 85.4957C127.296 85.4957 127.718 85.0731 127.718 84.3864C127.718 83.6997 127.296 83.2771 126.591 83.2771C125.887 83.2771 125.465 83.6821 125.465 84.3864ZM127.155 84.1047C127.155 84.2455 127.014 84.3864 126.873 84.5273L127.155 85.0907H126.732L126.451 84.5273H126.31V85.0907H126.028V83.6997H126.591C126.873 83.6821 127.155 83.823 127.155 84.1047ZM126.451 83.9638V84.3864H126.591C126.732 84.3864 126.873 84.2455 126.873 84.2455C126.873 84.1047 126.732 84.1047 126.591 84.1047H126.451V83.9638ZM120.658 56.3029C122.63 56.3029 124.179 57.8347 124.179 59.7891C124.179 61.7435 122.63 63.2753 120.658 63.2753C118.686 63.2753 117.136 61.7435 117.136 59.7891C117.136 57.8347 118.686 56.3029 120.658 56.3029ZM120.658 55.0528C117.981 55.0528 115.728 57.2889 115.728 59.9476C115.728 62.6063 117.981 64.8424 120.658 64.8424C123.334 64.8424 125.588 62.6063 125.588 59.9476C125.588 57.2889 123.334 55.0528 120.658 55.0528Z" fill="#171768"/>
<path d="M120.659 75.3013C123.381 75.3013 125.589 73.1099 125.589 70.4065C125.589 67.7032 123.381 65.5117 120.659 65.5117C117.936 65.5117 115.729 67.7032 115.729 70.4065C115.729 73.1099 117.936 75.3013 120.659 75.3013Z" fill="#171768"/>
<path d="M120.641 85.7779C123.364 85.7779 125.571 83.5864 125.571 80.8831C125.571 78.1798 123.364 75.9883 120.641 75.9883C117.918 75.9883 115.711 78.1798 115.711 80.8831C115.711 83.5864 117.918 85.7779 120.641 85.7779Z" fill="#171768"/>
<path d="M110.094 66.9203C111.08 66.9203 111.925 67.3428 112.63 67.9063C113.334 68.6106 113.616 69.4381 113.616 70.4241C113.616 72.3785 112.066 73.9103 110.094 73.9103C109.108 73.9103 108.263 73.4878 107.559 72.9243C106.854 72.22 106.573 71.3925 106.573 70.4065C106.432 68.4521 108.122 66.9203 110.094 66.9203ZM110.094 65.5293C107.418 65.5293 105.164 67.7654 105.164 70.4241C105.164 73.0828 107.418 75.3189 110.094 75.3189C112.77 75.3189 115.024 73.0828 115.024 70.4241C115.024 67.7654 112.77 65.5293 110.094 65.5293Z" fill="#171768"/>
<path d="M99.4769 75.2662C102.2 75.2662 104.407 73.0747 104.407 70.3714C104.407 67.668 102.2 65.4766 99.4769 65.4766C96.7541 65.4766 94.5469 67.668 94.5469 70.3714C94.5469 73.0747 96.7541 75.2662 99.4769 75.2662Z" fill="#171768"/>
<path d="M110.077 64.7896C112.799 64.7896 115.007 62.5981 115.007 59.8948C115.007 57.1915 112.799 55 110.077 55C107.354 55 105.146 57.1915 105.146 59.8948C105.146 62.5981 107.354 64.7896 110.077 64.7896Z" fill="#171768"/>
<path d="M99.4945 64.7896C102.217 64.7896 104.424 62.5981 104.424 59.8948C104.424 57.1915 102.217 55 99.4945 55C96.7717 55 94.5645 57.1915 94.5645 59.8948C94.5645 62.5981 96.7717 64.7896 99.4945 64.7896Z" fill="#171768"/>
<path d="M110.059 85.7603C112.782 85.7603 114.989 83.5688 114.989 80.8655C114.989 78.1622 112.782 75.9707 110.059 75.9707C107.336 75.9707 105.129 78.1622 105.129 80.8655C105.129 83.5688 107.336 85.7603 110.059 85.7603Z" fill="#171768"/>
<path d="M99.5121 77.3968C100.498 77.3968 101.343 77.8194 102.047 78.3828C102.752 79.0871 103.033 79.9147 103.033 80.9007C103.033 82.8551 101.484 84.3869 99.5121 84.3869C97.54 84.3869 95.9906 82.8551 95.9906 80.9007C95.8498 78.9287 97.54 77.3968 99.5121 77.3968ZM99.5121 76.0059C96.8358 76.0059 94.582 78.242 94.582 80.9007C94.582 83.5594 96.8358 85.7955 99.5121 85.7955C102.188 85.7955 104.442 83.5594 104.442 80.9007C104.46 78.242 102.188 76.0059 99.5121 76.0059Z" fill="#171768"/>
</svg>
