<svg width="140" height="140" viewBox="0 0 140 140" fill="none" xmlns="http://www.w3.org/2000/svg">
<path d="M19.6311 61.8121L11.6309 75.5072C10.2573 77.8467 12.8847 80.4896 15.2413 79.1518L20.6142 76.1014C21.4278 75.6441 22.428 75.6441 23.2587 76.1014L28.6316 79.1518C30.9867 80.4912 33.614 77.8467 32.242 75.5072L24.2418 61.8121C23.1902 60.0496 20.6485 60.0496 19.6311 61.8121Z" fill="#171768"/>
<path d="M30.9029 73.2345L32.2251 75.5056C33.5987 77.8452 30.9713 80.4881 28.6147 79.1503L23.2418 76.0999C22.4282 75.6425 21.428 75.6425 20.5973 76.0999L17.5469 77.8281L27.2753 72.2685C28.5462 71.539 30.1562 71.9808 30.9029 73.2345Z" fill="#171768"/>
<path fill-rule="evenodd" clip-rule="evenodd" d="M89.4941 73.8783C88.6121 73.0135 88.1719 71.7255 88.1719 69.9972C88.1719 68.269 88.6121 66.981 89.4941 66.1161C90.3761 65.2512 91.6128 64.8281 93.2057 64.8281C94.7985 64.8281 96.0523 65.2512 96.9343 66.1161C97.8163 66.981 98.2565 68.269 98.2565 69.9972C98.2565 71.7255 97.8163 73.0135 96.9343 73.8783C96.0523 74.7432 94.8157 75.1663 93.2057 75.1663C91.5957 75.1663 90.3745 74.7432 89.4941 73.8783ZM95.3757 72.5561C95.8672 72.0132 96.1052 71.2339 96.1052 70.2166V69.7763C96.1052 68.759 95.8672 67.9797 95.3757 67.4368C94.8841 66.8939 94.1716 66.6061 93.2228 66.6061C92.2739 66.6061 91.5614 66.8768 91.0699 67.4368C90.5783 67.9797 90.3403 68.759 90.3403 69.7763V70.2166C90.3403 71.2339 90.5783 72.0132 91.0699 72.5561C91.5614 73.099 92.2739 73.3868 93.2228 73.3868C94.1716 73.3697 94.8841 73.099 95.3757 72.5561Z" fill="#171768"/>
<path d="M57.5781 71.2861C57.5781 72.557 57.9514 73.523 58.6965 74.1841C59.4416 74.8452 60.4932 75.1672 61.8325 75.1843C63.1889 75.1843 64.2389 74.8623 64.9856 74.2012C65.7307 73.5401 66.1041 72.5741 66.1041 71.3032V65.0327H64.0025V71.185C64.0025 71.8974 63.8158 72.4558 63.4269 72.8292C63.0381 73.2025 62.5123 73.3892 61.8169 73.3892C61.1216 73.3892 60.5974 73.2025 60.2241 72.8292C59.8507 72.4558 59.6641 71.9145 59.6641 71.185V65.0156H57.5625V71.2861H57.5796H57.5781Z" fill="#171768"/>
<path d="M37.3418 66.8294V65.0156H45.5956V66.8294H42.5109V74.9992H40.4094V66.8294H37.3418Z" fill="#171768"/>
<path fill-rule="evenodd" clip-rule="evenodd" d="M47.2573 64.998H52.5447C53.6631 64.998 54.4938 65.2687 55.0538 65.8287C55.6138 66.3716 55.9016 67.1509 55.9016 68.134C55.9016 69.5232 55.326 70.4565 54.1562 70.9309L56.1893 74.9987H53.9011L52.1387 71.27H49.3418V74.9987H47.2402V64.9996H47.2573V64.998ZM52.3596 69.506C52.8169 69.506 53.156 69.3878 53.4111 69.1498C53.6491 68.9118 53.7673 68.5743 53.7673 68.1496C53.7673 67.7249 53.6491 67.3874 53.4111 67.1665C53.1731 66.9285 52.8185 66.8103 52.3596 66.8103H49.3589V69.5216H52.3596V69.5045V69.506Z" fill="#171768"/>
<path d="M68.1367 64.998H75.9674V66.7947H70.2383V68.9974H75.3234V70.794H70.2383V73.2176H76.0514V75.0143H68.1367V64.998Z" fill="#171768"/>
<path d="M80.019 64.9972H77.9688V74.9807H80.019V69.4554C80.019 69.2858 80.019 69.1163 80.0019 68.9467C79.9847 68.7772 79.9847 68.659 79.9847 68.5734L80.0532 68.5221C80.0874 68.5734 80.1543 68.7087 80.2741 68.9281C80.3923 69.1318 80.5121 69.3185 80.6303 69.4881L84.4772 74.9621H86.5274V64.9785H84.4772V70.5038C84.4772 70.6392 84.4772 70.7916 84.4943 70.9612C84.5114 71.1307 84.5114 71.2661 84.5114 71.3345L84.443 71.3858C84.4087 71.3018 84.3247 71.1478 84.1894 70.9285C84.0541 70.6905 83.9514 70.5225 83.8674 70.4199L80.0205 64.9956L80.019 64.9972Z" fill="#171768"/>
<path fill-rule="evenodd" clip-rule="evenodd" d="M105.239 64.998H99.9512V74.9816H102.053V71.2529H104.85L106.612 74.9816H108.9L106.867 70.9138C108.037 70.4565 108.613 69.5247 108.613 68.1169C108.613 67.1338 108.325 66.3545 107.765 65.8116C107.189 65.2858 106.341 64.998 105.24 64.998H105.239ZM106.086 69.1343C105.848 69.3723 105.494 69.4905 105.035 69.4905H102.034V66.7792H105.035C105.492 66.7792 105.831 66.8974 106.086 67.1354C106.324 67.3734 106.443 67.6954 106.443 68.1185C106.46 68.5587 106.341 68.8978 106.086 69.1358V69.1343Z" fill="#171768"/>
<path d="M109.951 66.8294V65.0156H118.222V66.8294H115.137V74.9992H113.036V66.8294H109.951Z" fill="#171768"/>
<path d="M122.324 64.998H120.223V74.9816H122.324V70.7785H126.646V74.9816H128.747V64.998H126.646V68.9647H122.324V64.998Z" fill="#171768"/>
</svg>
