<svg width="140" height="140" viewBox="0 0 140 140" fill="none" xmlns="http://www.w3.org/2000/svg">
<path d="M53.8241 75.6056L56.6023 67.5463L59.5034 75.6056H61.5754L65.7443 64.2345H63.0625L60.4056 71.905L57.7736 64.2361H55.4341L52.8021 71.905L50.1701 64.2361H47.4883L51.7785 75.6072H53.8256L53.8241 75.6056ZM72.0987 75.8498C75.3405 75.8498 78.0705 73.4885 78.0705 69.8843C78.0705 66.2801 75.3405 63.9918 72.0987 63.9918C68.8569 63.9918 66.1752 66.2801 66.1752 69.8843C66.1752 73.4885 68.8818 75.8498 72.0987 75.8498ZM72.0987 73.4154C70.2212 73.4154 68.6609 72.0278 68.6609 69.8843C68.6609 67.7407 70.2212 66.4512 72.0987 66.4512C73.9763 66.4512 75.5598 67.7905 75.5598 69.8843C75.5598 71.9781 73.9996 73.4154 72.0987 73.4154ZM82.5489 75.6072V71.5161C82.5489 68.4967 83.4512 66.3547 85.5963 66.3547C86.0847 66.3547 86.6447 66.4278 87.2778 66.7436L87.6916 64.4305C87.3261 64.1863 86.4721 63.9918 85.6678 63.9918C84.2538 63.9918 83.1323 64.8194 82.5474 66.8401V64.2345H80.0367V75.6056H82.5474L82.5489 75.6072ZM91.4389 75.6072V71.0992L95.6685 75.6072H98.9601L93.5607 69.9543L98.9601 64.2376H95.6685L91.4389 68.7612V58.0527H88.9532V75.6072H91.4389ZM104.839 75.8514C106.253 75.8514 107.909 75.2183 108.665 73.977V75.6087H111.151V64.2376H108.665V65.8445C107.884 64.5534 106.203 63.9934 104.839 63.9934C101.766 63.9934 99.0612 66.2816 99.0612 69.9092C99.0612 73.5367 101.766 75.8498 104.839 75.8498V75.8514ZM105.131 73.417C103.23 73.417 101.645 71.9812 101.645 69.8858C101.645 67.7905 103.23 66.4278 105.131 66.4278C106.837 66.4278 108.642 67.6458 108.642 69.8858C108.642 72.1258 106.984 73.417 105.131 73.417ZM117.263 75.6087V66.3081H119.675V64.2392H117.263V59.9303H114.752V64.2392H112.705V66.3096H114.752V75.6103H117.263V75.6087ZM126.249 75.853C129.491 75.853 132.221 73.4916 132.221 69.8874C132.221 66.2832 129.491 63.995 126.249 63.995C123.007 63.995 120.326 66.2832 120.326 69.8874C120.326 73.4916 123.032 75.853 126.249 75.853ZM126.249 73.4185C124.372 73.4185 122.811 72.031 122.811 69.8874C122.811 67.7438 124.372 66.4543 126.249 66.4543C128.127 66.4543 129.71 67.7936 129.71 69.8874C129.71 71.9812 128.15 73.4185 126.249 73.4185Z" fill="#171768"/>
<path fill-rule="evenodd" clip-rule="evenodd" d="M39.868 58.6483C41.0285 60.5274 40.47 63.0148 38.6002 64.1877C37.3542 64.9701 35.8547 64.9592 34.6445 64.337L34.6258 64.3292L34.6056 64.3199C34.4951 64.2732 34.38 64.2374 34.1778 64.2063C33.9585 64.1721 33.7096 64.197 33.4342 64.2779L33.4202 64.2825C33.2849 64.3308 33.1527 64.3961 33.0251 64.4785C32.2271 64.9841 31.9767 66.0419 32.462 66.843L34.3147 69.8436C35.4751 71.7228 34.9167 74.2101 33.0453 75.383C31.1865 76.5559 28.724 75.9912 27.562 74.1012L25.7451 71.1581C25.2396 70.343 24.1756 70.0941 23.3807 70.6043C22.8845 70.9201 22.5811 71.4645 22.5749 72.0525V72.0696C22.5749 73.4168 21.9185 74.7312 20.7036 75.4903C18.8447 76.6632 16.3822 76.0985 15.2202 74.2085L8.38357 63.1532C7.22313 61.2741 7.78157 58.7868 9.65135 57.6139C11.5118 56.441 13.9727 57.0056 15.1347 58.8956L16.9625 61.8497C17.4618 62.6554 18.5102 62.909 19.3036 62.419L19.3285 62.4034C19.834 62.0892 20.1125 61.5448 20.1342 60.991C20.1125 59.6221 20.7798 58.2874 22.004 57.5159C23.8629 56.343 26.3253 56.9077 27.4873 58.7977L29.326 61.7734C29.8316 62.5885 30.8956 62.8374 31.6905 62.3272C31.8771 62.209 32.0513 62.0036 32.2131 61.7112C32.1509 61.8294 32.1556 61.8185 32.2302 61.6754C32.3407 61.4623 32.4122 61.2928 32.4449 61.1683C32.476 61.0485 32.4978 60.9319 32.5133 60.8199C32.6596 59.2814 33.1791 58.1365 34.3893 57.3665C36.2482 56.1937 38.7107 56.7583 39.8727 58.6483H39.868Z" fill="#171768"/>
</svg>
