<svg width="140" height="140" viewBox="0 0 140 140" fill="none" xmlns="http://www.w3.org/2000/svg">
<path d="M29.2311 58.9994V61.9876C28.9962 61.5536 27.3007 58.7832 22.4894 58.7832C17.272 58.7832 13.8047 62.8199 13.8047 67.5099C13.8047 72.1999 16.7805 76.767 22.8176 76.767C26.2974 76.767 28.2185 75.0045 29.2296 73.4505V76.5228H31.9907V59.001H29.2296L29.2311 58.9994ZM22.4894 74.0323C18.5367 74.0323 16.9454 70.0796 16.9454 67.9968C16.9454 65.9139 18.0047 61.5148 22.7336 61.5148C27.4625 61.5148 28.8531 64.979 28.8531 67.387C28.8531 72.1579 26.4451 74.0323 22.4894 74.0323Z" fill="#171768"/>
<path d="M64.9855 58.7832C59.765 58.7832 56.3008 62.8199 56.3008 67.5099C56.3008 72.1999 59.2766 76.767 65.3106 76.767C71.3446 76.767 74.4043 72.3228 74.4043 68.297C74.4043 61.7185 70.2043 58.7832 64.9839 58.7832H64.9855ZM64.9855 74.0339C61.0297 74.0339 59.4399 70.0812 59.4399 67.9983C59.4399 65.9154 60.5023 61.5163 65.2297 61.5163C69.957 61.5163 71.3461 64.9805 71.3461 67.3885C71.3461 72.1594 68.9412 74.0339 64.9855 74.0339Z" fill="#171768"/>
<path d="M115.931 68.885C115.948 68.6874 115.956 68.493 115.956 68.297C115.956 67.5223 115.897 66.7974 115.785 66.1239C114.949 61.0668 111.138 58.7832 106.532 58.7832C101.315 58.7832 97.8477 62.8199 97.8477 67.5099C97.8477 72.1999 100.823 76.767 106.861 76.767C110.673 76.767 112.261 76.0079 114.2 74.9065L114.217 71.8654C111.191 73.7896 110.241 74.0323 107.251 74.0323C102.493 74.0323 101.439 71.0316 101.072 68.8834H115.933L115.931 68.885ZM101.226 66.1239C101.743 64.0052 103.222 61.5163 106.777 61.5163C110.725 61.5163 112.345 63.929 112.772 66.1239H101.225H101.226Z" fill="#171768"/>
<path d="M45.6357 58.7822C40.8259 58.7822 39.1288 61.5526 38.8939 61.9866V50.5859H36.1328V76.5202H38.8939V73.4433C39.9035 74.9988 41.8246 76.7644 45.309 76.7644C51.3446 76.7644 54.3188 72.1957 54.3188 67.5073C54.3188 62.8188 50.8515 58.7806 45.6341 58.7806L45.6357 58.7822ZM45.6357 74.0328C41.6799 74.0328 39.275 72.1584 39.275 67.3875C39.275 64.9795 40.661 61.5153 45.3915 61.5153C50.1219 61.5153 51.1813 65.9175 51.1813 67.9973C51.1813 70.077 49.5915 74.0328 45.6357 74.0328Z" fill="#171768"/>
<path d="M93.1552 70.2824C93.1552 70.2824 91.7692 66.9395 91.1159 65.2269C90.4641 63.5142 90.3008 62.2091 90.3008 62.2091C90.3008 62.2091 99.8052 45.112 108.569 39.2927C118.763 32.5244 129.039 35.2155 129.039 35.2155C129.039 35.2155 118.438 34.6447 110.282 42.8813C102.126 51.118 93.1552 70.2824 93.1552 70.2824Z" fill="#171768"/>
<path d="M81.4932 52.4843C81.4932 52.4843 78.5579 46.8765 67.9552 47.2032C57.3525 47.5299 52.8134 54.4085 56.8641 56.255C62.4096 58.7827 66.8134 53.4814 72.359 52.0954C77.9045 50.7094 81.4932 52.4843 81.4932 52.4843Z" fill="#171768"/>
<path d="M91.8514 73.4625C91.8514 73.4625 90.383 76.9687 86.7134 76.5207C83.0439 76.0727 82.3905 72.9725 81.4945 70.2814C80.5985 67.5903 76.1512 58.3269 74.4074 56.9285C72.5921 55.474 71.3477 55.2765 71.3477 55.2765C71.3477 55.2765 72.6061 54.0538 76.8465 54.1347C81.087 54.2156 83.453 54.8689 84.5123 56.5816C85.5732 58.2943 87.5301 63.7014 89.3237 68.2965C91.1172 72.8916 91.8514 73.4625 91.8514 73.4625Z" fill="#171768"/>
<path d="M38.7386 82.2705V90.4216H43.3975V91.8714H36.8828V82.2705H38.7386Z" fill="#171768"/>
<path d="M55.1403 82.2701V83.7199H50.7894V86.2414H54.9536V87.6912H50.7894V90.4197H55.2351V91.8694H48.9336V82.2686H55.1387L55.1403 82.2701Z" fill="#171768"/>
<path d="M62.8611 82.2705L68.5653 88.9718V82.2705H70.3791V91.8714H68.7846L63.0462 85.0612V91.8714H61.2324V82.2705H62.8611Z" fill="#171768"/>
<path d="M80.7746 82.2701C81.7733 82.2701 82.6631 82.4739 83.4408 82.8814C84.2202 83.289 84.8237 83.8614 85.2546 84.6003C85.6855 85.3377 85.9002 86.1668 85.9002 87.0877C85.9002 88.0086 85.684 88.8594 85.25 89.5859C84.8175 90.3123 84.2015 90.8739 83.4051 91.2721C82.6086 91.6703 81.694 91.8694 80.6626 91.8694H76.752V82.2686H80.7731L80.7746 82.2701ZM80.5817 90.4212C81.6084 90.4212 82.4313 90.1132 83.052 89.4972C83.6726 88.8812 83.9837 88.0739 83.9837 87.0752C83.9837 86.0766 83.6711 85.2226 83.0457 84.6221C82.4204 84.0217 81.5788 83.7214 80.5195 83.7214H78.6093V90.4212H80.5817Z" fill="#171768"/>
<path d="M93.7952 82.2705V91.8714H91.9395V82.2705H93.7952Z" fill="#171768"/>
<path d="M101.845 82.2705L107.55 88.9718V82.2705H109.363V91.8714H107.769L102.031 85.0612V91.8714H100.217V82.2705H101.845Z" fill="#171768"/>
<path d="M120.776 82.1461C121.958 82.1461 123.131 82.409 124.295 82.9363V84.6334C123.131 84.0423 121.985 83.7468 120.859 83.7468C120.157 83.7468 119.535 83.8868 118.989 84.1668C118.443 84.4468 118.021 84.8481 117.721 85.3723C117.421 85.8965 117.272 86.483 117.272 87.1285C117.272 88.1085 117.598 88.8988 118.252 89.4961C118.905 90.0934 119.765 90.3921 120.832 90.3921C121.125 90.3921 121.406 90.3672 121.674 90.3159C121.941 90.2645 122.262 90.1696 122.632 90.0265V88.4321H121.044V86.9823H124.486V90.9412C124.015 91.271 123.447 91.5292 122.786 91.7143C122.123 91.8994 121.436 91.9928 120.72 91.9928C119.708 91.9928 118.79 91.7843 117.968 91.3674C117.146 90.9505 116.505 90.3672 116.044 89.6143C115.584 88.863 115.354 88.0245 115.354 87.099C115.354 86.1734 115.585 85.3101 116.05 84.5494C116.516 83.7888 117.164 83.1976 117.995 82.7761C118.827 82.3545 119.753 82.1445 120.775 82.1445L120.776 82.1461Z" fill="#171768"/>
</svg>
