<svg width="140" height="140" viewBox="0 0 140 140" fill="none" xmlns="http://www.w3.org/2000/svg">
<path d="M30.2426 73.4276H28.0337C27.5219 72.3029 27.0024 71.1596 26.4828 70.0147H17.5166C16.9877 71.1285 16.4495 72.2625 15.8988 73.4245H9.85547C12.7519 67.784 15.6266 62.1934 18.5044 56.5918H25.9384C26.5901 57.8347 27.2559 59.1009 27.9217 60.3687C29.6764 63.7007 31.4341 67.0296 33.1872 70.36C33.2759 70.5296 33.3941 70.7831 33.4719 70.9589C33.3739 71.0336 31.2179 72.6809 30.2441 73.4276H30.2426ZM24.8635 66.3856C23.927 64.4894 23.017 62.6414 22.0526 60.6891C21.0866 62.6507 20.175 64.5002 19.2479 66.3856H24.8635Z" fill="#171768"/>
<path d="M78.7226 63.1206H87.9797V66.2566H78.6977V70.0257H88.9379V73.4682H72.4863V56.7148H88.3872V59.7622H78.7241V63.1191L78.7226 63.1206Z" fill="#171768"/>
<path d="M91.0568 73.0261C91.2404 71.7552 91.413 70.5496 91.5919 69.3067C92.5284 69.4934 93.4166 69.6941 94.3141 69.845C96.061 70.1374 97.8126 70.4299 99.5921 70.1405C99.9157 70.0876 100.241 70.0005 100.543 69.8761C101.068 69.6567 101.465 69.3161 101.507 68.6814C101.549 68.0374 101.204 67.6423 100.686 67.395C100.146 67.1383 99.5859 66.9019 99.0119 66.7463C97.6275 66.3652 96.2181 66.0665 94.8384 65.6745C94.1368 65.4739 93.443 65.1954 92.799 64.8501C90.5093 63.6181 89.9881 60.9425 91.6184 58.897C92.5984 57.665 93.9641 57.0754 95.4404 56.713C97.4564 56.2167 99.5128 56.0581 101.585 56.1919C103.1 56.2899 104.61 56.4454 106.122 56.5792C106.275 56.5932 106.426 56.629 106.671 56.6679C106.516 57.8299 106.362 58.9747 106.206 60.1336C104.995 59.9392 103.819 59.7245 102.635 59.5659C101.3 59.387 99.9577 59.2796 98.6293 59.611C98.3306 59.6856 98.0304 59.7899 97.7628 59.9392C96.7937 60.493 96.7766 61.613 97.783 62.089C98.4908 62.4234 99.2842 62.593 100.056 62.7687C101.247 63.0394 102.468 63.195 103.649 63.5014C104.984 63.8467 106.225 64.4239 107.025 65.6263C108.244 67.4696 108.35 70.8794 105.136 72.4505C103.573 73.2143 101.896 73.5145 100.18 73.6343C97.2884 73.835 94.4199 73.5923 91.5639 73.1552C91.413 73.1334 91.2684 73.0805 91.063 73.0245L91.0568 73.0276V73.0261Z" fill="#171768"/>
<path d="M109.991 73.0325C110.167 71.7927 110.339 70.5871 110.523 69.3022C111.22 69.4438 111.89 69.5869 112.567 69.7145C114.251 70.0349 115.942 70.3305 117.664 70.2262C118.274 70.1905 118.893 70.0458 119.481 69.8638C120.03 69.6942 120.404 69.3007 120.446 68.6722C120.491 68.0002 120.114 67.5693 119.571 67.3609C118.599 66.9876 117.591 66.6982 116.594 66.3949C115.149 65.9547 113.674 65.6016 112.26 65.0851C111.01 64.6309 109.978 63.8096 109.725 62.4142C109.429 60.798 109.897 59.0605 111.666 57.8627C113.04 56.9325 114.608 56.5669 116.211 56.3522C119.251 55.9478 122.275 56.1905 125.293 56.598C125.385 56.6089 125.472 56.654 125.61 56.7007C125.448 57.8627 125.287 59.0076 125.137 60.0793C123.454 59.86 121.844 59.5893 120.223 59.4556C119.343 59.3825 118.441 59.5147 117.554 59.6142C117.223 59.65 116.88 59.818 116.593 60.0016C115.732 60.5476 115.729 61.6582 116.666 62.0549C117.599 62.45 118.618 62.6756 119.621 62.8731C121.146 63.1765 122.679 63.3942 124.106 64.0631C127.198 65.5145 127.245 69.3116 125.828 71.0585C125.129 71.9187 124.215 72.4367 123.199 72.8162C120.965 73.6469 118.63 73.7776 116.294 73.6765C114.371 73.5956 112.458 73.3389 110.541 73.1553C110.375 73.1382 110.21 73.0807 110.002 73.0293L109.994 73.0325H109.991Z" fill="#171768"/>
<path d="M69.9931 60.4962C67.7593 59.9922 65.5333 59.6515 63.2637 59.7464C61.8202 59.8055 60.4062 60.0109 59.1073 60.7295C57.2328 61.7718 56.6106 63.5762 56.8486 65.4678C57.1333 67.7373 58.4337 69.058 60.8495 69.6709C62.6679 70.1298 64.5159 70.122 66.3624 69.9493C67.5602 69.8373 68.7471 69.6227 69.9915 69.45C70.1222 70.6867 70.2528 71.9327 70.3897 73.2378C69.2868 73.3684 68.2508 73.524 67.2086 73.6049C64.2639 73.8367 61.3286 73.8195 58.4306 73.1615C56.5608 72.7384 54.7891 72.0804 53.2942 70.8127C51.7791 69.5278 50.8908 67.896 50.7182 65.9438C50.3277 61.5447 52.9473 58.2282 56.8191 57.0771C58.2424 56.654 59.7388 56.3787 61.2182 56.2604C64.1659 56.0287 67.0904 56.3553 69.9791 56.9589C70.0926 56.9807 70.1984 57.032 70.3804 57.0895C70.2528 58.2095 70.1237 59.3435 69.9931 60.49H69.9962L69.9931 60.4962Z" fill="#171768"/>
<path d="M41.2789 68.9503C41.9727 68.1476 44.3325 65.4409 44.8302 64.8965C46.4293 66.7492 48.1109 68.6874 49.71 70.54C50.3556 71.2898 51.0073 72.0365 51.6545 72.7847C51.8271 72.9854 51.992 73.1938 52.2005 73.4505H45.1662C43.8985 71.982 42.556 70.4312 41.2773 68.9456V68.9487L41.2789 68.9503Z" fill="#171768"/>
<path d="M37.6786 64.9616C35.2581 62.1756 32.8766 59.4316 30.4297 56.6191H37.4919C38.7177 58.0316 39.9901 59.4938 41.2937 60.9949C40.0788 62.3296 38.8904 63.6331 37.6786 64.9647V64.9616Z" fill="#171768"/>
<path d="M58.3535 83.7556C58.8435 81.472 59.3226 79.232 59.8111 76.9562H61.8675C63.0902 78.3733 64.33 79.806 65.6537 81.3382C65.9151 79.8013 66.1531 78.3967 66.3973 76.9531H68.614C68.1317 79.2491 67.6495 81.5389 67.1626 83.8473H65.1995C63.9986 82.3431 62.7588 80.786 61.4164 79.106C61.0493 80.7518 60.7117 82.2513 60.3742 83.7587H58.3551V83.7556H58.3535Z" fill="#171768"/>
<path d="M88.3885 76.9387H90.5134C90.0374 79.2284 89.5692 81.484 89.0963 83.7722H87.1099C85.8981 82.3069 84.6443 80.7887 83.2879 79.1475C82.9394 80.7855 82.6221 82.2727 82.3017 83.7769H80.3105C80.7477 81.4933 81.1801 79.2284 81.6172 76.9387H83.809C85.0239 78.348 86.2714 79.7962 87.6092 81.3487C87.8845 79.7978 88.135 78.376 88.3917 76.9355L88.3885 76.9387Z" fill="#171768"/>
<path d="M74.0613 76.9355H76.5238C77.062 79.2191 77.594 81.4809 78.1369 83.7831H76.1644C76.0478 83.346 75.9249 82.8856 75.7973 82.3987H72.8029C72.5307 82.8311 72.232 83.304 71.9255 83.7909H69.6855C71.168 81.47 72.624 79.1911 74.0613 76.9387V76.9355ZM75.1922 78.922L75.0164 78.8831C74.4984 79.6235 73.9804 80.3671 73.4064 81.19H75.4349C75.3509 80.4075 75.27 79.6655 75.1922 78.9251V78.922Z" fill="#171768"/>
<path d="M116.666 83.7812H114.714C114.586 83.3301 114.457 82.8696 114.322 82.3905H111.349C111.06 82.837 110.758 83.3067 110.447 83.7859H108.221C109.703 81.4634 111.142 79.2032 112.589 76.9414H115.057C115.592 79.2172 116.124 81.479 116.664 83.7796H116.667L116.666 83.7812ZM113.986 81.199C113.888 80.3932 113.802 79.6559 113.713 78.9201C113.667 78.8999 113.622 78.8812 113.573 78.861C113.038 79.6185 112.506 80.3761 111.928 81.1958H113.986V81.199Z" fill="#171768"/>
<path d="M100.497 81.7342C100.377 82.3331 100.271 82.862 100.148 83.478C99.652 83.5651 99.1433 83.7145 98.63 83.7254C97.566 83.7456 96.4848 83.8 95.4426 83.6414C93.8824 83.4018 93.0222 82.4685 92.8044 81.084C92.5851 79.6856 93.2633 78.2374 94.556 77.5638C95.1657 77.2465 95.8455 77.024 96.5191 76.8778C98.154 76.5294 99.7997 76.6351 101.508 76.9198C101.416 77.3382 101.329 77.7256 101.232 78.1642C100.032 78.1642 98.8477 78.1176 97.6702 78.1814C96.8737 78.2265 96.0991 78.48 95.4862 79.0369C94.8484 79.6156 94.6649 80.3545 94.9013 81.1649C95.1237 81.9287 95.732 82.2351 96.4802 82.33C97.8506 82.5058 99.1371 82.1231 100.497 81.7342Z" fill="#171768"/>
<path d="M44.1598 83.8438C44.6638 81.5369 45.1646 79.2502 45.6702 76.9434H50.9513C50.9046 77.2856 50.8626 77.5842 50.8144 77.9234H47.3378C47.2242 78.4662 47.1122 79.0014 46.9862 79.6002H49.9558C49.906 80.0125 49.8609 80.3687 49.8111 80.7763H46.7715C46.5631 81.8185 46.3593 82.8202 46.1524 83.8438H44.1582H44.1598Z" fill="#171768"/>
<path d="M120.336 76.9449H122.284C121.889 78.8442 121.501 80.7 121.103 82.6165H125.482C125.409 83.0629 125.345 83.4471 125.278 83.8454H118.824C119.328 81.5494 119.829 79.2658 120.339 76.9434L120.336 76.9465V76.9449Z" fill="#171768"/>
<path d="M105.113 76.9395H107.076C106.58 79.2712 106.09 81.561 105.603 83.8539H103.605C104.109 81.5361 104.609 79.2432 105.113 76.9395Z" fill="#171768"/>
<path d="M56.2369 76.9453C55.7469 79.2631 55.2615 81.556 54.7746 83.8566H52.7695C53.2766 81.5451 53.7744 79.26 54.2815 76.9453H56.2369Z" fill="#171768"/>
<path d="M51.8123 56.9355C51.8123 56.9355 37.7081 73.0247 37.355 73.426H30.5354C30.4405 73.426 30.3379 73.4338 30.2461 73.426C31.2214 72.6793 51.8123 56.9355 51.8123 56.9355Z" fill="#171768"/>
</svg>
