<svg width="140" height="140" viewBox="0 0 140 140" fill="none" xmlns="http://www.w3.org/2000/svg">
<path d="M106.659 60.521V63.4112C106.659 63.9059 106.123 64.0723 105.793 63.7006L104.1 61.8432C103.399 61.0172 102.615 60.8943 101.664 60.8943H98.7742C98.6918 60.8943 98.6093 60.8943 98.4849 60.9363C98.3604 60.9783 98.32 61.0188 98.2376 61.1012C98.1551 61.1837 98.1131 61.2257 98.0727 61.3486C98.0322 61.4715 98.0307 61.5135 98.0307 61.6379V66.7152H100.219C100.467 66.7152 100.674 66.6732 100.88 66.5908C101.087 66.4663 101.252 66.3015 101.375 66.1366L102.613 64.4846C102.943 63.9899 103.562 64.1548 103.562 64.7739V70.3475C103.562 70.9261 102.943 71.1315 102.613 70.6368L101.375 68.9848C101.251 68.7779 101.086 68.613 100.88 68.4901C100.674 68.3657 100.426 68.3252 100.219 68.3252H98.0307V74.2286C98.0307 74.8477 98.3604 75.137 98.9391 75.137H101.333C102.406 75.137 103.273 75.137 104.058 74.1461L105.626 72.1239C105.956 71.6697 106.493 71.8346 106.493 72.3712V75.3843C106.493 76.2928 105.956 76.6646 105.172 76.6646H93.4884C93.4464 76.6646 93.364 76.6646 93.3236 76.6226C93.2816 76.6226 93.1991 76.5806 93.1587 76.5401C93.1167 76.4981 93.0762 76.4577 93.0342 76.4157C92.9922 76.3737 92.9922 76.2912 92.9922 76.2508C92.9922 75.4668 94.2305 75.4248 94.2305 74.4759V61.5539C94.2305 60.5226 92.9922 60.4806 92.9922 59.779C92.9922 59.737 92.9922 59.6546 93.0342 59.6141C93.0762 59.5737 93.1167 59.5317 93.1587 59.4897C93.2007 59.4477 93.2411 59.4072 93.3236 59.4072C93.3656 59.4072 93.448 59.3652 93.4884 59.3652H105.295C106.368 59.3652 106.658 59.695 106.658 60.521H106.659ZM131.8 77.6943C131.8 80.1303 129.324 81.7808 125.03 81.7808C121.81 81.7808 119.953 80.625 119.953 79.015C119.953 77.9837 120.82 77.0332 122.43 76.4966C120.984 76.2897 120.323 75.4232 120.323 74.5568C120.323 73.5659 121.149 72.617 122.512 72.2032C121.191 71.4597 120.283 70.2635 120.283 68.8183C120.283 66.3823 122.636 64.7319 125.692 64.7319H129.696C130.644 64.7319 131.058 64.4426 131.512 64.4426C131.554 64.4426 131.637 64.4426 131.677 64.4846C131.719 64.4846 131.76 64.5266 131.802 64.567C131.844 64.6075 131.884 64.6495 131.884 64.6915C131.884 64.7335 131.926 64.8159 131.926 64.8563C131.926 65.351 131.265 65.8052 130.481 66.3015C130.439 66.3015 130.399 66.3435 130.357 66.3839C130.315 66.4259 130.315 66.4663 130.315 66.5083V66.6328C130.315 66.6748 130.357 66.7152 130.397 66.7572C130.809 67.3359 131.058 68.0375 131.058 68.7795C131.058 71.133 128.705 72.9079 125.692 72.9079C125.237 72.9079 124.743 72.8659 124.288 72.7835C123.34 72.6186 123.133 73.7743 124.206 73.8568L127.838 74.1461C130.481 74.3935 131.76 75.8806 131.802 77.6959L131.8 77.6943ZM124.699 71.3772C125.566 71.707 127.053 71.5017 127.589 69.5603C127.879 68.5695 127.796 66.6297 126.598 66.1755C125.443 65.7632 124.08 67.1663 123.668 68.1152C122.801 70.055 123.792 71.0459 124.699 71.3772ZM128.745 78.3539C128.745 77.6103 128.373 76.9912 126.763 76.8263L123.791 76.579C123.007 77.0332 122.8 77.7348 122.8 78.4783C122.8 79.7166 123.749 80.4601 125.73 80.4601C127.712 80.4601 128.786 79.5112 128.744 78.3539H128.745ZM55.3027 71.8719C55.3027 74.885 52.6598 76.6615 47.3756 76.6615H41.2249C41.1829 76.6615 41.1005 76.6195 41.06 76.579C41.0196 76.5386 40.9776 76.4966 40.9356 76.4546C40.8936 76.4126 40.8936 76.3301 40.8936 76.2897C40.8936 75.5881 42.1318 75.4637 42.1318 74.5148L42.0898 61.6752C42.0898 60.6843 40.8516 60.6439 40.8516 59.9003C40.8516 59.8583 40.8936 59.7759 40.8936 59.7355C40.9356 59.6935 40.976 59.653 41.018 59.611C41.06 59.569 41.1005 59.5286 41.1829 59.5286C41.2249 59.5286 41.3073 59.4866 41.3478 59.5286H47.0038C52.0407 59.4866 54.4767 61.1806 54.4767 63.7395C54.4767 65.3915 53.5682 66.7526 50.9673 67.4961C54.0629 67.8679 55.2607 69.6428 55.3027 71.8719ZM45.8496 66.7526H47.0473C49.3589 66.7526 50.6391 65.8037 50.6391 63.9448C50.5971 62.005 49.7307 60.9317 47.1718 60.9317H46.5527C46.0985 60.9317 45.8511 61.179 45.8511 61.6332V66.7526H45.8496ZM51.2582 71.9543C51.2582 69.6832 50.0605 68.3221 47.2947 68.3221H45.8496V74.2255C45.8496 74.8041 46.1793 75.0919 46.758 75.0919H47.8313C50.3498 75.1339 51.2582 73.8117 51.2582 71.9543ZM67.2353 74.2659C66.5338 75.8339 64.8413 76.9492 62.4458 76.9492C58.7716 76.9492 56.2951 74.3063 56.2951 70.7161C56.2951 67.1259 58.7716 64.5235 62.3229 64.5235C65.8742 64.5235 67.3178 66.9175 67.3178 69.1061C67.3178 70.055 67.0285 70.3039 66.2025 70.3039H59.5976C59.68 72.9468 61.4145 74.3499 63.726 74.3499C65.8322 74.3499 66.4513 73.1521 67.0705 73.1521C67.4002 73.1521 67.6071 73.5239 67.2353 74.2675V74.2659ZM59.5571 68.8992H63.3962C64.0153 68.8992 64.2222 68.6923 64.2222 68.2381C64.2222 66.9175 63.5611 65.8441 62.158 65.8441C60.7129 65.8441 59.5991 66.9175 59.5571 68.8992ZM73.6753 69.1061C71.6531 68.2397 71.1164 67.703 71.1164 67.0419C71.1164 66.2983 71.6951 65.8441 72.5196 65.8441C74.5418 65.8441 74.7082 68.5695 76.4007 68.5695C77.1442 68.5695 77.5985 68.0328 77.5985 67.2068C77.5985 65.267 75.122 64.4815 72.9753 64.5235C70.292 64.5235 68.4751 65.7212 68.4751 67.9908C68.4751 69.7657 69.5904 70.839 72.4387 72.1597C74.338 73.0681 74.9571 73.5628 74.9571 74.3888C74.9571 75.1323 74.4204 75.5866 73.4296 75.5866C71.1584 75.5866 71.3653 72.9032 69.7553 72.9032C68.9713 72.9032 68.3927 73.4819 68.3927 74.3063C68.3927 76.1232 71.1585 76.9072 73.0982 76.9072C75.8236 76.9072 77.7213 75.5866 77.7213 73.3575C77.7633 71.7055 76.648 70.4268 73.6753 69.1046V69.1061ZM86.8447 64.7708H83.7071V62.1699C83.7071 61.8401 83.5422 61.7157 83.3353 61.6752H83.1285C83.046 61.6752 83.004 61.7172 82.9216 61.7577C82.8796 61.7997 82.7971 61.8401 82.7567 61.9226C82.7147 61.9646 82.6742 62.047 82.6742 62.1295C82.0131 65.0197 78.8351 65.0197 78.8351 65.0197C78.3809 65.0197 78.174 65.2266 78.174 65.6388C78.174 66.051 78.4213 66.2175 78.8756 66.2175H79.5367C79.7016 66.2175 79.9084 66.2999 80.0313 66.4243C80.1542 66.5488 80.2382 66.7137 80.2382 66.919V73.6483C80.2382 76.0423 81.6009 76.9508 83.5827 76.9508C85.6889 76.9508 87.4638 75.9599 87.4638 75.011C87.4638 74.969 87.4638 74.8866 87.4218 74.8461C87.4218 74.8041 87.3798 74.7637 87.3393 74.7217C87.2973 74.6797 87.2569 74.6392 87.2149 74.6392C87.1729 74.6392 87.1324 74.5972 87.05 74.5972C86.6378 74.5972 86.224 74.969 85.2331 74.969C84.2422 74.969 83.7056 74.5148 83.7056 73.4835V66.3419H86.8011C87.2553 66.3419 87.4622 66.135 87.4622 65.7228V65.393C87.5042 64.9808 87.2553 64.7739 86.8431 64.7739L86.8447 64.7708ZM119.129 77.7332C119.129 80.1692 116.652 81.8197 112.359 81.8197C109.139 81.8197 107.282 80.6639 107.282 79.0539C107.282 78.0226 108.148 77.0721 109.758 76.5355C108.313 76.3286 107.652 75.4621 107.652 74.5957C107.652 73.6048 108.478 72.6559 109.84 72.2421C108.52 71.4986 107.611 70.3023 107.611 68.8572C107.611 66.4212 109.965 64.7708 113.02 64.7708H117.024C117.973 64.7708 118.387 64.4815 118.841 64.4815C118.883 64.4815 118.965 64.4815 119.006 64.5235C119.048 64.5235 119.088 64.5655 119.13 64.6059C119.172 64.6479 119.213 64.6883 119.213 64.7303C119.213 64.7723 119.255 64.8548 119.255 64.8952C119.255 65.3899 118.594 65.8441 117.81 66.3403C117.768 66.3403 117.727 66.3823 117.685 66.4228C117.643 66.4648 117.643 66.5052 117.643 66.5472V66.6717C117.643 66.7137 117.685 66.7541 117.726 66.7961C118.138 67.3748 118.387 68.0763 118.387 68.8183C118.387 71.1719 116.033 72.9468 113.02 72.9468C112.566 72.9468 112.071 72.9048 111.617 72.8223C110.668 72.6575 110.461 73.8132 111.534 73.8957L115.167 74.185C117.768 74.3919 119.088 75.8775 119.13 77.7348L119.129 77.7332ZM112.028 71.4161C112.894 71.7459 114.381 71.5406 114.918 69.5992C115.207 68.6083 115.125 66.6686 113.927 66.2143C112.771 65.8021 111.408 67.2052 110.996 68.1541C110.088 70.0535 111.079 71.0443 112.028 71.4161ZM116.074 78.3523C116.074 77.6088 115.702 76.9897 114.092 76.8248L111.119 76.5775C110.335 77.0317 110.128 77.7332 110.128 78.4768C110.128 79.715 111.077 80.4586 113.059 80.4586C115.041 80.4586 116.072 79.5097 116.072 78.3523H116.074Z" fill="#171768"/>
<path d="M29.089 65.5571C23.5979 65.4327 21.1619 63.4509 21.1619 62.9142C21.1619 62.3776 23.6383 60.3958 29.089 60.2714C29.1714 60.2714 29.2134 60.2714 29.2959 60.2294C29.3783 60.1874 29.4203 60.1469 29.4608 60.1049C29.5028 60.0629 29.5028 60.0225 29.5432 59.94C29.5836 59.8576 29.5852 59.8156 29.5852 59.7331V56.8429C29.5852 56.7605 29.5852 56.7185 29.5432 56.636C29.5012 56.5536 29.4608 56.5116 29.4188 56.4711C29.3768 56.4307 29.2943 56.3887 29.2539 56.3467C29.1714 56.3047 29.089 56.3047 29.047 56.3047C27.0248 56.3871 20.1305 57.0062 18.9328 61.0942C18.9328 61.0942 18.9328 61.1362 18.8908 61.1362H18.8083L18.7663 61.0942C17.5281 57.0078 10.5919 56.3887 8.61009 56.3047C8.56809 56.3047 8.48565 56.3047 8.4032 56.3467C8.3612 56.3467 8.27876 56.3887 8.23831 56.4711C8.19631 56.5131 8.15587 56.5536 8.11387 56.636C8.07187 56.678 8.07187 56.7605 8.07187 56.8429V59.7736C8.07187 59.898 8.11387 60.0209 8.23676 60.1034C8.3192 60.1858 8.44365 60.2682 8.60853 60.2682C14.0996 60.3927 16.5356 62.3745 16.5356 62.8691C16.5356 63.4058 14.0592 65.512 8.60853 65.512C8.07187 65.554 8.07187 66.0487 8.07187 66.0487V69.0214C8.07187 69.516 8.56653 69.516 8.56653 69.516C14.0576 69.6405 16.4936 71.6222 16.4936 72.1589C16.4936 72.6956 14.0172 74.6774 8.56653 74.8018C8.48409 74.8018 8.44209 74.8018 8.35965 74.8438C8.31765 74.8858 8.2772 74.8858 8.19476 74.9682C8.15276 75.0102 8.11231 75.0927 8.07031 75.1331V78.2287C8.07031 78.3531 8.15276 78.518 8.2352 78.6005C8.31765 78.6829 8.48253 78.7654 8.60698 78.7654C10.6292 78.6829 17.5234 78.0638 18.7212 73.9758C18.7212 73.9758 18.7212 73.9338 18.7632 73.9338H18.8456L18.8876 73.9758C20.0854 78.1042 27.0201 78.6814 29.0019 78.7654C29.0843 78.7654 29.1263 78.7654 29.2088 78.7234C29.2912 78.6814 29.3332 78.6409 29.3736 78.5989C29.4156 78.5569 29.4561 78.4745 29.4981 78.434C29.5401 78.3516 29.5401 78.3096 29.5401 78.2271V75.2965C29.5401 75.172 29.4981 75.0491 29.3752 74.9247C29.2928 74.8422 29.1683 74.7598 29.0034 74.7598C23.5123 74.6354 21.0763 72.6536 21.0763 72.1589C21.0763 71.6642 23.5528 69.6405 29.0034 69.516C29.0859 69.516 29.1279 69.516 29.2103 69.474C29.2928 69.432 29.3348 69.432 29.3752 69.3496C29.4172 69.3076 29.4576 69.2251 29.4996 69.1847C29.5416 69.1022 29.5416 69.0602 29.5416 68.9778V66.0051C29.5836 65.5509 29.0874 65.5509 29.0874 65.5509L29.089 65.5571ZM20.7092 68.2405C20.2145 70.0154 18.8519 70.2222 18.0259 69.9329C17.1999 69.6436 16.2914 68.6947 17.077 66.9198C17.4488 66.0534 18.729 64.7311 19.8023 65.1029C20.9581 65.5151 21.0001 67.2916 20.7108 68.2405H20.7092Z" fill="#171768"/>
</svg>
