<svg width="140" height="140" viewBox="0 0 140 140" fill="none" xmlns="http://www.w3.org/2000/svg">
<path d="M69.9678 74.0242L69.9553 68.9779L67.4805 73.1344H66.6031L64.1407 69.0853V74.0226H62.3145V65.6133H63.9245L67.0713 70.8384L70.17 65.6133H71.7676L71.7909 74.0226H69.9647L69.9678 74.0242Z" fill="#171768"/>
<path d="M76.3229 65.6152V74.0246H74.3769V67.177H72.6953V65.6152H76.3229Z" fill="#171768"/>
<path d="M83.3015 67.177V69.3999H87.1935V70.9617H83.3015V74.0246H81.3555V65.6152H87.7099V67.177H83.3015Z" fill="#171768"/>
<path d="M88.3711 65.6156C88.3711 65.0276 88.8393 64.5703 89.5362 64.5703C90.2331 64.5703 90.7013 65.0028 90.7013 65.5799C90.7013 66.2052 90.2331 66.661 89.5362 66.661C88.8393 66.661 88.3711 66.2036 88.3711 65.6156ZM88.5998 67.5616H90.4742V74.025H88.5998V67.5616Z" fill="#171768"/>
<path d="M98.6432 70.3244V74.025H96.7687V70.6137C96.7687 69.5684 96.288 69.0877 95.4589 69.0877C94.5583 69.0877 93.9096 69.6399 93.9096 70.8299V74.025H92.0352V67.5617H93.8256V68.3192C94.3296 67.767 95.0871 67.4668 95.9645 67.4668C97.4905 67.4668 98.6432 68.355 98.6432 70.3259V70.3244Z" fill="#171768"/>
<path d="M105.875 70.3364V74.0246H104.121V73.2204C103.773 73.8084 103.101 74.1211 102.151 74.1211C100.637 74.1211 99.7363 73.2795 99.7363 72.1626C99.7363 71.0457 100.541 70.2291 102.511 70.2291H104.002C104.002 69.4248 103.521 68.9551 102.511 68.9551C101.827 68.9551 101.118 69.1837 100.649 69.5555L99.9774 68.2457C100.687 67.7417 101.732 67.4648 102.765 67.4648C104.736 67.4648 105.876 68.378 105.876 70.3364H105.875ZM104 71.9822V71.3211H102.715C101.838 71.3211 101.563 71.6446 101.563 72.0786C101.563 72.5468 101.959 72.8595 102.62 72.8595C103.246 72.8595 103.785 72.5717 104.002 71.9822H104Z" fill="#171768"/>
<path d="M113.997 70.3244V74.025H112.122V70.6137C112.122 69.5684 111.642 69.0877 110.812 69.0877C109.912 69.0877 109.263 69.6399 109.263 70.8299V74.025H107.389V67.5617H109.179V68.3192C109.683 67.767 110.441 67.4668 111.318 67.4668C112.844 67.4668 113.997 68.355 113.997 70.3259V70.3244Z" fill="#171768"/>
<path d="M115.102 70.7922C115.102 68.8462 116.603 67.4648 118.706 67.4648C120.064 67.4648 121.132 68.0528 121.601 69.1106L120.148 69.8915C119.799 69.2786 119.283 69.0033 118.695 69.0033C117.746 69.0033 117.001 69.6644 117.001 70.7937C117.001 71.9231 117.746 72.5842 118.695 72.5842C119.283 72.5842 119.799 72.3197 120.148 71.6944L121.601 72.4877C121.132 73.5206 120.062 74.1211 118.706 74.1211C116.604 74.1211 115.102 72.7397 115.102 70.7937V70.7922Z" fill="#171768"/>
<path d="M128.712 71.3211H123.823C124.003 72.1253 124.688 72.6184 125.672 72.6184C126.357 72.6184 126.85 72.4146 127.295 71.9931L128.292 73.0742C127.691 73.7586 126.791 74.1195 125.626 74.1195C123.392 74.1195 121.938 72.7133 121.938 70.7922C121.938 68.8711 123.415 67.4648 125.386 67.4648C127.357 67.4648 128.749 68.7388 128.749 70.8171C128.749 70.9617 128.726 71.1655 128.713 71.3211H128.712ZM123.798 70.2275H126.982C126.85 69.4108 126.237 68.882 125.397 68.882C124.557 68.882 123.932 69.3984 123.799 70.2275H123.798Z" fill="#171768"/>
<path d="M53.7985 56.1289H53.1016V83.8707H53.7985V56.1289Z" fill="#171768"/>
<path d="M18.2641 56.193H10.3137C10.1472 56.1961 10.015 56.3252 10.0197 56.4807V59.3134C10.0197 59.3896 10.0508 59.4627 10.1052 59.5172L26.8025 75.8847C26.9099 75.9921 27.0903 75.9983 27.2054 75.8972C27.2101 75.8925 27.2148 75.8894 27.2179 75.8847L32.8568 70.3812L32.8054 70.3703L32.835 70.3252L18.4694 56.2754C18.415 56.2225 18.3403 56.1914 18.2625 56.1914" fill="#171768"/>
<path d="M35.5081 56.2404L28.1783 63.4473C28.113 63.5126 28.113 63.6138 28.1783 63.6791L33.7316 69.1686C33.7923 69.2293 33.895 69.234 33.9603 69.1764C33.9634 69.1733 33.9681 69.1702 33.9712 69.1671L35.4116 67.7064C35.435 67.6831 35.477 67.6986 35.477 67.7329V83.6742C35.477 83.7644 35.5516 83.8391 35.6434 83.8391H43.7292C43.821 83.8391 43.8956 83.766 43.8956 83.6742V56.3586C43.8972 56.27 43.8225 56.1969 43.7292 56.1953H35.6247C35.5796 56.1953 35.5376 56.2124 35.5065 56.2435M10.2956 83.8375H17.9645C18.1216 83.8344 18.2461 83.7131 18.2414 83.5653V69.7302C18.2414 69.6586 18.2134 69.5902 18.1605 69.5389L10.4901 61.9866C10.3158 61.8155 10.0156 61.9353 10.0156 62.178V83.5653C10.0156 83.7162 10.1401 83.8375 10.2925 83.8375" fill="#171768"/>
</svg>
