<svg width="140" height="140" viewBox="0 0 140 140" fill="none" xmlns="http://www.w3.org/2000/svg">
<path d="M45.8265 58.209H18.1221C17.7021 58.209 17.3443 58.5512 17.3443 58.9712V80.9201C17.2976 81.3556 17.6243 81.7445 18.0598 81.7756C18.091 81.7756 18.1065 81.7756 18.1376 81.7756H26.5065C26.9265 81.7756 27.2687 81.4334 27.2687 81.0134V63.7156C27.2687 63.5601 27.3932 63.4201 27.5487 63.4201H29.291C29.4465 63.4201 29.571 63.5601 29.571 63.7156V81.029C29.571 81.449 29.9287 81.8068 30.3487 81.7912H36.291C36.711 81.7756 37.0376 81.449 37.0532 81.029V63.7156C37.0532 63.5601 37.1776 63.4201 37.3332 63.4201H39.0754C39.231 63.4201 39.371 63.5601 39.371 63.7156V81.029C39.371 81.449 39.7132 81.7912 40.1332 81.7912H48.5487C48.9687 81.7912 49.311 81.449 49.311 81.029V62.0668C49.4043 59.7645 48.0043 58.209 45.8265 58.209Z" fill="#171768" stroke="#171768" stroke-miterlimit="10"/>
<path d="M121.816 58.2095H113.416C112.996 58.225 112.67 58.5673 112.67 58.9717V76.285C112.67 76.4406 112.545 76.565 112.39 76.565H110.663C110.507 76.565 110.383 76.4406 110.367 76.285V58.9717C110.367 58.5517 110.025 58.2095 109.605 58.2095H101.174C100.739 58.1939 100.381 58.5362 100.381 58.9717C100.381 59.0028 100.381 59.0339 100.381 59.0806V66.7495C100.365 66.8273 100.365 66.905 100.381 66.9828L102.73 79.225C103.01 80.7184 103.647 81.8073 105.11 81.8073H117.912C119.374 81.8073 120.012 80.7339 120.292 79.225L122.641 66.9828C122.656 66.905 122.656 66.8273 122.641 66.7495V59.0806C122.656 58.5984 122.283 58.225 121.816 58.2095Z" fill="#171768" stroke="#171768" stroke-miterlimit="10"/>
<path d="M70.2799 58.209H55.1754C52.9821 58.209 51.5977 59.749 51.5977 62.0668V77.9179C51.5977 80.2512 52.9821 81.7912 55.1754 81.7912H70.2799C72.4732 81.7912 73.8577 80.2512 73.8577 77.9179V62.0668C73.8577 59.7645 72.4421 58.209 70.2799 58.209ZM63.9021 76.3157C63.9021 76.4712 63.7777 76.6112 63.6221 76.6112H61.8954C61.7399 76.6112 61.5999 76.4712 61.5999 76.3157V63.7157C61.5999 63.5601 61.7399 63.4201 61.8954 63.4201H63.6221C63.7777 63.4201 63.9021 63.5601 63.9021 63.7157V76.3157Z" fill="#171768" stroke="#171768" stroke-miterlimit="10"/>
<path d="M94.733 58.209H79.6286C77.4352 58.209 76.0508 59.749 76.0508 62.0668V77.9179C76.0508 80.2512 77.4352 81.7912 79.6286 81.7912H94.733C96.9263 81.7912 98.3108 80.2512 98.3108 77.9179V62.0668C98.3108 59.7645 96.9263 58.209 94.733 58.209ZM88.3397 76.3157C88.3397 76.4712 88.2152 76.6112 88.0597 76.6112H86.333C86.1774 76.6112 86.053 76.4712 86.053 76.3157V63.7157C86.053 63.5601 86.1774 63.4201 86.333 63.4201H88.0597C88.2152 63.4201 88.3397 63.5601 88.3397 63.7157V76.3157Z" fill="#171768" stroke="#171768" stroke-miterlimit="10"/>
</svg>
