<svg width="140" height="140" viewBox="0 0 140 140" fill="none" xmlns="http://www.w3.org/2000/svg">
<path fill-rule="evenodd" clip-rule="evenodd" d="M17.2267 55.6484H31.8458C25.7122 58.296 20.6442 62.86 20.6442 69.3156C20.6442 74.3276 24.7027 78.3953 28.5947 80.7193H17.2267C17.2267 80.7193 9.81445 77.5149 9.81445 68.7011C9.81445 59.8873 17.2267 55.65 17.2267 55.65V55.6484ZM36.3787 80.7193H32.5396C29.4176 78.7438 27.3113 75.8131 27.3113 72.7284C27.3113 68.782 29.9667 65.1451 36.3787 63.9333V80.7193ZM59.5036 64.1184C59.1551 63.2956 58.718 62.6609 58.1907 62.2129C57.4642 61.5938 56.4842 61.2827 55.2538 61.2827C54.0233 61.2827 52.8924 61.5782 51.9249 62.1709C50.9527 62.7713 50.1796 63.6393 49.702 64.6707C49.1762 65.7922 48.9118 67.018 48.9289 68.2547C48.9289 69.566 49.1731 70.7327 49.66 71.7516C50.108 72.7269 50.8329 73.5529 51.7445 74.13C52.6467 74.6947 53.7138 74.9778 54.9489 74.9762C56.1996 74.9762 57.2356 74.6387 58.0553 73.9651C58.6324 73.4907 59.1162 72.8451 59.5067 72.0284V73.668C59.5067 75.1613 59.1427 76.3358 58.4147 77.1929C57.6867 78.0484 56.5589 78.4778 55.0313 78.4778C54.1244 78.4871 53.2253 78.3253 52.3807 78.0002C51.5811 77.6875 50.8562 77.2162 50.2511 76.6142V79.4562C50.8811 79.9976 51.6216 80.3989 52.4227 80.6338C53.3233 80.8998 54.2582 81.0304 55.1978 81.0211C56.6709 81.0211 57.9558 80.7442 59.0509 80.1889C60.1227 79.6522 61.0109 78.8122 61.6005 77.7778C62.2087 76.7293 62.5136 75.4678 62.5136 73.9931V61.6996H59.5036V64.1215V64.1184ZM57.6945 71.8573C57.0847 72.2307 56.38 72.4204 55.6645 72.4033C54.5413 72.4033 53.6485 72.0253 52.9858 71.2693C52.3231 70.5133 51.9918 69.5084 51.9918 68.2531C51.9918 67.3789 52.1489 66.6136 52.4616 65.9571C52.7493 65.3302 53.2082 64.7951 53.7869 64.4124C54.378 64.0329 55.0702 63.8384 55.7749 63.8524C56.4562 63.8416 57.1267 64.022 57.71 64.372C58.2902 64.7282 58.7507 65.2462 59.0338 65.8591C59.3589 66.5576 59.5191 67.3182 59.5036 68.0867C59.5036 68.9422 59.3465 69.6936 59.0338 70.3407C58.7429 70.9629 58.2778 71.4902 57.6945 71.8589V71.8558V71.8573ZM74.6656 62.244C75.2489 62.7044 75.7373 63.3484 76.1293 64.176V61.698H79.1393V75.3838H76.1293V72.7518C75.9364 73.1718 75.6953 73.57 75.4107 73.9355C74.9611 74.508 74.384 74.9715 73.726 75.292C73.012 75.6358 72.228 75.8084 71.4347 75.7975C70.2385 75.7975 69.1791 75.4911 68.2582 74.8829C67.3373 74.2716 66.6202 73.4253 66.1053 72.3411C65.5904 71.2569 65.3322 70.0233 65.3322 68.6389C65.3353 67.2358 65.606 65.9758 66.1473 64.8542C66.6871 63.7342 67.4478 62.86 68.4262 62.23C69.3938 61.6047 70.5278 61.2764 71.6851 61.2873C72.8627 61.2873 73.8567 61.6062 74.6671 62.244H74.6656ZM72.2062 73.1469C73.0182 73.1469 73.7182 72.9462 74.3062 72.5449C74.9098 72.128 75.3873 71.5571 75.6876 70.8913C76.0189 70.1882 76.1853 69.3824 76.1853 68.4693C76.1853 67.5562 76.0282 66.7893 75.7156 66.1064C75.4278 65.4531 74.9596 64.8931 74.3622 64.4933C73.7571 64.0967 73.0447 63.8929 72.3198 63.9069C71.5902 63.8944 70.8747 64.0998 70.2633 64.4933C69.6551 64.8962 69.1776 65.4656 68.8929 66.1329C68.5802 66.8313 68.4247 67.6464 68.4247 68.5782C68.4247 69.51 68.5802 70.3173 68.8929 71.0002C69.1729 71.6427 69.6318 72.1933 70.2182 72.5853C70.8093 72.9649 71.5016 73.1593 72.2062 73.1453V73.1469ZM85.9324 55.7122H82.9225V75.3853H85.9324V55.7122ZM89.9473 56.3407C90.3113 56.0109 90.792 55.8335 91.2867 55.8491C91.8404 55.8491 92.2916 56.0124 92.64 56.3407C92.8127 56.5024 92.9496 56.6969 93.0398 56.9147C93.13 57.1324 93.1736 57.3658 93.1658 57.6007C93.1704 57.8402 93.1253 58.0782 93.0336 58.2991C92.9402 58.52 92.8033 58.7191 92.6276 58.8855C92.2651 59.2184 91.7891 59.4036 91.2944 59.4036C90.7998 59.4036 90.3238 59.2184 89.9613 58.8855C89.7824 58.7222 89.6409 58.5231 89.546 58.3022C89.4511 58.0813 89.4045 57.8418 89.4091 57.6022C89.4013 57.3658 89.4464 57.1309 89.5382 56.9147C89.6316 56.6969 89.77 56.5024 89.9473 56.3438V56.3407ZM92.808 61.6949H89.798V75.3838H92.808V61.6949ZM96.6751 55.7122H99.6851V75.3853H96.6751V55.7122ZM112.724 61.9967C111.803 61.5222 110.725 61.2858 109.494 61.2858C108.059 61.2858 106.82 61.5907 105.78 62.2004C104.752 62.7978 103.926 63.6813 103.404 64.7422C102.862 65.8264 102.589 67.06 102.589 68.4444C102.589 69.9378 102.902 71.2351 103.527 72.338C104.14 73.4269 105.063 74.3151 106.18 74.8922C107.321 75.4942 108.647 75.7944 110.156 75.7944C111.1 75.8007 112.041 75.6684 112.946 75.3978C113.811 75.1333 114.519 74.7911 115.073 74.3727V71.75C114.469 72.2151 113.786 72.5713 113.057 72.8016C112.284 73.0629 111.472 73.1967 110.655 73.1982C109.088 73.1982 107.872 72.7938 107.009 71.9833C106.259 71.2818 105.82 70.3298 105.693 69.1273H115.597V67.3244C115.597 66.0675 115.348 64.9833 114.852 64.0733C114.374 63.182 113.631 62.4571 112.724 61.9967ZM106.122 65.8902C106.377 65.2711 106.81 64.7391 107.365 64.3595C107.917 63.9862 108.617 63.7996 109.463 63.7996C110.075 63.784 110.68 63.9209 111.226 64.1962C111.722 64.4591 112.126 64.8636 112.386 65.3582C112.655 65.8544 112.794 66.4471 112.798 67.1331H105.772C105.836 66.7069 105.951 66.2884 106.117 65.8902H106.122ZM128.097 62.216C129.146 62.832 129.995 63.7327 130.546 64.8107C131.131 65.9229 131.423 67.172 131.423 68.5564C131.423 69.9424 131.134 71.1853 130.552 72.2867C130 73.3584 129.152 74.2544 128.105 74.8689C127.055 75.488 125.84 75.7991 124.459 75.7991C123.095 75.7991 121.886 75.488 120.838 74.8689C119.792 74.256 118.948 73.3584 118.403 72.2835C117.832 71.1807 117.548 69.9378 117.548 68.5533C117.548 67.1689 117.832 65.9213 118.403 64.8091C118.941 63.7327 119.78 62.832 120.819 62.2144C121.861 61.5953 123.071 61.2842 124.451 61.2842C125.831 61.2842 127.046 61.5938 128.097 62.2144V62.216ZM126.526 72.5589C127.124 72.1576 127.589 71.5929 127.867 70.9333C128.183 70.182 128.34 69.3731 128.326 68.5595C128.343 67.7304 128.188 66.906 127.872 66.1376C127.6 65.4749 127.133 64.9087 126.531 64.512C125.913 64.1216 125.192 63.9224 124.46 63.938C123.669 63.938 122.987 64.1278 122.416 64.512C121.825 64.9164 121.365 65.4795 121.088 66.1344C120.761 66.8998 120.601 67.7258 120.617 68.5564C120.601 69.3731 120.761 70.1836 121.088 70.9349C121.368 71.5882 121.827 72.1513 122.413 72.5604C122.984 72.9524 123.666 73.1469 124.457 73.1469C125.192 73.164 125.913 72.9587 126.528 72.5604L126.526 72.5589Z" fill="#171768"/>
</svg>
