<svg width="140" height="140" viewBox="0 0 140 140" fill="none" xmlns="http://www.w3.org/2000/svg">
<path d="M7.03213 56.9629C6.27457 56.9629 5.77058 57.7204 6.02258 58.4142L12.0472 74.4053C12.2044 74.816 12.615 75.0991 13.0568 75.0991H24.0328C24.7904 75.0991 25.2944 74.3416 25.0424 73.6478L19.0177 57.6567C18.8606 57.246 18.4499 56.9629 18.0081 56.9629H7.03213Z" fill="#171768"/>
<path d="M24.6005 83.3625C23.8429 83.3625 23.3389 82.6049 23.5909 81.9112L27.8796 70.8403C28.0367 70.4296 28.4474 70.1465 28.8892 70.1465H38.5725C39.33 70.1465 39.834 70.904 39.582 71.5978L35.2934 82.6687C35.1363 83.0794 34.7256 83.3625 34.2838 83.3625H24.6005Z" fill="#171768"/>
<path d="M51.8496 82.7952V58.541H54.9094V80.367H66.4221V82.7641H51.8512V82.7952H51.8496Z" fill="#171768"/>
<path d="M69.8278 82.7936V65.0681H72.7616V82.7936H69.8278ZM72.5718 60.8416C72.1938 61.1885 71.752 61.3783 71.2465 61.3783C70.7409 61.3783 70.268 61.1885 69.89 60.8416C69.512 60.4947 69.3223 60.053 69.3223 59.5163C69.3223 59.0123 69.512 58.5705 69.89 58.191C70.3007 57.8441 70.7409 57.6543 71.2465 57.6543C71.752 57.6543 72.1923 57.8441 72.5718 58.191C72.9825 58.5378 73.1707 58.9796 73.1707 59.5163C73.1396 60.0203 72.9498 60.4621 72.5718 60.8416Z" fill="#171768"/>
<path d="M83.579 83.0455C81.9705 83.0455 80.7401 82.6348 79.8892 81.7839C79.0383 80.933 78.6276 79.7975 78.6276 78.3461V67.4339H75.9785V65.0679H78.6276V61.0312H81.5614V65.0679H85.8501V67.4339H81.5614V78.0941C81.5614 79.7975 82.319 80.681 83.8325 80.681C84.6834 80.681 85.441 80.555 86.0725 80.303V82.669C85.3787 82.921 84.5263 83.047 83.5805 83.047L83.579 83.0455Z" fill="#171768"/>
<path d="M89.7926 82.7935V56.584H92.7263V67.8758C93.1681 66.9611 93.9241 66.2362 94.9337 65.6358C95.9743 65.0369 97.2048 64.7522 98.6235 64.7522C100.643 64.7522 102.218 65.32 103.387 66.4867C104.522 67.6533 105.121 69.4515 105.121 71.9109V82.792H102.187V71.69C102.187 70.1438 101.84 68.9771 101.147 68.2522C100.453 67.5273 99.3484 67.1804 97.8659 67.1804C96.3835 67.1804 95.2168 67.6222 94.2072 68.4731C93.2288 69.324 92.7248 70.5233 92.7248 72.0369V82.792H89.791L89.7926 82.7935Z" fill="#171768"/>
<path d="M110.168 82.7936V65.0681H113.101V82.7936H110.168ZM112.912 60.8416C112.534 61.1885 112.092 61.3783 111.586 61.3783C111.081 61.3783 110.608 61.1885 110.23 60.8416C109.852 60.4947 109.662 60.053 109.662 59.5163C109.662 59.0123 109.852 58.5705 110.23 58.191C110.641 57.8441 111.081 57.6543 111.586 57.6543C112.092 57.6543 112.532 57.8441 112.912 58.191C113.322 58.5378 113.511 58.9796 113.511 59.5163C113.511 60.0203 113.321 60.4621 112.912 60.8416Z" fill="#171768"/>
<path d="M126 83.1078C123.413 83.1078 121.237 82.288 119.535 80.6795C117.832 79.04 117.012 76.8311 117.012 74.1198V73.8367C117.012 71.1564 117.863 68.9802 119.566 67.2769C121.3 65.5735 123.414 64.7227 125.937 64.7227C128.05 64.7227 129.848 65.2267 131.331 66.2362C132.813 67.2458 133.664 68.7904 133.918 70.9044H131.048C130.637 68.3175 128.935 67.0249 125.937 67.0249C124.234 67.0249 122.815 67.6564 121.68 68.8853C120.575 70.1158 120.04 71.7242 120.04 73.7744V74.0575C120.04 76.17 120.577 77.8111 121.649 78.9778C122.753 80.1444 124.203 80.7122 126.032 80.7122C127.42 80.7122 128.587 80.3342 129.596 79.6078C130.606 78.8502 131.174 77.7784 131.331 76.3909H134.044C133.854 78.3462 133.003 79.9547 131.52 81.2162C130.007 82.4778 128.178 83.1093 126.001 83.1093L126 83.1078Z" fill="#171768"/>
</svg>
