<svg width="140" height="140" viewBox="0 0 140 140" fill="none" xmlns="http://www.w3.org/2000/svg">
<path fill-rule="evenodd" clip-rule="evenodd" d="M107.148 49.3262C107.054 49.3262 107.008 49.3728 106.914 49.4195L96.0409 63.6062C95.9476 63.7462 95.7298 63.7462 95.6365 63.6062L84.7165 49.4195C84.6698 49.3728 84.5765 49.3262 84.4831 49.3262H75.4143C75.1809 49.3262 75.1031 49.5906 75.1809 49.7306L90.8143 69.8439C90.9076 69.9373 90.9076 70.0617 90.8143 70.1551L75.1965 90.2684C75.0565 90.4551 75.1965 90.6728 75.4298 90.6728H84.4987C84.592 90.6728 84.6387 90.6262 84.732 90.5795L95.652 76.3928C95.7454 76.2528 95.9631 76.2528 96.0565 76.3928L106.976 90.5795C107.023 90.6262 107.116 90.6728 107.21 90.6728H116.279C116.512 90.6728 116.59 90.4084 116.512 90.2684L100.879 70.1551C100.785 70.0617 100.785 69.9373 100.879 69.8439L116.496 49.7306C116.543 49.5595 116.45 49.3262 116.232 49.3262H107.148Z" fill="#171768"/>
<path fill-rule="evenodd" clip-rule="evenodd" d="M72.2718 89.1017L77.6384 82.2262C77.6851 82.1795 77.6851 82.0862 77.6851 82.0395L72.9407 49.5439C72.9407 49.4039 72.8007 49.3262 72.6762 49.3262H66.5007C66.4073 49.3262 66.314 49.3728 66.2673 49.4662L51.5051 79.3639C51.4118 79.5506 51.1473 79.5506 51.054 79.3639L36.1673 49.4662C36.1207 49.3728 36.0273 49.3262 35.9496 49.3262H29.7273C29.5873 49.3262 29.5095 49.4195 29.4629 49.5439L23.4895 90.3617C23.4429 90.5017 23.5829 90.6262 23.754 90.6262H30.9718C31.1118 90.6262 31.1895 90.5328 31.2362 90.4084L34.8451 64.2439C34.8918 63.9795 35.2029 63.9328 35.3429 64.1506L48.4718 90.5017C48.5184 90.5951 48.6118 90.6417 48.7051 90.6417H53.8073C53.9007 90.6417 53.994 90.5951 54.0407 90.5017L66.9984 64.5084C67.1384 64.2906 67.4496 64.3373 67.4962 64.6017L71.0118 89.9728C71.0584 90.1906 71.3229 90.2839 71.4629 90.1128L72.2718 89.1017Z" fill="#171768"/>
</svg>
