<svg width="140" height="140" viewBox="0 0 140 140" fill="none" xmlns="http://www.w3.org/2000/svg">
<path d="M131.999 66.959H119.68V69.0232H131.999V66.959Z" fill="#171768"/>
<path d="M131.999 71.0234H119.68V73.0546H131.999V71.0234Z" fill="#171768"/>
<path d="M131.999 75.0508H119.68V77.115H131.999V75.0508Z" fill="#171768"/>
<path d="M128.762 64.9449L125.823 61.9889L122.933 64.9449H119.68L124.221 60.3376L125.592 59H126.12L127.458 60.3376L131.999 64.9449H128.762Z" fill="#171768"/>
<mask id="mask0_62_12051" style="mask-type:luminance" maskUnits="userSpaceOnUse" x="8" y="59" width="124" height="22">
<path d="M132 59H8V80.1373H132V59Z" fill="white"/>
</mask>
<g mask="url(#mask0_62_12051)">
<path d="M113.075 77.1166H111.787L109.376 73.6322L108.171 74.8872V77.1166H107.081V66.9277H108.171V73.3515L111.589 69.9002H113.108L110.153 72.8561L113.075 77.1166ZM106.024 77.1166H104.951V72.79C104.951 72.2616 104.786 71.7992 104.406 71.4524C104.026 71.0726 103.597 70.9075 103.085 70.9075C102.573 70.9075 102.143 71.0891 101.764 71.4524C101.384 71.7992 101.219 72.2616 101.219 72.79V77.1166H100.162V69.9167H101.219V70.4947C101.764 70.0323 102.391 69.8341 103.085 69.8341C103.894 69.8341 104.571 70.1314 105.149 70.7093C105.727 71.2543 106.008 71.9644 106.008 72.8065V77.1166H106.024ZM95.2738 77.1991C94.2665 77.1991 93.4408 76.8523 92.7143 76.1258C92.0042 75.3992 91.6244 74.5239 91.6244 73.5166C91.6244 72.4928 92.0042 71.6341 92.7143 70.9075C93.4243 70.1809 94.2665 69.8341 95.2738 69.8341C96.3142 69.8341 97.1729 70.1809 97.883 70.9075V69.9167H98.9398V77.1166H97.883V76.0927C97.1729 76.8193 96.3142 77.1991 95.2738 77.1991ZM95.2738 70.9075C94.5803 70.9075 93.9528 71.1387 93.4574 71.6671C92.9454 72.1955 92.6812 72.8065 92.6812 73.5331C92.6812 74.2597 92.9454 74.8707 93.4574 75.3992C93.9528 75.8946 94.5803 76.1588 95.2738 76.1588C95.9839 76.1588 96.6279 75.8946 97.1068 75.3992C97.6188 74.8707 97.883 74.2597 97.883 73.5331C97.883 72.8065 97.6188 72.1955 97.1068 71.6671C96.6279 71.1387 96.0004 70.9075 95.2738 70.9075ZM90.0225 72.3276C90.5675 72.8561 90.8482 73.5166 90.8482 74.3093C90.8482 75.0689 90.5675 75.7294 90.0391 76.2909C89.4941 76.8358 88.8336 77.1 88.0905 77.1V77.1331H84.1272V67.0268H87.8263C88.6024 67.0598 89.2299 67.3241 89.7748 67.869C90.2868 68.3974 90.584 69.058 90.584 69.8176C90.584 70.5937 90.3198 71.2378 89.7748 71.7992C89.7253 71.8653 89.6593 71.9478 89.5767 71.9974C89.7418 72.0799 89.8079 72.146 89.8079 72.146C89.8079 72.146 89.907 72.179 90.0225 72.3276ZM85.2667 68.1497V71.5185H87.8428C88.3052 71.5185 88.7015 71.3368 89.0152 70.9901C89.329 70.6763 89.5106 70.2965 89.5106 69.8341C89.5106 69.3717 89.3455 68.9589 89.0152 68.6451C88.6684 68.2984 88.3052 68.1497 87.8428 68.1497H85.2667ZM88.107 75.9771C88.5694 75.9771 88.9327 75.7955 89.2794 75.4817C89.5932 75.1349 89.7418 74.7551 89.7418 74.2928C89.7418 73.8304 89.5932 73.4175 89.2464 73.1038C88.9327 72.79 88.5363 72.6084 88.074 72.6084H85.2667V75.9771H88.107ZM79.2227 69.8836H80.3787L76.8118 78.7679H78.7108V79.8743H75.243L76.5641 76.5716L73.8889 69.9002H75.0448L77.142 75.1184L79.2227 69.8836ZM70.8999 74.7716C70.8999 75.4157 71.1311 75.9606 71.5935 76.423C72.0559 76.8854 72.6008 77.1166 73.2283 77.1166V76.0432C72.8815 76.0432 72.6008 75.8946 72.3366 75.6634C72.1054 75.3992 71.9568 75.1184 71.9568 74.7716V70.9735H73.2118V69.9002H71.9568V67.0268H70.8999V74.7716ZM68.489 77.1166H69.5458V69.8836H68.489V77.1166ZM61.1404 69.9167H62.1973V74.2432C62.1973 74.7716 62.3955 75.201 62.7423 75.5808C63.1221 75.9606 63.5679 76.1258 64.0633 76.1258C64.5752 76.1258 65.0376 75.9441 65.3844 75.5808C65.7642 75.201 65.9624 74.7716 65.9624 74.2432V69.9167H67.0192V77.1166H65.9624V76.5386C65.4174 76.9679 64.7899 77.1991 64.0633 77.1991C63.2542 77.1991 62.5771 76.9019 61.9991 76.3239C61.4212 75.7459 61.1404 75.0524 61.1404 74.2267V69.9167ZM52.4378 73.5166C52.4378 72.4928 52.8176 71.6341 53.5277 70.9075C54.2378 70.1809 55.113 69.8341 56.1038 69.8341C57.1112 69.8341 57.9698 70.1809 58.6799 70.9075V69.9167H59.7368V79.8743H58.6799V76.0927C57.9698 76.8193 57.0946 77.1991 56.1038 77.1991C55.0965 77.1991 54.2378 76.8523 53.5277 76.1258C52.8176 75.3992 52.4378 74.5405 52.4378 73.5166ZM53.5277 73.5166C53.5277 74.2432 53.7589 74.8542 54.2708 75.3826C54.7827 75.8781 55.3937 76.1423 56.1038 76.1423C56.8139 76.1423 57.4249 75.8781 57.9368 75.3826C58.4322 74.8542 58.6799 74.2432 58.6799 73.5166C58.6799 72.79 58.4157 72.179 57.9368 71.6506C57.4249 71.1222 56.8139 70.891 56.1038 70.891C55.3937 70.891 54.7827 71.1222 54.2708 71.6506C53.7589 72.179 53.5277 72.79 53.5277 73.5166ZM51.7608 75.9771V77.1166H45.8159V67.0103H51.7608V68.1497H46.9058V71.4855H50.803V72.5919H46.9058V75.9936H51.7608V75.9771ZM40.8949 69.8341C41.9022 69.8341 42.7609 70.1809 43.471 70.9075C44.1646 71.6341 44.5279 72.5093 44.5279 73.5166V73.7148H38.3023C38.3518 74.3753 38.616 74.9698 39.1279 75.4322C39.6234 75.8946 40.1848 76.1258 40.8784 76.1258C41.3738 76.1258 41.8031 75.9771 42.2325 75.7129C42.6288 75.4817 42.9426 75.1349 43.1572 74.7221L44.1315 75.1349C43.8508 75.779 43.3884 76.2744 42.8105 76.6212C42.2325 77.001 41.5719 77.1991 40.8949 77.1991C39.8876 77.1991 39.0289 76.8523 38.3188 76.1258C37.6087 75.3992 37.2289 74.5239 37.2289 73.5166C37.2289 72.4928 37.6087 71.6341 38.3188 70.9075C39.0289 70.1809 39.9041 69.8341 40.8949 69.8341ZM43.3389 72.6414C43.1738 72.113 42.8435 71.7166 42.3976 71.3864C41.9683 71.0396 41.4564 70.891 40.9114 70.891C40.3334 70.891 39.8545 71.0396 39.3922 71.3864C38.9628 71.7001 38.6491 72.113 38.4509 72.6414H43.3389ZM36.0234 77.1166H34.9335V72.79C34.9335 72.2616 34.7684 71.7992 34.3886 71.4524C34.0418 71.0726 33.6124 70.9075 33.1005 70.9075C32.5886 70.9075 32.1262 71.0891 31.7794 71.4524C31.3996 71.7992 31.2345 72.2616 31.2345 72.757V77.1166H30.1446V72.79C30.1446 72.2616 29.9795 71.7992 29.6327 71.4524C29.2529 71.0726 28.8235 70.9075 28.3116 70.9075C27.7997 70.9075 27.3373 71.0891 26.9905 71.4524C26.6107 71.7992 26.4456 72.2616 26.4456 72.79V77.1166H25.3887V69.9167H26.4456V70.4947C26.9905 70.0323 27.6015 69.8341 28.3116 69.8341C28.807 69.8341 29.2364 69.9497 29.6657 70.1479C30.0951 70.3791 30.4418 70.6928 30.7061 71.0726C30.9703 70.6928 31.3171 70.3791 31.7464 70.1479C32.1758 69.9497 32.6381 69.8341 33.117 69.8341C33.9262 69.8341 34.6032 70.1314 35.1812 70.7093C35.7592 71.2543 36.0399 71.9644 36.0399 72.8065V77.1166H36.0234ZM20.4842 77.1991C21.4915 77.1991 22.3172 76.8523 23.0438 76.1258C23.7539 75.3992 24.1337 74.5239 24.1337 73.5166C24.1337 72.4928 23.7539 71.6341 23.0438 70.9075C22.3337 70.1809 21.4915 69.8341 20.4842 69.8341C19.4439 69.8341 18.5852 70.1809 17.8751 70.9075C17.1815 71.6341 16.8182 72.5093 16.8182 73.5166C16.8182 74.5405 17.198 75.3992 17.8751 76.1258C18.6017 76.8523 19.4604 77.1991 20.4842 77.1991ZM20.4842 70.9075C21.1778 70.9075 21.8053 71.1387 22.3007 71.6671C22.8126 72.1955 23.0768 72.8065 23.0768 73.5331C23.0768 74.2597 22.8126 74.8707 22.3007 75.3992C21.8053 75.8946 21.1778 76.1588 20.4842 76.1588C19.7741 76.1588 19.1301 75.8946 18.6512 75.3992C18.1393 74.8707 17.8751 74.2597 17.8751 73.5331C17.8751 72.8065 18.1393 72.1955 18.6512 71.6671C19.1466 71.1387 19.7741 70.9075 20.4842 70.9075ZM15.5467 67.0103V77.1166H14.4568V72.6249H9.08989V77.1166H8V67.0103H9.08989V71.502H14.4568V67.0103H15.5467Z" fill="#171768"/>
</g>
<mask id="mask1_62_12051" style="mask-type:luminance" maskUnits="userSpaceOnUse" x="8" y="59" width="124" height="22">
<path d="M132 59H8V80.1373H132V59Z" fill="white"/>
</mask>
<g mask="url(#mask1_62_12051)">
<path d="M115.141 66.3966L115.57 65.2571H115.603L115.57 65.5213V66.3966H115.834V64.9434H115.487L115.058 66.0498L114.678 64.9434H114.298V66.3966H114.53V65.5213V65.2571L114.926 66.3966H115.141ZM113.77 65.158H114.166V64.9599H113.109V65.158H113.506V66.4131H113.77V65.158Z" fill="#171768"/>
</g>
</svg>
