<svg width="140" height="140" viewBox="0 0 140 140" fill="none" xmlns="http://www.w3.org/2000/svg">
<path d="M58.1344 85.2976H49.8262L55.0233 53.166H63.3299L58.1344 85.2976Z" fill="#171768"/>
<path d="M88.2544 53.9513C86.6164 53.3011 84.017 52.584 80.8033 52.584C72.5993 52.584 66.8204 56.9598 66.7862 63.2146C66.7177 67.83 70.9224 70.3935 74.0677 71.932C77.2815 73.5047 78.375 74.5313 78.375 75.9329C78.3424 78.0858 75.7773 79.0782 73.3864 79.0782C70.0699 79.0782 68.2919 78.5664 65.5915 77.3686L64.4979 76.8553L63.3359 84.0684C65.285 84.9566 68.8753 85.7438 72.6024 85.778C81.3197 85.778 86.9959 81.4707 87.0628 74.8051C87.0955 71.148 84.8757 68.3449 80.0893 66.0551C77.1835 64.5851 75.4039 63.5942 75.4039 62.09C75.4382 60.7226 76.9097 59.3211 80.1888 59.3211C82.8893 59.2527 84.8742 59.9013 86.3784 60.5515L87.1297 60.8922L88.259 53.9544L88.2544 53.9513Z" fill="#171768"/>
<path d="M99.295 73.916C99.9794 72.0695 102.611 64.9264 102.611 64.9264C102.577 64.9949 103.294 63.0457 103.705 61.8495L104.285 64.6184C104.285 64.6184 105.858 72.3091 106.2 73.916H99.295ZM109.551 53.168H103.125C101.143 53.168 99.6372 53.7482 98.7816 55.8342L86.4414 85.2995H95.1587C95.1587 85.2995 96.5945 81.3344 96.9025 80.4789H107.569C107.807 81.6066 108.56 85.2995 108.56 85.2995H116.252L109.549 53.168H109.551Z" fill="#171768"/>
<path d="M42.8881 53.166L34.751 75.0776L33.8612 70.6333C32.357 65.5062 27.639 59.9342 22.375 57.1653L29.8277 85.2649H38.6134L51.6723 53.1676H42.8866L42.8881 53.166Z" fill="#171768"/>
<path d="M27.1952 53.166H13.8283L13.6914 53.8147C24.1183 56.4809 31.025 62.9085 33.8623 70.6334L30.9565 55.8665C30.4774 53.8147 29.0074 53.2329 27.1967 53.166H27.1952Z" fill="#171768"/>
</svg>
