<svg width="140" height="140" viewBox="0 0 140 140" fill="none" xmlns="http://www.w3.org/2000/svg">
<path d="M14.1984 63.7732C14.2015 63.6316 14.2093 63.4901 14.2093 63.3501C14.2093 57.9336 14.2124 52.5172 14.2015 47.1007C14.2015 46.7943 14.2886 46.729 14.5811 46.729C21.1128 46.7367 27.6462 46.7336 34.1748 46.7367C34.2775 46.7367 34.4191 46.6823 34.4782 46.7741C34.5482 46.8798 34.4159 46.967 34.3662 47.0572C32.6146 50.1325 30.8615 53.2094 29.1037 56.2847C27.2791 59.483 25.4497 62.6765 23.6219 65.8747C23.2393 66.5452 22.7959 67.3618 22.4164 68.0338C22.2779 67.757 22.3215 67.8036 22.2717 67.7196C21.5655 66.4845 20.8546 65.251 20.1562 64.0112C20.0582 63.837 19.9586 63.767 19.7548 63.767C18.4482 63.7747 17.1431 63.7701 15.8364 63.7747C15.7602 63.7747 15.6622 63.7312 15.6031 63.8214C15.6077 63.8478 15.6077 63.8727 15.6186 63.8898C16.8895 66.1158 18.1651 68.3372 19.4251 70.5694C19.6802 71.0205 19.7175 71.0718 20.2013 71.9025C19.9975 72.2665 19.7159 72.7145 19.5122 73.0754C19.4857 73.0427 19.4686 72.9774 19.4499 72.9401C18.5073 71.2927 17.5677 69.6438 16.6235 67.9981C15.8146 66.5887 14.9995 65.1825 14.1875 63.7763H14.1922L14.1984 63.7732Z" fill="#171768"/>
<path d="M17.3975 76.9523C18.7679 76.9523 20.1399 76.9523 21.5135 76.957C21.6955 76.957 21.7981 76.9087 21.893 76.7392C23.5824 73.7665 25.281 70.7954 26.9781 67.8258C28.5726 65.0352 30.1686 62.2445 31.7615 59.4523C33.2626 56.8218 34.7621 54.1883 36.2633 51.5563C37.1624 49.9821 38.063 48.4094 39.0306 46.8398C39.0306 47.1121 39.001 47.3858 39.0353 47.655C39.1628 48.6427 38.8159 49.4718 38.3181 50.3134C36.7673 52.9423 35.2801 55.607 33.7681 58.2576C32.2779 60.8694 30.7815 63.4812 29.2913 66.093C27.9333 68.4683 26.5815 70.8467 25.2266 73.2252C24.553 74.4027 23.8795 75.5818 23.2059 76.7594C23.181 76.8061 23.1577 76.8512 23.1359 76.8978C23.2261 76.9958 23.3288 76.9523 23.419 76.9523C24.7039 76.9554 25.9873 76.9492 27.2721 76.9601C27.4899 76.9601 27.5957 76.8901 27.6984 76.705C29.3737 73.7587 31.0568 70.8218 32.7368 67.8787C34.3204 65.1067 35.8977 62.3316 37.4797 59.5565C37.9744 58.6901 38.4706 57.8267 39.0088 56.8903C39.0197 57.0614 39.0306 57.1625 39.0306 57.259C39.0306 65.5781 39.0306 73.8987 39.0384 82.2178C39.0384 82.4947 38.9575 82.5538 38.6915 82.5538C34.9255 82.5461 31.1595 82.5507 27.3919 82.5507C27.3079 82.3283 27.2317 82.1027 27.1368 81.885C26.317 80.0276 24.3586 78.6432 22.0439 78.8361C20.7295 78.945 19.6468 79.463 18.7321 80.3776C18.1208 80.9905 17.7444 81.7434 17.4581 82.5492C16.4781 82.5492 15.5013 82.5414 14.5213 82.5523C14.2817 82.5554 14.207 82.501 14.207 82.249C14.2179 78.749 14.2148 75.0514 14.2148 71.5514C14.277 71.6898 14.4124 71.931 14.4777 72.0476C15.3815 73.6281 16.2837 75.2101 17.1844 76.7905C17.2326 76.8745 17.2684 76.9725 17.3959 76.9507L17.399 76.9461L17.3975 76.9523Z" fill="#171768"/>
<path d="M54.9475 61.4494C54.5789 62.0062 54.2087 62.5647 53.8431 63.1216C53.0995 64.2571 52.3529 65.3911 51.614 66.5314C51.4833 66.732 51.4211 66.7398 51.2858 66.5314C50.2669 64.9649 49.2387 63.4031 48.212 61.8429C48.1498 61.7449 48.1031 61.6314 47.946 61.5334V61.9005C47.946 64.3365 47.9413 66.774 47.9507 69.21C47.9507 69.476 47.8915 69.5662 47.6115 69.5569C46.9053 69.5382 46.1975 69.546 45.4882 69.5538C45.2922 69.5538 45.2035 69.5274 45.2051 69.2925C45.2129 65.2791 45.2129 61.2674 45.2051 57.254C45.2051 57.0129 45.2891 56.9709 45.5038 56.9771C46.2878 56.988 47.0702 56.9911 47.8542 56.9771C48.0907 56.9725 48.2291 57.0425 48.3504 57.2431C49.1889 58.6136 50.0367 59.9794 50.8829 61.3482C51.0649 61.6438 51.25 61.9393 51.4553 62.2738C51.7509 61.7993 52.0371 61.3482 52.3187 60.894C53.084 59.6558 53.8493 58.4176 54.6069 57.1778C54.6987 57.0285 54.8044 56.9802 54.9755 56.9818C55.7922 56.9896 56.6073 56.9958 57.424 56.9818C57.6604 56.9771 57.7087 57.0611 57.7087 57.2805C57.704 61.3374 57.704 65.3927 57.7087 69.4496C57.7087 69.6456 57.6651 69.742 57.4535 69.7638C56.696 69.8447 55.9415 69.9396 55.1871 70.036C55.0424 70.0547 54.9833 70.0142 55.0004 69.868C55.0082 69.7918 55.0004 69.7156 55.0004 69.6394V61.4836C54.9787 61.4727 54.96 61.4618 54.9382 61.4509L54.9429 61.4478L54.9475 61.4494Z" fill="#171768"/>
<path d="M17.456 82.5499C17.7391 81.7441 18.1186 80.9912 18.73 80.3783C19.6446 79.4636 20.7289 78.9441 22.0417 78.8367C24.358 78.647 26.3149 80.0314 27.1346 81.8856C27.2295 82.1034 27.3058 82.3274 27.3898 82.5514C27.6153 83.5859 27.6526 84.6172 27.2871 85.6299C26.6384 87.4187 25.394 88.5574 23.5382 88.9992C21.3309 89.5281 18.9415 88.4159 17.8993 86.403C17.302 85.2456 17.1417 84.0416 17.4249 82.7723C17.4404 82.6992 17.4466 82.623 17.4575 82.5467V82.5499H17.456Z" fill="#171768"/>
<path d="M77.9098 61.1386V57.0226C77.9098 56.8779 77.8943 56.7504 78.1074 56.7302C78.8541 56.6571 79.6007 56.5699 80.3412 56.4688C80.5994 56.4331 80.6445 56.5171 80.6445 56.7566C80.6367 60.9208 80.6367 65.0835 80.6445 69.2477C80.6445 69.492 80.5854 69.562 80.3381 69.5573C79.621 69.5417 78.9023 69.5433 78.1821 69.5573C77.9736 69.5604 77.8896 69.5091 77.9021 69.2851C77.9207 68.96 77.9067 68.6333 77.9067 68.2693C77.7434 68.4264 77.6049 68.5524 77.4743 68.6877C76.4025 69.7875 75.0927 69.9508 73.7083 69.5355C71.9458 69.0066 71.0172 67.6891 70.6858 65.9484C70.4385 64.6417 70.5505 63.3615 71.1369 62.1342C72.0376 60.2504 74.2154 59.2828 76.2065 59.9299C76.8614 60.1415 77.3716 60.5864 77.9067 61.1402V61.1371L77.9098 61.1386ZM77.9534 64.7444C77.9861 64.3291 77.885 63.9386 77.7341 63.5668C77.409 62.7735 76.849 62.2197 75.9716 62.0984C75.0647 61.9708 74.329 62.3053 73.8016 63.0566C73.0954 64.0646 73.1467 65.6 73.9074 66.5644C74.6183 67.4651 75.9172 67.6782 76.8583 67.0233C77.6485 66.4742 77.9223 65.6637 77.955 64.746H77.9518L77.9534 64.7444Z" fill="#171768"/>
<path d="M88.7992 68.5564C88.3076 69.0044 87.8487 69.3731 87.2701 69.5255C85.9401 69.8755 84.6583 69.8491 83.5367 68.9204C82.1772 67.7957 82.1958 64.8635 84.4001 64.0359C85.741 63.5304 87.1021 63.5553 88.4647 63.9551C88.8287 64.0608 88.8256 64.0686 88.8007 63.6968C88.7463 62.8693 88.2719 62.3591 87.3867 62.2097C86.4534 62.0495 85.5465 62.2128 84.6583 62.5022C84.1418 62.6702 84.1403 62.6811 83.9661 62.1786C83.8121 61.7275 83.6814 61.2671 83.515 60.8206C83.445 60.6277 83.5041 60.5546 83.6752 60.4893C84.397 60.2155 85.125 59.9573 85.9012 59.8873C86.9325 59.7955 87.9623 59.7426 88.975 60.0553C90.3298 60.4737 91.0703 61.4148 91.3456 62.7728C91.4156 63.1259 91.4405 63.4837 91.4405 63.8431C91.4436 65.6382 91.4358 67.4302 91.4483 69.2237C91.4483 69.5037 91.3612 69.5659 91.0983 69.5582C90.4138 69.5395 89.7278 69.5473 89.0434 69.5582C88.8614 69.5582 88.7883 69.5099 88.8023 69.3186C88.8178 69.0931 88.8054 68.8659 88.8054 68.5579L88.8007 68.5548L88.7992 68.5564ZM87.3058 65.3115C86.8578 65.2975 86.4176 65.3411 86.0023 65.5262C85.5465 65.7299 85.2914 66.0722 85.2665 66.5824C85.2447 67.0677 85.4376 67.4317 85.867 67.6464C86.2465 67.8362 86.6619 67.8502 87.0772 67.8113C88.261 67.7024 88.8878 67.0133 88.8614 65.8777C88.8567 65.7019 88.7883 65.6257 88.6421 65.5759C88.2081 65.4344 87.7678 65.3177 87.3058 65.3068V65.3099V65.3115Z" fill="#171768"/>
<path d="M65.6292 65.6863C64.6165 65.6863 63.6039 65.691 62.5943 65.6817C62.3656 65.6817 62.3174 65.733 62.3796 65.9554C62.6752 67.0552 63.775 67.7039 65.0396 67.539C65.7023 67.4519 66.267 67.175 66.7554 66.741C66.9234 66.5886 67.0292 66.6103 67.1816 66.7519C67.5565 67.0988 67.9392 67.4394 68.3281 67.7708C68.4961 67.9154 68.5101 68.0103 68.3499 68.1861C67.247 69.3886 65.861 69.8474 64.2696 69.7526C62.7499 69.6623 61.4728 69.0743 60.5503 67.8252C59.799 66.8094 59.5408 65.6506 59.6216 64.4092C59.7305 62.8039 60.3714 61.4723 61.7154 60.5374C63.9492 58.9819 67.8412 59.5606 68.7683 63.1306C68.9612 63.8772 69.0188 64.627 69.0016 65.3892C68.997 65.6334 68.9099 65.6957 68.6734 65.6926C67.6608 65.6786 66.6481 65.6879 65.6385 65.6879H65.6308L65.6292 65.6863ZM62.2956 63.9752H66.1379C66.2654 63.9752 66.3339 63.9612 66.3168 63.7994C66.2468 63.0061 65.6028 62.205 64.8608 62.0106C64.0052 61.7819 63.1963 62.0806 62.7016 62.8226C62.4792 63.1586 62.333 63.5319 62.291 63.9737L62.2941 63.9768L62.2956 63.9752Z" fill="#171768"/>
<path d="M123.498 61.1648C123.728 60.9564 123.957 60.7573 124.172 60.5519C125.531 59.2546 128.281 59.4817 129.159 61.3468C129.432 61.9286 129.558 62.5384 129.558 63.1761C129.558 65.2093 129.558 67.2439 129.563 69.277C129.563 69.4995 129.501 69.5695 129.275 69.5912C128.572 69.6597 127.872 69.7453 127.171 69.8417C126.905 69.8775 126.818 69.8168 126.821 69.529C126.835 67.7121 126.828 65.8968 126.825 64.0799C126.825 63.4826 126.701 62.9226 126.191 62.5461C125.145 61.7699 123.71 62.4155 123.543 63.7299C123.506 64.0426 123.496 64.3568 123.496 64.6726C123.492 66.1955 123.489 67.7168 123.5 69.2397C123.5 69.4761 123.451 69.5601 123.196 69.5539C122.479 69.5353 121.76 69.543 121.04 69.5539C120.844 69.5539 120.777 69.5057 120.777 69.2988C120.782 66.2546 120.782 63.2088 120.777 60.1661C120.777 59.9624 120.843 59.9079 121.039 59.911C121.779 59.9219 122.518 59.9219 123.26 59.911C123.453 59.911 123.501 59.9764 123.496 60.1552C123.486 60.4975 123.493 60.8397 123.493 61.1633L123.498 61.1664V61.1648Z" fill="#171768"/>
<path d="M118.86 64.7274C118.857 67.4014 116.754 69.5216 114.095 69.5278C111.448 69.5325 109.298 67.3687 109.303 64.7025C109.311 62.0611 111.463 59.9098 114.1 59.916C116.745 59.9207 118.86 62.0611 118.857 64.7274H118.86ZM116.623 64.7351C116.623 63.318 115.488 62.1607 114.095 62.1607C112.703 62.1607 111.535 63.3414 111.543 64.7289C111.547 66.1165 112.686 67.2598 114.074 67.2785C115.469 67.2971 116.623 66.146 116.623 64.7351Z" fill="#171768"/>
<path d="M17.3124 76.9382C17.2439 76.9382 17.2315 76.876 17.1848 76.792C16.2842 75.2085 15.3819 73.6296 14.4782 72.0491C14.4128 71.9356 13.9073 71.0582 13.7237 70.7347C12.4699 68.5273 11.2037 66.3262 9.94217 64.1205C9.89083 64.0287 9.78817 63.9307 9.83017 63.8296C9.8815 63.7067 10.0231 63.7705 10.1211 63.7705C11.4806 63.7705 12.8386 63.7705 14.1997 63.7736C15.0117 65.1798 15.8253 66.586 16.6357 67.9953C17.5799 69.6411 18.5522 71.2729 19.4622 72.9373C19.5026 73.0136 19.5322 73.0836 19.5244 73.0727C18.8586 74.2502 18.2099 75.3889 17.5457 76.5664C17.4773 76.6862 17.4539 76.7313 17.3155 76.9382H17.3124Z" fill="#171768"/>
<path d="M50.9152 78.023C51.1299 78.1459 51.3367 78.2563 51.5374 78.3807C52.3167 78.8645 52.4847 79.605 52.407 80.4465C52.3339 81.2305 51.9076 81.7719 51.2123 82.1079C50.5605 82.4252 49.8574 82.4967 49.1496 82.5014C47.9301 82.5092 46.7121 82.4967 45.4956 82.5092C45.2545 82.5092 45.2188 82.4299 45.2188 82.2136C45.2265 79.5614 45.2265 76.9107 45.2188 74.2585C45.2188 74.0112 45.2841 73.9521 45.5252 73.9552C46.7883 73.9692 48.0499 73.9552 49.3099 73.963C49.9725 73.9676 50.6025 74.1014 51.1501 74.5121C52.1876 75.2914 52.2421 76.9154 51.2512 77.757C51.1454 77.8472 51.0334 77.9312 50.9199 78.0199L50.9168 78.023H50.9152ZM48.3796 78.9781V78.9672C48.011 78.9672 47.6408 78.9719 47.2721 78.9672C47.115 78.9641 47.0325 78.9967 47.0388 79.1787C47.0496 79.6672 47.0419 80.1541 47.0419 80.6425C47.0419 80.7436 47.0372 80.8494 47.1834 80.8463C48.0499 80.8245 48.921 80.9225 49.7843 80.7841C50.1623 80.725 50.4796 80.5227 50.5668 80.0996C50.6321 79.7761 50.545 79.4914 50.3039 79.2721C50.0783 79.0683 49.7874 78.9952 49.4919 78.9843C49.1232 78.9703 48.753 78.9812 48.3843 78.9812L48.3812 78.9781H48.3796ZM48.1168 75.601C47.8445 75.601 47.5708 75.6119 47.3001 75.5979C47.1041 75.587 47.0279 75.6445 47.0372 75.8499C47.0512 76.2839 47.0512 76.721 47.0372 77.1565C47.0325 77.3541 47.0854 77.4225 47.2923 77.4147C47.7263 77.3992 48.1634 77.4039 48.599 77.4147C48.9412 77.4194 49.2725 77.3883 49.5899 77.2623C49.9756 77.1099 50.1716 76.7521 50.0954 76.3476C50.0254 75.9727 49.7719 75.7503 49.3239 75.6585C48.9241 75.5776 48.5196 75.615 48.1183 75.6072V75.6025L48.1168 75.601Z" fill="#171768"/>
<path d="M65.4369 77.1522C65.3576 77.3047 65.3887 77.4244 65.3887 77.538C65.3887 79.0935 65.3809 80.646 65.3918 82.2031C65.3918 82.4427 65.3374 82.5235 65.0885 82.5127C64.6436 82.4909 64.1956 82.4987 63.7507 82.5095C63.5796 82.5127 63.5283 82.4582 63.5314 82.2871C63.536 79.5913 63.536 76.8955 63.5314 74.1998C63.5314 74.0147 63.5889 73.9555 63.7725 73.9602C64.1956 73.9711 64.6218 73.9742 65.0465 73.9602C65.2207 73.9555 65.3234 74.0224 65.4245 74.1562C66.5943 75.7087 67.7703 77.2564 68.9463 78.8042C69.0163 78.896 69.0909 78.9862 69.2232 79.1511V78.728C69.2232 77.2518 69.2309 75.7709 69.2185 74.2947C69.2185 74.0178 69.2978 73.9447 69.5638 73.9587C69.9869 73.9804 70.4132 73.9727 70.8378 73.9587C71.0229 73.954 71.1038 73.9835 71.1038 74.1998C71.096 76.8955 71.0992 79.5913 71.1038 82.2871C71.1038 82.4582 71.0572 82.5282 70.8845 82.5049C70.83 82.4971 70.7756 82.5049 70.7212 82.5049C70.3105 82.4893 69.836 82.6433 69.5047 82.4473C69.1765 82.2513 68.9836 81.8236 68.7332 81.4938C67.6443 80.058 66.5554 78.6207 65.4447 77.1522H65.4416H65.4369Z" fill="#171768"/>
<path d="M96.6151 63.0227C96.6151 65.0885 96.6105 67.1527 96.6198 69.2185C96.6198 69.4954 96.5389 69.5638 96.2729 69.5576C95.5667 69.5389 94.8589 69.5436 94.1527 69.5576C93.9411 69.5607 93.8789 69.4985 93.8789 69.2838C93.8836 65.2518 93.8836 61.2198 93.8789 57.1863C93.8789 56.9825 93.9411 56.8985 94.1371 56.8658C94.8542 56.746 95.5729 56.6247 96.2869 56.4909C96.5342 56.4443 96.6229 56.4863 96.6229 56.7678C96.612 58.8554 96.6182 60.9414 96.6182 63.0289L96.6151 63.0243V63.0227Z" fill="#171768"/>
<path d="M80.4376 73.9626C80.0471 74.5118 79.6987 75.0018 79.3487 75.4918C78.7482 76.3302 78.1509 77.1718 77.538 78.0024C77.3918 78.2 77.468 78.326 77.5816 78.4862C78.5258 79.7975 79.4685 81.1151 80.4547 82.4933C80.0067 82.4933 79.6069 82.4466 79.2227 82.5042C78.5553 82.6022 78.1556 82.3362 77.8025 81.7824C77.2705 80.9378 76.6436 80.1569 76.0758 79.3309C75.9405 79.1349 75.8145 79.0944 75.592 79.1411C74.9978 79.2655 74.9947 79.2546 74.9947 79.8504C74.9947 80.6438 74.99 81.4386 74.9993 82.232C74.9993 82.4358 74.9589 82.5198 74.7333 82.5089C74.2776 82.4902 73.8187 82.4949 73.3629 82.5089C73.17 82.5135 73.1016 82.4715 73.1016 82.2615C73.1093 79.5875 73.1093 76.9104 73.1016 74.2364C73.1016 74.0249 73.1529 73.9518 73.3738 73.9595C73.8296 73.9751 74.2885 73.9751 74.7442 73.9595C74.9511 73.9549 74.9993 74.0218 74.9993 74.2209C74.9916 75.2304 74.9993 76.2431 74.9916 77.2558C74.9916 77.4891 75.0165 77.5435 75.2902 77.5295C75.7896 77.5031 76.0229 77.2013 76.2702 76.842C76.9033 75.932 77.5567 75.036 78.2038 74.1384C78.2613 74.0591 78.2987 73.9642 78.4216 73.9642H80.4391L80.4376 73.9626Z" fill="#171768"/>
<path d="M101.995 63.0047C101.995 65.0814 101.99 67.1581 102 69.2363C102 69.4945 101.934 69.5676 101.676 69.5599C100.97 69.5412 100.262 69.5459 99.5526 69.5599C99.3458 69.563 99.2695 69.5163 99.2695 69.2907C99.2742 65.2447 99.2773 61.2003 99.2695 57.1543C99.2695 56.9427 99.3675 56.8961 99.5309 56.8696C100.259 56.7421 100.988 56.6254 101.713 56.4839C101.961 56.4356 101.998 56.5196 101.998 56.7421C101.99 58.8296 101.993 60.9172 101.993 63.0063L101.995 63.0047Z" fill="#171768"/>
<path d="M62.2219 82.5029C61.5997 82.5029 61.0055 82.4982 60.4113 82.506C60.2619 82.506 60.2355 82.4142 60.1935 82.3162C59.9244 81.6395 59.6506 80.9675 59.3877 80.2909C59.3115 80.098 59.2415 80.0109 58.9879 80.0653C58.0328 80.2722 57.0684 80.4433 56.1071 80.6113C55.9282 80.644 55.8519 80.7311 55.7928 80.8882C55.6139 81.3549 55.4211 81.8138 55.2391 82.2804C55.1846 82.422 55.1302 82.5169 54.9435 82.5106C54.3897 82.4966 53.8359 82.506 53.2246 82.506C53.4611 81.9413 53.6804 81.4062 53.9059 80.8711C54.8502 78.642 55.7991 76.4191 56.7324 74.1869C56.8273 73.9582 56.9331 73.8742 57.1773 73.8882C57.5786 73.91 57.9831 73.896 58.3859 73.8929C58.5135 73.8929 58.6084 73.9006 58.6691 74.0453C59.8279 76.8064 60.9962 79.5644 62.1582 82.324C62.1768 82.3722 62.1908 82.422 62.2173 82.5091L62.2219 82.5044V82.5029ZM57.7124 76.1764C57.3375 77.102 56.9953 77.9404 56.6344 78.8318C57.2784 78.7042 57.8726 78.5844 58.4668 78.474C58.6022 78.4491 58.6208 78.4086 58.5679 78.2842C58.2879 77.6138 58.0188 76.9371 57.7124 76.178V76.1764Z" fill="#171768"/>
<path d="M20.2154 71.8986C19.9385 71.4149 19.6912 71.0166 19.4392 70.5655C18.1761 68.3333 16.9005 66.1135 15.6327 63.886C15.6219 63.8673 15.6219 63.8455 15.6172 63.8175C15.6763 63.7257 15.7712 63.7709 15.8505 63.7709C17.1572 63.7677 18.4623 63.7709 19.769 63.7631C19.9727 63.7631 20.0723 63.8331 20.1703 64.0073C20.8687 65.2486 21.5796 66.4806 22.2859 67.7157C22.3341 67.7997 22.3621 67.8915 22.4305 68.03C21.6761 69.36 20.9854 70.5437 20.2294 71.8737C20.2139 71.9002 20.2434 71.8737 20.2216 71.8955H20.2185L20.2154 71.8986Z" fill="#171768"/>
<path d="M104.536 64.7165C104.536 63.2185 104.541 61.7158 104.531 60.2178C104.531 59.9705 104.597 59.9083 104.838 59.9145C105.555 59.93 106.273 59.9254 106.991 59.9145C107.187 59.9145 107.278 59.9409 107.278 60.1758C107.271 63.22 107.271 66.2627 107.278 69.3069C107.278 69.5154 107.21 69.562 107.017 69.5589C106.278 69.5511 105.538 69.5449 104.799 69.5589C104.576 69.5636 104.533 69.4858 104.533 69.2789C104.541 67.7591 104.537 66.2347 104.537 64.7149L104.534 64.718L104.536 64.7165Z" fill="#171768"/>
<path d="M105.877 56.4785C106.613 56.4754 107.207 57.0572 107.214 57.7899C107.218 58.5147 106.623 59.1308 105.907 59.1385C105.176 59.1463 104.585 58.5567 104.58 57.8194C104.575 57.0681 105.142 56.4832 105.877 56.4785Z" fill="#171768"/>
</svg>
