<svg width="140" height="140" viewBox="0 0 140 140" fill="none" xmlns="http://www.w3.org/2000/svg">
<path d="M102.088 68.4918C101.83 67.7949 101.447 67.1883 100.982 66.678C100.512 66.1632 99.9476 65.7509 99.3021 65.4523C98.6519 65.1505 97.9456 64.998 97.1943 64.998C96.443 64.998 95.7523 65.1474 95.099 65.4414C94.4519 65.7338 93.8748 66.1398 93.3816 66.6516C92.8901 67.1618 92.495 67.7638 92.2072 68.442C91.9023 69.1607 91.7748 70.0365 91.7483 70.7785C91.7001 72.0945 92.4063 76.4687 97.2394 76.4687C100.158 76.4687 101.723 74.7 101.791 74.6238L102.052 74.336L100.403 73.1072C100.19 73.3934 99.3052 74.4449 97.2036 74.4449C94.9465 74.4449 94.1408 72.6327 94.0474 71.634L102.409 71.6465C102.409 71.6465 102.578 69.814 102.088 68.4949V68.4918ZM94.049 69.884C94.0987 69.5667 94.1967 69.1872 94.3399 68.8729C94.5141 68.4887 94.7474 68.1543 95.0321 67.8774C95.3167 67.6005 95.6465 67.3827 96.0136 67.2272C96.3761 67.0732 96.7712 66.9954 97.1865 66.9954C97.6019 66.9954 97.9907 67.0732 98.3454 67.2256C98.7032 67.3812 99.0221 67.5958 99.2912 67.8665C99.5619 68.1387 99.7812 68.47 99.9476 68.8527C100.069 69.1358 100.15 69.5169 100.195 69.884H94.0505H94.049Z" fill="#171768"/>
<path d="M26.0393 73.5545C26.2913 73.8579 26.5277 74.1456 26.7486 74.421C26.9695 74.6963 27.1966 74.9856 27.4315 75.2874C26.9291 75.6794 26.3675 75.9905 25.7484 76.2208C25.1277 76.451 24.4526 76.5676 23.7246 76.5676C22.9593 76.5676 22.2406 76.4292 21.5655 76.1539C20.8904 75.8785 20.2868 75.5005 19.7564 75.0199C19.2244 74.5392 18.7888 73.9792 18.4513 73.3399C18.1122 72.699 17.8975 72.0145 17.8073 71.285C17.6984 70.4139 17.7762 69.591 18.0453 68.8179C18.3128 68.0448 18.7204 67.3634 19.2695 66.777C19.8186 66.1905 20.472 65.7239 21.228 65.377C21.984 65.0301 22.8068 64.8574 23.6966 64.8574C24.4433 64.8574 25.134 64.9725 25.7671 65.2043C26.4002 65.4361 26.9726 65.7472 27.4844 66.1376L26.0206 67.8721C25.722 67.6232 25.3735 67.4319 24.9753 67.2981C24.5755 67.1643 24.1446 67.0974 23.6826 67.0974C23.0962 67.0974 22.5657 67.2001 22.0944 67.4039C21.6215 67.6092 21.2264 67.8939 20.9075 68.2579C20.5886 68.6234 20.3537 69.0496 20.2013 69.5381C20.0488 70.0281 20.0084 70.5476 20.0768 71.0983C20.1904 72.0052 20.5746 72.7705 21.2311 73.3928C21.8875 74.015 22.7135 74.3261 23.7091 74.3261C24.1711 74.3261 24.5988 74.2592 24.9908 74.1254C25.3828 73.9916 25.7328 73.8003 26.0393 73.5514V73.5545Z" fill="#171768"/>
<path d="M35.0406 70.7001C35.0468 69.899 35.2008 69.1445 35.5026 68.4321C35.8044 67.7212 36.2244 67.1021 36.7642 66.5779C37.3024 66.0536 37.9308 65.6352 38.648 65.3241C39.3651 65.013 40.1413 64.8574 40.9766 64.8574C41.7404 64.8574 42.4606 64.9959 43.1357 65.2712C43.8108 65.5465 44.4051 65.9214 44.9168 66.3912C45.4302 66.8625 45.8502 67.4179 46.18 68.0588C46.5097 68.6996 46.7182 69.3748 46.8084 70.0856C46.9204 70.9754 46.852 71.8108 46.6031 72.5932C46.3542 73.3756 45.9637 74.0601 45.4333 74.6481C44.9013 75.2345 44.2542 75.7012 43.4873 76.0481C42.722 76.395 41.8851 76.5676 40.9782 76.5676C40.16 76.5676 39.39 76.4245 38.6697 76.1414C37.9495 75.8568 37.3211 75.457 36.7844 74.9405C36.2477 74.4256 35.8246 73.8065 35.512 73.0863C35.1993 72.3661 35.0422 71.5696 35.0391 70.6985L35.0406 70.7001ZM37.3117 70.7265C37.3024 71.2243 37.3926 71.691 37.5808 72.1265C37.7691 72.5621 38.0257 72.9448 38.3524 73.273C38.6775 73.6028 39.0617 73.8594 39.5035 74.0461C39.9453 74.2328 40.4151 74.3261 40.9128 74.3261C41.4464 74.3261 41.9488 74.2234 42.4217 74.0196C42.8946 73.8159 43.2991 73.5312 43.6351 73.1656C43.9711 72.8016 44.2262 72.3785 44.3957 71.8979C44.5668 71.4172 44.6182 70.9101 44.5513 70.3765C44.4937 69.9145 44.3584 69.4821 44.1484 69.0823C43.9384 68.6825 43.6677 68.3356 43.338 68.0416C43.0082 67.7476 42.6317 67.5174 42.2102 67.3479C41.7886 67.1799 41.3468 67.0943 40.8848 67.0943C40.3871 67.0943 39.9188 67.1876 39.4786 67.3743C39.04 67.561 38.6588 67.8192 38.3353 68.149C38.0117 68.4788 37.7582 68.8645 37.5731 69.3094C37.388 69.7543 37.3008 70.2256 37.3102 70.7234L37.3117 70.7265Z" fill="#171768"/>
<path d="M55.3312 65.9003L54.1428 67.6317C54.1179 67.6145 54.0417 67.5679 53.9126 67.4963C53.7835 67.4248 53.6155 67.3517 53.4101 67.2786C53.2048 67.207 52.847 67.1277 52.5857 67.0748C51.9464 66.9472 50.2213 66.941 50.3053 68.1341C50.327 68.4483 50.4904 68.6225 50.7408 68.8279C50.9912 69.0332 51.3786 69.2245 51.7286 69.4019C52.0786 69.5792 52.483 69.7519 52.8766 69.9199C53.2701 70.0879 53.6419 70.2979 53.9919 70.5499C54.3419 70.8019 54.6484 71.1052 54.9097 71.4599C55.171 71.8146 55.3359 72.2625 55.4028 72.8039C55.4712 73.3639 55.4308 73.7854 55.2799 74.2474C55.129 74.7094 54.8848 75.1108 54.5457 75.4483C54.2066 75.7859 53.7757 76.0534 53.2546 76.2494C52.7335 76.4454 52.1719 76.5434 51.489 76.5434C50.7486 76.5434 50.0237 76.4237 49.3175 76.1825C48.6097 75.943 47.723 75.5914 47.2812 75.1294C47.3979 75.005 48.6486 73.4634 48.6688 73.4634C48.6719 73.4821 50.1839 74.4279 51.503 74.4279C51.9977 74.4279 52.371 74.3081 52.6884 74.0685C53.0041 73.829 53.1379 73.5086 53.0881 73.1026C53.0524 72.8086 52.9124 72.569 52.6712 72.3854C52.4301 72.2019 52.1361 72.0308 51.7877 71.8752C51.4408 71.7197 51.0706 71.5625 50.677 71.4054C50.2835 71.2499 49.809 71.0477 49.4404 70.7988C49.0717 70.5499 48.1726 69.9012 47.9626 68.467C47.7572 67.0717 48.4977 64.883 51.6959 64.883C52.2388 64.883 53.8706 64.8441 55.3359 65.9003H55.3312Z" fill="#171768"/>
<path d="M63.9348 65.9003L62.7463 67.6317C62.7214 67.6145 62.6452 67.5679 62.5161 67.4963C62.387 67.4248 62.219 67.3517 62.0137 67.2786C61.8083 67.207 61.4505 67.1277 61.1892 67.0748C60.5499 66.9472 58.8248 66.941 58.9088 68.1341C58.9305 68.4483 59.0939 68.6225 59.3443 68.8279C59.5948 69.0332 59.9821 69.2245 60.3321 69.4019C60.6821 69.5792 61.0865 69.7519 61.4801 69.9199C61.8737 70.0879 62.2454 70.2979 62.5954 70.5499C62.9454 70.8019 63.2519 71.1052 63.5132 71.4599C63.7745 71.8146 63.9394 72.2625 64.0063 72.8039C64.0748 73.3639 64.0343 73.7854 63.8834 74.2474C63.7325 74.7094 63.4883 75.1108 63.1492 75.4483C62.8101 75.7859 62.3792 76.0534 61.8581 76.2494C61.337 76.4454 60.7754 76.5434 60.0925 76.5434C59.3521 76.5434 58.6272 76.4237 57.921 76.1825C57.2132 75.943 56.3265 75.5914 55.8848 75.1294C56.0014 75.005 57.2521 73.4634 57.2723 73.4634C57.2754 73.4821 58.7874 74.4279 60.1065 74.4279C60.6012 74.4279 60.9745 74.3081 61.2919 74.0685C61.6077 73.829 61.7414 73.5086 61.6917 73.1026C61.6559 72.8086 61.5159 72.569 61.2748 72.3854C61.0337 72.2019 60.7397 72.0308 60.3912 71.8752C60.0443 71.7197 59.6741 71.5625 59.2805 71.4054C58.887 71.2499 58.4125 71.0477 58.0439 70.7988C57.6752 70.5499 56.7761 69.9012 56.5661 68.467C56.3608 67.0717 57.1012 64.883 60.2994 64.883C60.8423 64.883 62.4741 64.8441 63.9394 65.9003H63.9348Z" fill="#171768"/>
<path d="M76.9521 61.9314C76.8976 61.4927 77.019 61.1256 77.3207 60.8301C77.621 60.5345 77.957 60.3867 78.3288 60.3867C78.6321 60.3867 78.9214 60.5096 79.1967 60.7538C79.4721 60.998 79.6339 61.3061 79.679 61.6778C79.7334 62.1165 79.6105 62.4789 79.3087 62.7667C79.007 63.0545 78.6788 63.1976 78.3241 63.1976C78.0036 63.1976 77.7065 63.0794 77.4312 62.8429C77.1574 62.6065 76.9972 62.3032 76.9505 61.9314H76.9521ZM79.4627 76.3032H77.131L77.0921 65.1514H79.4239L79.4627 76.3032Z" fill="#171768"/>
<path d="M85.7597 76.2026H87.1519L92.2059 65.1504L89.5817 65.1535L86.4317 72.8271L83.2832 65.1535L80.6621 65.1504L85.7597 76.2026Z" fill="#171768"/>
<path d="M109.598 65.1799C107.358 65.1924 106.263 67.4199 106.1 67.8617C106.079 67.4153 106.05 66.8584 106.011 66.4057C105.972 65.9515 105.935 65.7011 105.902 65.1504H103.838L103.877 76.3022H106.209L106.205 71.1704C106.205 69.2944 107.448 67.6019 109.6 67.6019V65.1799H109.598Z" fill="#171768"/>
<path d="M75.2016 65.1799C72.9616 65.1924 71.8665 67.4199 71.7032 67.8617C71.683 67.4153 71.6534 66.8584 71.6145 66.4057C71.5756 65.9515 71.5383 65.7011 71.5056 65.1504H69.4414L69.4803 76.3022H71.8121L71.809 71.1704C71.809 69.2944 73.0519 67.6019 75.2032 67.6019V65.1799H75.2016Z" fill="#171768"/>
<path d="M34.686 65.1799C32.446 65.1924 31.3509 67.4199 31.1876 67.8617C31.1673 67.4153 31.1378 66.8584 31.0989 66.4057C31.06 65.9515 31.0227 65.7011 30.99 65.1504H28.9258L28.9647 76.3022H31.2964L31.2933 71.1704C31.2933 69.2944 32.5362 67.6019 34.6876 67.6019V65.1799H34.686Z" fill="#171768"/>
<path d="M96.0416 59.398C95.9451 55.4563 101.772 55.2494 107.59 55.5403C108.273 54.8667 108.794 54.1465 109.366 53.4791C106.528 52.6376 97.2502 49.318 94.1765 53.5243C91.8945 56.6463 95.7771 59.2285 96.0416 59.398Z" fill="#171768"/>
<path d="M128.251 40.0346L128.248 40.0408C128.248 40.0408 128.236 40.0362 128.229 40.0346C127.685 39.8542 127.13 39.7562 126.566 39.7344C127.137 39.753 127.699 39.851 128.251 40.0346Z" fill="#171768"/>
<path d="M113.272 65.0366C113.501 65.1642 113.679 65.34 113.81 65.564C113.941 65.788 114.005 66.04 114.005 66.3169C114.005 66.5938 113.941 66.8426 113.813 67.0744C113.686 67.3062 113.507 67.4882 113.278 67.622C113.049 67.7573 112.791 67.8242 112.505 67.8242C112.219 67.8242 111.968 67.7604 111.741 67.6329C111.514 67.5053 111.337 67.328 111.206 67.1009C111.075 66.8737 111.012 66.6217 111.012 66.3433C111.012 66.0649 111.075 65.8191 111.203 65.5904C111.331 65.3617 111.509 65.1797 111.738 65.046C111.967 64.9106 112.222 64.8438 112.505 64.8438C112.788 64.8438 113.043 64.9075 113.272 65.0351V65.0366ZM113.208 67.5115C113.417 67.3886 113.58 67.2206 113.697 67.0106C113.813 66.8006 113.871 66.5689 113.871 66.3184C113.871 66.068 113.812 65.8393 113.692 65.6324C113.574 65.4255 113.41 65.2653 113.203 65.1486C112.997 65.032 112.763 64.9744 112.503 64.9744C112.244 64.9744 112.015 65.0366 111.807 65.1595C111.598 65.2824 111.435 65.4489 111.32 65.6573C111.203 65.8657 111.145 66.096 111.145 66.3464C111.145 66.5969 111.205 66.8317 111.324 67.0355C111.443 67.2393 111.607 67.4011 111.816 67.5193C112.024 67.6375 112.255 67.6982 112.505 67.6982C112.755 67.6982 113 67.636 113.208 67.5131V67.5115ZM112.681 66.3977L113.179 67.2113H112.997L112.533 66.418H112.163V67.2113H112.015V65.4022H112.419C112.877 65.4022 113.105 65.5764 113.105 65.9264C113.105 66.1815 112.964 66.3386 112.682 66.3977H112.681ZM112.163 66.2904H112.519C112.81 66.2904 112.956 66.1691 112.956 65.928C112.956 65.7895 112.914 65.6884 112.829 65.6293C112.743 65.5686 112.615 65.5391 112.446 65.5391H112.163V66.292V66.2904Z" fill="#171768" stroke="#171768" stroke-width="0.62" stroke-miterlimit="10"/>
<path d="M126.672 52.3731C124.768 54.2304 122.852 55.9726 117.98 56.2557C117.98 56.2557 115.687 56.4377 112.605 56.0628H112.607L113.945 54.6348C118.355 55.6911 122.255 55.0486 124.579 53.2053C128.192 50.2575 128.052 45.8802 125.919 45.8973L128.247 40.0391C131.474 41.1388 131.431 47.7313 126.672 52.3731Z" fill="#171768"/>
<path d="M128.246 40.0394L125.919 45.8977H125.896C125.087 45.9163 123.271 46.1528 119.975 48.9139C117.772 50.7588 115.368 53.1574 113.927 54.6306C113.933 54.6321 113.938 54.6337 113.944 54.6352L112.606 56.0617H112.605C112.605 56.0617 112.591 56.0632 112.585 56.0617C112.585 56.0617 106.929 61.6243 100.977 61.797C100.809 61.8032 100.641 61.8032 100.473 61.797C99.9022 61.7846 99.3298 61.7192 98.7604 61.5917C98.7604 61.5917 95.5591 60.9368 94.2695 58.6937C94.8062 59.3486 96.0024 60.5852 98.9175 60.7486C98.9253 60.7486 98.9331 60.7486 98.9409 60.7486C98.9937 60.7517 99.0482 60.7532 99.1026 60.7548C99.2115 60.7563 99.3204 60.7563 99.4309 60.7548C99.4915 60.7532 99.5538 60.7501 99.6144 60.747C101.525 60.6381 103.584 59.6472 105.476 58.2006C107.045 57.0681 108.94 55.0148 110.044 53.5883C110.083 53.5386 112.611 50.2206 112.743 50.0386C116.785 44.591 121.677 39.8761 126.134 39.7299C126.277 39.7252 126.421 39.7252 126.564 39.7314C127.128 39.7532 127.683 39.8512 128.227 40.0317C128.234 40.0332 128.24 40.0363 128.246 40.0379V40.0394Z" fill="#171768"/>
</svg>
