<svg width="140" height="140" viewBox="0 0 140 140" fill="none" xmlns="http://www.w3.org/2000/svg">
<path d="M9.21289 72.8969C9.21289 72.8969 19.3691 74.1771 20.7349 74.7745C22.1007 75.3718 120.586 73.2376 132.96 73.3231C116.916 72.3851 16.9798 72.5547 9.21289 72.8969Z" fill="#171768"/>
<path d="M16.5034 59.1348H14.0269L12.0996 69.3485H20.0112L20.3861 67.2781H14.9961L16.5034 59.1348Z" fill="#171768"/>
<path d="M27.7881 62.3617C27.1441 61.783 26.2388 61.4766 25.167 61.4766C23.2319 61.4766 22.1368 62.3772 21.5566 63.1332C20.6497 64.317 20.5781 65.6097 20.5781 65.9768C20.5781 67.0828 20.9546 68.0068 21.667 68.6508C22.3219 69.2419 23.2428 69.567 24.2617 69.567C26.1968 69.567 27.2919 68.6663 27.8721 67.9103C28.779 66.7266 28.8506 65.4339 28.8506 65.0668C28.8506 63.9219 28.4835 62.987 27.7881 62.3617ZM24.4063 67.705C23.5135 67.705 22.9799 67.0688 22.9799 66.0048C22.9799 64.4601 23.8401 63.3401 25.0239 63.3401C25.9168 63.3401 26.4503 63.9763 26.4503 65.0403C26.4503 66.585 25.5901 67.705 24.4063 67.705Z" fill="#171768"/>
<path d="M33.3744 61.4766C32.3649 61.4766 31.5249 61.7192 30.8731 62.1999C30.3302 62.6121 29.9771 63.2017 29.8791 63.8597L29.8526 64.0417H32.1533L32.1766 63.9079C32.2544 63.4506 32.5857 63.2297 33.1893 63.2297C34.0977 63.2297 34.2144 63.5563 34.2144 63.841C34.2144 64.2003 33.978 64.3201 33.1146 64.3979L32.41 64.4663C30.2042 64.6919 29.1309 65.5879 29.1309 67.2026C29.1309 68.6399 30.1031 69.567 31.6089 69.567C32.3835 69.567 33.0742 69.2948 33.5377 68.8235V69.3461H35.9955V68.9961L35.9473 68.9495C35.8804 68.8841 35.7669 68.7363 35.7669 68.4703C35.7669 68.2977 35.7669 68.1826 35.8213 67.9197L36.4249 64.6546C36.4762 64.3855 36.5275 64.0666 36.5275 63.7446C36.5275 62.3446 35.3189 61.4766 33.3744 61.4766ZM33.866 65.9721C33.7462 67.047 33.1364 67.705 32.2404 67.705C31.878 67.705 31.4455 67.5821 31.4455 66.9972C31.4455 66.333 32.1984 66.1883 33.2609 66.0577C33.474 66.0312 33.6793 66.0063 33.866 65.9721Z" fill="#171768"/>
<path d="M42.8997 61.5059C41.9695 61.5059 41.1699 61.8465 40.5166 62.5185L40.7126 61.6987H38.4975L37.0586 69.3505H39.4215L40.1495 65.4834C40.3144 64.5579 40.7873 63.4534 42.1095 63.4534C42.237 63.4534 42.8764 63.4907 42.8764 64.2312C42.8764 64.4101 42.8422 64.6683 42.7644 65.0696L41.9228 69.3521H44.2873L45.1164 65.0727C45.2206 64.5174 45.2626 64.2327 45.2626 63.6525C45.2626 62.1716 44.0757 61.5074 42.8997 61.5074V61.5059Z" fill="#171768"/>
<path d="M51.4039 59.1348H47.7187L45.793 69.3501H48.285L48.9305 65.9045H50.8579C52.2579 65.9045 53.3483 65.567 54.0981 64.9012C54.8307 64.251 55.201 63.3239 55.201 62.1479C55.201 61.2892 54.9007 60.5612 54.3345 60.0432C53.6765 59.4412 52.6903 59.1363 51.4023 59.1363L51.4039 59.1348ZM51.0305 63.8761H49.321L49.8343 61.1648H51.5034C52.401 61.1648 52.8007 61.5319 52.8007 62.3548C52.8007 63.3223 52.1552 63.8761 51.029 63.8761H51.0305Z" fill="#171768"/>
<path d="M59.4467 61.4766C58.4371 61.4766 57.5971 61.7192 56.9453 62.1999C56.4025 62.6121 56.0493 63.2017 55.9513 63.8597L55.9249 64.0417H58.2256L58.2489 63.9079C58.3267 63.4506 58.658 63.2297 59.2616 63.2297C60.17 63.2297 60.2867 63.5563 60.2867 63.841C60.2867 64.2003 60.0502 64.3201 59.1869 64.3979L58.4822 64.4663C56.2765 64.6919 55.2031 65.5879 55.2031 67.2026C55.2031 68.6399 56.1753 69.567 57.6811 69.567C58.4558 69.567 59.1465 69.2948 59.61 68.8235V69.3461H62.0678V68.9961L62.0196 68.9495C61.9527 68.8841 61.8391 68.7363 61.8391 68.4703C61.8391 68.2977 61.8391 68.1826 61.8936 67.9197L62.4971 64.6546C62.5485 64.3855 62.5998 64.0666 62.5998 63.7446C62.5998 62.3446 61.3911 61.4766 59.4467 61.4766ZM59.9382 65.9721C59.8185 67.047 59.2087 67.705 58.3127 67.705C57.9502 67.705 57.5178 67.5821 57.5178 66.9972C57.5178 66.333 58.2707 66.1883 59.3331 66.0577C59.5462 66.0312 59.7516 66.0063 59.9382 65.9721Z" fill="#171768"/>
<path d="M69.376 61.6988L66.3754 66.5568L65.9289 61.6988H63.5894L64.6067 68.6895C64.6658 69.0815 64.6907 69.3428 64.6907 69.5357C64.6907 70.0599 63.7947 70.3259 63.286 70.3259C63.1678 70.3259 63.0371 70.3135 62.9111 70.301C62.8474 70.2948 62.7851 70.2886 62.7245 70.2839L62.5642 70.2715L62.3418 72.1257L62.488 72.1568C62.7509 72.2128 63.0231 72.2704 63.4136 72.2704C64.8214 72.2704 66.0502 71.5704 66.772 70.0973L71.8742 61.6973H69.3745L69.376 61.6988Z" fill="#171768"/>
<path d="M80.9174 61.464C79.5811 61.464 78.8703 62.1983 78.4907 62.668C78.1003 61.8669 77.4454 61.478 76.4949 61.478C75.5445 61.478 74.8103 61.9774 74.328 62.472L74.5054 61.6974H72.3354L70.8965 69.3492H73.2018L73.9438 65.4307C74.0683 64.8318 74.4852 63.4396 75.6612 63.4225C76.0252 63.4225 76.2989 63.6792 76.2989 64.0198C76.2989 64.2003 76.2709 64.4009 76.1869 64.8178L75.3174 69.3476H77.6663L78.3507 65.6734C78.5389 64.6467 78.99 63.4209 80.0665 63.4209C80.4523 63.4209 80.7323 63.6729 80.7323 64.0183C80.7323 64.1987 80.7043 64.3994 80.6203 64.8163L79.7663 69.346H82.0996L82.9583 64.8303C83.0189 64.4803 83.0905 63.9825 83.0905 63.7289C83.0905 61.4858 81.0029 61.4609 80.9143 61.4609L80.9174 61.464Z" fill="#171768"/>
<path d="M88.0278 61.4766C85.3087 61.4766 83.8418 63.7321 83.8418 65.8539C83.8418 68.181 85.1438 69.5686 87.3247 69.5686C88.314 69.5686 89.2054 69.3103 89.9022 68.8219C90.5027 68.4003 90.9538 67.8092 91.1716 67.1575L91.2416 66.949H88.6874L88.6407 67.033C88.468 67.3441 88.0465 67.7066 87.4242 67.7066C86.4878 67.7066 86.1549 67.1092 86.1549 66.599C86.1549 66.4932 86.158 66.4186 86.1627 66.3595H91.3458L91.3754 66.235C91.4578 65.8881 91.4951 65.5288 91.4951 65.0699C91.4951 62.4223 89.7031 61.4781 88.0262 61.4781L88.0278 61.4766ZM87.8847 63.3401C88.8414 63.3401 89.182 63.9763 89.182 64.5721V64.6872H86.3665C86.5407 64.0059 87.0151 63.3401 87.8847 63.3401Z" fill="#171768"/>
<path d="M97.3372 61.5059C96.407 61.5059 95.6074 61.8465 94.9541 62.5185L95.1501 61.6987H92.935L91.4961 69.3505H93.859L94.587 65.4834C94.7519 64.5579 95.2248 63.4534 96.547 63.4534C96.6745 63.4534 97.3139 63.4907 97.3139 64.2312C97.3139 64.4101 97.2796 64.6683 97.2019 65.0696L96.3603 69.3521H98.7248L99.5539 65.0727C99.6581 64.5174 99.7001 64.2327 99.7001 63.6525C99.7001 62.1716 98.5132 61.5074 97.3372 61.5074V61.5059Z" fill="#171768"/>
<path d="M104.617 59.5898L102.074 60.7254L101.881 61.6992H100.806L100.451 63.3698H101.549L100.923 66.957C100.823 67.4858 100.79 67.6958 100.79 67.895C100.79 68.8905 101.526 69.4614 102.809 69.4614C103.343 69.4614 103.698 69.3774 104.074 69.2763L104.178 69.2483L104.454 67.363L104.234 67.3925C104.158 67.4034 104.079 67.4221 103.996 67.4407C103.85 67.475 103.685 67.5138 103.497 67.5138C103.225 67.5138 103.205 67.4267 103.205 67.3023C103.205 67.2074 103.231 67.041 103.254 66.8932C103.262 66.8481 103.268 66.803 103.274 66.7641L103.883 63.3683H105.003L105.305 61.6976H104.216L104.617 59.5898Z" fill="#171768"/>
<path d="M110.695 59.1348H107.01L105.084 69.3501H107.576L108.222 65.9045H110.149C111.549 65.9045 112.639 65.567 113.389 64.9012C114.122 64.251 114.492 63.3239 114.492 62.1479C114.492 61.2892 114.192 60.5612 113.626 60.0432C112.968 59.4412 111.981 59.1363 110.693 59.1363L110.695 59.1348ZM110.322 63.8761H108.612L109.125 61.1648H110.794C111.692 61.1648 112.092 61.5319 112.092 62.3548C112.092 63.3223 111.446 63.8761 110.32 63.8761H110.322Z" fill="#171768"/>
<path d="M120.043 61.4922H120.033C119.114 61.4922 118.57 61.7349 117.924 62.5406L118.136 61.6991H115.933L114.494 69.3509H116.873L117.498 65.9022C117.933 63.8955 118.672 63.7275 119.33 63.7275C119.529 63.7275 119.691 63.7695 119.833 63.8069C119.869 63.8162 119.903 63.8255 119.935 63.8333L120.114 63.8769L120.467 61.5171L120.043 61.4937V61.4922Z" fill="#171768"/>
<path d="M127.261 62.3617C126.617 61.783 125.711 61.4766 124.64 61.4766C122.705 61.4766 121.609 62.3772 121.029 63.1332C120.122 64.317 120.051 65.6097 120.051 65.9768C120.051 67.0828 120.427 68.0068 121.14 68.6508C121.795 69.2419 122.715 69.567 123.734 69.567C125.669 69.567 126.765 68.6663 127.345 67.9103C128.252 66.7266 128.323 65.4339 128.323 65.0668C128.323 63.9219 127.956 62.987 127.261 62.3617ZM123.879 67.705C122.986 67.705 122.453 67.0688 122.453 66.0048C122.453 64.4601 123.313 63.3401 124.497 63.3401C125.389 63.3401 125.923 63.9763 125.923 65.0403C125.923 66.585 125.063 67.705 123.879 67.705Z" fill="#171768"/>
</svg>
