<svg width="140" height="140" viewBox="0 0 140 140" fill="none" xmlns="http://www.w3.org/2000/svg">
<path d="M13.1746 60.3959C13.1746 60.7583 13.1824 61.0539 13.1979 61.0539C14.3988 61.225 14.8904 61.4319 14.9884 61.8006C15.021 61.9063 15.0444 65.4328 15.0537 69.6219C15.0615 78.0514 15.0864 77.7061 14.5528 77.927C14.405 77.9923 14.1017 78.0654 13.8715 78.0981C13.1404 78.1961 13.173 78.1541 13.173 78.8868V79.5354H23.9359V78.2288L23.4584 78.179C22.4644 78.0732 21.9059 77.9581 21.4875 77.7683C21.1344 77.6034 21.027 77.5054 20.8948 77.2177C20.747 76.8972 20.7299 76.667 20.7299 74.4177V71.977H21.8639C23.9017 71.977 25.5273 71.7717 26.7359 71.361C28.979 70.5972 30.2764 69.1832 30.6777 67.0894C30.8006 66.4486 30.7757 64.8557 30.6279 64.2957C30.0773 62.1505 28.3179 60.623 25.7559 60.0646C24.443 59.7783 23.4459 59.7363 18.2566 59.7363H13.1715V60.3943H13.1699L13.1746 60.3959ZM22.3601 61.3401C23.4693 61.603 24.2097 62.1786 24.7184 63.1803C25.129 64.0032 25.2768 64.6908 25.269 65.817C25.2613 68.7259 23.841 70.3343 21.3008 70.3343H20.7346V61.2157H21.293C21.5948 61.2157 22.0708 61.2748 22.3601 61.3401Z" fill="#171768"/>
<path d="M109.513 61.2979C108.298 62.6932 106.63 63.9595 105.149 64.6252L104.441 64.9379V65.9817H105.994L106.027 71.1321C106.059 76.8348 106.059 76.8254 106.593 77.835C107.291 79.1417 108.433 79.7001 110.421 79.7001C111.555 79.7001 112.369 79.5446 113.1 79.1743C113.79 78.8383 114.627 78.1057 115.08 77.4492L115.393 76.9888L115.172 76.6606C115.057 76.4801 114.934 76.3323 114.909 76.3323C114.876 76.3323 114.588 76.4646 114.251 76.6279C113.767 76.8659 113.52 76.9406 113.044 76.9732C112.247 77.023 111.852 76.8348 111.581 76.2748L111.384 75.8797L111.361 70.9268L111.337 65.9817H114.632V64.3375H111.347V60.4766H110.222L109.513 61.2995V61.2979Z" fill="#171768"/>
<path d="M34.5208 64.8548L31.5792 65.6839V66.5302L32.3586 67.0077L33.1379 67.4759V72.5113C33.1379 75.6504 33.1052 77.6384 33.0555 77.7691C32.9575 78.0164 32.6199 78.1797 32.0039 78.2622L31.5684 78.3182L31.5917 78.9015L31.615 79.4942L36.1168 79.5175L40.6108 79.5346V78.3104L40.3075 78.2606C39.0008 78.0475 38.6648 77.8748 38.4921 77.3662C38.419 77.1282 38.3941 76.1342 38.4097 73.2595L38.433 69.4717L39.049 69.1591C39.8781 68.7484 40.5532 68.6162 42.2364 68.5508L43.6488 68.501L43.6317 66.4804L43.6084 64.4597L43.2008 64.2575C42.8648 64.0864 42.675 64.0522 42.1244 64.0599C41.541 64.0599 41.3839 64.0926 40.9172 64.3228C40.0057 64.7739 39.3741 65.6202 38.6835 67.3142L38.4206 67.9457L38.4439 67.1493C38.461 66.7137 38.4844 65.8271 38.4999 65.1784L38.5326 64.0117L37.9897 64.0195C37.5712 64.0288 36.7841 64.2186 34.5161 64.8579L34.5208 64.8548Z" fill="#171768"/>
<path d="M49.2411 64.1005C47.096 64.3214 45.388 65.2189 44.8124 66.4167C44.5091 67.042 44.4173 67.8867 44.5916 68.47C44.7564 69.0285 45.1422 69.506 45.6182 69.7098C45.9309 69.8576 45.9807 69.8576 47.4833 69.6445C48.3296 69.5294 49.0358 69.4236 49.0529 69.3971C49.07 69.38 49.0296 68.946 48.9471 68.4358C48.7589 67.0965 48.8818 66.2082 49.3329 65.6918C49.9084 65.0338 50.9911 65.1583 51.3956 65.922C51.576 66.2425 51.5838 66.3902 51.6258 68.2056L51.6662 70.1531L49.2831 70.9916C47.9764 71.452 46.5313 72.0011 46.0787 72.2236C44.3209 73.0698 43.5742 74.1789 43.5742 75.9196C43.5742 78.0227 44.7907 79.3869 46.844 79.5985C47.7649 79.6965 48.8476 79.5985 49.49 79.3605C50.1153 79.1302 51.0269 78.4987 51.4376 77.9978L51.7736 77.57L51.9944 78.0134C52.3631 78.7771 53.1191 79.278 54.1722 79.4414C54.7384 79.5394 62.2736 79.5736 62.5038 79.4818C62.6018 79.4414 62.636 79.3107 62.636 78.8736V78.3151L62.2082 78.2591C61.1162 78.1114 60.6713 77.6011 61.0338 76.8965C61.1069 76.7642 61.6498 76.002 62.2502 75.1963C62.8507 74.3905 63.392 73.6438 63.4667 73.538C63.5398 73.4229 63.6222 73.3498 63.6471 73.3731C63.7856 73.5209 66.1842 76.8638 66.2838 77.0458C66.6369 77.7442 66.4067 78.0818 65.4609 78.2374L64.9273 78.3276L64.9507 78.9109L64.974 79.4943L69.3109 79.5176L73.64 79.5347V78.3183L73.2122 78.1129C72.9742 77.99 72.646 77.7676 72.4718 77.6027C71.9787 77.1251 67.7071 71.1627 67.7724 71.0476C67.8051 70.9978 68.6342 69.8965 69.622 68.6069C71.4871 66.1662 71.6847 65.9609 72.5138 65.6654L72.8996 65.5269V64.3354H67.7258V65.5331L68.2033 65.6311C68.9827 65.796 69.23 66.1974 68.9173 66.7978C68.7291 67.1665 66.822 69.7129 66.7396 69.7129C66.6338 69.7129 64.9491 67.3298 64.7096 66.8631C64.6038 66.6422 64.5213 66.3374 64.5213 66.1818C64.5213 65.9111 64.554 65.8691 64.8744 65.7307C65.0627 65.6405 65.3427 65.5658 65.4904 65.5658H65.7533V64.3338H57.3751V65.5316L57.7438 65.712C57.9491 65.81 58.2447 66.0325 58.4096 66.1958C58.5651 66.3669 59.5762 67.7234 60.6527 69.2198L62.608 71.9218L60.5376 74.6829C58.2944 77.6649 57.7282 78.3307 57.4902 78.2825C57.4 78.2654 57.2429 78.0771 57.1278 77.8469L56.9224 77.4362L56.8727 72.5891C56.8322 68.2351 56.8167 67.6922 56.6844 67.2909C56.0389 65.3122 54.5362 64.3354 51.7751 64.088C50.7064 63.9978 50.232 63.9978 49.238 64.0974L49.2411 64.1005ZM51.6242 74.0576V76.5465L51.3287 76.6849C50.26 77.1951 49.1758 76.7347 48.832 75.6162C48.6344 74.9676 48.6189 74.0638 48.7993 73.4556C49.0047 72.7478 49.4309 72.3698 50.5167 71.9451C51.0176 71.7398 51.4702 71.5765 51.5262 71.5765C51.5993 71.5687 51.6242 72.1194 51.6242 74.0591V74.0576Z" fill="#171768"/>
<path d="M79.2075 64.1016C77.2039 64.3971 75.4617 65.4238 74.3106 66.984C73.9419 67.5004 73.3819 68.412 73.357 68.5536C73.3492 68.6096 73.301 68.7247 73.2512 68.8164C73.0863 69.1198 72.8888 69.8431 72.9386 69.9256C72.9619 69.966 72.9557 70.008 72.9152 70.008C72.783 70.008 72.6523 71.1824 72.6523 72.2916C72.6601 75.3809 74.015 77.7873 76.423 79.0038C77.4326 79.5047 78.4032 79.7022 79.9635 79.7022C82.0821 79.7022 83.4059 79.234 84.5632 78.0673C85.4343 77.1962 86.1001 76.0047 86.363 74.8722C86.4283 74.5689 86.419 74.5518 86.1095 74.3713L85.789 74.1909L85.6179 74.4211C84.9926 75.2502 83.9332 75.9082 82.8832 76.1291C79.9261 76.7544 77.7406 74.9453 77.4528 71.6273L77.3968 70.9958H86.3195L86.2697 69.8618C86.2137 68.5722 86.0892 68.0387 85.621 67.0524C85.3581 66.5018 85.1528 66.2233 84.6597 65.7302C84.3143 65.3942 83.8306 64.9991 83.5832 64.8591C82.4026 64.1933 80.6526 63.8916 79.2059 64.1047L79.2075 64.1016ZM80.2512 65.4144C81.1301 65.6524 81.5983 66.7118 81.7383 68.7418L81.7943 69.5973H77.4481L77.5135 68.972C77.6612 67.6171 77.9972 66.5889 78.4903 66.0304C78.8528 65.6198 79.041 65.4969 79.4268 65.3989C79.7908 65.3164 79.8888 65.3164 80.2497 65.416L80.2512 65.4144Z" fill="#171768"/>
<path d="M90.0536 64.8556L87.1121 65.6847V66.5309L87.8914 67.0085L88.6707 67.4767V72.5276C88.6707 78.1058 88.6878 77.958 88.1605 78.1307C88.0127 78.1711 87.7094 78.2365 87.4947 78.2691L87.0996 78.3189L87.1229 78.9116L87.1463 79.4949L91.2794 79.5183L95.4032 79.5354V78.3189L95.0578 78.2629C94.8603 78.2396 94.5803 78.1727 94.4325 78.1245C93.9161 77.9689 93.9223 78.0265 93.9223 72.652V67.8049L94.3174 67.64C95.4514 67.1563 96.7892 67.0894 97.3896 67.4923C97.5374 67.5825 97.7427 67.8283 97.8501 68.0351L98.0305 68.3976V77.7216L97.8501 77.9347C97.7023 78.0996 97.5296 78.1649 97.1034 78.238L96.5449 78.3283L96.5683 78.9116L96.5916 79.4949H104.889L104.912 78.9023L104.936 78.3189L104.5 78.2629C103.999 78.1976 103.579 78.042 103.481 77.8849C103.441 77.8196 103.383 75.4365 103.358 72.5945C103.318 67.9854 103.302 67.3616 103.17 66.926C102.734 65.456 101.775 64.518 100.328 64.1649C99.6965 64.0094 98.2747 64.0327 97.6167 64.2054C96.4656 64.5009 95.4218 65.1434 94.4869 66.1203L93.9363 66.6865L93.9689 65.6925C93.9923 65.1496 94.0187 64.5507 94.0343 64.3531L94.0669 64.0078L93.5163 64.0156C93.1009 64.0296 92.3029 64.2271 90.0458 64.8603L90.0536 64.8556Z" fill="#171768"/>
<path d="M116.027 46.0429C114.664 46.2825 113.631 47.2687 113.328 48.6189C113.287 48.7931 113.283 48.8818 113.283 49.2971C113.283 49.7125 113.291 49.8011 113.328 49.9754C113.62 51.2649 114.572 52.2231 115.868 52.5218C116.047 52.5623 116.128 52.5669 117.111 52.5731L118.161 52.5809V55.8305H117.389C116.518 55.832 116.167 55.8507 115.877 55.9114C114.608 56.1758 113.619 57.1636 113.326 58.4578C113.286 58.632 113.281 58.7207 113.281 59.136C113.281 59.5514 113.289 59.64 113.326 59.8143C113.619 61.11 114.582 62.0729 115.877 62.3654C116.052 62.4058 116.14 62.4105 116.556 62.4105C116.971 62.4105 117.06 62.4027 117.234 62.3654C118.523 62.0729 119.482 61.1209 119.78 59.8251C119.821 59.6463 119.825 59.5654 119.832 58.5823L119.839 57.5323H123.086L123.097 58.5091C123.108 59.3756 123.114 59.5156 123.151 59.7163C123.273 60.3758 123.595 60.9949 124.066 61.4647C124.512 61.9111 125.079 62.2191 125.713 62.3623C125.892 62.4027 125.976 62.4105 126.393 62.4105C126.81 62.4105 126.897 62.4027 127.071 62.3654C128.367 62.0729 129.33 61.11 129.622 59.8143C129.663 59.64 129.667 59.5514 129.667 59.136C129.667 58.7207 129.66 58.632 129.622 58.4578C129.33 57.162 128.342 56.1774 127.071 55.9114C126.78 55.8507 126.432 55.8336 125.562 55.8305H124.789V52.5809L125.841 52.5731C126.822 52.5654 126.902 52.5623 127.081 52.5218C128.376 52.22 129.328 51.2649 129.621 49.9754C129.661 49.8011 129.666 49.7125 129.666 49.2971C129.666 48.7823 129.643 48.6267 129.521 48.258C129.154 47.1583 128.23 46.3323 127.071 46.0709C126.897 46.0305 126.808 46.0258 126.393 46.0258C125.978 46.0258 125.892 46.0336 125.713 46.074C124.383 46.3711 123.391 47.3963 123.15 48.72C123.114 48.9207 123.106 49.0623 123.095 49.9256L123.084 50.9056H119.836L119.829 49.854C119.821 48.8725 119.818 48.7931 119.777 48.6143C119.48 47.3247 118.52 46.3649 117.24 46.0771C116.997 46.0227 116.269 46.004 116.025 46.0476L116.027 46.0429ZM116.909 47.7525C117.47 47.8956 117.914 48.3389 118.057 48.9005C118.093 49.0514 118.097 49.1323 118.097 49.952V50.8387H117.211C116.391 50.8387 116.31 50.8356 116.159 50.7983C115.456 50.6194 114.969 50.0003 114.969 49.2769C114.969 48.5536 115.448 47.9391 116.15 47.7571C116.367 47.7011 116.691 47.698 116.91 47.754L116.909 47.7525ZM126.79 47.7525C127.493 47.9314 127.98 48.552 127.98 49.2738C127.98 49.9956 127.496 50.6178 126.79 50.7951C126.639 50.8309 126.558 50.8356 125.738 50.8356H124.851V49.9489C124.851 49.1291 124.855 49.0483 124.892 48.8974C125.032 48.3389 125.471 47.894 126.032 47.7525C126.248 47.6996 126.573 47.698 126.79 47.7525ZM123.133 54.2143V55.8709H119.796V52.5576H123.133V54.2143ZM118.099 58.4671C118.099 59.2978 118.096 59.3787 118.058 59.528C117.78 60.6278 116.478 61.0805 115.577 60.3929C114.997 59.9465 114.803 59.1283 115.128 58.4671C115.367 57.9756 115.853 57.6427 116.399 57.5914C116.486 57.5836 116.904 57.5743 117.329 57.5727H118.1L118.099 58.4656V58.4671ZM126.788 57.6303C127.502 57.82 127.98 58.4298 127.98 59.1563C127.98 60.0258 127.286 60.7196 126.416 60.7196C125.693 60.7196 125.072 60.2358 124.895 59.5296C124.859 59.3787 124.855 59.2978 124.855 58.464V57.5649L125.741 57.5727C126.561 57.5836 126.636 57.5898 126.79 57.6287L126.788 57.6303Z" fill="#171768"/>
</svg>
