<svg width="140" height="140" viewBox="0 0 140 140" fill="none" xmlns="http://www.w3.org/2000/svg">
<path d="M25.5404 77.223C23.9086 76.4779 22.6222 75.4668 21.6702 74.1819C20.7197 72.9017 20.2142 71.469 20.1504 69.8839H25.7519C25.8468 70.993 26.3757 71.9201 27.3433 72.6621C28.3077 73.4072 29.5211 73.7775 30.9771 73.7775C32.4331 73.7775 33.6728 73.4835 34.5128 72.897C35.3528 72.3106 35.7697 71.5592 35.7697 70.6415C35.7697 69.6599 35.3015 68.9319 34.3682 68.4575C33.4348 67.9815 31.9555 67.4604 29.9286 66.8895C27.9671 66.3497 26.3695 65.827 25.1328 65.3215C23.8993 64.8159 22.8306 64.0412 21.9268 62.9959C21.0231 61.9506 20.5751 60.5755 20.5751 58.8675C20.5751 57.4752 20.9857 56.2012 21.8086 55.0455C22.6315 53.8897 23.8106 52.9797 25.3444 52.3155C26.8782 51.6512 28.6437 51.3184 30.6395 51.3184C33.6153 51.3184 36.0124 52.0697 37.8324 53.5739C39.6524 55.0766 40.6262 57.1268 40.7506 59.7215H35.3373C35.2424 58.5517 34.7679 57.6184 33.9108 56.9199C33.0553 56.2261 31.9026 55.8746 30.4451 55.8746C28.9875 55.8746 27.9266 56.1437 27.1691 56.6804C26.4099 57.2201 26.0304 57.931 26.0304 58.8177C26.0304 59.5161 26.2839 60.0979 26.7895 60.5739C27.2951 61.0499 27.9126 61.4201 28.6406 61.6893C29.3686 61.9584 30.4435 62.299 31.8699 62.7113C33.7677 63.2168 35.3279 63.7332 36.5491 64.2544C37.7655 64.777 38.8217 65.5455 39.7068 66.5566C40.5935 67.5708 41.0524 68.9164 41.0819 70.5917C41.0819 72.0819 40.6713 73.4104 39.8484 74.5786C39.0255 75.7484 37.8635 76.6677 36.3593 77.3319C34.8566 77.9961 33.0895 78.329 31.0642 78.329C29.0388 78.329 27.1644 77.9588 25.5326 77.2137L25.5388 77.2199L25.5404 77.223Z" fill="#171768"/>
<path d="M62.7156 52.6072C64.3442 53.4627 65.6182 54.7274 66.5376 56.4058C67.4538 58.0843 67.9127 60.1096 67.9127 62.4834V77.9145H62.546V63.2923C62.546 60.9496 61.9596 59.1529 60.7898 57.9023C59.62 56.6516 58.0194 56.0278 55.994 56.0278C53.9687 56.0278 52.3602 56.6547 51.1734 57.9023C49.9865 59.1529 49.3938 60.9496 49.3938 63.2923V77.9145H43.9805V51.7516H49.3938V54.7445C50.2805 53.6696 51.4129 52.8296 52.788 52.226C54.1631 51.6256 55.63 51.3223 57.1794 51.3223C59.2358 51.3223 61.0791 51.75 62.7109 52.6025L62.714 52.6056L62.7156 52.6072Z" fill="#171768"/>
<path d="M72.4032 57.7327C73.4952 55.7074 74.9823 54.1332 76.8661 53.0069C78.7499 51.8838 80.8297 51.3223 83.1086 51.3223C85.165 51.3223 86.9617 51.7267 88.4986 52.5325C90.0323 53.3414 91.2597 54.3463 92.179 55.5487V51.75H97.639V77.9098H92.179V74.0163C91.2628 75.2498 90.0121 76.278 88.427 77.104C86.8435 77.9269 85.039 78.3376 83.0137 78.3376C80.7659 78.3376 78.7095 77.762 76.8412 76.6047C74.9746 75.4489 73.4937 73.8343 72.4017 71.7607C71.3097 69.6872 70.7637 67.3383 70.7637 64.7094C70.7637 62.0805 71.3097 59.7549 72.4017 57.728V57.7312L72.4032 57.7327ZM91.0637 60.1065C90.3186 58.778 89.3479 57.7638 88.1455 57.0654C86.9415 56.3716 85.6441 56.02 84.2519 56.02C82.8597 56.02 81.5623 56.3607 80.3583 57.042C79.1543 57.7234 78.1806 58.7205 77.4401 60.0318C76.695 61.3463 76.3248 62.9034 76.3248 64.7109C76.3248 66.5185 76.695 68.0989 77.4401 69.46C78.1852 70.8212 79.1652 71.8572 80.3832 72.5712C81.5997 73.282 82.8908 73.6398 84.2534 73.6398C85.6161 73.6398 86.943 73.2929 88.147 72.5945C89.351 71.9007 90.3248 70.8787 91.0652 69.5332C91.8103 68.1876 92.1806 66.6149 92.1806 64.8074C92.1806 62.9998 91.8057 61.4365 91.0652 60.108V60.1049L91.0637 60.1065Z" fill="#171768"/>
<path d="M110.883 52.5558C112.463 51.7329 114.253 51.3223 116.249 51.3223C118.528 51.3223 120.606 51.8854 122.492 53.0069C124.375 54.13 125.856 55.7074 126.931 57.7327C128.008 59.758 128.546 62.0836 128.546 64.714C128.546 67.3445 128.008 69.6918 126.931 71.7654C125.856 73.8389 124.375 75.4536 122.492 76.6094C120.608 77.7652 118.528 78.3423 116.249 78.3423C114.253 78.3423 112.48 77.9378 110.931 77.132C109.38 76.3263 108.114 75.3214 107.132 74.1189V90.3558H101.719V51.7516H107.132V55.5969C108.048 54.3929 109.299 53.3818 110.884 52.5605V52.5574L110.883 52.5558ZM121.921 60.0318C121.177 58.7174 120.196 57.7234 118.979 57.042C117.76 56.3607 116.455 56.02 115.062 56.02C113.67 56.02 112.41 56.3669 111.192 57.0654C109.973 57.7638 108.991 58.7749 108.249 60.1065C107.504 61.4349 107.134 63.0014 107.134 64.8058C107.134 66.6103 107.504 68.186 108.249 69.5316C108.994 70.8772 109.974 71.8976 111.192 72.5929C112.409 73.2914 113.7 73.6383 115.062 73.6383C116.425 73.6383 117.758 73.2805 118.979 72.5696C120.197 71.8587 121.18 70.8196 121.921 69.4585C122.666 68.0974 123.038 66.5154 123.038 64.7094C123.038 62.9034 122.667 61.3447 121.921 60.0303V60.0334V60.0318Z" fill="#171768"/>
<path d="M20.954 51.279C21.9153 51.279 22.6931 50.4997 22.6931 49.5399C22.6931 48.5801 21.9137 47.8008 20.954 47.8008C19.9942 47.8008 19.2148 48.5801 19.2148 49.5399C19.2148 50.4997 19.9942 51.279 20.954 51.279Z" fill="#171768"/>
<path d="M14.3028 61.1354C13.7303 61.109 13.1906 60.7652 12.9417 60.2021C12.587 59.4072 12.9448 58.4801 13.7412 58.1254L15.8039 57.2092C16.5988 56.8592 17.5259 57.2123 17.8806 58.0088C18.2352 58.8036 17.8774 59.7308 17.081 60.0854L15.0183 61.0016C14.785 61.1059 14.5423 61.1463 14.3043 61.137L14.3028 61.1354Z" fill="#171768"/>
<path d="M26.0316 49.2915C25.96 49.2884 25.8931 49.2806 25.8231 49.2682C24.9707 49.1095 24.4045 48.2913 24.5585 47.4373L25.3611 43.0615C25.5167 42.2059 26.338 41.6428 27.192 41.7968C28.0445 41.9555 28.6107 42.7737 28.4567 43.6277L27.654 48.0035C27.5093 48.7891 26.8078 49.3288 26.0331 49.2915H26.0316Z" fill="#171768"/>
<path d="M17.5851 55.1251C17.4171 55.1189 17.2444 55.0816 17.0764 55.0131L11.9057 52.9396C11.0999 52.616 10.7095 51.6998 11.0299 50.894C11.3535 50.0882 12.2666 49.6978 13.0755 50.0182L18.2462 52.0918C19.0519 52.4153 19.4424 53.3316 19.1219 54.1373C18.8653 54.7782 18.2353 55.1547 17.5851 55.1251Z" fill="#171768"/>
<path d="M17.9722 47.2808C17.5039 47.2574 17.0513 47.0272 16.7619 46.6134L14.9155 43.9877C14.4162 43.2768 14.5857 42.2952 15.2966 41.7974C16.0075 41.2981 16.989 41.4708 17.4868 42.1786L19.3333 44.8043C19.8326 45.5152 19.663 46.4968 18.9522 46.9946C18.655 47.203 18.3082 47.2948 17.9706 47.2777V47.2808H17.9722Z" fill="#171768"/>
<path d="M33.5221 87.0958H32.049V93.7536H29.3112V87.0958H28.3203V84.8247H29.3112V84.568C29.3112 83.4698 29.6254 82.6329 30.2554 82.0636C30.8854 81.4942 31.8063 81.208 33.0228 81.208C33.225 81.208 33.3728 81.2142 33.4708 81.2251V83.5445C32.9481 83.5102 32.581 83.588 32.3648 83.7669C32.1532 83.9489 32.0443 84.2725 32.0443 84.7438V84.8247H33.5174V87.0958H33.5205H33.5221Z" fill="#171768"/>
<path d="M36.698 83.4684C36.3946 83.1852 36.2422 82.8352 36.2422 82.4199C36.2422 82.0046 36.3946 81.6375 36.698 81.3544C37.0013 81.0712 37.3964 80.9297 37.874 80.9297C38.3515 80.9297 38.7295 81.0712 39.0329 81.3544C39.3362 81.6375 39.4871 81.9921 39.4871 82.4199C39.4871 82.8477 39.3362 83.1852 39.0329 83.4684C38.7295 83.7515 38.3422 83.893 37.874 83.893C37.4057 83.893 37.0013 83.7515 36.698 83.4684ZM39.2366 84.8201V93.749H36.4989V84.8201H39.2366Z" fill="#171768"/>
<path d="M50.4434 85.7437C51.0672 86.4219 51.3799 87.3522 51.3799 88.5375V93.7548H48.6592V88.9077C48.6592 88.3104 48.5037 87.8453 48.1941 87.5155C47.8845 87.1857 47.4692 87.0208 46.9465 87.0208C46.4239 87.0208 46.0054 87.1857 45.699 87.5155C45.3894 87.8453 45.2339 88.3104 45.2339 88.9077V93.7548H42.4961V84.8259H45.2339V86.0097C45.5108 85.6146 45.8841 85.3019 46.3523 85.0733C46.8205 84.8446 47.3494 84.7295 47.9359 84.7295C48.9812 84.7295 49.8165 85.0671 50.4403 85.7437H50.4434Z" fill="#171768"/>
<path d="M54.3957 86.856C54.7426 86.1622 55.2155 85.6287 55.8113 85.2553C56.4086 84.8804 57.0759 84.6953 57.8102 84.6953C58.4402 84.6953 58.9939 84.8229 59.4653 85.0795C59.9366 85.3362 60.3053 85.6722 60.5604 86.0875V84.8229H63.2966V93.7518H60.5604V92.4871C60.2944 92.9024 59.9226 93.2384 59.4482 93.4951C58.9722 93.7518 58.4199 93.8793 57.793 93.8793C57.0682 93.8793 56.4039 93.6911 55.8082 93.31C55.2108 92.932 54.7395 92.3938 54.3926 91.6953C54.0457 90.9969 53.873 90.188 53.873 89.2718C53.873 88.3555 54.0457 87.5498 54.3926 86.8544H54.3957V86.856ZM59.9973 87.6711C59.6193 87.276 59.1573 87.0784 58.6113 87.0784C58.0653 87.0784 57.6064 87.2744 57.2253 87.6618C56.8473 88.0522 56.6559 88.5889 56.6559 89.2702C56.6559 89.9515 56.8442 90.4944 57.2253 90.8942C57.6033 91.2955 58.0653 91.4946 58.6113 91.4946C59.1573 91.4946 59.6162 91.2986 59.9973 90.902C60.3784 90.5038 60.5666 89.9686 60.5666 89.2873C60.5666 88.606 60.3784 88.0678 59.9973 87.6695V87.6726V87.6711Z" fill="#171768"/>
<path d="M74.4024 85.7437C75.0262 86.4219 75.3389 87.3522 75.3389 88.5375V93.7548H72.6182V88.9077C72.6182 88.3104 72.4626 87.8453 72.1531 87.5155C71.8435 87.1857 71.4282 87.0208 70.9055 87.0208C70.3829 87.0208 69.9644 87.1857 69.658 87.5155C69.3484 87.8453 69.1929 88.3104 69.1929 88.9077V93.7548H66.4551V84.8259H69.1929V86.0097C69.4697 85.6146 69.8431 85.3019 70.3113 85.0733C70.7795 84.8446 71.3084 84.7295 71.8949 84.7295C72.9402 84.7295 73.7755 85.0671 74.3993 85.7437H74.4024Z" fill="#171768"/>
<path d="M78.4002 86.856C78.7782 86.1622 79.3071 85.6287 79.9837 85.2553C80.6619 84.8804 81.4366 84.6953 82.3124 84.6953C83.4308 84.6953 84.3688 84.9893 85.1202 85.5758C85.8715 86.1622 86.3646 86.9882 86.5995 88.0569H83.6875C83.4417 87.3724 82.9657 87.0318 82.2657 87.0318C81.7633 87.0318 81.362 87.2278 81.0664 87.6151C80.7662 88.0055 80.6184 88.5624 80.6184 89.2873C80.6184 90.0122 80.7662 90.5722 81.0664 90.9595C81.3635 91.35 81.7648 91.5429 82.2657 91.5429C82.9704 91.5429 83.4448 91.2022 83.6875 90.5178H86.5995C86.3631 91.5631 85.8684 92.3844 85.1093 92.9818C84.3502 93.5791 83.4168 93.8778 82.3077 93.8778C81.4319 93.8778 80.6557 93.6927 79.9791 93.3178C79.3008 92.9429 78.772 92.4109 78.3955 91.7171C78.0175 91.0233 77.8262 90.2144 77.8262 89.2827C77.8262 88.3509 78.0144 87.5435 78.3955 86.8498L78.3986 86.856H78.4002Z" fill="#171768"/>
<path d="M97.7407 89.9438H91.548C91.5916 90.5007 91.7704 90.9207 92.0847 91.2147C92.3989 91.5087 92.7862 91.6564 93.2435 91.6564C93.9249 91.6564 94.3993 91.3702 94.6653 90.7931H97.5773C97.4296 91.3795 97.1589 91.9084 96.7684 92.3766C96.378 92.8449 95.8927 93.2167 95.3062 93.4827C94.7198 93.7487 94.0618 93.884 93.3384 93.884C92.4627 93.884 91.6833 93.6989 91.002 93.324C90.3176 92.9491 89.7855 92.4171 89.4013 91.7233C89.0171 91.0295 88.8242 90.2207 88.8242 89.2904C88.8242 88.3602 89.0124 87.5513 89.3935 86.856C89.7715 86.1622 90.3036 85.6287 90.9849 85.2553C91.6662 84.8804 92.4518 84.6953 93.3369 84.6953C94.222 84.6953 94.9687 84.8773 95.6422 85.2382C96.3158 85.5991 96.8384 86.1187 97.2195 86.7922C97.5975 87.4627 97.7889 88.2482 97.7889 89.1442C97.7889 89.4009 97.7718 89.6669 97.7422 89.9422H97.7391L97.7407 89.9438ZM94.9873 88.424C94.9873 87.9558 94.8255 87.5809 94.5082 87.3055C94.1878 87.0287 93.7864 86.8902 93.3089 86.8902C92.8313 86.8902 92.4627 87.0255 92.15 87.2915C91.8358 87.5575 91.6413 87.9387 91.5667 88.4271H94.992L94.9889 88.424H94.9873Z" fill="#171768"/>
</svg>
