<svg width="140" height="140" viewBox="0 0 140 140" fill="none" xmlns="http://www.w3.org/2000/svg">
<path d="M71.0877 54.6309V56.4042H67.0744V67.1375H64.99V56.4042H60.9922V54.6309H71.0877Z" fill="#171768"/>
<path d="M76.9993 58.0064C78.0104 58.0064 78.7881 58.2864 79.3481 58.862C79.8926 59.4375 80.1726 60.1686 80.1726 61.0709V67.1375H78.2281V61.6775C78.2281 61.0242 78.0726 60.542 77.7459 60.1842C77.4348 59.842 76.9837 59.6709 76.3926 59.6709C75.8015 59.6709 75.3348 59.8575 74.9615 60.2464C74.5881 60.6353 74.4015 61.1331 74.4015 61.7242V67.1375H72.457V54.6309H74.4015V59.1731C74.9926 58.3953 75.8481 58.0064 76.9993 58.0064Z" fill="#171768"/>
<path d="M86.1615 58.0059C87.4837 58.0059 88.5726 58.4414 89.3971 59.3125C90.2371 60.1836 90.6415 61.3192 90.6415 62.7192C90.6415 64.1192 90.2215 65.2392 89.3971 66.1103C88.5571 66.9814 87.4837 67.417 86.1615 67.417C84.8393 67.417 83.7504 66.9814 82.9104 66.1103C82.0704 65.2392 81.6504 64.1192 81.6504 62.7192C81.6504 61.3192 82.0704 60.1836 82.8948 59.3125C83.7348 58.4414 84.8237 58.0059 86.1615 58.0059ZM86.1615 59.6547C85.3837 59.6547 84.7615 59.9347 84.3104 60.4947C83.8593 61.0547 83.6259 61.8014 83.6259 62.7192C83.6259 63.637 83.8593 64.3681 84.3104 64.9281C84.7615 65.4881 85.3837 65.7681 86.1615 65.7681C86.9393 65.7681 87.5304 65.4881 87.9971 64.9281C88.4482 64.3681 88.6815 63.637 88.6815 62.7192C88.6815 61.8014 88.4482 61.0547 87.9971 60.4947C87.5459 59.9347 86.9237 59.6547 86.1615 59.6547Z" fill="#171768"/>
<path d="M97.7815 58.3027H99.7259V67.1538H97.9371V66.1427C97.4237 66.9827 96.5371 67.4183 95.3082 67.4183C94.2348 67.4183 93.4415 67.1538 92.9282 66.6405C92.4148 66.1272 92.1504 65.4427 92.1504 64.5716V58.3027H94.0948V64.0427C94.0948 64.5872 94.2348 65.0072 94.5148 65.2872C94.7948 65.5827 95.1993 65.7227 95.7437 65.7227C96.3504 65.7227 96.8482 65.5361 97.2215 65.1783C97.5948 64.8205 97.7815 64.3072 97.7815 63.6383V58.3027Z" fill="#171768"/>
<path d="M107.97 58.3016H109.775V66.8104C109.775 67.9927 109.386 68.926 108.624 69.5793C107.861 70.2327 106.835 70.5593 105.59 70.5593C104.128 70.5593 102.759 70.1238 101.468 69.2682L102.417 67.8527C103.07 68.2416 103.615 68.5216 104.081 68.6927C104.548 68.8638 105.046 68.9416 105.575 68.9416C106.275 68.9416 106.819 68.7549 107.255 68.3816C107.675 68.0082 107.893 67.4171 107.893 66.6393V65.706C107.286 66.546 106.399 66.9816 105.201 66.9816C104.066 66.9816 103.148 66.5616 102.417 65.7371C101.686 64.8971 101.328 63.8238 101.328 62.5016C101.328 61.1793 101.686 60.106 102.417 59.2816C103.148 58.4416 104.066 58.0371 105.201 58.0371C106.477 58.0371 107.41 58.5038 108.001 59.4527L107.97 58.3016ZM105.575 65.3482C106.275 65.3482 106.835 65.0838 107.27 64.5549C107.706 64.026 107.924 63.3416 107.924 62.486C107.924 61.6304 107.706 60.9771 107.27 60.4482C106.835 59.9193 106.275 59.6704 105.575 59.6704C104.875 59.6704 104.284 59.9349 103.879 60.4482C103.459 60.9616 103.257 61.646 103.257 62.486C103.257 63.326 103.459 64.0416 103.879 64.5549C104.299 65.0838 104.859 65.3482 105.575 65.3482Z" fill="#171768"/>
<path d="M116.308 58.0064C117.319 58.0064 118.097 58.2864 118.657 58.862C119.201 59.4375 119.481 60.1686 119.481 61.0709V67.1375H117.537V61.6775C117.537 61.0242 117.381 60.542 117.055 60.1842C116.743 59.842 116.292 59.6709 115.701 59.6709C115.11 59.6709 114.643 59.8575 114.27 60.2464C113.897 60.6353 113.71 61.1331 113.71 61.7242V67.1375H111.781V54.6309H113.726V59.1731C114.317 58.3953 115.172 58.0064 116.308 58.0064Z" fill="#171768"/>
<path d="M126.279 65.4729L126.528 67.0129C125.875 67.2306 125.237 67.3551 124.631 67.3551C123.775 67.3551 123.153 67.1529 122.779 66.764C122.406 66.3751 122.219 65.7684 122.219 64.9751V59.7795H120.617V58.3173H122.204V55.4551H124.148V58.3173H126.388V59.7795H124.148V64.7417C124.148 65.084 124.226 65.3173 124.382 65.4573C124.537 65.5973 124.771 65.6751 125.097 65.6751C125.408 65.6595 125.813 65.5973 126.279 65.4729Z" fill="#171768"/>
<path d="M67.9618 82.2264L70.8241 72.5664H74.2774V85.0886H72.2396V78.7731C72.2396 78.742 72.2552 77.202 72.2863 74.1375L68.8641 85.0731H67.0441L63.5596 74.1842C63.5907 75.1953 63.5907 76.7353 63.5907 78.8042V85.0886H61.5996V72.582H64.9596L67.9618 82.2264Z" fill="#171768"/>
<path d="M80.0481 75.957C81.2459 75.957 82.1636 76.237 82.817 76.797C83.4703 77.357 83.7814 78.1037 83.7814 79.037V85.0881H82.0392V84.077C81.4325 84.9326 80.4681 85.3681 79.1147 85.3681C78.197 85.3681 77.4347 85.1659 76.8436 84.7459C76.237 84.3415 75.9414 83.7037 75.9414 82.8637C75.9414 81.9304 76.2836 81.2459 76.9836 80.7948C77.6836 80.3437 78.6481 80.0015 79.8925 79.7681L81.9147 79.3948V79.0837C81.9147 78.6015 81.7436 78.2281 81.417 77.9637C81.0903 77.6993 80.6392 77.5748 80.0792 77.5748C79.5192 77.5748 79.0525 77.6837 78.6481 77.917C78.2436 78.1348 77.777 78.5237 77.2481 79.0526L76.0347 77.917C77.1236 76.6104 78.4614 75.957 80.0481 75.957ZM79.3947 83.8126C80.1103 83.8126 80.717 83.6259 81.1992 83.237C81.6814 82.8481 81.9303 82.3193 81.9303 81.6037V80.7948L80.3903 81.1059C79.5036 81.2926 78.8659 81.4948 78.4459 81.7281C78.0414 81.9459 77.8236 82.2881 77.8236 82.7548C77.8236 83.0815 77.9636 83.3459 78.2436 83.5326C78.5392 83.7193 78.9125 83.8126 79.3947 83.8126Z" fill="#171768"/>
<path d="M92.1648 78.8348C91.6982 78.3526 91.2782 78.0259 90.9204 77.8548C90.5626 77.6837 90.1737 77.6059 89.7537 77.6059C88.9604 77.6059 88.3537 77.9015 87.9337 78.4926C87.4982 79.0837 87.2959 79.8148 87.2959 80.6704C87.2959 81.5259 87.5137 82.2415 87.9337 82.8326C88.3693 83.4081 88.9759 83.7037 89.7537 83.7037C90.2048 83.7037 90.6248 83.5948 90.9982 83.3926C91.3715 83.1904 91.7915 82.817 92.2737 82.2881L93.5493 83.3615C92.9582 84.1081 92.367 84.6215 91.7915 84.917C91.2159 85.2126 90.5159 85.3526 89.7537 85.3526C88.4315 85.3526 87.3582 84.9326 86.5493 84.077C85.7404 83.237 85.3359 82.0859 85.3359 80.6548C85.3359 79.2237 85.7404 78.0726 86.5648 77.2326C87.3893 76.377 88.4626 75.957 89.7848 75.957C90.5315 75.957 91.1848 76.0815 91.7448 76.3304C92.3048 76.5793 92.8648 77.0148 93.4248 77.637L92.1648 78.8348Z" fill="#171768"/>
<path d="M99.2434 75.9576C100.255 75.9576 101.032 76.2376 101.592 76.8131C102.137 77.3887 102.417 78.1198 102.417 79.022V85.0887H100.472V79.6287C100.472 78.9754 100.317 78.4931 99.9901 78.1354C99.6789 77.7931 99.2278 77.622 98.6367 77.622C98.0456 77.622 97.579 77.8087 97.2056 78.1976C96.8323 78.5865 96.6456 79.0843 96.6456 79.6754V85.0887H94.7012V72.582H96.6456V77.1243C97.2367 76.3465 98.1078 75.9576 99.2434 75.9576Z" fill="#171768"/>
<path d="M112.87 75.957C113.882 75.957 114.659 76.237 115.219 76.8126C115.764 77.3881 116.044 78.1193 116.044 79.0215V85.0881H114.115V79.6281C114.115 78.9748 113.959 78.4926 113.633 78.1348C113.322 77.7926 112.87 77.6215 112.279 77.6215C111.688 77.6215 111.222 77.8081 110.848 78.197C110.475 78.5859 110.288 79.0837 110.288 79.6748V85.0881H108.344V76.237H110.148V77.2948C110.755 76.4081 111.673 75.957 112.87 75.957Z" fill="#171768"/>
<path d="M124.911 82.397L126.015 83.5793C125.377 84.2326 124.755 84.6837 124.148 84.9481C123.542 85.2126 122.857 85.3526 122.111 85.3526C120.726 85.3526 119.622 84.9326 118.813 84.0926C118.004 83.2526 117.584 82.1326 117.584 80.717C117.584 79.3015 117.973 78.1659 118.766 77.2793C119.56 76.3926 120.617 75.957 121.94 75.957C123.262 75.957 124.242 76.3459 124.957 77.1237C125.673 77.9015 126.015 78.9593 126.015 80.3126C126.015 80.6081 126 80.8726 125.984 81.1059H119.497C119.575 81.8837 119.824 82.5059 120.275 82.9881C120.726 83.4704 121.348 83.7037 122.157 83.7037C122.686 83.7037 123.137 83.6104 123.511 83.4237C123.868 83.237 124.335 82.8948 124.911 82.397ZM121.877 77.497C121.24 77.497 120.726 77.6837 120.322 78.0726C119.917 78.4615 119.653 79.0059 119.528 79.6904H124.086C124.055 79.0059 123.837 78.477 123.464 78.0726C123.091 77.6681 122.562 77.497 121.877 77.497Z" fill="#171768"/>
<path d="M104.174 73.7174C104.174 73.064 104.703 72.5352 105.372 72.5352C106.04 72.5352 106.569 73.064 106.569 73.7174C106.569 74.3707 106.04 74.8996 105.372 74.8996C104.703 74.8996 104.174 74.3707 104.174 73.7174ZM106.352 85.0885H104.407V76.2374H106.352V85.0885Z" fill="#171768"/>
<path d="M32.1836 80.2832H36.9903V75.4765H41.7969V70.6543H32.1836V80.2832Z" fill="#171768"/>
<path d="M46.6036 75.4766H41.7969V80.2832H36.9902V85.0899H46.6036V75.4766Z" fill="#171768"/>
<path d="M19.7534 77.8721C21.7466 77.8721 23.3623 76.2563 23.3623 74.2632C23.3623 72.27 21.7466 70.6543 19.7534 70.6543C17.7603 70.6543 16.1445 72.27 16.1445 74.2632C16.1445 76.2563 17.7603 77.8721 19.7534 77.8721Z" fill="#171768"/>
<path d="M26.9722 77.8721C28.9653 77.8721 30.5811 76.2563 30.5811 74.2632C30.5811 72.27 28.9653 70.6543 26.9722 70.6543C24.979 70.6543 23.3633 72.27 23.3633 74.2632C23.3633 76.2563 24.979 77.8721 26.9722 77.8721Z" fill="#171768"/>
<path d="M26.9722 85.0908C28.9653 85.0908 30.5811 83.4751 30.5811 81.4819C30.5811 79.4888 28.9653 77.873 26.9722 77.873C24.979 77.873 23.3633 79.4888 23.3633 81.4819C23.3633 83.4751 24.979 85.0908 26.9722 85.0908Z" fill="#171768"/>
<path d="M19.7534 85.0908C21.7466 85.0908 23.3623 83.4751 23.3623 81.4819C23.3623 79.4888 21.7466 77.873 19.7534 77.873C17.7603 77.873 16.1445 79.4888 16.1445 81.4819C16.1445 83.4751 17.7603 85.0908 19.7534 85.0908Z" fill="#171768"/>
<path d="M23.3623 54.6309C19.3801 54.6309 16.1445 57.8664 16.1445 61.8486C16.1445 65.8309 19.3801 69.0664 23.3623 69.0664C27.3445 69.0664 30.5801 65.8309 30.5801 61.8486C30.5801 57.8664 27.3445 54.6309 23.3623 54.6309ZM23.3623 65.8309C21.1534 65.8309 19.3801 64.042 19.3801 61.8486C19.3801 59.6553 21.169 57.8664 23.3623 57.8664C25.5556 57.8664 27.3445 59.6553 27.3445 61.8486C27.3445 64.042 25.5556 65.8309 23.3623 65.8309Z" fill="#171768"/>
<path d="M36.9903 54.6309H32.1836V59.4375H36.9903V54.6309Z" fill="#171768"/>
<path d="M41.7969 59.4375H36.9902V64.2442H41.7969V59.4375Z" fill="#171768"/>
<path d="M46.6035 54.6309H41.7969V59.4375H46.6035V54.6309Z" fill="#171768"/>
<path d="M36.9903 64.2441H32.1836V69.0508H36.9903V64.2441Z" fill="#171768"/>
<path d="M46.6035 64.2441H41.7969V69.0508H46.6035V64.2441Z" fill="#171768"/>
</svg>
