<svg width="28" height="28" viewBox="0 0 28 28" fill="none" xmlns="http://www.w3.org/2000/svg">
<mask id="mask0_179_13528" style="mask-type:alpha" maskUnits="userSpaceOnUse" x="0" y="0" width="28" height="28">
<rect width="28" height="28" fill="#D9D9D9"/>
</mask>
<g mask="url(#mask0_179_13528)">
<path fill-rule="evenodd" clip-rule="evenodd" d="M19.5713 7.49998C19.5713 8.01282 19.987 8.42855 20.4999 8.42855C21.0127 8.42855 21.4284 8.01282 21.4284 7.49998C21.4284 6.98715 21.0127 6.57141 20.4999 6.57141C19.987 6.57141 19.5713 6.98715 19.5713 7.49998Z" stroke="#4343C2" stroke-width="1.5" stroke-linecap="round" stroke-linejoin="round"/>
<path d="M26.25 12.1429C26.25 12.5571 26.5858 12.8929 27 12.8929C27.4142 12.8929 27.75 12.5571 27.75 12.1429H26.25ZM1.00001 19.5714L1.75001 19.5724V19.5714H1.00001ZM1.87208 24.4591C2.12014 24.7909 2.59014 24.8587 2.92187 24.6106C3.25359 24.3626 3.32142 23.8926 3.07336 23.5608L1.87208 24.4591ZM27.7499 12.1429C27.7499 11.7286 27.4141 11.3929 26.9999 11.3929C26.5857 11.3929 26.2499 11.7286 26.2499 12.1429H27.7499ZM8.42851 27L8.42851 26.25L8.42803 26.25L8.42851 27ZM3.07439 23.5623C2.82715 23.23 2.35731 23.161 2.02498 23.4082C1.69265 23.6555 1.62367 24.1253 1.87091 24.4577L3.07439 23.5623ZM27.5037 12.6985C27.8105 12.4203 27.8338 11.946 27.5556 11.6391C27.2774 11.3322 26.8031 11.309 26.4962 11.5872L27.5037 12.6985ZM18.2714 20.0561L17.7676 19.5005L17.7625 19.5051L18.2714 20.0561ZM16.8589 20.5426L16.7972 21.2901L16.7972 21.2901L16.8589 20.5426ZM15.5451 19.8314L16.1373 19.3712L16.1369 19.3707L15.5451 19.8314ZM11.8141 15.0381L12.4059 14.5775L12.4048 14.576L11.8141 15.0381ZM10.313 14.3257L10.2976 13.5758L10.313 14.3257ZM8.84265 15.0994L8.23337 14.6621L8.23252 14.6633L8.84265 15.0994ZM1.86252 23.5738C1.62163 23.9108 1.69952 24.3792 2.03648 24.6201C2.37345 24.861 2.84189 24.7831 3.08278 24.4462L1.86252 23.5738ZM27.75 12.1429V8.42857H26.25V12.1429H27.75ZM27.75 8.42857C27.75 3.91167 24.0883 0.25 19.5714 0.25V1.75C23.2599 1.75 26.25 4.7401 26.25 8.42857H27.75ZM19.5714 0.25H8.42857V1.75H19.5714V0.25ZM8.42857 0.25C3.91168 0.25 0.250007 3.91167 0.250007 8.42857H1.75001C1.75001 4.7401 4.7401 1.75 8.42857 1.75V0.25ZM0.250007 8.42857V19.5714H1.75001V8.42857H0.250007ZM0.250007 19.5704C0.247646 21.3325 0.816807 23.0479 1.87208 24.4591L3.07336 23.5608C2.21242 22.4095 1.74808 21.01 1.75001 19.5724L0.250007 19.5704ZM26.2499 12.1429V19.5714H27.7499V12.1429H26.2499ZM26.2499 19.5714C26.2499 23.2599 23.2598 26.25 19.5714 26.25V27.75C24.0883 27.75 27.7499 24.0883 27.7499 19.5714H26.2499ZM19.5714 26.25H8.42851V27.75H19.5714V26.25ZM8.42803 26.25C6.31882 26.2513 4.33337 25.2546 3.07439 23.5623L1.87091 24.4577C3.41312 26.5306 5.84526 27.7516 8.42898 27.75L8.42803 26.25ZM26.4962 11.5872L17.7676 19.5005L18.7751 20.6118L27.5037 12.6985L26.4962 11.5872ZM17.7625 19.5051C17.5348 19.7154 17.2294 19.8206 16.9205 19.7952L16.7972 21.2901C17.5247 21.3501 18.2439 21.1023 18.7802 20.6071L17.7625 19.5051ZM16.9205 19.7952C16.6116 19.7697 16.3275 19.6159 16.1373 19.3712L14.9529 20.2917C15.4008 20.868 16.0698 21.2301 16.7972 21.2901L16.9205 19.7952ZM16.1369 19.3707L12.4059 14.5775L11.2222 15.4988L14.9532 20.2921L16.1369 19.3707ZM12.4048 14.576C11.899 13.9295 11.1183 13.5589 10.2976 13.5758L10.3285 15.0755C10.677 15.0683 11.0086 15.2257 11.2234 15.5002L12.4048 14.576ZM10.2976 13.5758C9.47687 13.5927 8.71206 13.9952 8.23337 14.6621L9.45192 15.5368C9.6552 15.2536 9.97998 15.0827 10.3285 15.0755L10.2976 13.5758ZM8.23252 14.6633L1.86252 23.5738L3.08278 24.4462L9.45278 15.5356L8.23252 14.6633Z" fill="#4343C2"/>
</g>
</svg>
