<svg width="28" height="28" viewBox="0 0 28 28" fill="none" xmlns="http://www.w3.org/2000/svg">
<mask id="mask0_179_13529" style="mask-type:alpha" maskUnits="userSpaceOnUse" x="0" y="0" width="28" height="28">
<rect width="28" height="28" fill="#D9D9D9"/>
</mask>
<g mask="url(#mask0_179_13529)">
<path fill-rule="evenodd" clip-rule="evenodd" d="M9.92452 8.46545C8.66723 10.3523 7.53623 12.241 6.84166 13.4797L5.0978 11.669C4.01297 10.5231 4.01297 8.72918 5.0978 7.58331C5.61127 7.04469 6.32223 6.73884 7.06638 6.73645H11.1242C10.7194 7.29174 10.3164 7.87116 9.92452 8.46545Z" stroke="#4343C2" stroke-width="1.5" stroke-linecap="round" stroke-linejoin="round"/>
<path fill-rule="evenodd" clip-rule="evenodd" d="M19.5358 18.0762C17.6489 19.3335 15.7602 20.4645 14.5215 21.159L16.3322 22.9029C17.4781 23.9877 19.272 23.9877 20.4179 22.9029C20.9565 22.3894 21.2624 21.6785 21.2648 20.9343V16.8765C20.7095 17.2813 20.1301 17.6843 19.5358 18.0762Z" stroke="#4343C2" stroke-width="1.5" stroke-linecap="round" stroke-linejoin="round"/>
<path d="M5.83716 16.7583C6.12999 16.4654 6.12989 15.9905 5.83693 15.6977C5.54397 15.4049 5.0691 15.405 4.77627 15.6979L5.83716 16.7583ZM0.469556 20.0065C0.176726 20.2994 0.176828 20.7743 0.469784 21.0671C0.762741 21.36 1.23761 21.3599 1.53044 21.0669L0.469556 20.0065ZM9.06721 19.9921C9.35998 19.6991 9.35978 19.2242 9.06676 18.9314C8.77374 18.6386 8.29886 18.6389 8.0061 18.9319L9.06721 19.9921ZM5.85552 21.0843C5.56276 21.3773 5.56296 21.8522 5.85598 22.145C6.149 22.4377 6.62387 22.4375 6.91664 22.1445L5.85552 21.0843ZM7.36941 12.9415C7.07616 12.6489 6.60129 12.6495 6.30875 12.9428C6.01621 13.236 6.01678 13.7109 6.31003 14.0034L7.36941 12.9415ZM10.6877 17.3112L11.2187 16.7815L11.2174 16.7802L10.6877 17.3112ZM13.9955 21.6889C14.288 21.9821 14.7629 21.9827 15.0561 21.6901C15.3494 21.3976 15.3499 20.9227 15.0574 20.6295L13.9955 21.6889ZM10.5014 6.3067C10.2703 6.6505 10.3618 7.11649 10.7056 7.34752C11.0494 7.57855 11.5153 7.48713 11.7464 7.14333L10.5014 6.3067ZM14.5002 2.76744L14.0208 2.19066C14.0099 2.19968 13.9993 2.20899 13.989 2.21861L14.5002 2.76744ZM26.826 1.17401L27.5723 1.09965C27.5369 0.744246 27.2558 0.46312 26.9004 0.427708L26.826 1.17401ZM25.2326 13.5017L25.7814 14.0129C25.7911 14.0025 25.8005 13.9918 25.8095 13.9809L25.2326 13.5017ZM20.8567 16.2555C20.5129 16.4865 20.4215 16.9525 20.6525 17.2963C20.8835 17.6401 21.3495 17.7315 21.6933 17.5005L20.8567 16.2555ZM12.3014 23.2237C12.5944 22.9309 12.5945 22.456 12.3016 22.1631C12.0088 21.8701 11.5339 21.87 11.241 22.1628L12.3014 23.2237ZM6.93241 26.4696C6.63945 26.7624 6.63935 27.2373 6.93218 27.5302C7.22501 27.8232 7.69988 27.8233 7.99284 27.5304L6.93241 26.4696ZM22.5723 6.48563C22.8652 6.19273 22.8652 5.71786 22.5723 5.42497C22.2794 5.13207 21.8045 5.13207 21.5116 5.42497L22.5723 6.48563ZM19.2143 7.72225C18.9214 8.01515 18.9214 8.49002 19.2143 8.78291C19.5072 9.07581 19.9821 9.07581 20.275 8.78291L19.2143 7.72225ZM4.77627 15.6979L0.469556 20.0065L1.53044 21.0669L5.83716 16.7583L4.77627 15.6979ZM8.0061 18.9319L5.85552 21.0843L6.91664 22.1445L9.06721 19.9921L8.0061 18.9319ZM6.31003 14.0034L10.158 17.8421L11.2174 16.7802L7.36941 12.9415L6.31003 14.0034ZM10.1567 17.8409L13.9955 21.6889L15.0574 20.6295L11.2187 16.7815L10.1567 17.8409ZM11.7464 7.14333C12.6847 5.74695 13.7802 4.46287 15.0113 3.31628L13.989 2.21861C12.6739 3.44341 11.5037 4.81508 10.5014 6.3067L11.7464 7.14333ZM14.9796 3.34422C15.465 2.94073 16.2239 2.60464 17.2059 2.34839C18.1762 2.09522 19.3034 1.93529 20.4721 1.84519C22.81 1.66494 25.2386 1.76955 26.7517 1.92032L26.9004 0.427708C25.3194 0.270184 22.8006 0.161223 20.3568 0.349624C19.1347 0.443843 17.9125 0.61379 16.8272 0.896985C15.7537 1.1771 14.7508 1.58386 14.0208 2.19066L14.9796 3.34422ZM26.0797 1.24837C26.2305 2.76144 26.3351 5.18999 26.1548 7.52815C26.0647 8.69699 25.9048 9.8244 25.6516 10.7949C25.3954 11.7773 25.0592 12.5366 24.6556 13.0225L25.8095 13.9809C26.4162 13.2505 26.8229 12.2473 27.1031 11.1736C27.3862 10.088 27.5562 8.86568 27.6504 7.64344C27.8388 5.19946 27.7298 2.68058 27.5723 1.09965L26.0797 1.24837ZM24.6838 12.9906C23.5372 14.2217 22.2531 15.3172 20.8567 16.2555L21.6933 17.5005C23.1849 16.4982 24.5566 15.328 25.7814 14.0129L24.6838 12.9906ZM11.241 22.1628L6.93241 26.4696L7.99284 27.5304L12.3014 23.2237L11.241 22.1628ZM21.5116 5.42497L19.2143 7.72225L20.275 8.78291L22.5723 6.48563L21.5116 5.42497Z" fill="#4343C2"/>
</g>
</svg>
