<svg width="28" height="28" viewBox="0 0 28 28" fill="none" xmlns="http://www.w3.org/2000/svg">
<mask id="mask0_179_13531" style="mask-type:alpha" maskUnits="userSpaceOnUse" x="0" y="0" width="28" height="28">
<rect width="28" height="28" fill="#D9D9D9"/>
</mask>
<g mask="url(#mask0_179_13531)">
<path fill-rule="evenodd" clip-rule="evenodd" d="M27 14C27 21.1797 21.1797 27 14 27C6.8203 27 1 21.1797 1 14C1 6.8203 6.8203 1 14 1C17.4478 1 20.7544 2.36964 23.1924 4.80761C25.6304 7.24558 27 10.5522 27 14Z" stroke="#4343C2" stroke-width="1.5" stroke-linecap="round" stroke-linejoin="round"/>
<path d="M14.0009 19.8818C13.5867 19.8818 13.2509 20.2175 13.2509 20.6318C13.2509 21.046 13.5867 21.3818 14.0009 21.3818V19.8818ZM11.2152 12.1428L11.7377 11.6048C11.7087 11.5766 11.6774 11.5508 11.6442 11.5276L11.2152 12.1428ZM10.2866 10.2856L11.0361 10.3115C11.0364 10.3029 11.0366 10.2942 11.0366 10.2856H10.2866ZM14.0009 8.11804C14.4151 8.11804 14.7509 7.78226 14.7509 7.36804C14.7509 6.95383 14.4151 6.61804 14.0009 6.61804V8.11804ZM13.9678 21.3826C14.3817 21.3996 14.7309 21.0778 14.7479 20.6639C14.7648 20.2501 14.443 19.9008 14.0292 19.8839L13.9678 21.3826ZM11.0275 16.3044C11.0829 15.8939 10.7951 15.5162 10.3846 15.4607C9.97413 15.4053 9.59642 15.6931 9.54097 16.1036L11.0275 16.3044ZM14.7496 20.6328C14.7496 20.2186 14.4138 19.8828 13.9996 19.8828C13.5854 19.8828 13.2496 20.2186 13.2496 20.6328H14.7496ZM13.2496 23.2867C13.2496 23.7009 13.5854 24.0367 13.9996 24.0367C14.4138 24.0367 14.7496 23.7009 14.7496 23.2867H13.2496ZM13.9574 6.61943C13.5438 6.64273 13.2275 6.99688 13.2508 7.41044C13.2741 7.824 13.6282 8.14036 14.0418 8.11705L13.9574 6.61943ZM16.817 8.51417L16.2641 9.02094L16.2641 9.02094L16.817 8.51417ZM16.9716 11.3134C16.9124 11.7234 17.1968 12.1037 17.6068 12.1628C18.0167 12.222 18.397 11.9376 18.4562 11.5276L16.9716 11.3134ZM13.2496 7.36858C13.2496 7.78279 13.5854 8.11858 13.9996 8.11858C14.4138 8.11858 14.7496 7.78279 14.7496 7.36858H13.2496ZM14.7496 4.71472C14.7496 4.30051 14.4138 3.96472 13.9996 3.96472C13.5854 3.96472 13.2496 4.30051 13.2496 4.71472H14.7496ZM14.0009 21.3818C14.7105 21.3818 15.7774 21.2175 16.6951 20.6921C17.6499 20.1455 18.4652 19.1843 18.4652 17.6789H16.9652C16.9652 18.5357 16.5426 19.051 15.9499 19.3903C15.3203 19.7508 14.53 19.8818 14.0009 19.8818V21.3818ZM18.4652 17.6789C18.4652 16.7343 18.1734 15.9947 17.6583 15.3998C17.1682 14.8337 16.5086 14.4384 15.854 14.1003C14.4856 13.3935 13.0257 12.8558 11.7377 11.6048L10.6926 12.6807C12.1903 14.1355 13.9804 14.8208 15.1656 15.433C15.7878 15.7544 16.2309 16.0427 16.5243 16.3816C16.7927 16.6916 16.9652 17.0784 16.9652 17.6789H18.4652ZM11.6442 11.5276C11.2484 11.2516 11.0195 10.7937 11.0361 10.3115L9.53704 10.2597C9.50285 11.2504 9.97309 12.1909 10.7861 12.7579L11.6442 11.5276ZM11.0366 10.2856C11.0366 9.70275 11.1649 9.31529 11.3295 9.05074C11.494 8.78643 11.7253 8.59555 12.0107 8.45497C12.6133 8.15809 13.3832 8.11804 14.0009 8.11804V6.61804C13.3798 6.61804 12.2926 6.64393 11.3478 7.1094C10.8594 7.35 10.3944 7.7144 10.056 8.2583C9.71769 8.80196 9.53659 9.47562 9.53659 10.2856H11.0366ZM14.0292 19.8839C13.1408 19.8475 12.3089 19.4385 11.7376 18.7573L10.5882 19.7211C11.4307 20.7258 12.6577 21.329 13.9678 21.3826L14.0292 19.8839ZM11.7376 18.7573C11.1662 18.076 10.9085 17.1855 11.0275 16.3044L9.54097 16.1036C9.36546 17.4031 9.74563 18.7163 10.5882 19.7211L11.7376 18.7573ZM13.2496 20.6328V23.2867H14.7496V20.6328H13.2496ZM14.0418 8.11705C14.8806 8.06977 15.6964 8.40157 16.2641 9.02094L17.3699 8.0074C16.4982 7.05632 15.2455 6.54682 13.9574 6.61943L14.0418 8.11705ZM16.2641 9.02094C16.8319 9.64032 17.0915 10.4818 16.9716 11.3134L18.4562 11.5276C18.6404 10.2507 18.2417 8.95849 17.3699 8.0074L16.2641 9.02094ZM14.7496 7.36858V4.71472H13.2496V7.36858H14.7496Z" fill="#4343C2"/>
</g>
</svg>
