<svg width="28" height="28" viewBox="0 0 28 28" fill="none" xmlns="http://www.w3.org/2000/svg">
<mask id="mask0_179_13542" style="mask-type:alpha" maskUnits="userSpaceOnUse" x="0" y="0" width="28" height="28">
<rect width="28" height="28" fill="#D9D9D9"/>
</mask>
<g mask="url(#mask0_179_13542)">
<path fill-rule="evenodd" clip-rule="evenodd" d="M9.46719 1.00001H19.0369C19.1363 1.00001 19.2351 1.00637 19.3333 1.01908C23.2287 1.29149 26.2535 4.52421 26.2666 8.42907V19.5727C26.2523 23.6843 22.9111 27.0077 18.7994 27H9.46719C5.35488 27.0077 2.01338 23.6832 2 19.5709V8.42907C2.01338 4.31678 5.35488 0.992341 9.46719 1.00001Z" stroke="#4343C2" stroke-width="1.5" stroke-linecap="round" stroke-linejoin="round"/>
<path d="M26.2678 9.17867C26.682 9.17867 27.0178 8.84288 27.0178 8.42867C27.0178 8.01446 26.682 7.67867 26.2678 7.67867V9.17867ZM19.3345 8.42867H18.5845C18.5845 8.84288 18.9203 9.17867 19.3345 9.17867V8.42867ZM20.0845 1.01868C20.0845 0.604463 19.7487 0.268677 19.3345 0.268677C18.9203 0.268677 18.5845 0.604463 18.5845 1.01868H20.0845ZM17.6012 15.6167C18.0154 15.6167 18.3512 15.2809 18.3512 14.8667C18.3512 14.4525 18.0154 14.1167 17.6012 14.1167V15.6167ZM7.20117 14.1167C6.78696 14.1167 6.45117 14.4525 6.45117 14.8667C6.45117 15.2809 6.78696 15.6167 7.20117 15.6167V14.1167ZM12.4012 10.4167C12.8154 10.4167 13.1512 10.0809 13.1512 9.66672C13.1512 9.2525 12.8154 8.91672 12.4012 8.91672V10.4167ZM7.20117 8.91672C6.78696 8.91672 6.45117 9.2525 6.45117 9.66672C6.45117 10.0809 6.78696 10.4167 7.20117 10.4167V8.91672ZM19.3345 20.8167C19.7487 20.8167 20.0845 20.4809 20.0845 20.0667C20.0845 19.6525 19.7487 19.3167 19.3345 19.3167V20.8167ZM7.20117 19.3167C6.78696 19.3167 6.45117 19.6525 6.45117 20.0667C6.45117 20.4809 6.78696 20.8167 7.20117 20.8167V19.3167ZM26.2678 7.67867H19.3345V9.17867H26.2678V7.67867ZM20.0845 8.42867V1.01868H18.5845V8.42867H20.0845ZM17.6012 14.1167H7.20117V15.6167H17.6012V14.1167ZM12.4012 8.91672H7.20117V10.4167H12.4012V8.91672ZM19.3345 19.3167H7.20117V20.8167H19.3345V19.3167Z" fill="#4343C2"/>
</g>
</svg>
