<svg xmlns="http://www.w3.org/2000/svg" viewBox="0 0 175 49"><g fill="currentColor"><path d="M35.46 0v28.22h15.78v-4.4H40.48V0h-5.02ZM61.5 28.54c-5.8 0-9.93-4.33-9.93-10.73S55.7 7.07 61.5 7.07c5.8 0 9.92 4.33 9.92 10.74 0 6.42-4.1 10.73-9.92 10.73Zm0-3.96c3.17 0 5.17-2.56 5.17-6.77 0-4.21-2-6.77-5.18-6.77-3.18 0-5.17 2.56-5.17 6.77 0 4.2 2 6.77 5.17 6.77ZM94.75 7.59h4.7v2.2a7.23 7.23 0 0 1 5.7-2.6c4.3 0 6.9 2.99 6.9 7.44v13.6h-4.7V15.98c0-2.56-1.02-4.4-3.6-4.4-2.12 0-4.28 1.57-4.28 4.52v12.11h-4.7V7.6h-.02ZM149.37 12.27c-.6-.08-1.07-.13-1.72-.13-2.99 0-5.25 1.93-5.25 5.23v10.85h-4.7V7.6h4.7v3.07c.9-1.92 3.01-3.18 5.64-3.18.55 0 .98.05 1.34.08l-.01 4.7ZM160.41 28.54c-5.76 0-9.86-4.33-9.86-10.73s4.1-10.74 9.86-10.74c5.77 0 9.86 4.33 9.86 10.74 0 6.42-4.1 10.73-9.86 10.73Zm0-3.96c3.15 0 5.14-2.56 5.14-6.77 0-4.21-1.99-6.77-5.14-6.77-3.15 0-5.14 2.56-5.14 6.77 0 4.2 2 6.77 5.14 6.77ZM124.84 0h-9.6v28.22h5.02V16.34h4.6c6.27 0 10.19-2.55 10.19-8.18-.02-5.7-3.94-8.16-10.2-8.16Zm-.27 12.02h-4.32V4.33h4.32c3.6 0 5.52 1.06 5.52 3.85 0 2.78-1.92 3.84-5.52 3.84ZM72.96 22.41c0-3.94 2.94-5.66 6.91-6.48l5.67-1.18v-.35c0-1.97-1.01-3.18-3.53-3.18-2.23 0-3.4 1.01-3.95 3.03l-4.43-1.03c1.02-3.42 4.03-6.09 8.58-6.09 4.95 0 7.91 2.36 7.91 7.12v8.89c0 1.18.52 1.53 1.81 1.37v3.65c-3.4.4-5.21-.27-5.91-1.96-1.3 1.45-3.46 2.31-6.12 2.31-3.92 0-6.94-2.4-6.94-6.1Zm12.58-4.32-4.42.94c-2 .44-3.49 1.06-3.49 2.91 0 1.6 1.17 2.51 2.99 2.51 2.5 0 4.94-1.33 4.94-3.84l-.02-2.52ZM172.08 26.07h.67c.21 0 .38-.06.52-.16.12-.1.2-.26.2-.44 0-.21-.07-.36-.17-.46-.11-.09-.3-.13-.57-.15h-.65v1.21Zm0 .19v1.15h-.18v-2.73h.79c.64 0 .96.26.96.79 0 .32-.17.54-.5.68.28.1.44.32.44.68 0 .24.01.43.06.53v.05h-.2a2.14 2.14 0 0 1-.05-.58c0-.2-.04-.35-.12-.44-.09-.09-.23-.13-.44-.13h-.76Zm-1.58-.17c0 .4.09.79.29 1.14.2.34.45.63.79.83a2.11 2.11 0 0 0 2.95-.83c.2-.35.29-.73.29-1.14a2.26 2.26 0 0 0-1.08-1.97 2.11 2.11 0 0 0-2.16 0c-.34.2-.6.49-.8.83-.2.34-.28.73-.28 1.14Zm-.19 0c0-.44.11-.85.3-1.23a2.3 2.3 0 0 1 2.05-1.22c.42 0 .82.1 1.18.33.37.21.66.51.86.9a2.61 2.61 0 0 1 0 2.43 2.34 2.34 0 0 1-2.06 1.24c-.44 0-.83-.1-1.2-.33a2.45 2.45 0 0 1-.85-.9 3 3 0 0 1-.28-1.22ZM12.26 47.98h-1.28v-8.37L7.08 48h-.75l-3.9-8.39V48H1.15V36.82h1.27l4.29 9.14 4.27-9.14h1.28v11.16ZM15.09 46.87a4.84 4.84 0 0 1-.96-3.08c0-1.1.27-2.19.96-3.04a3.92 3.92 0 0 1 3.07-1.37c1.22 0 2.34.45 3.06 1.37.73.88.97 1.97.97 3.04 0 1.13-.25 2.18-.97 3.08a3.75 3.75 0 0 1-3.06 1.36 3.82 3.82 0 0 1-3.07-1.36Zm5.75-3.08c0-.8-.15-1.66-.62-2.28a2.54 2.54 0 0 0-2.06-.93c-.81 0-1.59.3-2.04.93a3.73 3.73 0 0 0-.64 2.28c0 .8.15 1.68.64 2.3a2.5 2.5 0 0 0 2.04.95c.81 0 1.6-.33 2.06-.95a3.8 3.8 0 0 0 .62-2.3ZM31.27 36.82V48h-1.13v-1.07a3.5 3.5 0 0 1-2.85 1.3 3.64 3.64 0 0 1-2.92-1.35 4.86 4.86 0 0 1-.94-3.09c0-1.1.25-2.2.94-3.06a3.62 3.62 0 0 1 2.89-1.35c1.06 0 2.06.4 2.74 1.14v-3.7h1.27Zm-1.13 6.97c0-.87-.18-1.75-.68-2.36-.45-.6-1.2-.89-2-.89-.84 0-1.6.3-2.06.95-.45.6-.62 1.45-.62 2.3 0 .85.15 1.7.6 2.3.47.65 1.25.98 2.05.98.8 0 1.56-.31 2.03-.9.5-.6.68-1.5.68-2.38ZM34.98 46.09a2.5 2.5 0 0 0 2.04.95c.82 0 1.58-.33 2.05-.95.1-.16.19-.3.26-.45l1.25.54a3.85 3.85 0 0 1-3.56 2.05 4.02 4.02 0 0 1-3.07-1.36A4.85 4.85 0 0 1 33 43.8c.01-1.1.25-2.18.95-3.06a3.87 3.87 0 0 1 3.07-1.37 3.8 3.8 0 0 1 3.06 1.37c.7.88.95 1.97.95 3.06l-.01.34h-6.65c.03.71.2 1.41.61 1.94Zm0-4.57c-.33.44-.51 1-.58 1.57h5.25a3.2 3.2 0 0 0-.58-1.57 2.52 2.52 0 0 0-2.05-.95c-.8 0-1.59.33-2.04.95ZM47.7 39.55v1.2c-.36-.13-.8-.2-1.27-.17-.65.01-1.23.23-1.62.62-.75.7-.78 1.61-.78 2.75V48h-1.28v-8.39h1.14v1.25a3.14 3.14 0 0 1 2.64-1.47c.4 0 .8.04 1.17.16ZM56.5 43.87V48h-1.28v-4.13c0-1.2-.13-2.2-.94-2.8a2.43 2.43 0 0 0-1.59-.43c-.51.01-1.01.18-1.39.51-.39.34-.64.84-.75 1.4-.07.34-.1.74-.1 1.15V48h-1.27V39.6h1.14v.95l.26-.28a3.58 3.58 0 0 1 2.22-.87c.83-.05 1.68.2 2.36.7 1.15.89 1.35 2.22 1.34 3.76ZM71.5 44.68a5.45 5.45 0 0 1-.91 1.77 4.94 4.94 0 0 1-3.98 1.78c-1.56 0-3.03-.6-3.97-1.78a6.3 6.3 0 0 1-1.25-4.04 6.4 6.4 0 0 1 1.25-4.04 4.86 4.86 0 0 1 3.97-1.79 4.92 4.92 0 0 1 4.96 3.84l-1.31.22a3.94 3.94 0 0 0-.67-1.5 3.75 3.75 0 0 0-2.98-1.34 3.6 3.6 0 0 0-2.95 1.35c-.69.88-.9 2.1-.9 3.26 0 1.16.21 2.36.9 3.27a3.68 3.68 0 0 0 2.95 1.34 3.7 3.7 0 0 0 2.98-1.34c.28-.4.5-.88.64-1.36l1.26.35ZM78.23 39.55v1.2c-.36-.13-.8-.2-1.26-.17-.66.01-1.23.23-1.62.62-.75.7-.79 1.61-.79 2.75V48H73.3v-8.39h1.13v1.25a3.14 3.14 0 0 1 2.64-1.47c.4 0 .8.04 1.17.16ZM81 46.09a2.5 2.5 0 0 0 2.04.95c.81 0 1.57-.33 2.04-.95.11-.16.19-.3.27-.45l1.25.54a3.85 3.85 0 0 1-3.56 2.05 4.02 4.02 0 0 1-3.08-1.36 4.85 4.85 0 0 1-.95-3.06c.02-1.1.25-2.18.95-3.06a3.87 3.87 0 0 1 3.08-1.37 3.8 3.8 0 0 1 3.06 1.37c.7.88.95 1.97.95 3.06 0 .1 0 .23-.02.34H80.4c.03.71.2 1.41.6 1.94Zm0-4.57c-.33.44-.52 1-.58 1.57h5.24a3.2 3.2 0 0 0-.58-1.57 2.52 2.52 0 0 0-2.04-.95c-.81 0-1.6.33-2.05.95ZM96.13 36.82V48h-1.12v-1.07a3.5 3.5 0 0 1-2.86 1.3 3.64 3.64 0 0 1-2.92-1.35 4.86 4.86 0 0 1-.93-3.09c0-1.1.25-2.2.93-3.06a3.62 3.62 0 0 1 2.9-1.35c1.05 0 2.05.4 2.74 1.14v-3.7h1.26Zm-1.12 6.97c0-.87-.19-1.75-.69-2.36-.45-.6-1.2-.89-2-.89-.84 0-1.59.3-2.06.95-.45.6-.62 1.45-.62 2.3 0 .85.16 1.7.6 2.3.48.65 1.26.98 2.05.98.8 0 1.56-.31 2.03-.9.5-.6.69-1.5.69-2.38ZM99.75 36.82v1.35h-1.27v-1.35h1.27Zm0 2.8V48h-1.27v-8.39h1.27ZM104.3 44.83c0 .7-.01 1.12.2 1.48.16.37.55.59.97.62.44.04.96.03 1.4-.05V48c-.57.14-1.35.17-1.9.06-.74-.14-1.32-.48-1.63-1.12-.3-.59-.3-1.24-.3-2.05v-4.22h-1.89V39.6h1.9v-2.33h1.26v2.33h2.55v1.06h-2.55v4.16ZM120.64 40.31a3.57 3.57 0 0 1-3.54 3.5h-3.47V48h-1.26V36.82h4.73c.4 0 .8.07 1.18.2a3.3 3.3 0 0 1 1.42.96c.6.62.92 1.48.94 2.33Zm-1.31 0a2.3 2.3 0 0 0-2.23-2.28h-3.47v4.57h3.47c.62 0 1.3-.31 1.71-.84.33-.4.53-.92.52-1.45ZM122.22 48V36.58h1.26V48h-1.26ZM125.56 41.18c.06-.1.15-.26.25-.37a3.67 3.67 0 0 1 3.09-1.41c1.54 0 2.8.56 3.41 1.86.24.48.33 1.01.33 1.5V48h-1.12v-1.66c-.31.6-.9 1.12-1.48 1.4-.69.34-1.42.51-2.17.46a2.86 2.86 0 0 1-2.17-1.11c-.33-.5-.5-.95-.5-1.54 0-.89.47-1.66 1.23-2.13.92-.5 1.84-.57 3.15-.77l1.75-.24c-.08-.53-.31-1-.72-1.3a2.72 2.72 0 0 0-1.73-.51c-.78 0-1.51.26-1.95.85l-.2.28-1.17-.54Zm3.77 2.63c-1.35.2-2.84.45-2.85 1.67-.02.78.67 1.48 1.56 1.56 1.1.1 2.51-.53 3.01-1.63.33-.69.33-1.23.33-1.93l-2.05.33ZM136.88 44.83c0 .7-.01 1.12.2 1.48.16.37.55.59.97.62.44.04.96.03 1.4-.05V48c-.57.14-1.35.17-1.9.06-.74-.14-1.32-.48-1.63-1.12-.3-.59-.3-1.24-.3-2.05v-4.22h-1.89V39.6h1.9v-2.33h1.25v2.33h2.56v1.06h-2.56v4.16ZM143.55 39.61h2.37v1.06h-2.37V48h-1.28v-7.33h-1.9V39.6h1.9v-.4c0-.68.17-1.45.78-1.99.78-.65 1.8-.7 2.87-.59v1.1a4.03 4.03 0 0 0-1.3.02c-.8.15-1.07.62-1.07 1.38v.48ZM147.65 46.87a4.84 4.84 0 0 1-.95-3.08c0-1.1.26-2.19.95-3.04a3.92 3.92 0 0 1 3.08-1.37c1.21 0 2.34.45 3.05 1.37.74.88.97 1.97.97 3.04 0 1.13-.25 2.18-.97 3.08a3.75 3.75 0 0 1-3.05 1.36 3.82 3.82 0 0 1-3.08-1.36Zm5.76-3.08c0-.8-.16-1.66-.62-2.28a2.54 2.54 0 0 0-2.06-.93c-.81 0-1.6.3-2.05.93a3.73 3.73 0 0 0-.64 2.28c0 .8.16 1.68.64 2.3a2.5 2.5 0 0 0 2.05.95c.8 0 1.59-.33 2.06-.95a3.8 3.8 0 0 0 .62-2.3ZM161.41 39.55v1.2c-.35-.13-.8-.2-1.26-.17-.66.01-1.23.23-1.62.62-.75.7-.78 1.61-.78 2.75V48h-1.28v-8.39h1.14v1.25a3.14 3.14 0 0 1 2.64-1.47c.4 0 .79.04 1.16.16ZM174.22 48h-1.26v-4.95c0-.86-.05-1.36-.64-1.87a1.8 1.8 0 0 0-1.2-.45c-.6 0-1.13.24-1.48.67-.38.47-.44.92-.44 1.44v.2l-.01 4.96h-1.25v-4.95c0-.86-.05-1.36-.66-1.87-.31-.3-.75-.45-1.2-.45-.58 0-1.13.24-1.47.67-.37.47-.44.92-.44 1.44V48h-1.27v-8.39h1.13v1.12a2.93 2.93 0 0 1 4.84.31 2.9 2.9 0 0 1 2.54-1.44c.65 0 1.32.23 1.83.65.9.73.98 1.6.98 2.8V48Z"/></g><g fill="#2E4398"><path d="M24.84.05a3.52 3.52 0 0 1 3.53 3.5 3.52 3.52 0 0 1-7.06 0 3.52 3.52 0 0 1 3.53-3.5ZM14.18.05a3.52 3.52 0 0 1 3.53 3.5 3.52 3.52 0 0 1-7.06 0 3.52 3.52 0 0 1 3.53-3.5ZM3.53.05a3.52 3.52 0 0 1 3.53 3.5 3.52 3.52 0 0 1-7.06 0A3.51 3.51 0 0 1 3.53.06ZM14.13 21.23a3.5 3.5 0 0 1 3.52 3.5 3.52 3.52 0 0 1-7.03 0 3.49 3.49 0 0 1 3.51-3.5ZM3.53 21.23a3.5 3.5 0 0 1 3.51 3.5 3.52 3.52 0 0 1-7.02 0 3.49 3.49 0 0 1 3.51-3.5ZM14.18 10.66a3.52 3.52 0 0 1 3.53 3.51 3.52 3.52 0 0 1-7.06 0 3.52 3.52 0 0 1 3.53-3.51ZM3.53 10.66a3.52 3.52 0 0 1 3.53 3.51 3.52 3.52 0 0 1-7.06 0 3.52 3.52 0 0 1 3.53-3.51Z"/></g></svg>
