<svg xmlns="http://www.w3.org/2000/svg" width="50" height="50" viewBox="0 0 50 50" fill="none">
  <mask id="mask0_1479_5574" style="mask-type:luminance" maskUnits="userSpaceOnUse" x="0" y="0" width="50" height="50">
    <path d="M0 0H50V50H0V0Z" fill="white"/>
  </mask>
  <g mask="url(#mask0_1479_5574)">
    <path d="M34.1855 10.3157C35.2539 8.86639 36.9724 7.92313 38.9041 7.92313V14.8511C41.1268 16.4503 42.8877 18.4417 44.01 20.687C45.4005 21.2827 46.7901 21.8808 48.1814 22.4748V30.3886C46.791 30.9857 45.3997 31.5807 44.0089 32.177C42.7386 34.7179 40.6506 36.9338 38.0007 38.6236C37.3695 41.3457 36.7397 44.0681 36.1095 46.7903H31.3242C30.9285 45.0856 30.5341 43.3806 30.1394 41.6758C28.6552 41.9548 27.1066 42.1028 25.5142 42.1028C23.9416 42.1028 22.4119 41.9582 20.9447 41.6858C20.5508 43.3874 20.1571 45.0888 19.7631 46.7903H14.9778C14.3493 44.0825 13.7226 41.3743 13.0963 38.666C8.55186 35.794 5.64111 31.3808 5.64111 26.431C5.64111 19.3807 11.5445 13.4179 19.6658 11.4488" stroke="white" stroke-width="2" stroke-miterlimit="22.926" stroke-linecap="round" stroke-linejoin="round"/>
    <path d="M26.8923 3.33334C30.7756 3.33334 33.9236 6.48129 33.9236 10.3646C33.9236 12.942 32.5365 15.1952 30.4682 16.4193H23.3165C21.2482 15.1952 19.8611 12.942 19.8611 10.3646C19.8611 6.48129 23.009 3.33334 26.8923 3.33334Z" stroke="white" stroke-width="2" stroke-miterlimit="22.926" stroke-linecap="round" stroke-linejoin="round"/>
    <path d="M4.75845 25.1728C2.58989 24.5025 1.11108 22.4976 1.11108 20.2279C1.11108 19.3482 1.3353 18.4831 1.76245 17.7143" stroke="white" stroke-width="2" stroke-miterlimit="22.926" stroke-linecap="round" stroke-linejoin="round"/>
    <path fill-rule="evenodd" clip-rule="evenodd" d="M36.9511 24.6223C37.758 24.6223 38.416 23.9643 38.416 23.1575C38.416 22.3507 37.758 21.6927 36.9511 21.6927C36.1443 21.6927 35.4863 22.3507 35.4863 23.1575C35.4863 23.9643 36.1443 24.6223 36.9511 24.6223Z" fill="white"/>
    <path d="M20.74 16.4192H33.0447" stroke="white" stroke-width="2" stroke-miterlimit="22.926" stroke-linecap="round" stroke-linejoin="round"/>
  </g>
</svg>