<svg xmlns="http://www.w3.org/2000/svg" width="50" height="50" viewBox="0 0 50 50" fill="none">
  <path d="M14.5846 29.167C15.9735 31.8456 20.0013 35.417 25.0013 35.417C30.0013 35.417 34.0291 31.8456 35.418 29.167M45.8346 25.0003C45.8346 36.5063 36.5072 45.8337 25.0013 45.8337C13.4954 45.8337 4.16797 36.5063 4.16797 25.0003C4.16797 13.4944 13.4954 4.16699 25.0013 4.16699C36.5072 4.16699 45.8346 13.4944 45.8346 25.0003Z" stroke="white" stroke-width="2" stroke-linecap="round"/>
  <path d="M20.8346 16.6673C20.8346 17.8179 19.9019 18.7507 18.7513 18.7507C17.6007 18.7507 16.668 17.8179 16.668 16.6673C16.668 15.5167 17.6007 14.584 18.7513 14.584C19.9019 14.584 20.8346 15.5167 20.8346 16.6673Z" fill="white"/>
  <path d="M33.3346 16.6673C33.3346 17.8179 32.4019 18.7507 31.2513 18.7507C30.1007 18.7507 29.168 17.8179 29.168 16.6673C29.168 15.5167 30.1007 14.584 31.2513 14.584C32.4019 14.584 33.3346 15.5167 33.3346 16.6673Z" fill="white"/>
</svg>