<svg xmlns="http://www.w3.org/2000/svg" viewBox="0 0 20 20"><path d="M14.5 6.13c0 1.1-.88 1.99-1.98 1.99v1.5A3.49 3.49 0 0 0 16 6.12h-1.5Zm-1.98 1.99c-1.1 0-2-.9-2-2h-1.5a3.49 3.49 0 0 0 3.5 3.5v-1.5Zm-2-2c0-1.09.9-1.98 2-1.98v-1.5a3.49 3.49 0 0 0-3.5 3.49h1.5Zm2-1.98c1.1 0 1.99.89 1.99 1.99H16a3.49 3.49 0 0 0-3.5-3.49v1.5Zm-2.74 8.22h5.48v-1.5H9.78v1.5Zm5.48 3.98H9.78v1.5h5.48v-1.5Zm-5.48 0c-1.1 0-2-.9-2-2h-1.5a3.49 3.49 0 0 0 3.5 3.5v-1.5Zm7.47-2c0 1.1-.9 2-2 2v1.5a3.49 3.49 0 0 0 3.5-3.5h-1.5Zm-2-1.98c1.1 0 2 .89 2 1.99h1.5a3.49 3.49 0 0 0-3.5-3.5v1.5Zm-5.47-1.5a3.49 3.49 0 0 0-3.5 3.49h1.5c0-1.1.9-2 2-2v-1.5ZM8.64 8.54a.8.8 0 0 0-.68-.36 2.05 2.05 0 0 1 0-4.1.8.8 0 0 0 .7-.4c.24-.37.12-.9-.33-.95a3.42 3.42 0 1 0 0 6.8c.45-.05.57-.58.33-.96l-.02-.03ZM5.86 15.78a.58.58 0 0 0-.49-.3h-.15a2.05 2.05 0 0 1 0-4.1h.15c.2 0 .39-.12.5-.29.25-.42-.03-1.08-.52-1.08h-.13a3.42 3.42 0 1 0 0 6.85h.13c.5 0 .77-.66.51-1.08Z" fill="currentColor"/></svg>