<svg xmlns="http://www.w3.org/2000/svg" viewBox="0 0 20 20"><path d="m4.22 17.54.44-.6-.44.6Zm-.92-.92.6-.45-.6.45Zm13.4 0-.6-.45.6.45Zm-.92.92-.44-.6.44.6Zm0-15.08.44-.6-.44.6Zm.92.92-.6.45.6-.45ZM4.22 2.46l.44.6-.44-.6Zm-.92.92.6.45-.6-.45Zm7.66 2.12.11.74-.11-.74Zm-1.3 0-.13.74.12-.74Zm-3 7.08a.75.75 0 0 0 0 1.5v-1.5Zm6.67 1.5a.75.75 0 0 0 0-1.5v1.5ZM6.67 9.25a.75.75 0 1 0 0 1.5v-1.5Zm2.5 1.5a.75.75 0 0 0 0-1.5v1.5Zm7.58-1.58v1.66h1.5V9.17h-1.5Zm-13.5 1.66V9.17h-1.5v1.66h1.5ZM10 17.58c-1.58 0-2.7 0-3.57-.1a3.52 3.52 0 0 1-1.77-.55l-.88 1.21c.7.51 1.5.73 2.49.84.96.1 2.18.1 3.73.1v-1.5Zm-8.25-6.75c0 1.55 0 2.77.1 3.74.11.98.33 1.79.84 2.49l1.21-.89c-.29-.4-.46-.91-.55-1.77-.1-.86-.1-1.99-.1-3.57h-1.5Zm2.9 6.1a3.41 3.41 0 0 1-.75-.76l-1.21.89c.3.41.67.78 1.09 1.08l.88-1.2Zm12.1-6.1c0 1.58 0 2.7-.1 3.57-.09.86-.26 1.38-.55 1.77l1.21.89c.5-.7.73-1.51.84-2.5.1-.96.1-2.18.1-3.73h-1.5ZM10 19.08c1.55 0 2.77 0 3.73-.1.98-.1 1.8-.33 2.5-.84l-.89-1.2c-.4.28-.91.46-1.77.55-.87.1-2 .1-3.57.1v1.5Zm6.1-2.9c-.21.29-.47.54-.76.75l.88 1.21c.42-.3.79-.67 1.1-1.08l-1.22-.89Zm2.15-7.01c0-1.55 0-2.77-.1-3.74-.11-.98-.33-1.79-.84-2.49l-1.21.89c.29.4.46.91.55 1.77.1.86.1 1.99.1 3.57h1.5Zm-2.9-6.1c.28.21.54.47.75.76l1.21-.89c-.3-.41-.67-.78-1.09-1.08l-.88 1.2Zm-12.1 6.1c0-1.58 0-2.7.1-3.57.09-.86.26-1.38.55-1.77L2.7 2.94c-.5.7-.73 1.51-.84 2.5-.1.96-.1 2.18-.1 3.73h1.5Zm.53-7.31c-.42.3-.79.67-1.1 1.08l1.22.89c.21-.3.47-.55.76-.76l-.88-1.21Zm7.06 2.9c-.36.05-.72.05-1.07 0l-.24 1.48c.51.08 1.03.08 1.54 0l-.23-1.48Zm-4.17 9.32h6.66v-1.5H6.67v1.5Zm0-3.33h2.5v-1.5h-2.5v1.5Zm8.17-9.07a30.96 30.96 0 0 1-2.43 2.28c-.63.5-1.1.72-1.57.8l.23 1.48a4.87 4.87 0 0 0 2.27-1.1c.73-.58 1.54-1.38 2.56-2.4l-1.06-1.06ZM10 2.42c1.39 0 2.43 0 3.25.06.83.07 1.37.2 1.78.4l.67-1.34a6.19 6.19 0 0 0-2.33-.55c-.9-.07-2-.07-3.37-.07v1.5Zm5.03.46.31.19.88-1.21a3.76 3.76 0 0 0-.52-.32l-.67 1.34Zm-10.5-.32A36.4 36.4 0 0 0 7.2 5.08a4.95 4.95 0 0 0 2.33 1.16l.24-1.48a3.49 3.49 0 0 1-1.63-.85A35.26 35.26 0 0 1 5.6 1.5L4.53 2.56ZM10 .92c-1.2 0-2.2 0-3.02.04-.83.05-1.54.15-2.16.36l.48 1.42c.43-.15.99-.24 1.77-.28.77-.04 1.72-.04 2.93-.04V.92Zm-5.18.4c-.38.13-.73.3-1.04.54l.88 1.2c.18-.13.4-.23.64-.32l-.48-1.42Z" fill="currentColor"/></svg>