<svg xmlns="http://www.w3.org/2000/svg" viewBox="0 0 20 20"><path d="M6.15 5.35a3.85 3.85 0 0 1 7.7 0m-7.7 0h7.7m-7.7 0c-1.32.02-2.14.13-2.78.48a3.85 3.85 0 0 0-1.66 1.82m0 0 2.75 2.75c2.57 2.57 3.85 3.85 5.45 3.85s2.87-1.28 5.44-3.85l2.8-2.8a.55.55 0 0 1 .09-.07M1.7 7.65l-.03.07c-.38.92-.25 2.1.01 4.47.22 1.94.33 2.9.77 3.64.4.64.97 1.15 1.65 1.47.78.37 1.75.37 3.7.37h4.38c1.95 0 2.92 0 3.7-.37a3.85 3.85 0 0 0 1.65-1.47c.44-.74.55-1.7.77-3.64.26-2.37.4-3.55.01-4.47a3.88 3.88 0 0 0-.08-.19m-4.4-2.17c1.34.02 2.15.12 2.79.47.7.39 1.26.98 1.6 1.7" fill="none" stroke="currentColor" stroke-width="1.5"/></svg>