<svg xmlns="http://www.w3.org/2000/svg" viewBox="0 0 20 20"><path d="M5.83 5a4.17 4.17 0 1 1 8.34 0v.01M5.83 5h6.54l1.8.01M5.83 5c-1.43.03-2.31.14-3 .52A4.17 4.17 0 0 0 .99 7.57C.7 8.27.7 9.1.8 10.42M18.86 7.4l.06-.04m-4.75-2.35c1.43.03 2.31.13 3 .5a4.17 4.17 0 0 1 1.75 1.85m0 0 .09.2c.29.7.3 1.54.19 2.86m-18.4 0L1 12.4c.24 2.1.36 3.15.84 3.94.43.7 1.05 1.25 1.79 1.6.84.4 1.9.4 4 .4h4.74c2.1 0 3.16 0 4-.4.74-.35 1.36-.9 1.79-1.6.48-.8.6-1.84.83-3.94.09-.77.16-1.42.2-1.98m-18.39 0h18.4" fill="none" stroke="currentColor" stroke-width="1.5"/></svg>