<svg xmlns="http://www.w3.org/2000/svg" viewBox="0 0 20 20"><g fill="currentColor"><path d="M17.58 10c0 4.19-3.4 7.58-7.58 7.58v1.5A9.08 9.08 0 0 0 19.08 10h-1.5ZM10 17.58A7.58 7.58 0 0 1 2.42 10H.92A9.08 9.08 0 0 0 10 19.08v-1.5ZM2.42 10c0-4.19 3.4-7.58 7.58-7.58V.92A9.08 9.08 0 0 0 .92 10h1.5ZM10 2.42c4.19 0 7.58 3.4 7.58 7.58h1.5A9.08 9.08 0 0 0 10 .92v1.5ZM9.33 15a.75.75 0 0 0 1.5 0h-1.5Zm1.5-10a.75.75 0 1 0-1.5 0h1.5Zm.7 2.81a.75.75 0 0 0 1.28-.76l-1.29.76Zm.38-.8-.64.38.64-.38ZM9.5 9.79l.25-.7-.25.7Zm1.17.42.25-.7-.25.7Zm-2.42 2.78-.64.39.64-.39Zm.4-.8a.75.75 0 0 0-1.3.76l1.3-.76Zm2.33 1.51-.37-.65.37.65Zm-1.8-7.4.37.65-.36-.65Zm.9 3.7-.25.7.25-.7Zm0 3.96-.03-.75.03.75Zm2.73-6.91-.25-.43-1.3.77.26.42 1.3-.76ZM8.9 12.6l-.26-.42-1.28.76.25.43 1.29-.77Zm1.52-1.7c.99.36 1.09 1.64.2 2.14l.73 1.3a2.66 2.66 0 0 0-.43-4.85l-.5 1.42Zm-1.6-5.27a2.66 2.66 0 0 0 .42 4.86l.5-1.42a1.16 1.16 0 0 1-.19-2.13l-.73-1.3ZM10.83 15v-1.04h-1.5V15h1.5Zm-.22-1.95c-.18.1-.37.15-.56.16l.07 1.5c.42-.02.84-.13 1.23-.35l-.74-1.31Zm-.56.16c-.47.02-.92-.2-1.15-.6l-1.3.77c.55.9 1.54 1.38 2.52 1.33l-.07-1.5Zm-.8-2.71.58.2.5-1.4-.58-.22-.5 1.42Zm.58.2.59.22.5-1.42-.58-.2-.5 1.4Zm1-4.66V5h-1.5v1.04h1.5Zm1.73.58a2.76 2.76 0 0 0-2.51-1.33l.07 1.5c.47-.02.91.2 1.15.6l1.29-.77ZM10.05 5.3c-.42.02-.84.14-1.23.35l.73 1.31c.18-.1.38-.15.57-.16l-.07-1.5Z"/></g></svg>