<svg xmlns="http://www.w3.org/2000/svg" viewBox="0 0 20 20"><path d="M10.75 6.67a.75.75 0 0 0-1.5 0h1.5Zm3.12 4.52a.75.75 0 1 0-1.07-1.05l1.07 1.05Zm-1.7.65.53.53-.53-.53Zm-4.34 0-.53.53.53-.53Zm-.63-1.7a.75.75 0 0 0-1.07 1.05l1.07-1.05Zm3 3.18.1.74-.1-.74Zm-.4 0-.1.74.1-.74ZM17.57 10c0 4.19-3.4 7.58-7.58 7.58v1.5A9.08 9.08 0 0 0 19.08 10h-1.5ZM10 17.58A7.58 7.58 0 0 1 2.42 10H.92A9.08 9.08 0 0 0 10 19.08v-1.5ZM2.42 10c0-4.19 3.4-7.58 7.58-7.58V.92A9.08 9.08 0 0 0 .92 10h1.5ZM10 2.42c4.19 0 7.58 3.4 7.58 7.58h1.5A9.08 9.08 0 0 0 10 .92v1.5Zm-.75 4.25v6h1.5v-6h-1.5Zm3.55 3.47-1.16 1.17 1.06 1.06 1.17-1.18-1.07-1.05ZM8.36 11.3 7.2 10.14l-1.07 1.05 1.17 1.18 1.06-1.06Zm3.28 0c-.48.49-.8.8-1.06 1.01-.25.2-.38.24-.47.26l.2 1.48c.47-.06.86-.28 1.21-.57.35-.28.73-.66 1.18-1.12l-1.06-1.06ZM7.3 12.37c.45.46.83.84 1.18 1.12.35.29.74.51 1.22.57l.19-1.48c-.1-.02-.22-.06-.47-.26-.27-.21-.58-.52-1.06-1L7.3 12.36Zm2.81.2a.9.9 0 0 1-.11.01v1.5c.1 0 .2 0 .3-.02l-.19-1.48Zm-.11.01a.9.9 0 0 1-.11 0l-.2 1.48c.1.02.2.02.31.02v-1.5Zm-.75.09v.66h1.5v-.66h-1.5Z" fill="currentColor"/></svg>