<svg xmlns="http://www.w3.org/2000/svg" viewBox="0 0 20 20"><path d="M17.53 3.69a1.7 1.7 0 1 1-3.42 0 1.7 1.7 0 0 1 3.42 0Z" fill="none" stroke="currentColor" stroke-width="1.5"/><path fill-rule="evenodd" clip-rule="evenodd" d="M18.52 6.84c-.12-.35-.58-.44-.9-.24a.65.65 0 0 0-.3.74 7.9 7.9 0 0 1-1.92 8.04 8.45 8.45 0 0 1-3.87 2.11 6.13 6.13 0 0 1-4.74-.65l-.04-.02a2.85 2.85 0 0 0-.4-.23 1.4 1.4 0 0 0-.67-.1c-.14.01-.28.05-.4.08l-.04.01c-.55.14-.93.24-1.22.3-.3.05-.43.05-.5.03a1.07 1.07 0 0 1-.83-.83 1.4 1.4 0 0 1 .04-.5c.05-.29.15-.66.3-1.21v-.04c.04-.13.07-.27.08-.4.02-.25 0-.45-.1-.67a2.82 2.82 0 0 0-.22-.4l-.03-.05a6.1 6.1 0 0 1-.68-4.7 7.9 7.9 0 0 1 10.07-5.87c.28.09.58-.05.74-.3.19-.33.1-.78-.27-.9A9.19 9.19 0 0 0 .83 7.81a7.37 7.37 0 0 0 1 5.97v.09l-.05.18v.02c-.14.52-.25.94-.31 1.28-.07.34-.1.67-.04.99.2.92.92 1.64 1.84 1.83.32.07.65.03.99-.03.34-.07.76-.18 1.27-.31h.03a6.65 6.65 0 0 1 .22-.06h.05a.23.23 0 0 0 .09.04l.2.12a7.4 7.4 0 0 0 5.71.8 9.73 9.73 0 0 0 4.48-2.44 9.19 9.19 0 0 0 2.2-9.45ZM5.78 17.77Z" fill="currentColor"/><path d="M7.28 9.67a.85.85 0 1 1-1.71 0 .85.85 0 0 1 1.7 0ZM10.7 9.67a.85.85 0 1 1-1.72 0 .85.85 0 0 1 1.71 0ZM14.11 9.67a.85.85 0 1 1-1.7 0 .85.85 0 0 1 1.7 0Z" fill="currentColor"/></svg>