<svg xmlns="http://www.w3.org/2000/svg" viewBox="0 0 20 20"><path d="M14.44 14.17H10.9m7.53-5.84V10c0 2.33 0 3.5-.48 4.4A4.32 4.32 0 0 1 16 16.2c-.95.46-2.62.46-5.11.46H9.1c-2.49 0-4.16 0-5.1-.46a4.32 4.32 0 0 1-1.95-1.82c-.48-.89-.48-2.06-.48-4.39V8.33m16.84 0c-.03-1.28-.13-2.07-.48-2.72A4.32 4.32 0 0 0 16 3.79c-.95-.46-2.62-.46-5.11-.46H9.1c-2.49 0-4.16 0-5.1.46A4.32 4.32 0 0 0 2.05 5.6c-.35.65-.45 1.44-.47 2.72m16.83 0H1.59" fill="none" stroke="currentColor" stroke-width="1.5" stroke-linecap="round"/></svg>