<svg xmlns="http://www.w3.org/2000/svg" viewBox="0 0 20 20"><g fill="none" stroke="currentColor" stroke-width="1.5"><path d="M13.5 6.67h-7c-2.67 0-4 0-4.27-.57a1 1 0 0 1-.1-.39c-.02-.63 1.15-1.26 3.49-2.52 1.96-1.06 2.94-1.58 4-1.66a5 5 0 0 1 .76 0c1.05.08 2.04.6 4 1.66 2.34 1.26 3.51 1.9 3.49 2.52a1 1 0 0 1-.1.39c-.27.57-1.6.57-4.27.57ZM3.33 6.67h3.33v9.17H3.33zM13.33 6.67h3.33v9.17h-3.33z"/><path d="M2.34 16.64a1 1 0 0 1 .98-.8h13.36a1 1 0 0 1 .98.8l.1.5a1 1 0 0 1-.98 1.2H3.22a1 1 0 0 1-.98-1.2l.1-.5Z"/></g></svg>