<svg xmlns="http://www.w3.org/2000/svg" viewBox="0 0 20 20"><path d="M11.67 5.08a.75.75 0 0 0 0 1.5v-1.5Zm5 1.5a.75.75 0 0 0 0-1.5v1.5Zm-3.25 1.75a.75.75 0 0 0 1.5 0h-1.5Zm1.5-5a.75.75 0 0 0-1.5 0h1.5ZM5.83 7.58l-.86-.01c-.2-.01-.27-.04-.32-.06L4.08 8.9c.25.1.52.15.79.17l.96.01v-1.5ZM2.58 5.83c0 .38 0 .7.02.97s.06.53.17.8l1.38-.58a1.04 1.04 0 0 1-.05-.33c-.02-.2-.02-.46-.02-.86h-1.5Zm2.07 1.68a.92.92 0 0 1-.5-.5l-1.38.58c.24.6.71 1.06 1.3 1.3l.58-1.38Zm2.93-1.68-.01.86c-.01.2-.04.28-.06.33l1.39.57c.1-.26.15-.52.17-.8l.01-.96h-1.5ZM5.83 9.08l.97-.01c.27-.02.53-.06.8-.17L7.01 7.5c-.05.02-.13.05-.33.06l-.86.01v1.5Zm1.68-2.06c-.09.22-.27.4-.5.5L7.6 8.9c.6-.25 1.06-.72 1.3-1.3l-1.38-.58ZM5.83 4.08c.4 0 .66 0 .86.02.2.01.28.03.33.05l.57-1.38c-.26-.11-.52-.15-.8-.17-.26-.02-.58-.02-.96-.02v1.5Zm3.25 1.75-.01-.96a2.48 2.48 0 0 0-.17-.8l-1.39.58c.02.05.05.13.06.32l.01.86h1.5ZM7.02 4.15c.22.1.4.27.5.5l1.38-.57a2.42 2.42 0 0 0-1.3-1.31l-.58 1.38ZM5.83 2.58c-.37 0-.7 0-.96.02-.27.02-.54.06-.8.17l.58 1.38c.05-.02.13-.04.32-.05.2-.02.46-.02.86-.02v-1.5ZM4.08 5.83c0-.4 0-.66.02-.86.01-.2.03-.27.05-.32l-1.38-.57c-.11.25-.15.52-.17.79-.02.26-.02.59-.02.96h1.5Zm0-3.06c-.6.24-1.07.71-1.31 1.3l1.38.58c.1-.23.27-.4.5-.5l-.57-1.38Zm7.59 3.81h5v-1.5h-5v1.5Zm3.25 1.75v-5h-1.5v5h1.5Zm-9.09 7.59c-.4 0-.66 0-.86-.02-.2-.01-.27-.03-.32-.05l-.57 1.38c.25.11.52.15.79.17.26.02.59.02.96.02v-1.5Zm-3.25-1.75c0 .37 0 .7.02.96.02.27.06.54.17.8l1.38-.58a1.04 1.04 0 0 1-.05-.32c-.02-.2-.02-.46-.02-.86h-1.5Zm2.07 1.68a.92.92 0 0 1-.5-.5l-1.38.57c.24.6.71 1.07 1.3 1.31l.58-1.38Zm2.93-1.68-.01.86c-.01.2-.04.27-.06.32l1.39.57c.1-.25.15-.52.17-.79l.01-.96h-1.5Zm-1.75 3.25c.38 0 .7 0 .97-.02s.53-.06.8-.17l-.58-1.38c-.05.02-.13.04-.33.05-.2.02-.46.02-.86.02v1.5Zm1.68-2.07c-.09.23-.27.4-.5.5l.58 1.38c.6-.24 1.06-.71 1.3-1.3l-1.38-.58Zm-1.68-2.93.86.01c.2.01.28.04.33.06l.57-1.39c-.26-.1-.52-.15-.8-.17l-.96-.01v1.5Zm3.25 1.75-.01-.97a2.48 2.48 0 0 0-.17-.8l-1.39.58c.02.05.05.13.06.33l.01.86h1.5Zm-2.06-1.68c.22.09.4.27.5.5l1.38-.58a2.42 2.42 0 0 0-1.3-1.3l-.58 1.38Zm-1.19-1.57-.96.01c-.27.02-.54.06-.8.17l.58 1.39c.05-.02.13-.05.32-.06l.86-.01v-1.5Zm-1.75 3.25c0-.4 0-.66.02-.86.01-.2.03-.28.05-.33l-1.38-.57c-.11.26-.15.52-.17.8-.02.26-.02.58-.02.96h1.5Zm0-3.07c-.6.25-1.07.72-1.31 1.3l1.38.58c.1-.22.27-.4.5-.5l-.57-1.38Zm10.09 4.82c-.4 0-.66 0-.86-.02-.2-.01-.28-.03-.33-.05l-.57 1.38c.26.11.52.15.8.17.26.02.58.02.96.02v-1.5Zm-3.25-1.75.01.96c.02.27.06.54.17.8l1.39-.58a1.03 1.03 0 0 1-.06-.32l-.01-.86h-1.5Zm2.06 1.68a.92.92 0 0 1-.5-.5l-1.38.57c.25.6.72 1.07 1.3 1.31l.58-1.38Zm2.94-1.68c0 .4 0 .66-.02.86-.01.2-.03.27-.05.32l1.38.57c.11-.25.15-.52.17-.79.02-.26.02-.59.02-.96h-1.5Zm-1.75 3.25c.37 0 .7 0 .96-.02.27-.02.54-.06.8-.17l-.58-1.38c-.05.02-.13.04-.32.05-.2.02-.46.02-.86.02v1.5Zm1.68-2.07c-.1.23-.27.4-.5.5l.57 1.38c.6-.24 1.07-.71 1.31-1.3l-1.38-.58Zm-1.68-2.93.86.01c.2.01.27.04.32.06l.57-1.39c-.25-.1-.52-.15-.79-.17l-.96-.01v1.5Zm3.25 1.75c0-.38 0-.7-.02-.97a2.48 2.48 0 0 0-.17-.8l-1.38.58c.02.05.04.13.05.33.02.2.02.46.02.86h1.5Zm-2.07-1.68c.23.09.4.27.5.5l1.38-.58a2.42 2.42 0 0 0-1.3-1.3l-.58 1.38Zm-1.18-1.57-.97.01c-.27.02-.53.06-.8.17l.58 1.39c.05-.02.13-.05.33-.06l.86-.01v-1.5Zm-1.75 3.25.01-.86c.01-.2.04-.28.06-.33l-1.39-.57c-.1.26-.15.52-.17.8l-.01.96h1.5Zm-.01-3.07c-.6.25-1.06.72-1.3 1.3l1.38.58c.09-.22.27-.4.5-.5l-.58-1.38Z" fill="currentColor"/></svg>