<svg xmlns="http://www.w3.org/2000/svg" viewBox="0 0 20 20"><path d="M16.8 6.85a.75.75 0 0 0 0-1.5v1.5ZM4.9 3.57l-.52-.54.53.54Zm1.9-.83a.75.75 0 1 0-1.05-1.07l1.06 1.07Zm8.46 13.7.52.53-.52-.54Zm-1.9.82a.75.75 0 1 0 1.05 1.07l-1.06-1.07Zm3.62-3.12.75.1-.75-.1Zm-13.82-1a.75.75 0 0 0 0 1.5v-1.5ZM17 14.1l.75.08-.75-.08ZM3.41 6.85h13.4v-1.5H3.4v1.5ZM5.43 4.1l1.38-1.36-1.06-1.07-1.37 1.36L5.43 4.1ZM4.38 3.03c-.54.53-.99.98-1.3 1.37-.33.4-.58.84-.65 1.36l1.5.2c0-.14.07-.32.32-.62.25-.31.62-.69 1.18-1.24L4.38 3.03ZM14.73 15.9l-1.38 1.36 1.06 1.07 1.37-1.36-1.05-1.07Zm1.05 1.07c.54-.53.99-.98 1.3-1.37.33-.4.58-.84.65-1.36l-1.49-.2c-.02.14-.08.32-.33.62-.25.31-.62.69-1.18 1.24l1.05 1.07Zm.46-2.95v.03l1.49.19v-.07l-1.49-.15Zm.56-.87H3.16v1.5H16.8v-1.5Zm.94 1.02a.93.93 0 0 0-.94-1.02v1.5a.57.57 0 0 1-.56-.63l1.5.15ZM3.4 5.35c.25 0 .56.22.51.6l-1.49-.19a.97.97 0 0 0 .98 1.1v-1.5Z" fill="currentColor"/></svg>