<svg xmlns="http://www.w3.org/2000/svg" viewBox="0 0 20 20"><path d="m4.11 17.3.32-.68-.32.68ZM1.7 12.2l-.74.08.74-.08Zm.77 3.64.64-.4-.64.4Zm15.85-3.64.74.08-.74-.08Zm-.77 3.64-.64-.4.64.4Zm-1.65 1.47.31.68-.31-.68Zm.74-11.47.36-.66-.36.66Zm1.7 1.9.68-.3-.69.3ZM3.36 5.82l.37.66-.37-.66Zm-1.7 1.9.7.28-.7-.29Zm4.48-2.38.01.75-.01-.75Zm-4.44 2.3-.69-.3.69.3Zm5.3.1a.75.75 0 0 0 0 1.5v-1.5Zm6 1.5a.75.75 0 1 0 0-1.5v1.5ZM7.8 6.1h4.38V4.6H7.8v1.5Zm4.38 10.82H7.8v1.5h4.38v-1.5Zm-4.38 0c-.98 0-1.68 0-2.23-.05a3.23 3.23 0 0 1-1.15-.25l-.63 1.36c.5.24 1.04.34 1.67.39.62.05 1.38.05 2.34.05v-1.5ZM.95 12.27c.1.96.19 1.72.3 2.33.12.62.28 1.14.57 1.62l1.28-.79a3.23 3.23 0 0 1-.37-1.11c-.1-.54-.18-1.23-.3-2.21l-1.48.16Zm3.48 4.35a3.1 3.1 0 0 1-1.33-1.19l-1.28.79a4.6 4.6 0 0 0 1.98 1.76l.63-1.36Zm13.13-4.51c-.1.98-.18 1.67-.29 2.2-.1.54-.22.87-.37 1.12l1.28.79c.29-.48.45-1 .57-1.62.11-.61.2-1.37.3-2.33l-1.49-.16Zm-5.37 6.3c.96 0 1.72 0 2.34-.04a4.69 4.69 0 0 0 1.67-.39l-.63-1.36c-.28.13-.61.21-1.15.25-.55.05-1.25.05-2.23.05v1.5Zm4.7-2.98a3.1 3.1 0 0 1-1.32 1.2l.63 1.35c.82-.38 1.5-1 1.98-1.76l-1.28-.79Zm2.16-3.16c.13-1.17.24-2.1.25-2.84.02-.75-.04-1.4-.29-2l-1.38.58c.13.32.2.72.18 1.38-.02.67-.12 1.52-.25 2.72l1.5.16Zm-16.61-.16c-.14-1.2-.23-2.05-.25-2.72-.01-.66.05-1.06.18-1.38L1 7.43c-.25.6-.32 1.25-.3 2 .02.75.13 1.67.26 2.84l1.49-.16ZM10 2.25a3.1 3.1 0 0 1 3.1 3.1h1.5A4.6 4.6 0 0 0 10 .75v1.5Zm0-1.5a4.6 4.6 0 0 0-4.6 4.6h1.5a3.1 3.1 0 0 1 3.1-3.1V.75ZM3.01 5.17a4.6 4.6 0 0 0-1.99 2.18l1.38.6A3.1 3.1 0 0 1 3.74 6.5L3 5.17ZM1.02 7.35 1 7.43l1.38.58.03-.06-1.38-.6ZM12.2 6.1h1.64l.03-1.5H12.2v1.5Zm1.64 0c1.34.03 1.98.13 2.43.39L17 5.17c-.82-.45-1.8-.54-3.13-.56l-.03 1.5Zm-.73-.75h1.5-1.5ZM7.8 4.6H6.14l.02 1.5h1.65V4.6Zm-1.67 0c-1.32.02-2.31.12-3.13.57l.73 1.32c.45-.26 1.1-.37 2.42-.4l-.02-1.5Zm10.12 1.89c.57.3 1.02.79 1.3 1.37l1.35-.65A4.6 4.6 0 0 0 17 5.17l-.73 1.32Zm1.3 1.37.07.15L19 7.43a4.57 4.57 0 0 0-.1-.22l-1.35.65Zm1.03.34.05-.04-.81-1.26-.05.04.81 1.26ZM7 9.25h6v-1.5H7v1.5Z" fill="currentColor"/></svg>