<svg xmlns="http://www.w3.org/2000/svg" viewBox="0 0 20 20"><path clip-rule="evenodd" d="M13.57 5.83a.6.6 0 1 0 1.2 0 .6.6 0 0 0-1.2 0Z" fill="none" stroke="currentColor" stroke-width="1.5" stroke-linecap="round" stroke-linejoin="round"/><path d="M17.58 8.81a.75.75 0 0 0 1.5 0h-1.5ZM1.67 13.57h.75-.75Zm.34 3.3a.75.75 0 1 0 1.2-.9l-1.2.9ZM19.08 8.8a.75.75 0 0 0-1.5 0h1.5ZM6.43 18.33v-.75.75ZM3.2 15.97a.75.75 0 1 0-1.2.9l1.2-.9Zm15.63-6.6a.75.75 0 1 0-1.01-1.12l1 1.12Zm-6.1 4.51-.5-.55h-.01l.5.55Zm-.9.31-.07.75.06-.75Zm-.85-.45.6-.46-.6.46Zm-2.4-3.07.6-.47-.6.47Zm-.95-.46-.02-.75.02.75Zm-.95.5-.6-.44.6.43ZM2 15.97a.75.75 0 0 0 1.22.87L2 15.98Zm17.08-7.17V6.43h-1.5V8.8h1.5Zm0-2.38a5.51 5.51 0 0 0-5.5-5.51v1.5c2.2 0 4 1.8 4 4h1.5ZM13.58.92H6.42v1.5h7.14V.92Zm-7.15 0a5.51 5.51 0 0 0-5.51 5.5h1.5c0-2.2 1.8-4 4-4V.92ZM.92 6.42v7.15h1.5V6.43H.92Zm0 7.15A5.5 5.5 0 0 0 2 16.87l1.2-.9a4 4 0 0 1-.8-2.4H.92Zm16.66-4.76v4.76h1.5V8.81h-1.5Zm0 4.76c0 2.22-1.8 4.01-4 4.01v1.5a5.51 5.51 0 0 0 5.5-5.5h-1.5Zm-4 4.01H6.42v1.5h7.14v-1.5Zm-7.15 0a4 4 0 0 1-3.22-1.61l-1.2.9a5.5 5.5 0 0 0 4.42 2.21v-1.5Zm11.4-9.33-5.6 5.08 1.01 1.1 5.6-5.06-1.01-1.12Zm-5.6 5.08a.44.44 0 0 1-.34.12l-.12 1.5c.54.04 1.08-.15 1.48-.52l-1.02-1.1Zm-.34.12a.44.44 0 0 1-.3-.17l-1.2.92c.34.43.84.7 1.38.74l.12-1.5Zm-.3-.17-2.4-3.08-1.18.93 2.39 3.07 1.18-.92Zm-2.4-3.08a1.94 1.94 0 0 0-1.57-.74l.03 1.5c.14 0 .27.06.36.17l1.18-.93Zm-1.57-.74c-.61.01-1.18.31-1.54.8l1.22.88a.44.44 0 0 1 .35-.18l-.03-1.5Zm-1.54.8L2 15.99l1.22.87 4.08-5.7-1.22-.88Z" fill="currentColor"/></svg>