<svg xmlns="http://www.w3.org/2000/svg" viewBox="0 0 20 20"><path d="M17.5 7.5h-5A2.5 2.5 0 0 0 10 10v0a2.5 2.5 0 0 0 2.5 2.5h5M13 10h2m-5.89 7h1.78c2.49 0 3.73 0 4.68-.48a4.41 4.41 0 0 0 1.95-1.9c.48-.94.48-2.17.48-4.62l-.01-1.75c-.03-1.35-.12-2.18-.47-2.86a4.41 4.41 0 0 0-1.95-1.91C14.62 3 13.37 3 10.9 3H9.1c-2.49 0-3.73 0-4.68.48a4.41 4.41 0 0 0-1.95 1.9c-.35.69-.44 1.52-.47 2.87L2 10c0 2.45 0 3.68.48 4.61.43.82 1.11 1.5 1.95 1.91.95.48 2.2.48 4.68.48Z" fill="none" stroke="currentColor" stroke-width="1.5" stroke-linecap="round"/></svg>