<svg xmlns="http://www.w3.org/2000/svg" viewBox="0 0 20 20"><path d="m2.52 5.92.67.34-.67-.34Zm.2-.36.64.4-.63-.4Zm3.31 11.32-.37.64.37-.64Zm-3.3-2.44.63-.4-.63.4Zm-.2-.36.66-.34-.67.34Zm11.44 2.8.37.64-.37-.64Zm-3.76 1.64.03.75-.03-.75Zm-.42 0-.03.75.03-.75Zm7.69-4.44-.67-.34.67.34Zm-.2.36-.64-.4.63.4Zm0-8.88-.64.4.63-.4Zm.2.36-.67.34.67-.34ZM10.2 1.48l.03-.75-.03.75Zm-.42 0L9.76.73l.03.75Zm5.9 14.24-.71.21v.02l.01.02.7-.25Zm-11.4.02-.71-.2-.01.02v.04l.73.14Zm-.01.1-.4.62.4-.63Zm8.3-8.34A2.58 2.58 0 0 1 10 10.08v1.5a4.08 4.08 0 0 0 4.08-4.08h-1.5ZM10 10.08A2.58 2.58 0 0 1 7.42 7.5h-1.5A4.08 4.08 0 0 0 10 11.58v-1.5ZM7.42 7.5A2.58 2.58 0 0 1 10 4.92v-1.5A4.08 4.08 0 0 0 5.92 7.5h1.5ZM10 4.92a2.58 2.58 0 0 1 2.58 2.58h1.5A4.08 4.08 0 0 0 10 3.42v1.5ZM2.81 10c0-1.07 0-1.83.06-2.43.05-.6.15-.98.32-1.3l-1.34-.7a4.88 4.88 0 0 0-.48 1.86c-.06.69-.06 1.52-.06 2.57h1.5Zm2.85-7.52c-.91.52-1.64.94-2.2 1.33-.57.4-1.02.81-1.36 1.35l1.26.8c.2-.3.48-.58.97-.92.49-.35 1.15-.73 2.08-1.27l-.75-1.3ZM3.19 6.26c.05-.1.1-.2.17-.3l-1.26-.8c-.1.13-.17.27-.25.42l1.34.68ZM1.3 10c0 1.05 0 1.88.06 2.57.06.7.2 1.29.48 1.85l1.34-.68a3.4 3.4 0 0 1-.32-1.3c-.06-.6-.06-1.37-.06-2.44h-1.5Zm2.05 4.03-.17-.3-1.34.7.25.41 1.26-.8Zm10.23 2.2c-.93.53-1.58.91-2.13 1.16a3.4 3.4 0 0 1-1.3.38l.08 1.5a4.88 4.88 0 0 0 1.85-.51c.62-.3 1.35-.71 2.25-1.24l-.75-1.3Zm-7.93 1.3c.9.52 1.63.94 2.25 1.23.63.3 1.21.47 1.85.5l.07-1.5a3.4 3.4 0 0 1-1.29-.37c-.55-.25-1.2-.63-2.13-1.16l-.75 1.3Zm4.5.24h-.33l-.07 1.5h.48l-.07-1.5ZM17.2 10c0 1.07 0 1.83-.06 2.43a3.4 3.4 0 0 1-.32 1.3l1.34.7c.29-.57.42-1.17.48-1.86.06-.69.06-1.52.06-2.57h-1.5Zm-.38 3.74c-.05.1-.1.2-.17.3l1.26.8c.1-.13.17-.27.25-.42l-1.34-.68ZM13.6 3.77c.93.54 1.59.92 2.08 1.27.49.34.77.62.97.93l1.26-.81c-.34-.54-.79-.95-1.36-1.35-.56-.4-1.29-.81-2.2-1.33l-.75 1.3ZM18.7 10c0-1.05 0-1.88-.06-2.57-.06-.7-.2-1.29-.48-1.85l-1.34.68c.17.33.27.72.32 1.3.06.6.06 1.37.06 2.44h1.5Zm-2.05-4.03.17.3 1.34-.7a4.93 4.93 0 0 0-.25-.41l-1.26.8Zm-2.3-3.5c-.9-.52-1.63-.94-2.25-1.23a4.88 4.88 0 0 0-1.85-.5l-.07 1.5c.37.01.75.12 1.29.37.55.25 1.2.63 2.13 1.16l.75-1.3Zm-7.93 1.3c.93-.53 1.58-.91 2.13-1.16a3.4 3.4 0 0 1 1.3-.38L9.75.73c-.64.04-1.22.22-1.85.51-.62.3-1.35.71-2.25 1.24l.75 1.3ZM10.24.73h-.48l.07 1.5h.34l.07-1.5ZM7.5 14.08h5v-1.5h-5v1.5Zm5 0c1.17 0 2.16.78 2.48 1.85l1.44-.42a4.08 4.08 0 0 0-3.92-2.93v1.5Zm1.84 3.44c.72-.4 1.31-.75 1.8-1.07l-.81-1.26c-.45.3-1.01.62-1.74 1.04l.75 1.3Zm1.8-1.07a5.5 5.5 0 0 0 1.76-1.6l-1.26-.82c-.24.38-.61.71-1.31 1.16l.81 1.26Zm-1.15-.48.04.1 1.41-.5-.04-.1-1.41.5ZM7.5 12.58a4.08 4.08 0 0 0-3.92 2.95l1.44.42a2.58 2.58 0 0 1 2.48-1.87v-1.5Zm-1.1 3.65c-.71-.42-1.27-.74-1.72-1.03l-.8 1.26c.48.32 1.07.66 1.78 1.06l.75-1.3ZM4.69 15.2a4.09 4.09 0 0 1-1.32-1.17l-1.26.81c.42.66 1 1.13 1.77 1.62l.81-1.26Zm-1.12.4-.02.1 1.48.27.01-.09-1.47-.28Z" fill="currentColor"/></svg>