<svg xmlns="http://www.w3.org/2000/svg" viewBox="0 0 20 20"><path d="M3.42 17.5a.75.75 0 0 0 1.5 0h-1.5ZM15.18 5.24l-.42-.62.42.62Zm-.23.16.42.62-.42-.62Zm0 3.37.42-.62-.42.62Zm.23.16-.42.62.42-.62ZM4.92 17.5v-13h-1.5v13h1.5ZM6.17 3.25h8.16v-1.5H6.17v1.5Zm8.16 7.67H4.17v1.5h10.16v-1.5Zm.43-6.3-.24.16.85 1.24.24-.16-.85-1.24Zm-.24 4.76.24.17.85-1.24-.24-.16-.85 1.23Zm.24.17c.2.14.32.37.32.61h1.5c0-.74-.36-1.43-.97-1.85l-.85 1.24ZM15.08 4c0 .25-.12.48-.32.62l.85 1.24c.6-.42.97-1.12.97-1.86h-1.5Zm-.56.78a2.8 2.8 0 0 0 0 4.6l.85-1.23a1.3 1.3 0 0 1 0-2.13l-.85-1.24Zm-.19 7.64c1.25 0 2.25-1.01 2.25-2.26h-1.5c0 .42-.33.76-.75.76v1.5Zm0-9.17c.42 0 .75.34.75.75h1.5c0-1.24-1-2.25-2.25-2.25v1.5ZM4.92 4.5a8.63 8.63 0 0 1 .07-1.17L3.93 2.25c-.31.31-.42.69-.47 1.04-.04.34-.04.75-.04 1.2h1.5Zm1.25-2.75c-.45 0-.87 0-1.2.04-.36.05-.73.16-1.04.47l1.06 1.06H5a8.63 8.63 0 0 1 1.16-.07v-1.5Z" fill="currentColor"/></svg>