<svg xmlns="http://www.w3.org/2000/svg" viewBox="0 0 20 20"><path clip-rule="evenodd" d="M7.28 6.31a54.41 54.41 0 0 0-2.05 3.34l-1.16-1.2a1.98 1.98 0 0 1 0-2.73c.34-.36.81-.56 1.3-.56h2.71c-.27.37-.54.75-.8 1.15ZM13.7 12.72c-1.27.84-2.53 1.59-3.35 2.05l1.2 1.17c.77.72 1.96.72 2.73 0 .36-.35.56-.82.56-1.32v-2.7c-.37.27-.75.54-1.15.8Z" fill="none" stroke="currentColor" stroke-width="1.5" stroke-linecap="round" stroke-linejoin="round"/><path d="M4.73 12.02a.75.75 0 1 0-1.06-1.06l1.06 1.06ZM.8 13.82a.75.75 0 1 0 1.06 1.07L.8 13.83Zm6.09.35a.75.75 0 0 0-1.06-1.06l1.06 1.06Zm-2.5.38a.75.75 0 0 0 1.06 1.06L4.4 14.55Zm1.37-5.43a.75.75 0 1 0-1.06 1.06l1.06-1.06Zm2.03 3.09.53-.53-.53.53Zm2.03 3.1a.75.75 0 0 0 1.06-1.07L9.82 15.3ZM7.46 4.72a.75.75 0 1 0 1.25.84l-1.25-.84Zm2.87-2.22-.48-.58a.75.75 0 0 0-.03.03l.51.55Zm8.22-1.06.75-.08a.75.75 0 0 0-.68-.67l-.07.75ZM17.5 9.67l.55.5a.78.78 0 0 0 .03-.02l-.58-.48Zm-3.06 1.63a.75.75 0 0 0 .84 1.24l-.84-1.24Zm-5.39 5.03a.75.75 0 1 0-1.06-1.06l1.06 1.06Zm-3.93 1.8a.75.75 0 1 0 1.06 1.07l-1.06-1.06ZM15.9 5.18a.75.75 0 0 0-1.06-1.06l1.06 1.06Zm-2.59.47a.75.75 0 0 0 1.06 1.06L13.3 5.64Zm-9.63 5.32L.8 13.83l1.06 1.06 2.87-2.87-1.06-1.06Zm2.16 2.15-1.44 1.44 1.06 1.06 1.44-1.44-1.06-1.06ZM4.7 10.18l2.56 2.56 1.06-1.06-2.56-2.56-1.06 1.06Zm2.56 2.56 2.56 2.56 1.06-1.06-2.56-2.56-1.06 1.06Zm1.45-7.17a14.4 14.4 0 0 1 2.13-2.51l-1.02-1.1c-.89.83-1.68 1.76-2.36 2.77l1.25.84Zm2.1-2.48c.29-.24.75-.45 1.39-.62.63-.16 1.36-.26 2.13-.32 1.54-.12 3.15-.05 4.15.05l.14-1.5c-1.06-.1-2.75-.18-4.4-.05-.83.06-1.66.18-2.4.37a5.1 5.1 0 0 0-1.97.91l.96 1.16Zm7-1.57c.1 1 .16 2.6.04 4.15-.06.77-.16 1.5-.32 2.13-.17.64-.38 1.1-.62 1.39l1.16.96c.43-.53.72-1.24.9-1.97.2-.74.32-1.57.38-2.4.13-1.65.05-3.34-.05-4.4l-1.5.14Zm-.87 7.64c-.75.8-1.6 1.52-2.5 2.14l.83 1.24a15.9 15.9 0 0 0 2.77-2.36l-1.1-1.02Zm-8.96 6.1-2.87 2.88 1.06 1.06 2.87-2.87-1.06-1.06Zm6.85-11.15L13.3 5.64l1.06 1.06 1.53-1.53-1.06-1.06Z" fill="currentColor"/></svg>