<svg xmlns="http://www.w3.org/2000/svg" viewBox="0 0 24 24"><path d="M2 15.87c0-2.55 0-3.83.65-4.72.2-.3.46-.55.75-.76.9-.65 2.17-.65 4.73-.65 2.55 0 3.83 0 4.73.65.29.21.54.47.75.76.65.9.65 2.17.65 4.72 0 2.56 0 3.84-.65 4.73a3.4 3.4 0 0 1-.75.75c-.9.65-2.18.65-4.73.65-2.56 0-3.83 0-4.73-.65a3.4 3.4 0 0 1-.75-.75C2 19.7 2 18.43 2 15.87Z" fill="none" stroke="currentColor" stroke-width="1.5"/><path d="M9.74 8.13c0-2.56 0-3.83.65-4.73.2-.29.46-.54.75-.75.9-.65 2.17-.65 4.73-.65 2.55 0 3.83 0 4.73.65.29.2.54.46.75.75.65.9.65 2.17.65 4.73 0 2.55 0 3.83-.65 4.73a3.4 3.4 0 0 1-.75.75c-.9.65-2.18.65-4.73.65-2.56 0-3.83 0-4.73-.65a3.4 3.4 0 0 1-.75-.75c-.65-.9-.65-2.18-.65-4.73Z" fill="none" stroke="currentColor" stroke-width="1.5"/></svg>