<svg xmlns="http://www.w3.org/2000/svg" viewBox="0 0 20 20"><path clip-rule="evenodd" d="M6.98 1.33h6.38c.06 0 .13 0 .2.02a4.97 4.97 0 0 1 4.62 4.94v7.43a4.97 4.97 0 0 1-4.98 4.95H6.98A4.97 4.97 0 0 1 2 13.7V6.3a4.97 4.97 0 0 1 4.98-4.96Z" fill="none" stroke="currentColor" stroke-width="1.5" stroke-linecap="round" stroke-linejoin="round"/><path d="M18.18 7.04a.75.75 0 0 0 0-1.5v1.5Zm-3.87-5.7a.75.75 0 1 0-1.5 0h1.5Zm-1.9 9.99a.75.75 0 0 0 0-1.5v1.5Zm-6.94-1.5a.75.75 0 1 0 0 1.5v-1.5Zm3.46-1.97a.75.75 0 1 0 0-1.5v1.5Zm-3.46-1.5a.75.75 0 1 0 0 1.5v-1.5Zm8.09 8.43a.75.75 0 0 0 0-1.5v1.5Zm-8.1-1.5a.75.75 0 0 0 0 1.5v-1.5Zm12.72-7.75h-1.62v1.5h1.62v-1.5ZM14.3 3.29V1.35h-1.5v1.94h1.5Zm2.25 2.25c-1.25 0-2.25-1.01-2.25-2.25h-1.5a3.75 3.75 0 0 0 3.75 3.75v-1.5ZM12.4 9.83H5.47v1.5h6.93v-1.5ZM8.93 6.36H5.47v1.5h3.46v-1.5Zm4.63 6.93h-8.1v1.5h8.1v-1.5Z" fill="currentColor"/></svg>