<svg xmlns="http://www.w3.org/2000/svg" viewBox="0 0 20 20"><path d="m5.38 17.3-.23.7.23-.7ZM2.7 14.62l.72-.23-.72.23Zm14.6 0 .7.23-.7-.23Zm-2.68 2.68.23.7-.23-.7ZM10.5 5.84v.75-.75Zm4.12.2.23-.72-.23.72ZM17.3 8.7l.7-.23-.7.23ZM7.45 2.85l-.37.66.37-.66Zm1.42 1.67-.7.29.7-.29ZM3.19 2.64 2.82 2l.37.65Zm-.57.67-.7-.28.7.28Zm6.25 1.23-.69.28.7-.28Zm-2.2 8.04a.75.75 0 0 0 0 1.5v-1.5Zm6.66 1.5a.75.75 0 0 0 0-1.5v1.5Zm-1.66 2.67H8.33v1.5h3.34v-1.5Zm-3.34 0c-1.6 0-2.23 0-2.72-.17l-.46 1.43c.77.25 1.7.24 3.18.24v-1.5ZM1.75 10c0 .77 0 1.78.03 2.68 0 .45.03.87.06 1.23.03.34.07.7.15.94l1.43-.46a3.49 3.49 0 0 1-.09-.6l-.05-1.15c-.03-.88-.03-1.86-.03-2.64h-1.5Zm3.86 6.58a3.42 3.42 0 0 1-2.2-2.2L2 14.86a4.92 4.92 0 0 0 3.16 3.16l.46-1.43Zm11.14-4.91c0 1.6 0 2.23-.17 2.72l1.43.46c.25-.77.24-1.7.24-3.18h-1.5Zm-5.08 6.58c1.49 0 2.41 0 3.18-.24l-.46-1.43c-.49.16-1.11.17-2.72.17v1.5Zm4.91-3.86a3.42 3.42 0 0 1-2.2 2.2l.47 1.42a4.92 4.92 0 0 0 3.16-3.16l-1.43-.46Zm-6.08-7.8a78.18 78.18 0 0 1 3.44.1 5.5 5.5 0 0 1 .42.05l.03.01.46-1.43c-.2-.06-.5-.1-.78-.13l-1.05-.06c-.78-.03-1.7-.04-2.52-.04v1.5Zm7.75 5.08c0-1.5 0-2.42-.24-3.19l-1.43.46c.16.49.17 1.12.17 2.73h1.5Zm-3.86-4.92a3.42 3.42 0 0 1 2.2 2.2L18 8.47a4.92 4.92 0 0 0-3.16-3.16l-.46 1.43ZM3.25 10V4.74h-1.5V10h1.5ZM4.4 3.25c.83 0 1.4 0 1.83.04.43.04.67.11.85.22l.74-1.3a3.5 3.5 0 0 0-1.45-.41c-.53-.05-1.17-.05-1.97-.05v1.5Zm2.68.26c.46.25.85.7 1.1 1.3l1.38-.57A4.1 4.1 0 0 0 7.82 2.2l-.74 1.3ZM4.4 1.75c-.3 0-.59 0-.82.02-.25.02-.51.08-.76.22l.74 1.3h.02l.14-.03.68-.01v-1.5Zm-1.15 3 .01-.85c.02-.19.04-.27.05-.3l-1.38-.57c-.1.25-.15.5-.16.77-.02.26-.02.57-.02.94h1.5Zm-.43-2.76c-.41.23-.72.6-.9 1.04l1.4.56a.6.6 0 0 1 .24-.3L2.82 2Zm6.75 2.27v-.02l-1.4.57.01.01 1.39-.56Zm.93.83c-.32 0-.7-.29-.93-.83l-1.39.56c.34.84 1.14 1.76 2.32 1.77v-1.5Zm-3.83 9h6.66v-1.5H6.67v1.5Z" fill="currentColor"/></svg>