<svg xmlns="http://www.w3.org/2000/svg" viewBox="0 0 20 20"><path d="m16.01 6.62-.11.74.11-.74Zm-3.46-3.47-.74.12.74-.12ZM4.22 17.54l.44-.6-.44.6Zm-.92-.92.6-.45-.6.45Zm13.4 0-.6-.45.6.45Zm-.92.92-.44-.6.44.6Zm0-15.08.44-.6-.44.6Zm.92.92.61-.44-.6.44ZM4.22 2.46l.44.6-.44-.6Zm-.92.92.6.45-.6-.45Zm9.2-1.69.03-.75-.03.75Zm4.98 4.98.75-.03-.75.03ZM7.5 10.08a.75.75 0 0 0 0 1.5v-1.5Zm5 1.5a.75.75 0 0 0 0-1.5v1.5Zm3.63-5.7a3.42 3.42 0 0 1-2.84-2.85l-1.48.24a4.92 4.92 0 0 0 4.09 4.09l.23-1.49Zm.62 3.29v1.66h1.5V9.17h-1.5Zm-13.5 1.66V9.17h-1.5v1.66h1.5ZM10 17.58c-1.58 0-2.7 0-3.57-.1a3.52 3.52 0 0 1-1.77-.55l-.88 1.21c.7.51 1.5.73 2.49.84.96.1 2.18.1 3.73.1v-1.5Zm-8.25-6.75c0 1.55 0 2.77.1 3.74.11.98.33 1.79.84 2.49l1.21-.89c-.29-.4-.46-.91-.55-1.77-.1-.86-.1-1.99-.1-3.57h-1.5Zm2.9 6.1a3.41 3.41 0 0 1-.75-.76l-1.21.89c.3.41.67.78 1.09 1.08l.88-1.2Zm12.1-6.1c0 1.58 0 2.7-.1 3.57-.09.86-.26 1.38-.55 1.77l1.21.89c.5-.7.73-1.51.84-2.5.1-.96.1-2.18.1-3.73h-1.5ZM10 19.08c1.55 0 2.77 0 3.73-.1.98-.1 1.8-.33 2.5-.84l-.89-1.2c-.4.28-.91.46-1.77.55-.87.1-2 .1-3.57.1v1.5Zm6.1-2.9c-.21.29-.47.54-.76.75l.88 1.21c.42-.3.79-.67 1.1-1.08l-1.22-.89Zm-.76-13.11c.3.21.55.47.76.76l1.21-.89c-.3-.41-.67-.78-1.09-1.08l-.88 1.2ZM10 .92c-1.55 0-2.77 0-3.73.1-.98.1-1.8.33-2.5.84l.89 1.2c.4-.28.91-.46 1.77-.55.87-.1 2-.1 3.57-.1V.92ZM3.25 9.17c0-1.58 0-2.7.1-3.57.09-.86.26-1.38.55-1.77L2.7 2.94c-.5.7-.73 1.51-.84 2.5-.1.96-.1 2.18-.1 3.73h1.5Zm.53-7.31c-.42.3-.79.67-1.1 1.08l1.22.89c.21-.3.47-.55.76-.76l-.88-1.21Zm6.22.56c.98 0 1.79 0 2.47.02l.06-1.5C11.8.92 10.97.92 10 .92v1.5Zm2.47.02c1.55.05 2.32.23 2.87.63l.88-1.21c-.95-.7-2.13-.87-3.7-.92l-.05 1.5Zm-.72-.75c0 .73 0 1.19.06 1.58l1.48-.24a9.79 9.79 0 0 1-.04-1.34h-1.5Zm6.5 7.48c0-.97 0-1.81-.02-2.53l-1.5.05c.02.69.02 1.5.02 2.48h1.5Zm-.02-2.53c-.06-1.56-.23-2.74-.92-3.7l-1.21.89c.4.55.57 1.32.63 2.86l1.5-.05Zm-.75-.72c-.79 0-1.1 0-1.35-.05l-.23 1.49c.4.06.85.06 1.58.06v-1.5ZM7.5 11.58h5v-1.5h-5v1.5Z" fill="currentColor"/></svg>