<svg xmlns="http://www.w3.org/2000/svg" viewBox="0 0 20 20"><path d="m12.67 8.23-1.8 2.23c-.71.89-1.07 1.33-1.54 1.33s-.82-.44-1.54-1.33l-.46-.57m8.8 3.68c1.43-2.6 1.8-5.57 1.87-7.45.04-1.07-.85-1.9-1.93-1.9h-.52c-.86 0-1.56-.7-1.56-1.56 0-.86-.7-1.56-1.56-1.56h-4.6c-1 0-1.82.82-1.82 1.82S5.2 4.74 4.2 4.74h-.27c-1.08 0-1.97.82-1.91 1.9.09 1.73.47 4.4 1.86 6.93.37.69.88 1.37 1.45 2.03 1.76 2.04 2.64 3.06 4.68 3.06 2.03 0 2.92-1.02 4.68-3.06.57-.66 1.08-1.34 1.45-2.03Z" fill="none" stroke="currentColor" stroke-width="1.5" stroke-linecap="round"/></svg>