<svg xmlns="http://www.w3.org/2000/svg" viewBox="0 0 20 20"><path clip-rule="evenodd" d="M18.67 10a8.67 8.67 0 1 1-17.34 0 8.67 8.67 0 0 1 17.34 0Z" fill="none" stroke="currentColor" stroke-width="1.5" stroke-linecap="round" stroke-linejoin="round"/><path d="M10 13.67a.75.75 0 1 0 0 1.5v-1.5Zm-1.86-4.9.53-.55a.75.75 0 0 0-.1-.07l-.43.61Zm-.62-1.25.75.03v-.03h-.75ZM10 6.32a.75.75 0 0 0 0-1.5v1.5Zm-.03 8.85a.75.75 0 1 0 .06-1.5l-.06 1.5Zm-1.7-3.6a.75.75 0 1 0-1.5-.2l1.5.2Zm2.48 2.85a.75.75 0 0 0-1.5 0h1.5Zm-1.5 1.77a.75.75 0 0 0 1.5 0h-1.5Zm.7-11.36a.75.75 0 0 0 .1 1.5l-.1-1.5Zm1.93 1.51-.55.51.55-.5Zm-.15 1.83a.75.75 0 1 0 1.49.22l-1.49-.22Zm-2.48-2.6a.75.75 0 0 0 1.5 0h-1.5Zm1.5-1.76a.75.75 0 0 0-1.5 0h1.5ZM10 15.17c.5 0 1.26-.11 1.92-.5.7-.4 1.3-1.1 1.3-2.22h-1.5c0 .47-.21.73-.54.93-.38.2-.86.3-1.18.3v1.5Zm3.23-2.72c0-.68-.22-1.24-.6-1.68-.36-.42-.84-.7-1.28-.93-.94-.48-1.86-.82-2.68-1.62L7.62 9.3c1.03 1 2.28 1.49 3.04 1.88.41.2.67.38.83.57.14.16.24.36.24.7h1.5Zm-4.66-4.3a.7.7 0 0 1-.3-.6l-1.5-.05a2.2 2.2 0 0 0 .94 1.88l.86-1.23Zm-.3-.63c0-.35.08-.56.16-.69.08-.13.2-.23.35-.3.35-.17.8-.2 1.22-.2v-1.5c-.41 0-1.2.01-1.88.35-.36.18-.7.45-.96.86-.26.4-.39.9-.39 1.48h1.5Zm1.76 6.15a1.86 1.86 0 0 1-1.35-.66l-1.15.96c.61.73 1.5 1.16 2.44 1.2l.06-1.5Zm-1.35-.66c-.33-.4-.48-.92-.41-1.44l-1.5-.2c-.12.94.16 1.88.76 2.6l1.15-.96Zm.57 1.41v1.77h1.5v-1.77h-1.5Zm.8-8.1c.48-.02.95.17 1.28.53l1.1-1.01a3.12 3.12 0 0 0-2.47-1.01l.08 1.5Zm1.28.53c.32.36.47.84.4 1.32l1.49.22a3.12 3.12 0 0 0-.79-2.55l-1.1 1.01Zm-.58-1.27V3.8h-1.5v1.77h1.5Z" fill="currentColor"/></svg>