<svg width="27" height="28" viewBox="0 0 27 28" fill="none" xmlns="http://www.w3.org/2000/svg">
<path fill-rule="evenodd" clip-rule="evenodd" d="M8.46719 1.00001H18.0369C18.1363 1.00001 18.2351 1.00637 18.3333 1.01908C22.2287 1.29149 25.2535 4.52421 25.2666 8.42907V19.5727C25.2523 23.6843 21.9111 27.0077 17.7994 27H8.46719C4.35488 27.0077 1.01338 23.6832 1 19.5709V8.42907C1.01338 4.31678 4.35488 0.992341 8.46719 1.00001Z" stroke="#4343C2" stroke-width="1.5" stroke-linecap="round" stroke-linejoin="round"/>
<path d="M25.2674 9.17867C25.6816 9.17867 26.0174 8.84288 26.0174 8.42867C26.0174 8.01446 25.6816 7.67867 25.2674 7.67867V9.17867ZM18.3341 8.42867H17.5841C17.5841 8.84288 17.9199 9.17867 18.3341 9.17867V8.42867ZM19.0841 1.01868C19.0841 0.604463 18.7483 0.268677 18.3341 0.268677C17.9199 0.268677 17.5841 0.604463 17.5841 1.01868H19.0841ZM16.6007 15.6167C17.0149 15.6167 17.3507 15.2809 17.3507 14.8667C17.3507 14.4525 17.0149 14.1167 16.6007 14.1167V15.6167ZM6.20074 14.1167C5.78653 14.1167 5.45074 14.4525 5.45074 14.8667C5.45074 15.2809 5.78653 15.6167 6.20074 15.6167V14.1167ZM11.4007 10.4167C11.815 10.4167 12.1507 10.0809 12.1507 9.66672C12.1507 9.2525 11.815 8.91672 11.4007 8.91672V10.4167ZM6.20074 8.91672C5.78653 8.91672 5.45074 9.2525 5.45074 9.66672C5.45074 10.0809 5.78653 10.4167 6.20074 10.4167V8.91672ZM18.3341 20.8167C18.7483 20.8167 19.0841 20.4809 19.0841 20.0667C19.0841 19.6525 18.7483 19.3167 18.3341 19.3167V20.8167ZM6.20074 19.3167C5.78653 19.3167 5.45074 19.6525 5.45074 20.0667C5.45074 20.4809 5.78653 20.8167 6.20074 20.8167V19.3167ZM25.2674 7.67867H18.3341V9.17867H25.2674V7.67867ZM19.0841 8.42867V1.01868H17.5841V8.42867H19.0841ZM16.6007 14.1167H6.20074V15.6167H16.6007V14.1167ZM11.4007 8.91672H6.20074V10.4167H11.4007V8.91672ZM18.3341 19.3167H6.20074V20.8167H18.3341V19.3167Z" fill="#4343C2"/>
</svg>
