<svg width="30" height="28" viewBox="0 0 30 28" fill="none" xmlns="http://www.w3.org/2000/svg">
<path fill-rule="evenodd" clip-rule="evenodd" d="M1 11.7063V20.8826C1.02045 24.281 3.79152 27.0196 7.18994 27.0001H22.6657C24.298 27.0099 25.8674 26.371 27.0286 25.2237C28.1898 24.0764 28.8477 22.5149 28.8575 20.8826V11.7063C28.837 8.30788 26.066 5.56924 22.6676 5.58879H7.18994C3.79152 5.56924 1.02045 8.30788 1 11.7063Z" stroke="#4343C2" stroke-width="1.5" stroke-linecap="round" stroke-linejoin="round"/>
<path fill-rule="evenodd" clip-rule="evenodd" d="M14.9292 20.8818C12.4019 20.8521 10.3744 18.7846 10.3941 16.2572C10.4138 13.7299 12.4734 11.6942 15.0008 11.704C17.5282 11.7138 19.5719 13.7653 19.5721 16.2927C19.5652 17.517 19.0721 18.6885 18.2014 19.5491C17.3306 20.4098 16.1535 20.8892 14.9292 20.8818Z" stroke="#4343C2" stroke-width="1.5" stroke-linecap="round" stroke-linejoin="round"/>
<path d="M10.2852 5.58912V4.05881C10.2901 3.24265 10.619 2.46187 11.1996 1.88824C11.7802 1.3146 12.5649 0.995116 13.3811 1.00006H16.4751C17.2913 0.995116 18.076 1.3146 18.6565 1.88824C19.2371 2.46187 19.5661 3.24265 19.571 4.05881V5.58912" stroke="#4343C2" stroke-width="1.5" stroke-linecap="round" stroke-linejoin="round"/>
</svg>
