<svg width="28" height="28" viewBox="0 0 28 28" fill="none" xmlns="http://www.w3.org/2000/svg">
<path fill-rule="evenodd" clip-rule="evenodd" d="M27 14C27 21.1797 21.1797 27 14 27C6.8203 27 1 21.1797 1 14C1 6.8203 6.8203 1 14 1C17.4478 1 20.7544 2.36964 23.1924 4.80761C25.6304 7.24558 27 10.5522 27 14Z" stroke="#4343C2" stroke-width="1.5" stroke-linecap="round" stroke-linejoin="round"/>
<path d="M14.0008 19.8818C13.5865 19.8818 13.2508 20.2175 13.2508 20.6318C13.2508 21.046 13.5865 21.3818 14.0008 21.3818V19.8818ZM11.215 12.1428L11.7376 11.6048C11.7086 11.5766 11.6773 11.5508 11.6441 11.5276L11.215 12.1428ZM10.2865 10.2856L11.036 10.3115C11.0363 10.3029 11.0365 10.2942 11.0365 10.2856H10.2865ZM14.0008 8.11804C14.415 8.11804 14.7508 7.78226 14.7508 7.36804C14.7508 6.95383 14.415 6.61804 14.0008 6.61804V8.11804ZM13.9677 21.3826C14.3816 21.3996 14.7308 21.0778 14.7478 20.6639C14.7647 20.2501 14.4429 19.9008 14.029 19.8839L13.9677 21.3826ZM11.0274 16.3044C11.0828 15.8939 10.795 15.5162 10.3845 15.4607C9.974 15.4053 9.59629 15.6931 9.54085 16.1036L11.0274 16.3044ZM14.7495 20.6328C14.7495 20.2186 14.4137 19.8828 13.9995 19.8828C13.5852 19.8828 13.2495 20.2186 13.2495 20.6328H14.7495ZM13.2495 23.2867C13.2495 23.7009 13.5852 24.0367 13.9995 24.0367C14.4137 24.0367 14.7495 23.7009 14.7495 23.2867H13.2495ZM13.9573 6.61943C13.5437 6.64273 13.2273 6.99688 13.2506 7.41044C13.274 7.824 13.6281 8.14036 14.0417 8.11705L13.9573 6.61943ZM16.8169 8.51417L16.264 9.02094L16.264 9.02094L16.8169 8.51417ZM16.9714 11.3134C16.9123 11.7234 17.1967 12.1037 17.6066 12.1628C18.0166 12.222 18.3969 11.9376 18.4561 11.5276L16.9714 11.3134ZM13.2495 7.36858C13.2495 7.78279 13.5852 8.11858 13.9995 8.11858C14.4137 8.11858 14.7495 7.78279 14.7495 7.36858H13.2495ZM14.7495 4.71472C14.7495 4.30051 14.4137 3.96472 13.9995 3.96472C13.5852 3.96472 13.2495 4.30051 13.2495 4.71472H14.7495ZM14.0008 21.3818C14.7103 21.3818 15.7772 21.2175 16.695 20.6921C17.6498 20.1455 18.465 19.1843 18.465 17.6789H16.965C16.965 18.5357 16.5425 19.051 15.9498 19.3903C15.3201 19.7508 14.5299 19.8818 14.0008 19.8818V21.3818ZM18.465 17.6789C18.465 16.7343 18.1732 15.9947 17.6582 15.3998C17.1681 14.8337 16.5085 14.4384 15.8539 14.1003C14.4855 13.3935 13.0256 12.8558 11.7376 11.6048L10.6925 12.6807C12.1902 14.1355 13.9803 14.8208 15.1655 15.433C15.7877 15.7544 16.2308 16.0427 16.5241 16.3816C16.7926 16.6916 16.965 17.0784 16.965 17.6789H18.465ZM11.6441 11.5276C11.2483 11.2516 11.0194 10.7937 11.036 10.3115L9.53692 10.2597C9.50273 11.2504 9.97297 12.1909 10.786 12.7579L11.6441 11.5276ZM11.0365 10.2856C11.0365 9.70275 11.1648 9.31529 11.3294 9.05074C11.4939 8.78643 11.7252 8.59555 12.0105 8.45497C12.6132 8.15809 13.3831 8.11804 14.0008 8.11804V6.61804C13.3797 6.61804 12.2925 6.64393 11.3476 7.1094C10.8593 7.35 10.3943 7.7144 10.0558 8.2583C9.71756 8.80196 9.53647 9.47562 9.53647 10.2856H11.0365ZM14.029 19.8839C13.1407 19.8475 12.3087 19.4385 11.7374 18.7573L10.5881 19.7211C11.4306 20.7258 12.6576 21.329 13.9677 21.3826L14.029 19.8839ZM11.7374 18.7573C11.1661 18.076 10.9083 17.1855 11.0274 16.3044L9.54085 16.1036C9.36533 17.4031 9.74551 18.7163 10.5881 19.7211L11.7374 18.7573ZM13.2495 20.6328V23.2867H14.7495V20.6328H13.2495ZM14.0417 8.11705C14.8805 8.06977 15.6963 8.40157 16.264 9.02094L17.3698 8.0074C16.498 7.05632 15.2454 6.54682 13.9573 6.61943L14.0417 8.11705ZM16.264 9.02094C16.8317 9.64032 17.0914 10.4818 16.9714 11.3134L18.4561 11.5276C18.6403 10.2507 18.2415 8.95849 17.3698 8.0074L16.264 9.02094ZM14.7495 7.36858V4.71472H13.2495V7.36858H14.7495Z" fill="#4343C2"/>
</svg>
