<?xml version="1.0" encoding="utf-8"?><svg xmlns="http://www.w3.org/2000/svg" xmlns:xlink="http://www.w3.org/1999/xlink"><symbol viewBox="0 0 26.9 32" id="apple" xmlns="http://www.w3.org/2000/svg"><path fill="currentColor" d="M26.31 24.91A17.13 17.13 0 0 1 24.6 28a15.71 15.71 0 0 1-2.22 2.68A4.4 4.4 0 0 1 19.54 32a7.3 7.3 0 0 1-2.62-.63 7.62 7.62 0 0 0-2.83-.64 7.74 7.74 0 0 0-2.9.64 8.76 8.76 0 0 1-2.5.67 4.1 4.1 0 0 1-2.91-1.29A16.93 16.93 0 0 1 3.47 28 19.3 19.3 0 0 1 1 23.08a17.73 17.73 0 0 1-1-5.81 10.55 10.55 0 0 1 1.38-5.54 8 8 0 0 1 6.85-4.05 9.27 9.27 0 0 1 3 .71 9.8 9.8 0 0 0 2.41.71 14.94 14.94 0 0 0 2.68-.83A9.07 9.07 0 0 1 20 7.62a7.76 7.76 0 0 1 6.06 3.2 6.73 6.73 0 0 0-3.58 6.12A6.83 6.83 0 0 0 24.69 22a7.79 7.79 0 0 0 2.21 1.46c-.21.47-.39 1-.59 1.42zM20.13.63a6.85 6.85 0 0 1-1.75 4.48 6 6 0 0 1-5 2.45 5.86 5.86 0 0 1 0-.61 7 7 0 0 1 1.86-4.52 7.26 7.26 0 0 1 2.25-1.7A6.62 6.62 0 0 1 20.07 0a2.32 2.32 0 0 1 .06.63z"/></symbol><symbol viewBox="0 0 25 33.33" id="arrow-down-o" xmlns="http://www.w3.org/2000/svg"><path fill="none" stroke="currentColor" stroke-miterlimit="10" stroke-width="4" d="M12.5 30.2V0m11 17-11 13.2L1.55 17"/></symbol><symbol viewBox="0 0 30 23" fill="currentColor" id="arrow-left" xmlns="http://www.w3.org/2000/svg"><path fill-rule="evenodd" clip-rule="evenodd" d="M12.207.293a1 1 0 0 1 0 1.414l-8.9 8.9h25.056a1 1 0 1 1 0 2H3.52l8.686 8.686a1 1 0 0 1-1.414 1.414l-10.5-10.5a1 1 0 0 1 0-1.414l10.5-10.5a1 1 0 0 1 1.414 0Z"/></symbol><symbol viewBox="0 0 24 22" fill="currentColor" id="arrow-left-l" xmlns="http://www.w3.org/2000/svg"><path fill-rule="evenodd" clip-rule="evenodd" d="M11.75.224a.788.788 0 0 0-1.1 0L.227 10.46a.757.757 0 0 0 0 1.08l10.421 10.236a.788.788 0 0 0 1.1 0 .755.755 0 0 0 0-1.08l-8.858-8.701h20.33c.43 0 .779-.342.779-.765a.771.771 0 0 0-.778-.764H2.672a.788.788 0 0 0-.318.067l9.396-9.228a.755.755 0 0 0 0-1.081ZM1.961 10.918a.748.748 0 0 0-.043.122l-.04-.04.083-.082Z"/></symbol><symbol viewBox="0 0 33.33 25" id="arrow-left-o" xmlns="http://www.w3.org/2000/svg"><path fill="none" stroke="currentColor" stroke-miterlimit="10" stroke-width="4" d="M33.33 12.5H3.17m13.16 11-13.16-11L16.33 1.55"/></symbol><symbol viewBox="0 0 12 12" fill="currentColor" id="arrow-left-s" xmlns="http://www.w3.org/2000/svg"><path fill-rule="evenodd" clip-rule="evenodd" d="M6.783.23a.83.83 0 0 0-1.145 0l-5.4 5.217a.764.764 0 0 0 0 1.106l5.4 5.218a.83.83 0 0 0 1.145 0 .764.764 0 0 0 0-1.107L2.821 6.836h8.369c.447 0 .81-.35.81-.783a.797.797 0 0 0-.81-.782H2.71l4.073-3.935a.764.764 0 0 0 0-1.107Z"/></symbol><symbol viewBox="0 0 30 23" fill="currentColor" id="arrow-right" xmlns="http://www.w3.org/2000/svg"><path fill-rule="evenodd" clip-rule="evenodd" d="M17.518.293a1 1 0 0 1 1.415 0l10.5 10.5a1 1 0 0 1 0 1.414l-10.5 10.5a1 1 0 0 1-1.415-1.414l8.686-8.686H1.363a1 1 0 0 1 0-2h25.055l-8.9-8.9a1 1 0 0 1 0-1.414Z"/></symbol><symbol viewBox="0 0 24 22" fill="currentColor" id="arrow-right-l" xmlns="http://www.w3.org/2000/svg"><path fill-rule="evenodd" clip-rule="evenodd" d="M12.25.224a.788.788 0 0 1 1.1 0L23.773 10.46a.757.757 0 0 1 0 1.08L13.351 21.776a.788.788 0 0 1-1.1 0 .755.755 0 0 1 0-1.08l8.858-8.701H.779A.771.771 0 0 1 0 11.23c0-.422.348-.764.778-.764h20.55c.113 0 .22.024.318.067L12.25 1.305a.755.755 0 0 1 0-1.081Zm9.788 10.694c.017.039.032.08.043.122l.04-.04-.083-.082Z"/></symbol><symbol viewBox="0 0 33.33 25" id="arrow-right-o" xmlns="http://www.w3.org/2000/svg"><path fill="none" stroke="currentColor" stroke-miterlimit="10" stroke-width="4" d="M30.16 12.5H0M17 1.55l13.16 11L17 23.45"/></symbol><symbol viewBox="0 0 12 12" fill="currentColor" id="arrow-right-s" xmlns="http://www.w3.org/2000/svg"><path fill-rule="evenodd" clip-rule="evenodd" d="M5.217.23a.83.83 0 0 1 1.145 0l5.4 5.217a.764.764 0 0 1 0 1.106l-5.4 5.218a.83.83 0 0 1-1.145 0 .764.764 0 0 1 0-1.107l3.962-3.828H.81A.797.797 0 0 1 0 6.053c0-.432.363-.782.81-.782h8.48L5.216 1.336a.764.764 0 0 1 0-1.107Z"/></symbol><symbol viewBox="0 0 17 17" fill="currentColor" id="arrow-right-top-s" xmlns="http://www.w3.org/2000/svg"><path fill-rule="evenodd" clip-rule="evenodd" d="M.297 16.703c.397.396 1.04.396 1.437 0L16.703 1.734A1.016 1.016 0 1 0 15.266.297L.297 15.268a1.016 1.016 0 0 0 0 1.436Z"/><path fill-rule="evenodd" clip-rule="evenodd" d="M15.984 17c.561 0 1.016-.455 1.016-1.016V1.016C17 .455 16.545 0 15.984 0H1.016a1.016 1.016 0 0 0 0 2.031h13.953v13.953c0 .561.454 1.016 1.015 1.016Z"/></symbol><symbol viewBox="0 0 25 33.33" id="arrow-up-o" xmlns="http://www.w3.org/2000/svg"><path fill="none" stroke="currentColor" stroke-miterlimit="10" stroke-width="4" d="M12.5 33.33V3.17M1.55 16.33l11-13.16 11 13.16"/></symbol><symbol viewBox="0 0 32 24" id="check-o" xmlns="http://www.w3.org/2000/svg"><path fill="none" stroke="currentColor" stroke-miterlimit="10" d="m1.45 11.85 9.28 9.25L30.55 1.5"/></symbol><symbol viewBox="0 0 32 19.28" id="chevron-down-o" xmlns="http://www.w3.org/2000/svg"><path fill="none" stroke="currentColor" stroke-miterlimit="10" stroke-width="4" d="m1.5 1.4 14.63 15 14.37-15"/></symbol><symbol viewBox="0 0 19.28 32" id="chevron-left-o" xmlns="http://www.w3.org/2000/svg"><path fill="none" stroke="currentColor" stroke-miterlimit="10" stroke-width="4" d="m17.88 1.5-15 14.37 15 14.63"/></symbol><symbol viewBox="0 0 19.28 32" id="chevron-right-o" xmlns="http://www.w3.org/2000/svg"><path fill="none" stroke="currentColor" stroke-miterlimit="10" stroke-width="4" d="m1.4 30.5 15-14.63L1.4 1.5"/></symbol><symbol viewBox="0 0 32 19.28" id="chevron-up-o" xmlns="http://www.w3.org/2000/svg"><path fill="none" stroke="currentColor" stroke-miterlimit="10" stroke-width="4" d="m30.5 17.88-14.37-15-14.63 15"/></symbol><symbol viewBox="0 0 36 36" id="circle-arrow" xmlns="http://www.w3.org/2000/svg"><circle cx="18" cy="18" r="18" fill="#4343C2"/><path d="M13.39 18.051h8.703M18 13l5 5-5 5" stroke="#fff" stroke-width="1.5" stroke-linecap="round" stroke-linejoin="round"/></symbol><symbol viewBox="0 0 26 18" id="discord" xmlns="http://www.w3.org/2000/svg"><path fill="currentColor" d="M22.29 2.84A10.58 10.58 0 0 0 16.45.76l-.31.3a13.88 13.88 0 0 1 5.25 2.53 19.67 19.67 0 0 0-8.37-2 19.67 19.67 0 0 0-8.37 2 13.88 13.88 0 0 1 5.23-2.53l-.32-.3a10.58 10.58 0 0 0-5.84 2.08A25.1 25.1 0 0 0 .63 14.4a9 9 0 0 0 6.6 2.84s.77-.87 1.35-1.64a6.8 6.8 0 0 1-3.76-2.32A14.22 14.22 0 0 0 13 15.62a14.22 14.22 0 0 0 8.18-2.34 6.8 6.8 0 0 1-3.76 2.32c.57.77 1.35 1.65 1.35 1.65a9 9 0 0 0 6.6-2.84 25.09 25.09 0 0 0-3.08-11.57ZM9.2 12.41A2.2 2.2 0 0 1 9.2 8a2.2 2.2 0 0 1 0 4.4Zm7.62 0a2.2 2.2 0 0 1 0-4.4 2.2 2.2 0 0 1 0 4.41Z"/></symbol><symbol viewBox="0 0 32 32" id="dribbble" xmlns="http://www.w3.org/2000/svg"><path fill="currentColor" d="M16 0a16 16 0 1 0 16 16A16 16 0 0 0 16 0zm10.43 7.55a13.38 13.38 0 0 1 3 8 22.6 22.6 0 0 0-9-.09c-.48-1.12-1-2.2-1.48-3.21a26.68 26.68 0 0 0 7.48-4.7zm-1.81-1.84A23.78 23.78 0 0 1 17.75 10a62.59 62.59 0 0 0-4.55-7.14 13.57 13.57 0 0 1 2.8-.29 13.35 13.35 0 0 1 8.62 3.14zm-14-2a60.23 60.23 0 0 1 4.68 7.22 42.76 42.76 0 0 1-12.36 1.94 13.5 13.5 0 0 1 7.67-9.17zm-8 11.75h.08a46.59 46.59 0 0 0 8.14-.75 39.89 39.89 0 0 0 5.7-1.47c.47.92.93 1.9 1.38 2.93a24 24 0 0 0-6.28 3.11 28.44 28.44 0 0 0-5.84 5.4A13.35 13.35 0 0 1 2.57 16l.01-.55zm5 11a25.86 25.86 0 0 1 5.52-5.13 21.88 21.88 0 0 1 5.72-2.82 49.37 49.37 0 0 1 2.7 9.7A13.21 13.21 0 0 1 16 29.43a13.35 13.35 0 0 1-8.39-2.96zm16.31.37a53.48 53.48 0 0 0-2.53-8.92 20.31 20.31 0 0 1 7.86.26 13.46 13.46 0 0 1-5.34 8.67z"/></symbol><symbol viewBox="0 0 16.76 32" id="facebook" xmlns="http://www.w3.org/2000/svg"><path fill="currentColor" d="M13.71 5.33h3.05V.15C16.3.15 14.48 0 12.34 0 7.92 0 5 2.59 5 7.47v4.26H0v5.64h5V32h6V17.37h4.88l.76-5.64h-5.82V8.08c0-1.68.46-2.75 2.89-2.75z"/></symbol><symbol viewBox="0 0 20 20" id="filters" xmlns="http://www.w3.org/2000/svg"><path fill="currentColor" fill-rule="evenodd" d="M6.25 5.67a2.17 2.17 0 1 1 4.33 0 2.17 2.17 0 0 1-4.33 0Zm-1.42.75H1.75a.75.75 0 1 1 0-1.5h3.08a3.67 3.67 0 1 1 0 1.5Zm7.84-.75c0-.42.33-.75.75-.75h5a.75.75 0 0 1 0 1.5h-5a.75.75 0 0 1-.75-.75Zm-3.09 9.16a2.17 2.17 0 1 1 4.34 0 2.17 2.17 0 0 1-4.34 0Zm2.17-3.66a3.67 3.67 0 1 0 3.6 4.41h3.07a.75.75 0 0 0 0-1.5h-3.08a3.67 3.67 0 0 0-3.59-2.91ZM1 14.83c0-.41.34-.75.75-.75h5a.75.75 0 0 1 0 1.5h-5a.75.75 0 0 1-.75-.75Z" clip-rule="evenodd"/></symbol><symbol viewBox="0 0 32 32" id="github" xmlns="http://www.w3.org/2000/svg"><path fill="currentColor" d="M16.05 0A16.22 16.22 0 0 0 0 16.43 16.38 16.38 0 0 0 11 32c.86.11 1.07-.33 1.07-.76v-2.87c-4.49 1-5.45-2.19-5.45-2.19a4.63 4.63 0 0 0-1.82-2.41c-1.5-1 .1-1 .1-1a3.37 3.37 0 0 1 2.46 1.65c1.4 2.51 3.75 1.75 4.71 1.31a3.05 3.05 0 0 1 1.07-2.19c-3.53-.44-7.27-1.86-7.27-8.11a6.64 6.64 0 0 1 1.6-4.38 5.84 5.84 0 0 1 .13-4.37S9 6.24 12 8.32a16.92 16.92 0 0 1 4.06-.54 17 17 0 0 1 4.07.54c3.1-2.08 4.39-1.64 4.39-1.64a5.82 5.82 0 0 1 .1 4.38 6.13 6.13 0 0 1 1.61 4.38c0 6.36-3.75 7.67-7.28 8.11A4.25 4.25 0 0 1 20 26.62v4.49a.77.77 0 0 0 1.07.76A16.29 16.29 0 0 0 32 16.32 16 16 0 0 0 16.05 0z"/></symbol><symbol viewBox="0 0 29 32" id="google-play" xmlns="http://www.w3.org/2000/svg"><path fill="currentColor" d="m.75 31.55 13.88-14 4.9 4.94L3 31.74a2 2 0 0 1-2 0zm12.48-15.41L0 29.49V2.79zm8.27-5.52 6.5 3.63a2 2 0 0 1 0 3.5l-6.64 3.73L16 16.14zM.61.58A1.78 1.78 0 0 1 1 .27a2 2 0 0 1 2 0l16.7 9.34-5.07 5.12z"/></symbol><symbol viewBox="0 0 32 32" id="instagram" xmlns="http://www.w3.org/2000/svg"><path fill="currentColor" d="M3 10v12a7.07 7.07 0 0 0 7 7h12a7.07 7.07 0 0 0 7-7V10a7.07 7.07 0 0 0-7-7H10a7.07 7.07 0 0 0-7 7zm-3 0A9.81 9.81 0 0 1 10 0h12a9.81 9.81 0 0 1 10 10v12a9.81 9.81 0 0 1-10 10H10A9.81 9.81 0 0 1 0 22zm16 10.71A4.71 4.71 0 1 0 11.29 16 4.66 4.66 0 0 0 16 20.71zm0 2.82A7.53 7.53 0 1 1 23.53 16 7.55 7.55 0 0 1 16 23.53zm9.41-15.06a1.88 1.88 0 0 1-3.76 0 1.88 1.88 0 1 1 3.76 0z"/></symbol><symbol viewBox="0 0 32 30.48" id="linkedin" xmlns="http://www.w3.org/2000/svg"><path fill="currentColor" d="M32 18.72v11.76h-7V19.59c0-2.83-1-4.59-3.45-4.59a3.1 3.1 0 0 0-3.26 2.39 3.24 3.24 0 0 0-.22 1.53v11.56h-7V10h7v2.83a7 7 0 0 1 6.09-3.48c4.57.01 7.84 3.06 7.84 9.37zM3.92 0C1.52 0 0 1.52 0 3.48A3.5 3.5 0 0 0 3.7 7c2.4 0 3.92-1.56 3.92-3.52A3.37 3.37 0 0 0 3.92 0zM.44 30.48h7V10h-7z"/></symbol><symbol viewBox="0 0 12 32" id="long-arrow-down-o" xmlns="http://www.w3.org/2000/svg"><path fill="none" stroke="currentColor" stroke-miterlimit="10" d="M11.67 26.28 6 31.33l-5.67-5M6 0v31.32"/></symbol><symbol viewBox="0 0 12 8" fill="currentColor" id="long-arrow-left" xmlns="http://www.w3.org/2000/svg"><path fill-rule="evenodd" clip-rule="evenodd" d="M4.466.234a.77.77 0 0 0-1.106 0l-3.13 3.2a.81.81 0 0 0 0 1.132l3.13 3.2a.77.77 0 0 0 1.106 0 .813.813 0 0 0 0-1.132L2.672 4.8h8.545A.791.791 0 0 0 12 4c0-.442-.35-.8-.783-.8H2.672l1.794-1.834a.813.813 0 0 0 0-1.132Z"/></symbol><symbol viewBox="0 0 32 12" id="long-arrow-left-o" xmlns="http://www.w3.org/2000/svg"><path fill="none" stroke="currentColor" stroke-miterlimit="10" d="M5.67 11.67.67 6 5.72.33M.68 6H32"/></symbol><symbol viewBox="0 0 12 8" fill="currentColor" id="long-arrow-right" xmlns="http://www.w3.org/2000/svg"><path fill-rule="evenodd" clip-rule="evenodd" d="M7.534.234a.77.77 0 0 1 1.106 0l3.13 3.2a.81.81 0 0 1 0 1.132l-3.13 3.2a.77.77 0 0 1-1.106 0 .813.813 0 0 1 0-1.132L9.328 4.8H.783A.791.791 0 0 1 0 4c0-.442.35-.8.783-.8h8.545L7.534 1.366a.813.813 0 0 1 0-1.132Z"/></symbol><symbol viewBox="0 0 32 12" id="long-arrow-right-o" xmlns="http://www.w3.org/2000/svg"><path fill="none" stroke="currentColor" stroke-miterlimit="10" d="m26.28.33 5 5.67-5 5.67M0 6h31.32"/></symbol><symbol viewBox="0 0 12 32" id="long-arrow-up-o" xmlns="http://www.w3.org/2000/svg"><path fill="none" stroke="currentColor" stroke-miterlimit="10" d="M.33 5.67 6 .67l5.67 5.05M6 .68V32"/></symbol><symbol viewBox="0 0 32 32" id="medium" xmlns="http://www.w3.org/2000/svg"><path fill="currentColor" d="M0 0v32h32V0zm26.73 7.53L25 9.22a.7.7 0 0 0-.19.57v12.05a.69.69 0 0 0 .19.56l1.69 1.69v.38h-8.62v-.38l1.69-1.69c.19-.19.19-.19.19-.56v-10l-4.89 12.25h-.57L8.85 11.86v8.28c0 .38 0 .75.37.94l2.26 2.83v.37h-6.4v-.37l2.26-2.83a1.42 1.42 0 0 0 .38-.94v-9.41a1.1 1.1 0 0 0-.19-.73L5.27 7.53v-.38h6.21l4.9 10.54 4.33-10.54h6z"/></symbol><symbol viewBox="0 0 40 40" fill="currentColor" id="pdf" xmlns="http://www.w3.org/2000/svg"><path d="M26.276 12.552h10.527L24.938.687v10.527c0 .74.599 1.338 1.338 1.338Z" fill="url(#bha)"/><path d="M35.596 12.052h-9.32a.838.838 0 0 1-.838-.838v-9.32l10.158 10.158Z" stroke="#fff" stroke-opacity=".2"/><path d="M26.276 14.896a3.68 3.68 0 0 1-3.682-3.682V0H6.193A3.68 3.68 0 0 0 2.51 3.682v32.636A3.68 3.68 0 0 0 6.193 40h27.614a3.686 3.686 0 0 0 3.682-3.682V14.896H26.276Z" fill="url(#bhb)"/><path d="M22.094 11.214a4.18 4.18 0 0 0 4.182 4.182h10.713v20.922a3.186 3.186 0 0 1-3.182 3.182H6.193a3.18 3.18 0 0 1-3.183-3.182V3.682A3.18 3.18 0 0 1 6.193.5h15.9v10.714Z" stroke="#fff" stroke-opacity=".2"/><g filter="url(#bhc)"><path d="M10.297 28.074c-.798.477-1.482 1.222-1.942 2.027-.382.668-.727 1.663-.099 2.304.793.808 2.234.238 3.06-.195 1.963-1.028 3.135-3.013 4.145-4.898a34.414 34.414 0 0 1 6.388-1.686c1.45 1.103 3.153 1.847 5.01 1.976 1.187.083 2.732-.055 3.34-1.261.721-1.432-1.024-2.347-2.182-2.545-1.877-.32-3.876-.004-5.744.264-1.299-1.117-2.325-2.544-3.157-4.033.66-1.83 1.202-3.83.972-5.793-.11-.95-.452-2.048-1.351-2.541-.734-.403-1.603-.255-2.188.337-.796.806-.888 2.086-.775 3.149.186 1.74.934 3.368 1.73 4.905-.81 2.088-1.897 4.087-3.051 5.995a26.947 26.947 0 0 0-4.155 1.995Zm-.854 3.233c.023-.08.043-.149.07-.208a4.231 4.231 0 0 1 1.266-1.56c.714-.54 1.601-.94 2.45-1.307-.907 1.455-2.077 2.804-3.786 3.075Zm15.484-6.046c1.094-.08 2.4-.268 3.443.171.189.08.617.175.354.4-.35.298-.873.292-1.307.296-1.154.013-2.259-.29-3.267-.8.259-.025.518-.048.777-.067Zm-7.606-11.62c.163-.595.595-.98.978-.328.21.358.298.792.325 1.201.078 1.213-.125 2.425-.452 3.591-.15-.348-.29-.697-.418-1.045-.383-1.043-.738-2.31-.433-3.418Zm1.116 8.089c.584.938 1.241 1.84 2.007 2.64a36.976 36.976 0 0 0-3.826.962 39.085 39.085 0 0 0 1.819-3.602Z" fill="url(#bhd)"/><path d="M16.55 12.03c-.797.806-.89 2.086-.776 3.149.186 1.74.934 3.368 1.73 4.905-.81 2.088-1.897 4.087-3.051 5.995a26.947 26.947 0 0 0-4.155 1.995m6.251-16.044.356.351c-.629.636-.744 1.71-.634 2.745.175 1.64.883 3.195 1.677 4.728l.103.2-.081.21c-.825 2.127-1.929 4.154-3.09 6.073l-.088.147-.16.061a26.458 26.458 0 0 0-4.078 1.958l-.257-.429M16.55 12.03c.585-.592 1.454-.74 2.188-.337.9.493 1.24 1.591 1.351 2.54M16.55 12.03l.356.351c.435-.44 1.062-.54 1.591-.25.67.367.988 1.237 1.096 2.16m-9.294 13.783.256.43c-.715.426-1.342 1.104-1.765 1.845l-.433-.247.433.247c-.175.306-.323.658-.367.98-.042.314.018.55.191.725l1.684-3.98Zm9.79-13.84L8.613 32.054c.23.235.586.31 1.077.226.486-.083.998-.306 1.394-.513 1.81-.948 2.921-2.796 3.937-4.691l.09-.167.177-.066a34.912 34.912 0 0 1 6.48-1.71l.213-.035.171.13c1.387 1.055 2.999 1.754 4.741 1.876.568.04 1.185.023 1.715-.13.523-.15.922-.417 1.144-.858.13-.26.135-.458.091-.616-.047-.17-.164-.346-.36-.519-.404-.355-1.035-.604-1.55-.692-1.714-.293-3.547-.028-5.365.234l-.223.032-.225.033-.172-.149c-1.359-1.167-2.42-2.648-3.268-4.168l-.112-.199.078-.214c.653-1.816 1.16-3.724.946-5.566m.496-.058-.496.058m.496-.058-.496.058m.496-.058c.23 1.962-.313 3.962-.972 5.793l.972-5.793Zm4.803 10.528c.13-.01.268-.02.41-.033.428-.036.903-.075 1.365-.077.624-.002 1.288.063 1.898.32l.062.023c.022.007.05.017.093.034.066.025.17.066.265.126a.664.664 0 0 1 .317.459c.044.3-.144.505-.253.598-.271.232-.59.328-.868.372-.25.04-.506.042-.704.044h-.053c-1.247.014-2.43-.313-3.5-.855l-1.538-.779 1.717-.164c.261-.025.525-.048.79-.068Zm0 0 .027.368-.027-.368Zm-5.768-10.28c.083 1.288-.133 2.56-.47 3.759l-.383 1.362-.558-1.3a21.606 21.606 0 0 1-.427-1.07m1.838-2.75-2.285-.974c-.35 1.276.064 2.68.447 3.723m1.838-2.75c-.03-.45-.128-.97-.393-1.422l.393 1.422Zm-1.838 2.75.47-.172-.47.172ZM8.963 31.168l-.219.756.777-.123c1.94-.307 3.213-1.83 4.132-3.305l.847-1.36-1.47.637c-.843.365-1.784.786-2.553 1.367a4.73 4.73 0 0 0-1.42 1.753 1.93 1.93 0 0 0-.094.275Zm9.898-9.703-.502-.806-.38.87a38.545 38.545 0 0 1-1.796 3.557l-.62 1.095 1.202-.37a36.488 36.488 0 0 1 3.775-.95l.9-.176-.635-.661c-.735-.767-1.372-1.64-1.944-2.559Z" stroke="#fff" stroke-opacity=".2"/></g><defs><radialGradient id="bha" cx="0" cy="0" r="1" gradientUnits="userSpaceOnUse" gradientTransform="rotate(90 12.125 18.745) scale(5.93281)"><stop stop-color="#3022BB" stop-opacity=".76"/><stop offset="1" stop-color="#3022BB"/></radialGradient><radialGradient id="bhb" cx="0" cy="0" r="1" gradientUnits="userSpaceOnUse" gradientTransform="matrix(0 20 -17.4896 0 20 20)"><stop stop-color="#3022BB" stop-opacity=".76"/><stop offset="1" stop-color="#3022BB"/></radialGradient><radialGradient id="bhd" cx="0" cy="0" r="1" gradientUnits="userSpaceOnUse" gradientTransform="matrix(0 -13.5082 25.3737 0 19.139 32.813)"><stop stop-color="#fff" stop-opacity=".5"/><stop offset="1" stop-color="#63B3FF" stop-opacity=".5"/></radialGradient><filter id="bhc" x="-8.09" y="-4.534" width="54.459" height="53.346" filterUnits="userSpaceOnUse" color-interpolation-filters="sRGB"><feFlood flood-opacity="0" result="BackgroundImageFix"/><feGaussianBlur in="BackgroundImageFix" stdDeviation="8"/><feComposite in2="SourceAlpha" operator="in" result="effect1_backgroundBlur_729_6637"/><feBlend in="SourceGraphic" in2="effect1_backgroundBlur_729_6637" result="shape"/></filter></defs></symbol><symbol viewBox="0 0 20 20" id="search" xmlns="http://www.w3.org/2000/svg"><path fill="currentColor" d="M3.64 14.47a.75.75 0 1 1 1.06 1.06l-1.06-1.06Zm-2.28 4.4A.75.75 0 1 1 .3 17.8l1.06 1.06Zm3.34-3.34-3.34 3.33L.3 17.8l3.34-3.33 1.06 1.06Zm6.13-.45a6.75 6.75 0 0 0 6.75-6.75h1.5c0 4.56-3.69 8.25-8.25 8.25v-1.5ZM4.08 8.33a6.75 6.75 0 0 0 6.75 6.75v1.5a8.25 8.25 0 0 1-8.25-8.25h1.5Zm6.75-6.75a6.75 6.75 0 0 0-6.75 6.75h-1.5c0-4.55 3.7-8.25 8.25-8.25v1.5Zm0-1.5c4.56 0 8.25 3.7 8.25 8.25h-1.5a6.75 6.75 0 0 0-6.75-6.75V.08Z"/></symbol><symbol viewBox="0 0 12 12" id="star" xmlns="http://www.w3.org/2000/svg"><path fill="currentColor" fill-rule="evenodd" d="M6.75 0h-1.5v4.2L2.29 1.22 1.23 2.29l2.96 2.96H0v1.5h4.2L1.22 9.71l1.06 1.06 2.96-2.96V12h1.5V7.81l2.96 2.96 1.06-1.06L7.8 6.75H12v-1.5H7.81l2.96-2.96-1.06-1.06-2.96 2.96V0Z" clip-rule="evenodd"/></symbol><symbol viewBox="0 0 32 28" id="telegram" xmlns="http://www.w3.org/2000/svg"><path fill="currentColor" d="M.52 13.31 7.9 16.1l2.92 9.2a.87.87 0 0 0 1.4.41l4.17-3.34a1.09 1.09 0 0 1 1.53 0l7.38 5.43a.85.85 0 0 0 1.39-.55L32 1.05a.83.83 0 0 0-1.11-1L.52 11.64a.93.93 0 0 0 0 1.67zm9.75 1.26 14.47-8.92c.28-.14.56.28.28.42l-11.83 11a3.34 3.34 0 0 0-.84 1.54l-.41 3.06c0 .42-.56.42-.7 0l-1.53-5.43a1.33 1.33 0 0 1 .56-1.67z"/></symbol><symbol viewBox="0 0 17 20" id="tiktok" xmlns="http://www.w3.org/2000/svg"><path fill="currentColor" d="M14.88 4.28 14.5 4a5.46 5.46 0 0 1-1-.86 4.81 4.81 0 0 1-1.11-2.3 3 3 0 0 1 0-.84H9v13.87a3 3 0 0 1-.44 1.34 2.89 2.89 0 0 1-1 1 2.77 2.77 0 0 1-1.39.38 2.92 2.92 0 0 1 0-5.83 2.77 2.77 0 0 1 .87.14V7.41a6.14 6.14 0 0 0-2.56.2 6.22 6.22 0 0 0-2.29 1.24 6.72 6.72 0 0 0-1.44 1.82A6.38 6.38 0 0 0 0 13.55a6.93 6.93 0 0 0 .36 2.28 6.76 6.76 0 0 0 .91 1.7 6.9 6.9 0 0 0 1.46 1.4A6.21 6.21 0 0 0 6.19 20a6 6 0 0 0 2.55-.58 6.43 6.43 0 0 0 2.07-1.59 6.63 6.63 0 0 0 1.13-1.91 7.29 7.29 0 0 0 .41-2.19v-7l.59.39a7.71 7.71 0 0 0 2 .85 11.35 11.35 0 0 0 2.06.24V4.8a4.3 4.3 0 0 1-2.12-.52Z"/></symbol><symbol viewBox="0 0 24 24" id="times" xmlns="http://www.w3.org/2000/svg"><path fill="none" stroke="currentColor" stroke-linecap="round" stroke-width="1.5" d="M20 3 3 20M3 3l17 17"/></symbol><symbol viewBox="0 0 32 26" id="twitter" xmlns="http://www.w3.org/2000/svg"><path fill="currentColor" d="M27.8 4.2a7.52 7.52 0 0 0 3-3.6 10.77 10.77 0 0 1-4.2 1.6A7.18 7.18 0 0 0 21.8 0a6.49 6.49 0 0 0-6.4 6.6 4.4 4.4 0 0 0 .2 1.6 19.64 19.64 0 0 1-13.4-7 6.64 6.64 0 0 0-1 3.2 6.65 6.65 0 0 0 3 5.6 7.41 7.41 0 0 1-3-.8 6.85 6.85 0 0 0 5.4 6.6H4.8a2.54 2.54 0 0 1-1.2-.2 6.62 6.62 0 0 0 6 4.6 13 13 0 0 1-8 2.8H0a19 19 0 0 0 10 3c12 0 18.6-10 18.6-18.6v-.8A27.25 27.25 0 0 0 32 3.2a41.87 41.87 0 0 1-4.2 1z"/></symbol><symbol viewBox="0 0 32 22.5" id="youtube" xmlns="http://www.w3.org/2000/svg"><path fill="currentColor" d="M31.33 3.55A4 4 0 0 0 28.5.72C26 .05 16 .05 16 .05S6 .05 3.5.72A4 4 0 0 0 .67 3.55a41.51 41.51 0 0 0-.67 7.7A41.51 41.51 0 0 0 .67 19a4 4 0 0 0 2.83 2.78c2.49.67 12.5.67 12.5.67s10 0 12.5-.67A4 4 0 0 0 31.33 19a41.51 41.51 0 0 0 .67-7.7 41.51 41.51 0 0 0-.67-7.75zM12.8 16.05v-9.6l8.31 4.8z"/></symbol></svg>